<svg width="104" height="106" viewBox="0 0 104 106" fill="none" xmlns="http://www.w3.org/2000/svg">
<g clip-path="url(#clip0_5920_31128)">
<g clip-path="url(#clip1_5920_31128)">
<path d="M59.825 96.8013L58.6758 96.9928C59.6045 96.819 60.5433 96.6448 61.4921 96.4703C62.4294 96.2556 63.3537 95.9501 64.3001 95.7047C66.215 95.2739 68.0154 94.4314 69.8725 93.7796C65.7678 95.127 61.2319 95.9115 56.9599 96.474C54.8031 96.5886 52.7249 96.9439 50.7471 97.0018C49.7644 97.066 48.7952 97.2311 47.8735 97.3134C46.951 97.3755 46.06 97.4771 45.2009 97.6283C45.0601 97.329 44.4379 97.0564 43.6124 96.7198C42.7953 96.3323 41.7671 95.9418 40.7406 95.602C39.7154 95.3027 38.746 94.8696 38.003 94.5911C37.2599 94.3125 36.7425 94.168 36.684 94.2207C36.269 94.1336 35.8443 94.057 35.4387 93.9493L34.219 93.5451C33.4054 93.2588 32.582 92.983 31.7583 92.697C32.8876 93.1043 34.0065 93.5017 35.1254 93.8992C34.0065 93.5017 32.8872 93.0941 31.7583 92.697C26.633 90.6226 21.7622 87.1606 17.8099 82.6331C13.8282 78.1268 10.8354 72.5525 9.1046 66.5597C8.0484 63.2708 6.8165 56.8756 7.26195 50.4532C7.2887 50.0569 7.26493 49.6522 7.3218 49.2548L7.48272 48.0733C7.58677 47.2891 7.70085 46.5046 7.80524 45.7305C7.86948 44.9579 8.11577 44.2195 8.28211 43.494C8.45848 42.7681 8.6352 42.0524 8.79287 41.3677C9.62568 38.6627 10.4715 36.3425 11.3137 34.803C11.7757 33.9051 12.1255 32.9604 12.6997 32.1094C12.2211 32.8152 12.0431 33.1964 11.8651 33.5777C11.677 33.9592 11.4887 34.3307 11.1025 35.0941C11.2864 34.5911 11.4603 34.0883 11.6349 33.6059C11.8091 33.1132 11.9733 32.621 12.2192 32.1665C12.6601 31.2389 13.0913 30.3218 13.5131 29.4253C13.7084 28.9624 13.9657 28.5481 14.223 28.1337C14.4803 27.7194 14.7272 27.2952 14.9744 26.8812C15.4893 26.0626 15.9326 25.2059 16.551 24.475C16.2764 24.6771 16.0892 24.7849 15.8243 24.9765C15.5699 25.1779 15.2686 25.4822 14.7261 26.0787C15.1412 25.5778 15.4841 25.0186 15.9508 24.5565C16.3553 23.7417 17.2289 22.5357 18.1326 21.3286C19.1505 20.2292 20.2085 19.1283 20.8463 18.3765C20.7839 18.6118 21.0097 18.452 21.422 18.1641C21.8447 17.886 22.4128 17.4508 22.9515 17.0369L22.4364 17.2574C26.3962 14.009 31.536 10.8822 35.8879 9.41471C36.4719 9.15133 36.9745 9.15433 37.2753 9.13386L39.3516 8.42381C40.047 8.18702 40.7317 7.93031 41.4507 7.79409C41.192 8.16794 45.065 7.39614 43.0546 7.97213C43.8407 7.74235 44.6261 7.49233 45.4357 7.36312C46.2467 7.27442 47.0674 7.17525 47.8684 7.08689C48.6804 7.02857 49.4783 6.84908 50.2827 6.86198C51.0857 6.83438 51.8784 6.797 52.6693 6.70899C58.2616 6.85133 64.0192 8.01192 69.4417 10.2586C74.8635 12.4851 79.9393 15.7676 84.2475 19.8268L84.1272 19.5369C84.8753 20.2614 85.6608 20.9035 86.3882 21.6084C87.0868 22.3549 87.7751 23.0915 88.4941 23.8474C89.243 24.5922 89.8557 25.4734 90.5007 26.4143C91.1259 27.3661 91.8615 28.314 92.3544 29.5136C92.8626 30.2768 93.4141 31.1297 93.9767 32.0126C94.5292 32.8959 94.934 33.8653 95.4155 34.7308C95.8476 35.6182 96.3566 36.4016 96.652 37.1112C96.9771 37.8097 97.2771 38.357 97.539 38.6724C97.8458 39.7162 98.1865 40.5763 98.405 41.39C98.6135 42.2039 98.7995 42.9478 98.9952 43.6811C99.1809 44.4148 99.3967 45.1474 99.5855 45.9722C99.714 46.7991 99.8453 47.707 99.972 48.7773C100.083 48.2057 100.269 49.2435 100.431 50.1706C100.614 51.1072 100.669 51.8453 100.775 50.8178C100.967 47.8915 100.631 47.7611 100.697 45.2548L100.599 45.3393C99.4541 33.8012 93.9197 22.6269 85.2333 14.5212C83.6744 13.2974 82.1711 11.9399 80.4456 10.8435C79.6023 10.2744 78.7776 9.66403 77.9045 9.10604C77.013 8.59938 76.1111 8.08293 75.2092 7.56649L73.8568 6.80194L72.4382 6.16133L69.5913 4.89057C68.6239 4.5183 67.6289 4.21795 66.6429 3.88688C65.6575 3.57606 64.6902 3.2038 63.6796 3.03577C62.5966 2.80941 61.5136 2.58305 60.4106 2.35738C59.3172 2.12124 58.1805 2.08934 57.0702 1.94502C54.8384 1.62635 52.581 1.73435 50.3799 1.7289L49.5562 1.73694L48.7351 1.82598C48.1944 1.88512 47.6538 1.94425 47.1232 2.00304C46.0525 2.14121 44.9993 2.19769 43.9712 2.40537C42.9539 2.63295 41.9563 2.84972 40.9888 3.06545L39.5526 3.38854C39.0953 3.53605 38.6384 3.69368 38.2012 3.8405C37.3569 4.1331 36.6093 4.31086 35.8803 4.44744C35.5206 4.51049 35.161 4.57354 34.7913 4.63693C34.4323 4.72023 34.0841 4.82344 33.7158 4.92734C32.9234 5.26885 32.0912 5.62186 31.2494 5.98534C30.8336 6.17198 30.3867 6.32927 29.972 6.54628C29.5576 6.77341 29.1329 6.99077 28.7185 7.21791C27.8697 7.67287 27.0111 8.1383 26.1326 8.60443C25.2751 9.10024 24.4612 9.69593 23.6154 10.242C21.8824 11.2951 20.3304 12.6461 18.7662 13.9367C17.953 14.5526 17.2855 15.3156 16.5657 16.0196C15.8663 16.733 15.1462 17.4268 14.5077 18.1584C14.6043 18.0436 14.7013 17.9389 14.7698 17.8858C14.0929 18.6694 13.4545 19.401 12.8458 20.1215C12.2471 20.8416 11.5748 21.4628 11.0575 22.2105C10.5194 22.9386 9.98133 23.6668 9.43356 24.4054C9.16521 24.7897 8.88682 25.1744 8.60843 25.5591C8.37157 25.9828 8.13505 26.4168 7.88883 26.8612C7.9802 26.8884 7.67754 27.4463 7.5667 27.7339C7.19076 27.9091 4.41961 33.3165 3.0934 39.2522C1.64639 45.1819 1.84447 51.3186 1.74737 52.0113C1.76145 52.4265 1.77622 52.8619 1.78095 53.2977C1.58521 61.7492 3.51802 70.7359 7.17418 77.1998C7.40669 77.5365 7.6392 77.8732 7.87205 78.22C8.13433 78.5455 8.40664 78.8707 8.66858 79.1861C9.19245 79.8169 9.70525 80.4177 10.1644 80.919C10.4457 81.5074 10.6775 81.8239 10.9789 82.1177C11.2903 82.4111 11.6222 82.714 12.0855 83.3367C12.5283 84.244 12.977 85.0295 13.3804 85.6645C13.7741 86.3099 14.2202 86.7203 14.4918 87.0253C15.0742 87.6034 15.2428 87.5368 14.6414 86.6957C16.9211 89.02 19.3171 91.2187 21.6464 92.933C22.776 93.6444 23.8859 94.3666 25.0445 95.0466C26.0665 95.5488 26.553 95.968 26.9606 96.4304C29.559 97.7807 28.7066 97.5363 31.4856 98.8803C31.6313 99.0274 32.1518 99.2629 32.8651 99.5527C33.5787 99.8526 34.5399 100.043 35.483 100.294C36.4255 100.525 37.3679 100.756 38.138 100.943C38.9157 101.058 39.502 101.16 39.7055 101.234L39.2109 101.17C40.072 101.373 40.8535 101.6 41.5949 101.828C42.3366 102.066 43.0378 102.295 43.7663 102.442C45.2037 102.748 46.6445 103.155 48.3866 103.257C53.2433 103.637 58.3509 103.117 63.2375 102.006C68.0885 100.735 72.635 98.7839 76.5905 96.59C76.5196 96.2782 74.8655 97.582 74.5734 97.2676L76.3517 96.365C76.9447 96.0709 77.4941 95.677 78.0657 95.343L79.7789 94.3008C80.3501 93.9568 80.9317 93.6225 81.46 93.1988L84.6942 90.7762C85.6989 89.88 86.6821 88.9439 87.6554 88.0082C88.4391 87.4135 89.2742 86.5536 89.6571 86.2869C90.8706 85.0287 90.2001 85.4066 91.0522 84.4547L91.3855 84.5041C91.9222 83.7355 92.3051 83.1749 92.7812 82.6921C93.2368 82.2 93.7025 81.7075 94.1492 80.9521C94.1042 80.8117 94.4782 80.2818 94.802 79.7537C95.0778 79.8861 95.7294 78.0592 95.9176 78.2758L95.9166 78.2454C96.0963 77.9148 96.2085 77.6676 96.4772 77.2935C96.5416 77.1189 96.7553 76.6047 97.0231 75.9061C97.2908 75.2075 97.5209 74.2872 97.8022 73.3955C98.0634 72.5046 98.3243 71.6035 98.5311 70.8867C98.6874 70.1616 98.7789 69.6008 98.8032 69.4276L98.9538 69.1285C99.2532 68.1754 99.1771 67.7116 98.9437 68.2367L99.3365 67.0776L99.3112 67.2204L99.7044 66.0715C99.7979 65.8655 99.9713 65.6466 100.035 66.0297C100.081 65.3286 100.196 64.5542 100.394 63.8985C99.8848 65.7611 98.8327 67.9262 97.9482 69.7003C98.1017 68.8942 98.7092 67.5452 98.9517 66.6955C99.0743 66.4581 99.235 66.1586 99.3839 65.8088C99.5024 65.4499 99.6392 65.0396 99.7761 64.6294C100.038 63.7688 100.329 62.8465 100.582 62.0267C100.63 61.65 100.419 61.3531 100.652 60.5442C100.931 60.1696 100.761 59.5976 100.999 58.9203C101.017 59.7409 100.903 60.5254 100.74 61.3319C101.078 61.2493 101.175 59.3705 101.335 58.7365C101.284 58.4239 101.572 56.8528 101.579 55.8489C101.835 56.3065 101.763 55.0519 101.913 54.4587C101.961 53.7778 101.855 53.3455 101.764 53.6224C101.485 53.3988 101.544 56.2962 101.27 55.3425C101.413 55.1044 101.388 53.7874 101.384 53.0779C101.233 53.0628 101.26 53.5586 101.113 53.0973C101.157 52.3152 100.989 51.4897 101.154 51.0379C101.189 51.1787 101.17 51.5037 101.158 51.7373C101.192 50.6818 102.081 57.3219 102.006 56.0066C101.866 56.3156 101.183 50.1144 101.157 50.8148C101.077 51.4359 100.881 50.3782 100.822 51.0189L100.996 51.7226C100.926 52.5969 100.646 52.9512 100.546 52.6505C100.596 51.1686 101.532 56.8441 101.399 55.5915C101.365 55.7651 101.36 55.9274 101.306 56.1016C101.237 55.5565 101.159 54.1298 101.341 53.5761C101.19 53.5712 101.145 52.8529 101.095 52.2565L101.128 52.0425C101.057 51.4265 101.108 50.5732 100.901 50.9757C100.891 52.7704 100.509 52.1752 100.108 51.5909C99.716 51.0062 99.3043 50.4223 99.2308 52.1077C99.5946 50.686 99.5685 52.5827 99.5888 54.0722C99.4628 54.2084 99.3045 54.8728 99.1796 55.9314C99.1001 56.8465 99.2386 56.4869 99.305 56.6671C99.1713 57.1685 98.9931 58.1377 98.8274 57.9913C98.9528 58.7271 98.564 59.1156 98.533 59.9783C98.539 60.7486 98.6323 59.9445 98.6709 60.4906C98.4377 61.6138 98.0479 63.158 97.8164 64.0378C97.5754 64.3401 97.0653 65.3005 96.9773 64.4823C97.3734 62.8264 97.2436 65.2234 97.576 63.4682C97.0355 64.1255 97.8146 61.9089 97.6008 61.5311C97.3068 62.048 97.0631 63.1614 96.904 64.0996L96.9986 63.924C96.9267 64.7679 96.4593 66.3959 95.9839 67.1928C95.9255 66.9515 95.7059 67.2936 95.8667 66.7001L95.4915 67.7876C95.4866 67.9399 95.4821 68.1022 95.612 67.7835C95.5402 68.3334 95.3161 68.8378 95.1173 69.1995C94.9785 69.255 93.2571 75.0927 93.1176 74.8339C92.7104 75.5677 92.4314 75.6381 92.1564 76.418C92.1674 76.4481 92.3939 76.0145 92.7136 75.3648C93.0128 74.7057 93.4966 73.8578 93.7675 72.9564C94.391 71.1912 94.9587 69.5598 94.7551 70.0737C94.6495 70.2192 94.3994 70.8462 94.0873 71.7187C93.7548 72.5817 93.4215 73.7184 92.8837 74.7507C92.387 75.812 91.8901 76.8631 91.4856 77.6779C91.0399 78.4637 90.6556 78.9838 90.5275 79.0592C90.1833 79.5779 89.7827 80.2101 89.9824 80.1728C89.3269 80.9962 89.9382 79.7587 89.4033 80.2839C89.4043 80.3143 89.4936 80.2808 89.3593 80.4679L88.8126 80.9429C88.4663 81.6949 87.7465 82.3989 87.1195 83.1706C86.4512 83.9134 85.8564 84.7448 85.3366 85.4217C85.5932 84.987 85.7429 84.3635 86.3247 83.4412L86.5023 83.3439C86.5677 83.1997 87.0961 82.482 86.9732 82.4153C86.2337 83.1301 85.7247 83.8268 85.1018 84.7201C84.9346 84.8272 84.7383 84.9657 84.6005 85.0516C84.6209 85.061 84.641 85.0603 84.6518 85.0802C84.3364 85.2634 84.3551 85.2222 84.4008 85.0889C84.4001 85.0686 84.4095 85.048 84.4285 85.0169C83.6791 85.1441 81.8182 88.0568 80.1511 88.9758C79.7622 89.3642 80.1541 89.0669 79.6784 89.5597C79.2855 89.8267 78.922 90.0724 78.5682 90.3075C78.2137 90.5225 77.8481 90.7074 77.493 90.9021C76.7826 91.2915 76.0629 91.7014 75.2255 92.1966C74.8003 92.6978 74.7833 92.7896 75.5283 92.5308C75.1052 92.7988 74.6715 93.0469 74.2162 93.2552C75.1653 92.1986 71.5432 94.1479 72.6307 93.0258C72.2022 93.1318 71.4212 93.5134 70.7233 93.9733C70.698 94.1161 70.6872 94.3902 69.7151 94.7683C68.3115 95.1613 68.6507 95.0888 67.4952 95.3921C67.1824 95.3521 67.5566 95.1264 67.4729 95.0279C65.8555 95.9351 65.8733 95.2755 64.253 95.7975C63.2401 96.1567 61.221 96.7736 61.2181 96.9866C59.7896 97.2384 59.7526 97.0369 59.8448 96.7905L59.825 96.8013Z" fill="white"/>
</g>
<path d="M47.1438 63.44L47.0431 63.4267L47.1156 63.3485L47.1357 63.4487L47.1441 63.4484L47.1438 63.44Z" fill="white"/>
</g>
<path d="M68 53.4995L44.75 66.9229L44.75 40.0761L68 53.4995Z" fill="white"/>
<defs>
<clipPath id="clip0_5920_31128">
<rect width="100.166" height="101.673" fill="white" transform="matrix(0.99941 -0.0343496 0.0338963 0.999425 0 3.44043)"/>
</clipPath>
<clipPath id="clip1_5920_31128">
<rect width="100.166" height="101.673" fill="white" transform="matrix(0.99941 -0.0343496 0.0338963 0.999425 0 3.44043)"/>
</clipPath>
</defs>
</svg>
