<svg width="154" height="150" viewBox="0 0 154 150" fill="none" xmlns="http://www.w3.org/2000/svg">
<path d="M74.439 103.74L73.6566 104.391L73.7797 105.431L73.2303 105.409L72.7597 106.641L73.2029 107.379L72.524 107.501L72.9045 109.025L73.3304 108.861L73.7532 109.369C74.5064 109.081 75.3736 109.219 75.8926 108.493C76.3063 108.911 76.8411 108.717 77.1508 108.557C77.8851 108.179 78.8115 108.235 79.4032 107.761C80.0946 107.208 80.9219 107.152 81.6548 106.828C82.5344 106.439 83.447 106.048 84.3775 105.733C85.2859 105.425 86.2969 105.17 87.0648 104.488C88.914 104.173 90.432 103.05 92.1178 102.343C93.4313 101.792 94.8189 101.313 96.0156 100.456C96.4319 100.159 97.1448 100.254 97.0545 99.3134C97.8055 99.6106 98.4056 99.62 98.9739 99.1135C99.3948 98.7626 99.8732 98.487 100.388 98.299C101.705 97.7802 102.871 96.9932 104.107 96.3316C105.242 95.7245 106.296 94.9633 107.42 94.3833C108.936 93.6008 110.029 92.3558 111.36 91.3846C111.594 91.2136 111.672 90.8424 111.878 90.6138C112.1 90.3656 112.536 90.2164 112.609 89.9496C112.705 89.604 112.991 89.6065 113.145 89.4162C113.373 89.1348 113.576 88.8332 113.833 88.4811C113.778 88.1708 114.111 87.7509 113.764 87.3365C113.677 87.2322 113.71 86.8666 113.813 86.7905C114.592 86.2147 114.254 85.4593 114.146 84.6756C113.435 83.5679 112.361 83.2706 111.057 83.6201C110.883 83.6606 110.716 83.7245 110.559 83.81C109.967 84.1626 109.424 84.644 108.789 84.8623C108.09 85.1025 107.586 85.5489 107.042 85.9787C106.52 86.3912 106.038 87.0386 105.457 87.1455C104.812 87.2637 104.589 88.1136 103.863 87.883C103.821 88.5372 103.023 88.2748 102.824 88.7388C102.191 88.7286 101.873 89.2818 101.39 89.5283C100.943 89.7565 100.514 90.0306 100.073 90.2361C98.6363 90.9257 97.2501 91.7164 95.9253 92.6023C95.0133 92.5793 94.6501 93.6239 93.744 93.6878C92.966 93.7425 92.3676 94.3493 91.6987 94.6944C90.9398 95.0865 90.177 95.5381 89.4279 95.9793C88.7285 96.3914 87.9816 96.7255 87.2669 97.1257C86.2134 97.7155 85.0154 98.0434 84.0129 98.7594C83.2257 98.6214 82.9365 99.5468 82.1649 99.5843C81.5174 99.6158 80.8857 100.055 80.3389 100.379C79.0046 101.17 77.4867 101.463 76.1341 102.167C75.8137 102.334 75.491 102.496 75.118 102.687C75.3022 102.992 75.441 103.223 75.6593 103.585L74.439 103.74Z" fill="#5762C7"/>
<path d="M82.4869 75.6714C82.5984 75.6816 82.6942 75.6904 82.7895 75.6991L82.658 74.593C82.8949 74.7337 83.047 74.8248 83.2904 74.9688C83.5823 74.6579 84.0847 74.3652 84.1597 73.9876C84.2815 73.3746 84.8861 73.6042 85.1143 73.2197C85.3214 72.8709 85.863 72.6531 85.9378 72.3082C86.0597 71.7463 86.5377 71.6062 86.8016 71.2416C87.049 70.8586 87.2741 70.4616 87.4757 70.0526L88.3412 69.6974L88.1183 68.619C88.5371 68.8909 88.6752 68.9804 88.9002 69.1264C89.4308 67.6939 90.9273 67.0097 91.5189 65.6486C91.4481 65.5108 91.3869 65.3914 91.2252 65.0763C91.5348 65.2647 91.6661 65.3447 91.8191 65.4378L92.4602 64.5369C92.335 64.3478 92.2088 64.1569 92.0241 63.8777L92.454 63.8488L92.72 63.2398L93.306 63.5294C93.4084 63.1486 93.51 62.7669 93.6312 62.3155C93.5569 62.2022 93.4304 62.0116 93.2669 61.7641L94.3727 61.5064C94.2928 60.6186 94.8698 59.6959 94.4884 58.73L94.0158 58.6642C94.0514 58.2751 94.198 58.2529 94.8215 58.543C94.9002 58.492 94.9752 58.4356 95.0459 58.374C95.0736 58.3471 95.0695 58.2875 95.1043 58.1367C94.903 58.0357 94.6786 57.923 94.4312 57.7984L94.1301 56.9013L93.6642 57.6994C93.5112 57.3788 93.3973 57.1405 93.2049 56.7374L92.6394 57.9022L93.0393 57.98L92.6823 58.8118L92.0605 58.0648L91.07 58.2902L90.0172 60.2996C89.6929 60.4074 88.8557 61.309 88.5912 61.8558L88.1204 61.8353L87.6797 62.7917L88.0804 62.8557C88.0615 62.933 88.0639 63.072 88.0169 63.0913C87.4842 63.3117 86.8171 63.3201 86.7147 64.1344C86.6958 64.2851 86.2745 64.3874 86.0369 64.5081C84.95 65.0601 84.2202 65.8883 83.9766 67.0947C83.7649 67.191 83.4974 67.2539 83.3133 67.4132C83.0966 67.6008 82.9119 68.0936 82.7838 68.07C82.1208 67.9483 82.3511 68.5771 82.1063 68.7861C81.8514 68.9818 81.6435 69.2319 81.4976 69.5183C81.2295 70.0744 80.7532 70.5415 80.3204 71.0048C78.8675 72.5577 77.5562 74.2373 76.4023 76.0235C75.5064 77.4105 74.5325 78.7504 73.7892 80.2252C73.2882 81.2187 72.6985 82.2444 72.5449 83.3124C72.4055 84.2775 72.1156 85.2705 72.2767 86.3471C72.4175 86.3922 72.5881 86.4473 72.7846 86.5096L72.777 86.8875L74.2521 86.9817C74.506 86.5965 74.7408 86.1589 74.5329 85.505C74.8077 85.7501 75.0077 85.9285 75.2234 86.121L75.5397 85.8577C75.4745 85.6665 75.4172 85.4986 75.3587 85.327L75.9384 85.2531L76.0623 84.7322L77.0088 84.783C77.0019 84.227 76.9422 83.7734 77.0064 83.338C77.0686 82.9154 77.756 82.7016 77.4036 82.0421C77.3009 82.0099 77.1304 81.9565 76.8651 81.8736L77.5731 81.22L77.5499 81.9341C77.8188 81.6859 78.0955 81.5446 78.1824 81.3277C78.3979 80.8338 78.6714 80.3673 78.997 79.9379C79.2927 79.5332 79.6209 79.1531 79.9782 78.8016C80.2909 78.4794 80.5147 78.0715 80.8251 77.7468C81.153 77.4036 81.5846 77.1526 81.8825 76.7892C82.1466 76.4671 82.2916 76.0449 82.4869 75.6714Z" fill="#5762C7"/>
<path d="M66.4035 42.2432L65.627 41.3104C64.9162 41.2261 64.3176 41.3965 63.7119 42.0107C63.7357 42.1644 63.7801 42.4482 63.8323 42.7829C62.7234 42.9418 63.2595 44.1536 62.5537 44.4779C62.1832 45.7147 62.2017 46.9916 61.7516 48.1757C61.7065 48.3629 61.6866 48.5552 61.6925 48.7477C61.5607 50.0887 61.3081 51.4152 60.9377 52.7108C60.7153 53.6199 60.5592 54.5441 60.4708 55.4758C60.3744 56.4866 60.145 57.4802 59.7887 58.4309C59.7435 58.6179 59.7233 58.8101 59.7286 59.0024C59.6508 59.764 59.6629 60.5499 59.4648 61.2788C59.3056 61.866 59.3194 62.4581 59.2302 63.0406C59.0754 64.0467 59.1131 65.0831 59.0804 66.1072C59.0473 67.1381 58.9889 68.1705 59.019 69.2001C59.0313 69.6292 59.2445 70.0532 59.3712 70.4967L61.1489 70.5423C61.6106 70.4586 61.2777 69.7375 61.5352 69.2933L62.0353 69.2736L63.2324 67.7711C63.6245 65.7473 64.1641 63.4928 64.5036 61.1879C64.6683 60.0623 64.947 58.9563 65.3354 57.8871C65.6179 57.116 65.6093 56.2375 65.758 55.4096C66.1524 53.2164 66.5289 50.9889 66.5585 48.7703C66.5866 46.6875 66.9987 44.5924 66.4035 42.2432Z" fill="#5762C7"/>
</svg>
