<svg width="254" height="255" viewBox="0 0 254 255" fill="none" xmlns="http://www.w3.org/2000/svg">
<g clip-path="url(#clip0_5920_31131)">
<path d="M138.366 206.725C106.137 211.292 76.2007 188.787 71.6338 156.557C67.0668 124.327 89.5722 94.3918 121.802 89.8249C125.408 89.3139 128.747 91.8231 129.258 95.4303C129.769 99.0374 127.259 102.375 123.653 102.886C98.6256 106.433 81.1491 129.68 84.6954 154.707C88.2417 179.734 111.489 197.21 136.516 193.664C161.543 190.117 179.019 166.87 175.473 141.843C174.962 138.237 177.472 134.898 181.078 134.387C184.685 133.876 188.023 136.385 188.535 139.993C193.101 172.222 170.596 202.158 138.366 206.725Z" fill="#BB6BD9"/>
<path d="M107.647 122.79L160.301 143.994L115.611 178.991L107.647 122.79Z" fill="#F9B500"/>
<path d="M116.536 185.521C115.408 185.681 114.24 185.549 113.147 185.109C110.961 184.229 109.411 182.249 109.08 179.916L101.117 123.715C100.786 121.381 101.725 119.049 103.581 117.597C105.436 116.144 107.926 115.791 110.112 116.671L162.764 137.875C164.95 138.755 166.501 140.734 166.831 143.068C167.162 145.401 166.223 147.734 164.367 149.186L119.678 184.183C118.751 184.91 117.665 185.362 116.536 185.521ZM115.781 133.176L120.539 166.753L147.239 145.844L115.781 133.176Z" fill="#BB6BD9"/>
<path d="M75.8946 36.8868L39.8129 84.882L15.0026 88.3976L13.807 79.9598L42.6466 41.598L75.8946 36.8868Z" fill="#F9B500"/>
<path d="M150.45 26.3226L114.368 74.3178L81.1203 79.0289L117.209 31.0328L150.45 26.3226Z" fill="#F9B500"/>
<path d="M218.043 16.7448L219.03 23.7132L188.923 63.7535L155.681 68.4637L191.763 20.4686L218.043 16.7448Z" fill="#F9B500"/>
<path d="M217.118 10.2139L190.838 13.9377L149.524 19.7917L116.283 24.502L74.9689 30.356L41.7208 35.0672L8.12062 39.8283C4.51347 40.3394 2.00411 43.6773 2.51524 47.2844L7.27637 80.8851L8.47198 89.3229C8.47413 89.3381 8.47833 89.3521 8.48042 89.3668L29.6393 238.691C30.1504 242.298 33.4883 244.808 37.0955 244.297L246.087 214.683C249.693 214.172 252.204 210.834 251.693 207.227L235.556 93.3463C235.045 89.7396 231.706 87.23 228.1 87.741C224.494 88.252 221.983 91.59 222.494 95.1971L237.706 202.547L41.775 230.31L22.4607 94.0026L40.0844 91.5054L40.7375 91.4128C42.4693 91.1674 44.0333 90.2437 45.0842 88.8459L79.5239 43.0348L102.364 39.7985L75.8464 75.0652C74.2431 77.1979 74.0821 80.0858 75.4389 82.383C76.7948 84.6804 79.4021 85.9337 82.0438 85.5594L85.3773 85.0871L115.293 80.8481L156.606 74.9941L189.847 70.2839L224.924 65.3137C228.53 64.8027 231.04 61.4647 230.529 57.8575L225.56 22.787L224.572 15.8186C224.063 12.2122 220.724 9.70293 217.118 10.2139ZM129.209 65.5528L154.08 32.4701L176.922 29.2334L152.051 62.3162L129.209 65.5528ZM27.805 50.3628L18.1038 63.2677L16.5022 51.9644L27.805 50.3628ZM36.1826 78.7345L21.4062 80.8282L46.2771 47.7454L61.0535 45.6516L36.1826 78.7345ZM95.9632 70.2637L120.839 37.1802L135.609 35.0873L110.738 68.1702L95.9632 70.2637ZM170.523 59.6988L195.394 26.6159L210.169 24.5223L185.293 57.6059L170.523 59.6988ZM203.766 54.9883L214.733 40.4029L216.544 53.1778L203.766 54.9883Z" fill="#BB6BD9"/>
</g>
<defs>
<clipPath id="clip0_5920_31131">
<rect width="224.276" height="224.276" fill="white" transform="translate(0.34375 31.959) rotate(-8.06498)"/>
</clipPath>
</defs>
</svg>
