<svg width="27" height="22" viewBox="0 0 27 22" fill="none" xmlns="http://www.w3.org/2000/svg">
<g clip-path="url(#clip0_4503_27361)">
<path d="M17.5068 9.80225C17.0571 9.60473 16.5981 9.41957 16.1594 9.2003C15.8099 9.02548 15.4811 8.81061 15.1426 8.61403C15.0643 8.56809 14.9819 8.51228 14.8961 8.50391C14.8279 8.49702 14.7523 8.55637 14.6082 8.61476C14.7656 8.7437 14.8522 8.83807 14.9591 8.89832C15.529 9.21689 16.1042 9.52754 16.6756 9.84265C16.7893 9.90587 16.9017 9.97255 17.0116 10.0402C17.3965 10.2813 17.7814 10.5223 18.2239 10.8004C17.925 10.7575 17.7051 10.6711 17.4884 10.5575C17.1452 10.3773 16.8304 10.1337 16.4211 10.0924C16.3024 10.0801 16.1893 9.97632 16.0779 9.91211C15.6671 9.68442 15.2602 9.45228 14.847 9.22559C14.8027 9.2004 14.7473 9.19696 14.6868 9.18117C14.5315 9.43678 14.8411 9.46384 14.8909 9.62198L14.7794 9.95765C14.9938 10.2131 15.2582 10.4023 15.5428 10.5574C16.0841 10.8473 16.6349 11.1189 17.1809 11.3925C17.4207 11.514 17.6673 11.6241 17.9774 11.7718C17.8386 11.8366 17.7797 11.8806 17.7146 11.8955C16.4209 12.1778 15.1139 12.3849 13.7886 12.4414C13.0896 12.4713 12.3855 12.4746 11.687 12.4354C10.7147 12.3804 9.74232 12.3112 8.77779 12.1841C7.81227 12.0545 6.85217 11.8681 5.89584 11.6628C5.12026 11.4966 4.34979 11.2938 3.59129 11.0574C2.89524 10.8417 2.21494 10.5736 1.53753 10.2985C1.17743 10.1539 0.917713 9.87076 0.749055 9.5105C0.715146 9.44082 0.683682 9.37015 0.63432 9.26934C0.60814 9.36623 0.590942 9.42209 0.577189 9.47943C0.38759 9.5591 0.387518 9.36929 0.31428 9.28678C0.152283 9.50483 0.129759 9.87061 0.287152 10.1117C0.384967 10.262 0.514548 10.3993 0.648901 10.5204C1.49979 11.2659 2.44705 11.8631 3.44571 12.3905C4.12971 12.752 4.84113 13.0478 5.56064 13.3144C6.20638 13.5534 6.87897 13.7182 7.54391 13.9062C8.52582 14.1816 9.52746 14.3512 10.5322 14.4792C12.5289 14.7319 14.5256 14.6826 16.5153 14.4406C16.9518 14.3875 17.3895 14.3166 17.824 14.2586C17.9508 14.2417 18.0778 14.2392 18.2743 14.2258C18.1859 14.3306 18.1482 14.3919 18.0966 14.4329C17.3673 15.0131 16.6355 15.5942 15.9008 16.1679C15.7346 16.2984 15.5768 16.4285 15.5522 16.7117L16.2165 16.3506C16.0611 16.6552 15.7467 16.7566 15.4791 16.9599L15.6392 17.2287C15.9871 17.2029 16.2107 16.9541 16.4837 16.8206C16.6336 16.7483 16.7611 16.6277 16.9006 16.5367C16.9826 16.4862 17.0764 16.4511 17.2016 16.4723L15.8678 17.3576C16.1021 17.4727 16.3114 17.4627 16.5051 17.344C16.8925 17.1066 17.2829 16.8766 17.6519 16.6149C18.838 15.7721 20.0247 14.9378 21.3639 14.3465C21.827 14.1417 22.2687 13.8909 22.7205 13.6648C22.9998 13.5258 23.2832 13.411 23.5996 13.3634C23.9062 13.3198 24.205 13.2218 24.4932 13.1539L24.8945 12.698L24.7705 12.3916L25.0598 12.3406C25.1138 12.2209 25.1789 12.0939 25.2313 11.9634C25.3361 11.7023 25.2678 11.5689 25.0005 11.4988C24.9273 11.4796 24.8532 11.4722 24.6578 11.4392C24.7363 11.3872 24.7675 11.366 24.7977 11.3422C24.8279 11.3185 24.8547 11.2933 24.8839 11.2671L24.466 10.769C24.246 10.7315 23.9654 10.6496 23.6849 10.6453C22.9797 10.6317 22.3254 10.4279 21.6872 10.1514C20.8709 9.80029 20.0527 9.4586 19.2461 9.08923C18.5964 8.79146 17.908 8.55252 17.3375 8.09902C17.0064 7.8362 16.6053 7.78003 16.2223 7.64179L16.0527 7.77088L15.6959 7.67662C15.638 7.84965 15.7614 7.89457 15.8546 7.9489C16.2443 8.18797 16.6356 8.42357 17.0254 8.66264C17.0865 8.70117 17.1379 8.75799 17.2071 8.81628C17.0576 8.94585 16.9476 8.86385 16.8421 8.80013C16.4253 8.55762 16.009 8.30917 15.5908 8.07012C15.4725 8.00295 15.3408 7.95852 15.2286 7.90617C15.08 8.08715 15.1637 8.18844 15.2786 8.26846C15.461 8.39591 15.6449 8.5199 15.837 8.62905C16.2577 8.86711 16.6827 9.09479 17.1107 9.32988L17.5053 9.79138L17.5596 9.84127L17.4995 9.80522L17.5068 9.80225ZM4.88732 12.6983C4.90599 12.7023 4.92565 12.7087 4.94431 12.7126L4.91534 12.7675C4.91802 12.7952 4.92947 12.8164 4.94825 12.8347L4.97881 12.854L4.95402 12.8209L4.67661 12.775L4.4734 12.6876L4.41196 12.6694L4.44782 12.6174L4.3679 12.4974L4.06336 12.3705L3.96536 12.3181C3.72915 12.2124 3.47117 12.1443 3.30012 11.9116L3.986 12.2637L4.08933 12.3082L4.39199 12.4445L4.59332 12.5413L4.68843 12.6005C4.72043 12.6163 4.75343 12.6346 4.78788 12.6494L4.88632 12.6958L4.88732 12.6983ZM4.63928 11.8611L4.54128 11.8088L4.3642 11.7999L4.25465 11.7753L3.7778 11.6232L3.68269 11.564L3.6488 11.5576L3.67692 11.5778L3.78646 11.6025L4.2662 11.7476L4.36131 11.8069L4.53695 11.8191L4.63928 11.8611L4.73728 11.9135L4.89166 11.8452L4.65887 11.6777L4.5511 11.6293L4.3809 11.6235L4.27513 11.58L4.17469 11.5287L4.1388 11.5173L4.16892 11.5425L4.26936 11.5939L4.37269 11.6383L4.54532 11.6432L4.6531 11.6916L5.02851 11.7898L5.07929 11.8238L5.03283 11.7794L4.87689 11.8368L4.97405 12.0275L4.74549 11.8986L4.64316 11.8567L4.63928 11.8611ZM8.63727 13.6561L8.81234 13.66L8.91423 13.7079C9.07418 13.6604 9.22582 13.6766 9.36395 13.7789L9.53714 13.7921L9.59136 13.8277L9.54291 13.7783L9.36827 13.7685C9.20644 13.8254 9.05712 13.7938 8.92 13.694L8.82056 13.6451L8.64648 13.6437L8.62582 13.6348L8.64071 13.6576L8.63727 13.6561ZM9.46022 13.9815L9.28126 13.982L9.00474 13.9243L8.44015 13.8366C8.2014 13.7808 7.96609 13.7266 7.72734 13.6708L7.62646 13.6254L7.45182 13.6156L7.41982 13.5998L7.44505 13.627C7.50293 13.6294 7.56325 13.6309 7.62113 13.6333L7.72346 13.6753L8.45735 13.7807L9.00274 13.9194L9.27926 13.9771L9.45201 13.9963L9.55001 14.0487L9.72264 14.0535L9.7482 14.0604L9.72797 14.0456L9.55923 14.0363L9.46123 13.9839L9.46022 13.9815ZM7.58623 12.7184L7.76231 12.7247C7.85007 12.7237 7.94016 12.7074 8.02804 12.7207C8.92535 12.8434 9.82322 12.9745 10.7195 13.0947C11.177 13.1568 11.6388 13.2084 12.0992 13.2636C12.134 13.2582 12.1722 13.2542 12.1208 13.2606C12.1616 13.2843 12.1321 13.2675 12.1025 13.2508C12.0291 13.2661 11.9558 13.2958 11.8813 13.2943C10.753 13.2968 9.64486 13.11 8.53668 12.9231C8.27449 12.8797 8.02217 12.7835 7.76564 12.7119L7.591 12.7021C7.5709 12.7016 7.55323 12.7001 7.5709 12.7016C7.55656 12.6873 7.5709 12.7016 7.58623 12.7184V12.7184ZM9.99657 12.8266L9.82782 12.8173L9.82205 12.8311L9.98936 12.8439L10.1674 12.8552C10.2296 12.8472 10.2927 12.8274 10.3531 12.8289C11.1903 12.8666 12.0286 12.9068 12.8669 12.9469C13.227 12.9651 13.5821 12.9852 13.9432 13.0058L14.1796 13.0136C14.2154 13.0106 14.2501 13.0052 14.2095 13.0101C14.2439 13.0249 14.2129 13.0116 14.1854 12.9997L13.9298 13.0429C13.8539 13.0592 13.7816 13.0914 13.7056 13.0934C12.78 13.1116 11.8539 13.1214 10.9331 13.011C10.6794 12.9815 10.3978 13.0236 10.1693 12.8458L9.99413 12.8276L9.99657 12.8266ZM16.4779 16.5957C16.5012 16.569 16.5236 16.5398 16.4988 16.5699C16.531 16.5511 16.4988 16.5699 16.4666 16.5887C16.4428 16.7336 16.3232 16.7475 16.2132 16.7777C16.1298 16.9581 15.9641 17.0195 15.772 17.0369L16.221 16.7831C16.2429 16.6333 16.3852 16.6476 16.4779 16.5957V16.5957ZM17.8172 13.6659C17.714 13.6991 17.6212 13.8 17.4998 13.7111L16.9307 13.8438C17.1719 13.7231 17.2522 13.7107 17.4955 13.7214C17.5982 13.6799 17.692 13.5815 17.8129 13.6763L18.1306 13.5477C17.9914 13.6817 17.9188 13.7341 17.8162 13.6635L17.8172 13.6659ZM13.6299 13.9179C13.3306 14.0075 13.0273 13.975 12.724 13.9425C12.6892 13.9479 12.6569 13.9524 12.6892 13.9479C12.6602 13.9395 12.6892 13.9479 12.7182 13.9563C13.0178 13.8321 13.3173 13.8201 13.6256 13.9283C13.6594 13.9203 13.6907 13.9134 13.652 13.9233C13.6914 13.9361 13.6614 13.9253 13.6299 13.9179V13.9179ZM14.5304 14.0623C14.229 14.147 13.9289 14.1995 13.6224 14.082L13.4425 14.1433L13.4357 14.0914L13.6167 14.0958C13.9194 14.0566 14.2187 13.967 14.5236 14.0737L14.7075 14.0222L14.7114 14.081L14.5279 14.0633L14.5304 14.0623ZM18.8146 14.8785L18.5407 15.0872L18.4985 15.018L18.8259 14.8854C19.0807 14.6154 19.4673 14.4042 19.8337 14.3679L18.8121 14.8795L18.8146 14.8785ZM18.2674 15.6063L18.2583 15.633L18.2802 15.6098C18.5105 15.4129 18.7294 15.1949 18.976 15.0173C19.3129 14.7745 19.6705 14.5548 20.066 14.4148C19.9122 14.5547 19.749 14.6784 19.5763 14.7857C19.1421 15.0622 18.705 15.3313 18.2689 15.6028L18.2674 15.6063ZM16.6344 12.6205C17.0111 12.4622 18.59 12.1679 18.8612 12.2335C18.4527 12.3415 18.0402 12.4395 17.6215 12.5084C17.2963 12.5624 16.9645 12.5789 16.6363 12.6112L16.4763 12.6587L16.4681 12.6102L16.6295 12.6225L16.6344 12.6205ZM18.1789 9.78317C19.0364 10.0744 20.6238 10.7633 20.8155 10.9416C20.7115 10.9377 20.6332 10.955 20.5722 10.9309C19.8327 10.6148 19.0911 10.2939 18.3549 9.96499C18.285 9.9329 18.2411 9.83851 18.1832 9.77279L18.1765 9.78416L18.1789 9.78317ZM15.3034 13.0704C15.362 13.0467 15.4216 13.0111 15.4828 13.0007C16.6504 12.7866 17.8191 12.5751 18.9888 12.366C19.0789 12.3496 19.1721 12.355 19.2638 12.3495C19.1425 12.4504 19.0105 12.5039 18.8755 12.5355C18.6234 12.5945 18.3688 12.6401 18.1182 12.6955C17.3233 12.8679 16.526 13.0412 15.71 13.0841C15.5767 13.0921 15.4411 13.0664 15.3057 13.0551C15.2671 13.065 15.2318 13.0764 15.2837 13.064C15.2326 13.0502 15.2675 13.0591 15.3024 13.068L15.3034 13.0704ZM24.9557 11.9571C24.7251 12.0619 24.5736 12.1866 24.325 12.0572C24.5272 11.9666 24.6743 11.8381 24.9557 11.9571ZM24.1931 11.9351C24.085 12.0968 23.9676 12.13 23.7919 12.0401C23.903 11.9002 24.0053 11.8156 24.1931 11.9351V11.9351ZM23.9451 12.3692C23.8426 12.4721 23.7421 12.4955 23.6436 12.4396C23.7236 12.3352 23.8146 12.307 23.9451 12.3692ZM23.4625 12.2454C23.4199 12.3413 23.3626 12.3568 23.2908 12.2919L23.4625 12.2454V12.2454ZM19.2495 14.2105L19.2625 14.2426L19.0743 14.3188L19.0613 14.2867L19.2495 14.2105Z" fill="white"/>
<path d="M4.82728 12.7256L4.79426 12.6441L4.6866 12.61L4.61274 12.6313L4.67578 12.787L4.82973 12.7246L4.82728 12.7256Z" fill="white"/>
<path d="M4.93074 12.7725L4.89571 12.686L4.81263 12.7197L4.93074 12.7725Z" fill="white"/>
<path d="M4.43326 12.6175L4.46729 12.7015L4.62123 12.6392C4.59368 12.6273 4.57834 12.6105 4.57178 12.5873L4.43082 12.6185L4.43326 12.6175Z" fill="white"/>
</g>
<defs>
<clipPath id="clip0_4503_27361">
<rect width="22.5805" height="13.5483" fill="white" transform="translate(0 9.422) rotate(-22.0476)"/>
</clipPath>
</defs>
</svg>
