<svg width="25" height="36" viewBox="0 0 25 36" fill="none" xmlns="http://www.w3.org/2000/svg">
<path d="M11.5303 33.3195L12.9169 33.4291C12.7516 33.3842 12.5898 33.3321 12.429 33.2764C12.1342 33.3357 11.8322 33.3528 11.5303 33.3195Z" fill="#F1F192"/>
<path d="M10.4025 27.1339C10.0762 26.7543 9.75967 26.3668 9.45378 25.9706L9.81794 26.4425C8.39529 24.5965 7.19016 22.5756 6.28316 20.4276L6.51817 20.984C5.83452 19.3536 5.33149 17.6474 5.09261 15.8945L5.17612 16.5141C4.99647 15.1614 4.97802 13.7931 5.15573 12.4394L5.07221 13.0589C5.23536 11.8538 5.54708 10.673 6.01903 9.55234L5.78402 10.1088C6.18023 9.17944 6.68422 8.30157 7.30087 7.50042L6.93671 7.97237C7.47275 7.2829 8.08745 6.66237 8.7779 6.12633L8.30595 6.49049C9.00125 5.95638 9.76064 5.51162 10.5686 5.16883L10.0122 5.40383C10.7871 5.07949 11.5979 4.85128 12.4302 4.73572L11.8106 4.81924C12.5613 4.71921 13.3197 4.71242 14.0713 4.80953L13.4518 4.72601C14.1752 4.82409 14.8793 5.01831 15.5532 5.29993L14.9968 5.06492C15.7261 5.3747 16.4078 5.78062 17.0361 6.26228L16.5641 5.89812C17.2808 6.45261 17.9188 7.10033 18.4742 7.81505L18.1101 7.3431C18.7122 8.12483 19.2113 8.97939 19.5978 9.88736L19.3628 9.33093C19.827 10.4351 20.1232 11.6043 20.2824 12.79L20.1989 12.1704C20.4077 13.7649 20.3679 15.3808 20.1571 16.9734L20.2407 16.3539C20.0008 18.131 19.556 19.8809 18.9491 21.5677C18.7831 22.0289 18.6044 22.4863 18.414 22.9379L18.649 22.3814C17.9333 24.074 17.0506 25.6938 16.0135 27.2107C15.7183 27.6428 15.4095 28.0662 15.09 28.4809L15.4541 28.0089C14.4675 29.2849 13.3702 30.4735 12.1728 31.5544C11.9456 31.7651 11.7854 32.0156 11.6912 32.304C11.5455 32.5818 11.4785 32.8809 11.4902 33.2023C11.4785 33.5228 11.5445 33.8228 11.6912 34.1006C11.7854 34.3899 11.9456 34.6395 12.1728 34.8502C12.6166 35.2581 13.2002 35.5611 13.8208 35.5329L14.4403 35.4494C14.8356 35.3387 15.1784 35.1387 15.4687 34.8502C17.34 33.1605 18.9773 31.1951 20.3562 29.0858C21.7352 26.9766 22.8209 24.6722 23.6239 22.2882C24.0075 21.1481 24.3173 19.9819 24.5407 18.7991C24.8155 17.3434 24.998 15.8538 25 14.3709C25.0009 13.7271 24.9679 13.0823 24.8941 12.4423C24.799 11.6072 24.6795 10.773 24.4756 9.95631C24.3241 9.34938 24.1318 8.75119 23.8929 8.17339C23.6181 7.50916 23.3346 6.85562 22.9733 6.23412C22.6121 5.61262 22.1848 5.04647 21.7429 4.4813C21.4167 4.0647 21.0632 3.67044 20.6806 3.30433C20.1688 2.81587 19.6065 2.37403 19.0278 1.96908C18.5947 1.6661 18.1353 1.39808 17.6566 1.17376C17.0176 0.874663 16.3563 0.599844 15.6717 0.421163C14.9531 0.232771 14.2014 0.129835 13.4615 0.0880785C12.9109 0.0570036 12.3593 0.0832231 11.8126 0.155084C11.0677 0.253164 10.3404 0.365811 9.62372 0.593046C8.38655 0.986338 7.17462 1.56025 6.12779 2.33324C5.53251 2.77315 4.95083 3.23247 4.43323 3.76269C3.91564 4.2929 3.4233 4.92023 2.98437 5.54367C2.21235 6.63906 1.64232 7.88206 1.20727 9.14545C0.77222 10.4088 0.529447 11.8014 0.417771 13.1599C0.298327 14.602 0.426511 16.0334 0.645978 17.4599C0.842138 18.733 1.17814 19.9828 1.61901 21.1918C2.57651 23.8167 3.90982 26.2969 5.59078 28.5284C6.07826 29.1762 6.57838 29.8142 7.10665 30.4289C7.31738 30.6561 7.56792 30.8163 7.85633 30.9105C8.13406 31.0562 8.43316 31.1232 8.75459 31.1115C9.07505 31.1232 9.37512 31.0572 9.65285 30.9105C9.94224 30.8163 10.1918 30.6561 10.4025 30.4289C10.8104 29.9851 11.1134 29.4014 11.0852 28.7809L11.0017 28.1614C10.891 27.7661 10.6909 27.4233 10.4025 27.133V27.1339Z" fill="#F1F192"/>
<path d="M14.4331 13.9552C14.4466 14.1664 14.4385 14.3776 14.4115 14.5879L14.469 14.1574C14.4268 14.4558 14.3468 14.7452 14.23 15.0237L14.3927 14.6373C14.2776 14.9033 14.132 15.1532 13.9559 15.3841L14.2084 15.057C14.044 15.2673 13.857 15.4569 13.6476 15.6232L13.9748 15.3706C13.7672 15.5306 13.5434 15.6627 13.3025 15.767L13.689 15.6043C13.432 15.7112 13.1651 15.784 12.8892 15.8236L13.3196 15.7661C13.0204 15.8056 12.7202 15.8056 12.4209 15.7661L12.8514 15.8236C12.5764 15.784 12.3095 15.7121 12.0534 15.6043L12.4398 15.767C12.2187 15.6717 12.0111 15.5522 11.8197 15.4075L12.1468 15.66C11.9473 15.5063 11.7703 15.3284 11.6148 15.1307L11.8673 15.4578C11.7002 15.2412 11.5627 15.0049 11.4548 14.7532L11.6175 15.1397C11.5124 14.8871 11.4387 14.6247 11.4 14.3533L11.4575 14.7838C11.4225 14.5241 11.4207 14.2635 11.454 14.0028L11.3964 14.4333C11.4387 14.1278 11.5294 13.8294 11.6481 13.5454L11.4854 13.9318C11.6058 13.6497 11.7595 13.3845 11.9464 13.141L11.6939 13.4681C11.8602 13.256 12.0489 13.0655 12.261 12.9001L11.9338 13.1527C12.1316 13.0026 12.3454 12.8768 12.5737 12.7788L12.1873 12.9415C12.4236 12.8426 12.6699 12.7761 12.9233 12.7411L12.4928 12.7986C12.9233 12.7429 13.3717 12.706 13.8031 12.7627L13.3726 12.7051C13.7411 12.7564 14.0979 12.8642 14.4466 12.9927C14.6614 13.0601 14.877 13.07 15.0918 13.0215C15.3075 13.0116 15.5079 12.9478 15.6931 12.8292C15.8818 12.7276 16.0328 12.5883 16.1469 12.4122C16.2898 12.2558 16.3859 12.0725 16.4363 11.8622C16.5306 11.4479 16.51 10.9833 16.2736 10.6157L16.0211 10.2886C15.8189 10.0882 15.5816 9.94976 15.3075 9.87247C15.0029 9.76014 14.6919 9.66308 14.372 9.60646C14.0206 9.54445 13.6584 9.49053 13.2999 9.49952C13.1138 9.50401 12.9296 9.52468 12.7445 9.53906C12.3401 9.57141 11.9258 9.61365 11.5384 9.74216C11.1511 9.87068 10.7853 10.0261 10.4573 10.2463C10.1293 10.4665 9.81115 10.7136 9.54963 11.0066C9.00413 11.6186 8.60511 12.325 8.37685 13.114C8.25912 13.5202 8.19531 13.9534 8.19531 14.3767C8.19531 14.6571 8.24115 14.9366 8.28159 15.2134C8.30405 15.3643 8.33461 15.5135 8.37775 15.66C8.45593 15.9242 8.57096 16.1795 8.6815 16.4302C8.74082 16.565 8.81001 16.6962 8.8873 16.8211C9.03109 17.053 9.20544 17.2705 9.37798 17.4808C9.47145 17.594 9.573 17.7009 9.68264 17.7998C9.99898 18.0847 10.3531 18.3543 10.7431 18.5313C11.1331 18.7084 11.5483 18.8773 11.9905 18.9411C12.4326 19.0049 12.8676 19.0571 13.3187 18.9986C13.6054 18.9618 13.893 18.9312 14.1725 18.8531C14.452 18.7749 14.7081 18.6589 14.966 18.5448C15.3659 18.3687 15.72 18.0982 16.0498 17.8151C16.3797 17.532 16.6394 17.1905 16.8748 16.8409C17.1103 16.4913 17.2855 16.0815 17.4266 15.6816C17.5704 15.2745 17.6315 14.8341 17.6639 14.4055C17.6756 14.2554 17.6756 14.1053 17.6666 13.9552C17.6396 13.5247 17.5039 13.123 17.193 12.8112C17.0465 12.653 16.873 12.5416 16.6726 12.4769C16.4794 12.3753 16.2718 12.3295 16.0489 12.3376C15.6301 12.3564 15.197 12.4939 14.9049 12.8112C14.6128 13.1284 14.4043 13.5274 14.4313 13.9552H14.4331Z" fill="#F1F192"/>
<path d="M13.4826 10.2085C12.7906 9.87237 11.9558 10.0269 11.3518 10.4781C10.7479 10.9292 10.3444 11.6428 10.1072 12.3644C9.63895 13.7853 9.8052 15.5053 11.0589 16.4723C11.6206 16.9055 12.3296 17.1472 13.0396 17.1454C13.7621 17.1436 14.473 16.8812 15.0463 16.4463C15.6197 16.0113 16.0879 15.3642 16.3144 14.6462C16.5507 13.8931 16.5498 13.0636 16.3234 12.3087C16.1104 11.5988 15.697 10.9427 15.0994 10.4961C14.5017 10.0494 13.6956 9.86428 12.9677 10.0638C12.7861 10.1132 12.6109 10.1887 12.4491 10.2849C12.3 10.3729 12.4357 10.6066 12.5848 10.5176C13.1888 10.1609 13.9616 10.1806 14.5799 10.4916C15.1883 10.7971 15.6368 11.348 15.9091 11.9627C16.486 13.2622 16.2614 14.8888 15.2503 15.9106C14.7866 16.3798 14.1872 16.7105 13.5374 16.83C12.9021 16.9477 12.229 16.8354 11.6574 16.537C11.0858 16.2387 10.5925 15.7237 10.3507 15.0973C10.109 14.471 10.0766 13.717 10.2096 13.0331C10.4576 11.7632 11.3429 10.1456 12.8625 10.3037C13.0297 10.3208 13.1942 10.3693 13.3451 10.4421C13.4961 10.5149 13.6372 10.2849 13.4808 10.2094L13.4826 10.2085Z" fill="#F1F192"/>
</svg>
