<svg width="239" height="243" viewBox="0 0 239 243" fill="none" xmlns="http://www.w3.org/2000/svg">
<g clip-path="url(#clip0_4503_27308)">
<path d="M101.002 111.883C101.048 112.46 101.483 113.694 101.115 114.588C100.844 115.26 99.5379 115.839 98.6793 115.87C96.7578 115.913 94.8004 115.706 92.9073 115.361C92.1502 115.221 90.919 114.43 90.9313 113.95C90.946 112.782 91.2527 111.326 91.9987 110.51C93.1813 109.222 99.3657 110.087 101.009 111.891L101.002 111.883Z" fill="black"/>
<path d="M26.8664 116.798C29.6253 116.596 31.9074 116.176 34.1429 116.349C35.8076 116.469 38.2094 115.418 38.9906 117.954C39.8204 120.634 41.0229 123.49 38.8761 126.085C38.2693 126.816 36.9991 127.377 36.0515 127.353C34.0075 127.304 31.889 127.067 29.9549 126.437C28.341 125.909 25.9388 124.906 25.6844 123.737C25.2751 121.781 26.3062 119.515 26.8515 116.812L26.8664 116.798Z" fill="black"/>
<path d="M217.128 156.174C218.047 157.74 218.325 160.418 217.558 161.75C216.609 163.419 215.102 163.01 213.66 162.824C213.035 162.74 212.428 162.572 211.813 162.411C208.134 161.451 207.079 158.234 209.501 155.273C209.744 154.975 210.219 154.576 210.499 154.634C212.719 155.089 214.919 155.642 217.128 156.174Z" fill="black"/>
<path d="M211.12 120.768C209.397 122.351 205.068 123.034 202.977 122.047C201.113 121.166 200.781 116.778 202.958 115.057C204.964 113.475 207.62 112.693 210.06 111.715C210.466 111.554 211.385 112.1 211.763 112.567C213.427 114.62 213.03 119.003 211.12 120.768Z" fill="black"/>
<path d="M96.9112 155.31C94.8263 157.164 87.0204 157.068 85.0567 155.175C83.5505 153.718 84.3032 150.077 86.4788 149.149C89.8509 147.713 93.2296 147.828 96.3121 149.98C98.2964 151.371 98.5052 153.883 96.8971 155.31L96.9112 155.31Z" fill="black"/>
<path d="M159.771 184.001C162.607 182.28 164.218 182.461 165.845 184.817C168.192 188.232 167.14 191.793 163.332 193.417C162.607 193.732 161.926 194.14 161.183 194.39C160.237 194.713 158.724 195.437 158.396 195.1C157.706 194.376 157.181 192.98 157.383 192.021C157.964 189.298 158.952 186.668 159.771 184.001Z" fill="black"/>
<path d="M19.399 81.9914C22.6877 81.5563 24.0943 82.3772 24.619 85.1963C25.3794 89.2677 22.9859 92.0962 18.8459 92.0454C18.0602 92.0376 17.2617 92.1353 16.4792 92.071C15.4781 91.9876 13.8041 92.0371 13.6446 91.5893C13.2998 90.6497 13.3962 89.1537 13.9638 88.3634C15.5962 86.1092 17.5551 84.0995 19.399 81.9914V81.9914Z" fill="black"/>
<path d="M79.2513 125.898C81.0433 127.824 81.1798 130.749 79.5454 132.267C77.7322 133.945 73.1073 133.697 71.3902 131.825C70.2811 130.617 70.4423 125.371 71.6164 124.239C72.6706 123.228 77.8145 124.339 79.2588 125.892L79.2513 125.898Z" fill="black"/>
<path d="M53.3691 96.3102C56.6657 93.156 59.0932 93.8278 59.959 97.0126C61.3809 102.317 59.5798 105.192 54.9483 105.193C53.2484 105.198 52.1062 104.463 52.243 102.877C52.4609 100.332 53.1016 97.8251 53.3832 96.3109L53.3691 96.3102Z" fill="black"/>
<path d="M126.112 142.633C123.08 145.348 117.562 145.512 116.545 143.148C115.829 141.479 116.428 138.835 117.279 137.013C117.985 135.508 124.431 136.889 125.739 138.994C126.422 140.086 126.049 141.843 126.105 142.64L126.112 142.633Z" fill="black"/>
<path d="M134.806 75.9904C135.95 75.7843 138.077 74.832 138.689 75.4251C139.784 76.5122 140.417 78.5228 140.399 80.1365C140.379 81.403 139.38 83.2106 138.293 83.7811C136.535 84.7112 134.347 84.8316 132.339 85.2877C132.397 83.3433 132.244 81.3591 132.581 79.4727C132.774 78.414 133.801 77.5073 134.806 75.9904Z" fill="black"/>
<path d="M152.898 149.425C154.434 151.096 153.953 152.118 152.405 153.222C150.076 154.879 146.296 155.499 145.104 153.614C143.932 151.75 143.971 149.097 143.682 146.765C143.661 146.622 145.662 145.784 146.396 146.079C148.641 146.981 150.744 148.28 152.898 149.425Z" fill="black"/>
<path d="M53.4981 159.076C51.9612 157.405 52.4423 156.383 53.9903 155.279C56.3192 153.622 60.0996 153.002 61.2918 154.887C62.464 156.751 62.4243 159.404 62.7138 161.736C62.7343 161.879 60.7336 162.717 59.9992 162.422C57.7543 161.52 55.6517 160.221 53.4981 159.076Z" fill="black"/>
<path d="M156.756 110.688C158.815 113.032 159.229 115.937 157.702 117.305C156.1 118.739 152.537 118.118 150.779 116.095C149.36 114.466 149.529 110.758 151.077 109.264C152.34 108.051 155.037 108.724 156.756 110.688Z" fill="black"/>
<path d="M103.719 55.0105C100.608 54.8039 98.2608 53.0531 98.3668 50.9981C98.4849 48.8518 101.439 46.7694 104.12 46.9594C106.271 47.1131 108.776 49.85 108.736 51.9935C108.696 53.7476 106.309 55.1743 103.713 55.0031L103.719 55.0105Z" fill="black"/>
<path d="M135.051 186.621C135.125 186.554 135.186 186.473 135.267 186.428C136.917 185.647 138.286 182.784 140.402 185.117C142.299 187.204 141.466 191.266 139.265 192.795C139.022 192.958 138.747 193.191 138.485 193.184C136.539 193.155 133.549 193.833 132.859 192.867C131.155 190.486 133.157 188.344 135.051 186.621Z" fill="black"/>
<path d="M54.5506 59.8617C54.6251 59.795 54.6862 59.7134 54.7666 59.6683C56.4171 58.888 57.7856 56.0244 59.9022 58.3574C61.7986 60.4446 60.9661 64.5063 58.7645 66.0352C58.5218 66.1989 58.247 66.4316 57.9854 66.4243C56.0395 66.3951 53.0491 67.0733 52.3586 66.1076C50.6555 63.7265 52.657 61.5847 54.5506 59.8617Z" fill="black"/>
<path d="M175.043 133.293C177.655 131.142 182.896 132.033 184.252 135.046C184.707 136.049 184.785 137.724 184.223 138.536C183.67 139.327 182.002 139.908 180.986 139.718C178.995 139.339 177.02 138.557 175.218 137.594C173.299 136.561 173.33 134.707 175.043 133.293Z" fill="black"/>
<path d="M128.614 100.627C129.422 102.803 129.543 104.332 127.645 104.865C125.227 105.554 122.677 105.945 120.172 106.055C119.526 106.083 118.268 104.619 118.249 103.803C118.196 101.931 118.067 99.1333 120.488 99.0187C123.165 98.8898 125.906 100.032 128.622 100.621L128.614 100.627Z" fill="black"/>
<path d="M115.922 177.63C114.077 179.228 110.698 179.262 109.754 177.099C108.987 175.343 108.94 172.338 109.985 170.972C111.389 169.137 113.789 170.693 114.936 172.243C116.017 173.705 118.454 175.361 115.922 177.63Z" fill="black"/>
<path d="M83.1266 83.7129C81.5882 82.0703 81.5766 77.2611 83.4257 76.0882C84.2111 75.5861 86.143 75.8694 86.8996 76.5342C88.8852 78.2864 89.2002 82.7299 87.798 84.147C86.4553 85.5107 84.645 85.3332 83.1274 83.6988L83.1266 83.7129Z" fill="black"/>
<path d="M182.534 167.946C180.804 169.522 177.315 170.003 176.495 168.562C175.3 166.464 176.689 164.643 178.058 163.323C179.389 162.037 181.2 160.536 183.186 162.408C184.64 163.777 184.219 166.41 182.534 167.946Z" fill="black"/>
<path d="M172.575 100.681C170.555 98.3812 170.932 95.3992 173.044 93.83C173.701 93.335 175.203 93.0636 175.74 93.4684C177.27 94.6361 177.165 99.4955 175.577 100.421C174.663 100.958 173.249 100.654 172.581 100.688L172.575 100.681Z" fill="black"/>
<path d="M91.9225 187.314C93.6477 184.789 96.6352 184.422 98.6894 186.086C99.3266 186.603 99.9581 187.997 99.7046 188.614C98.9556 190.385 94.2145 191.477 92.9273 190.16C92.1828 189.404 92.135 187.956 91.9291 187.322L91.9225 187.314Z" fill="black"/>
</g>
<defs>
<clipPath id="clip0_4503_27308">
<rect width="191.77" height="148.93" fill="white" transform="translate(110.938) rotate(48.1492)"/>
</clipPath>
</defs>
</svg>
