<svg width="910" height="12" viewBox="0 0 910 12" fill="none" xmlns="http://www.w3.org/2000/svg">
<path d="M450.874 11.8756C462.348 11.7181 477.198 11.1741 488.571 11.3316C491.045 10.7732 494.65 10.7589 498.274 10.6444L498.657 11.3745L501.678 11.1454C502.911 11.3602 499.351 11.2887 501.532 11.5607L502.673 11.1025C502.911 11.3602 510.441 11.2743 505.366 11.804H517.113C519.705 11.8326 518.628 11.2028 521.503 11.3745C522.088 11.5893 520.472 11.5177 520.709 11.7897C529.326 12.3337 530.668 10.3724 538.709 10.7016L538.024 10.8019C539.393 10.6014 541.995 10.6301 542.031 10.5299C541 9.78543 540.589 10.9307 538.134 10.5012C538.353 9.88561 541.192 10.1719 541.036 9.69951C542.917 9.92856 544.021 9.57067 545.664 9.52772C548.457 9.91425 552.473 9.64231 554.582 10.1291C555.951 9.92863 557.484 9.32734 560.423 9.2987C562.532 9.78545 559.921 9.75683 562.797 9.94294L563.262 9.58504C565.617 9.64231 565.243 9.74249 565.161 9.91428C567.68 9.9286 567.26 9.41323 570.409 9.6566L568.647 10.0002C570.984 9.85701 571.933 9.92864 575.192 9.95727C575.119 10.1577 573.813 10.1433 572.855 10.0861C574.617 10.6158 575.876 9.85702 576.835 9.91428C576.561 9.75681 574.306 9.68526 575.411 9.32736C577.026 9.39894 578.852 8.84056 580.002 9.27004L578.24 9.61361C581.608 9.32729 580.039 9.16986 583.899 9.2987C583.69 9.32734 583.79 9.41324 583.708 9.48482C586.154 9.0267 589.349 9.44187 592.963 9.48482L592.279 9.58504C593.739 9.4562 594.542 9.14119 595.327 9.16982C593.264 8.95508 593.83 8.85492 593.648 8.51134C596.368 9.11261 597.81 7.82411 602.255 8.18201C602.182 8.38243 601.114 8.64019 599.891 8.42545C598.367 9.04103 598.184 9.5564 595.473 9.84272C597.153 9.69956 599.143 9.61369 598.723 9.87138L599.252 9.2987C600.274 9.28439 601.078 9.31303 601.853 9.31303C602.292 8.95513 599.791 8.72606 602.155 8.49701C604.82 8.3109 603.569 9.08394 603.989 8.82625C607.659 8.59719 605.514 8.21069 609.046 8.41112C608.69 8.45406 608.005 8.55427 607.704 8.49701C610.232 8.72606 613.929 8.39676 614.668 9.08393C614.294 9.2414 614.221 9.44186 613.263 9.3846L613.299 9.28437C610.515 9.78543 615.627 9.15557 614.751 9.77116C614.559 9.39894 618.119 9.4848 619.725 9.55638L619.214 9.14125C624.563 7.89575 618.922 9.97154 624.207 9.81406C627.557 9.52774 622.938 9.69956 625.001 9.39893C627.265 9.47051 628.113 9.84271 631.427 9.6566C632.349 9.8284 634.229 10.0431 634.393 10.5155C636.41 10.3294 640.509 10.7303 641.659 10.2722C638.218 9.87133 638.227 10.7589 634.201 10.1576L635.333 9.69951C638.117 9.72814 641.686 9.49913 643.612 9.6566C643.219 9.57071 643.046 9.45615 643.292 9.35594C647.263 9.18414 648.404 8.72608 652.265 8.86924C652.776 9.2844 650.512 9.21276 648.87 9.25571C651.361 9.58498 651.471 9.28441 655.341 9.41326C655.542 9.78547 652.74 9.3846 652.292 9.7425L656.573 9.62794C656.573 9.62794 656.573 9.67087 656.573 9.69951C657.194 9.08392 659.832 9.75682 662.451 9.57071C668.649 9.57071 669.598 8.75465 673.03 8.2679C673.952 8.4397 674.226 8.58288 673.833 8.74036C672.309 8.46835 672.583 8.6831 672.053 8.84058C674.144 8.78331 676.635 9.44189 675.467 9.68526C678.79 9.51347 674.271 9.35593 676.298 9.16982L680.852 9.21281C680.314 8.89786 678.707 8.82629 681.072 8.59723C683.061 8.51133 684.02 8.5686 686.612 8.59723C686.238 8.75471 687.433 9.06967 685.48 9.05536C686.731 9.16988 688.693 9.18421 689.451 8.88357C686.612 8.59725 694.115 8.61152 691.997 8.12478L694.836 8.41112C694.188 8.41112 694.115 8.6115 693.156 8.55424C693.96 9.02667 695.484 8.42539 696.47 8.36812C697.474 8.45402 700.066 8.49701 700.285 8.68312C701.18 8.55428 703.379 8.65444 703.79 8.89781C705.132 8.7976 703.9 8.58294 704.283 8.43978L708.828 8.48268C709.075 8.74037 709.449 9.4705 708.765 9.57071C710.49 9.32734 709.376 8.79762 711.977 8.82625C710.49 9.32731 715.409 9.2128 713.255 9.82839C714.743 10.2006 718.987 10.1863 721.324 10.0574C722.775 9.65656 718.796 9.82842 718.942 9.41326C725.514 9.27009 725.915 8.1248 730.735 8.32522L729.484 8.21067C732.496 7.98161 732.159 8.02457 733.911 7.68098C733.08 8.19636 737.325 9.05534 742.272 8.95513C742.692 8.69744 739.506 8.46838 740.309 8.05321L743.595 7.98165C743.833 8.0246 743.468 8.1105 743.048 8.16777C745.987 7.98166 748.524 8.8406 749.373 8.23933L752.358 8.99803L751.18 8.68312C751.591 8.42544 754.886 8.35387 755.571 8.25366C758.939 7.96734 760.162 8.1964 762.006 8.52567C761.421 8.31093 759.961 7.83844 762.608 7.75255C762.581 8.58288 768.167 8.06753 768.085 8.49701C769.153 8.49701 771.051 8.74037 771.179 8.39679L770.996 8.91214C771.243 8.18202 775.149 8.22496 778.134 8.09612C777.459 9.08392 781.411 8.02455 782.743 8.91214C783.309 8.23929 788.047 8.65452 788.576 8.08187C790.876 8.05324 790.648 8.66883 791.232 8.88357L792.3 8.64013C793.459 8.95509 797.777 8.99807 800.341 9.21281L802.733 8.6258L803.618 8.89781C804.002 8.75465 805.982 8.65452 804.759 8.43978L806.046 8.46835C806.156 7.82413 807.853 8.29656 810.446 8.02455C811.039 8.12477 810.884 8.28223 810.318 8.36812C811.605 8.36812 811.057 8.69742 811.76 8.92647C810.847 8.75468 816.406 7.78117 812.928 7.48054C812.691 7.22285 814.717 7.02244 815.986 7.13697L816.753 7.70964L818.277 7.09406C820.258 7.00817 821.107 7.38038 822.713 7.45197C821.07 7.4806 819.053 8.56856 823.306 8.55424C821.079 8.62582 819.975 8.95507 818.825 9.0696C819.701 9.09823 820.139 9.15555 818.77 9.39893C822.092 9.22713 819.883 9.04104 823.16 8.96946C822.978 9.48484 823.9 9.6566 826.766 9.82839L824.621 9.44183C824.721 9.38456 824.867 9.32734 825.031 9.2987C824.219 9.24144 823.991 9.15557 823.818 8.96946C824.466 8.96946 827.624 8.32518 828.171 8.64013C824.867 7.83844 833.94 8.0246 831.822 7.53786C832.197 7.3947 834.497 7.35175 834.725 7.62375C831.978 8.01028 836.788 8.21067 836.35 8.56857C837.372 8.42541 834.186 8.182 835.574 7.99589C837.208 7.96726 838.412 8.2823 839.325 8.43978L838.641 8.53991L841.169 8.76902C841.589 8.51133 838.723 8.32518 841.05 8.19634C841.662 8.31087 843.999 8.16772 843.925 8.38245C842.812 8.74036 843.624 9.21281 841.635 9.2987C843.277 9.25575 848.517 9.19844 846.399 8.7117H848.362C847.129 8.51127 843.679 8.11048 847.622 8.05321L847.586 8.15344L850.324 7.76688L851.52 8.03888C851.483 7.91004 851.921 7.78122 852.934 7.79554C853.199 7.95301 854.158 8.01026 854.084 8.225C857.033 8.19637 856.795 7.93868 857.179 7.78121C858.822 7.73826 859.442 7.8528 858.676 8.15344C860.93 8.22502 864.873 8.15344 866.416 8.42545C869.437 8.19639 865.795 8.31091 867.557 7.96732C870.167 8.86923 877.533 8.31088 882.462 8.21067C881.12 7.42329 883.813 8.12478 884.717 7.40898C883.658 7.65235 889.39 8.02459 885.082 8.23933L887.71 8.15344C889.509 8.58292 883.357 8.48264 886.077 9.0696C889.025 9.04097 890.96 8.18203 894.438 8.46835C893.269 9.02667 897.112 8.28222 896.245 8.89781C895.524 9.09824 894.556 9.04098 893.57 9.08393L894.182 9.19848C900.653 9.35596 896.053 8.53997 899.439 8.15344C903.382 8.08186 902.543 8.59722 902.78 8.85491C903.392 8.96944 905.381 8.8835 906.413 8.72603C904.003 9.06961 901.968 8.36814 903.072 8.02455C904.806 8.66878 908.923 8.0818 910 7.82411C904.368 7.15125 906.102 7.79552 900.808 7.0654C900.078 7.26583 900.206 7.83848 897.03 7.60942C899.02 7.3231 896.893 7.29441 896.336 7.1942C896.948 7.52347 894.136 7.33736 893.169 7.46621C892.283 7.1942 895.067 6.70746 891.854 6.57862L891.252 7.35174C889.992 7.23721 891.79 6.77907 889.107 6.96518C890.549 6.56433 888.669 6.33525 892.302 6.22072C887.975 5.56218 885.666 6.57862 882.307 6.85063C882.654 6.80768 882.69 6.69322 883.028 6.65027C882.307 6.8507 881.002 6.83634 880.016 6.87929C877.798 6.7075 881.768 6.53568 881.193 6.32094H877.597C877.524 6.32094 877.506 6.30669 877.506 6.29237C876.566 6.39258 875.662 6.46415 875.333 6.27804C876.401 6.03467 876.821 5.77699 877.542 5.57657L873.763 6.1205C874.174 5.86281 870.651 5.6767 873.335 5.49059L867.748 5.59081L867.274 5.06112C865.941 5.14702 865.896 5.26154 867.502 5.3188C865.594 5.20427 859.041 6.23509 860.045 5.20434C855.664 5.63382 854.084 5.462 848.772 5.71969C852.852 5.23295 844.099 5.10408 848.416 4.88934C845.888 4.66028 845.359 5.21859 843.369 5.3188C841.498 5.08974 842.328 4.58874 844.355 4.38831L841.981 4.63166L842.027 4.53144L839.964 4.83211C837.783 4.54578 839.508 4.30244 837.244 4.23086L836.751 4.68889L835.218 4.41688C835.793 4.63162 834.46 4.71759 832.817 4.76054L832.854 4.66032L830.864 4.74621C832.836 4.45989 829.048 4.64602 829.951 4.31675C828.244 4.28812 828.208 4.30241 825.132 4.38831L825.67 4.70322C821.654 4.97523 825.506 4.23083 822.248 4.2022L822.448 4.5601C817.766 3.94451 814.507 4.90371 811.048 4.50286C813.029 4.41697 812.527 4.00176 812.49 4.10197C809.505 4.23082 804.65 4.13063 801.565 4.57443C800.442 4.04473 800.177 3.88724 797.001 3.65818C794.701 3.68681 794.363 3.7441 793.605 4.04474C791.378 3.84432 787.189 4.14494 787.079 3.7584C786.559 4.05904 785.071 3.70116 783.839 3.95885L783.583 3.8013L783.775 4.15921C779.814 3.34319 777.094 4.61733 773.096 3.90153L773.78 3.8013L772.101 3.94452C771.836 3.78704 772.521 3.68682 772.594 3.48639L764.78 3.41483L766.314 3.68684C764.671 3.72979 763.566 4.07337 761.686 3.85862C764.808 3.31462 759.094 3.83 758.592 3.41483L760.262 3.27162C758.735 3.29071 758.035 3.42436 758.163 3.67251C755.187 3.80135 756.127 2.97099 753.389 3.37184H755.342C755.918 3.6009 754.512 3.90151 753.216 3.8872C752.905 3.82993 751.984 3.67247 752.979 3.62952C750.642 3.77268 747.128 3.57227 746.096 3.72974C744.828 3.61521 745.247 3.3575 745.932 3.25729C740.93 3.57224 743.668 3.18577 738.657 3.50072L738.739 3.30028L737.023 3.54363L734.568 3.09983L735.444 3.37184C733.801 3.41479 732.77 3.55801 730.853 3.42916L731.629 3.12849C726.992 3.30029 726.262 2.61312 721.863 3.0426C721.561 2.98534 722.246 2.8851 722.602 2.84215C718.513 3.3289 719.517 2.29819 715.409 2.88514C715.665 2.78493 715.218 2.65604 715.373 2.57015L713.502 2.77059L713.648 2.35546L712.123 2.97104L710.973 2.54149L710.243 2.74193C708.253 1.95455 705.424 2.54152 702.695 1.95457L703.16 2.48425C696.26 3.55796 687.397 1.86864 679.073 2.3697L679.219 1.95457L675.778 2.44135C673.934 2.11208 676.891 2.08341 676.307 1.86867C672.629 2.09773 674.773 2.48428 670.502 2.59881C668.311 2.31249 671.259 2.29816 672.291 2.14068C668.284 2.34111 662.369 2.57018 659.53 2.34113C659.467 2.39839 659.293 2.46995 659.439 2.49858C656.765 2.68469 653.242 2.49861 650.293 2.52724C650.366 2.34113 651.097 2.31243 651.827 2.26948C650.768 2.24085 649.326 2.11204 648.413 2.31247L649.527 1.95457C647.263 1.88299 642.909 2.21226 642.407 1.78278C642.681 1.94026 642.562 2.25522 640.609 2.24091C639.532 1.611 635.288 2.49861 632.166 2.16934C632.54 2.02618 634.84 1.98323 634.192 1.98323C632.622 1.81143 631.217 2.11204 629.829 2.31247L630.249 2.05479L622.947 2.39836C621.87 1.76845 616.065 2.48424 616.558 2.02613C613.947 1.9975 618.749 2.31245 615.444 2.38403C614.568 2.12634 612.469 2.51286 612.606 2.09769L612.962 2.05479L610.661 2.08345L612.113 1.68256C610.132 1.76845 608.672 2.1693 608.571 2.48425C606.691 2.2552 604.026 2.44134 603.168 2.06912L603.861 1.9689C598.577 2.12637 595.117 0.852263 590.964 1.53943C590.654 1.48217 590.69 1.38189 591.338 1.38189L588.08 1.35332L588.856 1.05265L583.461 1.5251L583.534 1.32466C579.975 1.23876 574.398 1.35329 569.816 1.41055L570.5 1.31033C565.498 1.62528 565.672 1.10993 562.012 1.33899C562.139 1.28172 562.267 1.26741 562.395 1.25309H559.1L559.83 1.06698C557.393 1.51078 552.857 0.480001 554.363 0.866534C552.984 1.06696 550.602 1.29599 550.201 1.55368C546.604 1.58231 549.324 1.28167 547.097 1.10988C544.496 1.08125 544.039 1.4392 540.516 1.25309L540.589 1.05265C538.946 1.0956 537.915 1.23879 535.624 1.26742L536.308 1.1672C532.566 1.59668 531.644 0.551556 528.705 1.46778C527.135 1.29599 524.16 1.42491 524.296 1.00975C519.632 1.28175 516.009 1.39621 511.381 1.56801C510.642 0.880836 510.386 1.61097 507.584 1.22443L507.794 1.58234C501.249 1.62528 493.737 0.723387 486.517 0.880864L486.317 0.508633L484.874 0.909524C477.107 0.737731 467.048 0.594526 460.851 0.594526C458.824 0.780634 455.739 1.22448 452.517 1.09564L452.855 1.03832C447.242 1.25306 441.309 1.3962 435.193 1.19577C435.577 1.0383 434.965 0.938086 435.65 0.837874C434.198 1.23872 432.062 0.85219 430.748 0.837874L432.281 1.10988C430.538 1.45347 428.046 1.10989 427.161 0.852204L424.404 1.23876C424.222 1.19582 423.939 1.13857 423.902 1.08131L423.419 1.26742L421.958 0.780641C421.274 0.880853 417.632 0.995354 416.5 1.46778C416.235 1.31031 413.661 1.18154 415.651 1.09564L405.602 0.952427L407.172 1.12421C407.363 1.48211 404.342 1.72547 402.781 1.55368C404.826 1.25304 402.955 1.03832 402.078 0.766311C400.709 0.966736 403.265 1.09565 402.544 1.28175C400.828 1.52513 397.186 1.65391 396.282 1.48211L397.314 1.33899C394.986 1.46783 393.9 0.837902 391.609 0.866534C389.546 1.15285 388.022 0.895183 388.442 1.51077C385.457 1.63962 387.292 1.08125 386.324 1.02399C384.919 1.32463 380.747 1.12425 380.218 0.809301C378.584 1.72553 372.176 0.480029 371.565 1.25309L369.119 0.823631C369.037 1.02406 368.553 1.49644 366.563 1.58234C364.692 1.35328 365.139 0.995382 364.573 0.780641L363.314 1.55368C352.525 0.723345 338.295 1.2817 326.475 0.594526C321.199 0.752002 314.554 1.10996 308.393 1.00975L309.078 0.909524L302.953 0.694748L307.398 1.05265C306.056 1.13855 305.016 1.29607 303.729 1.28175C297.011 0.966802 288.048 0.565908 279.76 0.966757C274.402 1.85435 276.2 0.179409 271.07 0.823631C271.509 0.737735 271.673 0.623175 272.065 0.522963C266.534 0.8236 263.54 0.966736 258 1.48211C258.639 0.608835 254.394 1.49643 254.896 1.03832L254.431 1.39622C253.199 1.18148 250.305 1.09556 250.716 0.837874L248.27 1.28175L248.06 0.909524C244.829 0.880892 237.864 1.1815 236.167 0.43707C228.143 0.98108 215.484 0.823579 205.425 0.680418C204.01 0.981055 201.071 1.00969 198.771 1.03832L196.316 0.608856C193.979 0.7377 191.496 1.29607 189.324 1.00975C189.333 0.952483 189.424 0.923826 189.58 0.895194C187.206 0.98109 184.952 0.752023 182.734 1.15287C180.133 1.12424 177.604 0.895152 178.407 0.494303C178.152 1.22442 172.903 0.39408 172.903 0.39408C172.903 0.39408 39.4037 -1.36678 6.82742 2.55582C5.73211 2.91372 2.70176 3.14281 3.86096 3.57229C1.5243 3.70113 0.447251 3.07126 0 3.42916C3.17639 3.67253 -0.985775 4.35965 2.12672 4.80344L0.127785 4.88934C-0.282955 5.14703 2.83867 4.60301 2.35491 5.06112L2.92082 4.38831C4.5364 4.48852 5.42177 4.63171 5.99681 4.86076C7.52111 4.60308 8.48864 3.70111 12.1123 4.08764L11.1082 4.13063C14.0656 4.102 12.9155 4.56012 13.5362 4.67465H12.879L15.3708 5.00389C13.4814 4.77483 10.3689 5.31885 12.0027 5.2759C15.526 5.46201 11.09 5.11845 13.7279 5.03255C15.3708 5.00392 14.9053 5.3475 14.8323 5.56224L17.7805 5.53358C17.6801 5.84853 15.8272 5.51929 17.0229 5.83425L20.7378 5.50492C21.4315 6.2923 24.7722 5.1327 26.4699 5.86282C23.8047 6.04893 26.7073 6.12057 26.2874 6.37826L32.8319 6.33527C33.4525 6.4498 31.1159 6.57867 32.1016 6.53572C33.3339 6.75046 34.128 6.3496 34.7852 6.3496C35.3511 6.56434 39.6684 6.34958 39.4858 6.86496C43.9218 7.20854 41.3479 6.20642 45.4827 6.50706C46.0303 6.82201 42.1967 6.57868 44.0314 6.90795L48.3213 6.7934C47.9288 6.95087 47.4907 7.30877 45.8751 7.23719C57.4672 7.65235 63.7195 9.31298 74.3166 8.89781C75.8136 9.27003 73.2396 9.15555 72.1808 9.39893C79.8571 8.89786 82.9787 10.2292 89.514 10.172L89.6327 9.85705C98.742 10.8162 109.704 10.2436 120.009 10.6444L118.777 10.4296C120.192 10.129 122.483 10.1004 124.171 9.95727C124.427 10.1147 122.948 10.6158 125.933 10.487C125.312 10.3724 124.053 10.2579 124.427 10.1147C133.272 10.9164 151.937 10.7303 166.478 11.1169C186.129 10.8735 207.451 11.4891 226.756 11.2887C223.817 11.3173 225.067 10.5442 227.285 10.7303C233.346 12.0331 237.8 10.5155 243.998 11.4031C255.243 10.988 265.284 12.119 275.744 11.1169L275.945 11.489C277.505 11.6608 277.925 11.4032 279.568 11.3602L279.532 11.4604C283.411 11.6036 288.102 11.2313 290.32 11.4031L290.466 10.988C292.767 10.9594 291.662 11.3029 294.026 11.0739L293.962 11.2743L296.71 10.8878C296.445 11.6179 303.209 10.9451 305.052 11.2743C308.028 11.1455 313.687 10.8305 318.205 10.9737C319.045 11.3459 324.585 11.3459 328.118 11.532C335 11.4461 344.83 11.3173 353.584 11.4461L353.428 10.9737L355.719 10.9451C355.683 11.0453 355.993 11.1025 355.646 11.1454C357.417 11.6751 360.922 10.988 362.757 11.3172C361.598 10.8877 361.159 11.2457 359.854 11.2457C357.983 11.0166 359.772 10.5728 362.3 10.8019L362.246 10.9021L363.971 10.6587C364.162 11.031 365.732 11.2028 365.933 11.5607C373.463 11.4748 378.584 10.8449 386.352 11.0166C385.548 11.4318 391.938 10.9164 390.377 11.6179C395.041 11.3459 389.61 11.0453 391.737 10.5442C393.042 10.5442 394.411 10.3581 394.639 10.6301C394.028 10.8019 395.698 11.0595 394.639 11.1311L397.752 11.0739C398.053 11.1311 397.359 11.2314 397.022 11.2743C403.365 10.8592 408.276 11.7324 413.972 11.3316C414.391 11.0739 411.708 11.26 412.128 11.0023C417.86 10.4869 417.194 11.4604 422.533 11.1025L421.429 11.4604C423.154 11.2171 423.911 10.9164 426.741 11.2028C427.234 11.6179 424.331 11.5464 422.962 11.7468C424.916 11.7611 429.844 11.6609 428.338 11.2743C430.675 11.1312 431.524 11.5034 432.783 11.6179C432.829 11.5177 430.602 11.3459 431.971 11.1454C435.148 11.3745 440.058 11.3745 443.947 11.4031C443.91 11.5033 444.184 11.6609 443.846 11.7181C446.968 11.1741 446.639 12.1047 450.929 11.9901L450.874 11.8756Z" fill="white" fill-opacity="0.52"/>
</svg>
