<svg width="322" height="49" viewBox="0 0 322 49" fill="none" xmlns="http://www.w3.org/2000/svg">
<g clip-path="url(#clip0_2033_4618)">
<path d="M192.385 26.2382C192.385 31.3815 189.186 32.3218 186.356 32.3218C183.525 32.3218 180.347 31.3719 180.347 26.2382V14.0914H178.344V26.4673C178.344 29.7514 179.579 34.3237 186.356 34.3237C193.133 34.3237 194.386 29.7718 194.386 26.4673V14.0914H192.385V26.2382ZM56.4329 33.8247H59.0991V25.2846H69.7725V22.7838H59.1039V16.5994H70.4409V14.0914H56.4377L56.4329 33.8247ZM82.9718 13.5924C81.6049 13.5587 80.2455 13.8043 78.977 14.3143C77.7084 14.8242 76.5573 15.5877 75.5943 16.5579C74.6313 17.5282 73.8766 18.6848 73.3765 19.9568C72.8764 21.2289 72.6415 22.5896 72.686 23.9557C72.686 26.6828 73.7698 29.2983 75.699 31.2268C77.6282 33.1552 80.2447 34.2385 82.973 34.2385C85.7013 34.2385 88.3179 33.1552 90.2471 31.2268C92.1762 29.2983 93.2601 26.6828 93.2601 23.9557C93.3046 22.5894 93.0695 21.2285 92.5693 19.9563C92.0691 18.684 91.3142 17.5273 90.3509 16.557C89.3876 15.5867 88.2363 14.8233 86.9674 14.3135C85.6986 13.8038 84.3389 13.5584 82.9718 13.5924ZM82.9718 31.8097C78.4553 31.8097 75.5322 28.2725 75.5322 23.9557C75.5322 19.6388 78.4589 16.1053 82.9718 16.1053C87.4848 16.1053 90.4114 19.6388 90.4114 23.9593C90.4114 28.2797 87.4824 31.8133 82.9718 31.8133V31.8097ZM113.256 19.6065C113.256 17.1272 111.966 14.089 106.929 14.089H96.7807V33.8247H99.4517V25.1239H105.651L110.662 33.8247H114.011L108.398 24.8217C109.713 24.7149 110.941 24.1208 111.84 23.156C112.74 22.1911 113.246 20.9251 113.259 19.6065H113.256ZM99.4601 22.7838V16.4351H106.18C108.299 16.4351 110.423 16.9341 110.423 19.6065C110.423 22.2788 108.29 22.7838 106.169 22.7838H99.4601ZM124.95 14.0914H118.058V33.8247H124.49C131.549 33.8247 135.311 29.0017 135.311 23.9557C135.311 20.3009 133.271 14.0914 124.938 14.0914H124.95ZM124.098 31.3083H120.739V16.5994H124.752C131.162 16.5994 132.472 21.45 132.472 23.9557C132.472 28.835 128.621 31.3083 124.1 31.3083H124.098ZM138.997 33.8271H141.008V24.4906H151.817V22.6495H141.008V15.9325H152.504V14.0914H138.994L138.997 33.8271ZM164.629 13.5948C163.262 13.5611 161.902 13.8067 160.633 14.3166C159.364 14.8265 158.213 15.5899 157.25 16.5601C156.287 17.5303 155.532 18.6869 155.031 19.959C154.531 21.231 154.295 22.5918 154.339 23.9581C154.339 25.3084 154.605 26.6456 155.122 27.8931C155.639 29.1407 156.397 30.2743 157.352 31.2292C158.307 32.184 159.441 32.9414 160.689 33.4582C161.938 33.975 163.275 34.2409 164.626 34.2409C165.977 34.2409 167.315 33.975 168.563 33.4582C169.811 32.9414 170.945 32.184 171.9 31.2292C172.855 30.2743 173.613 29.1407 174.13 27.8931C174.647 26.6456 174.913 25.3084 174.913 23.9581C174.958 22.5921 174.723 21.2314 174.223 19.9593C173.723 18.6873 172.969 17.5307 172.006 16.5604C171.043 15.5901 169.892 14.8266 168.623 14.3167C167.355 13.8067 165.995 13.5611 164.629 13.5948ZM164.629 32.485C159.553 32.485 156.512 28.498 156.512 23.9581C156.512 19.4181 159.553 15.4348 164.629 15.4348C169.704 15.4348 172.744 19.4217 172.744 23.9581C172.744 28.4944 169.711 32.485 164.629 32.485ZM213.737 30.8189H213.682L201.917 14.0938H199.413V33.8247H201.423V16.9341H201.471L213.231 33.8247H215.741V14.0914H213.736L213.737 30.8189ZM227.373 14.0938H220.82V33.8247H227.371C232.3 33.8247 237.733 30.5322 237.733 23.9557C237.733 17.3791 232.3 14.0914 227.371 14.0914L227.373 14.0938ZM226.724 31.9788H222.824V15.9313H226.724C232.748 15.9313 235.56 19.8979 235.56 23.9557C235.56 28.0134 232.748 31.9788 226.724 31.9788ZM247.363 14.0914L238.78 33.8247H241.123L243.283 28.6455H253.373L255.557 33.8247H257.897L249.309 14.0914H247.363ZM244.044 26.8056L248.335 16.4327L252.607 26.8056H244.044ZM256.403 15.9289H263.01V33.8247H265.019V15.9313H271.618V14.0914H256.397L256.403 15.9289ZM274.695 33.8223H276.693V14.0914H274.695V33.8223ZM291.254 13.59C289.887 13.5555 288.527 13.8005 287.258 14.3101C285.988 14.8196 284.837 15.583 283.873 16.5534C282.91 17.5238 282.155 18.6807 281.655 19.9532C281.155 21.2256 280.92 22.5868 280.965 23.9533C280.95 25.3127 281.205 26.6616 281.715 27.9219C282.226 29.1821 282.981 30.3287 283.938 31.2952C284.894 32.2617 286.033 33.029 287.288 33.5527C288.543 34.0764 289.89 34.346 291.25 34.346C292.61 34.346 293.957 34.0764 295.212 33.5527C296.467 33.029 297.606 32.2617 298.562 31.2952C299.519 30.3287 300.274 29.1821 300.784 27.9219C301.295 26.6616 301.55 25.3127 301.535 23.9533C301.58 22.5875 301.346 21.2269 300.846 19.955C300.346 18.683 299.592 17.5264 298.63 16.5562C297.667 15.5859 296.516 14.8223 295.248 14.3122C293.98 13.8022 292.621 13.5564 291.254 13.59ZM291.254 32.4802C286.177 32.4802 283.138 28.4932 283.138 23.9533C283.138 19.4133 286.177 15.43 291.254 15.43C296.331 15.43 299.358 19.4169 299.358 23.9533C299.358 28.4896 296.323 32.4802 291.254 32.4802ZM319.879 14.089V30.8165H319.823L308.064 14.0914H305.554V33.8247H307.562V16.9341H307.614L319.379 33.8247H321.879V14.0914L319.879 14.089Z" fill="#502D1E"/>
<path d="M29.8214 9.42446C28.6176 9.4235 27.4634 8.94473 26.6126 8.0934C25.7618 7.24207 25.2841 6.08786 25.2844 4.88454V4.79218C25.5652 4.86774 25.8424 4.9517 26.116 5.03926C26.1437 5.69227 26.3433 6.3264 26.6948 6.87754C27.0463 7.42867 27.5371 7.87729 28.1176 8.17802C28.6982 8.47876 29.3478 8.62096 30.001 8.59024C30.6541 8.55953 31.2875 8.35699 31.8373 8.00311C32.0677 8.17223 32.2956 8.35215 32.52 8.53446C31.7392 9.11272 30.7931 9.42474 29.8214 9.42446Z" fill="#617995"/>
<path d="M21.5346 9.12576C20.4784 8.80567 19.351 8.80567 18.2948 9.12576C17.436 8.79711 16.6972 8.21575 16.1759 7.45849C15.6547 6.70123 15.3755 5.80371 15.3754 4.8845C15.3754 4.78255 15.3754 4.677 15.3874 4.57864C15.6657 4.51148 15.9465 4.4503 16.2345 4.39873C16.2117 4.55764 16.2001 4.71796 16.1997 4.87851C16.2172 5.85136 16.6161 6.77845 17.3106 7.46026C18.005 8.14207 18.9395 8.52408 19.9129 8.52408C20.8863 8.52408 21.8208 8.14207 22.5153 7.46026C23.2097 6.77845 23.6086 5.85136 23.6261 4.87851C23.626 4.71804 23.6151 4.55776 23.5937 4.39873C23.8805 4.4503 24.1625 4.51148 24.4433 4.57864C24.4505 4.677 24.4541 4.78255 24.4541 4.8845C24.4532 5.80355 24.1738 6.70078 23.6527 7.45791C23.1315 8.21504 22.393 8.79654 21.5346 9.12576Z" fill="#DF852E"/>
<path d="M10.0169 9.21566C9.10763 9.21667 8.22119 8.93083 7.48389 8.39884C7.59788 8.30888 7.71187 8.22012 7.82707 8.13376C8.41046 8.52633 9.08878 8.75474 9.79089 8.79504C10.493 8.83534 11.193 8.68605 11.8175 8.36282C12.442 8.03959 12.968 7.55433 13.3403 6.95794C13.7126 6.36155 13.9175 5.676 13.9335 4.97321C14.0679 4.93003 14.2083 4.88685 14.3451 4.85326V4.89045C14.3448 6.03768 13.8887 7.13781 13.077 7.94891C12.2653 8.76001 11.1646 9.21566 10.0169 9.21566ZM39.3493 19.3894C38.4854 19.3232 37.6539 19.0316 36.9379 18.5437C36.222 18.0557 35.6466 17.3885 35.2694 16.6087C34.8922 15.829 34.7262 14.9639 34.7882 14.0999C34.8501 13.236 35.1377 12.4034 35.6223 11.6853C35.9991 12.1651 36.3531 12.6581 36.6879 13.1715C36.5148 13.5768 36.4258 14.013 36.4263 14.4537C36.4262 15.1754 36.6628 15.8772 37.1 16.4515C37.5372 17.0259 38.1507 17.441 38.8466 17.6334C39.041 18.2083 39.2085 18.7937 39.3493 19.3894Z" fill="#00ADEE"/>
<path d="M29.8215 10.7401C29.0858 10.7401 28.3666 10.9582 27.7549 11.3668C27.1432 11.7753 26.6664 12.3561 26.3849 13.0355C26.1033 13.7149 26.0297 14.4625 26.1732 15.1838C26.3167 15.9051 26.671 16.5676 27.1912 17.0877C27.7114 17.6077 28.3742 17.9618 29.0958 18.1053C29.8174 18.2487 30.5653 18.1751 31.245 17.8937C31.9247 17.6122 32.5057 17.1357 32.9144 16.5242C33.3232 15.9127 33.5413 15.1938 33.5413 14.4584C33.5413 13.9701 33.4451 13.4866 33.2582 13.0355C33.0712 12.5844 32.7972 12.1745 32.4518 11.8292C32.1064 11.4839 31.6963 11.21 31.245 11.0232C30.7937 10.8363 30.31 10.7401 29.8215 10.7401ZM29.8215 18.9887C28.7945 18.9883 27.798 18.6398 26.9947 18.0002C26.1914 17.3606 25.6287 16.4676 25.3986 15.4672C25.4623 15.133 25.4948 14.7937 25.4958 14.4536C25.4959 14.1137 25.465 13.7744 25.4034 13.4401C25.5932 12.6072 26.0144 11.8447 26.6186 11.2406C27.2228 10.6364 27.9853 10.215 28.8185 10.025C29.6517 9.83494 30.5217 9.88392 31.3282 10.1663C32.1348 10.4487 32.8452 10.953 33.3777 11.6211C33.9102 12.2893 34.2431 13.0942 34.3382 13.9431C34.4332 14.7921 34.2865 15.6506 33.9149 16.4199C33.5434 17.1892 32.9621 17.838 32.2379 18.2916C31.5137 18.7452 30.6761 18.9852 29.8215 18.9839" fill="#C0B300"/>
<path d="M19.9213 11.7717C19.3905 11.771 18.8714 11.9277 18.4297 12.222C17.988 12.5162 17.6435 12.9349 17.4399 13.4249C17.2363 13.9149 17.1826 14.4542 17.2858 14.9747C17.3889 15.4952 17.6441 15.9734 18.0192 16.3489C18.3943 16.7243 18.8724 16.9801 19.3929 17.0839C19.9135 17.1876 20.4532 17.1347 20.9436 16.9319C21.4341 16.729 21.8534 16.3852 22.1483 15.9441C22.4433 15.503 22.6008 14.9843 22.6008 14.4537C22.5995 13.7434 22.3169 13.0625 21.8148 12.5599C21.3127 12.0573 20.6319 11.7739 19.9213 11.7717ZM18.0554 19.7037C17.1332 19.378 16.3132 18.8151 15.6779 18.0718C15.0425 17.3285 14.6143 16.431 14.4364 15.4696C14.5131 15.1381 14.5513 14.7988 14.5504 14.4585C14.5508 14.1187 14.513 13.7799 14.4376 13.4486C14.6241 12.4446 15.0826 11.5111 15.7633 10.7497C16.444 9.98826 17.3206 9.42821 18.2978 9.13054C18.8143 9.33088 19.3637 9.43299 19.9177 9.4316C20.4711 9.42994 21.0194 9.32625 21.5352 9.12574C22.5123 9.42307 23.3889 9.98306 24.0692 10.7446C24.7496 11.5061 25.2075 12.4398 25.393 13.4438C25.241 14.1117 25.241 14.8053 25.393 15.4732C25.2155 16.4331 24.7884 17.3293 24.1546 18.0719C23.5208 18.8145 22.7027 19.3773 21.7824 19.7037C21.1941 19.4541 20.5616 19.3255 19.9225 19.3255C19.2834 19.3255 18.6509 19.4541 18.0626 19.7037" fill="#8B80A1"/>
<path d="M19.9214 9.42439C19.3677 9.42552 18.8184 9.32426 18.3015 9.12573C19.3577 8.80564 20.4851 8.80564 21.5413 9.12573C21.0247 9.32393 20.476 9.42518 19.9226 9.42439" fill="#865336"/>
<path d="M25.3986 15.4672C25.2464 14.8 25.2464 14.1072 25.3986 13.4401C25.4605 13.7744 25.4915 14.1137 25.4912 14.4536C25.4919 14.7936 25.4609 15.1329 25.3986 15.4672Z" fill="#6D5F27"/>
<path d="M10.0159 10.7404C9.27982 10.7387 8.55981 10.9554 7.94699 11.363C7.33417 11.7705 6.85608 12.3507 6.57325 13.0299C6.29042 13.7092 6.21556 14.4571 6.35814 15.1789C6.50072 15.9008 6.85433 16.5641 7.37421 17.0849C7.8941 17.6058 8.55689 17.9608 9.27869 18.1049C10.0005 18.2491 10.7488 18.1759 11.429 17.8947C12.1092 17.6136 12.6907 17.137 13.0998 16.5253C13.5089 15.9137 13.7273 15.1945 13.7273 14.4587C13.7254 13.4746 13.334 12.5312 12.6386 11.8345C11.9433 11.1378 11.0004 10.7445 10.0159 10.7404ZM10.0159 18.989C9.16144 18.9898 8.32415 18.7494 7.60033 18.2955C6.87652 17.8416 6.29559 17.1927 5.92439 16.4235C5.55319 15.6542 5.40679 14.7958 5.50204 13.947C5.5973 13.0982 5.93033 12.2936 6.46282 11.6256C6.99532 10.9577 7.70564 10.4536 8.51206 10.1713C9.31849 9.88901 10.1883 9.84004 11.0213 10.03C11.8543 10.22 12.6168 10.6412 13.221 11.2451C13.8251 11.8491 14.2464 12.6112 14.4364 13.444C14.3148 14.1122 14.3148 14.7968 14.4364 15.465C14.2067 16.4651 13.6444 17.3577 12.8414 17.9969C12.0385 18.6361 11.0424 18.9842 10.0159 18.9842" fill="#67A7BC"/>
<path d="M14.4415 15.465C14.318 14.7974 14.318 14.1128 14.4415 13.4452C14.5922 14.1101 14.5922 14.8001 14.4415 15.465Z" fill="#4C6A87"/>
<path d="M0.65625 18.7499C0.693448 18.6048 0.736646 18.4573 0.776243 18.3121C1.68612 18.1542 2.51122 17.6808 3.10658 16.9751C3.70194 16.2694 4.02948 15.3766 4.03167 14.4535C4.02982 13.7984 3.86487 13.1542 3.55169 12.5788C3.63929 12.4588 3.72688 12.3317 3.81688 12.2117C4.22722 12.8874 4.44351 13.663 4.44204 14.4535C4.44227 15.5075 4.05787 16.5255 3.36091 17.3164C2.66396 18.1074 1.7023 18.6171 0.65625 18.7499Z" fill="#979F82"/>
<path d="M39.3755 28.5448C38.2363 28.4558 37.1726 27.9406 36.3967 27.1021C35.6208 26.2635 35.1898 25.1633 35.1898 24.0211C35.1898 22.8789 35.6208 21.7787 36.3967 20.9401C37.1726 20.1016 38.2363 19.5864 39.3755 19.4974C39.4355 19.766 39.4955 20.0383 39.5459 20.3118C38.6096 20.3812 37.7341 20.8021 37.0953 21.4898C36.4564 22.1776 36.1014 23.0814 36.1014 24.0199C36.1014 24.9584 36.4564 25.8622 37.0953 26.55C37.7341 27.2377 38.6096 27.6585 39.5459 27.728C39.4943 27.9979 39.4391 28.2725 39.3755 28.5448Z" fill="#67A7BC"/>
<path d="M29.8209 20.1008C29.0453 20.1006 28.2871 20.3303 27.6421 20.7608C26.9971 21.1913 26.4943 21.8033 26.1973 22.5195C25.9003 23.2356 25.8224 24.0238 25.9735 24.7842C26.1245 25.5446 26.4978 26.2431 27.046 26.7915C27.5943 27.3399 28.2929 27.7134 29.0535 27.8649C29.8141 28.0164 30.6026 27.939 31.3193 27.6425C32.0359 27.3461 32.6485 26.8438 33.0796 26.1994C33.5107 25.5549 33.7409 24.7971 33.7411 24.0218C33.7386 22.9832 33.3248 21.9879 32.5902 21.2533C31.8556 20.5188 30.8599 20.1049 29.8209 20.102V20.1008ZM29.8209 28.3519C28.964 28.3514 28.1264 28.0969 27.4142 27.6207C26.7019 27.1444 26.1469 26.4677 25.8194 25.6762C25.4918 24.8846 25.4064 24.0138 25.574 23.1738C25.7416 22.3337 26.1545 21.5622 26.7607 20.9567C27.3669 20.3513 28.1391 19.9391 28.9796 19.7723C29.8201 19.6055 30.6913 19.6916 31.4829 20.0197C32.2744 20.3478 32.9509 20.9031 33.4268 21.6155C33.9027 22.3278 34.1565 23.1653 34.1563 24.0218C34.1563 24.5908 34.0441 25.1541 33.8262 25.6797C33.6083 26.2053 33.2889 26.6828 32.8863 27.0849C32.4836 27.487 32.0057 27.8059 31.4797 28.0233C30.9538 28.2407 30.3901 28.3523 29.8209 28.3519Z" fill="#617995"/>
<path d="M19.9218 20.4727C19.2201 20.4727 18.5342 20.6806 17.9507 21.0702C17.3673 21.4599 16.9125 22.0137 16.6439 22.6616C16.3753 23.3096 16.3049 24.0226 16.4416 24.7105C16.5783 25.3984 16.916 26.0304 17.412 26.5265C17.9079 27.0227 18.5399 27.3607 19.2281 27.4978C19.9162 27.6349 20.6296 27.565 21.2779 27.2969C21.9263 27.0289 22.4807 26.5746 22.8708 25.9917C23.261 25.4087 23.4695 24.7232 23.47 24.0218C23.4687 23.0812 23.0946 22.1795 22.4295 21.514C21.7645 20.8486 20.8627 20.4737 19.9218 20.4715V20.4727ZM19.9218 28.7225C18.8408 28.7202 17.7936 28.3461 16.9561 27.6629C16.1186 26.9797 15.5419 26.0291 15.323 24.971C15.1041 23.9128 15.2562 22.8116 15.7539 21.8524C16.2516 20.8932 17.0645 20.1345 18.0559 19.7038C19.2592 20.13 20.5724 20.13 21.7757 19.7038C22.7702 20.1321 23.5866 20.8901 24.0871 21.8501C24.5876 22.8101 24.7416 23.9132 24.5231 24.9734C24.3046 26.0337 23.727 26.9861 22.8877 27.6702C22.0484 28.3543 20.9987 28.728 19.9158 28.7285" fill="#00ADEE"/>
<path d="M19.9214 20.0193C19.2859 20.023 18.6545 19.9163 18.0555 19.7038C18.6438 19.4542 19.2764 19.3256 19.9154 19.3256C20.5545 19.3256 21.1871 19.4542 21.7753 19.7038C21.1787 19.9178 20.5493 20.0262 19.9154 20.0241" fill="#0071A1"/>
<path d="M10.0162 20.7197C9.36316 20.7199 8.72487 20.9137 8.18201 21.2765C7.63915 21.6393 7.21608 22.1548 6.96629 22.7579C6.7165 23.361 6.65121 24.0246 6.77866 24.6648C6.90612 25.305 7.2206 25.8931 7.68235 26.3546C8.1441 26.8162 8.73239 27.1306 9.37285 27.258C10.0133 27.3854 10.6772 27.3201 11.2805 27.0704C11.8839 26.8207 12.3996 26.3978 12.7626 25.8552C13.1255 25.3125 13.3194 24.6745 13.3196 24.0218C13.319 23.1462 12.9707 22.3067 12.3513 21.6875C11.732 21.0684 10.8921 20.7203 10.0162 20.7197ZM12.1989 28.4597C11.5095 28.1684 10.7688 28.0183 10.0204 28.0183C9.27198 28.0183 8.5312 28.1684 7.84189 28.4597C6.83696 27.9677 6.02838 27.1499 5.54792 26.1397C5.06746 25.1294 4.94346 23.9863 5.19612 22.8966C5.44878 21.807 6.0632 20.8349 6.93926 20.139C7.81531 19.443 8.90135 19.0642 10.0204 19.0642C11.1394 19.0642 12.2254 19.443 13.1015 20.139C13.9775 20.8349 14.592 21.807 14.8446 22.8966C15.0973 23.9863 14.9733 25.1294 14.4928 26.1397C14.0124 27.1499 13.2038 27.9677 12.1989 28.4597Z" fill="#A69994"/>
<path d="M0.466533 28.5448C0.402937 28.2725 0.34654 27.9979 0.296143 27.7244C1.24802 27.6785 2.1458 27.2685 2.80361 26.5793C3.46143 25.89 3.8289 24.9743 3.82995 24.0217C3.82899 23.0684 3.46176 22.1518 2.80411 21.4614C2.14647 20.771 1.24866 20.3595 0.296143 20.3118C0.34774 20.0383 0.404137 19.766 0.467733 19.4974C1.60732 19.5861 2.67149 20.1013 3.44777 20.94C4.22406 21.7786 4.65533 22.8791 4.6555 24.0217C4.65359 25.1637 4.2215 26.2632 3.44525 27.1011C2.66899 27.9391 1.60551 28.4541 0.466533 28.5436" fill="#DF852E"/>
<path d="M35.7808 36.1506C35.283 35.3903 35.0189 34.5008 35.0213 33.5922C35.0221 32.4216 35.4598 31.2934 36.2487 30.4283C37.0377 29.5631 38.121 29.0233 39.287 28.9143C39.1838 29.3269 39.0674 29.7339 38.9378 30.1353C38.419 30.254 37.9335 30.4877 37.5171 30.8191C37.1008 31.1505 36.7643 31.5713 36.5325 32.0502C36.3007 32.5291 36.1796 33.054 36.178 33.586C36.1765 34.118 36.2946 34.6436 36.5236 35.1239C36.2836 35.4753 36.0436 35.8207 35.7808 36.1566" fill="#00ADEE"/>
<path d="M29.8209 30.2902C29.1685 30.2909 28.5311 30.4848 27.989 30.8475C27.4469 31.2103 27.0245 31.7255 26.7752 32.328C26.5258 32.9306 26.4608 33.5935 26.5882 34.233C26.7157 34.8725 27.0299 35.4599 27.4912 35.921C27.9524 36.3821 28.5401 36.6962 29.1798 36.8236C29.8196 36.951 30.4828 36.8859 31.0856 36.6367C31.6884 36.3875 32.2038 35.9653 32.5667 35.4234C32.9295 34.8815 33.1236 34.2443 33.1243 33.5922C33.1243 32.7165 32.7763 31.8766 32.1567 31.2573C31.5372 30.6381 30.697 30.2902 29.8209 30.2902ZM27.643 38.0326C26.6392 37.5401 25.8319 36.7225 25.3524 35.7127C24.8729 34.703 24.7495 33.5608 25.0024 32.472C25.2553 31.3833 25.8695 30.4122 26.745 29.717C27.6205 29.0217 28.7057 28.6433 29.8239 28.6433C30.942 28.6433 32.0272 29.0217 32.9027 29.717C33.7783 30.4122 34.3925 31.3833 34.6454 32.472C34.8982 33.5608 34.7749 34.703 34.2954 35.7127C33.8159 36.7225 33.0085 37.5401 32.0048 38.0326C31.315 37.7397 30.5733 37.5888 29.8239 37.5888C29.0745 37.5888 28.3328 37.7397 27.643 38.0326Z" fill="#DF852E"/>
<path d="M19.9221 29.67C19.1469 29.6697 18.389 29.8992 17.7442 30.3295C17.0995 30.7598 16.5968 31.3715 16.2998 32.0873C16.0028 32.8031 15.9248 33.5909 16.0756 34.351C16.2265 35.1111 16.5994 35.8094 17.1472 36.3577C17.6951 36.906 18.3932 37.2796 19.1535 37.4313C19.9137 37.583 20.7019 37.506 21.4183 37.21C22.1348 36.914 22.7473 36.4123 23.1786 35.7684C23.6098 35.1244 23.8404 34.3671 23.8411 33.5922C23.8408 32.5529 23.4279 31.5561 22.6932 30.8208C21.9584 30.0854 20.9618 29.6715 19.9221 29.67ZM19.9221 37.9174C18.787 37.9185 17.6968 37.4738 16.8866 36.6791C16.0763 35.8845 15.6108 34.8034 15.5903 33.6689V33.513C15.6048 32.6596 15.8711 31.8294 16.356 31.1268C16.8408 30.4242 17.5225 29.8805 18.3155 29.5639C19.1085 29.2473 19.9774 29.172 20.813 29.3474C21.6487 29.5228 22.4139 29.941 23.0125 30.5497C23.6111 31.1584 24.0165 31.9303 24.1777 32.7685C24.3389 33.6067 24.2488 34.4738 23.9186 35.2609C23.5884 36.0481 23.0329 36.7202 22.3219 37.1928C21.6109 37.6654 20.776 37.9175 19.9221 37.9174Z" fill="#72A542"/>
<path d="M10.0161 30.9105C9.48602 30.9108 8.96796 31.068 8.52734 31.3625C8.08671 31.657 7.74331 32.0754 7.54054 32.5649C7.33776 33.0544 7.2847 33.5931 7.38808 34.1127C7.49145 34.6323 7.74662 35.1097 8.12132 35.4844C8.49602 35.8591 8.97345 36.1144 9.49325 36.218C10.0131 36.3215 10.5519 36.2687 11.0417 36.0663C11.5315 35.8638 11.9503 35.5207 12.245 35.0804C12.5398 34.6401 12.6974 34.1223 12.6979 33.5925C12.697 32.8817 12.4141 32.2002 11.9114 31.6975C11.4087 31.1948 10.7271 30.9118 10.0161 30.9105ZM11.8759 38.8353C11.2878 38.5853 10.6552 38.4565 10.0161 38.4565C9.37692 38.4565 8.74435 38.5853 8.15615 38.8353C7.23514 38.5091 6.41615 37.9465 5.78136 37.204C5.14657 36.4614 4.71831 35.5651 4.53955 34.6048C4.61738 34.2729 4.65763 33.9334 4.65954 33.5925C4.65763 33.2496 4.61738 32.9081 4.53955 32.5742C4.70737 31.6692 5.09678 30.8198 5.673 30.1019C6.24922 29.384 6.99432 28.8199 7.84177 28.46C8.52032 28.7915 9.2656 28.9638 10.0208 28.9638C10.7761 28.9638 11.5214 28.7915 12.1999 28.46C13.1931 28.8834 14.042 29.5857 14.6438 30.4818C15.2455 31.378 15.5741 32.4294 15.5897 33.5085V33.6645C15.5747 34.8022 15.211 35.908 14.5475 36.8326C13.8841 37.7573 12.9529 38.4563 11.8795 38.8353" fill="#A2A17A"/>
<path d="M10.0163 28.9682C9.26056 28.9695 8.5146 28.7972 7.83606 28.4645C8.52601 28.1732 9.26738 28.0231 10.0163 28.0231C10.7653 28.0231 11.5067 28.1732 12.1966 28.4645C11.518 28.7971 10.7721 28.9694 10.0163 28.9682Z" fill="#6C654A"/>
<path d="M3.95414 36.016C3.77097 35.7741 3.59491 35.5269 3.42617 35.2747C3.69146 34.7547 3.83002 34.1793 3.83054 33.5955C3.83072 32.7373 3.53388 31.9054 2.99039 31.241C2.4469 30.5766 1.69022 30.1206 0.848707 29.9504C0.758789 29.6625 0.675571 29.3725 0.599121 29.0808C1.53816 29.1806 2.42265 29.5708 3.1294 30.1969C3.83615 30.8229 4.32998 31.6537 4.54211 32.5736C4.48126 32.9096 4.45074 33.2504 4.45091 33.5919C4.45079 33.9314 4.48131 34.2702 4.54211 34.6042C4.42659 35.1044 4.22784 35.5816 3.95414 36.016Z" fill="#00ADEE"/>
<path d="M4.54243 34.6045C4.48151 34.2705 4.45093 33.9316 4.45105 33.5921C4.45088 33.2506 4.48146 32.9098 4.54243 32.5738C4.62042 32.9077 4.66074 33.2493 4.66266 33.5921C4.66075 33.933 4.62042 34.2726 4.54243 34.6045Z" fill="#00857D"/>
<path d="M24.4499 43.4673C24.4571 43.3642 24.4607 43.2634 24.4607 43.1579C24.4577 42.8183 24.4175 42.48 24.3407 42.1491C24.507 41.2443 24.8952 40.3948 25.4704 39.6766C26.0457 38.9584 26.79 38.394 27.6369 38.0338C28.3162 38.3649 29.062 38.537 29.8178 38.537C30.5736 38.537 31.3194 38.3649 31.9987 38.0338C32.4707 38.2349 32.9125 38.5005 33.3114 38.8231C32.5517 39.5098 31.7415 40.1385 30.8875 40.7038C30.5222 40.5448 30.1261 40.4692 29.7279 40.4824C29.3297 40.4956 28.9394 40.5974 28.5855 40.7802C28.2315 40.9631 27.9228 41.2225 27.6817 41.5396C27.4406 41.8567 27.2732 42.2235 27.1917 42.6133C26.2981 42.9656 25.3796 43.2515 24.4439 43.4685" fill="#00ADEE"/>
<path d="M29.8214 38.5351C29.0665 38.5357 28.3215 38.3634 27.6436 38.0313C28.3333 37.7385 29.075 37.5876 29.8244 37.5876C30.5738 37.5876 31.3156 37.7385 32.0053 38.0313C31.3252 38.3634 30.5783 38.5357 29.8214 38.5351Z" fill="#006547"/>
<path d="M23.5994 43.6446C23.6215 43.4832 23.6331 43.3205 23.6342 43.1576C23.5803 42.2095 23.1655 41.318 22.475 40.6659C21.7844 40.0137 20.8704 39.6504 19.9204 39.6504C18.9705 39.6504 18.0565 40.0137 17.3659 40.6659C16.6754 41.318 16.2606 42.2095 16.2066 43.1576C16.2074 43.3205 16.2186 43.4832 16.2402 43.6446C15.9588 43.5925 15.6787 43.5333 15.4003 43.4671C15.3915 43.3642 15.3875 43.2609 15.3883 43.1576C15.3894 42.0431 15.8009 40.968 16.5442 40.1372C17.2875 39.3065 18.3107 38.7783 19.4186 38.6533C20.5265 38.5283 21.6418 38.8153 22.5516 39.4596C23.4614 40.1038 24.1022 41.0602 24.3518 42.1465C24.2904 42.48 24.2599 42.8185 24.2606 43.1576C24.2606 43.2776 24.2606 43.3975 24.2702 43.5079C24.0494 43.5582 23.8286 43.6038 23.6042 43.6446" fill="#C0B300"/>
<path d="M24.2659 43.5082C24.2601 43.3915 24.2573 43.2747 24.2575 43.1579C24.2562 42.8188 24.2864 42.4803 24.3477 42.1468C24.4257 42.4783 24.466 42.8174 24.4679 43.1579C24.4679 43.2635 24.4679 43.3642 24.4571 43.4674C24.3957 43.4825 24.334 43.4961 24.2719 43.5082" fill="#007F3E"/>
<path d="M14.7214 43.2992C14.3303 43.1945 13.9431 43.0777 13.5599 42.949C13.5239 42.3358 13.3292 41.7424 12.9948 41.2271C12.6604 40.7117 12.1978 40.2921 11.6523 40.0092C11.1068 39.7264 10.4972 39.59 9.88309 39.6136C9.26903 39.6371 8.67162 39.8197 8.1494 40.1435C7.82222 39.9036 7.50224 39.6557 7.18945 39.3998C7.48922 39.1746 7.81419 38.985 8.1578 38.8349C9.36153 39.2584 10.6739 39.2584 11.8776 38.8349C12.7207 39.1997 13.439 39.8026 13.9441 40.5697C14.4493 41.3367 14.7195 42.2345 14.7214 43.1529V43.2944" fill="#617995"/>
<path d="M10.0161 39.1529C9.38202 39.1556 8.75226 39.048 8.15503 38.835C8.74302 38.5843 9.37567 38.455 10.0149 38.455C10.6542 38.455 11.2868 38.5843 11.8748 38.835C11.2776 39.0461 10.6484 39.1528 10.0149 39.1505" fill="#4F635D"/>
</g>
<defs>
<clipPath id="clip0_2033_4618">
<rect width="321.582" height="47.978" fill="white" transform="translate(0.296021 0.0330086)"/>
</clipPath>
</defs>
</svg>
