<svg width="255" height="57" viewBox="0 0 255 57" fill="none" xmlns="http://www.w3.org/2000/svg">
<path fill-rule="evenodd" clip-rule="evenodd" d="M79.9034 47.2929C79.9034 47.7039 79.7357 47.9713 79.4249 48.1423C78.8016 48.506 77.5551 48.6547 76.6939 48.6547C74.4862 48.6547 72.3056 47.924 70.4138 46.0481C69.5755 45.2253 67.8733 42.7382 67.8733 39.3114C67.8733 36.4606 68.854 34.2529 70.2444 33.1318C72.0677 31.6703 73.8638 31.5259 75.3762 31.5259C78.4654 31.5259 80.4081 32.5696 81.0085 33.4963C81.3692 34.0792 81.4869 34.761 81.5115 35.1023C81.5369 35.3198 81.5606 35.4659 81.6808 35.4659C81.8477 35.4659 81.8925 35.3456 81.8925 34.9578C81.8925 32.518 82.0619 31.8422 82.0619 31.5018C82.0619 31.4021 82.017 31.3066 81.7723 31.2843C81.1736 31.2585 80.3327 31.1622 79.8297 31.0418C79.3775 30.9447 77.6754 30.6249 76.1646 30.6249C74.3219 30.6249 71.9474 30.7968 69.7905 32.1586C67.6565 33.5213 65.7876 36.268 65.7876 40.1651C65.7876 43.2059 67.1781 45.8048 68.6389 47.0987C71.3021 49.4568 74.7047 49.6993 76.5228 49.6993C77.9158 49.6993 80.0676 49.4328 81.6038 48.6031C81.89 48.4338 81.9146 48.3882 81.9146 47.2929V44.5659C81.9146 43.5446 81.9146 42.8156 81.962 42.0384C82.0103 41.1838 82.1999 40.7703 82.8495 40.6465C83.1374 40.601 83.2813 40.5743 83.4482 40.5743C83.5456 40.5743 83.6395 40.5287 83.6395 40.4282C83.6395 40.2872 83.521 40.2373 83.2568 40.2373C82.5361 40.2373 81.0271 40.3078 80.9085 40.3078C80.7908 40.3078 79.2801 40.2373 78.1987 40.2373C77.9362 40.2373 77.8159 40.2846 77.8159 40.4273C77.8159 40.5287 77.9133 40.5735 78.009 40.5735C78.2232 40.5735 78.6323 40.601 78.822 40.6465C79.7831 40.9156 79.8991 41.1838 79.8991 43.1586V47.2929H79.9034ZM87.015 47.0565C86.6424 48.0994 86.2308 48.8911 85.2841 49.0149C85.0866 49.0405 84.8878 49.0543 84.6888 49.0562C84.5855 49.0562 84.5059 49.1018 84.5059 49.1843C84.5059 49.3081 84.6278 49.3494 84.8971 49.3494C85.8599 49.3494 86.9904 49.2892 87.2165 49.2892C87.4418 49.2892 88.3242 49.3494 88.8187 49.3494C89.0017 49.3494 89.1261 49.3064 89.1261 49.1843C89.1261 49.1035 89.0652 49.0554 88.9187 49.0554H88.7154C88.3648 49.0554 87.9313 48.8662 87.9313 48.4544C87.9313 48.0787 88.0346 47.5801 88.2217 47.0574L89.4522 43.3675C89.4945 43.2592 89.558 43.1956 89.6596 43.1956H94.0767C94.1783 43.1956 94.2206 43.2386 94.263 43.3254L96.1734 48.4544C96.2962 48.7854 96.1734 48.9711 96.0456 49.0149C95.9643 49.0399 95.9025 49.0768 95.9025 49.1611C95.9025 49.2875 96.1286 49.2875 96.5206 49.3038C97.9348 49.3477 99.4354 49.3477 99.7454 49.3477C99.9689 49.3477 100.157 49.3047 100.157 49.1826C100.157 49.0768 100.075 49.0536 99.9486 49.0536C99.7437 49.0536 99.4337 49.0373 99.128 48.9298C98.6961 48.8017 98.1017 48.4707 97.3632 46.6146C96.1099 43.4457 92.8869 34.8332 92.5736 34.0414C92.3288 33.3949 92.2459 33.2934 92.1239 33.2934C91.9969 33.2934 91.9156 33.4198 91.6717 34.1041L87.0142 47.0574L87.015 47.0565ZM89.8857 42.4468C89.829 42.4468 89.7841 42.4038 89.829 42.3006L91.6344 36.6712C91.7361 36.3574 91.8377 36.3574 91.9427 36.6712L93.8929 42.3006C93.9133 42.3849 93.9133 42.4468 93.8133 42.4468H89.8857ZM105.063 34.4824L107.725 34.5254C109.752 34.5649 110.24 35.0464 110.325 35.6688L110.343 35.9009C110.364 36.1915 110.408 36.2534 110.515 36.2534C110.598 36.2534 110.659 36.1674 110.659 35.9826C110.659 35.7531 110.722 34.3148 110.722 33.688C110.722 33.5642 110.722 33.4404 110.618 33.4404C110.53 33.4404 110.341 33.4817 110.025 33.5436C109.688 33.5866 109.202 33.6468 108.523 33.6468H100.602C100.351 33.6468 99.5463 33.6055 98.9324 33.5436C98.365 33.5006 98.1516 33.2951 98.0068 33.2951C97.923 33.2951 97.8391 33.566 97.7909 33.688C97.7511 33.854 97.3285 35.6499 97.3285 35.8588C97.3285 35.9852 97.3708 36.0471 97.4327 36.0471C97.5173 36.0471 97.5843 36.0058 97.6469 35.8365C97.707 35.6937 97.7706 35.5424 98.0068 35.1917C98.3439 34.6887 98.8469 34.5443 100.158 34.5254L103.287 34.4824V43.3048C103.287 45.3044 103.287 46.9516 103.18 47.8285C103.096 48.4321 102.992 48.8929 102.566 48.9737C102.376 49.0167 102.125 49.0579 101.934 49.0579C101.804 49.0579 101.765 49.1224 101.765 49.1869C101.765 49.3107 101.871 49.352 102.101 49.352C102.738 49.352 104.066 49.2918 104.169 49.2918C104.278 49.2918 105.61 49.352 106.766 49.352C107.003 49.352 107.109 49.2918 107.109 49.186C107.109 49.1241 107.065 49.0579 106.936 49.0579C106.749 49.0579 106.28 49.0167 105.989 48.9737C105.354 48.8929 105.227 48.4321 105.163 47.8285C105.059 46.9516 105.059 45.3044 105.059 43.3048V34.4824H105.063ZM114.666 43.303C114.666 45.3019 114.666 46.9499 114.562 47.826C114.478 48.4278 114.377 48.8912 113.968 48.9711C113.766 49.0206 113.56 49.0491 113.353 49.0562C113.229 49.0562 113.188 49.1198 113.188 49.1843C113.188 49.3081 113.289 49.3494 113.514 49.3494C113.825 49.3494 114.293 49.3287 114.707 49.3064C115.136 49.3064 115.486 49.2875 115.528 49.2875C116.124 49.2875 117.498 49.4096 120.6 49.4096C121.406 49.4096 121.566 49.4096 121.705 48.8662C121.811 48.4278 121.975 47.0135 121.975 46.8459C121.975 46.7015 121.975 46.5321 121.854 46.5321C121.75 46.5321 121.705 46.6172 121.666 46.8459C121.524 47.7005 121.278 48.1183 120.744 48.3512C120.211 48.5765 119.305 48.5765 118.771 48.5765C116.759 48.5765 116.452 48.3057 116.389 46.8691C116.37 46.4289 116.389 44.0123 116.389 43.303V41.4633C116.389 41.3824 116.427 41.3171 116.529 41.3171C116.883 41.3171 118.916 41.3601 119.465 41.4263C120.272 41.5062 120.455 41.8622 120.537 42.1553C120.618 42.4304 120.618 42.6333 120.618 42.8422C120.618 42.9471 120.659 43.0339 120.759 43.0339C120.902 43.0339 120.902 42.8027 120.902 42.635C120.902 42.4863 120.946 41.7212 120.985 41.2999C121.05 40.6121 121.15 40.2597 121.15 40.1359C121.15 40.0121 121.111 39.9708 121.05 39.9708C120.966 39.9708 120.883 40.0757 120.74 40.2416C120.555 40.4522 120.27 40.4892 119.775 40.533C119.3 40.576 116.773 40.576 116.509 40.576C116.405 40.576 116.385 40.5124 116.385 40.3671V34.6148C116.385 34.4695 116.424 34.4033 116.509 34.4033C116.737 34.4033 118.973 34.4239 119.321 34.4678C120.432 34.5916 120.638 34.84 120.783 35.1771C120.885 35.4246 120.905 35.7788 120.905 35.925C120.905 36.0944 120.947 36.1958 121.072 36.1958C121.151 36.1958 121.195 36.072 121.215 35.9706C121.256 35.7161 121.294 34.8005 121.314 34.5916C121.378 34.0087 121.482 33.7568 121.482 33.6098C121.482 33.5041 121.456 33.4241 121.402 33.4241C121.294 33.4241 121.215 33.5041 121.112 33.5247C120.946 33.5677 120.618 33.6098 120.225 33.6304C119.757 33.6511 115.668 33.6511 115.521 33.6511C115.415 33.6511 114.123 33.5909 113.198 33.5909C112.976 33.5909 112.87 33.6322 112.87 33.7568C112.87 33.8368 112.952 33.8806 113.035 33.8806C113.223 33.8806 113.571 33.9055 113.737 33.9442C114.413 34.0912 114.572 34.4239 114.619 35.1358C114.66 35.8012 114.66 36.3841 114.66 39.6355V43.303H114.666ZM128.686 49.6434C129.836 49.6434 130.993 49.3906 131.91 48.7622C133.382 47.7452 133.725 46.1556 133.725 45.3019C133.725 43.6357 133.126 42.3445 130.602 40.4024L130.011 39.9459C127.997 38.3399 127.406 37.6246 127.406 36.4417C127.406 34.9226 128.556 34.0233 130.028 34.0233C131.998 34.0233 132.572 34.9002 132.695 35.1272C132.827 35.3567 132.955 35.9207 132.978 36.1692C133.004 36.3368 133.026 36.4417 133.148 36.4417C133.259 36.4417 133.3 36.2973 133.3 35.9663C133.3 34.5443 133.382 33.8557 133.382 33.7499C133.382 33.6468 133.34 33.6081 133.17 33.6081C133.001 33.6081 132.827 33.5866 132.421 33.5023C131.888 33.376 131.271 33.296 130.433 33.296C127.724 33.296 126.015 34.8151 126.015 37.0478C126.015 38.4663 126.523 39.7576 128.792 41.569L129.75 42.3462C131.591 43.8223 132.211 44.6554 132.211 46.0962C132.211 47.4314 131.202 48.8662 129.156 48.8662C127.725 48.8662 126.314 48.2893 125.989 46.7427C125.93 46.4513 125.93 46.1581 125.93 45.9716C125.93 45.8048 125.909 45.7403 125.778 45.7403C125.674 45.7403 125.634 45.8495 125.608 46.0773C125.587 46.41 125.504 47.2414 125.504 48.2893C125.504 48.849 125.525 48.9341 125.823 49.0786C126.695 49.4921 127.686 49.6434 128.685 49.6434H128.686ZM147.398 39.4309C147.656 39.2495 147.694 38.9907 147.57 38.7982H145.406C145.872 37.347 146.218 35.9663 147.034 34.8194C147.446 34.24 147.878 33.8995 148.38 33.8995C148.835 33.8995 149.386 34.2073 149.441 35.2321C149.457 35.3542 149.526 35.5072 149.681 35.5072C149.96 35.5072 150.425 34.9785 150.425 34.4472C150.425 33.7603 149.73 33.3184 149.005 33.3184C147.987 33.3184 146.967 33.7276 146.096 34.7386C145.078 35.9336 144.623 37.2644 144.173 38.8007H142.692C142.46 38.9555 142.388 39.2822 142.565 39.4335H144.001C143.171 42.2215 142.598 45.1574 141.714 48.0125C141.354 49.1723 140.941 49.431 140.625 49.431C140.278 49.431 139.827 49.1929 139.59 48.794C139.448 48.5748 139.329 48.4381 139.084 48.6444C138.964 48.7295 138.761 48.8783 138.761 49.2608C138.761 49.5505 139.083 50.1309 139.882 50.1309C140.904 50.1309 141.645 49.4637 141.85 49.2608C142.217 48.9341 142.74 47.9936 143.222 46.4582C143.794 44.5806 144.294 42.6832 144.85 40.7849C145.001 40.2769 145.145 39.7249 145.245 39.4352H147.399V39.4309H147.398ZM153.529 38.5652C152.841 38.5652 152.085 38.8188 151.205 39.6751C150.063 40.7806 149.441 42.4407 149.373 43.5008C149.273 44.9674 149.98 45.7756 151.055 45.7756C151.515 45.7756 152.415 45.6861 153.46 44.5952C154.71 43.297 155.196 41.655 155.246 40.7144C155.315 39.4722 154.726 38.5652 153.529 38.5652ZM153.419 39.0758C154.003 39.0758 154.103 39.6751 154.087 40.2021C154.054 41.1073 153.264 43.3606 152.519 44.3699C151.981 45.1033 151.56 45.2606 151.195 45.2606C150.702 45.2606 150.469 44.7645 150.508 44.1688C150.55 43.2635 151.208 41.2294 152.185 39.896C152.669 39.2306 153.077 39.0758 153.419 39.0758ZM160.569 39.0758C160.672 38.7818 160.27 38.5652 160.039 38.5652C159.22 38.5652 157.466 39.9106 157.015 40.5906C156.998 40.7454 157.136 40.8829 157.313 40.8486C157.731 40.4213 158.641 39.6751 158.976 39.6751C159.116 39.6751 159.097 39.8444 158.976 40.1668L157.367 44.3218C157.068 45.068 157.155 45.773 157.871 45.773C158.813 45.773 160.986 43.5842 162.25 42.0315L162.282 42.0487L161.089 45.172C160.986 45.4429 161.25 45.7738 161.528 45.7738C162.464 45.7738 164.135 44.4241 164.592 43.6005C164.575 43.3985 164.431 43.3297 164.274 43.3606C163.82 43.8937 162.898 44.6966 162.566 44.6966C162.388 44.6966 162.405 44.492 162.496 44.2685C163.229 42.2404 164.366 39.4309 164.539 38.9744C164.473 38.7681 164.048 38.5961 163.684 38.6649C163.11 39.706 162.195 41.6885 160.602 43.2265C159.692 44.0965 158.993 44.6425 158.733 44.6425C158.538 44.6425 158.447 44.4731 158.612 44.0665L160.568 39.0758H160.569ZM170.561 39.2658C170.716 38.8686 170.529 38.5652 170.123 38.5652C169.285 38.5652 168.255 39.2658 167.619 40.1522C167.602 40.2872 167.682 40.4067 167.823 40.4067C168.375 39.9149 168.965 39.5573 169.354 39.5573C169.488 39.5573 169.488 39.7223 169.404 39.9459C169.317 40.1874 167.536 45.1041 167.452 45.3285C167.298 45.718 167.749 45.7756 167.937 45.7756C168.088 45.7756 168.159 45.7197 168.238 45.5649C169.232 43.6873 169.924 42.3565 170.82 41.2277C171.735 40.0516 172.736 39.1971 173.136 39.1971C173.39 39.1971 173.41 39.4025 173.41 39.6046C173.41 39.9459 173.188 40.5434 173.056 40.8511C172.666 41.7048 172.044 43.3813 171.692 44.2186C171.337 45.0697 171.286 45.1944 171.286 45.3448C171.286 45.5503 171.54 45.7747 171.692 45.7747C172.614 45.7747 173.946 44.9545 174.589 43.8575C174.589 43.7226 174.551 43.5859 174.312 43.6211C173.832 44.2186 173.019 44.7852 172.738 44.7852C172.614 44.7852 172.633 44.6304 172.698 44.4585C172.752 44.3261 173.958 41.5372 174.265 40.6844C174.404 40.2915 174.536 39.7645 174.536 39.4894C174.536 38.9245 174.247 38.5695 173.594 38.5695C172.329 38.5695 170.665 40.4462 169.474 42.292L169.423 42.2593L170.561 39.2658ZM183.129 39.0956C182.948 38.7345 182.539 38.5652 182.272 38.5652C181.466 38.5652 180.402 39.0406 179.258 40.0826C177.93 41.2939 177.024 43.3297 177.024 44.5393C177.024 45.2236 177.372 45.773 178.029 45.773C179.66 45.773 180.93 44.1155 182.085 42.5422L182.148 42.5568L181.563 44.2504C181.396 44.7439 181.343 45.0164 181.343 45.2236C181.343 45.4987 181.529 45.7738 181.883 45.7738C182.762 45.7738 184.286 44.3674 184.744 43.4311C184.73 43.2764 184.647 43.2102 184.492 43.2102C183.967 43.8756 182.909 44.7456 182.642 44.7456C182.492 44.7456 182.472 44.5763 182.539 44.3536C182.694 43.8404 183.481 41.1099 185.147 36.4417C185.652 35.0275 185.907 34.3784 186.206 33.4198L186.139 33.3184C185.42 33.3012 184.481 33.5247 184.154 33.6425C184.086 33.7087 184.066 33.8127 184.103 33.8789L184.492 34.1557C184.73 34.3105 184.679 34.6182 184.341 35.5742L183.13 39.0965L183.129 39.0956ZM182.237 39.0758C182.659 39.0758 182.878 39.5865 182.675 40.3035C182.429 41.2088 181.932 42.2404 180.627 43.6031C179.462 44.8118 178.607 45.1248 178.352 45.1248C178.201 45.1248 178.03 44.9674 178.03 44.7628C178.03 44.541 178.03 44.2332 178.554 43.1414C179.073 42.065 180.283 40.4419 180.959 39.8092C181.399 39.4025 181.848 39.0758 182.237 39.0758ZM192.927 39.2658C192.845 39.1185 192.729 38.9941 192.588 38.9039C192.466 38.8346 192.328 38.7976 192.188 38.7964C191.75 38.7964 191.324 38.9202 190.672 39.2951C189.98 39.6871 189.257 40.3714 188.449 41.4959C187.335 43.0546 186.964 44.4215 186.964 44.8101C186.964 45.2915 187.235 45.773 187.708 45.773C188.495 45.773 190.216 44.5926 191.409 43.0907L191.46 43.1105L190.905 44.6407C190.774 45.0371 190.738 45.1927 190.738 45.3079C190.738 45.4403 190.841 45.773 191.222 45.773C192.149 45.773 193.342 44.8101 194.055 43.855C194.055 43.7209 193.93 43.6357 193.817 43.6357C192.862 44.492 192.369 44.7835 192.081 44.7835C191.947 44.7835 191.864 44.6777 191.961 44.388C192.503 42.8336 193.965 39.0586 194.22 38.4242C194.116 38.2075 193.678 38.0339 193.398 38.1749L192.927 39.2658ZM191.662 39.4515C192.099 39.4515 192.383 39.7438 192.505 40.0679C192.234 41.0738 191.528 42.5439 190.251 43.7561C189.292 44.6425 188.787 44.8634 188.616 44.8634C188.465 44.8634 188.365 44.7456 188.365 44.541C188.365 43.3323 189.391 41.091 190.468 40.1178C190.993 39.6381 191.261 39.4515 191.662 39.4515H191.662ZM201.453 39.3656C201.669 39.2392 201.776 38.8867 201.658 38.7105H199.821L200.31 36.9653C200.176 36.7882 199.838 36.752 199.673 36.8612L198.728 38.6176L197.381 38.8652C197.217 38.9357 197.162 39.185 197.201 39.3613H198.506L196.932 44.2659C196.765 44.7963 196.693 45.0439 196.693 45.2786C196.693 45.491 196.911 45.7618 197.152 45.7618C197.856 45.7618 199.438 44.6717 200.377 43.2059C200.418 42.9927 200.315 42.8852 200.147 42.8852C199.593 43.5558 198.481 44.4808 198.231 44.4808C198.092 44.4808 198.013 44.3734 198.107 44.0398L199.626 39.363H201.453V39.3656ZM202.786 45.1548C202.749 45.2308 202.736 45.3167 202.75 45.4004C202.764 45.4841 202.803 45.5612 202.863 45.6208C202.952 45.7197 203.057 45.7756 203.147 45.7756C204.389 45.7756 206.24 44.235 206.503 43.7372C206.503 43.5885 206.414 43.4664 206.241 43.4518C205.63 44.1172 204.674 44.713 204.373 44.713C204.227 44.713 204.245 44.5083 204.316 44.3364L206.457 39.4851C206.674 38.9907 206.674 38.836 206.564 38.7345C206.488 38.664 206.399 38.5652 206.273 38.5652C205.684 38.5652 204.303 39.1971 203.314 40.27C203.275 40.4049 203.382 40.5434 203.547 40.5623C204.442 39.859 204.915 39.6561 205.037 39.6561C205.161 39.6561 205.161 39.7911 205.076 39.9828L202.786 45.1548ZM206.739 34.4635C206.04 34.4635 205.769 35.1667 205.769 35.5407C205.769 35.8468 205.951 36.1872 206.414 36.1872C206.974 36.1872 207.368 35.6439 207.368 35.1126C207.368 34.7386 207.153 34.4635 206.739 34.4635ZM213.79 38.5652C213.097 38.5652 212.339 38.8188 211.465 39.6751C210.318 40.7806 209.697 42.4407 209.63 43.5008C209.531 44.9674 210.235 45.7756 211.316 45.7756C211.77 45.7756 212.676 45.6861 213.719 44.5952C214.967 43.297 215.452 41.655 215.505 40.7144C215.572 39.4722 214.98 38.5652 213.79 38.5652ZM213.67 39.0758C214.263 39.0758 214.36 39.6751 214.344 40.2021C214.307 41.1073 213.517 43.3606 212.78 44.3699C212.243 45.1033 211.821 45.2606 211.444 45.2606C210.963 45.2606 210.728 44.7645 210.76 44.1688C210.807 43.2635 211.466 41.2294 212.442 39.896C212.931 39.2306 213.332 39.0758 213.67 39.0758ZM220.555 39.2658C220.713 38.8686 220.518 38.5652 220.106 38.5652C219.231 38.5652 218.161 39.2658 217.492 40.1522C217.475 40.2872 217.566 40.4067 217.704 40.4067C218.282 39.9149 218.898 39.5573 219.3 39.5573C219.434 39.5573 219.434 39.7223 219.349 39.9459C219.262 40.1874 217.405 45.1041 217.319 45.3285C217.161 45.718 217.632 45.7756 217.827 45.7756C217.988 45.7756 218.053 45.7197 218.14 45.5649C219.173 43.6873 219.889 42.3565 220.819 41.2277C221.781 40.0516 222.818 39.1971 223.237 39.1971C223.498 39.1971 223.515 39.4025 223.515 39.6046C223.515 39.9459 223.291 40.5434 223.147 40.8511C222.746 41.7048 222.1 43.3813 221.732 44.2186C221.363 45.0697 221.31 45.1944 221.31 45.3448C221.31 45.5503 221.571 45.7747 221.732 45.7747C222.695 45.7747 224.076 44.9545 224.743 43.8575C224.743 43.7226 224.703 43.5859 224.462 43.6211C223.949 44.2186 223.115 44.7852 222.821 44.7852C222.695 44.7852 222.712 44.6304 222.778 44.4585C222.831 44.3261 224.093 41.5372 224.408 40.6844C224.548 40.2915 224.69 39.7645 224.69 39.4894C224.69 38.9245 224.387 38.5695 223.706 38.5695C222.399 38.5695 220.665 40.4462 219.421 42.292L219.368 42.2593L220.554 39.2658H220.555ZM16.1347 19.4254C16.1347 21.8129 16.1347 23.7782 16.0128 24.8244C15.9129 25.5449 15.7909 26.0942 15.2947 26.1888C15.0728 26.2404 14.7781 26.2902 14.5529 26.2902C14.4089 26.2902 14.3564 26.3642 14.3564 26.4407C14.3564 26.5868 14.48 26.6376 14.7502 26.6376C15.4912 26.6376 17.0434 26.5636 17.1653 26.5636C17.3643 26.5636 19.8769 26.7132 20.4451 26.7132C24.6589 26.7132 26.7302 23.951 26.7302 21.291C26.7302 18.3809 24.2905 16.6168 22.4656 16.0459C23.6241 14.8251 24.78 13.6052 24.78 11.566C24.78 10.3237 23.8925 7.83655 19.8498 7.83655C18.7167 7.83655 17.7581 7.91049 17.1653 7.91049C17.0417 7.91049 15.4895 7.83655 14.3818 7.83655C14.1074 7.83655 13.988 7.88728 13.988 8.03257C13.988 8.13573 14.0863 8.18474 14.1845 8.18474C14.4064 8.18474 14.823 8.21053 15.0229 8.26125C15.8375 8.43405 16.0323 8.83382 16.0814 9.67719C16.1305 10.4733 16.1305 11.1662 16.1305 15.0487V19.4246H16.1347V19.4254ZM18.1045 8.92839C18.1045 8.78223 18.1807 8.70658 18.4017 8.65328C18.7955 8.55441 19.3154 8.5312 19.583 8.5312C21.9999 8.5312 22.9111 10.7458 22.9111 12.8083C22.9111 13.827 22.5427 14.7228 22.0253 15.3186C21.5087 15.917 21.1607 15.9677 19.7803 15.9677C18.8708 15.9677 18.4271 15.8955 18.2764 15.8688C18.1544 15.8172 18.1045 15.7691 18.1045 15.5937V8.92839ZM18.1045 16.8128C18.1045 16.6864 18.1553 16.6374 18.2535 16.6374C18.6219 16.6374 19.854 16.6374 20.1741 16.6864C20.7669 16.7621 21.3825 16.8343 22.2226 17.4086C24.1178 18.7274 24.6166 20.8895 24.6166 22.3837C24.6166 25.1941 22.4715 25.9171 21.1395 25.9171C20.6958 25.9171 19.6355 25.8681 18.9699 25.5423C18.2078 25.1683 18.2078 24.8218 18.1316 23.6002C18.1062 23.2288 18.1062 20.1459 18.1062 18.2313V16.8128H18.1045ZM33.5794 16.9134C33.5794 13.6637 33.5794 13.0808 33.6251 12.4111C33.6666 11.6795 33.8427 11.3261 34.433 11.2221C34.6955 11.1791 34.8284 11.1602 34.9834 11.1602C35.0698 11.1602 35.1613 11.1172 35.1613 11.0321C35.1613 10.9083 35.0478 10.867 34.8047 10.867C34.1484 10.867 32.769 10.9289 32.6589 10.9289C32.5496 10.9289 31.171 10.867 30.4478 10.867C30.2065 10.867 30.0981 10.91 30.0981 11.0321C30.0981 11.1172 30.1844 11.1611 30.2717 11.1611C30.4258 11.1611 30.7103 11.1808 30.9491 11.2436C31.4361 11.3485 31.6528 11.7044 31.696 12.4111C31.7418 13.0791 31.7418 13.6619 31.7418 16.9134V20.5826C31.7418 22.584 31.7418 24.2338 31.6317 25.1064C31.5445 25.7116 31.4361 26.1725 30.9966 26.2593C30.7799 26.305 30.5597 26.3314 30.3386 26.3384C30.2065 26.3384 30.1633 26.402 30.1633 26.4639C30.1633 26.5903 30.2734 26.6298 30.5147 26.6298C31.1727 26.6298 32.5522 26.5696 32.6589 26.5696C32.7715 26.5696 34.151 26.6298 35.3543 26.6298C35.5974 26.6298 35.7058 26.5696 35.7058 26.4639C35.7058 26.4037 35.66 26.3384 35.5296 26.3384C35.3349 26.3384 34.8505 26.2971 34.5439 26.2593C33.8859 26.1733 33.7598 25.7116 33.6903 25.1064C33.5802 24.2312 33.5802 22.5823 33.5802 20.5826V16.9134H33.5794ZM42.4033 16.9134C42.4033 13.6637 42.4033 13.0808 42.4482 12.4111C42.4922 11.6795 42.6616 11.3261 43.2798 11.2221C43.5364 11.1791 43.8353 11.1602 43.9877 11.1602C44.0699 11.1602 44.1571 11.1172 44.1571 11.0321C44.1571 10.9083 44.0487 10.867 43.8141 10.867C43.1722 10.867 41.6132 10.9289 41.5074 10.9289C41.3998 10.9289 40.0525 10.867 39.0939 10.867C38.8602 10.867 38.7526 10.91 38.7526 11.0321C38.7526 11.1172 38.8373 11.1611 38.922 11.1611C39.1142 11.1611 39.4792 11.1808 39.6486 11.2221C40.3531 11.3674 40.5251 11.7018 40.5674 12.4111C40.6114 13.0791 40.6114 13.6619 40.6114 16.9134V20.5826C40.6114 22.584 40.6114 24.2338 40.5013 25.1064C40.4167 25.7116 40.3091 26.1725 39.8815 26.2593C39.6708 26.305 39.4566 26.3315 39.2413 26.3384C39.1125 26.3384 39.0702 26.402 39.0702 26.4639C39.0702 26.5903 39.1777 26.6298 39.4106 26.6298C39.7324 26.6298 40.2033 26.6109 40.6284 26.5886C41.0586 26.5886 41.421 26.5679 41.5057 26.5679C42.7446 26.5679 44.1546 26.6934 47.2302 26.6934C48.3624 26.6934 48.4243 26.6109 48.5767 26.1312C48.7477 25.5259 48.8959 24.2751 48.8959 24.0472C48.8959 23.816 48.8731 23.7335 48.7647 23.7335C48.6402 23.7335 48.5953 23.8392 48.5741 24.006C48.5106 24.4014 48.2947 24.9224 48.0178 25.2569C47.5071 25.8604 46.5646 25.881 45.4316 25.881C43.7676 25.881 43.2103 25.7366 42.8691 25.4013C42.4863 25.0273 42.3991 23.6939 42.3991 20.6265V16.9134H42.4033ZM54.2022 16.9134C54.2022 13.6637 54.2022 13.0808 54.2445 12.4111C54.2877 11.6795 54.4486 11.3261 55.0456 11.2221C55.2912 11.1791 55.5808 11.1602 55.7256 11.1602C55.8052 11.1602 55.8882 11.1172 55.8882 11.0321C55.8882 10.9083 55.7849 10.867 55.5605 10.867C54.9431 10.867 53.4468 10.9289 53.3409 10.9289C53.2368 10.9289 51.942 10.867 51.0198 10.867C50.7937 10.867 50.6895 10.91 50.6895 11.0321C50.6895 11.1172 50.7733 11.1611 50.8546 11.1611C51.0401 11.1611 51.3881 11.1808 51.555 11.2221C52.2316 11.3674 52.3959 11.7018 52.4391 12.4111C52.4797 13.0791 52.4797 13.6619 52.4797 16.9134V20.5826C52.4797 22.584 52.4797 24.2338 52.3781 25.1064C52.2943 25.7116 52.1918 26.1725 51.7836 26.2593C51.5801 26.3049 51.3729 26.3314 51.1646 26.3384C51.0401 26.3384 51.0011 26.402 51.0011 26.4639C51.0011 26.5903 51.1028 26.6298 51.3289 26.6298C51.6363 26.6298 52.091 26.6109 52.4975 26.5886C52.9116 26.5886 53.2571 26.5679 53.3409 26.5679C54.5324 26.5679 55.8882 26.6934 58.8453 26.6934C59.9326 26.6934 59.997 26.6109 60.1418 26.1312C60.3027 25.5259 60.4475 24.2751 60.4475 24.0472C60.4475 23.816 60.4272 23.7335 60.323 23.7335C60.1994 23.7335 60.1604 23.8392 60.1401 24.006C60.0791 24.4014 59.8717 24.9224 59.6024 25.2569C59.1112 25.8604 58.2076 25.881 57.1186 25.881C55.5156 25.881 54.9804 25.7366 54.6544 25.4013C54.2835 25.0273 54.2005 23.6939 54.2005 20.6265V16.9134H54.2022ZM67.9936 24.2596C69.2071 24.2596 70.9405 23.7154 72.1583 22.2866C73.492 20.7107 73.8748 18.9165 73.9256 18.3723C73.9595 18.0284 73.995 17.1601 73.995 16.8334C74.5319 17.2856 75.1044 17.9725 75.1899 18.1187C75.2814 18.2614 75.416 18.3508 75.6074 18.2253C75.919 18.0258 76.6134 17.8109 76.909 17.7722C77.1004 17.7361 77.2562 17.7215 77.3603 17.5917C77.5749 17.3622 77.6933 17.057 77.6906 16.7406C77.6906 16.2712 77.5178 15.727 77.0495 15.727C76.7379 15.727 76.4949 15.9634 76.4949 16.18C76.4949 16.2351 76.5296 16.3245 76.5643 16.4517C76.599 16.5609 76.6338 16.7053 76.6338 16.9048C76.6338 17.2134 76.461 17.4662 76.2832 17.4662C75.9758 17.4662 75.9207 17.375 75.5236 16.9942C74.6708 16.199 74.1695 15.5825 73.2151 15.5825C72.9729 15.5825 72.1905 15.727 71.4986 16.3271C70.6306 17.0707 70.3173 17.8831 70.3173 18.3534C70.3173 18.84 70.7 19.0798 71.0642 19.0798C71.5511 19.0798 71.6366 18.6999 71.6366 18.5726C71.6366 18.4634 71.5672 18.2631 71.5121 18.068C71.4639 17.8659 71.3741 17.6347 71.3741 17.4687C71.3741 16.8515 72.1007 16.3099 72.641 16.3099C72.9907 16.3099 73.3531 16.4354 73.5428 16.6194C73.492 18.1024 73.2634 19.0093 72.6062 20.2774C71.6002 22.2161 69.8303 23.2305 68.3907 23.2305C67.057 23.2305 65.2854 22.4551 65.3201 20.1356V19.9903C67.1239 18.7059 70.0387 16.401 71.4783 14.9171C73.0906 13.2708 73.6631 12.1463 73.6631 11.204C73.6631 10.4991 73.2634 10.2455 72.8645 10.2455C72.5343 10.2455 72.1701 10.4982 72.1701 10.99C72.1701 11.1877 72.2192 11.2427 72.3598 11.3897C72.4835 11.5144 72.5715 11.6786 72.5715 11.9339C72.5715 12.4033 72.1888 13.1289 71.9466 13.4522C71.4613 14.1219 70.2622 15.3908 69.5009 16.0442C69.3443 15.8121 69.1707 15.3375 68.4068 15.3375C68.0258 15.3375 66.9494 15.5181 65.8215 16.75C64.4344 18.2339 64.1575 19.7392 64.1575 20.6445C64.1617 22.5058 65.2549 24.2596 67.9936 24.2596ZM65.3591 19.2973C65.4794 18.5382 65.7563 17.8126 66.2957 17.0707C66.8173 16.3632 67.3847 16.0924 67.6311 16.0924C67.9614 16.0924 68.2019 16.3099 68.2019 16.6512C68.2019 16.6898 68.2019 16.9245 68.185 17.0879C67.6133 17.6123 66.5912 18.4084 65.3591 19.2973ZM100.187 8.00506C100.138 7.53222 100.063 7.33534 99.8961 7.33534C99.7267 7.33534 99.631 7.509 99.5353 7.73253L92.4897 23.3543L85.1562 7.70932C85.0334 7.43249 84.942 7.33534 84.7955 7.33534C84.6524 7.33534 84.5812 7.509 84.5304 7.78325L82.8054 24C82.7097 24.9448 82.6386 25.912 81.8443 26.0641C81.4861 26.1406 81.3192 26.1406 81.1253 26.1406C81.0059 26.1406 80.8899 26.1871 80.8899 26.2627C80.8899 26.4407 81.0542 26.4871 81.2947 26.4871C81.9425 26.4871 83.09 26.4132 83.3067 26.4132C83.4998 26.4132 84.6481 26.4871 85.5381 26.4871C85.8235 26.4871 85.9658 26.4407 85.9658 26.2636C85.9658 26.1888 85.8726 26.1406 85.7744 26.1406C85.6304 26.1406 85.2714 26.1131 84.8641 26.0134C84.689 25.9775 84.5315 25.8814 84.418 25.7415C84.3045 25.6015 84.2419 25.4261 84.2408 25.2448C84.2408 24.8218 84.2408 24.3739 84.2662 23.9742L85.2248 12.4343H85.3205C85.5872 13.1049 88.2691 19.0764 88.4851 19.5217C88.607 19.771 90.6657 24.0739 91.2906 25.293C91.7445 26.1871 91.8631 26.4381 92.0299 26.4381C92.2459 26.4381 92.3212 26.212 92.8242 25.1159L98.6944 12.1858H98.7656L99.9139 25.0161C99.963 25.464 99.941 25.887 99.8182 25.912C99.7005 25.9395 99.6514 25.9885 99.6514 26.0899C99.6514 26.212 99.7741 26.2885 100.321 26.3375C101.211 26.4114 103.796 26.4854 104.325 26.4854C104.616 26.4854 104.828 26.4114 104.828 26.261C104.828 26.1613 104.757 26.1381 104.637 26.1381C104.394 26.1381 103.775 26.1381 103.081 25.912C102.046 25.5655 101.879 24.1736 101.784 23.2769L100.187 8.00506ZM107.5 20.4382C107.5 22.4396 107.5 24.0868 107.391 24.9611C107.307 25.5672 107.201 26.0237 106.776 26.1106C106.581 26.1518 106.324 26.1914 106.134 26.1914C106.004 26.1914 105.96 26.2558 105.96 26.3177C105.96 26.4433 106.068 26.4845 106.305 26.4845C106.625 26.4845 107.116 26.4622 107.544 26.4415C107.993 26.4415 108.355 26.4226 108.399 26.4226C109.017 26.4226 110.449 26.5473 113.672 26.5473C114.507 26.5473 114.678 26.5473 114.824 26.0031C114.932 25.5672 115.104 24.1487 115.104 23.9793C115.104 23.8332 115.104 23.6655 114.973 23.6655C114.869 23.6655 114.825 23.7541 114.784 23.9793C114.632 24.833 114.376 25.2508 113.819 25.4804C113.266 25.7099 112.323 25.7099 111.771 25.7099C109.674 25.7099 109.357 25.4391 109.291 24.0025C109.272 23.5641 109.291 21.1431 109.291 20.4365V18.6001C109.291 18.5159 109.333 18.454 109.442 18.454C109.806 18.454 111.917 18.497 112.495 18.5589C113.329 18.6423 113.52 18.9973 113.605 19.2913C113.689 19.5596 113.689 19.7668 113.689 19.9774C113.689 20.0805 113.732 20.1674 113.836 20.1674C113.986 20.1674 113.986 19.9378 113.986 19.7685C113.986 19.624 114.03 18.8546 114.075 18.4351C114.136 17.7473 114.245 17.3914 114.245 17.2693C114.245 17.1429 114.202 17.0999 114.136 17.0999C114.054 17.0999 113.967 17.2031 113.815 17.3725C113.626 17.5814 113.328 17.6209 112.813 17.6665C112.319 17.7095 109.691 17.7095 109.416 17.7095C109.31 17.7095 109.287 17.645 109.287 17.4988V11.7414C109.287 11.5969 109.329 11.5324 109.416 11.5324C109.653 11.5324 111.979 11.5514 112.343 11.5943C113.497 11.719 113.71 11.9692 113.861 12.3036C113.97 12.5538 113.988 12.9071 113.988 13.0516C113.988 13.2218 114.033 13.3232 114.162 13.3232C114.246 13.3232 114.289 13.1986 114.31 13.0971C114.351 12.8478 114.395 11.9296 114.418 11.719C114.482 11.1378 114.589 10.8877 114.589 10.7389C114.589 10.6332 114.567 10.5524 114.503 10.5524C114.395 10.5524 114.31 10.6332 114.204 10.6598C113.9 10.7154 113.592 10.7488 113.283 10.7596C112.794 10.7819 108.54 10.7819 108.393 10.7819C108.281 10.7819 106.937 10.72 105.975 10.72C105.742 10.72 105.632 10.7613 105.632 10.8877C105.632 10.9702 105.719 11.0115 105.805 11.0115C105.998 11.0115 106.362 11.0321 106.529 11.0759C107.237 11.2204 107.407 11.5514 107.449 12.2623C107.493 12.9303 107.493 13.5132 107.493 16.7689V20.4382H107.5ZM121.417 16.7672C121.417 13.5132 121.417 12.9303 121.462 12.2606C121.506 11.5299 121.676 11.1791 122.292 11.0742C122.553 11.0304 122.851 11.0097 122.999 11.0097C123.086 11.0097 123.177 10.9685 123.177 10.8859C123.177 10.757 123.065 10.7183 122.83 10.7183C122.184 10.7183 120.631 10.7802 120.524 10.7802C120.416 10.7802 119.067 10.7183 118.107 10.7183C117.874 10.7183 117.767 10.7596 117.767 10.8859C117.767 10.9685 117.853 11.0097 117.94 11.0097C118.131 11.0097 118.493 11.0304 118.664 11.0734C119.371 11.2187 119.543 11.5488 119.581 12.2598C119.628 12.9278 119.628 13.5106 119.628 16.7672V20.4365C119.628 22.437 119.628 24.0851 119.522 24.9585C119.437 25.5646 119.327 26.022 118.897 26.1106C118.707 26.1501 118.448 26.1896 118.256 26.1896C118.129 26.1896 118.084 26.2533 118.084 26.3152C118.084 26.4415 118.192 26.4828 118.427 26.4828C118.749 26.4828 119.219 26.4605 119.647 26.4398C120.073 26.4398 120.439 26.4192 120.521 26.4192C121.76 26.4192 123.175 26.5447 126.243 26.5447C127.376 26.5447 127.437 26.4605 127.592 25.9825C127.762 25.3789 127.91 24.1306 127.91 23.8968C127.91 23.663 127.893 23.5847 127.785 23.5847C127.652 23.5847 127.612 23.6896 127.591 23.8573C127.529 24.2527 127.317 24.7728 127.036 25.1064C126.519 25.7116 125.583 25.734 124.45 25.734C122.782 25.734 122.224 25.5878 121.886 25.2569C121.5 24.8786 121.413 23.546 121.413 20.482V16.7672H121.417ZM133.5 16.7672C133.5 13.5132 133.5 12.9303 133.546 12.2606C133.59 11.5299 133.765 11.1791 134.353 11.0742C134.62 11.0304 134.753 11.0097 134.903 11.0097C134.994 11.0097 135.078 10.9685 135.078 10.8859C135.078 10.757 134.973 10.7183 134.731 10.7183C134.069 10.7183 132.694 10.7802 132.59 10.7802C132.474 10.7802 131.093 10.7183 130.372 10.7183C130.135 10.7183 130.018 10.7596 130.018 10.8859C130.018 10.9685 130.105 11.0097 130.198 11.0097C130.346 11.0097 130.635 11.0304 130.878 11.0957C131.362 11.1997 131.581 11.5514 131.621 12.2606C131.666 12.9278 131.666 13.5106 131.666 16.7672V20.4365C131.666 22.437 131.666 24.0851 131.558 24.9585C131.473 25.5646 131.36 26.022 130.921 26.1106C130.704 26.1564 130.483 26.1828 130.261 26.1896C130.134 26.1896 130.083 26.2533 130.083 26.3152C130.083 26.4415 130.198 26.4828 130.435 26.4828C131.093 26.4828 132.474 26.4209 132.59 26.4209C132.696 26.4209 134.071 26.4828 135.278 26.4828C135.52 26.4828 135.628 26.4209 135.628 26.3152C135.628 26.255 135.587 26.1896 135.457 26.1896C135.257 26.1896 134.777 26.1484 134.473 26.1106C133.806 26.022 133.68 25.5646 133.615 24.9585C133.5 24.0825 133.5 22.4353 133.5 20.4365V16.7672ZM141.275 13.6594C141.95 14.4073 144.317 17.038 146.756 19.6447C148.983 22.0201 152.008 25.0875 152.237 25.2938C153.355 26.4003 153.603 26.6298 153.77 26.6298C153.914 26.6298 153.96 26.5241 153.96 25.1451L154.002 12.9286C154.002 11.6769 154.083 11.2178 154.775 11.0734C155.035 11.0097 155.176 11.0097 155.285 11.0097C155.432 11.0097 155.513 10.9453 155.513 10.867C155.513 10.7407 155.363 10.7209 155.135 10.7209C154.277 10.7209 153.582 10.7819 153.355 10.7819C153.117 10.7819 152.105 10.72 151.171 10.72C150.911 10.72 150.745 10.7432 150.745 10.8662C150.745 10.9453 150.772 11.0097 150.911 11.0097C151.082 11.0097 151.564 11.0304 151.94 11.1146C152.592 11.2806 152.736 11.7414 152.761 13.0971L152.992 23.6896C152.318 23.0018 150.028 20.4588 147.951 18.2494C144.719 14.8071 141.588 11.4499 141.275 11.0966C141.064 10.8859 140.711 10.426 140.541 10.426C140.372 10.426 140.313 10.6581 140.313 11.4705L140.287 23.4171C140.287 25.3145 140.18 25.9223 139.656 26.065C139.344 26.1707 138.965 26.1914 138.801 26.1914C138.693 26.1914 138.632 26.2344 138.632 26.3177C138.632 26.4622 138.759 26.4845 138.965 26.4845C139.912 26.4845 140.791 26.4226 140.982 26.4226C141.174 26.4226 142.012 26.4845 143.205 26.4845C143.461 26.4845 143.58 26.4415 143.58 26.3177C143.58 26.2352 143.524 26.1914 143.418 26.1914C143.23 26.1914 142.766 26.1707 142.364 26.065C141.8 25.8982 141.588 25.354 141.546 23.6466L141.275 13.6594ZM159.115 20.4399C159.115 22.4396 159.115 24.0868 159.005 24.9637C158.921 25.5689 158.817 26.0263 158.395 26.1131C158.189 26.1601 157.979 26.1868 157.768 26.1931C157.637 26.1931 157.597 26.2576 157.597 26.3195C157.597 26.4458 157.704 26.4871 157.934 26.4871C158.565 26.4871 159.887 26.4252 159.987 26.4252C160.204 26.4252 162.845 26.6745 164.65 26.6745C168.219 26.6745 170.112 25.213 171.013 24.2768C172.185 23.0474 173.282 21.0236 173.282 18.3964C173.282 15.9152 172.293 14.1847 171.244 13.0997C168.744 10.536 164.899 10.7226 162.828 10.7226C161.569 10.7226 160.247 10.7845 159.987 10.7845C159.885 10.7845 158.563 10.7226 157.614 10.7226C157.389 10.7226 157.287 10.7639 157.287 10.8894C157.287 10.9728 157.369 11.014 157.454 11.014C157.637 11.014 157.995 11.0347 158.165 11.0777C158.856 11.2238 159.023 11.5531 159.069 12.2641C159.113 12.9321 159.113 13.5149 159.113 16.7707V20.4399H159.115ZM160.876 16.4319C160.876 14.826 160.876 12.7008 160.896 11.9933C160.896 11.762 160.957 11.658 161.152 11.5737C161.315 11.4912 162.091 11.4293 162.514 11.4293C165.009 11.4293 167.405 11.7207 169.381 13.7857C170.239 14.6833 171.394 16.395 171.394 19.0429C171.394 20.9592 170.807 22.9632 169.718 24.0249C168.477 25.2543 166.673 25.9644 164.722 25.9644C162.243 25.9644 161.421 25.5259 161.152 25.1288C160.978 24.9018 160.936 24.0644 160.919 23.5435C160.896 23.148 160.876 21.23 160.876 19.0179V16.4319ZM176.113 23.7532C175.747 24.7694 175.344 25.5414 174.411 25.6644C174.25 25.6824 173.965 25.7048 173.827 25.7048C173.718 25.7048 173.642 25.7478 173.642 25.8277C173.642 25.9506 173.765 25.9911 174.03 25.9911C174.983 25.9911 176.091 25.9309 176.316 25.9309C176.535 25.9309 177.409 25.9911 177.895 25.9911C178.076 25.9911 178.196 25.9489 178.196 25.8277C178.196 25.7469 178.138 25.7048 177.991 25.7048H177.791C177.442 25.7048 177.018 25.5217 177.018 25.1141C177.018 24.7471 177.12 24.2613 177.301 23.7532L178.516 20.1528C178.558 20.0496 178.614 19.9911 178.724 19.9911H183.076C183.174 19.9911 183.215 20.0341 183.256 20.1141L185.139 25.1141C185.266 25.4426 185.139 25.6265 185.02 25.6644C184.938 25.6824 184.876 25.7228 184.876 25.8054C184.876 25.9292 185.102 25.9292 185.484 25.9472C186.883 25.9893 188.358 25.9893 188.663 25.9893C188.886 25.9893 189.07 25.9463 189.07 25.826C189.07 25.7228 188.988 25.703 188.866 25.703C188.66 25.703 188.356 25.6807 188.051 25.5801C187.627 25.4572 187.043 25.1331 186.311 23.3242C185.08 20.231 181.901 11.8325 181.594 11.0605C181.355 10.4294 181.277 10.3289 181.151 10.3289C181.028 10.3289 180.946 10.4535 180.703 11.1232L176.113 23.7532ZM178.947 19.2569C178.889 19.2569 178.845 19.2174 178.889 19.1168L180.673 13.625C180.767 13.3224 180.87 13.3224 180.974 13.625L182.894 19.1168C182.915 19.1968 182.915 19.2578 182.817 19.2578H178.947V19.2569Z" fill="#AC2440"/>
</svg>
