<svg width="305" height="326" viewBox="0 0 305 326" fill="none" xmlns="http://www.w3.org/2000/svg">
<path d="M243.616 285.663C232.177 288.146 220.773 290.79 209.3 293.077C193.057 296.311 176.8 299.477 160.475 302.25C156.18 302.979 151.532 302.651 147.196 301.928C140.703 300.85 136.778 296.55 135.328 290.118C134.113 284.725 132.998 279.301 131.842 273.895C131.165 270.775 130.437 267.667 129.819 264.534C126.191 245.987 122.521 227.449 119.037 208.87C118.417 205.569 118.122 202.048 118.557 198.749C119.481 191.749 123.022 188.077 131.512 185.835C140.705 183.406 149.853 180.809 159.03 178.348C161.666 177.643 161.635 175.87 160.967 173.891C159.354 169.071 157.775 164.243 155.964 159.493C151.247 147.14 152.632 143.448 164.966 138.239C177.244 133.051 190.13 129.324 203.357 127.001C208.746 126.053 213.615 126.297 217.071 131.124C218.264 132.786 219.25 134.759 219.732 136.735C221.155 142.517 222.225 148.384 223.558 154.195C224.594 158.724 224.761 158.679 229.06 158.091C239.127 156.711 249.177 155.087 259.285 154.221C268.185 153.457 277.491 157.953 280.527 168.511C288.049 194.641 292.885 221.363 298.715 247.851C299.782 252.683 299.253 257.995 298.739 263.011C298.197 268.343 294.101 271.578 289.839 274.009C286.577 275.867 282.846 277.111 279.164 277.972C267.351 280.732 255.472 283.186 243.619 285.76L243.597 285.658L243.616 285.663ZM252.592 270.532C259.018 269.137 264.1 268.406 268.928 266.871C273.137 265.541 277.11 263.413 281.089 261.433C283.742 260.114 285.133 258.121 284.664 254.735C283.704 247.825 283.759 240.74 282.404 233.925C278.49 214.307 274.101 194.782 269.85 175.237C268.365 168.398 266.878 166.728 259.964 167.176C250.902 167.762 241.8 168.817 232.892 170.565C220.402 173.019 208.078 176.279 195.721 179.386C174.928 184.617 154.042 189.381 133.583 195.868C128.838 197.376 127.729 198.67 128.447 203.649C129.381 210.113 130.384 216.57 131.455 223.013C131.839 225.311 132.457 227.585 133.111 229.824C134.116 233.271 135.491 236.629 136.276 240.123C139.555 254.656 142.656 269.228 145.876 283.774C147.204 289.771 148.109 290.265 154.213 289.268C160.277 288.288 166.391 287.58 172.435 286.507C186.438 284.008 200.436 281.447 214.393 278.736C223.797 276.907 233.136 274.782 242.497 272.759C244.306 272.366 246.08 271.813 247.804 271.35C246.783 269.341 245.615 267.753 245.141 265.979C242.44 255.942 239.83 245.876 237.338 235.784C236.319 231.659 235.471 227.47 234.922 223.269C234.097 216.976 233.694 210.636 232.963 204.332C232.249 198.228 231.277 192.163 230.555 186.06C230.154 182.704 229.877 179.311 229.853 175.934C229.834 173.646 230.955 171.959 233.47 171.351C235.901 170.762 237.68 171.252 238.653 173.652C239.448 175.604 240.4 177.54 240.853 179.584C244.089 194.127 247.224 208.691 250.376 223.251C250.646 224.494 250.867 225.757 251.035 227.021C252.271 236.465 253.283 245.939 254.784 255.343C255.571 260.271 256.141 264.981 252.608 270.52L252.592 270.532ZM168.295 164.217C168.295 164.217 168.219 164.233 168.177 164.243C168.357 165.071 168.538 165.908 168.718 166.737C170.839 176.59 171.173 176.739 180.833 173.606C189.492 170.797 198.189 168.121 206.873 165.386C207.073 165.325 207.286 165.287 207.492 165.216C212.97 163.372 213.814 161.675 211.997 156.279C210.85 152.872 209.678 149.47 208.63 146.033C207.465 142.213 207.316 141.856 203.231 142.858C191.693 145.699 180.218 148.792 168.712 151.741C166.632 152.272 165.946 153.475 166.391 155.485C167.022 158.394 167.655 161.31 168.287 164.219L168.295 164.217Z" fill="#BB6BD9" stroke="#BB6BD9" stroke-width="5.71548" stroke-miterlimit="10"/>
<path d="M18.7589 134.929C15.6268 118.992 17.4938 103.572 22.4105 88.3755C26.9831 74.245 35.9113 63.2945 46.7104 53.3367C59.3316 41.6996 74.4414 36.0204 90.8795 34.0544C103.849 32.5049 116.657 34.9391 128.995 39.6175C140.591 44.0144 150.587 50.5027 157.89 60.6563C165.735 71.5511 170.514 83.616 171.052 97.186C171.119 98.8801 171.909 100.683 171.515 102.211C171.092 103.853 169.972 106.034 168.614 106.55C166.424 107.389 164.788 105.849 163.982 103.439C162.091 97.8299 160.554 92.0108 157.863 86.7961C148.42 68.4577 135.049 54.5751 114.787 47.6151C104.572 44.1136 94.621 42.6441 84.2477 44.6126C69.7942 47.3607 58.7228 55.6159 50.1121 67.2942C43.7837 75.8654 38.2683 84.9596 35.4276 95.3234C30.7809 112.294 30.715 128.996 36.9156 145.896C41.1568 157.44 49.0807 165.273 58.7418 171.524C63.4086 174.548 69.3113 176.046 74.8608 177.223C82.2918 178.788 89.8641 179.862 97.5858 178.77C102.583 178.057 105.384 180.68 104.187 184.508C103.341 187.215 101.072 188.672 98.4304 188.9C79.6396 190.51 61.571 188.757 45.4006 177.642C35.2252 170.653 28.3376 161.232 23.8915 149.927C21.9581 145.018 20.4732 139.931 18.7739 134.917L18.7589 134.929Z" fill="#BB6BD9" stroke="#BB6BD9" stroke-width="5.71548" stroke-miterlimit="10"/>
<path d="M88.8622 64.1587C101.707 61.5032 112.552 64.6465 120.153 75.7625C126.162 84.5594 125.542 95.2822 117.512 102.992C114.156 106.208 110.765 109.388 107.417 112.602C103.818 116.048 101.678 119.895 103.564 125.116C104.316 127.192 104.263 129.355 101.931 130.685C99.2617 132.211 96.4292 131.357 95.2296 128.156C92.9261 121.989 92.1822 115.626 95.8015 109.706C98.1154 105.928 101.029 102.507 103.734 98.9805C104.506 97.9717 105.57 97.2009 106.387 96.2355C112.797 88.6913 110.19 80.475 100.539 77.94C90.5022 75.3027 79.8024 77.8468 74.5367 87.4798C73.212 89.901 72.8989 92.1291 73.1507 94.7569C73.3863 97.2288 72.6641 99.4483 69.6672 99.9573C66.6449 100.472 65.3995 98.4049 64.5856 96.1647C63.1459 92.1835 63.6511 88.1077 65.1056 84.2862C69.2744 73.2711 77.1177 66.7436 88.8519 64.1521L88.8622 64.1587Z" fill="#BB6BD9" stroke="#BB6BD9" stroke-width="5.71548" stroke-miterlimit="10"/>
<path d="M101.435 139.937C108.709 138.332 115.442 142.802 116.625 148.618C117.256 151.73 116.288 154.366 114.044 155.977C110.482 158.53 106.659 160.617 101.826 160.338C97.2201 160.081 94.821 157.512 93.5794 153.709C92.3397 149.915 92.5543 146.132 96.2628 143.477C98.294 142.027 100.386 140.652 101.441 139.927L101.435 139.937Z" fill="#BB6BD9"/>
<path d="M162.966 224.494C161.12 215.989 159.212 207.488 157.467 198.96C157.052 196.926 156.758 194.714 157.119 192.706C157.89 188.387 162.179 187.102 165.155 190.289C166.563 191.798 167.612 193.775 168.361 195.719C169.88 199.657 171.281 203.664 172.395 207.733C175.239 218.147 178.247 228.534 180.527 239.078C182.987 250.451 184.737 261.979 186.654 273.461C186.958 275.272 186.917 277.405 186.219 279.044C185.556 280.596 184.017 282.399 182.509 282.833C180.349 283.444 178.465 281.905 177.576 279.725C176.459 276.984 175.23 274.259 174.487 271.41C170.414 255.828 166.485 240.214 162.496 224.614C162.657 224.579 162.816 224.535 162.974 224.492L162.966 224.494Z" fill="#BB6BD9" stroke="#BB6BD9" stroke-width="5.71548" stroke-miterlimit="10"/>
</svg>
