<svg width="149" height="134" viewBox="0 0 149 134" fill="none" xmlns="http://www.w3.org/2000/svg">
<g clip-path="url(#clip0_5920_34859)">
<path d="M61.6617 66.8138C61.8502 67.1292 62.4457 67.7106 62.4876 68.3233C62.5225 68.7825 61.941 69.4807 61.4603 69.7399C60.3772 70.3053 59.2034 70.7384 58.0274 71.0748C57.5563 71.2077 56.6321 71.104 56.5037 70.8265C56.1834 70.1568 55.9483 69.2406 56.1438 68.5656C56.4554 67.4988 60.2234 66.2504 61.6676 66.8162L61.6617 66.8138Z" fill="#F9B500"/>
<path d="M20.7933 90.4848C22.3087 89.5928 23.4913 88.7112 24.8139 88.1802C25.7964 87.7799 26.8696 86.505 28.0287 87.7303C29.2561 89.0242 30.7456 90.3136 30.2523 92.3966C30.1124 92.9843 29.5462 93.6612 28.9994 93.9144C27.8208 94.462 26.5466 94.9234 25.2669 95.1085C24.1984 95.262 22.5469 95.3665 22.073 94.7723C21.2891 93.7728 21.2389 92.191 20.7886 90.4966L20.7933 90.4848Z" fill="#F9B500"/>
<path d="M140.315 59.3657C141.28 59.9994 142.192 61.4476 142.129 62.4225C142.058 63.6406 141.084 63.832 140.21 64.1321C139.83 64.2603 139.437 64.3355 139.041 64.4165C136.674 64.905 135.167 63.3689 135.714 60.9992C135.769 60.7608 135.927 60.3998 136.103 60.3539C137.496 59.9883 138.906 59.6841 140.315 59.3657Z" fill="#F9B500"/>
<path d="M126.925 40.8765C126.388 42.2641 124.113 43.8718 122.644 43.8986C121.333 43.9208 119.909 41.5136 120.665 39.9196C121.363 38.4531 122.657 37.2599 123.772 36.0158C123.958 35.8094 124.635 35.8621 124.982 36.0218C126.509 36.7234 127.516 39.3332 126.925 40.8765Z" fill="#F9B500"/>
<path d="M71.5564 92.7158C70.89 94.3594 66.414 96.5018 64.7619 95.9759C63.4934 95.5697 62.8974 93.2826 63.876 92.141C65.3935 90.3732 67.3516 89.4876 69.7144 89.8466C71.2369 90.0808 72.0629 91.4533 71.5481 92.7193L71.5564 92.7158Z" fill="#F9B500"/>
<path d="M115.458 91.3719C116.59 89.593 117.559 89.2423 119.15 90.127C121.449 91.4125 121.851 93.7384 120.139 95.7362C119.814 96.1195 119.541 96.5441 119.187 96.8955C118.739 97.3459 118.081 98.1845 117.799 98.0851C117.202 97.866 116.51 97.2184 116.354 96.6151C115.92 94.8995 115.742 93.1228 115.458 91.3719Z" fill="#F9B500"/>
<path d="M6.73835 72.7495C8.49016 71.5757 9.52294 71.6476 10.6156 73.1066C12.1951 75.213 11.6273 77.4988 9.25344 78.6354C8.80347 78.8521 8.37586 79.1326 7.91176 79.3163C7.31776 79.5505 6.37761 80.05 6.16064 79.8397C5.69956 79.4013 5.33339 78.5215 5.43438 77.9113C5.73016 76.1669 6.28087 74.4701 6.73835 72.7495V72.7495Z" fill="#F9B500"/>
<path d="M53.2118 80.9238C54.7752 81.5169 55.6765 83.1456 55.1722 84.4707C54.6111 85.9374 51.9056 87.0984 50.4 86.5148C49.4277 86.1384 48.0428 83.1033 48.3932 82.1274C48.7093 81.2543 51.954 80.4397 53.2142 80.9179L53.2118 80.9238Z" fill="#F9B500"/>
<path d="M30.1295 71.3472C31.1204 68.6215 32.693 68.321 34.0831 69.8924C36.3868 72.5154 36.1697 74.6612 33.5301 75.9651C32.5628 76.4468 31.7047 76.3491 31.3363 75.4068C30.7441 73.8952 30.4035 72.2859 30.1377 71.3437L30.1295 71.3472Z" fill="#F9B500"/>
<path d="M84.6301 77.2696C83.6667 79.6708 80.5675 81.3177 79.3221 80.2563C78.4447 79.507 78.0416 77.8316 78.0135 76.5531C77.9922 75.4967 82.0551 74.4693 83.3928 75.3006C84.09 75.731 84.3721 76.8373 84.6278 77.2755L84.6301 77.2696Z" fill="#F9B500"/>
<path d="M70.825 36.8399C71.4192 36.4003 72.3636 35.2586 72.8793 35.4244C73.8091 35.7359 74.7359 36.7036 75.1799 37.6284C75.525 38.3559 75.4646 39.6672 75.0059 40.2983C74.2659 41.3233 73.0528 42.0078 72.0368 42.833C71.5222 41.7087 70.8765 40.6208 70.5378 39.4507C70.3496 38.793 70.6798 37.9871 70.825 36.8399Z" fill="#F9B500"/>
<path d="M101.808 73.6004C103.154 74.12 103.168 74.8377 102.596 75.903C101.735 77.5027 99.7555 78.9207 98.5451 78.1816C97.3525 77.4497 96.6282 75.9262 95.8068 74.6788C95.7549 74.6032 96.659 73.5618 97.1608 73.5234C98.6942 73.4058 100.258 73.5539 101.808 73.6004Z" fill="#F9B500"/>
<path d="M47.8739 107.083C46.5276 106.564 46.5142 105.846 47.0855 104.781C47.9466 103.181 49.9264 101.763 51.1368 102.502C52.3294 103.234 53.0537 104.757 53.8751 106.005C53.927 106.08 53.0229 107.122 52.5211 107.16C50.9877 107.278 49.4238 107.13 47.8739 107.083Z" fill="#F9B500"/>
<path d="M93.1031 50.4362C94.9366 51.1924 95.9903 52.7316 95.505 53.941C94.9961 55.2094 92.7904 55.8587 91.2188 55.2007C89.9516 54.6717 89.0036 52.5105 89.4654 51.2232C89.8442 50.1765 91.5704 49.8007 93.1031 50.4362Z" fill="#F9B500"/>
<path d="M47.2003 33.6347C45.3686 34.3929 43.5382 34.0557 43.0201 32.8547C42.4831 31.5981 43.5807 29.5796 45.162 28.9333C46.4315 28.4152 48.6297 29.2698 49.2103 30.5028C49.6814 31.5138 48.7225 32.9989 47.1944 33.6323L47.2003 33.6347Z" fill="#F9B500"/>
<path d="M102.108 99.8237C102.132 99.7647 102.144 99.701 102.177 99.6526C102.898 98.7433 102.872 96.7259 104.735 97.4598C106.403 98.1155 107.072 100.665 106.248 102.156C106.156 102.318 106.064 102.528 105.913 102.597C104.796 103.128 103.283 104.357 102.617 104.001C100.976 103.123 101.514 101.339 102.108 99.8237Z" fill="#F9B500"/>
<path d="M20.5438 50.2407C20.5674 50.1817 20.5793 50.118 20.6124 50.0696C21.3334 49.1603 21.3072 47.1429 23.1703 47.8768C24.8388 48.5325 25.5077 51.0817 24.6833 52.5729C24.5911 52.7345 24.5 52.9446 24.3488 53.014C23.2316 53.5452 21.7182 54.7736 21.0528 54.4176C19.4118 53.54 19.9496 51.7557 20.5438 50.2407Z" fill="#F9B500"/>
<path d="M109.889 58.1716C110.772 56.2107 114.009 55.2426 115.631 56.5782C116.172 57.0215 116.688 57.9546 116.597 58.5754C116.504 59.182 115.717 59.9827 115.084 60.1602C113.843 60.5048 112.498 60.6155 111.199 60.5739C109.815 60.5252 109.31 59.46 109.889 58.1716Z" fill="#F9B500"/>
<path d="M74.2316 52.6246C75.3047 53.6374 75.8043 54.4748 74.8721 55.3131C73.6881 56.386 72.345 57.3266 70.9477 58.0947C70.5875 58.2926 69.4584 57.8122 69.218 57.3527C68.6608 56.3004 67.7996 54.7425 69.1473 53.9956C70.6366 53.1685 72.5207 53.0478 74.234 52.6187L74.2316 52.6246Z" fill="#F9B500"/>
<path d="M88.6751 100.084C88.0739 101.515 86.1571 102.485 85.0107 101.518C84.0791 100.734 83.2062 99.034 83.4174 97.9612C83.7011 96.5202 85.5069 96.7311 86.597 97.2918C87.6246 97.8205 89.4799 98.0786 88.6751 100.084Z" fill="#F9B500"/>
<path d="M43.5426 55.7906C42.2034 55.2875 40.8429 52.5498 41.5666 51.3607C41.8729 50.8535 43.0537 50.4711 43.6721 50.637C45.297 51.0767 46.7275 53.5205 46.3272 54.7229C45.9459 55.8782 44.8642 56.2866 43.5391 55.7823L43.5426 55.7906Z" fill="#F9B500"/>
<path d="M123.914 75.8126C123.372 77.1978 121.519 78.4542 120.646 77.8642C119.374 77.0047 119.653 75.5755 120.062 74.438C120.458 73.33 121.068 71.965 122.727 72.4731C123.941 72.8439 124.442 74.4628 123.914 75.8126Z" fill="#F9B500"/>
<path d="M99.3009 40.2792C97.5027 39.5372 96.8778 37.7317 97.6396 36.2428C97.875 35.7756 98.6547 35.198 99.0749 35.2776C100.275 35.5126 101.584 38.3116 100.939 39.2859C100.569 39.8497 99.6777 40.0743 99.3068 40.2816L99.3009 40.2792Z" fill="#F9B500"/>
<path d="M77.7218 112.361C77.9942 110.436 79.5936 109.386 81.2328 109.756C81.7414 109.871 82.4939 110.488 82.5229 110.911C82.5948 112.131 80.2 114.088 79.0956 113.7C78.4584 113.478 78.0237 112.667 77.7277 112.363L77.7218 112.361Z" fill="#F9B500"/>
</g>
<defs>
<clipPath id="clip0_5920_34859">
<rect width="121.903" height="94.6709" fill="white" transform="translate(35.8281 0.249756) rotate(21.8626)"/>
</clipPath>
</defs>
</svg>
