<svg width="269" height="227" viewBox="0 0 269 227" fill="none" xmlns="http://www.w3.org/2000/svg">
<g clip-path="url(#clip0_5920_34840)">
<path d="M159.606 108.804C159.129 108.269 157.775 107.372 157.471 106.213C157.236 105.346 158.095 103.795 158.922 103.122C160.791 101.642 162.883 100.382 165.014 99.3075C165.869 98.8805 167.678 98.7412 168.026 99.2263C168.885 100.393 169.67 102.063 169.542 103.428C169.335 105.587 162.569 109.358 159.594 108.802L159.606 108.804Z" fill="#F9B500"/>
<path d="M229.286 48.4833C226.707 50.7474 224.763 52.87 222.422 54.3715C220.685 55.4981 219.094 58.3344 216.424 56.4096C213.598 54.3783 210.271 52.4514 210.455 48.2783C210.508 47.1006 211.346 45.5959 212.301 44.9105C214.36 43.4297 216.634 42.0793 219.02 41.2564C221.011 40.5714 224.139 39.7671 225.265 40.7329C227.133 42.362 227.808 45.3758 229.291 48.459L229.286 48.4833Z" fill="#F9B500"/>
<path d="M11.5617 151.848C9.48034 150.987 7.20232 148.544 6.96539 146.653C6.65587 144.292 8.45299 143.569 10.0183 142.674C10.7002 142.289 11.4264 142.001 12.1549 141.701C16.514 139.899 19.9644 142.292 19.7831 147.035C19.7657 147.511 19.5938 148.262 19.2734 148.414C16.7364 149.624 14.1453 150.723 11.5617 151.848Z" fill="#F9B500"/>
<path d="M43.9905 182.392C44.5109 179.536 48.2842 175.622 51.0915 175.034C53.595 174.512 57.2061 178.605 56.34 181.937C55.5383 185.003 53.4946 187.764 51.8111 190.557C51.5309 191.02 50.213 191.167 49.4897 190.988C46.3066 190.201 43.4205 185.567 43.9905 182.392Z" fill="#F9B500"/>
<path d="M131.165 62.7727C131.841 59.3784 139.637 53.6347 142.996 54.0385C145.577 54.3532 147.556 58.5193 146.097 61.0655C143.835 65.0093 140.405 67.423 135.745 67.599C132.741 67.7069 130.655 65.3781 131.179 62.7629L131.165 62.7727Z" fill="#F9B500"/>
<path d="M47.501 81.4056C45.9825 85.2293 44.2524 86.2562 40.8805 85.1421C36.0029 83.5187 34.3809 79.2076 36.933 74.7517C37.4159 73.8981 37.7841 72.9842 38.3328 72.1814C39.0266 71.1541 39.9819 69.3059 40.5589 69.3934C41.7835 69.5949 43.3472 70.5831 43.8653 71.6829C45.3265 74.8124 46.3166 78.1532 47.501 81.4056Z" fill="#F9B500"/>
<path d="M262.715 77.3394C259.786 80.2302 257.78 80.47 255.152 78.073C251.354 74.613 251.607 70.0236 255.741 66.9768C256.525 66.3968 257.242 65.7027 258.064 65.181C259.117 64.5147 260.737 63.2133 261.229 63.5372C262.274 64.209 263.297 65.7615 263.327 66.968C263.398 70.4199 262.963 73.874 262.715 77.3394V77.3394Z" fill="#F9B500"/>
<path d="M170.641 78.6674C167.427 78.1023 165.104 75.3099 165.586 72.5854C166.125 69.5688 170.887 66.3538 173.986 66.9217C175.988 67.2877 179.752 72.5991 179.437 74.5978C179.151 76.3872 173.229 79.1353 170.639 78.6795L170.641 78.6674Z" fill="#F9B500"/>
<path d="M218.389 88.5821C217.486 94.1694 214.582 95.3206 211.342 92.8167C205.967 88.6314 205.598 84.4388 210.181 80.974C211.859 79.6967 213.54 79.5702 214.591 81.2418C216.279 83.9227 217.52 86.8829 218.374 88.5919L218.389 88.5821Z" fill="#F9B500"/>
<path d="M111.753 97.1629C112.721 92.2079 118.06 87.9175 120.835 89.4964C122.791 90.6119 124.176 93.676 124.698 96.1163C125.125 98.1337 117.713 101.589 114.845 100.485C113.351 99.9147 112.405 97.8972 111.755 97.1507L111.753 97.1629Z" fill="#F9B500"/>
<path d="M153.002 169.612C152.024 170.672 150.631 173.206 149.582 173.077C147.686 172.82 145.556 171.304 144.366 169.694C143.439 168.425 143.075 165.889 143.723 164.512C144.767 162.277 146.842 160.521 148.488 158.567C149.885 160.534 151.521 162.383 152.598 164.503C153.199 165.695 152.861 167.36 153.002 169.612Z" fill="#F9B500"/>
<path d="M80.1671 110.479C77.3964 109.975 77.1082 108.604 77.8136 106.353C78.8791 102.972 82.1557 99.5297 84.746 100.504C87.2998 101.471 89.2455 104.126 91.2763 106.217C91.4033 106.343 90.0511 108.669 89.1034 108.927C86.2069 109.713 83.155 110.001 80.1671 110.479Z" fill="#F9B500"/>
<path d="M171.307 26.5706C174.077 27.0743 174.365 28.4452 173.66 30.6961C172.595 34.0775 169.318 37.5197 166.728 36.5456C164.174 35.5788 162.228 32.9233 160.197 30.8326C160.07 30.7067 161.423 28.3799 162.37 28.1228C165.267 27.3365 168.319 27.0483 171.307 26.5706Z" fill="#F9B500"/>
<path d="M105.327 151.698C101.535 150.919 98.9526 148.354 99.4404 145.858C99.9521 143.241 103.943 141.189 107.196 141.876C109.818 142.426 112.426 146.222 112.012 148.859C111.668 151.004 108.497 152.356 105.327 151.698Z" fill="#F9B500"/>
<path d="M199.461 167.116C202.695 164.993 206.327 164.969 207.759 167.082C209.248 169.294 207.882 173.565 205.087 175.382C202.843 176.84 198.317 176.006 196.753 173.854C195.481 172.089 196.775 168.891 199.473 167.118L199.461 167.116Z" fill="#F9B500"/>
<path d="M70.0009 60.3221C69.9771 60.4439 69.9777 60.5704 69.9319 60.6752C68.8824 62.682 69.6704 66.5394 65.8307 65.8141C62.3927 65.1674 60.1781 60.5255 61.2129 57.3656C61.3306 57.0221 61.4284 56.5862 61.6928 56.3977C63.6401 54.9709 66.0919 52.0627 67.4976 52.5018C70.9642 53.5839 70.5858 57.2007 70.0009 60.3221Z" fill="#F9B500"/>
<path d="M244.484 125.535C244.461 125.657 244.461 125.783 244.415 125.888C243.366 127.895 244.154 131.752 240.314 131.027C236.876 130.38 234.661 125.738 235.696 122.579C235.814 122.235 235.912 121.799 236.176 121.611C238.124 120.184 240.575 117.276 241.981 117.715C245.448 118.797 245.069 122.414 244.484 125.535Z" fill="#F9B500"/>
<path d="M70.3198 143.01C69.345 147.091 63.4928 150.131 59.8958 148.164C58.696 147.512 57.3656 145.913 57.314 144.689C57.2699 143.492 58.4856 141.67 59.6339 141.098C61.8867 139.984 64.4259 139.279 66.93 138.884C69.6018 138.471 70.9577 140.328 70.3198 143.01Z" fill="#F9B500"/>
<path d="M140.7 140.601C138.273 139.052 137.009 137.63 138.489 135.682C140.366 133.192 142.597 130.898 144.994 128.915C145.612 128.404 147.952 128.912 148.581 129.704C150.034 131.518 152.255 134.189 149.945 136.114C147.392 138.244 143.825 139.164 140.698 140.613L140.7 140.601Z" fill="#F9B500"/>
<path d="M95.6554 54.9092C96.2847 51.9481 99.6041 49.3865 102.155 50.8205C104.228 51.9841 106.523 54.9226 106.51 57.0563C106.494 59.9222 102.955 60.1785 100.66 59.5024C98.4971 58.8647 94.8462 59.0485 95.6554 54.9092Z" fill="#F9B500"/>
<path d="M198.368 123.308C201.119 123.782 204.728 128.532 203.776 131.076C203.374 132.161 201.251 133.326 200.005 133.234C196.729 132.985 193.093 128.824 193.421 126.373C193.729 124.019 195.653 122.84 198.378 123.322L198.368 123.308Z" fill="#F9B500"/>
<path d="M36.9838 114.324C37.5164 111.47 40.6096 108.384 42.4986 109.196C45.2504 110.378 45.2384 113.22 44.8715 115.549C44.5165 117.818 43.8477 120.658 40.4815 120.291C38.0183 120.024 36.4656 117.104 36.9838 114.324Z" fill="#F9B500"/>
<path d="M97.1589 173.434C100.877 174.199 102.735 177.431 101.82 180.564C101.539 181.546 100.256 182.938 99.4215 182.939C97.0348 182.928 93.503 178.041 94.3818 175.937C94.885 174.721 96.5117 173.965 97.1467 173.432L97.1589 173.434Z" fill="#F9B500"/>
<path d="M112.161 27.3705C112.343 31.16 109.661 33.7578 106.384 33.648C105.367 33.6135 103.699 32.706 103.489 31.9065C102.904 29.593 106.779 24.966 109.038 25.3064C110.341 25.4978 111.471 26.8942 112.149 27.3681L112.161 27.3705Z" fill="#F9B500"/>
</g>
<defs>
<clipPath id="clip0_5920_34840">
<rect width="237.888" height="184.746" fill="white" transform="translate(233.47 226.951) rotate(-168.94)"/>
</clipPath>
</defs>
</svg>
