<?xml version="1.0" encoding="UTF-8"?><svg id="Calque_1" xmlns="http://www.w3.org/2000/svg" viewBox="0 0 60.92 49.28"><defs><style>.cls-1{fill:#bb6bd9;}.cls-2{fill:none;stroke:#000;stroke-linecap:round;stroke-linejoin:round;stroke-width:7px;}</style></defs><path class="cls-1" d="m38.98,14.01c-.02.34.34.72-.07,1.09l-.17-.24c-.27.34-.65.4-1.01.41-.55.34-1.06.69-1.59.98-.56.31-1.16.56-1.76.85l-.21-.31c-.17.79-.74,1.14-1.31,1.42l.14.65c.07.02.14.04.26.07.09-.18.18-.37.29-.61.5.22.87-.05,1.25-.38l-.15-.42c.58.04,1.15-.14,1.6-.51,1.01-.79,2.22-1.22,3.43-1.63.2-.07.45,0,.88,0l-.65-.66-.52.41c-.04-.46-.06-.8-.09-1.14l1.31-.3.19.26c.93-.33,1.9-.05,2.9-.03l.4.36-.13.49.47.22c-.03-.3-.05-.48-.07-.68.07-.04.17-.1.27-.15.54.12.48.67.75,1.09.1-.22.18-.39.29-.63.66.04,1.01.66,1.55.9-.03.22-.06.4-.12.79.25-.27.39-.43.45-.49l.95.25c-.12.12-.2.2-.37.37l.7.02c-.09-.05-.03-.03,0,0,.63.6,1.29,1.17,1.87,1.81.8.86,1.45,1.84,1.93,2.91.4.91.62,1.89,1.07,2.78.09.18.09.4.14.62-.03.02-.09.05-.24.14.15.12.27.27.34.44.08.17.11.36.09.55-.04,1.29-.05,1.29-.4,1.71l.14,1.27-.64.13.13.43c-.39.82-.76,1.59-1.13,2.36l-.57-.09c-.15.74-.77,1.06-1.46,1.44l.51.5-.53.5-.03-.49c-.2.03-.47-.02-.62.1-.51.38-1.01.78-1.48,1.21-.12.11-.15.32-.17.36-.48.24-.96.34-1.22.64-.72.81-1.72.96-2.65,1.31-.27.09-.54.16-.81.22,0-.1-.02-.24-.03-.39-.06,0-.16.01-.16.03-.06.31-.14.59-.64.63l-.63-.17-1.01.73-.62-.38c-.55.66-1.41.61-2.22.73l-.21-.28-.84.46-.86-.23c-.29.34-.59.6-1.04.23l-1.26.44,1.8,1.77.3-.11.73.47-.06.24c.05.03.13.1.14.09.26-.21.51-.05.73.04.29.11.55.31.83.44.26.12.59.15.8.32.29.24.57,0,.87.09.33.1.57.42,1.01.36.34-.05.72.14,1.08.24,1.11.31,2.24.3,3.38.28.7-.01,1.4.07,2.09.02,1.1-.07,2.2-.21,3.29-.41.51-.1,1.08.09,1.53-.3.14-.12.46.13.51-.25,0-.06.31-.07.46-.14.2-.09.38-.23.59-.33.38-.18.77-.34,1.25-.56l-.23.85q-.48.12-1.12.92l.54.14c.4-.57,1.14-.71,1.68-1.16l.21.39-.58.67c.12.03.28.11.36.07.23-.14.42-.33.77-.61,0,.33,0,.52.01.75l.59.69-1.02.12c0,.2.01.43.02.71l-.96.37.47.45-.68.37-.49-.48c0,.35,0,.54-.01.7l-.39.14s0-.13.02-.32l-1.25.43c.06.12.11.21.09.18l-.72.59-.28-.39c-.17.17-.35.35-.52.53l-.59-.16c-.67.22-1.26.47-1.88.61-.55.12-1.14-.24-1.75.1l-.32-.59-.66-.13.56.47c-.79.16-1.54.73-2.3,0l-.48.28-.21-.3c-.51.19-1.01.13-1.4-.38l-.7.35-.57-.36c-.06.02-.2.1-.31.07-.12-.04-.18-.23-.29-.29-.17-.07-.35-.12-.54-.15-.15-.02-.29-.07-.43-.12-.12-.07-.2-.19-.35-.34-.77.51-1.09-.49-1.96-.46l.81-.66c-.15-.23-.64-.11-1.15.31l.02-.37c-.25-.41-.64-.06-.97-.12l-.34-.55-.31.15c0-.13,0-.24,0-.41-.66-.4-1.37-.83-2.06-1.28-.12-.07-.23-.18-.3-.3-.07-.12-.11-.26-.12-.41-.3-.09-.67-.08-.82-.26-.86-.99-1.67-2.02-2.51-3.03-.13-.16-.31-.27-.46-.42-.18-.17-.34-.36-.53-.56-.05.07-.12.18-.23.36-.53-.21-1.19-.14-1.64-.68l-.83.18c-.52-.62-1.53-.27-2.04-.88h-.76c-.01-.17-.02-.31-.03-.46-.48.13-.81-.08-1.21-.34-.38-.25-.86-.33-1.1-.79-.06.03-.13.06-.26.12l-.24-.3-.36.07c-.44-.24-.91-.46-1.33-.73-.87-.57-1.88-.9-2.6-1.72-.24-.27-.62-.44-.96-.62-1.96-1.06-3.48-2.63-4.96-4.26-.84-.91-1.55-1.93-2.12-3.03-.19-.36-.36-.76-.65-1.03-.31-.29-.27-.69-.5-1.01-.64-.84-.87-1.9-1.28-2.86-.38-.94-.7-1.91-.95-2.9-.28-1.04-.6-2.09-.67-3.15-.07-1-.33-2-.17-3.01.02-.12-.13-.28-.11-.4.16-.66-.02-1.34.07-1.99.07-.48.24-.94.39-1.49l.79-.38.99.6c0,.15-.01.26-.02.37l.43.11c.13.31.3.59.36.89.08.31.08.62.02.93-.28,1.06.09,2.08.17,3.12.06.75.22,1.5.28,2.26.03.41.22.81.36,1.21.3.9.51,1.83.88,2.71.2.49.29,1.02.52,1.49.49,1.03.99,2.05,1.57,3.03,1.21,2.07,2.89,3.73,4.7,5.27.39.33.89.54,1.36.78.62.32,1.08.88,1.75,1.13.96.36,1.75,1.07,2.76,1.34.37.1.69.34,1.05.5.35.16.79.09,1.07.5.09.14.47.11.72.11.72,0,1.2.14,1.78.58l.45-.16c.08.11.17.22.24.34.06.09.1.2.13.26l.74-.46c-.08-.44-.2-.98-.28-1.52-.08-.55-.08-1.1-.17-1.65-.1-.56-.12-1.13-.06-1.7l-.19-.32c.11-.4.24-.83.33-1.27.06-.31.29-.6.06-.95-.07-.11.01-.41.12-.52.5-.51.48-1.21.71-1.81.2-.54.43-1.06,1.05-1.33.08-.49.29-.94.62-1.3.23-.25.32-.68.59-.84.35-.21.33-.56.52-.79.41-.48.68-1.17,1.55-1.13l-.21-.5.77-.29c.08-.11.28-.39.6-.81.49-.34,1.09-.94,1.82-1.21.71-.26,1.26-.75,1.93-1.04.7-.31,1.45-.53,2.18-.78Zm8.39,5.69c-.14-.4-.26-.71-.37-1.01l-.54.42c-.05-.28-.08-.44-.12-.63-.12.14-.23.27-.33.39l-.27-.07c.02-.2.04-.41.06-.66l-.92-.25c-.16-.73-.52-1.06-.81-.81.05.1.12.2.12.3,0,.09-.09.18-.19.37-.21-.28-.35-.53-.55-.71-.11-.1-.33-.1-.56-.16l.19.48q-.6.43-1.03.01c-.22.04-.49.02-.61.14-.15.15-.19.41-.46.23-.06-.19-.11-.37-.19-.64-.49.38-.88.68-1.27.98l-.22-.33-.56.53-.85.15.13.31-1.4.04.13.26c-.32.43-.63.85-1,1.35.92-.06,1.26-.87,1.94-1.12.68-.25,1.32-.6,2.05-.94l-.13.49c-.49.25-.85.51-1.26.62-.43.11-.64.53-1.05.59-.46.07-.63.48-.97.7-.55.36-.89,1.06-1.65,1.03-.24.59-.55,1.09-1.11,1.41l-.22.83-.44.04c.13.33.21.62-.16.85-.24.15-.45.35-.61.59-.16.24-.26.51-.3.79-.08.44-.37.77-.54,1.15-.13.29-.1.66-.46.83-.03.01,0,.13,0,.2l.34.23c-.11.09-.21.19-.3.31-.07.13-.11.28-.12.43-.02.15.03.3,0,.45-.03.12-.19.24-.18.34.08.6.02,1.18-.02,1.78-.04.73.11,1.46.43,2.12.84.1,1.54-.17,2.29-.11.8.05,1.62-.29,2.44-.39,1.56-.18,2.98-.97,4.57-1.01.12,0,.24-.16.35-.24.09-.08.19-.15.3-.21,1.45-.47,2.84-1.12,4.13-1.93.71-.43,1.31-.98,1.9-1.54.33-.31.55-.75.92-.98.65-.42.88-1.11,1.16-1.72.31-.67.47-1.42.59-2.15.11-.76.01-1.54-.28-2.25-.08-.21-.36-.34-.47-.55-.11-.21-.13-.47-.19-.74l-.33.15-.33-.54-.68-.18Z"/><path class="cls-2" d="m3.5,3.5s1.4,22.73,11.77,27.39,13.91,5.72,13.91,5.72c0,0,17.79-2.05,19.84-5.58s2.75-6.92,2.75-6.92c0,0-.56-7.06-8.61-8.61s-11.79,6.78-11.79,6.78c0,0-3.31,4.04-2.82,10.24s6.56,10.02,6.56,10.02c0,0,4.09,3.32,9.67,3.25s12.64-4.02,12.64-4.02"/></svg>