<svg width="206" height="179" viewBox="0 0 206 179" fill="none" xmlns="http://www.w3.org/2000/svg">
<g clip-path="url(#clip0_4417_30305)">
<path d="M121.681 87.0025C121.357 86.5809 120.403 85.8473 120.238 84.9715C120.11 84.3157 120.825 83.2073 121.471 82.7493C122.929 81.7442 124.539 80.9139 126.17 80.2227C126.823 79.9485 128.167 79.9358 128.399 80.3134C128.973 81.2224 129.467 82.5019 129.302 83.5092C129.037 85.1016 123.842 87.5622 121.673 87.0001L121.681 87.0025Z" fill="black"/>
<path d="M176.293 45.7109C174.27 47.2626 172.723 48.741 170.916 49.7384C169.574 50.4878 168.251 52.5138 166.379 50.9509C164.396 49.3012 162.038 47.7038 162.391 44.6148C162.491 43.7431 163.188 42.668 163.93 42.2071C165.528 41.2109 167.278 40.3223 169.083 39.8309C170.59 39.4221 172.942 38.9818 173.724 39.7552C175.02 41.0584 175.362 43.3297 176.297 45.6931L176.293 45.7109Z" fill="black"/>
<path d="M10.0706 111.539C8.57757 110.795 7.02126 108.867 6.94437 107.451C6.83819 105.683 8.20346 105.236 9.40633 104.65C9.93014 104.398 10.4816 104.221 11.0354 104.035C14.3495 102.915 16.7745 104.865 16.3945 108.377C16.3569 108.73 16.191 109.279 15.9463 109.376C14.0091 110.147 12.0378 110.833 10.0706 111.539Z" fill="black"/>
<path d="M32.4449 135.841C32.9775 133.747 35.9684 131.03 38.073 130.734C39.9498 130.472 42.4053 133.692 41.5925 136.122C40.8411 138.359 39.188 140.306 37.7992 142.295C37.5682 142.625 36.5869 142.668 36.0617 142.498C33.7508 141.755 31.859 138.17 32.4449 135.841Z" fill="black"/>
<path d="M103.057 51.4018C103.733 48.9157 109.791 45.0421 112.252 45.5103C114.142 45.8733 115.388 49.0655 114.178 50.8828C112.302 53.6973 109.643 55.3174 106.191 55.2145C103.966 55.1441 102.546 53.3106 103.068 51.3953L103.057 51.4018Z" fill="black"/>
<path d="M40.2785 61.0418C38.9583 63.8045 37.6267 64.4801 35.1933 63.484C31.6739 62.0343 30.6993 58.7522 32.816 55.572C33.217 54.9625 33.5365 54.3024 33.9836 53.7339C34.5494 53.006 35.3512 51.6817 35.7729 51.7756C36.6672 51.9866 37.7712 52.7986 38.0969 53.6411C39.0141 56.0378 39.5723 58.5677 40.2785 61.0418Z" fill="black"/>
<path d="M199.493 68.8101C197.179 70.8095 195.685 70.887 193.867 68.9756C191.241 66.2165 191.666 62.8219 194.878 60.7671C195.487 60.3757 196.053 59.8964 196.688 59.5502C197.5 59.1083 198.764 58.2234 199.112 58.4885C199.848 59.0396 200.524 60.2435 200.483 61.1408C200.357 63.7071 199.856 66.2497 199.493 68.8101V68.8101Z" fill="black"/>
<path d="M131.398 65.1809C129.053 64.6003 127.482 62.4107 127.979 60.4121C128.534 58.1996 132.219 56.0513 134.479 56.6283C135.939 57.0003 138.445 61.1324 138.108 62.6005C137.804 63.9146 133.286 65.6581 131.396 65.1898L131.398 65.1809Z" fill="black"/>
<path d="M166.161 74.9353C165.204 79.0382 162.999 79.7473 160.735 77.726C156.981 74.3493 156.926 71.2181 160.492 68.8755C161.798 68.0113 163.046 68.0016 163.736 69.2954C164.844 71.3703 165.607 73.6303 166.15 74.9419L166.161 74.9353Z" fill="black"/>
<path d="M86.9306 75.9607C87.9033 72.3306 92.07 69.4128 94.0386 70.7242C95.4259 71.6504 96.2905 73.9948 96.5491 75.8326C96.7601 77.3518 91.1045 79.5455 89.0427 78.582C87.9686 78.0839 87.3748 76.5386 86.933 75.9518L86.9306 75.9607Z" fill="black"/>
<path d="M113.648 131.817C112.871 132.555 111.71 134.366 110.942 134.218C109.554 133.932 108.059 132.7 107.264 131.444C106.644 130.456 106.507 128.555 107.057 127.565C107.944 125.958 109.568 124.758 110.886 123.391C111.816 124.921 112.929 126.376 113.615 128.003C113.997 128.918 113.661 130.138 113.648 131.817Z" fill="black"/>
<path d="M62.904 84.2637C60.883 83.7509 60.7412 82.7187 61.3792 81.0828C62.3419 78.6258 64.9413 76.2345 66.8045 77.0875C68.6411 77.9333 69.9408 80.0023 71.3327 81.6563C71.4201 81.7561 70.3003 83.4158 69.5868 83.5592C67.406 83.9978 65.1362 84.0588 62.904 84.2637Z" fill="black"/>
<path d="M134.593 26.5362C136.614 27.049 136.756 28.0812 136.118 29.717C135.155 32.1741 132.556 34.5654 130.692 33.7124C128.856 32.8666 127.556 30.7976 126.164 29.1436C126.077 29.0437 127.197 27.384 127.91 27.2406C130.091 26.8021 132.361 26.7411 134.593 26.5362Z" fill="black"/>
<path d="M79.3538 116.127C76.5931 115.359 74.8181 113.325 75.308 111.496C75.8219 109.579 78.8767 108.256 81.2446 108.929C83.1536 109.469 84.8831 112.418 84.4402 114.354C84.0752 115.929 81.662 116.774 79.3538 116.127Z" fill="black"/>
<path d="M148.102 132.292C150.601 130.878 153.286 131.042 154.235 132.683C155.22 134.4 153.989 137.502 151.83 138.711C150.097 139.681 146.796 138.834 145.752 137.159C144.903 135.784 146.026 133.475 148.111 132.294L148.102 132.292Z" fill="black"/>
<path d="M57.9953 46.5165C57.9714 46.6057 57.9652 46.6997 57.926 46.7752C57.0464 48.2125 57.4285 51.1158 54.6292 50.3849C52.1228 49.7324 50.7274 46.1752 51.6559 43.8811C51.7607 43.6319 51.8556 43.3132 52.0607 43.1865C53.5735 42.2248 55.5358 40.1886 56.5515 40.585C59.0566 41.5622 58.5893 44.2284 57.9953 46.5165Z" fill="black"/>
<path d="M183.523 103.678C183.499 103.767 183.493 103.861 183.453 103.937C182.574 105.374 182.956 108.277 180.157 107.546C177.65 106.894 176.255 103.337 177.183 101.042C177.288 100.793 177.383 100.475 177.588 100.348C179.101 99.3862 181.063 97.35 182.079 97.7464C184.584 98.7235 184.117 101.39 183.523 103.678Z" fill="black"/>
<path d="M53.9405 107.922C53.0085 110.903 48.527 112.867 45.9716 111.226C45.1189 110.682 44.219 109.428 44.2444 108.517C44.2739 107.626 45.2667 106.334 46.1447 105.967C47.8669 105.252 49.7795 104.857 51.6501 104.689C53.6455 104.516 54.5509 105.963 53.9405 107.922Z" fill="black"/>
<path d="M106.064 109.661C104.351 108.39 103.49 107.27 104.685 105.898C106.201 104.144 107.968 102.553 109.842 101.2C110.326 100.852 112.028 101.346 112.452 101.966C113.431 103.385 114.933 105.48 113.126 106.793C111.13 108.247 108.447 108.751 106.061 109.67L106.064 109.661Z" fill="black"/>
<path d="M77.23 43.7838C77.8486 41.617 80.4339 39.8815 82.2442 41.074C83.7154 42.0418 85.2583 44.3385 85.1383 45.9219C84.9772 48.0488 82.3495 48.0617 80.6893 47.4448C79.1242 46.8629 76.4174 46.8164 77.23 43.7838Z" fill="black"/>
<path d="M149.567 99.7131C151.575 100.203 153.995 103.911 153.16 105.752C152.807 106.537 151.177 107.295 150.262 107.165C147.854 106.816 145.384 103.544 145.753 101.741C146.103 100.009 147.586 99.23 149.574 99.7244L149.567 99.7131Z" fill="black"/>
<path d="M30.8003 84.9536C31.3418 82.8617 33.7873 80.7256 35.1408 81.4228C37.1125 82.4387 36.9562 84.5478 36.5642 86.2591C36.1842 87.9258 35.5427 90.0004 33.0748 89.559C31.2688 89.2376 30.2732 86.992 30.8003 84.9536Z" fill="black"/>
<path d="M72.1915 131.855C74.8989 132.61 76.1041 135.102 75.265 137.382C75.0069 138.097 73.9865 139.066 73.37 139.025C71.6073 138.897 69.2514 135.092 70.0099 133.575C70.4447 132.697 71.6858 132.217 72.1827 131.853L72.1915 131.855Z" fill="black"/>
<path d="M90.8538 24.1658C90.7916 26.9884 88.6754 28.7826 86.2596 28.5368C85.51 28.4602 84.3248 27.7029 84.2109 27.0988C83.8993 25.3519 87.0021 22.1109 88.6536 22.4769C89.6059 22.6843 90.3683 23.7776 90.8449 24.1634L90.8538 24.1658Z" fill="black"/>
</g>
<defs>
<clipPath id="clip0_4417_30305">
<rect width="176.124" height="137.522" fill="white" transform="translate(170.123 178.42) rotate(-165)"/>
</clipPath>
</defs>
</svg>
