<svg width="441" height="204" viewBox="0 0 441 204" fill="none" xmlns="http://www.w3.org/2000/svg">
<path d="M4.60425 53.1314C8.62707 26.7422 31.1197 7.69985 57.7777 6.31438C101.972 4.01751 169.928 0.980957 220.32 0.980957C270.817 0.980957 338.949 4.03007 383.137 6.32861C409.662 7.7084 432.09 26.573 436.216 52.8117C438.81 69.3037 441 87.6526 441 102.593C441 117.508 438.817 135.821 436.229 152.292C432.1 178.57 409.619 197.448 383.052 198.79C338.863 201.022 270.785 203.981 220.32 203.981C169.96 203.981 102.059 201.035 57.8626 198.804C31.1634 197.456 8.6171 178.402 4.59187 151.973C2.09586 135.585 0 117.412 0 102.593C0 87.7491 2.10279 69.5406 4.60425 53.1314Z" fill="#EF8400"/>
</svg>
