<svg width="35" height="33" viewBox="0 0 35 33" fill="none" xmlns="http://www.w3.org/2000/svg">
<path d="M12.9728 3.58311C3.13109 5.66644 -1.20018 22.981 11.4314 28.2546C12.8965 28.8662 14.5473 29.3032 16.1499 29.3457C29.1455 29.6864 36.8409 11.4826 24.7798 4.60185C23.4082 3.81911 21.8624 3.22109 20.2934 2.95312" stroke="#F1F192" stroke-width="4.95" stroke-miterlimit="1.5" stroke-linecap="round" stroke-linejoin="round"/>
<path d="M17.3921 16.6094C18.6333 17.3563 19.8124 18.1995 20.9501 19.0546C21.7789 19.678 23.1584 20.5534 22.985 20.5591C22.2816 20.3803 21.3104 20.0806 20.7899 19.9037C19.5401 19.479 18.3138 19.0313 17.1747 18.4184C15.5921 17.7691 15.829 16.2406 17.3921 16.6094Z" stroke="#F1F192" stroke-width="2.55838" stroke-miterlimit="1.5" stroke-linecap="round" stroke-linejoin="round"/>
<path d="M16.3379 8.64014C16.3745 11.4913 16.3837 13.8401 16.3909 16.6928" stroke="#F1F192" stroke-width="2.55838" stroke-miterlimit="1.5" stroke-linecap="round" stroke-linejoin="round"/>
</svg>
