<svg width="176" height="181" viewBox="0 0 176 181" fill="none" xmlns="http://www.w3.org/2000/svg">
<g clip-path="url(#clip0_5920_31724)">
<path d="M101.191 97.5128C101.176 97.0841 100.894 96.1542 101.197 95.5041C101.42 95.0149 102.408 94.6287 103.045 94.6345C104.471 94.6664 105.915 94.8848 107.307 95.2035C107.864 95.333 108.75 95.9597 108.725 96.3157C108.676 97.1809 108.4 98.2502 107.82 98.8302C106.9 99.7454 102.344 98.8991 101.186 97.507L101.191 97.5128Z" fill="black"/>
<path d="M156.312 96.3329C154.26 96.3912 152.554 96.6265 150.903 96.4242C149.672 96.28 147.857 96.979 147.362 95.0732C146.836 93.0588 146.04 90.9012 147.717 89.0494C148.191 88.5274 149.152 88.1541 149.853 88.2033C151.367 88.3073 152.93 88.5534 154.343 89.0851C155.521 89.53 157.269 90.3536 157.419 91.2282C157.657 92.6917 156.817 94.3374 156.323 96.3235L156.312 96.3329Z" fill="black"/>
<path d="M16.5747 60.819C15.9452 59.6274 15.8284 57.6329 16.4415 56.6712C17.2002 55.4657 18.304 55.8188 19.3665 56.0042C19.8275 56.0873 20.2718 56.232 20.7219 56.3719C23.4175 57.206 24.0929 59.6256 22.199 61.7406C22.0089 61.9536 21.6434 62.2334 21.4377 62.1812C19.8071 61.7701 18.1943 61.287 16.5747 60.819Z" fill="black"/>
<path d="M19.8495 87.2662C21.1795 86.1495 24.4114 85.7874 25.9292 86.588C27.2814 87.3034 27.3819 90.5673 25.711 91.7711C24.1711 92.8773 22.176 93.3685 20.3344 94.0121C20.0284 94.1186 19.3654 93.683 19.1007 93.3243C17.9349 91.7469 18.3749 88.5108 19.8495 87.2662Z" fill="black"/>
<path d="M105.666 65.4544C107.273 64.1492 113.056 64.4803 114.449 65.9487C115.517 67.0786 114.838 69.7529 113.195 70.3689C110.647 71.3215 108.146 71.1239 105.933 69.4257C104.508 68.3286 104.436 66.4599 105.676 65.4554L105.666 65.4544Z" fill="black"/>
<path d="M60.0201 42.096C57.861 43.2773 56.6721 43.0898 55.5445 41.2894C53.9178 38.6796 54.8166 36.0748 57.6931 34.9969C58.2414 34.7881 58.7599 34.5078 59.3191 34.3476C60.0308 34.1393 61.1764 33.6528 61.4087 33.9133C61.8958 34.4736 62.2387 35.5258 62.0575 36.2301C61.5357 38.2293 60.7163 40.1459 60.0201 42.096Z" fill="black"/>
<path d="M160.692 122.385C158.239 122.598 157.224 121.943 156.928 119.835C156.5 116.792 158.368 114.775 161.436 114.95C162.018 114.982 162.613 114.936 163.191 115.009C163.931 115.105 165.173 115.124 165.277 115.461C165.501 116.169 165.38 117.275 164.933 117.842C163.648 119.459 162.129 120.883 160.692 122.385V122.385Z" fill="black"/>
<path d="M117.779 87.8455C116.514 86.3584 116.51 84.1853 117.773 83.1145C119.173 81.931 122.593 82.2681 123.804 83.713C124.586 84.6456 124.292 88.5291 123.384 89.3294C122.569 90.0441 118.792 89.0491 117.773 87.8502L117.779 87.8455Z" fill="black"/>
<path d="M135.985 110.641C133.436 112.869 131.659 112.291 131.123 109.901C130.245 105.921 131.676 103.849 135.109 104.003C136.369 104.056 137.192 104.639 137.038 105.81C136.792 107.689 136.233 109.526 135.974 110.64L135.985 110.641Z" fill="black"/>
<path d="M83.5961 73.8822C85.9339 71.9699 90.0305 72.0319 90.7059 73.8186C91.181 75.0791 90.6492 77.0193 89.9578 78.3423C89.3844 79.4345 84.6515 78.1961 83.752 76.5925C83.2816 75.7597 83.6165 74.4696 83.6019 73.8775L83.5961 73.8822Z" fill="black"/>
<path d="M74.9354 122.998C74.0801 123.112 72.4714 123.748 72.0376 123.288C71.2623 122.445 70.8599 120.934 70.9268 119.738C70.9838 118.8 71.7844 117.493 72.6088 117.106C73.9429 116.475 75.5688 116.459 77.0726 116.187C76.9654 117.627 77.0128 119.103 76.6999 120.49C76.5218 121.269 75.7302 121.907 74.9354 122.998Z" fill="black"/>
<path d="M63.9652 67.9566C62.8814 66.6668 63.272 65.9254 64.4562 65.158C66.2378 64.0074 69.061 63.673 69.8822 65.1105C70.6892 66.5308 70.5716 68.4966 70.7087 70.2347C70.7192 70.3413 69.2081 70.8966 68.6734 70.6533C67.0393 69.9096 65.5236 68.8772 63.9652 67.9566Z" fill="black"/>
<path d="M137.974 64.1058C139.058 65.3955 138.668 66.1369 137.483 66.9043C135.702 68.0549 132.879 68.3893 132.057 66.9518C131.25 65.5316 131.368 63.5658 131.231 61.8276C131.22 61.7211 132.731 61.1657 133.266 61.4091C134.9 62.1527 136.416 63.1851 137.974 64.1058Z" fill="black"/>
<path d="M59.8168 96.5459C58.3681 94.7397 58.1579 92.5724 59.3354 91.6091C60.5703 90.599 63.1913 91.1777 64.4276 92.7359C65.4252 93.9906 65.177 96.7344 63.9796 97.7905C63.0027 98.6472 61.0259 98.0591 59.8168 96.5459Z" fill="black"/>
<path d="M97.2854 139.584C99.5854 139.841 101.267 141.217 101.12 142.737C100.961 144.324 98.7019 145.77 96.7209 145.54C95.1311 145.354 93.3649 143.242 93.4659 141.654C93.5537 140.355 95.3708 139.377 97.2901 139.59L97.2854 139.584Z" fill="black"/>
<path d="M78.4314 40.975C78.374 41.022 78.3259 41.0804 78.2648 41.1112C77.0153 41.6348 75.9056 43.7122 74.4141 41.9123C73.0776 40.302 73.8297 37.3186 75.5127 36.2583C75.698 36.145 75.9095 35.9816 76.1032 35.9958C77.5448 36.082 79.7842 35.6787 80.264 36.4175C81.4475 38.2393 79.8924 39.7606 78.4314 40.975Z" fill="black"/>
<path d="M133.896 137.622C133.838 137.669 133.79 137.727 133.729 137.758C132.479 138.282 131.37 140.359 129.878 138.559C128.542 136.949 129.294 133.966 130.977 132.905C131.162 132.792 131.374 132.629 131.567 132.643C133.009 132.729 135.248 132.326 135.728 133.064C136.912 134.886 135.357 136.408 133.896 137.622Z" fill="black"/>
<path d="M47.0108 79.1798C45.0036 80.6875 41.1478 79.8533 40.2421 77.5742C39.9383 76.816 39.9363 75.5713 40.3797 74.9881C40.8162 74.4201 42.072 74.0448 42.8191 74.2198C44.2821 74.5666 45.7205 75.2116 47.0247 75.9855C48.4129 76.8153 48.3282 78.1884 47.0108 79.1798Z" fill="black"/>
<path d="M80.3448 104.939C79.8181 103.299 79.7791 102.162 81.2045 101.83C83.0195 101.4 84.9226 101.195 86.784 101.196C87.2639 101.197 88.1477 102.324 88.1346 102.93C88.1115 104.319 88.1144 106.397 86.3157 106.402C84.3269 106.409 82.3325 105.471 80.3391 104.944L80.3448 104.939Z" fill="black"/>
<path d="M92.3134 48.2762C93.7337 47.1527 96.2405 47.2401 96.8679 48.8745C97.3784 50.2018 97.3134 52.4312 96.4931 53.4091C95.3913 54.7227 93.6637 53.4897 92.8649 52.3024C92.1121 51.1828 90.3605 49.8737 92.3134 48.2762Z" fill="black"/>
<path d="M113.506 118.99C114.592 120.259 114.441 123.825 113.031 124.633C112.432 124.979 111.009 124.705 110.471 124.187C109.057 122.822 108.971 119.517 110.058 118.513C111.098 117.547 112.434 117.739 113.505 119.001L113.506 118.99Z" fill="black"/>
<path d="M42.609 53.2417C43.9437 52.1307 46.5465 51.8903 47.1066 52.9852C47.9225 54.5804 46.8322 55.8845 45.7738 56.8175C44.7441 57.7269 43.352 58.7794 41.9418 57.3251C40.9092 56.262 41.3088 54.3244 42.609 53.2417Z" fill="black"/>
<path d="M47.757 103.439C49.1776 105.21 48.7993 107.409 47.1817 108.502C46.6778 108.847 45.5552 108.998 45.1704 108.68C44.0756 107.764 44.3146 104.165 45.5223 103.532C46.2184 103.163 47.2563 103.436 47.7524 103.433L47.757 103.439Z" fill="black"/>
<path d="M110.429 41.8947C109.066 43.7095 106.839 43.8821 105.371 42.5803C104.916 42.1761 104.494 41.1214 104.703 40.6729C105.317 39.3844 108.868 38.7326 109.778 39.7518C110.305 40.3372 110.293 41.4117 110.424 41.889L110.429 41.8947Z" fill="black"/>
</g>
<defs>
<clipPath id="clip0_5920_31724">
<rect width="142.309" height="110.518" fill="white" transform="translate(90.1055 180.125) rotate(-129.284)"/>
</clipPath>
</defs>
</svg>
