<svg width="243" height="64" viewBox="0 0 243 64" fill="none" xmlns="http://www.w3.org/2000/svg">
<path d="M53.735 26.1723C53.5243 25.0042 53.2511 23.8482 52.9167 22.7091C52.8692 22.5463 52.7899 22.3945 52.6833 22.2624C52.5768 22.1302 52.4451 22.0203 52.2958 21.9389C52.1465 21.8575 51.9825 21.8063 51.8133 21.7881C51.6441 21.7699 51.473 21.7852 51.3097 21.8331C51.1464 21.8805 50.9941 21.9596 50.8615 22.0657C50.7289 22.1718 50.6186 22.3029 50.5369 22.4515C50.4552 22.6001 50.4037 22.7633 50.3854 22.9317C50.367 23.1002 50.3822 23.2705 50.4301 23.4331C50.7383 24.4843 50.9897 25.5511 51.1831 26.629C51.2445 26.9657 51.4374 27.2643 51.7195 27.4596C52.0016 27.6548 52.35 27.7306 52.6882 27.6704C52.8557 27.6405 53.0157 27.5781 53.1589 27.4866C53.3022 27.3951 53.426 27.2764 53.5232 27.1373C53.6204 26.9982 53.6891 26.8414 53.7255 26.6758C53.7618 26.5102 53.765 26.3391 53.735 26.1723V26.1723ZM42.2105 49.501C42.0832 49.3886 41.9348 49.3023 41.7739 49.2471C41.6131 49.1918 41.4428 49.1687 41.273 49.179C41.1031 49.1892 40.937 49.2328 40.784 49.307C40.631 49.3813 40.4943 49.4848 40.3815 49.6118C37.7549 52.564 34.4481 54.9339 30.8195 56.461C30.6628 56.5267 30.5205 56.6226 30.401 56.7431C30.2815 56.8636 30.187 57.0064 30.1229 57.1633C30.0589 57.3203 30.0266 57.4882 30.0278 57.6576C30.029 57.827 30.0638 57.9945 30.1301 58.1505C30.1961 58.3068 30.2924 58.4486 30.4135 58.5678C30.5346 58.6869 30.6781 58.7811 30.8359 58.8449C30.9936 58.9087 31.1625 58.9408 31.3327 58.9395C31.503 58.9382 31.6713 58.9033 31.828 58.8371C35.8112 57.161 39.4405 54.5631 42.3217 51.3218C42.4347 51.195 42.5214 51.0474 42.5769 50.8872C42.6324 50.727 42.6557 50.5576 42.6454 50.3884C42.635 50.2193 42.5913 50.0539 42.5167 49.9016C42.4421 49.7493 42.338 49.6132 42.2105 49.501V49.501ZM48.843 25.3837C48.8418 25.3811 48.8418 25.3776 48.8418 25.375C47.6175 20.2842 45.0128 15.6043 41.3068 11.8413C39.3534 9.85655 37.125 8.16027 34.6893 6.80403C34.3901 6.64691 34.0412 6.61247 33.7169 6.70805C33.3926 6.80364 33.1186 7.02167 32.9535 7.31563C32.7884 7.60958 32.7453 7.95616 32.8332 8.28138C32.9212 8.6066 33.1333 8.88471 33.4243 9.05633C35.6447 10.2927 37.6761 11.8389 39.457 13.648C42.8333 17.0768 45.2072 21.3405 46.3218 25.9756V25.9795C46.694 27.5315 46.9242 29.114 47.0097 30.7075C47.0186 30.8766 47.0608 31.0424 47.134 31.1953C47.2072 31.3482 47.3099 31.4853 47.4364 31.5986C47.5628 31.712 47.7104 31.7994 47.8708 31.8559C48.0311 31.9124 48.2011 31.9369 48.371 31.9279C48.7141 31.9098 49.036 31.7566 49.2658 31.5022C49.4956 31.2478 49.6145 30.9129 49.5965 30.5711C49.5036 28.8228 49.2514 27.0866 48.843 25.3837" fill="#DD3E14"/>
<path d="M20.5352 7.7476C17.4997 7.7433 14.4903 8.30531 11.6627 9.40455C11.3426 9.52892 11.0852 9.77483 10.9472 10.0882C10.8092 10.4015 10.8018 10.7567 10.9266 11.0754C11.0515 11.3942 11.2985 11.6505 11.6131 11.788C11.9277 11.9255 12.2843 11.9328 12.6044 11.8084C15.1321 10.8264 17.822 10.3244 20.5352 10.3283C32.6022 10.3283 42.4203 20.1054 42.4203 32.1242C42.4203 40.7686 37.2737 48.6059 29.308 52.0924C29.1523 52.1603 29.0115 52.2582 28.8937 52.3804C28.776 52.5026 28.6836 52.6467 28.6218 52.8045C28.5601 52.9624 28.5303 53.1308 28.534 53.3001C28.5377 53.4694 28.5749 53.6363 28.6435 53.7913C28.7446 54.0209 28.9105 54.2161 29.1211 54.3533C29.3317 54.4905 29.5779 54.5637 29.8295 54.5639C30.0048 54.5639 30.1811 54.5268 30.351 54.4531C39.258 50.5565 45.0116 41.7921 45.0116 32.1238C45.0113 18.6833 34.0317 7.7476 20.5352 7.7476" fill="#DD3E14"/>
<path d="M29.4983 49.7596C36.2131 46.3616 40.3846 39.6036 40.3846 32.1238C40.3846 21.2232 31.4803 12.3554 20.5348 12.3554C15.5842 12.3554 10.8387 14.188 7.17333 17.5164C7.04756 17.6305 6.94561 17.7682 6.87328 17.9216C6.80096 18.0749 6.75968 18.241 6.75181 18.4102C6.74394 18.5795 6.76963 18.7486 6.82742 18.908C6.8852 19.0674 6.97395 19.2139 7.08858 19.3391C7.20311 19.4643 7.34131 19.5659 7.49529 19.638C7.64926 19.71 7.81598 19.7511 7.98592 19.759C8.15586 19.7668 8.32568 19.7412 8.48568 19.6836C8.64568 19.6261 8.79272 19.5377 8.91838 19.4235C12.1056 16.53 16.2314 14.9361 20.5345 14.9361C30.0504 14.9361 37.7929 22.6465 37.7929 32.1242C37.7929 38.6275 34.1659 44.5034 28.3238 47.4588C28.0642 47.5904 27.8567 47.8051 27.7347 48.0685C27.6127 48.3319 27.5833 48.6285 27.6513 48.9106C27.7192 49.1926 27.8806 49.4436 28.1093 49.6232C28.338 49.8028 28.6207 49.9005 28.912 49.9005C29.1157 49.8995 29.3165 49.8512 29.4983 49.7596" fill="#DD3E14"/>
<path d="M28.3003 45.1601C32.9005 42.4324 35.7576 37.4375 35.7576 32.1241C35.7576 23.7645 28.9288 16.9645 20.5352 16.9645C15.3533 16.9645 10.5733 19.5597 7.74769 23.9062C7.65274 24.0483 7.58708 24.2079 7.55451 24.3755C7.52194 24.5432 7.52311 24.7156 7.55796 24.8828C7.59281 25.0499 7.66065 25.2086 7.75753 25.3495C7.8544 25.4903 7.97841 25.6107 8.12233 25.7034C8.26626 25.7962 8.42726 25.8596 8.59598 25.89C8.7647 25.9203 8.9378 25.917 9.10523 25.8802C9.27265 25.8435 9.43108 25.7739 9.57133 25.6757C9.71157 25.5775 9.83084 25.4525 9.92221 25.308C12.2681 21.6989 16.2352 19.5444 20.5348 19.5444C27.4989 19.5444 33.1655 25.1874 33.1655 32.1241C33.1655 36.5328 30.7927 40.6789 26.9736 42.9437C26.8275 43.0305 26.7 43.145 26.5984 43.2809C26.4967 43.4167 26.423 43.5711 26.3813 43.7354C26.3396 43.8996 26.3309 44.0704 26.3555 44.238C26.3802 44.4056 26.4378 44.5668 26.525 44.7122C26.6397 44.9044 26.8027 45.0635 26.998 45.1739C27.1932 45.2842 27.414 45.342 27.6385 45.3415C27.8636 45.3415 28.0921 45.2827 28.3003 45.1601" fill="#DD3E14"/>
<path d="M28.5391 32.1242C28.5391 33.6872 28.0836 35.2017 27.22 36.5035C27.0912 36.6979 27.0176 36.9234 27.007 37.1561C26.9964 37.3888 27.0492 37.62 27.1599 37.8252C27.2705 38.0304 27.4349 38.202 27.6355 38.3217C27.8361 38.4415 28.0655 38.5049 28.2994 38.5053C28.514 38.5058 28.7252 38.453 28.9141 38.3518C29.1031 38.2506 29.2637 38.1041 29.3815 37.9256C30.524 36.205 31.1322 34.1873 31.13 32.1246C31.13 26.3059 26.3772 21.5722 20.5347 21.5722C16.5181 21.5722 12.7795 23.9001 11.0107 27.5024C10.8703 27.8084 10.8555 28.1569 10.9694 28.4737C11.0833 28.7904 11.3168 29.0504 11.6203 29.1982C11.9239 29.3459 12.2733 29.3699 12.5942 29.2648C12.9152 29.1597 13.1823 28.934 13.3386 28.6358C14.6764 25.9122 17.5005 24.1522 20.5351 24.1522C24.9489 24.1518 28.5391 27.7284 28.5391 32.1242Z" fill="#DD3E14"/>
<path d="M20.5347 26.1797C19.0555 26.1791 17.6289 26.7268 16.5327 27.716C16.2869 27.948 16.142 28.2666 16.1291 28.6037C16.1162 28.9407 16.2363 29.2694 16.4636 29.5194C16.691 29.7694 17.0076 29.9208 17.3456 29.9413C17.6837 29.9617 18.0164 29.8496 18.2724 29.6288C18.892 29.0694 19.6984 28.7596 20.5347 28.7597C22.3971 28.7597 23.9121 30.2685 23.9121 32.1236C23.9121 32.2931 23.9457 32.4609 24.0108 32.6174C24.076 32.7739 24.1714 32.9161 24.2918 33.0359C24.4122 33.1557 24.5551 33.2506 24.7123 33.3154C24.8695 33.3801 25.038 33.4134 25.2082 33.4132C25.3782 33.4132 25.5466 33.3798 25.7037 33.315C25.8607 33.2502 26.0035 33.1552 26.1237 33.0355C26.2439 32.9157 26.3392 32.7735 26.4043 32.6171C26.4693 32.4606 26.5027 32.2929 26.5027 32.1236C26.5027 28.8468 23.8255 26.1797 20.5347 26.1797" fill="#DD3E14"/>
<path d="M65.1285 34.0196C66.3513 35.5734 67.861 36.8703 69.9691 36.8703C71.4002 36.8703 72.4148 36.0416 72.4148 34.5886C72.4148 32.9568 71.2176 32.3596 69.1877 31.427C66.4035 30.1581 64.79 28.6027 64.79 26.1407C64.79 23.0052 67.392 21.1653 70.2544 21.1653C72.5969 21.1653 74.0022 21.8389 74.7821 22.5378L74.9129 26.3993H74.5747C73.3258 25.0535 71.9205 24.1714 70.333 24.1714C69.0056 24.1714 68.0945 24.7404 68.0945 25.9853C68.0945 27.1516 69.2134 27.7996 71.7894 28.9922C74.3926 30.1848 76.1096 31.6355 76.1096 34.5122C76.1096 37.7768 73.7158 40.0326 70.1505 40.0326C67.6788 40.0326 65.7781 39.2031 64.6596 38.2694L64.8674 34.0203H65.1285V34.0196ZM91.3079 33.2673C91.3079 37.5691 88.4454 40.0322 84.9327 40.0322C83.1363 40.0322 81.7838 39.514 80.8467 38.452V45.5262H77.4122V26.8671H80.8467V28.2147C81.7578 27.2039 83.0845 26.5039 84.9845 26.5039C88.6272 26.5039 91.3079 29.3023 91.3079 33.2673ZM80.6903 33.2673C80.6903 35.3409 82.1477 36.8703 84.2816 36.8703C86.4159 36.8703 87.873 35.3409 87.873 33.2673C87.873 31.1945 86.4159 29.6654 84.2816 29.6654C82.1481 29.6654 80.6903 31.1945 80.6903 33.2673ZM104.554 35.4455L104.424 38.6845C102.759 39.643 101.041 40.0322 99.3242 40.0322C95.4203 40.0322 92.3497 37.0524 92.3497 33.1646C92.3497 29.4069 95.2642 26.5039 98.9848 26.5039C103.357 26.5039 105.491 29.7178 105.491 33.1646V34.175H95.6281C96.0189 36.1184 97.5546 37.1288 99.5577 37.1288C101.119 37.1288 102.655 36.766 104.19 35.4455H104.554V35.4455ZM95.7064 31.8425H102.056C101.874 30.2608 100.625 29.1469 98.9852 29.1469C97.4756 29.1469 96.1753 30.1057 95.7064 31.8425ZM106.532 33.2673C106.532 29.536 109.395 26.5039 112.986 26.5039C114.678 26.5039 116.109 27.1252 116.837 28.0333V26.8671H120.272V39.669H116.837V38.5028C115.9 39.3845 114.833 40.0322 112.778 40.0322C109.707 40.0322 106.532 37.4919 106.532 33.2673V33.2673ZM116.993 33.2673C116.993 31.2976 115.666 29.6654 113.48 29.6654C111.294 29.6654 109.967 31.2976 109.967 33.2673C109.967 35.2381 111.293 36.8703 113.48 36.8703C115.666 36.8703 116.993 35.2381 116.993 33.2673ZM121.938 21.0095H125.373V32.127L129.848 26.8667H133.934L128.886 32.801L134.298 39.669H129.9L125.373 33.7347V39.669H121.938V21.0095ZM149.679 32.4642C149.679 37.1028 146.998 40.0322 142.366 40.0322C137.734 40.0322 135.054 37.1028 135.054 32.4642V21.5281H138.749V32.7747C138.749 35.9889 140.519 36.9226 142.367 36.9226C144.214 36.9226 145.985 35.9889 145.985 32.7747V21.5281H149.68V32.4642H149.679ZM164.927 33.2673C164.927 37.5691 162.065 40.0322 158.552 40.0322C156.757 40.0322 155.403 39.514 154.467 38.452V45.5262H151.031V26.8671H154.467V28.2147C155.377 27.2039 156.706 26.5039 158.604 26.5039C162.247 26.5039 164.927 29.3023 164.927 33.2673ZM154.311 33.2673C154.311 35.3409 155.768 36.8703 157.902 36.8703C160.037 36.8703 161.493 35.3409 161.493 33.2673C161.493 31.1945 160.037 29.6654 157.902 29.6654C155.768 29.6654 154.311 31.1945 154.311 33.2673ZM173.801 21.5266L181.869 39.6686H178.279L176.925 36.559H169.587L168.234 39.6686H164.642L172.709 21.5266H173.801V21.5266ZM170.888 33.4487H175.625L173.256 27.955L170.888 33.4487ZM181.845 26.8671H183.276V25.4667C183.276 22.356 185.592 21.1649 187.543 21.1649C188.531 21.1649 189.131 21.3463 189.808 21.7095L189.938 24.7156H189.626C189.157 24.2493 188.481 24.0416 188.013 24.0416C187.231 24.0416 186.711 24.5342 186.711 25.414V26.8667H188.793V29.7685H186.711V39.6686H183.276V29.7685H181.845V26.8671V26.8671ZM198.863 30.7026C198.343 30.0809 197.484 29.6658 196.6 29.6658C195.116 29.6658 193.738 30.5735 193.738 32.6979V39.669H190.302V26.8671H193.738V28.1364C194.544 27.1012 195.792 26.5039 197.042 26.5039C198.031 26.5039 198.578 26.7116 199.125 27.1012L199.358 30.7026H198.863ZM202.403 20.8018C203.6 20.8018 204.589 21.7866 204.589 22.9788C204.589 24.1451 203.6 25.1036 202.403 25.1036C201.232 25.1036 200.268 24.1451 200.268 22.9788C200.268 21.787 201.232 20.8018 202.403 20.8018ZM200.685 26.8671H204.121V39.669H200.685V26.8671V26.8671ZM216.013 39.0214C215.05 39.7213 213.853 40.0322 212.266 40.0322C208.622 40.0322 205.291 37.5427 205.291 33.2673C205.291 28.9914 208.622 26.5039 212.266 26.5039C213.854 26.5039 215.051 26.8147 216.013 27.5147L216.143 31.1169H215.778C214.607 30.1061 213.542 29.6658 212.266 29.6658C210.105 29.6658 208.726 31.1933 208.726 33.2677C208.726 35.3416 210.106 36.871 212.266 36.871C213.542 36.871 214.607 36.4296 215.778 35.4199H216.143L216.013 39.0214V39.0214ZM217.34 33.2673C217.34 29.536 220.202 26.5039 223.794 26.5039C225.484 26.5039 226.916 27.1252 227.646 28.0333V26.8671H231.079V39.669H227.646V38.5028C226.708 39.3845 225.642 40.0322 223.585 40.0322C220.515 40.0322 217.34 37.4919 217.34 33.2673V33.2673ZM227.801 33.2673C227.801 31.2976 226.474 29.6654 224.288 29.6654C222.102 29.6654 220.776 31.2976 220.776 33.2673C220.776 35.2381 222.102 36.8703 224.288 36.8703C226.474 36.8703 227.801 35.2381 227.801 33.2673ZM234.671 36.0412C235.21 36.0416 235.726 36.2548 236.106 36.6338C236.487 37.0129 236.701 37.5268 236.701 38.0629C236.701 39.1504 235.791 40.0322 234.671 40.0322C234.412 40.0324 234.154 39.9816 233.914 39.8827C233.674 39.7838 233.456 39.6388 233.273 39.4558C233.089 39.2729 232.943 39.0558 232.844 38.8167C232.744 38.5777 232.693 38.3215 232.694 38.0629C232.694 36.9474 233.577 36.0412 234.671 36.0412Z" fill="black"/>
</svg>
