<svg width="26" height="85" viewBox="0 0 26 85" fill="none" xmlns="http://www.w3.org/2000/svg">
<path d="M14.5941 55.1996C14.4758 54.6045 15.0601 53.7764 13.8233 53.4251C13.3609 54.7551 13.1565 55.9991 13.8807 57.2538L13.9273 57.2359C13.8771 59.333 13.7337 61.4338 13.809 63.5274C13.8735 65.413 14.1137 67.2987 14.4041 69.17C14.5439 70.0627 15.3613 70.7545 15.329 71.787C15.2967 72.7872 15.6337 73.8017 15.8631 75.103C16.3077 74.6621 16.6769 74.3179 17.0211 73.9559C19.0107 71.8695 21.0003 69.7795 22.9792 67.6859C23.6531 66.9725 24.4633 66.8578 25.5101 67.2162L25.6822 70.1774C22.0543 73.7981 18.3367 77.4296 15.666 81.8032C15.4186 82.2083 15.3756 82.7138 15.1498 83.4666C14.4507 83.7964 13.4218 84.284 12.1707 84.8755C10.9196 84.7249 9.70787 84.2302 9.03032 82.8823C8.35994 81.5523 7.59636 80.2617 6.87579 78.9532L7.26654 79.1468H7.43504L7.2307 79.1755C7.12315 79.0966 7.0156 79.0213 6.90805 78.9425C6.35598 78.014 5.80749 77.0855 5.25541 76.157L5.20522 76.1713V75.4472L5.26258 75.4866C5.26975 73.7766 3.77126 72.841 2.7639 71.5934L2.64202 72.1885L2.66353 72.1813C2.31938 71.6544 1.97164 71.1274 1.62749 70.5968L1.6956 70.5108L1.66334 70.6291C1.22239 70.077 0.781451 69.5249 0.189941 68.7793C1.58447 69.0087 1.93579 70.5717 3.3339 70.2025L3.2873 70.2311L3.15466 70.8406C4.50258 70.7151 5.44541 71.2206 5.98315 72.357C6.03692 72.4717 6.48862 72.4287 6.75749 72.461L6.67504 72.5793L6.70371 72.4896L7.06938 71.7189L7.45296 73.5185L7.71466 73.3285C8.00145 73.6476 8.28824 73.9666 8.57504 74.2893L8.66466 74.1961C9.09485 74.5295 9.52145 74.8664 9.95164 75.1998L9.72579 75.3683L9.91579 75.164C10.0448 74.7696 10.2743 74.3753 10.2886 73.9774C10.432 69.4245 10.5288 64.8717 10.6686 60.3153C10.6865 59.6915 10.8586 59.0678 10.9733 58.3472C10.6543 55.9955 10.2707 53.5327 9.99466 51.0591C9.71145 48.5245 9.49994 45.9828 9.33504 43.4376C9.28843 42.7134 9.52862 41.9785 9.62183 41.2472C9.65768 40.9819 9.67919 40.7094 9.66485 40.4442C9.50711 37.9276 9.33504 35.411 9.17013 32.8944C9.17013 32.8406 9.18805 32.7868 9.19881 32.733L9.16296 32.7438L9.15579 32.0304L9.20598 32.0447C9.19164 30.2415 9.16654 28.4383 9.18088 26.6351C9.18088 26.463 9.43541 26.2874 9.56805 26.1153C9.59315 26.2049 9.61466 26.291 9.59315 26.2049C9.6756 26.2695 9.60032 26.2121 9.52503 26.1511L8.9873 25.3338C10.0413 24.4412 9.6039 23.3657 9.49277 22.3296C9.63975 21.8278 9.89787 21.3259 9.90862 20.8204C9.95522 18.6623 9.93013 16.5042 9.93013 14.364C9.15221 13.8047 9.37805 13.8047 9.68277 12.9157C10.0413 11.8761 9.91938 10.7002 10.0413 9.58889C10.1237 8.84323 9.50711 8.07606 10.4535 7.31247C10.7833 7.04719 9.87636 5.85342 11.0988 5.29417C10.6184 5.03964 10.4248 4.93568 10.2277 4.83172L10.1918 4.86757C10.5145 4.38719 10.8335 3.90681 11.1705 3.40134L11.7764 0.332657L12.142 0.296814C12.2567 1.05682 12.3715 1.81681 12.4898 2.57681L12.4682 2.5302C12.332 3.21134 12.0667 3.89606 12.0775 4.57719C12.1277 7.79285 12.2388 11.0085 12.3607 14.2242C12.375 14.6149 12.5686 14.9985 13.0203 15.3713L13.2533 14.5181C13.5294 16.0668 13.9452 17.7195 14.0886 19.3936C14.2141 20.8742 14.0026 22.3798 13.999 23.8712C13.9918 27.327 13.8305 30.79 14.085 34.2315C14.3826 38.261 14.7231 42.2832 14.7554 46.3234C14.7662 47.4849 14.7554 48.6464 14.7554 49.9119C15.6731 50.593 15.1677 51.5287 14.9239 52.5217L15.8596 53.5793C14.8271 54.2461 16.3722 55.7266 14.845 56.3827L14.8199 56.4257L14.9418 55.2749L14.9884 55.2391L14.9096 55.3108L14.569 55.1459L14.6048 55.1889L14.5941 55.1996ZM14.336 72.0595L14.7769 72.0702L14.7769 70.3315H14.483L14.3324 72.0595H14.336ZM12.9665 60.1289C12.8984 59.9747 12.9343 60.0536 12.9665 60.1289C12.963 60.0428 12.9594 59.9568 12.9665 60.1289ZM12.7084 57.5442C12.5471 57.6481 12.4754 57.6947 12.4037 57.7449L12.6367 57.9851L12.7084 57.5478V57.5442Z" fill="#F9B500"/>
</svg>
