<svg width="180" height="185" viewBox="0 0 180 185" fill="none" xmlns="http://www.w3.org/2000/svg">
<g clip-path="url(#clip0_4671_32605)">
<path d="M103.56 99.798C103.545 99.3592 103.257 98.4075 103.566 97.7423C103.795 97.2416 104.806 96.8463 105.458 96.8522C106.917 96.8849 108.395 97.1085 109.82 97.4346C110.39 97.5671 111.297 98.2085 111.271 98.5729C111.22 99.4583 110.938 100.553 110.344 101.146C109.403 102.083 104.741 101.217 103.555 99.7921L103.56 99.798Z" fill="black"/>
<path d="M159.973 98.5904C157.873 98.6501 156.127 98.8909 154.437 98.6839C153.178 98.5363 151.32 99.2517 150.814 97.3012C150.275 95.2396 149.46 93.0315 151.177 91.1363C151.662 90.602 152.645 90.22 153.363 90.2703C154.912 90.3768 156.512 90.6286 157.957 91.1728C159.164 91.6282 160.952 92.471 161.106 93.3661C161.35 94.8639 160.49 96.5482 159.985 98.5808L159.973 98.5904Z" fill="black"/>
<path d="M16.9609 62.244C16.3166 61.0245 16.1971 58.9833 16.8246 57.999C17.6011 56.7653 18.7307 57.1266 19.8181 57.3164C20.2899 57.4014 20.7447 57.5495 21.2053 57.6927C23.9641 58.5464 24.6553 61.0227 22.717 63.1872C22.5225 63.4052 22.1484 63.6916 21.9378 63.6381C20.2691 63.2174 18.6185 62.723 16.9609 62.244Z" fill="black"/>
<path d="M20.3125 89.3117C21.6736 88.1688 24.9813 87.7983 26.5347 88.6176C27.9186 89.3498 28.0214 92.6901 26.3113 93.9222C24.7354 95.0544 22.6935 95.557 20.8088 96.2157C20.4956 96.3247 19.817 95.8789 19.5461 95.5118C18.3531 93.8974 18.8033 90.5855 20.3125 89.3117Z" fill="black"/>
<path d="M108.14 66.9884C109.785 65.6527 115.704 65.9915 117.129 67.4943C118.222 68.6507 117.527 71.3877 115.845 72.0181C113.238 72.993 110.678 72.7908 108.413 71.0528C106.955 69.93 106.882 68.0175 108.15 66.9895L108.14 66.9884Z" fill="black"/>
<path d="M61.4244 43.0827C59.2147 44.2917 57.998 44.0998 56.8439 42.2572C55.1791 39.5863 56.099 36.9204 59.0429 35.8173C59.604 35.6036 60.1346 35.3167 60.707 35.1527C61.4353 34.9395 62.6078 34.4416 62.8455 34.7083C63.344 35.2817 63.695 36.3585 63.5095 37.0793C62.9755 39.1253 62.1369 41.0869 61.4244 43.0827Z" fill="black"/>
<path d="M164.455 125.253C161.945 125.471 160.906 124.801 160.604 122.644C160.165 119.529 162.077 117.464 165.217 117.644C165.813 117.676 166.422 117.629 167.013 117.705C167.77 117.802 169.042 117.821 169.147 118.167C169.377 118.891 169.253 120.023 168.796 120.603C167.48 122.258 165.926 123.716 164.455 125.253V125.253Z" fill="black"/>
<path d="M120.536 89.9042C119.242 88.3823 119.238 86.1582 120.53 85.0624C121.963 83.8511 125.463 84.1961 126.702 85.6748C127.503 86.6293 127.202 90.6038 126.273 91.4229C125.438 92.1544 121.574 91.1361 120.531 89.9091L120.536 89.9042Z" fill="black"/>
<path d="M139.169 113.234C136.561 115.515 134.742 114.922 134.193 112.477C133.295 108.404 134.759 106.283 138.273 106.441C139.563 106.494 140.405 107.091 140.247 108.29C139.995 110.213 139.424 112.094 139.159 113.233L139.169 113.234Z" fill="black"/>
<path d="M85.553 75.6138C87.9455 73.6567 92.1381 73.7202 92.8294 75.5488C93.3156 76.8388 92.7714 78.8244 92.0638 80.1784C91.4769 81.2963 86.6331 80.0288 85.7125 78.3877C85.2311 77.5354 85.5738 76.215 85.5589 75.609L85.553 75.6138Z" fill="black"/>
<path d="M76.6892 125.88C75.8139 125.998 74.1675 126.648 73.7235 126.177C72.93 125.315 72.5182 123.768 72.5867 122.544C72.645 121.584 73.4643 120.246 74.3081 119.851C75.6735 119.205 77.3375 119.188 78.8765 118.91C78.7668 120.383 78.8153 121.894 78.4951 123.314C78.3128 124.11 77.5026 124.763 76.6892 125.88Z" fill="black"/>
<path d="M65.4619 69.5496C64.3527 68.2296 64.7525 67.4709 65.9645 66.6855C67.7879 65.5079 70.6772 65.1657 71.5176 66.6368C72.3436 68.0904 72.2232 70.1022 72.3635 71.8812C72.3742 71.9902 70.8277 72.5586 70.2805 72.3095C68.6081 71.5484 67.0569 70.4918 65.4619 69.5496Z" fill="black"/>
<path d="M141.205 65.6083C142.315 66.9283 141.915 67.6871 140.703 68.4725C138.879 69.65 135.99 69.9923 135.15 68.5211C134.324 67.0675 134.444 65.0557 134.304 63.2768C134.293 63.1678 135.84 62.5994 136.387 62.8484C138.059 63.6095 139.61 64.6661 141.205 65.6083Z" fill="black"/>
<path d="M61.2163 98.8082C59.7336 96.9597 59.5185 94.7416 60.7236 93.7558C61.9875 92.7219 64.6699 93.3143 65.9351 94.9089C66.9561 96.1931 66.7021 99.0011 65.4767 100.082C64.4768 100.959 62.4537 100.357 61.2163 98.8082Z" fill="black"/>
<path d="M99.5629 142.855C101.917 143.118 103.638 144.526 103.487 146.082C103.325 147.706 101.013 149.186 98.9852 148.95C97.3581 148.76 95.5506 146.599 95.6539 144.974C95.7438 143.644 97.6034 142.643 99.5677 142.861L99.5629 142.855Z" fill="black"/>
<path d="M80.267 41.9355C80.2082 41.9836 80.1591 42.0435 80.0965 42.075C78.8178 42.6108 77.682 44.7369 76.1555 42.8948C74.7877 41.2467 75.5575 38.1935 77.2799 37.1084C77.4696 36.9924 77.686 36.8252 77.8843 36.8396C79.3596 36.9279 81.6515 36.5151 82.1425 37.2713C83.3538 39.1358 81.7623 40.6928 80.267 41.9355Z" fill="black"/>
<path d="M137.031 140.847C136.972 140.895 136.923 140.955 136.861 140.987C135.582 141.522 134.446 143.649 132.92 141.806C131.552 140.158 132.322 137.105 134.044 136.02C134.234 135.904 134.45 135.737 134.648 135.751C136.124 135.84 138.416 135.427 138.907 136.183C140.118 138.047 138.526 139.604 137.031 140.847Z" fill="black"/>
<path d="M48.11 81.0355C46.0558 82.5786 42.1096 81.7248 41.1827 79.3922C40.8718 78.6163 40.8698 77.3424 41.3235 76.7456C41.7703 76.1642 43.0555 75.7801 43.8201 75.9592C45.3174 76.3142 46.7895 76.9743 48.1242 77.7663C49.545 78.6156 49.4583 80.0209 48.11 81.0355Z" fill="black"/>
<path d="M82.2255 107.399C81.6865 105.72 81.6465 104.556 83.1054 104.216C84.9629 103.776 86.9106 103.566 88.8156 103.568C89.3067 103.569 90.2113 104.722 90.1979 105.342C90.1742 106.764 90.1772 108.891 88.3363 108.896C86.3009 108.902 84.2598 107.943 82.2196 107.404L82.2255 107.399Z" fill="black"/>
<path d="M94.4743 49.4079C95.9279 48.2581 98.4933 48.3476 99.1355 50.0202C99.6579 51.3786 99.5914 53.6603 98.7519 54.6611C97.6242 56.0055 95.8562 54.7437 95.0387 53.5284C94.2683 52.3827 92.4756 51.0429 94.4743 49.4079Z" fill="black"/>
<path d="M116.164 121.779C117.276 123.078 117.121 126.727 115.678 127.554C115.065 127.908 113.609 127.628 113.057 127.097C111.611 125.7 111.523 122.318 112.635 121.291C113.7 120.302 115.067 120.498 116.163 121.79L116.164 121.779Z" fill="black"/>
<path d="M43.6054 54.4897C44.9714 53.3527 47.6352 53.1066 48.2084 54.2272C49.0435 55.8597 47.9276 57.1945 46.8444 58.1493C45.7905 59.08 44.3658 60.1572 42.9226 58.6688C41.8658 57.5808 42.2748 55.5978 43.6054 54.4897Z" fill="black"/>
<path d="M48.874 105.863C50.3278 107.676 49.9407 109.926 48.2851 111.045C47.7694 111.398 46.6205 111.553 46.2267 111.227C45.1063 110.289 45.3508 106.606 46.5869 105.958C47.2992 105.581 48.3615 105.86 48.8692 105.857L48.874 105.863Z" fill="black"/>
<path d="M113.014 42.8765C111.619 44.7338 109.34 44.9105 107.838 43.5782C107.373 43.1645 106.941 42.0851 107.154 41.6261C107.783 40.3073 111.417 39.6403 112.349 40.6834C112.888 41.2825 112.875 42.3822 113.01 42.8706L113.014 42.8765Z" fill="black"/>
</g>
<defs>
<clipPath id="clip0_4671_32605">
<rect width="145.644" height="113.108" fill="white" transform="translate(92.2148 184.347) rotate(-129.284)"/>
</clipPath>
</defs>
</svg>
