<svg width="192" height="149" viewBox="0 0 192 149" fill="none" xmlns="http://www.w3.org/2000/svg">
<g clip-path="url(#clip0_5920_31115)">
<path d="M76.7107 82.05C77.1707 82.4 78.3807 82.9 78.8007 83.77C79.1207 84.42 78.6807 85.78 78.1307 86.44C76.8807 87.9 75.4207 89.22 73.9007 90.4C73.2907 90.87 71.8807 91.26 71.5307 90.93C70.6707 90.14 69.7907 88.94 69.6807 87.84C69.5107 86.1 74.2807 82.07 76.7207 82.05H76.7107Z" fill="#F9B500"/>
<path d="M30.9106 140.55C32.6006 138.36 33.8106 136.38 35.4306 134.83C36.6306 133.67 37.4506 131.18 39.8606 132.29C42.4106 133.46 45.3406 134.47 45.8406 137.8C45.9806 138.74 45.5506 140.06 44.9006 140.75C43.5006 142.24 41.9106 143.66 40.1506 144.68C38.6806 145.53 36.3306 146.65 35.2906 146.06C33.5606 145.06 32.5606 142.78 30.9106 140.57V140.55Z" fill="#F9B500"/>
<path d="M187.18 25.1001C188.96 25.4601 191.14 27.0401 191.62 28.5001C192.23 30.3201 190.921 31.1701 189.821 32.1201C189.341 32.5301 188.81 32.8701 188.28 33.2201C185.11 35.3201 182.01 33.9601 181.42 30.1801C181.36 29.8001 181.38 29.1801 181.61 29.0101C183.43 27.6601 185.31 26.3901 187.18 25.1001Z" fill="#F9B500"/>
<path d="M156.801 5.95C156.831 8.29 154.451 11.97 152.321 12.87C150.421 13.67 146.931 10.99 147.101 8.22C147.261 5.67 148.451 3.17 149.351 0.699996C149.501 0.289996 150.521 -0.0300036 151.121 -3.58233e-06C153.761 0.129996 156.761 3.35 156.801 5.95Z" fill="#F9B500"/>
<path d="M106.331 114.07C106.321 116.86 101.041 122.61 98.3205 122.81C96.2305 122.96 94.0205 119.97 94.7805 117.73C95.9605 114.26 98.3005 111.82 101.961 110.96C104.321 110.41 106.331 111.93 106.321 114.08L106.331 114.07Z" fill="#F9B500"/>
<path d="M169.641 86.3899C170.251 83.1299 171.461 82.0499 174.301 82.4099C178.411 82.9399 180.361 86.0999 179.031 90.0199C178.781 90.7699 178.631 91.5499 178.321 92.2699C177.931 93.1899 177.461 94.7999 176.991 94.8199C175.991 94.8499 174.601 94.3099 174.021 93.5199C172.381 91.2699 171.081 88.7799 169.641 86.3899Z" fill="#F9B500"/>
<path d="M0.000488281 122.89C1.87049 120.15 3.42049 119.65 5.87049 121.14C9.41049 123.29 9.92049 126.96 7.12049 130.01C6.59049 130.59 6.13049 131.25 5.56049 131.79C4.83049 132.48 3.75049 133.76 3.31049 133.58C2.38049 133.21 1.33049 132.14 1.12049 131.19C0.530488 128.47 0.340488 125.67 0.000488281 122.89H0.000488281Z" fill="#F9B500"/>
<path d="M72.6405 107.6C75.2705 107.55 77.5405 109.4 77.5805 111.63C77.6205 114.1 74.3505 117.38 71.8105 117.41C70.1705 117.43 66.3705 113.81 66.3105 112.18C66.2605 110.72 70.5205 107.63 72.6405 107.59V107.6Z" fill="#F9B500"/>
<path d="M33.3307 107.14C33.1807 102.58 35.3007 101.22 38.2507 102.7C43.1507 105.18 44.0907 108.44 41.0007 111.89C39.8707 113.16 38.5607 113.52 37.4707 112.36C35.7207 110.5 34.2807 108.35 33.3407 107.13L33.3307 107.14Z" fill="#F9B500"/>
<path d="M116.37 83.8601C116.37 87.9301 112.81 92.1501 110.37 91.3301C108.65 90.7501 107.08 88.5401 106.29 86.6901C105.64 85.1601 110.97 81.2801 113.41 81.7101C114.68 81.9301 115.74 83.3801 116.37 83.8701V83.8601Z" fill="#F9B500"/>
<path d="M72.5303 32.92C73.1403 31.93 73.8503 29.71 74.7003 29.65C76.2403 29.56 78.1603 30.43 79.3503 31.52C80.2803 32.38 80.9603 34.33 80.6603 35.52C80.1803 37.45 78.8103 39.16 77.8103 40.96C76.4003 39.62 74.8203 38.41 73.6403 36.9C72.9803 36.05 72.9903 34.68 72.5303 32.92Z" fill="#F9B500"/>
<path d="M139.301 68.4401C141.571 68.4101 142.011 69.4501 141.801 71.3401C141.481 74.1801 139.421 77.4101 137.221 77.0401C135.051 76.6701 133.101 74.8701 131.171 73.5301C131.051 73.4501 131.761 71.4001 132.471 71.0501C134.641 69.9801 137.011 69.2801 139.301 68.4401Z" fill="#F9B500"/>
<path d="M80.1703 148.92C77.9003 148.95 77.4603 147.91 77.6703 146.02C77.9903 143.18 80.0503 139.95 82.2503 140.32C84.4203 140.69 86.3703 142.49 88.3003 143.83C88.4203 143.91 87.7103 145.96 87.0003 146.31C84.8303 147.38 82.4603 148.08 80.1703 148.92Z" fill="#F9B500"/>
<path d="M113.021 39.7199C116.141 39.7499 118.581 41.3799 118.581 43.4299C118.581 45.5799 115.741 47.8199 113.061 47.7799C110.901 47.7499 108.251 45.1499 108.171 42.9999C108.111 41.2499 110.411 39.6899 113.021 39.7199Z" fill="#F9B500"/>
<path d="M36.1606 42.08C33.9306 44.26 31.0606 44.84 29.6006 43.39C28.0806 41.87 28.5006 38.28 30.4306 36.41C31.9806 34.91 35.6906 34.87 37.2606 36.33C38.5406 37.53 38.0106 40.26 36.1506 42.08H36.1606Z" fill="#F9B500"/>
<path d="M155.101 106.55C155.101 106.45 155.081 106.35 155.101 106.26C155.621 104.51 154.401 101.58 157.551 101.56C160.371 101.54 162.841 104.87 162.511 107.53C162.471 107.82 162.461 108.18 162.281 108.37C160.961 109.8 159.471 112.48 158.291 112.35C155.381 112.03 155.121 109.11 155.101 106.55Z" fill="#F9B500"/>
<path d="M6.97031 81.94C6.97031 81.84 6.95031 81.74 6.97031 81.65C7.49031 79.9 6.27031 76.97 9.42032 76.95C12.2403 76.93 14.7103 80.26 14.3803 82.92C14.3403 83.21 14.3303 83.57 14.1503 83.76C12.8303 85.19 11.3403 87.87 10.1603 87.74C7.25031 87.42 6.99031 84.5 6.97031 81.94Z" fill="#F9B500"/>
<path d="M142.06 41.1799C142.2 37.7999 146.36 34.4899 149.51 35.4899C150.56 35.8199 151.86 36.8799 152.09 37.8399C152.31 38.7799 151.63 40.4099 150.81 41.0399C149.2 42.2699 147.3 43.2199 145.38 43.9199C143.33 44.6599 141.97 43.3999 142.06 41.1799Z" fill="#F9B500"/>
<path d="M86.7506 53.97C88.9106 54.82 90.1306 55.75 89.2606 57.52C88.1606 59.78 86.7506 61.94 85.1606 63.88C84.7506 64.38 82.8206 64.34 82.2006 63.81C80.7706 62.6 78.6006 60.83 80.1306 58.95C81.8206 56.87 84.5006 55.59 86.7506 53.96V53.97Z" fill="#F9B500"/>
<path d="M135.641 114.8C135.601 117.24 133.371 119.78 131.131 119.04C129.311 118.44 127.041 116.47 126.721 114.78C126.291 112.51 129.051 111.76 130.971 111.94C132.781 112.11 135.641 111.4 135.641 114.8Z" fill="#F9B500"/>
<path d="M43.8005 76.57C41.5505 76.62 37.9605 73.42 38.3205 71.26C38.4705 70.34 39.9705 69.09 40.9705 68.97C43.6005 68.66 47.1205 71.39 47.2405 73.38C47.3605 75.29 46.0205 76.52 43.7905 76.56L43.8005 76.57Z" fill="#F9B500"/>
<path d="M172.87 58.7201C172.89 61.0601 170.92 63.9801 169.3 63.6301C166.94 63.1201 166.51 60.8701 166.44 58.9701C166.37 57.1201 166.46 54.7701 169.18 54.5401C171.17 54.3701 172.85 56.4401 172.87 58.7201Z" fill="#F9B500"/>
<path d="M116.12 21.26C113.06 21.23 111.09 18.96 111.33 16.34C111.4 15.52 112.2 14.22 112.86 14.09C114.75 13.73 118.3 17.05 117.93 18.85C117.72 19.89 116.55 20.74 116.13 21.26H116.12Z" fill="#F9B500"/>
<path d="M126.841 139.14C126.111 136.17 127.831 133.7 130.441 133.28C131.251 133.15 132.711 133.61 133.001 134.21C133.821 135.95 131.471 140.21 129.631 140.29C128.571 140.34 127.461 139.41 126.851 139.14H126.841Z" fill="#F9B500"/>
</g>
<defs>
<clipPath id="clip0_5920_31115">
<rect width="191.77" height="148.93" fill="white" transform="translate(0.000488281)"/>
</clipPath>
</defs>
</svg>
