<svg width="176" height="32" viewBox="0 0 176 32" fill="none" xmlns="http://www.w3.org/2000/svg">
<path d="M63.9279 32C63.5798 31.5629 63.2613 31.1585 62.8762 30.6777L62.3132 30.634C61.8503 29.6469 60.6652 29.523 60.0245 28.6488C60.1134 28.5177 60.2356 28.3428 60.3912 28.117C60.0986 27.4031 59.9875 26.5944 59.4764 25.9132C59.2246 25.5781 59.1246 25.1264 58.9617 24.7258C58.5913 23.8151 58.2543 22.8899 57.8507 21.9902C57.2581 20.6607 56.6137 19.353 56.0064 18.0307C55.8953 17.7903 55.8693 17.5135 55.7693 17.2694C55.4731 16.519 55.162 15.7723 54.8546 15.0219L54.2287 14.7815L54.4769 14.3554L52.7955 11.689L52.2919 11.7691L52.4363 11.1317C52.1622 10.731 51.8734 10.3121 51.6956 10.0535C51.2438 9.76572 50.9401 9.57266 50.5846 9.34682C49.8735 9.19019 49.2403 9.65644 48.5625 9.85678C46.9442 10.3376 45.348 10.9022 43.7592 11.4777C41.9409 12.137 40.141 12.8364 38.3375 13.5285C36.1451 14.3663 33.9638 15.2296 31.7677 16.0564C27.8939 17.5171 23.9942 18.9122 20.1464 20.4312C17.9947 21.2799 15.9134 22.2998 13.8284 23.3052C11.5953 24.3834 9.39546 25.5381 7.18084 26.6563C6.69199 26.904 6.19203 27.1299 5.70689 27.3848C5.27359 27.6143 4.8477 27.7746 4.33663 27.7965C3.8663 27.8147 3.40338 27.9786 2.91083 28.0879C2.47012 27.7782 2.79232 27.261 2.5516 26.7437C1.87758 26.15 0.577688 26.3831 0.00366211 25.3851C0.0629164 24.9152 0.411035 24.6274 0.68879 24.2814C1.20726 23.6366 1.69982 22.9518 1.29615 22.1614C1.27393 21.1451 1.99609 20.8173 2.65159 20.4348C4.09961 19.5934 5.54764 18.7483 6.99937 17.9105C7.56599 17.5827 8.12891 17.2512 8.71034 16.9489C10.3287 16.1074 11.9397 15.2551 13.5803 14.4573C16.4319 13.0732 19.3539 11.8529 22.3425 10.7711C25.3867 9.66737 28.3939 8.46168 31.4195 7.30334C32.6083 6.84802 33.7934 6.38541 34.9933 5.96287C37.2968 5.14694 39.6151 4.36378 41.9224 3.55513C44.4555 2.66999 46.9775 1.75206 49.518 0.885126C50.555 0.531796 51.629 0.284101 52.6548 -0.00366211C53.3029 0.313242 53.9399 0.62286 54.6139 0.950692L55.1287 0.386093C55.8249 0.564579 56.5767 0.757636 57.4766 0.99076L57.8877 0.757636L58.3432 1.05997L57.7544 1.65007C57.8284 1.79941 57.8988 1.94876 57.9951 2.15274L58.5284 1.52986C58.7098 1.62093 58.9913 1.66464 59.0431 1.79941C59.3061 2.466 59.9838 2.76469 60.3616 3.31836C60.9948 4.23993 61.6466 5.15058 62.2429 6.09765C62.6169 6.69139 62.9095 7.33248 63.2169 7.96629C63.502 8.55274 63.7576 9.15012 64.0279 9.74022C64.0686 9.83493 64.102 9.93692 64.1649 10.0134C64.813 10.8257 65.0834 11.8056 65.4759 12.7381C65.85 13.6268 66.3907 14.4464 66.861 15.2951C66.8906 15.3534 66.9943 15.3862 66.998 15.4408C67.1165 16.5045 67.7906 17.335 68.1868 18.2821C68.4127 18.8175 68.3942 19.455 68.4831 20.0341L69.0534 20.3692C70.6644 20.1179 72.0458 19.3093 73.5234 18.7592C74.8789 18.2529 76.2084 17.681 77.5527 17.1346C79.4044 16.3843 81.2487 15.6157 83.1078 14.8835C84.7114 14.2534 86.3297 13.6669 87.9407 13.0586C90.1961 12.2062 92.4885 11.4267 94.6994 10.476C97.2622 9.37596 99.8879 8.45075 102.48 7.43083C103.98 6.84073 105.561 6.44369 107.069 5.86817C108.902 5.16515 110.724 4.41842 112.502 3.58791C114.161 2.81569 115.912 2.29116 117.583 1.559C118.338 1.22753 119.108 0.943407 119.923 0.786776C120.123 0.746708 120.334 0.746708 120.612 0.72121C121.023 1.56993 121.856 1.4133 122.638 1.48251C122.764 1.34045 122.893 1.18746 123.045 1.01626C123.797 1.50436 124.638 1.48979 125.523 1.35866C125.763 1.7047 125.967 2.05439 126.234 2.35308C126.482 2.63356 126.715 2.89947 126.86 3.34022C127.304 3.51142 127.663 3.85747 127.967 4.40749C128.456 5.29264 128.937 6.17414 129.308 7.11392C129.445 7.45633 129.619 7.78416 129.771 8.12292C129.908 8.42161 130.037 8.72394 130.222 8.98985C130.333 9.53988 130.426 10.0899 130.556 10.6363C130.748 11.4595 131.037 12.2682 131.13 13.0987C131.178 13.5285 131.374 13.7653 131.585 13.9838C131.689 14.7743 131.752 15.5173 131.896 16.2459C132.026 16.9052 132.248 17.5463 132.452 18.2748C132.585 18.2274 132.696 18.2019 132.8 18.1509C132.892 18.1072 132.97 18.038 133.089 17.9579C133.255 18.0562 133.426 18.1582 133.629 18.2784C134 18.1655 134.403 18.0671 134.785 17.9251C137.174 17.0363 139.566 16.1511 141.944 15.2332C143.388 14.6723 144.799 14.0312 146.243 13.4666C147.421 13.0076 148.65 12.6652 149.81 12.1662C151.169 11.5834 152.583 11.1426 153.983 10.7055C157.013 9.75843 159.935 8.53817 162.92 7.47818C164.12 7.052 165.275 6.50562 166.479 6.07943C167.534 5.70425 168.623 5.42741 169.763 5.08501C169.726 5.31449 169.708 5.43834 169.686 5.57676C170.067 5.7771 170.449 5.98108 170.752 6.14136C171.486 5.9738 172.171 5.81717 172.797 5.67511C173.226 5.97016 173.604 6.22878 174.063 6.54204C173.948 6.97186 173.604 7.39076 173.452 7.89708C173.756 8.08285 174.063 8.27226 174.274 8.40339C174.633 8.40339 174.896 8.39247 175.159 8.40339C175.419 8.41796 175.674 8.45439 175.993 8.48717C175.541 9.33225 174.948 10.0316 174.078 10.5197C172.997 11.1244 171.937 11.7655 170.874 12.4029C170.671 12.5268 170.486 12.6798 170.304 12.8364C169.552 13.4921 168.838 14.1878 168.052 14.7961C167.516 15.215 166.893 15.5319 166.293 15.867C164.575 16.8323 162.72 17.4953 160.883 18.2019C158.82 18.9924 156.779 19.8374 154.698 20.5769C153.206 21.105 151.65 21.462 150.147 21.9647C148.313 22.5803 146.514 23.2869 144.688 23.9171C142.277 24.7513 139.844 25.5308 137.437 26.3686C136.233 26.7875 135.015 27.1517 133.755 27.3266C132.744 27.4686 131.841 27.8875 130.907 28.2336C129.937 28.5905 128.989 29.0131 128.004 29.3263C127.563 29.4648 127.056 29.4101 126.486 29.4465C126.637 29.1442 126.734 28.9511 126.867 28.678C125.856 28.6197 125.182 28.0842 124.545 27.465C124.278 27.2064 123.934 27.0242 123.656 26.7729C123.378 26.5252 123.141 26.2411 122.882 25.9679C123.186 25.804 123.427 25.6728 123.723 25.5126C123.501 25.2321 123.338 25.0245 123.134 24.7658C123.119 24.4453 123.101 24.0737 123.086 23.7022C122.567 22.8207 122.282 21.8773 122.223 20.8573C122.204 20.5295 122.164 20.0888 121.953 19.9066C121.427 19.455 121.597 18.9377 121.542 18.4423C121.323 17.743 121.101 17.0436 120.882 16.3442L121.001 16.3041C120.886 16.1803 120.771 16.0601 120.623 15.9035V14.9673C120.218 14.2946 119.997 13.6536 119.96 13.044C119.516 12.2172 119.083 11.4012 118.634 10.5671C117.635 10.7383 116.727 11.0297 115.861 11.4559C112.046 13.3282 108.113 14.909 104.088 16.3078C100.958 17.3969 97.9102 18.7009 94.8327 19.9285C91.8848 21.105 88.9777 22.3799 85.9668 23.4072C84.0744 24.0519 82.2486 24.886 80.3858 25.6146C77.5268 26.7365 74.6566 27.8256 71.805 28.9657C70.557 29.4647 69.3534 30.0767 68.1202 30.6194C67.2054 31.0201 66.2944 31.4281 65.3537 31.7596C64.8797 31.9271 64.3464 31.9271 63.9131 31.9927L63.9279 32Z" fill="#EF8400"/>
</svg>
