<svg xmlns="http://www.w3.org/2000/svg" xmlns:xlink="http://www.w3.org/1999/xlink" width="95.69" height="92.666" viewBox="0 0 95.69 92.666">
  <defs>
    <clipPath id="clip-path">
      <rect id="Rectangle_1" data-name="Rectangle 1" width="44.02" height="28.419" transform="translate(87.969 79.946) rotate(-176.737)" fill="#fff"/>
    </clipPath>
  </defs>
  <g id="BTN_En_savoir_" data-name="BTN En savoir +" transform="translate(-18.736 -16.615)">
    <path id="Tracé_1" data-name="Tracé 1" d="M76.106,20.295c29.425,12.2,43.928,45.02,36.316,66.306-7.983,22.325-40.643,28.164-65.866,17.537C26.219,95.6,13.559,63.625,20.785,41,26.715,22.6,51.509,10.038,76.106,20.295Z" fill="#5762c7"/>
    <g id="Groupe_1" data-name="Groupe 1" clip-path="url(#clip-path)">
      <path id="Tracé_2" data-name="Tracé 2" d="M76.154,64.291c-.709.708-1.443,1.4-2.118,2.143-.538.593-1.013,1.25-1.516,1.878a1.367,1.367,0,0,1-.388.392c-.122.062-.3,0-.6-.015A6.723,6.723,0,0,1,72,67.88c.856-1.033,1.727-2.053,2.588-3.08.171-.205.337-.417.5-.628.562-.748,1.124-1.5,1.77-2.359a4.4,4.4,0,0,0-1.209,1,6.159,6.159,0,0,1-1.685,1.674c-.212.108-.357.393-.523.6-.618.74-1.227,1.487-1.85,2.227a1.383,1.383,0,0,1-.269.2c-.445-.395.11-.667.1-1.015l-.414-.584a5.652,5.652,0,0,1,1.04-1.725c.821-.956,1.671-1.882,2.511-2.809.368-.41.756-.8,1.237-1.313a3.471,3.471,0,0,0-.562-.058,42.638,42.638,0,0,0-7.6,1.7,40.429,40.429,0,0,0-3.882,1.5c-1.764.8-3.518,1.622-5.223,2.556s-3.364,1.987-5.005,3.07q-2,1.316-3.886,2.827c-1.153.919-2.245,1.93-3.327,2.953a3.3,3.3,0,0,0-.969,2.114c-.02.162-.034.323-.063.557-.108-.173-.175-.271-.236-.374-.4-.023-.282.352-.367.566a1.647,1.647,0,0,1-.561-1.609,4.775,4.775,0,0,1,.416-1.063,30.956,30.956,0,0,1,4.012-5.673,36.5,36.5,0,0,1,3.338-3.322c1.046-.929,2.187-1.731,3.3-2.573A40.988,40.988,0,0,1,60.36,60a45.9,45.9,0,0,1,11.086-4.161c.84-.2,1.693-.374,2.532-.568.245-.057.481-.141.853-.254a3.28,3.28,0,0,0-.457-.283c-1.708-.629-3.421-1.258-5.135-1.87a1.4,1.4,0,0,1-.982-.827l1.452.243c-.476-.491-1.12-.469-1.741-.681l.129-.644c.659-.2,1.227.137,1.814.208a7.181,7.181,0,0,1,.947.265.76.76,0,0,0,.6-.086l-3.015-.8a1.179,1.179,0,0,1,1.187-.424c.863.194,1.728.372,2.572.627a38.826,38.826,0,0,0,8.269,1.85c.983.076,1.955.259,2.931.385a5.338,5.338,0,0,0,1.812-.028c.594-.131,1.207-.149,1.782-.219l1.024.616-.04.693.567-.1c.174.2.373.4.551.623a.639.639,0,0,1-.139,1.081c-.123.09-.256.157-.6.361.177.047.248.067.319.092s.136.056.206.087l-.464,1.279a9.67,9.67,0,0,1-1.368.8,10.5,10.5,0,0,0-3.387,2.39c-1.292,1.271-2.593,2.525-3.855,3.826A18.652,18.652,0,0,0,76.9,67.774a7.467,7.467,0,0,1-1.779,1.692l-.393-.135-.6.439c-.214-.3-.014-.477.125-.65.572-.748,1.15-1.49,1.722-2.238a4.183,4.183,0,0,0,.241-.432c-.357-.15-.509.09-.665.29-.62.774-1.236,1.559-1.861,2.327-.177.216-.393.4-.568.58-.387-.252-.295-.511-.132-.751.258-.381.521-.756.809-1.107.63-.768,1.275-1.518,1.92-2.286l.443-1.191.07-.137-.089.114ZM51.027,67.51c.032-.021.064-.048.1-.069l-.088-.088a.234.234,0,0,1,.019-.156l.045-.06-.025.083-.485.287-.322.316-.1.08.1.077-.073.294-.484.466-.149.173a3.092,3.092,0,0,0-.978,1.274l1.05-1.181.164-.161.475-.483.312-.334.139-.184c.049-.054.1-.113.153-.167l.153-.161Zm.06,1.829-.149.173-.322.143-.187.126-.787.638L49.5,70.6l-.059.037.039-.06.187-.126.8-.626.139-.184.317-.149.163-.155.149-.173.328.025-.327.5-.169.172-.311.132-.169.161-.154.173-.059.048.04-.071.154-.173.163-.161.316-.132.169-.172.633-.46.073-.1-.058.121-.324,0,.061-.445-.343.416-.163.155Zm6.279-6.375.321-.132.159-.167a.953.953,0,0,0,.787-.459l.312-.149.078-.109-.059.132-.317.143a.913.913,0,0,0-.783.465l-.153.167-.321.126-.033.032.014-.056Zm1.32-1.225-.331.126-.475.31-.99.573-1.215.832-.158.161-.317.143-.049.054.03-.072.322-.137.163-.155,1.292-.728.922-.66.476-.31.307-.16.149-.173.316-.132.043-.032-.028.044-.306.138-.149.173ZM56,65.559l.322-.137a3.11,3.11,0,0,0,.494-.18c1.583-.878,3.162-1.772,4.744-2.644.807-.446,1.629-.876,2.446-1.311.068-.014.141-.033.042-.009.061-.076.017-.022-.028.032a1.866,1.866,0,0,0-.436.071,38.569,38.569,0,0,0-5.954,3.1,14.959,14.959,0,0,0-1.295.963l-.317.143c-.037.015-.069.031-.037.015A.424.424,0,1,1,56,65.559Zm4.389-1.92-.306.138-.019-.023.3-.144.322-.148a2.393,2.393,0,0,0,.359-.08q2.287-1,4.575-2.013c.654-.291,1.3-.582,1.953-.878l.432-.183c.068-.02.136-.033.057-.014l-.038.037-.5.1a2.315,2.315,0,0,0-.446.059,38.123,38.123,0,0,0-5.075,2.126c-.451.238-1,.354-1.31.867l-.313.16Zm9.647-12.031c.06.036.119.078.055.036l-.071-.014c-.134-.269-.363-.212-.586-.194a.883.883,0,0,0-.976-.2l.988.183C69.583,51.7,69.838,51.57,70.041,51.607Zm4.292,4.836c-.211.008-.445-.126-.615.136l-1.134.141a1.634,1.634,0,0,0,1.12-.158c.215.009.45.137.615-.136l.667.029c-.34-.166-.507-.218-.653-.006Zm-7.9,2.468a4.279,4.279,0,0,0-1.69.593c-.068.014-.13.028-.068.014l.048-.037a2.32,2.32,0,0,0,1.695-.587c.067-.008.13-.017.052-.009C66.538,58.832,66.489,58.874,66.435,58.911Zm1.575-.923a2.647,2.647,0,0,0-1.691.6l-.371.006.02.107.332-.137a3.612,3.612,0,0,0,1.69-.6l.372-.029-.029-.119-.328.165Zm7.415-4.645-.636-.218-.035.167.688.03a3.083,3.083,0,0,0,2.184.308l-2.206-.286Zm-1.463-1.049-.033-.046.055.03c.548.225,1.088.5,1.654.677a7.932,7.932,0,0,0,2.389.418,6.125,6.125,0,0,0-1.135-.386c-.974-.238-1.949-.46-2.924-.687Zm-1.169,7.051a15.55,15.55,0,0,0,4.357-.813,24.451,24.451,0,0,0-2.463.335c-.635.124-1.258.326-1.885.495l-.325.019.015.1.291-.139Zm4.614,4.508A34.026,34.026,0,0,0,81.565,59.7a1.687,1.687,0,0,0-.443.194c-1.171,1.148-2.344,2.306-3.5,3.477a1.588,1.588,0,0,0-.2.5l-.02-.018ZM70.054,59.4a1.675,1.675,0,0,0,.375.011q3.437-.606,6.876-1.23a4.332,4.332,0,0,0,.519-.162,1.657,1.657,0,0,0-.833-.092c-.5.062-1,.152-1.5.22a27.97,27.97,0,0,0-4.693.938,5.543,5.543,0,0,0-.729.343c-.078.008-.15.01-.046,0-.086.063-.027.021.032-.021ZM88.59,54.762c-.491-.044-.849-.182-1.228.249C87.792,55.046,88.144,55.2,88.59,54.762Zm-1.4.583a.5.5,0,0,0-.807.077C86.679,55.619,86.921,55.714,87.194,55.345Zm-.728-.681a.439.439,0,0,0-.6.075A.4.4,0,0,0,86.466,54.664Zm-.815.586q-.207-.239-.346.03Zm-9.007-.9,0-.073-.4-.017,0,.073Z" fill="#fff"/>
      <path id="Tracé_3" data-name="Tracé 3" d="M50.9,67.5l-.01.184-.178.144-.15.01.02-.352.323.014Z" fill="#fff"/>
      <path id="Tracé_4" data-name="Tracé 4" d="M51.063,67.332l-.011.2-.174-.008Z" fill="#fff"/>
      <path id="Tracé_5" data-name="Tracé 5" d="M50.238,67.991l.011-.19.323.014a.174.174,0,0,0-.059.137l-.28.038Z" fill="#fff"/>
    </g>
  </g>
</svg>
