<svg width="168" height="54" viewBox="0 0 168 54" fill="none" xmlns="http://www.w3.org/2000/svg">
<path d="M118.05 17.5591C118.49 17.5154 118.935 17.4692 119.485 17.4146C119.35 17.8926 119.222 18.3538 119.126 18.6926C120.039 18.9837 120.945 19.2675 121.737 19.5222L119.263 25.9938C132.848 20.0493 146.273 14.1733 159.696 8.30149L159.662 8.28866C160.156 8.01539 160.646 7.74052 161.202 7.4287C161.469 7.82439 161.684 8.14243 162.037 8.66702C162.237 8.44513 162.476 8.18506 162.742 7.89201C163.599 9.44721 162.171 9.74854 161.838 10.521C161.453 10.735 161.061 10.9415 160.674 11.1496L160.918 11.4789C161.219 11.1461 161.525 10.8106 161.825 10.4778C162.212 10.4333 162.602 10.332 162.98 10.3611C163.335 10.3906 163.68 10.5563 164.028 10.6652C163.362 11.7393 166.431 12.0124 164.602 13.3394C164.503 13.4077 164.456 13.5437 164.157 13.9734C165.085 13.7359 165.715 13.5581 166.353 13.412C167.527 13.1439 167.518 13.4437 167.704 14.5303C168.003 16.3005 166.818 15.703 166.056 15.8595L166.083 15.9275L166.059 15.8269C166.618 16.7915 166.386 17.4004 165.377 17.6501C165.217 17.6902 164.972 17.7792 164.941 17.8974C164.237 20.4056 161.753 20.6258 159.962 21.5148C156.326 23.3161 152.466 24.6467 148.731 26.2559C145.082 27.8261 141.487 29.5324 137.84 31.1127C133.801 32.861 129.714 34.4991 125.673 36.2517C122.163 37.7739 118.758 39.5623 115.176 40.8836C112.786 41.7653 110.617 43.4775 107.872 43.2511C107.011 43.177 106.164 42.9641 105.305 42.809L105.291 42.7599L105.297 42.8442C104.081 41.9508 102.812 41.1192 101.675 40.1311C101.322 39.8228 101.329 39.0989 101.168 38.5654L101.183 38.6144C101.393 37.7996 101.706 36.9949 101.786 36.1688C101.875 35.2691 100.782 35.3373 100.391 34.7882C100.389 34.7924 100.323 34.8152 100.323 34.8152L100.425 34.7869C99.131 35.6062 97.7943 36.3611 96.5581 37.2555C95.3483 38.1311 94.2449 39.1437 93.0955 40.1002L93.1345 40.0862C91.7539 41.1949 90.3717 42.3079 88.9911 43.4166L89.0343 43.4042C86.2573 45.298 83.537 47.2953 80.6764 49.056C78.162 50.6025 75.5093 51.9325 72.8811 53.2863C70.7446 54.3852 69.8333 53.801 68.0742 52.1899C67.6327 51.7852 67.0489 51.5139 66.6967 51.0519C66.4074 50.6766 66.1 49.9719 66.2661 49.6503C67.0627 48.0824 67.021 46.6321 66.1675 45.1169C65.7545 44.3862 65.6321 43.6752 66.1156 42.7626C66.8457 41.3811 67.2672 39.8383 67.7914 38.354C67.8187 38.2826 67.6095 38.1256 67.5151 38.0077L67.4875 38.0549C68.2431 36.9335 68.9988 35.812 69.7528 34.6948L69.3147 34.1808C64.1466 36.5948 59.0764 39.2051 54.1225 42.0524L54.1589 42.0326C51.6326 43.3965 49.1047 44.7646 46.5785 46.1284C43.8264 47.6178 41.1338 49.2406 38.2946 50.5426C36.4057 51.4089 34.3126 52.3944 32.186 51.2541C30.7497 50.4836 29.4562 49.4404 28.1444 48.4575C27.9655 48.3218 27.9947 47.8179 28.0316 47.4951C28.1239 46.7506 28.2629 46.0095 28.4188 45.2749C28.7087 43.9129 27.6459 42.9578 27.4095 41.7652C27.3094 41.26 27.4172 40.714 27.4234 40.1821L27.4363 40.1485L27.4473 40.2201C28.8679 37.4853 30.3036 34.761 31.6948 32.015C31.8706 31.6683 31.8779 31.209 31.8611 30.8127C31.86 30.7401 31.3389 30.6948 31.0543 30.6342L31.0627 30.6374C31.0258 30.734 30.9873 30.8348 30.9471 30.9398L30.9387 30.9366C29.0725 32.2592 27.1953 33.5728 25.3368 34.9128C24.7864 35.3088 24.2886 35.7683 23.7679 36.1998L23.8085 36.1816C23.769 36.335 23.7296 36.4884 23.6902 36.6418L23.7082 36.6198C23.3574 36.6445 22.9975 36.6177 22.6626 36.7014C21.9338 36.8849 21.8396 37.2821 22.3823 37.812L22.3919 37.7868C19.4921 39.2726 17.0157 41.3487 14.5199 43.4126C13.2205 44.4849 11.7282 45.3199 10.3693 46.3215C9.97989 46.6106 9.82296 47.2726 9.41632 47.4685C8.59145 47.8656 7.67595 48.0595 6.59913 48.3987C6.60162 48.3419 6.6362 48.591 6.57949 48.8148C6.51252 49.078 6.28175 49.5433 6.26916 49.5385C5.26663 49.1552 4.25989 48.7703 3.30008 48.2879C2.92023 48.0993 2.68316 47.4744 2.32288 47.4233C1.15912 47.248 1.28162 46.6257 1.53275 45.7928C2.32112 43.1773 4.0566 41.3667 6.33325 39.9892C6.4779 39.9001 6.6012 39.7788 7.02985 39.4372C6.4329 39.4015 6.06216 39.2646 5.87469 39.3903C4.92992 40.0255 4.03818 40.7483 3.10796 41.4083C2.46988 41.8575 1.79851 42.2555 1.13749 42.6766L0.726513 42.1922C1.86327 40.841 2.99584 39.4882 4.1326 38.1371C4.25927 38.2962 4.35543 38.5351 4.52001 38.6077C4.72234 38.6946 4.98765 38.642 5.22468 38.6508C5.16797 38.4847 5.10708 38.3171 5.05037 38.151L4.09459 38.161C3.94077 36.5764 5.16947 36.6322 6.16617 36.4019C6.2994 35.0473 7.56028 34.0757 8.83481 34.3512C8.80985 34.4668 8.78908 34.584 8.81466 34.4542C8.83004 34.59 8.81922 34.48 8.8042 34.3684C8.69471 33.0702 9.69028 32.5411 10.5215 31.901C11.812 30.9022 13.088 29.8787 14.4322 28.9533C14.7443 28.7405 15.2969 28.8796 15.7428 28.8575L15.7237 28.8069L16.161 28.8201L15.8281 28.5339L15.8761 28.509C16.0006 28.133 16.1309 27.7544 16.257 27.3742L16.2799 27.3396C16.5315 27.8257 16.779 28.3102 17.1853 29.0961C18.0866 27.5057 18.7857 26.2808 19.4789 25.0585C19.7374 25.552 19.9958 26.0455 20.2543 26.539L20.7589 26.0869L19.4499 25.0715C20.6514 24.8714 21.8529 24.6713 23.0529 24.4754L23.0623 24.325C22.6227 24.2676 22.183 24.2103 21.6063 24.1342C22.5295 23.279 23.3357 22.5282 24.1462 21.7791L24.1496 21.7323C24.3624 22.6849 25.0758 22.7555 25.9156 22.6337L24.5141 21.5588L24.547 21.5858C25.0965 21.406 25.6418 21.2246 26.3631 20.9853C26.8919 20.143 27.4004 18.9511 29.0388 19.5197C29.375 19.6338 29.8656 19.3063 30.2834 19.182L30.237 19.2028C30.2503 18.8662 30.2694 18.5269 30.2827 18.1902C32.5884 18.4219 33.6652 18.0827 33.764 16.5417C33.8791 14.7566 34.25 14.0127 36.1334 14.5065C36.6099 14.6309 37.204 14.3093 38.1427 14.105C37.2309 15.1571 36.6077 15.8816 35.8411 16.7677C35.7399 16.0263 35.7856 15.5673 35.598 15.2404C35.4712 15.0187 35.0146 14.9933 34.7084 14.8763C34.7311 15.1689 34.6408 15.5435 34.793 15.7365C35.237 16.3106 35.2286 16.6972 34.6522 17.1989C34.4644 17.363 34.6205 17.9232 34.6211 18.2989L34.6307 18.2737C32.1883 19.2798 30.1379 20.7823 28.5668 22.9301C28.9823 22.9878 29.3556 22.9669 29.6098 22.78C30.7789 21.9226 31.9336 21.0403 33.0559 20.1168C33.7077 19.5814 34.2881 18.9562 34.8966 18.3705L34.8902 18.3873C35.839 17.8548 36.7671 17.2758 37.7537 16.8203C38.3328 16.5507 39.0024 16.4842 39.7096 16.3069C39.8389 16.8617 39.9344 17.2785 40.1156 18.0746C40.7999 17.7057 41.5471 17.5244 41.9446 17.0506C44.5521 13.9272 47.0076 10.6735 49.6617 7.59199C51.6131 5.32967 53.83 3.3036 55.8447 1.08954C56.6244 0.232384 57.2218 0.354882 57.9565 1.0112C58.1285 1.07695 58.2904 1.14369 58.4566 1.21203C58.5501 1.15629 58.6435 1.10056 58.4814 1.19745C58.6044 1.05192 58.5355 1.13148 58.4666 1.21104C58.2863 1.14209 58.1059 1.07313 57.9255 1.00417C58.1298 0.721277 58.3605 0.193352 58.5333 0.20649C58.9736 0.249647 59.4738 0.450483 59.7903 0.754394C60.3936 1.32679 60.8852 2.01532 61.4186 2.65727L61.7782 2.49632C61.6069 2.80625 61.4313 3.11457 61.129 3.65364C61.8751 3.56342 62.438 3.49945 63.1241 3.41517L62.4739 5.11601C63.1349 5.08473 63.8504 4.84804 64.2629 5.10202C64.566 5.2901 64.4742 6.12139 64.5557 6.66277L64.5543 6.62856C64.2457 7.0208 63.9497 7.41784 63.6275 7.79527C63.2184 8.27424 62.7874 8.7352 62.3632 9.20356L61.9971 8.99143C62.1211 9.24578 62.2466 9.49592 62.3611 9.73706C61.0742 11.1415 59.7946 12.5392 58.5093 13.9395L58.479 13.9183C55.582 18.5531 52.1782 22.8161 48.8131 27.1035C47.3782 28.9327 46.0902 30.8807 44.7431 32.7821C44.6827 32.8648 44.7326 33.0235 44.7291 33.4602C45.9493 32.834 47.0364 32.2918 48.1032 31.7273C52.2901 29.5158 56.4805 27.32 60.6461 25.0762C63.8799 23.333 67.0312 21.4283 70.3174 19.787C73.0339 18.4285 75.838 17.1804 78.7086 16.1985C80.7652 15.4974 82.9119 15.9186 84.9187 17.1334C84.7473 17.2797 84.5718 17.4244 84.3519 17.6099C84.6078 17.7077 85.0387 17.8002 85.0366 17.8813C85.0146 19.5864 86.3963 19.5563 87.611 19.7367C87.5902 19.8539 87.5753 19.9685 87.5545 20.0857C87.2751 20.2003 86.9999 20.3165 86.7147 20.4337L86.6615 20.4471L86.7541 20.4439C86.4644 20.5979 86.1774 20.7577 85.8877 20.9117L85.9642 21.1769C86.2267 21.1569 86.4911 21.1569 86.749 21.1111C87.8212 20.9097 89.2414 20.7162 89.5923 21.76C89.9109 22.7001 89.5359 24.1211 88.996 25.0554C87.7608 27.1921 86.2346 29.1597 84.8303 31.198C84.6145 31.3225 84.396 31.4411 84.1802 31.5656L84.4121 31.789C84.5449 31.5799 84.6762 31.3749 84.809 31.1658C85.3197 30.8989 85.8704 30.6907 86.3368 30.3636C89.3958 28.1974 92.4292 25.9973 95.495 23.8385C95.8573 23.5824 96.3483 23.5053 96.7847 23.3448C96.8454 23.3873 96.9019 23.4282 96.96 23.4648C96.9035 23.424 96.847 23.3831 96.7905 23.3423C96.7687 23.2232 96.7039 23.0155 96.7345 22.9983C99.8524 21.3697 102.956 19.7162 106.109 18.1588C107.562 17.4388 109.158 16.9995 110.599 16.2605C111.31 15.897 111.782 15.0906 112.429 14.5678C113.397 13.7828 115.464 14.3372 116.413 15.0611C117.024 15.5256 116.871 15.9146 116.964 16.3882L117.032 16.3612L116.934 16.3769C118.066 16.0828 117.695 17.1681 118.047 17.5917L118.026 17.5452L118.05 17.5591ZM32.4658 25.5085L32.4409 25.4604L32.4658 25.5085ZM30.4119 30.1768C30.4119 30.1768 30.4021 30.1394 30.3954 30.132L30.4119 30.1768ZM19.7145 28.9319L19.6964 28.8913L20.096 28.7264C21.3752 28.5367 22.4233 28.0084 23.0617 26.9047L22.8315 26.5761C21.9224 27.3067 21.0174 28.0389 20.1099 28.7654C19.9781 28.8209 19.8421 28.8748 19.7103 28.9303L19.7145 28.9319ZM11.9572 35.0876L12.001 35.061C12.001 35.061 11.963 35.085 11.9572 35.0876ZM97.1104 36.427L97.137 36.4708L97.1104 36.427ZM73.1499 22.1117C73.1499 22.1117 73.1722 22.1539 73.1764 22.1555L73.1499 22.1117ZM134.776 23.0052C134.776 23.0052 134.756 23.0314 134.761 23.043L134.776 23.1062L134.78 23.0068L134.776 23.0052ZM136.879 22.2207C136.879 22.2207 136.891 22.2639 136.889 22.2581L136.879 22.2207ZM155.959 13.9389C155.959 13.9389 155.939 13.9651 155.937 13.9693L155.944 14.0393L155.955 13.9373L155.959 13.9389ZM28.3755 31.5547C28.3755 31.5547 28.3758 31.5789 28.382 31.6005L28.3755 31.5547ZM49.801 34.5424L49.8642 34.5281C49.8642 34.5281 49.8104 34.5556 49.784 34.5744L49.8009 34.6434L49.8052 34.544L49.801 34.5424ZM68.1162 39.2146L68.0273 39.2336C68.0273 39.2336 68.1249 39.1794 68.1239 39.1694L68.1116 39.1262L68.112 39.213L68.1162 39.2146ZM53.4091 32.4994L53.4971 32.5331C53.4646 32.5303 53.4278 32.5259 53.3978 32.5288L53.4315 32.6043L53.4107 32.4952L53.4091 32.4994ZM26.3597 22.0381C26.3219 22.0237 26.2848 21.9951 26.2464 21.9948C26.218 21.9936 26.1884 22.0208 26.1578 22.038C26.2168 22.022 26.28 22.0077 26.339 21.9917L26.3597 22.0381ZM76.0037 20.7335L75.7478 20.7993C75.829 20.763 75.9044 20.7292 75.9814 20.6913L76.0037 20.7335ZM12.4904 40.5092L12.2465 40.4303C12.3268 40.4466 12.4087 40.4587 12.4822 40.4675L12.4735 40.4401L12.4888 40.5133L12.4904 40.5092ZM56.9982 30.921C56.9072 30.9199 56.8121 30.9172 56.9214 30.9205C56.8296 30.972 56.9098 30.9257 56.9816 30.8761L56.9982 30.921ZM90.7615 31.5546C90.6569 31.5387 90.5524 31.5228 90.6711 31.5393C90.5548 31.567 90.6611 31.5403 90.7607 31.5062L90.7494 31.4729L90.7631 31.5504L90.7615 31.5546ZM78.7022 19.7868C78.4559 19.8274 78.2112 19.8639 77.9633 19.9087L77.9776 19.9719L77.9762 19.8751C78.2125 19.8355 78.4488 19.7958 78.6799 19.7446L78.6827 19.712L78.7022 19.7868ZM13.2196 33.8856C13.1102 33.9833 12.9991 34.0852 13.1604 33.9399C13.0682 34.1309 13.1395 33.9945 13.2041 33.8508L13.6359 33.6645C13.8684 33.6474 14.1067 33.6278 14.3391 33.6108C14.3093 33.5128 14.2821 33.4205 14.2522 33.3225C14.0506 33.4475 13.8515 33.5784 13.6498 33.7035C13.5064 33.7642 13.3614 33.8291 13.218 33.8898L13.2196 33.8856ZM29.9214 31.3466L29.8776 31.3732C29.7958 31.2601 29.714 31.147 29.6381 31.0314L29.566 31.1193C29.6864 31.1942 29.8052 31.2733 29.9256 31.3483L29.9214 31.3466ZM26.4743 25.071C26.3493 24.9703 26.2269 24.8754 26.102 24.7747L26.0201 24.9889C26.1714 25.0082 26.321 25.0317 26.4671 25.0394C26.4732 24.9984 26.486 24.9648 26.4879 24.9222C26.4891 24.8938 26.4762 24.8648 26.4716 24.839C26.4711 24.9158 26.4748 24.9942 26.4743 25.071ZM67.7102 24.7204C67.6076 24.8881 67.5008 25.0543 67.3982 25.222L67.5444 25.2923C67.5982 25.1011 67.6563 24.9116 67.7102 24.7204L67.9565 25.0696L68.0405 25.0007L67.7144 24.722L67.7102 24.7204ZM34.7202 24.0888C34.5041 24.088 34.2906 24.093 34.0746 24.0923L34.1386 24.4152C34.3261 24.2895 34.512 24.168 34.6994 24.0423L34.7243 24.0904L34.7202 24.0888ZM33.1385 28.6536L32.5592 28.5718L32.5607 28.7312C32.7538 28.7039 32.9511 28.6783 33.1443 28.651L32.7724 29.3849L33.0788 29.4636C33.1006 29.1927 33.1225 28.9219 33.1401 28.6494L33.1385 28.6536ZM16.5457 31.9514L16.5061 31.9796L15.7894 31.9174C15.7958 32.0642 15.8022 32.2111 15.8085 32.3579C16.0518 32.2247 16.3008 32.0888 16.5457 31.9514ZM106.897 21.3672C106.503 21.5296 106.105 21.6903 105.71 21.8568C105.795 21.9857 105.882 22.1104 105.971 22.2409C106.276 21.9339 106.575 21.6294 106.874 21.325L106.92 21.3326L106.895 21.3714L106.897 21.3672ZM101.287 24.1322C100.878 24.4091 100.469 24.686 100.06 24.963C99.589 25.1774 99.1176 25.3919 98.6503 25.608C98.7499 25.7375 98.8452 25.8654 98.9447 25.9949L100.048 24.9198C100.457 24.6428 100.866 24.3659 101.276 24.0848C101.595 24.0288 101.921 23.9702 102.24 23.9143L102.091 23.5635C101.821 23.7539 101.557 23.9417 101.287 24.1322ZM27.3284 20.8875C27.7666 20.848 28.209 20.8101 28.6472 20.7707C28.5717 20.5782 28.4963 20.3857 28.4208 20.1932C28.0591 20.4351 27.6999 20.6829 27.345 20.9323L27.3284 20.8875ZM95.0337 28.076C95.0948 28.2053 95.156 28.3346 95.2129 28.4623C95.9032 27.9897 96.5977 27.5188 97.288 27.0462L97.0345 26.6653C96.3642 27.1359 95.6982 27.6081 95.0279 28.0786L95.0337 28.076ZM117.495 19.4262L117.995 19.7907C118.256 19.4334 118.518 19.0761 118.778 18.7231L118.379 18.4213C118.083 18.7557 117.791 19.0918 117.493 19.4304L117.495 19.4262ZM8.22393 38.6278L8.10302 38.2398L7.04199 38.5754L7.15773 38.9518L8.22393 38.6278ZM109.981 17.6127L110.315 17.8078L110.761 17.0828L110.416 16.8787C110.27 17.1214 110.127 17.37 109.981 17.6127ZM18.2734 29.9598L18.4838 30.4156C18.7718 30.2658 19.0557 30.1144 19.3453 29.9604C19.2894 29.8427 19.2292 29.7235 19.1732 29.6058C18.8738 29.7224 18.5744 29.839 18.2792 29.9572L18.2734 29.9598ZM27.5744 23.6144L27.2157 23.3329C27.0522 23.5592 26.8888 23.7855 26.7254 24.0118L27.2379 24.3185C27.352 24.0829 27.4645 23.8516 27.5744 23.6144ZM38.3974 20.5946C38.5219 20.8347 38.5717 20.9308 38.6242 21.0326C38.7292 20.9717 38.8813 20.9384 38.9266 20.845C38.9639 20.7726 38.8959 20.5733 38.8304 20.5435C38.7297 20.505 38.5863 20.5657 38.399 20.5903L38.3974 20.5946ZM104.121 22.6549L104.315 22.8639C104.507 22.7014 104.697 22.5431 104.889 22.3807L104.652 22.1456L104.121 22.6549ZM32.096 29.6702C31.9033 29.3944 31.8369 29.1909 31.723 29.1618C31.6175 29.1359 31.463 29.2886 31.3331 29.3642C31.393 29.4592 31.4293 29.6031 31.5116 29.6394C31.6332 29.6859 31.788 29.6584 32.096 29.6702ZM24.1237 25.7993L23.6923 26.0725C23.7799 26.1829 23.8705 26.386 23.9573 26.3855C24.0782 26.3836 24.2179 26.2445 24.3038 26.1329C24.3309 26.1 24.2094 25.9524 24.1221 25.8035L24.1237 25.7993ZM39.525 19.9715C39.6316 19.9064 39.7402 19.8613 39.8133 19.7833C39.8371 19.7587 39.7721 19.652 39.7469 19.5798C39.6441 19.6223 39.5361 19.6533 39.4511 19.7122C39.4321 19.7242 39.4906 19.8477 39.5266 19.9673L39.525 19.9715ZM74.7993 21.3561L74.6841 21.0665L74.1027 21.2919L74.1753 21.517C74.3838 21.462 74.5908 21.4111 74.7993 21.3561ZM9.80287 36.3338L9.94233 36.6229C10.1054 36.5361 10.2726 36.4508 10.4236 36.3449C10.4352 36.3397 10.3292 36.1644 10.2778 36.0725C10.1189 36.161 9.9601 36.2495 9.80287 36.3338ZM103.205 23.1761C103.148 23.0626 103.112 22.943 103.077 22.9443C102.971 22.9469 102.866 22.9936 102.762 23.0261C102.791 23.0899 102.814 23.2048 102.85 23.2134C102.954 23.2293 103.064 23.1942 103.205 23.1761ZM36.6999 22.1549L36.5857 22.1642C36.5942 22.2301 36.6027 22.2959 36.6212 22.3607C36.6196 22.3649 36.6912 22.3538 36.7311 22.3498C36.7227 22.284 36.7142 22.2181 36.7015 22.1507L36.6999 22.1549ZM89.07 32.4578L88.9767 32.6388C89.0145 32.6532 89.0784 32.6873 89.0858 32.6805C89.125 32.6281 89.1491 32.5651 89.1816 32.5053C89.1439 32.4909 89.1061 32.4764 89.0683 32.462L89.07 32.4578ZM60.6771 29.0447C60.6198 28.9554 60.59 28.8574 60.5474 28.8555C60.4765 28.8525 60.3827 28.884 60.3334 28.9374C60.3022 28.9688 60.3378 29.0642 60.3421 29.1284L60.6771 29.0447ZM94.0923 28.9917L93.99 28.7938C93.9536 28.8135 93.8904 28.8279 93.8834 28.8589C93.8619 28.9277 93.8698 29.0077 93.8625 29.0771L94.0907 28.9959L94.0923 28.9917ZM70.3721 52.794C70.3371 52.848 70.2952 52.8946 70.2685 52.9517C70.2637 52.9643 70.3248 53.031 70.3406 53.0274C70.4012 53.0073 70.4582 52.9713 70.5136 52.9395C70.4645 52.8919 70.4196 52.8458 70.3705 52.7982L70.3721 52.794ZM18.7391 27.9621L18.6267 27.8662L18.6255 27.9572L18.7407 27.9579L18.7391 27.9621ZM8.68232 37.5419L8.88828 37.4811C8.85659 37.4256 8.8323 37.3634 8.7974 37.3164C8.79062 37.309 8.70584 37.3295 8.69781 37.3505C8.67953 37.4109 8.68383 37.4751 8.68072 37.5461L8.68232 37.5419ZM62.1866 5.93035C62.1927 5.88934 62.2119 5.83895 62.1974 5.81413C62.1786 5.78771 62.1235 5.78107 62.0857 5.76663C62.08 5.83184 62.0743 5.89705 62.0644 5.96066L62.185 5.93455L62.1866 5.93035ZM59.4991 29.4848L59.5782 29.5295L59.5752 29.4369L59.4949 29.4832L59.4991 29.4848ZM117.268 17.366L117.35 17.4165L117.357 17.3229L117.268 17.366ZM25.8646 30.099L25.9494 30.0785L25.8925 30.0134L25.8688 30.1006L25.8646 30.099ZM91.5566 30.7322L91.5997 30.6573L91.5162 30.6494L91.5566 30.7322ZM24.9795 25.573L24.9438 25.6412L25.0221 25.6374L24.9753 25.5714L24.9795 25.573ZM32.4922 30.3945L32.4791 30.3029C32.4791 30.3029 32.4101 30.3198 32.3963 30.3434C32.3867 30.3686 32.4022 30.4034 32.4052 30.4334C32.4342 30.4204 32.4632 30.4075 32.4922 30.3945ZM107.617 20.9543L107.723 20.9418L107.652 20.8619L107.617 20.9543Z" fill="#F9B500"/>
</svg>
