<svg width="161" height="191" viewBox="0 0 161 191" fill="none" xmlns="http://www.w3.org/2000/svg">
<path d="M95.5418 60.0535L94.6668 59.1387L94.9653 57.8717L94.2834 57.8214L93.8755 56.2325L94.5269 55.3839L93.7053 55.1376L94.3901 53.3077L94.8931 53.5705L95.487 53.0025C96.3771 53.4637 97.468 53.4151 98.007 54.3854C98.577 53.9274 99.2103 54.243 99.5705 54.4835C100.425 55.0539 101.577 55.1156 102.241 55.7848C103.018 56.5652 104.032 56.7507 104.892 57.2541C105.924 57.8581 106.996 58.4705 108.101 58.9905C109.18 59.4982 110.394 59.9555 111.246 60.9062C113.487 61.5556 115.204 63.1572 117.187 64.268C118.733 65.1335 120.379 65.9212 121.738 67.1478C122.21 67.5743 123.104 67.5574 122.86 68.7063C123.83 68.4448 124.573 68.5177 125.203 69.2235C125.674 69.7163 126.226 70.1241 126.836 70.4289C128.389 71.2552 129.72 72.3918 131.154 73.3833C132.471 74.2931 133.666 75.3819 134.973 76.2568C136.736 77.4369 137.911 79.1291 139.418 80.5164C139.684 80.7606 139.728 81.2302 139.95 81.5416C140.19 81.8796 140.706 82.1251 140.76 82.4652C140.83 82.9057 141.183 82.9428 141.347 83.1997C141.589 83.5794 141.797 83.9806 142.065 84.4519C141.953 84.8275 142.305 85.3931 141.819 85.8563C141.697 85.9729 141.685 86.4292 141.802 86.5377C142.683 87.3587 142.16 88.2446 141.916 89.1976C140.882 90.4661 139.512 90.6821 137.951 90.0668C137.742 89.9922 137.544 89.8897 137.362 89.7619C136.681 89.243 136.077 88.5718 135.323 88.2127C134.494 87.8175 133.934 87.1951 133.323 86.5875C132.735 86.0043 132.231 85.1366 131.529 84.9228C130.748 84.6858 130.593 83.6045 129.663 83.7871C129.703 82.9729 128.681 83.1848 128.5 82.5836C127.716 82.5069 127.401 81.7787 126.839 81.4062C126.319 81.0613 125.827 80.6623 125.312 80.3463C123.634 79.2921 122.032 78.12 120.52 76.8389C119.39 76.7389 119.088 75.3972 117.978 75.1907C117.024 75.0136 116.371 74.1797 115.593 73.6591C114.71 73.0678 113.831 72.4025 112.968 71.7518C112.162 71.1443 111.286 70.6263 110.46 70.0312C109.241 69.1543 107.807 68.5805 106.669 67.5547C105.677 67.6144 105.45 66.4303 104.502 66.2754C103.707 66.1453 102.988 65.5137 102.358 65.0363C100.821 63.8709 98.9867 63.296 97.4146 62.2355C97.0423 61.9843 96.6664 61.7385 96.2325 61.4505C96.5032 61.0984 96.7069 60.8335 97.0278 60.4162L95.5418 60.0535Z" fill="#5762C7"/>
<path d="M101.533 95.8656C101.672 95.8687 101.792 95.8713 101.911 95.874L101.593 97.222C101.905 97.0816 102.106 96.9905 102.427 96.8467C102.744 97.2719 103.323 97.7043 103.363 98.1814C103.427 98.9559 104.206 98.7573 104.434 99.2645C104.641 99.7247 105.279 100.07 105.323 100.507C105.395 101.218 105.965 101.458 106.24 101.946C106.492 102.454 106.714 102.976 106.906 103.51L107.925 104.071L107.498 105.372C108.053 105.095 108.237 105.003 108.535 104.855C108.989 106.699 110.742 107.755 111.281 109.52C111.174 109.681 111.082 109.819 110.838 110.186C111.247 109.997 111.42 109.916 111.622 109.823L112.287 111.026C112.106 111.242 111.923 111.46 111.656 111.779L112.183 111.876L112.426 112.666L113.191 112.39C113.263 112.875 113.335 113.361 113.422 113.936C113.314 114.065 113.131 114.283 112.894 114.566L114.224 115.04C114 116.125 114.583 117.347 113.976 118.486L113.383 118.501C113.372 118.987 113.55 119.035 114.361 118.764C114.451 118.838 114.536 118.919 114.614 119.005C114.645 119.042 114.631 119.115 114.653 119.306C114.39 119.402 114.097 119.51 113.774 119.629L113.276 120.695L112.812 119.644C112.578 120.018 112.404 120.297 112.109 120.768L111.575 119.249L112.08 119.209L111.756 118.131L110.882 118.966L109.69 118.548L108.673 115.918C108.287 115.739 107.38 114.507 107.13 113.794L106.545 113.753L106.135 112.509L106.639 112.487C106.627 112.389 106.65 112.217 106.594 112.187C105.967 111.84 105.144 111.735 105.132 110.715C105.13 110.526 104.624 110.34 104.347 110.158C103.082 109.323 102.297 108.197 102.166 106.672C101.918 106.523 101.596 106.408 101.391 106.185C101.15 105.923 100.991 105.288 100.83 105.299C99.9934 105.356 100.366 104.611 100.093 104.319C99.8061 104.041 99.5843 103.703 99.4445 103.329C99.1914 102.604 98.6688 101.96 98.1992 101.326C96.6228 99.203 95.2392 96.9432 94.065 94.5739C93.1534 92.7341 92.1388 90.9416 91.428 89.0148C90.949 87.7168 90.3647 86.3666 90.3253 85.0254C90.289 83.8134 90.0706 82.5458 90.4212 81.2383C90.6015 81.2023 90.8201 81.1583 91.0716 81.109L91.1155 80.641L92.9511 80.7324C93.2107 81.2439 93.4391 81.8177 93.0903 82.5964C93.4642 82.3322 93.7365 82.1399 94.0301 81.9325L94.3837 82.3023C94.2764 82.5294 94.1819 82.7288 94.0854 82.9325L94.7912 83.1055L94.871 83.7665L96.0476 83.837C95.9607 84.5229 95.8232 85.0749 95.8411 85.6218C95.8585 86.1527 96.6778 86.5137 96.1494 87.2789C96.018 87.3042 95.7999 87.3462 95.4605 87.4112L96.2432 88.3185L96.315 87.4329C96.6122 87.7774 96.9343 87.991 97.0111 88.2712C97.2078 88.9117 97.48 89.5266 97.8219 90.103C98.1303 90.6447 98.4822 91.1604 98.8742 91.645C99.2152 92.0871 99.4342 92.6226 99.772 93.0674C100.129 93.5377 100.627 93.9085 100.944 94.3995C101.225 94.8346 101.344 95.3766 101.533 95.8656Z" fill="#5762C7"/>
<path d="M76.9559 134.902L75.8652 135.945C74.9752 135.949 74.2596 135.654 73.5977 134.81C73.6488 134.623 73.7435 134.279 73.8551 133.873C72.5075 133.52 73.3404 132.099 72.5141 131.599C72.2304 130.018 72.4331 128.443 72.0436 126.917C72.0143 126.679 72.0169 126.439 72.0512 126.202C72.0772 124.527 71.9518 122.852 71.6766 121.199C71.5297 120.045 71.467 118.881 71.489 117.717C71.5122 116.455 71.3687 115.195 71.0623 113.97C71.0328 113.733 71.0349 113.493 71.0684 113.256C71.0796 112.304 71.2052 111.335 71.063 110.406C70.949 109.658 71.0495 108.929 71.0212 108.196C70.9716 106.932 71.1641 105.657 71.2679 104.387C71.3722 103.108 71.4453 101.825 71.6275 100.557C71.7031 100.028 72.0262 99.5344 72.2452 99.0043L74.4479 99.1983C75.0066 99.3666 74.4938 100.211 74.7494 100.796L75.3644 100.89L76.6319 102.915C76.8315 105.471 77.1808 108.332 77.2757 111.228C77.3207 112.642 77.5093 114.047 77.8387 115.423C78.0791 116.416 77.9448 117.5 78.012 118.544C78.1905 121.309 78.3421 124.114 78.0663 126.859C77.8078 129.436 78.022 132.083 76.9559 134.902Z" fill="#5762C7"/>
</svg>
