<svg width="174" height="182" viewBox="0 0 174 182" fill="none" xmlns="http://www.w3.org/2000/svg">
<path d="M77.4185 120.807L78.6027 121.553L78.6228 122.993L79.3678 122.864L80.232 124.458L79.7611 125.544L80.7085 125.587L80.4654 127.734L79.8552 127.587L79.3707 128.356C78.2921 128.1 77.1349 128.445 76.2962 127.549C75.8078 128.194 75.0437 128.025 74.5928 127.864C73.5235 127.481 72.2709 127.725 71.3786 127.185C70.3362 126.556 69.1984 126.63 68.1409 126.321C66.8717 125.95 65.5568 125.581 64.2316 125.32C62.9379 125.065 61.5136 124.9 60.3436 124.11C57.7661 124.015 55.494 122.758 53.0683 122.099C51.1782 121.585 49.2002 121.183 47.4141 120.232C46.7928 119.901 45.8383 120.159 45.7915 118.861C44.8215 119.402 44.0051 119.524 43.139 118.936C42.5018 118.534 41.7998 118.244 41.0641 118.081C39.1759 117.612 37.4436 116.75 35.6386 116.072C33.9821 115.449 32.4081 114.602 30.7707 114.015C28.5632 113.222 26.8478 111.723 24.8588 110.639C24.5083 110.449 24.335 109.957 24.0131 109.682C23.6652 109.384 23.045 109.26 22.8961 108.909C22.7032 108.455 22.314 108.511 22.0693 108.279C21.7075 107.937 21.3763 107.562 20.9623 107.129C20.9817 106.696 20.4521 106.184 20.8499 105.556C20.9494 105.398 20.8389 104.906 20.6848 104.821C19.5192 104.177 19.8421 103.086 19.8478 101.998C20.6171 100.36 22.0281 99.7602 23.8679 100.001C24.1123 100.025 24.3523 100.082 24.5815 100.17C25.4515 100.544 26.279 101.102 27.1844 101.284C28.1801 101.485 28.9479 102.003 29.7669 102.49C30.5534 102.958 31.3273 103.754 32.138 103.794C33.0397 103.839 33.4964 104.957 34.4447 104.511C34.6205 105.395 35.6601 104.894 36.0151 105.49C36.8773 105.362 37.4103 106.058 38.1132 106.307C38.7639 106.537 39.398 106.833 40.0359 107.034C42.1192 107.714 44.1515 108.541 46.1176 109.509C47.3566 109.313 48.0404 110.671 49.2871 110.595C50.3575 110.529 51.2829 111.248 52.257 111.597C53.3623 111.994 54.4836 112.472 55.5846 112.938C56.6124 113.373 57.6908 113.694 58.7373 114.11C60.2799 114.724 61.9722 114.954 63.4681 115.749C64.5163 115.418 65.0778 116.628 66.1363 116.539C67.0246 116.465 67.965 116.95 68.7689 117.293C70.7307 118.13 72.8526 118.254 74.8236 118.969C75.2905 119.139 75.7597 119.302 76.3025 119.494C76.1067 119.945 75.9593 120.283 75.7272 120.817L77.4185 120.807Z" fill="#5762C7"/>
<path d="M61.3753 84.0018C61.2252 84.0359 61.0962 84.0651 60.9679 84.0942L60.9472 82.5628C60.6497 82.7974 60.4588 82.949 60.1532 83.1894C59.699 82.8184 58.9613 82.5101 58.7908 82.009C58.514 81.1954 57.7314 81.6178 57.3508 81.1349C57.0055 80.6968 56.2279 80.4978 56.0636 80.0413C55.7959 79.2973 55.1189 79.1927 54.6934 78.7434C54.2869 78.2661 53.9083 77.7656 53.5596 77.2446L52.3156 76.9168L52.4245 75.4067C51.9027 75.8529 51.7308 76 51.4505 76.2397C50.4682 74.3828 48.3047 73.7207 47.2523 71.9724C47.3238 71.7718 47.3857 71.598 47.5491 71.1392C47.1612 71.452 46.9967 71.5848 46.805 71.7394L45.7682 70.6272C45.9047 70.3468 46.0422 70.0638 46.2435 69.6498L45.6524 69.6881L45.1796 68.906L44.4333 69.4067C44.2249 68.9062 44.0174 68.4043 43.7705 67.8109C43.8513 67.643 43.9893 67.3603 44.1674 66.9934L42.6135 66.842C42.5621 65.6174 41.6087 64.4641 41.954 63.0785L42.5863 62.9033C42.4675 62.3794 42.2636 62.3756 41.4661 62.8838C41.3497 62.8285 41.2372 62.7651 41.1297 62.694C41.0871 62.6623 41.0819 62.5803 41.0072 62.381C41.2634 62.207 41.5488 62.0128 41.8636 61.7982L42.1118 60.521L42.8912 61.5246C43.0418 61.06 43.154 60.7146 43.3434 60.1303L44.3247 61.6158L43.7936 61.7943L44.4306 62.8635L45.1432 61.7328L46.5341 61.8611L48.3324 64.4098C48.7938 64.4981 50.0981 65.5757 50.5574 66.2733L51.1954 66.1603L51.9691 67.3843L51.4344 67.5439C51.4742 67.6458 51.496 67.8357 51.5636 67.8536C52.3295 68.0576 53.2404 67.9485 53.5271 69.0399C53.5802 69.242 54.1729 69.3052 54.5186 69.4268C56.0999 69.9829 57.2444 70.9798 57.7946 72.5803C58.1004 72.6733 58.4765 72.7107 58.7562 72.8945C59.0855 73.111 59.4263 73.7494 59.5966 73.6941C60.4784 73.4084 60.2781 74.3072 60.6496 74.5478C61.0324 74.7684 61.3611 75.0718 61.6116 75.4357C62.0777 76.1452 62.8113 76.6959 63.485 77.2492C65.7461 79.1033 67.8371 81.1558 69.7329 83.382C71.2048 85.1106 72.7745 86.7609 74.0543 88.6369C74.9167 89.9006 75.906 91.1921 76.3084 92.6201C76.6728 93.9105 77.2475 95.2116 77.2225 96.7082C77.0387 96.7952 76.8161 96.9011 76.5595 97.0215L76.6381 97.5353L74.6446 97.9302C74.2288 97.4512 73.8297 96.8971 73.9948 95.9682C73.6646 96.352 73.4242 96.6313 73.1649 96.9326L72.6863 96.631C72.7405 96.3585 72.7883 96.1193 72.837 95.8748L72.0335 95.8788L71.7705 95.1912L70.4895 95.4315C70.3984 94.6724 70.3977 94.0434 70.2316 93.4615C70.0704 92.8967 69.0947 92.7295 69.456 91.7668C69.5901 91.7044 69.8128 91.6008 70.1594 91.4399L69.0762 90.6769L69.237 91.646C68.8256 91.3564 68.4228 91.2138 68.2652 90.9338C67.8821 90.2995 67.425 89.713 66.9036 89.1866C66.4273 88.6884 65.9113 88.2297 65.3607 87.8152C64.8762 87.4325 64.4975 86.9169 64.0156 86.5304C63.5066 86.1218 62.8731 85.8577 62.4012 85.4162C61.983 85.0249 61.7091 84.4756 61.3753 84.0018Z" fill="#5762C7"/>
<path d="M77.256 35.529L78.1458 34.1171C79.0995 33.8738 79.9462 33.9978 80.883 34.7256C80.8782 34.9394 80.8691 35.3343 80.8584 35.8C82.3986 35.8161 81.887 37.5648 82.9076 37.8792C83.6362 39.4981 83.8417 41.2421 84.6694 42.7747C84.7646 43.0217 84.8265 43.2803 84.8533 43.5437C85.2753 45.3479 85.8594 47.1103 86.5985 48.8094C87.066 50.0084 87.4458 51.2398 87.7347 52.4939C88.0488 53.8543 88.541 55.1672 89.1987 56.3987C89.294 56.6455 89.3563 56.9037 89.3839 57.1668C89.6275 58.1909 89.7532 59.2644 90.1549 60.222C90.4781 60.9937 90.5662 61.8033 90.7931 62.5812C91.186 63.9246 91.3219 65.3441 91.5516 66.7341C91.783 68.1335 92.0493 69.5301 92.1943 70.939C92.2551 71.5261 92.0412 72.1427 91.9486 72.7701L89.5338 73.1534C88.8892 73.1229 89.2126 72.0797 88.7814 71.5208L88.0962 71.5844L86.1928 69.7527C85.2925 67.065 84.1495 64.0893 83.2701 61.0089C82.8422 59.5044 82.2624 58.0473 81.5397 56.6601C81.0153 55.66 80.8682 54.461 80.5158 53.3594C79.5818 50.4411 78.6659 47.4729 78.2246 44.4541C77.8098 41.6201 76.8694 38.8387 77.256 35.529Z" fill="#5762C7"/>
</svg>
