<svg width="46" height="28" viewBox="0 0 46 28" fill="none" xmlns="http://www.w3.org/2000/svg">
<path d="M32.1539 14.2912C31.4448 14.9996 30.711 15.6902 30.0358 16.4338C29.4979 17.0265 29.0232 17.6836 28.5193 18.3114C28.4029 18.4575 28.2853 18.6261 28.1317 18.7034C28.0098 18.7653 27.8334 18.7016 27.5307 18.6884C27.7419 18.3223 27.8435 18.0747 28.0038 17.8801C28.86 16.8475 29.731 15.8268 30.592 14.8001C30.7632 14.5947 30.9295 14.3835 31.0908 14.1721C31.653 13.4236 32.2152 12.6751 32.8611 11.8126C32.335 12.109 31.982 12.4353 31.6518 12.813C31.129 13.412 30.6979 14.1158 29.9668 14.4872C29.7549 14.5956 29.61 14.8806 29.444 15.0862C28.8256 15.8266 28.2172 16.5731 27.5937 17.3133C27.5274 17.3944 27.427 17.4405 27.325 17.5144C26.8795 17.1198 27.4351 16.8471 27.4292 16.4996L27.015 15.9158C27.2531 15.2597 27.6246 14.6989 28.0548 14.1911C28.8757 13.2355 29.7259 12.3091 30.5658 11.3823C30.9338 10.9726 31.3214 10.5806 31.8032 10.0695C31.5066 10.0397 31.3702 9.99459 31.2407 10.0114C28.674 10.3701 26.1291 10.8867 23.6437 11.7138C22.3328 12.1497 21.0291 12.6418 19.7619 13.214C17.9983 14.011 16.2435 14.8364 14.539 15.7704C12.8342 16.71 11.1746 17.7579 9.53367 18.8403C8.20277 19.7178 6.90396 20.6638 5.64815 21.6678C4.49493 22.5866 3.40331 23.5977 2.32132 24.6204C1.74522 25.161 1.4405 25.9039 1.35195 26.7346C1.33245 26.8962 1.31807 27.058 1.28929 27.292C1.18083 27.1192 1.11442 27.0211 1.05345 26.9177C0.653535 26.8947 0.771039 27.2694 0.686771 27.4842C0.252119 27.1684 -0.0162268 26.4622 0.125316 25.8747C0.21306 25.5088 0.367509 25.1459 0.540889 24.8117C1.65202 22.7373 3.03325 20.8874 4.55274 19.1388C5.5933 17.9407 6.72529 16.8529 7.89034 15.817C8.93612 14.8879 10.0775 14.0863 11.1904 13.2441C12.8351 12.0051 14.5819 10.9609 16.3601 9.99648C19.8951 8.08356 23.6173 6.7669 27.4461 5.83576C28.2859 5.63147 29.1392 5.46138 29.9784 5.26827C30.2234 5.21172 30.4597 5.12679 30.8314 5.01414C30.603 4.86977 30.4952 4.77546 30.3743 4.73099C28.6663 4.10213 26.9533 3.47304 25.2393 2.86072C24.8512 2.7206 24.4788 2.57556 24.2577 2.03382L25.7099 2.27628C25.2338 1.78506 24.5895 1.80742 23.9689 1.59557L24.0982 0.951468C24.7575 0.756124 25.3249 1.08889 25.9125 1.15927C26.2345 1.1957 26.545 1.34364 26.8593 1.42454C27.0421 1.4661 27.2374 1.469 27.4557 1.33848L24.4409 0.5351C24.8028 0.141974 25.196 0.0134584 25.6277 0.110667C26.491 0.305084 27.3554 0.48274 28.1998 0.737946C30.9151 1.56189 33.6263 2.36886 36.4686 2.58781C37.4519 2.66423 38.424 2.84657 39.3993 2.97305C40.0019 3.04969 40.5971 3.0756 41.2115 2.94552C41.8054 2.81454 42.4186 2.79642 42.9936 2.72624L44.0181 3.34215L43.9785 4.03497L44.5452 3.93081C44.7191 4.12882 44.9183 4.33353 45.096 4.55411C45.4515 4.99527 45.408 5.30704 44.9572 5.63469C44.8338 5.72453 44.7014 5.79158 44.3605 5.99519C44.5379 6.04212 44.6088 6.06201 44.6793 6.08748C44.7499 6.11296 44.815 6.1438 44.8853 6.17486L44.4213 7.45413C44.0379 7.68388 43.5698 8.04438 43.0538 8.25157C41.7584 8.77769 40.6751 9.64351 39.6665 10.6414C38.3749 11.9127 37.0739 13.1667 35.8115 14.4672C34.7949 15.5152 33.6703 16.4744 32.8966 17.7738C32.4472 18.5272 31.7405 18.9221 31.1179 19.4663L30.7244 19.3316L30.1232 19.7703C29.9089 19.4697 30.1093 19.2936 30.2478 19.1204C30.8203 18.3723 31.3976 17.6301 31.9701 16.8821C32.0592 16.7627 32.1191 16.6141 32.2108 16.4501C31.8541 16.3001 31.7016 16.5399 31.5461 16.7404C30.9258 17.5144 30.31 18.2997 29.6849 19.0679C29.508 19.2842 29.2919 19.4652 29.1169 19.6481C28.73 19.396 28.822 19.1367 28.9848 18.8974C29.2431 18.5165 29.5063 18.1415 29.7939 17.7899C30.4241 17.022 31.0687 16.2715 31.7143 15.5043L32.1578 14.3137L32.2273 14.1767L32.1385 14.2905L32.1539 14.2912ZM7.0273 17.5102C7.05936 17.4892 7.09174 17.4626 7.1238 17.4416L7.03622 17.3537C7.02401 17.2972 7.03201 17.2471 7.05541 17.1977L7.09996 17.1381L7.07466 17.221L6.59019 17.508L6.26864 17.8244L6.16637 17.904L6.26485 17.9811L6.19151 18.2748L5.7071 18.741L5.55836 18.9137C5.18712 19.2896 4.75237 19.6068 4.58036 20.1874L5.63023 19.0065L5.79373 18.8456L6.26883 18.3621L6.58107 18.0285L6.72019 17.8441C6.76955 17.7902 6.81924 17.7308 6.87374 17.6771L7.02698 17.5158L7.0273 17.5102ZM7.08758 19.3388L6.93884 19.5115L6.61691 19.6544L6.42967 19.7806L5.64226 20.4185L5.50314 20.6029L5.44447 20.6395L5.48389 20.5796L5.67114 20.4533L6.46817 19.8271L6.60728 19.6427L6.9244 19.4941L7.08758 19.3388L7.23632 19.166L7.56408 19.1915L7.23747 19.687L7.0682 19.8588L6.75717 19.9909L6.58854 20.1516L6.43467 20.3242L6.37535 20.372L6.41542 20.3009L6.56929 20.1284L6.73279 19.9675L7.04895 19.8356L7.21822 19.6637L7.85143 19.204L7.92419 19.1007L7.86587 19.2214L7.54196 19.2185L7.60338 18.7731L7.2607 19.1895L7.09752 19.3448L7.08758 19.3388ZM13.3668 12.9636L13.6881 12.832L13.8468 12.6652C14.172 12.6458 14.4423 12.5063 14.6343 12.2066L14.9462 12.0578L15.0245 11.9491L14.9655 12.081L14.6487 12.224C14.3142 12.2263 14.0577 12.3944 13.866 12.6885L13.7125 12.8554L13.3915 12.9815L13.3588 13.0137L13.3723 12.9582L13.3668 12.9636ZM14.6867 11.7384L14.3555 11.864L13.88 12.1738L12.8905 12.7468C12.4836 13.026 12.0822 13.2998 11.6754 13.5789L11.517 13.74L11.2002 13.8831L11.1508 13.9369L11.1806 13.8654C11.2861 13.8196 11.3967 13.774 11.5022 13.7282L11.6654 13.5729L12.9569 12.8449L13.8793 12.1849L14.3548 11.8752L14.6623 11.7149L14.8111 11.5422L15.1272 11.4103L15.1702 11.3786L15.142 11.4222L14.8358 11.5601L14.687 11.7328L14.6867 11.7384ZM12.0048 15.5592L12.3264 15.422C12.4893 15.3619 12.666 15.3304 12.8202 15.2419C14.4031 14.3642 15.9819 13.4695 17.5646 12.5974C18.3719 12.1509 19.1937 11.7218 20.0107 11.2868C20.0784 11.273 20.1515 11.2538 20.0524 11.2774C20.1133 11.2017 20.0691 11.2558 20.0248 11.3099C19.8796 11.3315 19.7256 11.3248 19.5887 11.3805C17.5013 12.1746 15.5682 13.3283 13.6351 14.482C13.1773 14.7533 12.7704 15.1221 12.3405 15.445L12.0237 15.5881C11.9868 15.6033 11.9551 15.6187 11.9868 15.6033C11.9692 15.6417 11.9868 15.6033 12.0048 15.5592V15.5592ZM16.3941 13.6387L16.0879 13.7766L16.0686 13.7534L16.37 13.6096L16.6923 13.4612C16.8122 13.4329 16.9411 13.4273 17.0517 13.3817C18.5764 12.7143 20.1014 12.0413 21.6264 11.3684C22.2808 11.0776 22.925 10.7864 23.5798 10.49L24.012 10.3072C24.08 10.2877 24.1476 10.2739 24.0694 10.2929C24.1239 10.2392 24.0749 10.2875 24.0313 10.3304L23.532 10.4263C23.3816 10.4478 23.228 10.4355 23.0862 10.4853C21.3637 11.1049 19.6453 11.7414 18.0113 12.6113C17.5605 12.8493 17.0138 12.9655 16.7016 13.4784L16.389 13.6385L16.3941 13.6387ZM26.0412 1.60737C26.1009 1.64357 26.1602 1.68536 26.0958 1.64335C26.167 1.65765 26.0958 1.64335 26.0246 1.62905C25.8907 1.35997 25.6611 1.41719 25.4389 1.43552C25.1729 1.13828 24.8285 1.13449 24.4626 1.23619L25.4501 1.4192C25.5833 1.69946 25.8376 1.5705 26.0412 1.60737V1.60737ZM30.3332 6.44314C30.1218 6.45075 29.8877 6.31733 29.7184 6.57881L28.5839 6.71986C29.1047 6.78734 29.2609 6.75493 29.704 6.56138C29.9195 6.57076 30.154 6.6986 30.3187 6.42571L30.9858 6.45475C30.6455 6.28871 30.4787 6.23664 30.3328 6.44873L30.3332 6.44314ZM22.4353 8.91109C21.8263 8.94619 21.2857 9.22511 20.7451 9.50404C20.6775 9.5179 20.6149 9.53198 20.6775 9.5179C20.6291 9.555 20.6775 9.5179 20.7259 9.4808C21.3567 9.51386 21.9179 9.32545 22.4209 8.89366C22.4882 8.88538 22.5504 8.87689 22.4728 8.88471C22.5376 8.83152 22.4889 8.87421 22.4353 8.91109V8.91109ZM24.0106 7.98826C23.4009 8.03454 22.8135 8.14339 22.3197 8.59239L21.949 8.59866L21.9686 8.70593L22.3005 8.56915C22.8844 8.43214 23.4934 8.39704 23.991 7.97061L24.363 7.94199L24.3338 7.8231L24.0054 7.98804L24.0106 7.98826ZM31.4257 3.34287L30.79 3.12476L30.7547 3.29126L31.4423 3.32119C32.0806 3.67385 32.9264 3.81708 33.6264 3.62911L31.4205 3.34265L31.4257 3.34287ZM29.9629 2.2934L29.9296 2.24713L29.9844 2.27753C30.5322 2.50302 31.0721 2.77857 31.6381 2.95444C32.4114 3.19535 33.2087 3.37569 34.0268 3.37209C33.6557 3.20471 33.2773 3.07621 32.8914 2.9866C31.9174 2.74815 30.9424 2.52647 29.9677 2.29921L29.9629 2.2934ZM28.7942 9.34474C29.5889 9.39054 32.6905 8.85343 33.1512 8.53182C32.329 8.60804 31.5055 8.70662 30.6887 8.8671C30.0541 8.99071 29.4304 9.1932 28.8035 9.36195L28.4783 9.3814L28.4931 9.48287L28.7839 9.3443L28.7942 9.34474ZM33.4083 13.8529C34.8132 12.6706 37.3211 10.1864 37.565 9.69856C37.3752 9.77991 37.2197 9.80115 37.1219 9.89211C35.9505 11.0398 34.7784 12.1986 33.6211 13.3692C33.5118 13.4821 33.4891 13.6996 33.4228 13.8703L33.4032 13.8527L33.4083 13.8529ZM26.0545 9.39911C26.1777 9.40447 26.3098 9.43263 26.4294 9.40983C28.721 9.00549 31.0128 8.59556 33.305 8.18004C33.4817 8.14852 33.6507 8.07186 33.8235 8.01778C33.5368 7.90447 33.2597 7.89241 32.9903 7.92549C32.4878 7.98763 31.9888 8.07793 31.4911 8.14589C29.9147 8.36852 28.3331 8.59092 26.7978 9.0842C26.5464 9.16287 26.3117 9.30948 26.0683 9.42772C25.9907 9.43554 25.9186 9.438 26.0221 9.42571C25.9362 9.48918 25.9952 9.44694 26.0542 9.4047L26.0545 9.39911ZM44.5904 4.76174C44.099 4.71795 43.7417 4.57917 43.3622 5.01074C43.7922 5.04626 44.1438 5.19599 44.5904 4.76174ZM43.1939 5.34508C42.894 5.10238 42.6564 5.12004 42.3871 5.42198C42.6793 5.61954 42.9208 5.71407 43.1939 5.34508V5.34508ZM42.4664 4.66368C42.2132 4.53317 42.0129 4.55805 41.8654 4.73834C42.0781 4.88762 42.2638 4.8789 42.4664 4.66368ZM41.651 5.24991C41.5127 5.09079 41.3972 5.1007 41.3047 5.27964L41.651 5.24991V5.24991ZM32.6437 4.35369L32.6478 4.28105L32.2527 4.26385L32.2486 4.33649L32.6437 4.35369Z" fill="white"/>
</svg>
