<svg width="190" height="191" viewBox="0 0 190 191" fill="none" xmlns="http://www.w3.org/2000/svg">
<g clip-path="url(#clip0_5920_31562)">
<path d="M89.9919 122.895L92.2892 124.754L92.6355 125.059L93.063 125.271C94.9868 127.427 97.1247 129.35 99.4564 131.066L99.6137 131.655C99.5698 131.821 99.4221 132.07 99.4921 132.142C99.7529 132.474 100.065 132.76 100.388 133.044C101.704 134.203 103.02 135.373 104.367 136.507C104.839 136.902 105.268 137.485 106.295 137.344C105.721 136.89 105.333 136.62 104.997 136.293C104.186 135.538 103.407 134.76 102.606 133.993L103.229 133.681C102.691 133.443 102.299 133.272 101.907 133.1C101.802 132.998 101.686 132.886 101.581 132.783L101.266 132.455L100.941 132.137L100.616 131.82L100.291 131.503L99.6096 130.903C99.4541 130.685 99.3405 130.441 99.1552 130.268C97.4912 128.771 95.8278 127.286 94.1448 125.835C93.8454 125.581 93.4234 125.456 93.063 125.271L92.7886 124.897L92.443 124.602C91.5439 123.483 90.6345 122.374 89.7353 121.255C89.321 120.736 88.7481 120.293 88.7316 119.346C89.7102 119.829 89.9851 120.727 90.5684 121.333C91.1279 121.907 91.7701 122.411 92.4922 122.801L91.0907 120.635C91.1415 120.577 91.1924 120.519 91.2432 120.462C91.2818 120.383 91.3326 120.325 91.4065 120.288L91.5081 120.172C91.7049 120.182 91.9619 120.111 92.0773 120.213C92.4453 120.516 92.7732 120.877 93.0904 121.238C95.8515 124.397 99.1832 126.932 102.433 129.547C104.981 131.587 107.459 133.718 110.099 135.643C113.514 138.128 117.189 140.238 121.001 142.088C121.912 142.531 122.891 142.851 123.731 143.386C125.378 144.436 126.414 145.83 125.764 147.953C125.574 148.564 125.484 149.202 125.282 149.803C125.162 150.138 124.957 150.51 124.675 150.703C123.142 151.791 121.561 152.807 119.582 152.867C118.44 152.896 117.335 153.184 116.37 153.768C114.597 154.851 112.658 155.028 110.65 154.981C107.868 154.929 105.086 154.877 102.299 154.912C97.2686 154.97 92.2334 155.126 87.2022 155.173C83.7285 155.208 80.2365 155.299 76.7947 154.635C75.7023 154.421 74.6167 154.141 73.5223 153.894L72.9682 152.545L71.5865 151.892L71.6527 150.875C73.6005 150.49 75.4325 151.027 77.2783 151.095C79.135 151.163 80.9863 151.318 82.8458 151.428L82.8664 151.067C81.2024 150.944 79.5323 150.898 77.8844 150.686C75.8742 150.432 73.8782 150.058 71.8829 149.694C71.6183 149.646 71.3914 149.333 71.185 149.172C71.2664 148.393 71.6874 148.159 72.3027 148.24C72.8298 148.305 73.3428 148.49 73.8707 148.566C75.7173 148.819 77.5756 149.082 79.4296 149.281C79.9235 149.336 80.4961 149.431 81.0186 148.907C80.563 148.424 79.9756 148.44 79.4274 148.387C77.245 148.166 75.0646 147.978 72.8808 147.735C72.332 147.672 71.6598 147.725 71.3606 146.96C71.5701 146.14 72.252 146.238 72.8761 146.286C73.6528 146.335 74.4316 146.416 75.2461 146.201L72.5069 145.449C72.8407 144.984 73.2998 144.664 73.8844 144.489L74.374 143.619C76.0054 143.57 77.4962 142.68 79.2433 143.081C82.4505 143.826 85.7261 143.76 88.9833 143.575C89.1895 143.562 89.3916 143.484 89.7666 143.383C89.4781 143.129 89.3341 142.921 89.1325 142.835C83.2015 140.379 77.3558 137.72 71.6746 134.736C66.9849 132.266 62.3913 129.593 58.417 126.032C56.5105 124.322 54.6129 122.579 53.2616 120.344C52.9579 119.851 52.5071 119.444 52.0889 119.035C49.2786 116.304 46.7367 113.338 44.5996 110.052C41.8347 105.803 39.7247 101.23 38.8293 96.2198C37.4108 88.29 37.6564 80.4835 40.7138 72.858C42.2195 69.1122 43.9628 65.5038 46.249 62.2096C49.823 57.0576 54.315 52.8063 59.5661 49.3567C66.8367 44.5912 74.7233 41.2903 83.1558 39.2079C88.7012 37.8209 94.364 37.0801 100.054 36.4248C105.722 35.7709 111.388 35.7601 117.049 36.2072C120.893 36.5081 124.644 37.4033 128.37 38.4199C129.711 38.7816 131.072 39.1093 132.435 39.2952C133.589 39.4508 134.298 39.9833 134.681 41.0377C134.477 42.282 133.641 42.8472 132.537 42.7973C131.106 42.7356 129.666 42.5437 128.263 42.2404C124.706 41.4746 121.147 40.6762 117.508 40.5148C114.361 40.3768 111.19 40.371 108.038 40.4947C99.2217 40.8253 90.5886 42.3212 82.141 44.8513C75.0191 46.9813 68.3757 50.127 62.3454 54.5196C54.9092 59.9384 49.5102 66.8952 46.6472 75.696C44.376 82.6613 44.2748 89.6523 46.5078 96.6805C48.2939 102.331 51.534 107.029 55.6454 111.203C56.2856 111.849 56.9056 112.518 57.5459 113.164C58.1509 113.768 58.7639 114.329 59.6704 114.533C60.146 114.644 60.5446 115.087 61.1589 115.495C61.6986 115.243 62.2626 115.545 62.7468 116.135C65.1571 119.088 68.2543 121.19 71.542 123.03C74.9986 124.958 78.5236 126.761 82.0093 128.632C82.483 128.885 82.9161 129.184 83.3803 129.46L83.0442 129.83L82.7502 130.175L82.6661 130.224L82.7156 130.145L83.0096 129.799L83.3464 129.44C85.9801 130.592 88.6146 131.754 91.2584 132.894C92.8267 133.568 94.4045 134.219 95.9809 134.849C96.4057 135.019 96.8691 135.109 97.4727 135.005C97.1692 134.687 96.8758 134.357 96.5628 134.061C94.3446 131.902 92.1271 129.755 89.9198 127.596C88.3629 126.071 87.3619 124.206 86.7684 122.064C86.8382 121.275 87.1767 120.6 88.0492 120.098L88.9584 121.718L88.9896 121.694L87.7922 120.855C87.942 121.499 88.321 121.976 88.6159 122.503C88.7504 122.734 88.7378 123.051 88.789 123.342L88.6867 123.446L88.7435 123.312C89.6679 123.111 89.7443 124.316 90.6107 124.403L90.0273 122.936L90.0069 122.959L89.9919 122.895ZM98.6626 132.979L98.3279 132.685L97.9925 132.379L97.6469 132.085L97.3217 131.768L96.9762 131.474L96.6401 131.157L96.5918 131.084L96.6807 131.111L97.0168 131.428L97.3624 131.722L97.6876 132.039L98.0332 132.333L98.3787 132.627L98.7134 132.922L98.7949 133.004L98.6829 132.956L98.6626 132.979ZM81.8204 131.15L81.9269 131.11L81.8435 131.17L81.7703 131.218L81.8306 131.138L81.8204 131.15ZM59.8313 120.33L59.5684 119.966L59.2628 119.614L57.9111 118.404L57.4842 118.202L57.2538 117.661L57.0558 117.804L57.5052 118.19L57.7593 118.588L59.1314 119.775L59.5278 120.012L59.8726 120.295L59.9636 120.355L59.832 120.341L59.8313 120.33ZM46.1009 71.2086L46.2506 70.9921L46.1356 71.2391L45.8499 71.8892L45.5534 72.54C44.8557 73.565 44.3242 74.6339 44.5182 75.9727L45.5765 72.5604L45.8391 71.8899L46.0901 71.2093L46.1009 71.2086ZM63.8742 50.794L63.7495 50.8891L63.8288 50.7642C65.2278 50.3159 68.2928 48.476 69.0292 47.5467C67.8345 48.1237 66.6514 48.7109 65.5294 49.4032C64.9213 49.7796 64.4226 50.3343 63.8641 50.8056L63.8742 50.794ZM50.9788 61.8768L51.1414 61.6922L51.0249 61.9175C49.4104 63.2621 47.948 65.4579 47.5259 67.3916C48.0759 66.6157 48.4784 66.089 48.8462 65.5317C49.5818 64.4172 50.2957 63.304 51.0089 62.18C51.0482 62.1121 50.9958 61.9738 50.9896 61.8761L50.9788 61.8768ZM47.6372 64.6822L47.7306 64.4366L47.6712 64.7019C45.8119 66.1383 45.0263 68.1822 44.4891 70.3629L44.4071 70.4444L44.4436 70.3331C45.7606 68.5933 46.851 66.7153 47.6257 64.6721L47.6372 64.6822ZM50.5095 110.287C50.6035 109.366 49.9145 108.81 49.412 108.275C48.1368 106.896 47.0921 105.371 46.2141 103.727C46.1155 103.548 45.9011 103.431 45.7042 103.248C45.6508 103.436 45.5999 103.494 45.6237 103.525C46.6546 106.206 48.6237 108.216 50.5508 110.252C50.6092 110.313 50.6574 110.386 50.5984 110.314C50.6981 110.34 50.5984 110.314 50.521 110.297L50.5095 110.287ZM91.0881 39.0314L92.1034 38.8907L92.0483 38.709L91.1241 39.0836C90.5923 39.1174 90.0435 39.0541 89.5281 39.174C86.5766 39.8844 83.6279 40.6381 80.6792 41.3918C80.5612 41.4211 80.4746 41.6009 80.3729 41.7164L79.6615 41.8378L79.7274 42.0188L80.3268 41.6757C80.8029 41.6237 81.2933 41.6253 81.7552 41.5197C84.1926 40.9509 86.6185 40.372 89.0416 39.7497C89.7387 39.5747 90.4066 39.2817 91.0888 39.0423L91.0881 39.0314ZM65.0001 48.4452L64.9195 48.5484L64.9648 48.4039C65.2238 48.3656 65.5074 48.3694 65.7298 48.2682C68.0494 47.2166 70.3676 46.1432 72.6743 45.0598C73.2241 44.7961 73.7489 44.4795 74.2967 44.1832C73.9832 44.0505 73.7227 44.067 73.4888 44.1582C72.0655 44.7388 70.6069 45.2781 69.2339 45.9646C67.7769 46.6999 66.4068 47.6041 64.9994 48.4344L65.0001 48.4452ZM85.2045 41.4424L97.0004 38.9614C92.93 39.2088 88.9678 39.9614 85.2045 41.4424ZM45.1239 100.114L45.4881 100.014C45.0501 98.7779 44.7069 97.4921 44.1631 96.3063C43.6187 95.1095 43.6166 93.704 42.7762 92.3081C42.5506 95.4497 44.0342 97.7092 45.1131 100.114L45.1239 100.114ZM44.0904 73.352C42.4048 75.6383 41.6354 78.2805 41.877 80.5425C42.6723 77.9641 43.3756 75.653 44.0904 73.352ZM49.5596 110.086C50.7004 112.781 53.1584 115.284 54.788 115.551C53.8008 114.589 52.8978 113.753 52.0456 112.859C51.1935 111.965 50.3813 111.014 49.5603 110.096L49.5596 110.086ZM52.6512 59.3844C53.5784 58.541 54.4811 57.6556 55.4544 56.8528C56.9028 55.6386 57.6503 54.8829 57.9827 54.1099C55.5874 55.515 53.5421 57.4536 52.6621 59.3837L52.6512 59.3844ZM106.831 37.444C109.577 37.9563 112.255 37.9171 114.935 37.7361C113.614 37.5366 112.3 37.4347 110.98 37.4095C109.594 37.3776 108.214 37.4325 106.831 37.444ZM40.3819 90.466C40.9033 89.4086 40.9212 88.3179 40.4238 86.6605C39.95 87.7802 39.9379 88.62 40.3819 90.466ZM41.1681 78.2992C40.0941 80.2634 39.9276 81.4181 40.3305 82.7872L41.1681 78.2992ZM41.751 87.8293C42.0868 86.4242 42.3358 85.0245 41.9617 83.2504C41.6045 85.0056 41.3555 86.4052 41.751 87.8293ZM56.29 53.8796C54.8281 54.5389 53.7152 55.5467 52.7345 57.0908C54.1526 56.0855 55.2486 55.1552 56.29 53.8796ZM43.6535 82.6091L43.3245 82.5755C43.1575 83.8936 42.5876 85.2156 43.445 86.5341L43.6528 82.5982L43.6535 82.6091ZM45.2157 105.338C44.8261 103.663 44.5543 103.157 43.4517 102.094C43.8409 103.42 44.2666 104.461 45.2157 105.338ZM41.8262 94.8528C41.733 95.9592 41.9402 96.9921 42.6699 98.188C42.714 96.8232 42.4634 95.793 41.8262 94.8528ZM40.8323 94.6434C40.4839 95.6789 40.6286 96.585 41.4704 97.3162L40.8323 94.6434ZM56.354 56.9483C57.1459 56.5494 57.8563 56.0684 58.4346 55.051C57.2615 55.4524 56.7853 56.1909 56.354 56.9483ZM113.496 149.69C111.784 149.33 111.005 149.413 110.002 149.912L113.496 149.69ZM63.9165 48.198C63.2747 48.0426 62.8781 48.3184 62.6996 48.9399L63.9165 48.198ZM39.3869 87.6634L39.2024 87.6751L39.3132 89.4224L39.4977 89.4107L39.3869 87.6634ZM119.552 146.211C119.954 146.546 120.197 146.933 120.812 146.502C120.453 146.165 120.218 145.722 119.552 146.211ZM122.775 146.356L122.865 146.056L121.932 145.766L121.832 146.089L122.765 146.367L122.775 146.356ZM84.2489 41.6665L84.2623 41.5349L83.5135 41.5824L83.5197 41.6801L84.2489 41.6665ZM133.586 40.7803L133.575 40.6067L132.924 40.648L132.935 40.8216L133.586 40.7803Z" fill="#F9B500"/>
<path d="M91.0695 120.647C90.4501 120.501 90.2902 120.043 90.1254 119.334C90.7984 119.466 91.1948 119.702 91.4754 120.175L91.3738 120.29C91.3345 120.358 91.2837 120.416 91.2105 120.464C91.1596 120.522 91.1088 120.579 91.058 120.637L91.0695 120.647Z" fill="#F9B500"/>
<path d="M88.9447 121.676L89.6249 122.264L89.6663 122.229C89.2234 122.29 88.9926 122.087 88.9752 121.641L88.944 121.665L88.9447 121.676Z" fill="#F9B500"/>
<path d="M89.6249 122.264L89.9918 122.895L90.0121 122.872L89.6662 122.229L89.6249 122.264Z" fill="#F9B500"/>
<path d="M101.591 132.772L101.937 133.066L102.652 134.034C101.398 133.503 100.336 132.732 99.545 131.605L100.139 131.687L100.494 131.959L100.87 132.218L101.215 132.512L101.581 132.783L101.591 132.772Z" fill="#F9B500"/>
</g>
<defs>
<clipPath id="clip0_5920_31562">
<rect width="126.145" height="142.457" fill="white" transform="translate(98.7073) rotate(43.8595)"/>
</clipPath>
</defs>
</svg>
