<svg width="57" height="79" viewBox="0 0 57 79" fill="none" xmlns="http://www.w3.org/2000/svg">
<g clip-path="url(#clip0_4_10)">
<path d="M30.998 8.10738C33.3044 6.27007 35.1025 8.06829 35.8454 12.9547C36.6661 18.3884 39.0509 22.5321 42.3344 24.2131L30.998 8.10738ZM30.998 8.10738C27.2962 11.0758 16.6682 18.7241 14.3043 20.1821L30.998 8.10738ZM26.1661 1.05049L26.1646 1.0508C18.0472 2.76293 12.5131 9.80493 10.576 17.6332C8.63895 25.4609 10.2591 34.2353 16.6478 39.4551L16.6481 39.4553C25.1652 46.4039 33.0946 46.7704 39.2451 44.6918C45.3468 42.6296 49.6724 38.1687 51.0648 35.4683C51.2164 35.183 51.4822 34.8161 51.7934 34.4632C52.1058 34.1088 52.4369 33.7993 52.7034 33.616L52.7034 33.616L52.71 33.6114C55.0531 31.9438 56.1118 29.0973 56.2473 25.8858C56.383 22.6692 55.6001 19.0094 54.1722 15.578C51.494 9.08308 46.546 5.01993 41.2526 2.799C35.9694 0.582367 30.3156 0.188519 26.1661 1.05049L26.1661 1.05049ZM16.4793 14.9156L16.4793 14.9156L16.4825 14.9108C19.2429 10.7218 22.2765 7.88522 25.6871 6.29831C29.0925 4.71388 32.9207 4.35338 37.3136 5.19726C41.1847 5.9565 44.7561 8.12424 47.3591 10.9894C49.9641 13.8569 51.5683 17.3872 51.5683 20.8512C51.5683 21.1588 51.5641 21.3282 51.5441 21.4371C51.5439 21.4385 51.5436 21.4399 51.5434 21.4412C51.5055 21.4476 51.4373 21.4553 51.3224 21.4562C51.1064 21.4578 50.8119 21.4378 50.384 21.4079C49.2328 21.3229 47.8752 21.6086 46.7602 22.0587C46.1993 22.2851 45.68 22.5609 45.2667 22.8692C44.8657 23.1683 44.5076 23.54 44.362 23.9768L44.3619 23.9767L44.3585 23.9878C44.2821 24.2362 44.2259 24.3468 44.187 24.3954C44.1822 24.4014 44.1817 24.4042 44.18 24.4056C44.1779 24.4072 44.174 24.4067 44.158 24.4071C44.0861 24.4091 43.9388 24.3843 43.6545 24.2736C43.3801 24.1668 43.0273 24.0004 42.5602 23.7669C39.4816 22.1897 37.1487 18.2355 36.3398 12.88L36.3397 12.8796C35.9658 10.4203 35.3132 8.6077 34.3616 7.65609C33.8677 7.16225 33.2765 6.88495 32.6106 6.90268C31.9604 6.92 31.3135 7.21679 30.6865 7.71629L30.6852 7.7173C28.625 9.36942 24.3933 12.4898 20.6455 15.1773C18.773 16.52 17.0258 17.7515 15.7357 18.6342C15.2401 18.9733 14.8143 19.2594 14.476 19.4799C14.5892 19.1037 14.7477 18.6478 14.934 18.1618C15.4055 16.9321 16.0242 15.5891 16.4793 14.9156ZM14.2761 20.1995C14.0112 20.3619 13.857 20.4413 13.8369 20.4212C13.7783 20.3772 13.7856 20.1972 13.8426 19.9243C13.8615 19.9241 13.8831 19.925 13.9068 19.928C13.957 19.9344 14.0476 19.9544 14.1369 20.0212C14.1388 20.0226 14.1406 20.024 14.1425 20.0255C14.1604 20.0393 14.1761 20.0537 14.19 20.068C14.236 20.1158 14.261 20.1637 14.2738 20.194C14.2746 20.1959 14.2753 20.1977 14.2761 20.1995ZM17.6557 21.9027L17.6572 21.9018C19.7249 20.6218 22.4632 18.7272 24.8443 16.9732C26.0356 16.0957 27.1412 15.2507 28.0317 14.5326C28.9098 13.8245 29.6063 13.2183 29.9608 12.8218C30.1611 12.6051 30.3236 12.4519 30.4514 12.352C30.456 12.41 30.4589 12.4801 30.4589 12.5638L30.459 12.5668C30.4997 19.2994 36.6596 25.7717 43.9428 26.8187C43.9433 26.8188 43.9438 26.8188 43.9443 26.8189L44.7191 26.9351C44.7197 26.9352 44.7203 26.9353 44.7209 26.9354C46.3316 27.1892 47.9863 26.8088 49.3054 25.8738C49.3064 25.8731 49.3074 25.8724 49.3084 25.8717L49.9178 25.4528C50.1295 25.3234 50.3622 25.292 50.5419 25.3519C50.8027 25.4389 50.9567 25.5869 51.0077 25.7396L51.0132 25.756L51.0198 25.7721C51.6746 27.3578 51.1615 29.527 49.7695 30.8476L49.7689 30.8482C45.2778 35.1246 42.0421 37.7153 39.0053 39.1742C35.9939 40.6207 33.1464 40.9688 29.3953 40.6803C21.0338 40.0016 13.9455 32.5849 13.83 24.4536C13.8679 24.4223 13.915 24.3849 13.9718 24.3413C14.1704 24.1885 14.4602 23.9804 14.8234 23.731C15.5483 23.2333 16.5476 22.5831 17.6557 21.9027ZM30.6466 12.2295C30.6467 12.2295 30.6463 12.2296 30.6456 12.2298L30.6466 12.2295Z" fill="#F9B500" stroke="#F9B500"/>
<path d="M21.8381 48.3823L21.8381 48.3823C27.3392 47.8125 31.099 47.8991 33.7453 48.192C35.8582 48.4259 37.2635 48.7933 38.2358 49.0475C38.4798 49.1113 38.6965 49.1679 38.8903 49.2136C38.8907 49.2137 38.8911 49.2138 38.8915 49.2139L38.7769 49.7006C46.5952 51.4987 51.6772 56.8153 54.8436 66.6273C58.4999 77.952 46.81 77.7605 41.2104 77.6687C40.045 77.6496 39.1433 77.6348 38.6988 77.7291L21.8381 48.3823ZM21.8381 48.3823L21.8362 48.3825M21.8381 48.3823L21.8362 48.3825M21.8362 48.3825C16.5751 48.9469 11.96 52.0627 8.45603 55.5469C4.95214 59.031 2.4973 62.945 1.56872 65.225C0.548296 67.681 0.453971 69.8403 1.50011 71.6568C2.53216 73.4488 4.60693 74.7841 7.63223 75.771C13.683 77.745 23.9161 78.444 38.7061 78.2291L38.7549 78.2284M21.8362 48.3825L38.7549 78.2284M38.7549 78.2284L38.8026 78.2182M38.7549 78.2284L38.8026 78.2182M38.8026 78.2182C39.0606 78.1635 39.5635 78.1495 40.3101 78.1561M38.8026 78.2182L40.3101 78.1561M37.6436 52.6714L37.1532 52.7694C37.1535 52.7706 37.1558 52.7821 37.1472 52.8093C37.1396 52.8332 37.1252 52.8636 37.1022 52.8976C34.4706 55.6225 31.2152 56.0423 29.8131 56.1197C29.5211 56.1159 29.2553 55.978 29.1303 55.8114L29.1305 55.8114L29.1228 55.8016C28.5737 55.1063 27.6836 53.6599 27.3873 51.7739C27.3474 51.5124 27.5042 51.3539 27.6441 51.3267C29.2464 51.0602 33.1826 50.6881 37.0665 52.6489L37.0859 52.6587L37.1043 52.666C37.1062 52.6675 37.1109 52.6718 37.1176 52.6813C37.1315 52.7009 37.1458 52.7323 37.1534 52.7702L37.6436 52.6714ZM37.6436 52.6714C37.6826 52.867 37.6045 53.0625 37.4871 53.2187M37.6436 52.6714C37.6042 52.4762 37.4871 52.2806 37.2918 52.2025L37.4871 53.2187M37.4871 53.2187C34.7117 56.1115 31.2717 56.5417 29.8253 56.6198C29.3951 56.6198 28.965 56.4242 28.7304 56.1115C28.144 55.3689 27.2062 53.8442 26.8932 51.8505L37.4871 53.2187ZM48.667 63.6907C48.7151 63.8057 48.7638 63.9216 48.8127 64.0383C49.2734 65.1359 49.7634 66.3035 50.1516 67.4867C50.6456 68.9928 50.9522 70.4626 50.8292 71.763C50.8266 71.7698 50.8173 71.7916 50.791 71.8296C50.7485 71.8912 50.6774 71.972 50.5697 72.0695C50.3541 72.2647 50.033 72.4899 49.6204 72.7266C48.7982 73.1984 47.6717 73.6825 46.4529 74.0443L46.4493 74.0454C46.2226 74.1146 45.689 74.1874 44.8636 74.2509C44.0585 74.3127 43.0251 74.3627 41.8358 74.4007C39.4581 74.4768 36.4742 74.5049 33.483 74.4878C30.4918 74.4707 27.4981 74.4085 25.1008 74.3044C23.9018 74.2523 22.856 74.19 22.036 74.1179C21.1984 74.0444 20.6428 73.9641 20.392 73.8885L20.3921 73.8883L20.3806 73.8852L20.0294 73.7882L23.1984 70.2854C23.1984 70.2854 23.1985 70.2854 23.1985 70.2853C26.7249 66.3888 30.0188 63.2032 32.9049 60.874C35.8042 58.5341 38.2462 57.0965 40.0721 56.6353L40.0753 56.6345C40.8391 56.4362 41.3377 56.3212 41.7462 56.3097C42.12 56.2991 42.4171 56.3761 42.7684 56.6011C43.145 56.8423 43.5818 57.2521 44.2121 57.9312C44.6138 58.3639 45.0777 58.8876 45.6409 59.5233C45.8257 59.732 46.0213 59.9528 46.2289 60.1863C46.1272 60.2303 46.0306 60.2722 45.9386 60.3121C45.6241 60.4486 45.3626 60.562 45.1292 60.657C44.702 60.8307 44.4453 60.9091 44.2375 60.9306C43.8496 60.9708 43.5528 60.8332 42.4416 60.2776C42.4413 60.2774 42.441 60.2773 42.4407 60.2771L42.217 60.7243M48.667 63.6907L31.7796 70.1845C27.636 72.2172 26.6979 72.4128 26.6979 71.2007C26.6979 70.3017 29.7078 68.5426 35.1026 66.2362C38.6291 64.7402 39.6906 64.3031 39.7723 63.727C39.8102 63.4602 39.6377 63.1635 39.4026 62.718M48.667 63.6907C48.6555 63.6979 48.6441 63.7051 48.6327 63.7124C48.2676 63.943 47.9357 64.1528 47.6345 64.3268C47.1882 64.5846 46.7633 64.7921 46.3227 64.8994C45.3906 65.1263 44.5244 64.8735 43.3642 64.1615C43.0186 63.9525 42.73 63.7924 42.4957 63.6776C42.7469 64.1943 42.8991 64.7235 42.6709 65.2409C42.546 65.5242 42.3294 65.749 42.0718 65.9424C41.8147 66.1354 41.4868 66.3189 41.0984 66.5094C40.5527 66.7769 39.8346 67.0828 38.9387 67.4644C38.5675 67.6225 38.1656 67.7937 37.7329 67.9805C36.2443 68.6231 34.3567 69.4647 32.0018 70.6325L31.9999 70.6334C29.9476 71.6402 28.6132 72.2326 27.7836 72.3996C27.3801 72.4808 26.9362 72.4971 26.5997 72.2318C26.2551 71.9602 26.1979 71.5335 26.1979 71.2007C26.1979 70.9511 26.3004 70.7278 26.4223 70.5457C26.5469 70.3597 26.7185 70.1767 26.9194 69.9972C27.3215 69.6379 27.8986 69.2424 28.6235 68.8154C30.0775 67.9589 32.2014 66.9327 34.906 65.7764L34.9073 65.7759C34.9892 65.7411 35.0697 65.707 35.1489 65.6734C36.3205 65.1765 37.1966 64.8049 37.8473 64.5064C38.5547 64.1819 38.9438 63.9662 39.1485 63.7978C39.245 63.7184 39.2701 63.6734 39.2753 63.6622C39.2759 63.661 39.28 63.6589 39.2756 63.6301C39.2691 63.5883 39.2475 63.5183 39.1901 63.3958C39.1441 63.298 39.0878 63.1916 39.0173 63.0587C38.9994 63.025 38.9806 62.9895 38.9608 62.952M48.667 63.6907L38.9608 62.952M42.217 60.7243C38.9725 59.0827 37.8779 59.8643 39.4026 62.718M42.217 60.7243C43.1211 61.1764 43.5807 61.4133 44.0502 61.4351C44.615 61.4613 45.1943 61.1762 46.5792 60.5798L42.217 60.7243ZM39.4026 62.718L38.9604 62.9513C38.9605 62.9516 38.9607 62.9518 38.9608 62.952M39.4026 62.718L38.9616 62.9536C38.9614 62.9531 38.9611 62.9526 38.9608 62.952M40.3101 78.1561C40.5782 78.1585 40.8751 78.1633 41.1937 78.1685M40.3101 78.1561L41.1937 78.1685M41.1937 78.1685C41.7235 78.1772 42.3134 78.1868 42.9305 78.1876M41.1937 78.1685L42.9305 78.1876M42.9305 78.1876C44.9188 78.19 47.3178 78.1026 49.509 77.5905M42.9305 78.1876L49.509 77.5905M49.509 77.5905C51.6921 77.0804 53.7536 76.1292 54.962 74.3365M49.509 77.5905L54.962 74.3365M54.962 74.3365C56.1831 72.5247 56.4512 69.9792 55.3195 66.4736L54.962 74.3365ZM23.7506 58.787L23.7507 58.787L23.7554 58.7815C23.9142 58.5953 24.2496 58.4418 24.7727 58.3916C25.2782 58.3431 25.8723 58.4009 26.4291 58.5412C26.991 58.6829 27.4683 58.8968 27.762 59.1261C28.0706 59.367 28.0408 59.4968 28.0258 59.5382C27.9844 59.6528 27.8679 59.8667 27.6603 60.1785C27.4599 60.4795 27.1955 60.8411 26.885 61.241C26.2644 62.0403 25.4729 62.9759 24.6714 63.8572C23.8685 64.7402 23.065 65.5584 22.4204 66.1277C22.125 66.3886 21.8756 66.5859 21.6826 66.7128C21.6723 66.5326 21.6779 66.2939 21.702 66.0018C21.761 65.2843 21.9232 64.3332 22.1476 63.3415C22.3715 62.3518 22.6537 61.3382 22.9473 60.4977C23.0942 60.0773 23.2418 59.7065 23.3838 59.4065C23.5294 59.0987 23.6554 58.8954 23.7506 58.787ZM16.5443 55.7673C16.5443 55.7674 16.5431 55.7665 16.5408 55.7643C16.5432 55.7661 16.5443 55.7672 16.5443 55.7673ZM16.6579 55.7055C16.5992 55.7152 16.5504 55.7219 16.5118 55.7263C16.5078 55.7201 16.5035 55.7131 16.4989 55.7052C16.4503 55.6212 16.3965 55.4732 16.3773 55.2604C16.3401 54.8476 16.4377 54.2255 16.8971 53.4798C17.4891 52.8227 18.5059 52.3377 19.6632 52.0036C20.7718 51.6836 21.9398 51.5217 22.8209 51.4583C22.2483 53.0388 20.7929 54.125 19.3341 54.8197C18.5964 55.171 17.8822 55.4102 17.3313 55.5562C17.0559 55.6293 16.8257 55.6778 16.6579 55.7055ZM11.6102 59.687L11.6095 59.6887C10.6437 62.2644 10.1312 65.7686 10.1312 69.4416C10.1312 70.3492 10.1283 71 10.0857 71.4695C10.0404 71.967 9.95789 72.1228 9.91619 72.1668C9.91616 72.1669 9.87556 72.2336 9.54263 72.1894C9.21217 72.1456 8.75377 72.0153 8.07506 71.8157L8.07132 71.8146C6.61697 71.3991 5.85892 70.8145 5.57251 70.1599C5.29026 69.5148 5.38871 68.6199 6.09987 67.3847L6.09996 67.3848L6.10466 67.3762L6.3774 66.8804L6.63192 67.7797L6.63242 67.7814C6.95581 68.9084 7.30064 69.6922 7.66948 70.0968C7.85193 70.297 8.14536 70.5155 8.51915 70.4496C8.8791 70.3862 9.08417 70.0963 9.19412 69.8718C9.42311 69.4043 9.52606 68.6481 9.52606 67.748C9.52606 66.8247 9.4169 65.6786 9.16768 64.3827L8.67668 64.4771L9.16768 64.3827C8.9746 63.3787 8.95427 62.8696 9.174 62.3299C9.4122 61.7449 9.94888 61.0787 11.0756 59.8531C11.3671 59.5435 11.6159 59.2903 11.8249 59.0908C11.7668 59.2639 11.6955 59.4621 11.6102 59.687ZM14.8328 65.2015C14.6528 65.4059 14.4902 65.5817 14.3486 65.7254C14.3503 65.6907 14.3523 65.6546 14.3547 65.6172C14.3888 65.0838 14.4933 64.3618 14.6451 63.5861C14.7964 62.8129 14.9919 62.0003 15.2036 61.2884C15.4183 60.5661 15.6396 59.9825 15.8339 59.6446L15.8339 59.6446C16.0037 59.3494 16.3097 59.0611 16.7138 58.8106C17.1139 58.5626 17.5812 58.3699 18.0335 58.2518C18.4912 58.1322 18.8995 58.098 19.1866 58.137C19.3295 58.1564 19.4161 58.1905 19.4612 58.2185C19.4751 58.2271 19.4834 58.2341 19.488 58.2385C19.4869 58.2493 19.4847 58.2649 19.4805 58.286C19.4655 58.361 19.4329 58.468 19.3763 58.6094C19.2635 58.8911 19.0775 59.2557 18.8319 59.6808C18.3425 60.5279 17.6463 61.564 16.9166 62.5652C16.1873 63.5659 15.4336 64.5194 14.8328 65.2015ZM13.9003 66.1191C13.9003 66.1191 13.901 66.1187 13.9024 66.1181C13.901 66.1188 13.9004 66.1191 13.9003 66.1191ZM21.4286 66.8499C21.4229 66.8516 21.4203 66.852 21.4204 66.8518C21.4205 66.8516 21.4233 66.8508 21.4286 66.8499Z" fill="#F9B500" stroke="#F9B500"/>
</g>
<defs>
<clipPath id="clip0_4_10">
<rect width="57" height="79" fill="white"/>
</clipPath>
</defs>
</svg>
