<svg width="35" height="35" viewBox="0 0 35 35" fill="none" xmlns="http://www.w3.org/2000/svg">
<path fill-rule="evenodd" clip-rule="evenodd" d="M13.529 12.2719H19.5816V15.2868C20.4535 13.5529 22.6894 11.9949 26.0481 11.9949C32.487 11.9949 34.0156 15.4465 34.0156 21.7794V33.5081H27.4969V23.2217C27.4969 19.6152 26.625 17.5814 24.4054 17.5814C21.327 17.5814 20.0477 19.7733 20.0477 23.2201V33.5081H13.529V12.2719V12.2719ZM2.35115 33.2311H8.86982V11.9949H2.35115V33.2311V33.2311ZM9.80362 5.07045C9.80386 5.61683 9.6955 6.15782 9.48484 6.66196C9.27417 7.1661 8.9654 7.62334 8.57648 8.00711C7.78837 8.79036 6.72161 9.22879 5.61049 9.2261C4.50132 9.22535 3.43702 8.78804 2.64775 8.00874C2.26023 7.62367 1.95251 7.16591 1.74222 6.66171C1.53192 6.1575 1.42319 5.61675 1.42224 5.07045C1.42224 3.96716 1.86225 2.91114 2.64938 2.13216C3.43795 1.3518 4.5027 0.914307 5.61212 0.914795C6.72355 0.914795 7.78935 1.35318 8.57648 2.13216C9.36198 2.91114 9.80362 3.96716 9.80362 5.07045Z" stroke="white" stroke-width="1.69761" stroke-linejoin="round"/>
</svg>
