<svg width="40" height="21" viewBox="0 0 40 21" fill="none" xmlns="http://www.w3.org/2000/svg">
<g clip-path="url(#clip0_4585_26965)">
<path d="M11.457 13.5894C11.6892 13.7515 11.917 13.9091 12.1715 14.0892L11.8545 14.1252L11.5865 13.9946C11.5597 13.9586 11.5419 13.9091 11.5061 13.8956C10.0325 13.2336 8.5543 12.5717 7.07615 11.9188C7.02256 11.8963 6.93772 11.9413 6.70103 11.9863C7.0181 12.1214 7.1878 12.198 7.35749 12.27C7.78173 12.4456 8.21044 12.6077 8.63468 12.7879C9.50103 13.1616 10.3584 13.5443 11.2248 13.9181C11.3364 13.9676 11.4749 13.9631 11.5999 13.9811C11.6178 14.1748 11.7517 14.1252 11.8679 14.1117C11.917 14.1703 11.9572 14.2513 12.0197 14.2828C12.569 14.5575 13.1227 14.8232 13.672 15.0979C13.8328 15.1789 14.0293 15.2419 14.0918 15.5527C13.4577 15.4221 12.9843 15.0483 12.4216 14.9042C12.6985 15.3185 13.2567 15.3365 13.6318 15.7463C13.0379 15.8859 12.5466 16.0119 12.0018 15.7238C10.4433 14.8997 8.82671 14.2063 7.1476 13.6839C6.24553 13.4048 5.33453 13.1706 4.42799 12.9094C4.0752 12.8059 3.72687 12.6843 3.49019 12.6122C3.24457 12.198 3.04362 11.9188 2.90518 11.6036C2.82033 11.4145 2.78461 11.1758 2.81587 10.9732C2.91858 10.3698 3.27583 9.93751 3.78493 9.6178C4.45032 9.20353 5.20502 9.03692 5.92847 8.78926C7.23692 8.34347 8.56323 7.94271 9.85382 7.44739C10.7112 7.11868 11.5329 6.68189 12.3457 6.25412C13.0245 5.89839 13.6675 5.46611 14.3419 5.09687C14.5428 4.9888 14.7884 4.96628 15.0206 4.91225C15.2439 4.86271 15.4717 4.82669 15.7218 4.77716C15.5923 5.17342 15.5878 5.16891 14.9805 5.53365C14.6723 5.71827 14.3061 5.83084 14.0293 6.21809C14.583 6.2316 14.8643 5.83534 15.2529 5.69125C15.6503 5.54266 15.9317 5.16441 16.4407 5.06985C16.3514 5.40757 16.1326 5.49312 15.9361 5.6102C15.4047 5.9209 14.8777 6.23611 14.3508 6.56032C14.2079 6.64587 14.0114 6.71341 14.1275 7.02862C14.6411 6.86201 15.0608 6.51529 15.5208 6.25412C15.9763 5.99295 16.3648 5.56967 17.0838 5.62371L16.7132 6.24961L16.4631 6.39821L16.0612 6.65938C15.8602 6.64587 15.7307 6.73593 15.6682 6.93406C15.3868 6.96108 15.1591 7.08265 15.0162 7.33932C14.9537 7.34833 14.8911 7.35733 14.976 7.34382C14.909 7.39786 14.9537 7.36184 15.0028 7.32131C15.2707 7.26727 15.5163 7.17722 15.6592 6.92055L16.0612 6.66388L16.4497 6.3892L16.7265 6.27213L17.0213 6.33967C16.8382 6.74944 16.472 6.87102 16.1728 7.06464C15.8602 7.26727 15.5387 7.45189 15.2395 7.68154C15.8647 7.63201 16.2755 7.06014 16.99 6.92055C16.3693 7.85716 15.494 8.31195 14.6857 8.82529C14.7527 9.11347 14.9671 9.04593 15.1189 9.04593C15.954 9.06394 16.7891 9.05944 17.6242 9.07295C19.2943 9.10447 20.96 9.13599 22.6302 9.18102C22.8178 9.18552 23.0009 9.27107 23.1884 9.3161L23.2018 9.35663L23.1795 9.32061C23.3269 9.05493 23.5725 9.18552 23.769 9.18552C25.5731 9.17651 27.3773 9.18102 29.1769 9.18552C30.606 9.18552 32.035 9.17651 33.4506 8.95587C33.8927 8.88833 34.3036 9.05043 34.71 9.21254C34.643 9.58628 34.2991 9.37464 34.1294 9.55025L34.7993 9.59979L34.8082 9.66283C34.2366 9.76189 33.665 9.86096 33.0934 9.96002C33.7766 10.2752 34.442 9.86096 35.1744 10.0096L34.7412 10.3248L35.2503 10.6084L34.634 10.8426L34.8439 10.9777C34.6519 11.2704 34.384 11.401 34.0401 11.455C32.6066 11.6801 31.1642 11.8648 29.7128 11.8332C26.9039 11.7747 24.0905 11.6981 21.2816 11.6126C19.6561 11.5631 18.0305 11.473 16.405 11.41C14.2749 11.3289 12.1447 11.2569 10.0146 11.1848C9.84936 11.1803 9.68413 11.2073 9.4921 11.3334C9.65733 11.419 9.8181 11.5045 9.98333 11.5856C11.2025 12.198 12.4216 12.8104 13.6407 13.4138C14.0159 13.5984 14.2883 13.8505 14.3374 14.3459L13.6943 14.2423L13.4666 14.0667L12.8994 13.846L12.8905 13.7875L12.8458 13.828L12.9039 13.837L13.4041 14.1342L13.6943 14.2378C13.9132 14.3954 14.1364 14.553 14.3553 14.7106L14.324 14.8007C14.2391 14.7872 14.1454 14.7917 14.0695 14.7556C13.3773 14.4179 12.694 14.0667 12.0018 13.7335C11.8321 13.6524 11.6312 13.6254 11.4436 13.5759L11.1712 13.4543L11.1355 13.3958L11.1891 13.4363L11.4481 13.5714L11.457 13.5894ZM23.7466 9.86096L23.8761 9.99605L24.0101 10.1266L24.1441 10.2617L24.1664 10.2977L24.1307 10.2752L24.0012 10.1401L23.8672 10.0096L23.7422 9.86996L23.7288 9.82944L23.7556 9.86096L23.7466 9.86096ZM24.805 10.9281L24.9345 11.0632L25.0685 11.1938L25.2025 11.3244L25.2248 11.3604L25.1891 11.3379L25.0551 11.2073L24.9211 11.0767L24.7961 10.9372L24.7827 10.8966L24.805 10.9281ZM12.7253 7.52394C11.7562 7.80312 10.5639 8.3885 10.0369 8.87932C11.0417 8.48306 11.9616 8.2309 12.7253 7.52394ZM31.2892 10.2302L31.2892 10.1627L29.6771 10.1627L29.6771 10.2302L31.2892 10.2302ZM4.32528 11.3109L4.80757 11.3109C4.6602 11.1083 4.54856 11.0272 4.32528 11.3109ZM3.55717 10.9462L3.55717 11.0317L3.83405 11.0317L3.83405 10.9327L3.55717 10.9462Z" fill="#EF8400"/>
</g>
<defs>
<clipPath id="clip0_4585_26965">
<rect width="19.6491" height="40" fill="white" transform="translate(0 20.1082) rotate(-90)"/>
</clipPath>
</defs>
</svg>
