<svg width="40" height="21" viewBox="0 0 40 21" fill="none" xmlns="http://www.w3.org/2000/svg">
<g clip-path="url(#clip0_4585_26967)">
<path d="M28.544 13.5894C28.3117 13.7515 28.084 13.9091 27.8294 14.0892L28.1465 14.1252L28.4145 13.9946C28.4413 13.9586 28.4591 13.9091 28.4948 13.8956C29.9685 13.2336 31.4467 12.5717 32.9248 11.9188C32.9784 11.8963 33.0633 11.9413 33.2999 11.9863C32.9829 12.1214 32.8132 12.198 32.6435 12.27C32.2192 12.4456 31.7905 12.6077 31.3663 12.7879C30.4999 13.1616 29.6425 13.5443 28.7762 13.9181C28.6645 13.9676 28.5261 13.9631 28.4011 13.9811C28.3832 14.1748 28.2492 14.1252 28.1331 14.1117C28.084 14.1703 28.0438 14.2513 27.9813 14.2828C27.432 14.5575 26.8783 14.8232 26.329 15.0979C26.1682 15.1789 25.9717 15.2419 25.9092 15.5527C26.5433 15.4221 27.0167 15.0483 27.5794 14.9042C27.3025 15.3185 26.7443 15.3365 26.3692 15.7463C26.9631 15.8859 27.4543 16.0119 27.9991 15.7238C29.5577 14.8997 31.1743 14.2063 32.8534 13.6839C33.7554 13.4048 34.6664 13.1706 35.573 12.9094C35.9258 12.8059 36.2741 12.6843 36.5108 12.6122C36.7564 12.198 36.9574 11.9188 37.0958 11.6036C37.1806 11.4145 37.2164 11.1758 37.1851 10.9732C37.0824 10.3698 36.7251 9.9375 36.2161 9.6178C35.5507 9.20353 34.796 9.03692 34.0725 8.78926C32.7641 8.34347 31.4377 7.94271 30.1472 7.44739C29.2897 7.11867 28.468 6.68189 27.6553 6.25411C26.9765 5.89838 26.3334 5.4661 25.6591 5.09686C25.4582 4.98879 25.2125 4.96628 24.9803 4.91224C24.757 4.86271 24.5293 4.82668 24.2792 4.77715C24.4087 5.17341 24.4132 5.16891 25.0205 5.53364C25.3287 5.71826 25.6948 5.83084 25.9717 6.21809C25.418 6.2316 25.1366 5.83534 24.7481 5.69125C24.3507 5.54265 24.0693 5.1644 23.5602 5.06984C23.6495 5.40756 23.8684 5.49312 24.0649 5.61019C24.5963 5.9209 25.1232 6.2361 25.6502 6.56031C25.7931 6.64587 25.9896 6.71341 25.8735 7.02861C25.3599 6.86201 24.9401 6.51528 24.4802 6.25411C24.0247 5.99294 23.6361 5.56967 22.9172 5.6237L23.2878 6.24961L23.5379 6.39821L23.9398 6.65937C24.1408 6.64587 24.2703 6.73593 24.3328 6.93405C24.6141 6.96107 24.8419 7.08265 24.9848 7.33932C25.0473 7.34832 25.1098 7.35733 25.025 7.34382C25.092 7.39785 25.0473 7.36183 24.9982 7.32131C24.7302 7.26727 24.4846 7.17721 24.3417 6.92054L23.9398 6.66388L23.5513 6.3892L23.2744 6.27212L22.9797 6.33967C23.1628 6.74943 23.529 6.87101 23.8282 7.06464C24.1408 7.26727 24.4623 7.45189 24.7615 7.68154C24.1363 7.63201 23.7255 7.06014 23.0109 6.92054C23.6317 7.85715 24.507 8.31195 25.3153 8.82528C25.2483 9.11347 25.0339 9.04593 24.8821 9.04593C24.047 9.06394 23.2119 9.05943 22.3768 9.07294C20.7066 9.10446 19.0409 9.13598 17.3708 9.18101C17.1832 9.18552 17.0001 9.27107 16.8125 9.3161L16.7991 9.35663L16.8215 9.3206C16.6741 9.05493 16.4285 9.18552 16.232 9.18552C14.4279 9.17651 12.6237 9.18101 10.824 9.18552C9.395 9.18552 7.96597 9.17651 6.55034 8.95587C6.10823 8.88832 5.69739 9.05043 5.29101 9.21253C5.358 9.58627 5.70186 9.37464 5.87155 9.55025L5.2017 9.59978L5.19276 9.66282C5.76437 9.76189 6.33599 9.86095 6.9076 9.96002C6.22434 10.2752 5.55895 9.86095 4.82658 10.0096L5.25975 10.3248L4.75066 10.6084L5.36693 10.8426L5.15704 10.9777C5.34907 11.2704 5.61701 11.401 5.96087 11.455C7.39436 11.6801 8.83679 11.8648 10.2881 11.8332C13.0971 11.7747 15.9105 11.6981 18.7194 11.6126C20.3449 11.5631 21.9704 11.473 23.596 11.41C25.7261 11.3289 27.8562 11.2569 29.9864 11.1848C30.1516 11.1803 30.3168 11.2073 30.5089 11.3334C30.3436 11.419 30.1829 11.5045 30.0176 11.5856C28.7985 12.198 27.5794 12.8104 26.3602 13.4138C25.9851 13.5984 25.7127 13.8505 25.6636 14.3459L26.3066 14.2423L26.5344 14.0667L27.1015 13.846L27.1105 13.7875L27.1551 13.828L27.0971 13.837L26.5969 14.1342L26.3066 14.2378C26.0878 14.3954 25.8645 14.553 25.6457 14.7106L25.677 14.8007C25.7618 14.7872 25.8556 14.7917 25.9315 14.7556C26.6237 14.4179 27.307 14.0667 27.9991 13.7335C28.1688 13.6524 28.3698 13.6254 28.5574 13.5759L28.8298 13.4543L28.8655 13.3958L28.8119 13.4363L28.5529 13.5714L28.544 13.5894ZM16.2543 9.86095L16.1248 9.99604L15.9909 10.1266L15.8569 10.2617L15.8346 10.2977L15.8703 10.2752L15.9998 10.1401L16.1338 10.0096L16.2588 9.86996L16.2722 9.82943L16.2454 9.86095L16.2543 9.86095ZM15.196 10.9281L15.0665 11.0632L14.9325 11.1938L14.7985 11.3244L14.7762 11.3604L14.8119 11.3379L14.9459 11.2073L15.0798 11.0767L15.2049 10.9372L15.2183 10.8966L15.196 10.9281ZM27.2757 7.52394C28.2448 7.80312 29.4371 8.3885 29.9641 8.87932C28.9593 8.48306 28.0393 8.2309 27.2757 7.52394ZM8.71175 10.2302L8.71175 10.1626L10.3239 10.1626L10.3239 10.2302L8.71175 10.2302ZM35.6757 11.3109L35.1934 11.3109C35.3408 11.1083 35.4524 11.0272 35.6757 11.3109ZM36.4438 10.9462L36.4438 11.0317L36.1669 11.0317L36.1669 10.9327L36.4438 10.9462Z" fill="#EF8400"/>
</g>
<defs>
<clipPath id="clip0_4585_26967">
<rect width="19.6491" height="40" fill="white" transform="matrix(4.37114e-08 -1 -1 -4.37114e-08 40.001 20.1082)"/>
</clipPath>
</defs>
</svg>
