<svg width="266" height="223" viewBox="0 0 266 223" fill="none" xmlns="http://www.w3.org/2000/svg">
<g clip-path="url(#clip0_4585_26911)">
<path d="M107.801 116.389C108.29 116.913 109.665 117.778 109.996 118.93C110.251 119.792 109.428 121.362 108.618 122.054C106.783 123.577 104.722 124.885 102.616 126.01C101.772 126.457 99.9662 126.638 99.6074 126.161C98.7214 125.015 97.8968 123.364 97.9928 121.996C98.1494 119.833 104.826 115.904 107.813 116.391L107.801 116.389Z" fill="#F9B500"/>
<path d="M39.5483 178.322C42.0734 175.998 43.9676 173.83 46.273 172.275C47.9832 171.108 49.5074 168.235 52.2215 170.097C55.0942 172.062 58.4651 173.91 58.3789 178.087C58.3532 179.265 57.5509 180.789 56.6116 181.497C54.5878 183.025 52.3463 184.428 49.9807 185.307C48.0053 186.038 44.8974 186.915 43.7495 185.976C41.8437 184.391 41.0986 181.394 39.5442 178.346L39.5483 178.322Z" fill="#F9B500"/>
<path d="M254.8 69.8982C256.901 70.7112 259.235 73.0997 259.516 74.9853C259.881 77.3384 258.101 78.1032 256.557 79.0343C255.884 79.4351 255.165 79.7398 254.444 80.0567C250.128 81.9603 246.622 79.6481 246.693 74.9028C246.699 74.4256 246.853 73.6717 247.17 73.512C249.678 72.2427 252.243 71.0837 254.8 69.8982Z" fill="#F9B500"/>
<path d="M221.666 40.12C221.213 42.9873 217.532 46.9882 214.739 47.6425C212.249 48.2226 208.543 44.2148 209.331 40.8636C210.061 37.7793 212.039 34.9719 213.657 32.1404C213.926 31.6705 215.241 31.4929 215.968 31.6553C219.169 32.3672 222.162 36.9327 221.666 40.12Z" fill="#F9B500"/>
<path d="M137.31 161.744C136.713 165.153 129.053 171.077 125.685 170.752C123.098 170.497 121.023 166.379 122.421 163.799C124.591 159.804 127.963 157.31 132.618 157.026C135.619 156.847 137.758 159.127 137.295 161.754L137.31 161.744Z" fill="#F9B500"/>
<path d="M220.515 141.161C221.943 137.303 223.649 136.236 227.046 137.271C231.96 138.78 233.683 143.052 231.235 147.567C230.772 148.431 230.426 149.354 229.896 150.169C229.226 151.212 228.314 153.082 227.736 153.008C226.507 152.835 224.92 151.884 224.377 150.797C222.843 147.702 221.775 144.385 220.515 141.161Z" fill="#F9B500"/>
<path d="M5.45495 150.254C8.3153 147.296 10.3152 147.009 12.9986 149.344C16.8765 152.714 16.7313 157.308 12.6689 160.451C11.8994 161.049 11.1987 161.76 10.3887 162.301C9.35161 162.991 7.763 164.33 7.26273 164.018C6.20315 163.371 5.14348 161.842 5.08572 160.637C4.93411 157.188 5.28832 153.724 5.45495 150.254H5.45495Z" fill="#F9B500"/>
<path d="M97.4733 146.776C100.699 147.266 103.087 150.003 102.669 152.738C102.201 155.766 97.5154 159.092 94.4036 158.596C92.3942 158.277 88.5063 153.055 88.7744 151.05C89.0191 149.254 94.875 146.368 97.4754 146.764L97.4733 146.776Z" fill="#F9B500"/>
<path d="M49.5061 137.979C50.2779 132.372 53.1548 131.153 56.4517 133.581C61.9233 137.64 62.3897 141.822 57.889 145.393C56.2414 146.709 54.5642 146.875 53.4745 145.229C51.7245 142.588 50.4142 139.657 49.5204 137.969L49.5061 137.979Z" fill="#F9B500"/>
<path d="M155.913 126.91C155.061 131.886 149.824 136.3 147.013 134.786C145.031 133.717 143.574 130.686 142.996 128.258C142.522 126.252 149.851 122.624 152.745 123.661C154.251 124.196 155.244 126.191 155.911 126.922L155.913 126.91Z" fill="#F9B500"/>
<path d="M112.982 55.4435C113.935 54.3608 115.268 51.7952 116.32 51.8999C118.222 52.1124 120.387 53.5784 121.614 55.1603C122.57 56.4066 122.993 58.9333 122.377 60.3254C121.386 62.5846 119.353 64.3884 117.753 66.3798C116.31 64.446 114.632 62.6356 113.505 60.5422C112.876 59.3647 113.175 57.6917 112.982 55.4435Z" fill="#F9B500"/>
<path d="M187.179 112.859C189.961 113.298 190.281 114.662 189.628 116.929C188.642 120.334 185.447 123.852 182.835 122.939C180.259 122.032 178.252 119.422 176.173 117.38C176.043 117.257 177.34 114.899 178.282 114.62C181.159 113.766 184.203 113.407 187.179 112.859Z" fill="#F9B500"/>
<path d="M98.0241 198.874C95.2423 198.435 94.9222 197.071 95.5749 194.805C96.561 191.399 99.7563 187.882 102.369 188.795C104.944 189.702 106.952 192.311 109.031 194.354C109.161 194.477 107.863 196.834 106.922 197.114C104.044 197.967 101 198.327 98.0241 198.874Z" fill="#F9B500"/>
<path d="M161.063 72.2394C164.872 72.9296 167.513 75.4337 167.084 77.9401C166.634 80.5689 162.692 82.7128 159.424 82.1025C156.789 81.6133 154.094 77.8793 154.446 75.2338C154.739 73.0815 157.878 71.656 161.063 72.2394Z" fill="#F9B500"/>
<path d="M66.5949 59.0244C63.4117 61.2227 59.7812 61.3307 58.2998 59.252C56.7597 57.0751 58.0253 52.7737 60.7767 50.8916C62.9861 49.3822 67.5306 50.1105 69.1443 52.2244C70.458 53.9598 69.2381 57.1867 66.5827 59.0223L66.5949 59.0244Z" fill="#F9B500"/>
<path d="M198.514 162.765C198.535 162.643 198.532 162.517 198.575 162.411C199.578 160.38 198.7 156.542 202.555 157.177C206.007 157.744 208.33 162.332 207.369 165.516C207.259 165.862 207.172 166.3 206.912 166.495C204.998 167.966 202.615 170.931 201.2 170.525C197.709 169.524 198.003 165.899 198.514 162.765Z" fill="#F9B500"/>
<path d="M22.5554 101.646C22.5764 101.523 22.5729 101.397 22.6162 101.291C23.6185 99.2603 22.7406 95.4223 26.5962 96.0577C30.0484 96.6239 32.3708 101.213 31.4101 104.396C31.3005 104.742 31.2129 105.18 30.953 105.375C29.0395 106.847 26.6563 109.811 25.2408 109.405C21.7499 108.404 22.0436 104.78 22.5554 101.646Z" fill="#F9B500"/>
<path d="M196.264 80.1073C197.143 76.004 202.922 72.8283 206.564 74.7108C207.779 75.3343 209.146 76.9026 209.227 78.1245C209.299 79.3199 208.126 81.1705 206.991 81.769C204.765 82.9356 202.243 83.6992 199.749 84.1528C197.087 84.6282 195.688 82.8027 196.264 80.1073Z" fill="#F9B500"/>
<path d="M125.959 84.1595C128.422 85.6512 129.719 87.0439 128.284 89.0258C126.466 91.5586 124.289 93.9042 121.939 95.9431C121.333 96.4686 118.981 96.0154 118.334 95.2375C116.839 93.4585 114.557 90.8398 116.822 88.8617C119.324 86.6726 122.868 85.6689 125.961 84.1473L125.959 84.1595Z" fill="#F9B500"/>
<path d="M172.993 168.776C172.433 171.751 169.175 174.389 166.591 173.015C164.491 171.9 162.128 169.016 162.091 166.883C162.041 164.017 165.573 163.678 167.882 164.301C170.06 164.888 173.705 164.619 172.993 168.776Z" fill="#F9B500"/>
<path d="M68.7111 102.795C65.9496 102.385 62.2305 97.7202 63.1231 95.1546C63.4992 94.0612 65.5951 92.8471 66.8429 92.9098C70.1235 93.0817 73.8554 97.1569 73.5853 99.6152C73.3319 101.976 71.4359 103.199 68.7009 102.781L68.7111 102.795Z" fill="#F9B500"/>
<path d="M230.26 108.007C229.794 110.872 226.774 114.03 224.867 113.262C222.088 112.144 222.034 109.303 222.346 106.966C222.648 104.689 223.25 101.834 226.624 102.123C229.093 102.332 230.713 105.215 230.26 108.007Z" fill="#F9B500"/>
<path d="M168.721 50.3179C164.986 49.6402 163.053 46.4521 163.895 43.299C164.152 42.311 165.403 40.8891 166.237 40.8684C168.623 40.8242 172.268 45.6271 171.439 47.7504C170.964 48.978 169.355 49.7722 168.733 50.32L168.721 50.3179Z" fill="#F9B500"/>
<path d="M157.135 196.692C156.865 192.908 159.485 190.248 162.764 190.281C163.782 190.292 165.471 191.16 165.7 191.955C166.338 194.254 162.572 198.97 160.306 198.683C158.999 198.522 157.837 197.152 157.147 196.694L157.135 196.692Z" fill="#F9B500"/>
</g>
<defs>
<clipPath id="clip0_4585_26911">
<rect width="237.888" height="184.746" fill="white" transform="translate(31.1973) rotate(9.72174)"/>
</clipPath>
</defs>
</svg>
