<svg width="75" height="100" viewBox="0 0 75 100" fill="none" xmlns="http://www.w3.org/2000/svg">
<path fill-rule="evenodd" clip-rule="evenodd" d="M39.6557 1.37803C25.5532 -0.626354 10.1847 4.5039 3.76061 22.1159C-0.999333 35.2618 -0.929499 35.3884 12.6847 36.5068C24.1725 37.4356 23.4128 37.8544 25.7983 29.6073C27.8288 22.5874 30.9425 19.1791 37.0885 17.9778C50.7148 15.3759 54.6562 33.7517 53.2079 38.7589C51.6176 44.2571 46.8523 46.0172 33.4452 46.0226C22.4807 46.043 18.0339 49.2787 14.6166 59.6212C13.6238 62.6857 12.5706 65.0407 12.1134 65.3339C10.052 66.7592 14.8566 70.0111 20.6439 71.1529C38.0204 74.5298 37.7322 74.6062 38.6452 67.9544C39.2065 63.808 39.7695 63.3323 44.1498 63.2692C54.7217 63.1353 61.8875 59.1437 67.6728 50.1776C82.7065 27.0763 70.4989 5.83074 39.6557 1.37803ZM54.6601 8.90983C65.2365 13.7245 71.4138 30.9916 66.2759 41.5812C61.5267 51.379 54.0986 56.093 41.7486 57.0422C35.7662 57.4932 33.3098 59.5487 31.5287 65.5235L30.5631 68.8619C24.4038 67.7185 24.0108 67.6048 19.9131 67.0581C24.7892 52.7754 24.2335 51.0185 43.969 49.9178C56.3467 49.2422 61.513 40.576 57.3507 27.5623C50.6731 6.69264 17.1316 9.54545 17.1529 30.9901C17.1286 31.9937 17.0345 32.8711 16.9079 32.9408C16.7181 33.0452 9.92447 32.6229 9.43361 32.481C9.3845 32.4668 10.7874 26.3294 11.0892 24.1824C13.6133 5.70835 35.553 0.297761 54.6601 8.90983ZM15.1472 75.6276C5.14664 77.0972 1.67921 87.7972 9.37539 93.3749C24.7189 104.516 43.1707 98.8413 36.6945 84.9985C34.8131 80.8371 20.8218 74.7686 15.1472 75.6276ZM26.8625 82.2081C30.619 83.9327 33.1469 88.0684 32.2949 91.0139C30.7188 96.4629 16.5854 95.3011 13.0666 89.4423C11.349 86.5515 13.5315 76.0645 26.8625 82.2081Z" fill="#BB6BD9"/>
</svg>
