<svg width="192" height="149" viewBox="0 0 192 149" fill="none" xmlns="http://www.w3.org/2000/svg">
<g clip-path="url(#clip0_4671_32609)">
<path d="M76.7102 82.051C77.1702 82.401 78.3802 82.901 78.8002 83.771C79.1202 84.421 78.6802 85.781 78.1302 86.441C76.8802 87.901 75.4202 89.221 73.9002 90.401C73.2902 90.871 71.8802 91.261 71.5302 90.931C70.6702 90.141 69.7902 88.941 69.6802 87.841C69.5102 86.101 74.2802 82.071 76.7202 82.051H76.7102Z" fill="#5762C7"/>
<path d="M30.9102 140.551C32.6002 138.361 33.8102 136.381 35.4302 134.831C36.6302 133.671 37.4502 131.181 39.8602 132.291C42.4102 133.461 45.3402 134.471 45.8402 137.801C45.9802 138.741 45.5502 140.061 44.9002 140.751C43.5002 142.241 41.9102 143.661 40.1502 144.681C38.6802 145.531 36.3302 146.651 35.2902 146.061C33.5602 145.061 32.5602 142.781 30.9102 140.571V140.551Z" fill="#5762C7"/>
<path d="M187.18 25.1011C188.96 25.4611 191.14 27.0411 191.62 28.5011C192.23 30.3211 190.92 31.1711 189.82 32.1211C189.34 32.5311 188.81 32.8711 188.28 33.2211C185.11 35.3211 182.01 33.9611 181.42 30.1811C181.36 29.8011 181.38 29.1811 181.61 29.0111C183.43 27.6611 185.31 26.3911 187.18 25.1011Z" fill="#5762C7"/>
<path d="M156.8 5.95097C156.83 8.29097 154.45 11.971 152.32 12.871C150.42 13.671 146.93 10.991 147.1 8.22097C147.26 5.67097 148.45 3.17097 149.35 0.700973C149.5 0.290973 150.52 -0.029027 151.12 0.00097298C153.76 0.130973 156.76 3.35097 156.8 5.95097Z" fill="#5762C7"/>
<path d="M106.33 114.071C106.32 116.861 101.04 122.611 98.32 122.811C96.23 122.961 94.02 119.971 94.78 117.731C95.96 114.261 98.3 111.821 101.96 110.961C104.32 110.411 106.33 111.931 106.32 114.081L106.33 114.071Z" fill="#5762C7"/>
<path d="M169.64 86.3908C170.25 83.1308 171.46 82.0508 174.3 82.4108C178.41 82.9408 180.36 86.1008 179.03 90.0208C178.78 90.7708 178.63 91.5508 178.32 92.2708C177.93 93.1908 177.46 94.8008 176.99 94.8208C175.99 94.8508 174.6 94.3108 174.02 93.5208C172.38 91.2708 171.08 88.7808 169.64 86.3908Z" fill="#5762C7"/>
<path d="M0 122.891C1.87 120.151 3.42 119.651 5.87 121.141C9.41 123.291 9.92 126.961 7.12 130.011C6.59 130.591 6.13 131.251 5.56 131.791C4.83 132.481 3.75 133.761 3.31 133.581C2.38 133.211 1.33 132.141 1.12 131.191C0.53 128.471 0.34 125.671 0 122.891H0Z" fill="#5762C7"/>
<path d="M72.64 107.601C75.27 107.551 77.54 109.401 77.58 111.631C77.62 114.101 74.35 117.381 71.81 117.411C70.17 117.431 66.37 113.811 66.31 112.181C66.26 110.721 70.52 107.631 72.64 107.591V107.601Z" fill="#5762C7"/>
<path d="M33.3302 107.141C33.1802 102.581 35.3002 101.221 38.2502 102.701C43.1502 105.181 44.0902 108.441 41.0002 111.891C39.8702 113.161 38.5602 113.521 37.4702 112.361C35.7202 110.501 34.2802 108.351 33.3402 107.131L33.3302 107.141Z" fill="#5762C7"/>
<path d="M116.37 83.861C116.37 87.931 112.81 92.151 110.37 91.331C108.65 90.751 107.08 88.541 106.29 86.691C105.64 85.161 110.97 81.281 113.41 81.711C114.68 81.931 115.74 83.381 116.37 83.871V83.861Z" fill="#5762C7"/>
<path d="M72.5298 32.9209C73.1398 31.9309 73.8498 29.7109 74.6998 29.6509C76.2398 29.5609 78.1598 30.4309 79.3498 31.5209C80.2798 32.3809 80.9598 34.3309 80.6598 35.5209C80.1798 37.4509 78.8098 39.1609 77.8098 40.9609C76.3998 39.6209 74.8198 38.4109 73.6398 36.9009C72.9798 36.0509 72.9898 34.6809 72.5298 32.9209Z" fill="#5762C7"/>
<path d="M139.3 68.4411C141.57 68.4111 142.01 69.4511 141.8 71.3411C141.48 74.1811 139.42 77.4111 137.22 77.0411C135.05 76.6711 133.1 74.8711 131.17 73.5311C131.05 73.4511 131.76 71.4011 132.47 71.0511C134.64 69.9811 137.01 69.2811 139.3 68.4411Z" fill="#5762C7"/>
<path d="M80.1698 148.921C77.8998 148.951 77.4598 147.911 77.6698 146.021C77.9898 143.181 80.0498 139.951 82.2498 140.321C84.4198 140.691 86.3698 142.491 88.2998 143.831C88.4198 143.911 87.7098 145.961 86.9998 146.311C84.8298 147.381 82.4598 148.081 80.1698 148.921Z" fill="#5762C7"/>
<path d="M113.02 39.7209C116.14 39.7509 118.58 41.3809 118.58 43.4309C118.58 45.5809 115.74 47.8209 113.06 47.7809C110.9 47.7509 108.25 45.1509 108.17 43.0009C108.11 41.2509 110.41 39.6909 113.02 39.7209Z" fill="#5762C7"/>
<path d="M36.1601 42.081C33.9301 44.261 31.0601 44.841 29.6001 43.391C28.0801 41.871 28.5001 38.281 30.4301 36.411C31.9801 34.911 35.6901 34.871 37.2601 36.331C38.5401 37.531 38.0101 40.261 36.1501 42.081H36.1601Z" fill="#5762C7"/>
<path d="M155.1 106.551C155.1 106.451 155.08 106.351 155.1 106.261C155.62 104.511 154.4 101.581 157.55 101.561C160.37 101.541 162.84 104.871 162.51 107.531C162.47 107.821 162.46 108.181 162.28 108.371C160.96 109.801 159.47 112.481 158.29 112.351C155.38 112.031 155.12 109.111 155.1 106.551Z" fill="#5762C7"/>
<path d="M6.96983 81.941C6.96983 81.841 6.94983 81.741 6.96983 81.651C7.48983 79.901 6.26983 76.971 9.41983 76.951C12.2398 76.931 14.7098 80.261 14.3798 82.921C14.3398 83.211 14.3298 83.571 14.1498 83.761C12.8298 85.191 11.3398 87.871 10.1598 87.741C7.24983 87.421 6.98983 84.501 6.96983 81.941Z" fill="#5762C7"/>
<path d="M142.06 41.1808C142.2 37.8008 146.36 34.4908 149.51 35.4908C150.56 35.8208 151.86 36.8808 152.09 37.8408C152.31 38.7808 151.63 40.4108 150.81 41.0408C149.2 42.2708 147.3 43.2208 145.38 43.9208C143.33 44.6608 141.97 43.4008 142.06 41.1808Z" fill="#5762C7"/>
<path d="M86.7501 53.9709C88.9101 54.8209 90.1301 55.7509 89.2601 57.5209C88.1601 59.7809 86.7501 61.9409 85.1601 63.8809C84.7501 64.3809 82.8201 64.3409 82.2001 63.8109C80.7701 62.6009 78.6001 60.8309 80.1301 58.9509C81.8201 56.8709 84.5001 55.5909 86.7501 53.9609V53.9709Z" fill="#5762C7"/>
<path d="M135.64 114.801C135.6 117.241 133.37 119.781 131.13 119.041C129.31 118.441 127.04 116.471 126.72 114.781C126.29 112.511 129.05 111.761 130.97 111.941C132.78 112.111 135.64 111.401 135.64 114.801Z" fill="#5762C7"/>
<path d="M43.8001 76.571C41.5501 76.621 37.9601 73.421 38.3201 71.261C38.4701 70.341 39.9701 69.091 40.9701 68.971C43.6001 68.661 47.1201 71.391 47.2401 73.381C47.3601 75.291 46.0201 76.521 43.7901 76.561L43.8001 76.571Z" fill="#5762C7"/>
<path d="M172.87 58.721C172.89 61.061 170.92 63.981 169.3 63.631C166.94 63.121 166.51 60.871 166.44 58.971C166.37 57.121 166.46 54.771 169.18 54.541C171.17 54.371 172.85 56.441 172.87 58.721Z" fill="#5762C7"/>
<path d="M116.12 21.261C113.06 21.231 111.09 18.961 111.33 16.341C111.4 15.521 112.2 14.221 112.86 14.091C114.75 13.731 118.3 17.051 117.93 18.851C117.72 19.891 116.55 20.741 116.13 21.261H116.12Z" fill="#5762C7"/>
<path d="M126.84 139.141C126.11 136.171 127.83 133.701 130.44 133.281C131.25 133.151 132.71 133.611 133 134.211C133.82 135.951 131.47 140.211 129.63 140.291C128.57 140.341 127.46 139.411 126.85 139.141H126.84Z" fill="#5762C7"/>
</g>
<defs>
<clipPath id="clip0_4671_32609">
<rect width="191.77" height="148.93" fill="white" transform="translate(0 0.000976562)"/>
</clipPath>
</defs>
</svg>
