<svg width="65" height="61" viewBox="0 0 65 61" fill="none" xmlns="http://www.w3.org/2000/svg">
<path d="M54.164 25.8834C54.1478 26.3094 53.5367 27.0607 53.1089 27.1793C52.638 27.3106 52.2641 27.0661 52.0197 26.7264C51.6908 26.2717 51.378 25.7792 51.1821 25.2562C50.1504 22.5206 48.5975 20.1301 46.4928 18.1116C44.6631 16.3538 42.5817 14.9572 40.193 14.0657C39.271 13.7224 38.3219 13.4474 37.3729 13.185C36.7385 13.0089 36.2244 12.6728 35.8146 12.1839C35.3814 11.668 35.4282 11.2097 35.935 10.7783C36.4024 10.3811 36.8589 10.196 37.5599 10.3488C41.142 11.1324 44.318 12.7231 47.1704 14.9896C49.0882 16.5137 50.6663 18.3309 51.8741 20.4752C52.744 22.0209 53.445 23.6313 53.9968 25.3119C54.0615 25.5096 54.1136 25.7127 54.164 25.8834Z" fill="#F9B500" stroke="#F9B500" stroke-width="4.41088" stroke-miterlimit="10"/>
<path d="M54.9607 35.0286C54.8888 35.4618 54.8259 35.9974 54.7073 36.5222C53.2226 43.097 49.2738 47.7109 43.3623 50.7646C41.644 51.6525 39.8124 52.1755 37.9234 52.544C37.4669 52.6339 37.093 52.5027 36.7282 52.305C36.3669 52.1108 36.3256 51.8035 36.6023 51.4836C37.0014 51.0234 37.4902 50.7071 38.1014 50.5561C40.6932 49.9145 43.0369 48.7534 45.156 47.1321C48.6573 44.4558 51.0083 41.0193 52.0418 36.7146C52.1873 36.1053 52.297 35.4852 52.403 34.8669C52.4983 34.3133 52.7176 33.8244 53.1759 33.4973C53.3466 33.3751 53.6306 33.3068 53.8319 33.3499C54.364 33.4667 54.9787 34.3762 54.9625 35.0286H54.9607Z" fill="#F9B500" stroke="#F9B500" stroke-width="4.41088" stroke-miterlimit="10"/>
<path d="M11.0586 26.6779C11.2006 26.1513 11.3282 25.5654 11.5169 25.001C13.0177 20.5184 15.7389 16.9326 19.517 14.1197C21.4312 12.6962 23.5252 11.625 25.7773 10.8665C26.5969 10.5897 27.4488 10.4064 28.2918 10.2068C28.858 10.072 29.8609 10.5861 30.0874 11.1037C30.2365 11.4434 30.1503 11.7436 29.8986 12.0078C29.4529 12.4751 28.9065 12.7501 28.2882 12.9335C27.0013 13.3145 25.6748 13.6236 24.4526 14.1593C19.6267 16.2766 16.0858 19.7383 13.9092 24.5571C13.6648 25.0999 13.5372 25.6948 13.3017 26.2412C13.1274 26.6438 12.8919 27.032 12.6277 27.3843C12.3922 27.6971 12.0525 27.9846 11.6284 27.7977C11.1988 27.609 11.1359 27.1596 11.0604 26.6779H11.0586Z" fill="#F9B500" stroke="#F9B500" stroke-width="4.41088" stroke-miterlimit="10"/>
<path d="M28.0507 52.6196C27.2041 52.4183 26.4061 52.2763 25.6368 52.0355C20.7534 50.5077 16.8477 47.6391 13.9845 43.3919C12.3219 40.9277 11.2722 38.2209 10.8642 35.2624C10.7528 34.4518 11.1069 33.9432 11.6676 33.501C12.0792 33.1757 12.4603 33.2062 12.7479 33.6448C13.0193 34.06 13.2961 34.5363 13.3626 35.0144C14.0851 40.2681 16.765 44.3122 20.9619 47.4306C22.9785 48.9296 25.227 49.9487 27.666 50.5437C28.2448 50.6857 28.7157 50.9768 29.0896 51.4226C29.3897 51.7803 29.3358 52.0912 28.926 52.3033C28.6384 52.4507 28.3167 52.528 28.0525 52.6232L28.0507 52.6196Z" fill="#F9B500" stroke="#F9B500" stroke-width="4.41088" stroke-miterlimit="10"/>
<path d="M51.6947 31.2417C49.5019 31.2417 47.9166 31.2309 46.3332 31.2471C45.8389 31.2525 45.474 31.026 45.1505 30.7079C44.6868 30.2532 44.8467 29.6403 45.4668 29.4713C45.6394 29.4246 45.8227 29.4228 45.9988 29.394C47.7387 29.1172 49.4786 28.8476 51.2166 28.5582C52.9726 28.2653 54.7341 28.3443 56.4955 28.4612C57.8381 28.5492 59.179 28.6499 60.5198 28.7577C60.8757 28.7865 61.2334 28.8386 61.582 28.9177C62.0188 29.0148 62.3064 29.3599 62.2974 29.7157C62.2884 30.068 61.9793 30.4257 61.5497 30.4922C60.9889 30.5803 60.4227 30.636 59.8566 30.6755C56.934 30.8822 54.0115 31.0799 51.6965 31.2381L51.6947 31.2417Z" fill="#F9B500" stroke="#F9B500" stroke-width="4.41088" stroke-miterlimit="10"/>
<path d="M34.4196 11.1776C34.2542 13.4045 34.1068 15.4913 33.9361 17.5744C33.8911 18.1208 33.6054 18.403 33.1902 18.421C32.7786 18.4371 32.4425 18.146 32.322 17.6679C32.3149 17.6391 32.3113 17.6086 32.3077 17.5798C32.1315 16.3378 31.9086 15.0994 31.79 13.8521C31.4665 10.4676 31.7019 7.10473 32.3041 3.76521C32.331 3.61963 32.3634 3.46865 32.4299 3.34103C32.5683 3.07143 32.8163 2.97617 33.1075 3.00493C33.4346 3.03728 33.6844 3.19185 33.7312 3.54234C33.8192 4.19478 33.9091 4.84723 33.9648 5.50147C34.1284 7.43544 34.2776 9.36941 34.4214 11.1794L34.4196 11.1776Z" fill="#F9B500" stroke="#F9B500" stroke-width="4.41088" stroke-miterlimit="10"/>
<path d="M11.2012 29.9312C12.6642 30.0318 14.6881 30.1666 16.7119 30.3194C16.9384 30.3356 17.2008 30.3949 17.3734 30.5297C17.8604 30.9071 17.6861 31.6584 17.0372 31.8633C16.5591 32.0143 16.0433 32.061 15.5418 32.115C13.4946 32.3324 11.4474 32.5607 9.39483 32.7315C8.74957 32.7854 8.08275 32.7225 7.44109 32.6254C6.2045 32.4385 4.99666 32.0664 3.72592 32.1132C3.35027 32.1275 3.10223 31.9101 3.01956 31.5488C2.93328 31.1695 3.14178 30.9071 3.46171 30.7561C4.31366 30.3553 5.23751 30.2277 6.15956 30.1666C7.64778 30.066 9.1414 30.0246 11.203 29.933L11.2012 29.9312Z" fill="#F9B500" stroke="#F9B500" stroke-width="4.41088" stroke-miterlimit="10"/>
<path d="M34.8202 52.2005C34.6621 53.6096 34.45 55.5382 34.2199 57.465C34.1929 57.6914 34.1103 57.9485 33.9665 58.1192C33.5639 58.5991 32.8215 58.414 32.6382 57.7651C32.4765 57.1936 32.3722 56.5968 32.3237 56.0037C32.1799 54.2477 31.9606 52.4845 31.9912 50.7302C32.0235 48.8843 32.3003 47.042 32.4926 45.2015C32.5412 44.7468 32.8126 44.5365 33.199 44.5401C33.5836 44.5437 33.8478 44.7486 33.8928 45.1116C34.166 47.3026 34.7897 49.4451 34.8184 52.2005H34.8202Z" fill="#F9B500" stroke="#F9B500" stroke-width="4.41088" stroke-miterlimit="10"/>
<path d="M31.2775 26.1821C30.2925 25.8586 29.1745 26.3259 28.4879 27.106C27.8013 27.886 27.4796 28.9159 27.2855 29.935C26.9871 31.5095 26.9638 33.1667 27.4832 34.6819C28.0027 36.1971 29.117 37.5523 30.6142 38.1239C32.2948 38.7655 34.2467 38.3413 35.7529 37.3582C37.5287 36.1971 38.7959 34.2344 38.9738 32.1206C39.1517 30.0069 38.1812 27.798 36.4197 26.6153C34.6583 25.4326 32.1582 25.4003 30.4417 26.6477" fill="#F9B500"/>
<path d="M31.9939 23.5812C31.638 23.4715 31.2533 23.4356 30.8867 23.3978C30.7087 23.3799 30.5344 23.3781 30.3565 23.3978C29.988 23.4356 29.6052 23.4715 29.2457 23.5704C28.8862 23.6692 28.5303 23.8382 28.1888 23.9928C27.7035 24.212 27.265 24.5679 26.8696 24.913C26.4508 25.2797 26.1039 25.7524 25.8055 26.2161C25.5072 26.6798 25.2915 27.228 25.0884 27.7493C24.959 28.0854 24.8583 28.4323 24.7774 28.7828C24.5528 29.7533 24.4144 30.7653 24.3838 31.761C24.3532 32.7567 24.4647 33.801 24.7019 34.777C24.8134 35.2353 24.9787 35.6649 25.1621 36.098C25.3292 36.4953 25.4982 36.8871 25.721 37.2574C26.7348 38.9343 28.2895 40.2392 30.1713 40.8215C30.7087 40.9869 31.2875 41.0534 31.8411 41.1055C32.2006 41.1397 32.5636 41.1343 32.9231 41.0947C33.4857 41.0318 34.0572 40.9635 34.6054 40.8108C35.1536 40.658 35.6929 40.4225 36.2141 40.1853C37.0247 39.815 37.7508 39.2704 38.4231 38.6917C39.0881 38.1183 39.6507 37.4137 40.1395 36.6912C40.6302 35.965 40.9969 35.1365 41.2701 34.3079C41.3725 33.9951 41.4534 33.6752 41.5073 33.3499C41.5972 32.8143 41.6799 32.2679 41.6889 31.7233C41.6979 31.1786 41.6152 30.6197 41.5361 30.0697C41.4894 29.7479 41.4229 29.4316 41.3294 29.1207C41.0832 28.2993 40.7291 27.4707 40.2438 26.7589C39.9472 26.324 39.6219 25.8962 39.2606 25.5115C38.8994 25.1269 38.4572 24.789 38.024 24.4655C37.3392 23.9532 36.516 23.5902 35.7 23.3493C35.1662 23.1911 34.6072 23.1282 34.0554 23.0635C33.7301 23.0258 33.403 23.0168 33.0759 23.0366C32.5241 23.0707 31.9651 23.1426 31.4277 23.272C30.8903 23.4014 30.414 23.6171 29.9269 23.8346C29.6285 23.9676 29.3481 24.1312 29.0821 24.3217C28.7676 24.4906 28.516 24.7225 28.3254 25.0155C28.0864 25.2761 27.9264 25.5816 27.8437 25.9321C27.6658 26.5774 27.7467 27.4365 28.1151 28.0099C28.4836 28.5832 29.039 29.0919 29.7256 29.2483C30.4122 29.4046 31.221 29.3939 31.8033 28.9769C32.0963 28.7666 32.4091 28.5922 32.7398 28.4502L32.0963 28.7216C32.5133 28.5491 32.9447 28.4341 33.3904 28.3712L32.6733 28.4682C33.1675 28.4035 33.6618 28.4053 34.1561 28.4682L33.4389 28.3712C33.9099 28.4377 34.3682 28.5599 34.8085 28.7396L34.1651 28.4682C34.5821 28.6444 34.9703 28.8672 35.3298 29.1404L34.7834 28.718C35.1716 29.02 35.5131 29.3669 35.8133 29.7551L35.3909 29.2087C35.7018 29.6185 35.9571 30.0625 36.1602 30.5334L35.8888 29.8899C36.1062 30.4076 36.2536 30.9468 36.3345 31.5022L36.2375 30.785C36.3075 31.3206 36.3111 31.8581 36.2446 32.3937L36.3417 31.6765C36.2626 32.2643 36.1044 32.834 35.878 33.3822L36.1494 32.7388C35.9067 33.3067 35.5958 33.837 35.2219 34.3294L35.6443 33.783C35.2507 34.2899 34.7978 34.7428 34.2909 35.1365L34.8373 34.7141C34.3592 35.0771 33.8434 35.3791 33.2916 35.6146L33.935 35.3432C33.4138 35.557 32.8728 35.708 32.3156 35.7835L33.0327 35.6865C32.5762 35.7422 32.1197 35.7476 31.6631 35.69L32.3803 35.7871C31.9759 35.7314 31.5859 35.6289 31.2066 35.4744L31.8501 35.7458C31.4618 35.5804 31.1024 35.3665 30.7681 35.1113L31.3145 35.5337C30.946 35.2443 30.6207 34.9118 30.3349 34.5415L30.7573 35.0879C30.4319 34.6584 30.1641 34.1928 29.9556 33.6968L30.227 34.3402C29.9916 33.7633 29.8388 33.1611 29.7543 32.5447L29.8514 33.2618C29.7364 32.3685 29.7597 31.4698 29.8802 30.5783L29.7831 31.2955C29.8927 30.5154 30.0563 29.739 30.3601 29.0092L30.0887 29.6527C30.245 29.2914 30.4373 28.9499 30.6764 28.6354L30.254 29.1818C30.4284 28.9625 30.6225 28.7666 30.8435 28.594L30.2971 29.0164C30.5164 28.8511 30.7519 28.7145 31.0053 28.6084L30.3619 28.8798C30.5721 28.7971 30.786 28.736 31.0089 28.7019L30.2918 28.7989C30.4913 28.7738 30.6872 28.7702 30.8867 28.7917L30.1695 28.6947C30.3025 28.7127 30.4319 28.7414 30.5614 28.7828C31.2174 28.9859 32.0532 28.8529 32.6391 28.5114C33.2251 28.1699 33.7319 27.5426 33.8775 26.9009C34.0339 26.2107 34.0015 25.4361 33.6061 24.8231C33.2107 24.2102 32.6876 23.7986 31.9957 23.5848L31.9939 23.5812Z" fill="#F9B500"/>
</svg>
