<svg width="70" height="66" viewBox="0 0 70 66" fill="none" xmlns="http://www.w3.org/2000/svg">
<path d="M67.1782 51.3084C67.1787 51.308 67.1792 51.3076 67.1797 51.3072C68.3716 50.3525 69.0485 48.9125 68.9541 47.3705C68.954 47.3687 68.9539 47.367 68.9538 47.3652L68.7823 43.2528L68.7822 43.2507C68.5813 38.8894 68.4683 35.1105 68.3701 31.8277C68.3268 30.3771 68.2863 29.0234 68.2424 27.7591C68.0996 23.6463 67.9207 20.4673 67.4812 18.0246C67.0416 15.5804 66.3297 13.8012 65.0658 12.5476C63.8001 11.2922 62.0492 10.6314 59.6847 10.27C59.2031 10.1934 58.8738 10.1409 58.6318 10.0795C58.3868 10.0173 58.3126 9.9641 58.2867 9.9381C58.2722 9.9237 58.2332 9.881 58.2069 9.6924C58.1791 9.4937 58.1754 9.2177 58.1754 8.7886C58.1754 6.8659 57.2258 5.3326 55.849 4.2476C54.4804 3.169 52.676 2.5183 50.8854 2.3222C49.0979 2.1264 47.2669 2.3777 45.8535 3.1709C44.4179 3.9766 43.4273 5.3392 43.3899 7.2716C43.3678 7.882 43.413 8.6024 43.4617 9.1596C43.4756 9.319 43.49 9.4665 43.5034 9.5961L31.0338 10.0316V8.7486C31.0786 4.879 27.6047 1.1597 22.6321 1.1597C21.5157 1.1597 20.3393 1.4721 19.4116 2.1125C18.4737 2.76 17.7844 3.7507 17.7096 5.0659C17.6227 6.4797 17.6121 8.6967 17.6068 10.7037C17.6064 10.8287 17.6061 10.9527 17.6058 11.0756C17.6011 12.9496 17.597 14.5562 17.5398 15.1341C17.1137 18.8479 20.183 20.9493 22.8515 20.6668C23.9403 20.5733 25.0998 20.2007 26.1008 19.4C27.1076 18.5946 27.9248 17.3791 28.3565 15.6523L28.3594 15.6407L28.3617 15.629L28.5817 14.5279H45.3957L45.4924 16.0782C45.3093 17.8375 45.7682 19.1684 46.6423 20.0634C47.5129 20.9548 48.7326 21.3493 49.9434 21.3668C51.154 21.3843 52.4041 21.0273 53.3852 20.3546C54.3706 19.6788 55.1105 18.6626 55.2106 17.3734L55.2114 17.361C55.249 16.6479 55.3194 15.3772 55.3937 14.2098C56.1668 14.2784 57.4262 14.4782 58.6475 14.7172C59.3958 14.8637 60.1113 15.0212 60.6653 15.1648C60.943 15.2368 61.1733 15.3035 61.3442 15.3618C61.4298 15.391 61.4941 15.4159 61.5389 15.436C61.5469 15.4395 61.5536 15.4427 61.5592 15.4454C61.5707 15.4668 61.5995 15.5235 61.634 15.6414C61.686 15.8185 61.732 16.065 61.7701 16.3773C61.8461 16.9996 61.8834 17.8174 61.8994 18.7231C61.9154 19.626 61.9101 20.6012 61.9034 21.535C61.9028 21.6174 61.9022 21.6996 61.9016 21.7813C61.8971 22.4024 61.8927 23.0011 61.8947 23.5384C61.5752 23.5125 61.1878 23.4785 60.7316 23.4384C57.4727 23.1521 50.7029 22.5574 40.1177 22.4177C32.313 22.3101 25.1437 22.4605 19.6688 22.6378C16.7953 22.7309 14.3997 22.8307 12.6219 22.9049C11 22.9725 9.8923 23.0187 9.405 23.0187C9.1994 23.0187 9.1101 22.9563 9.0576 22.8935C8.9897 22.8124 8.9209 22.6528 8.9051 22.3689C8.8731 21.7965 9.0691 20.9485 9.4739 19.9873C9.8732 19.0393 10.4537 18.0333 11.1343 17.1586C11.8176 16.2803 12.5797 15.5628 13.333 15.1565C14.2513 14.6753 14.9418 14.2166 15.389 13.7987C15.6118 13.5905 15.7959 13.3724 15.9107 13.1462C16.0263 12.9185 16.094 12.6339 15.9897 12.3445C15.8858 12.0564 15.6532 11.8799 15.4209 11.7764C15.1892 11.6732 14.9087 11.6186 14.6036 11.5955C13.9908 11.5491 13.1633 11.6221 12.1456 11.819C10.1301 12.1983 8.473 12.678 7.1218 13.4611C5.7556 14.2528 4.7246 15.3412 3.9395 16.8944C3.1615 18.4337 2.6293 20.4206 2.2334 23.0084C1.8371 25.599 1.573 28.8233 1.3474 32.8527C0.874396 41.0866 0.894116 47.5392 1.4087 52.1702C1.6659 54.4845 2.0488 56.3652 2.5662 57.7936C3.0791 59.2094 3.7504 60.2539 4.6358 60.7928L4.6373 60.7937C5.2855 61.1851 6.3921 61.5171 7.7709 61.8117C9.1697 62.1106 10.9125 62.3835 12.88 62.6319C16.8161 63.129 21.6831 63.5324 26.5614 63.8494C36.3168 64.4832 46.1519 64.7737 48.7428 64.7737C48.9961 64.7737 49.2764 64.6952 49.5505 64.59C49.8342 64.4812 50.1549 64.3262 50.5021 64.1372C51.197 63.7588 52.0335 63.2245 52.9511 62.5926C54.7882 61.3275 56.9874 59.6458 59.0973 57.9714C61.2088 56.2957 63.2374 54.622 64.735 53.3703C65.484 52.7444 66.1004 52.2237 66.5284 51.8609C66.7423 51.6794 66.9091 51.5375 67.0218 51.4416L67.1488 51.3334L67.1782 51.3084ZM67.1782 51.3084L66.8439 50.9364C66.8245 50.9528 66.7925 50.98 66.7487 51.0174C66.7223 51.0399 66.6916 51.066 66.6568 51.0957C66.7459 51.2164 66.8838 51.3213 67.0945 51.3625C67.1122 51.3525 67.1313 51.3405 67.1462 51.3307C67.1598 51.3218 67.1701 51.3147 67.173 51.3124L67.1782 51.3084ZM66.8658 50.918L66.5533 50.5276C66.5549 50.5264 66.5565 50.5251 66.558 50.5239L66.8658 50.918ZM66.8658 50.918L67.2207 51.2702C67.2378 51.2515 67.243 50.9676 67.0748 50.7399L66.8658 50.918ZM23.6244 17.0079L23.6146 17.0088L22.2834 17.1376L22.2744 17.1385L22.2654 17.1397C21.9663 17.1796 21.6588 16.9471 21.6283 16.5348C21.6047 15.9064 21.5714 15.2663 21.538 14.6242C21.4473 12.8811 21.3559 11.1232 21.4562 9.545C21.5955 7.3539 22.0965 5.762 23.2408 5.0469L23.2461 5.0435C23.5234 4.8653 23.9173 5.0744 23.9367 5.3842L23.9375 5.3945C24.1567 8.0245 24.1565 8.1912 24.152 13.4204C24.1513 14.2881 24.1504 15.295 24.1504 16.4758C24.1504 16.7518 23.9437 16.9834 23.6244 17.0079ZM50.2718 7.9979C50.5339 7.8172 50.6742 7.813 50.7311 7.826C50.777 7.8365 50.9045 7.8898 51.0571 8.206C51.3725 8.8599 51.5924 10.2248 51.5924 12.6107V12.6147C51.6139 15.2703 51.4402 16.7938 51.1796 17.6445C51.0503 18.0668 50.9123 18.2791 50.8054 18.3844C50.716 18.4725 50.6321 18.503 50.5311 18.5096C50.5053 18.5084 50.4142 18.4906 50.2668 18.2898C50.1118 18.0786 49.9553 17.7411 49.8137 17.2825C49.5326 16.372 49.3485 15.113 49.2852 13.7893C49.222 12.4683 49.2808 11.1157 49.469 10.0237C49.5633 9.4769 49.6873 9.0112 49.8362 8.6528C49.9897 8.2836 50.1466 8.0841 50.2718 7.9979ZM40.8624 58.4444L40.8595 58.4457C40.782 58.4786 40.5917 58.526 40.2525 58.5723C39.9283 58.6164 39.5094 58.6545 39.0053 58.6863C37.9982 58.7497 36.6767 58.7861 35.1443 58.7989C32.0812 58.8243 28.1982 58.7547 24.3511 58.6206C20.5039 58.4866 16.6992 58.2883 13.7922 58.0569C12.3375 57.9411 11.115 57.8176 10.2268 57.6908C9.7814 57.6272 9.4306 57.5642 9.1807 57.5035C9.0551 57.473 8.9657 57.4456 8.9071 57.4229C8.8961 57.4187 8.8872 57.415 8.8803 57.412C8.8402 57.3567 8.7692 57.2234 8.6907 56.9597C8.6032 56.6659 8.5238 56.2724 8.4542 55.7844C8.3151 54.8102 8.2225 53.5125 8.1674 51.9941C8.0572 48.9604 8.0985 45.0959 8.2031 41.285C8.3076 37.4761 8.47519 33.7293 8.61669 30.934C8.68739 29.5366 8.7516 28.3774 8.7981 27.5677C8.817 27.2381 8.833 26.9665 8.8453 26.7603C8.9141 26.7593 8.9904 26.7583 9.0738 26.7571C9.5258 26.751 10.19 26.7428 11.0385 26.7344C12.7355 26.7177 15.1698 26.7002 18.1178 26.6975C24.0143 26.6922 31.9646 26.7458 40.1821 26.9818C51.5509 27.3181 57.6656 27.8369 60.6316 28.0886C61.2703 28.1428 61.7631 28.1846 62.1308 28.2095C62.1508 28.2742 62.1735 28.3541 62.1985 28.4504C62.2923 28.8114 62.404 29.3411 62.5257 30.0027C62.7685 31.3225 63.0449 33.1328 63.2937 35.0911C63.7438 38.6337 64.095 42.5982 64.0084 45.0162C61.738 43.9 58.7118 42.7592 57.1569 42.3601C55.1579 41.8331 53.265 41.6904 51.7575 41.9771C50.2554 42.2626 49.0328 43.0029 48.6102 44.3236L48.6083 44.3297C47.7407 47.165 46.2107 50.5463 44.6664 53.3154C43.8946 54.6992 43.1255 55.9189 42.4412 56.8349C42.0987 57.2932 41.7833 57.6676 41.5048 57.9463C41.2181 58.2331 41.0024 58.3858 40.8624 58.4444ZM47.4153 57.9104C47.9478 57.0428 48.8564 55.4435 50.6453 52.053L50.6467 52.0504C51.0187 51.3353 51.3464 50.6984 51.6383 50.1311C52.1088 49.2169 52.4863 48.4833 52.8064 47.8941C53.3344 46.9223 53.6625 46.4311 53.932 46.1929C54.0516 46.0872 54.1413 46.049 54.2185 46.0339C54.3029 46.0173 54.4173 46.0193 54.6 46.0621C54.7865 46.1059 55.0085 46.1829 55.3059 46.2921C55.3567 46.3107 55.4093 46.3302 55.4638 46.3503C55.7202 46.4451 56.018 46.5551 56.3576 46.6684L56.3619 46.6697C56.5827 46.7412 56.8481 46.8278 57.1469 46.9253C58.5591 47.3863 60.7172 48.0907 62.4371 48.5846C58.3988 52.2502 53.1651 55.0744 47.4153 57.9104Z" fill="#F9B500"/>
<path d="M67.1782 51.3084C67.1787 51.308 67.1792 51.3076 67.1797 51.3072C68.3716 50.3525 69.0485 48.9125 68.9541 47.3705C68.954 47.3687 68.9539 47.367 68.9538 47.3652L68.7823 43.2528L68.7822 43.2507C68.5813 38.8894 68.4683 35.1105 68.3701 31.8277C68.3268 30.3771 68.2863 29.0234 68.2424 27.7591C68.0996 23.6463 67.9207 20.4673 67.4812 18.0246C67.0416 15.5804 66.3297 13.8012 65.0658 12.5476C63.8001 11.2922 62.0492 10.6314 59.6847 10.27C59.2031 10.1934 58.8738 10.1409 58.6318 10.0795C58.3868 10.0173 58.3126 9.9641 58.2867 9.9381C58.2722 9.9237 58.2332 9.881 58.2069 9.6924C58.1791 9.4937 58.1754 9.2177 58.1754 8.7886C58.1754 6.8659 57.2258 5.3326 55.849 4.2476C54.4804 3.169 52.676 2.5183 50.8854 2.3222C49.0979 2.1264 47.2669 2.3777 45.8535 3.1709C44.4179 3.9766 43.4273 5.3392 43.3899 7.2716C43.3678 7.882 43.413 8.6024 43.4617 9.1596C43.4756 9.319 43.49 9.4665 43.5034 9.5961L31.0338 10.0316V8.7486C31.0786 4.879 27.6047 1.1597 22.6321 1.1597C21.5157 1.1597 20.3393 1.4721 19.4116 2.1125C18.4737 2.76 17.7844 3.7507 17.7096 5.0659C17.6227 6.4797 17.6121 8.6967 17.6068 10.7037C17.6064 10.8287 17.6061 10.9527 17.6058 11.0756C17.6011 12.9496 17.597 14.5562 17.5398 15.1341C17.1137 18.8479 20.183 20.9493 22.8515 20.6668C23.9403 20.5733 25.0998 20.2007 26.1008 19.4C27.1076 18.5946 27.9248 17.3791 28.3565 15.6523L28.3594 15.6407L28.3617 15.629L28.5817 14.5279H45.3957L45.4924 16.0782C45.3093 17.8375 45.7682 19.1684 46.6423 20.0634C47.5129 20.9548 48.7326 21.3493 49.9434 21.3668C51.154 21.3843 52.4041 21.0273 53.3852 20.3546C54.3706 19.6788 55.1105 18.6626 55.2106 17.3734L55.2114 17.361C55.249 16.6479 55.3194 15.3772 55.3937 14.2098C56.1668 14.2784 57.4262 14.4782 58.6475 14.7172C59.3958 14.8637 60.1113 15.0212 60.6653 15.1648C60.943 15.2368 61.1733 15.3035 61.3442 15.3618C61.4298 15.391 61.4941 15.4159 61.5389 15.436C61.5469 15.4395 61.5536 15.4427 61.5592 15.4454C61.5707 15.4668 61.5995 15.5235 61.634 15.6414C61.686 15.8185 61.732 16.065 61.7701 16.3773C61.8461 16.9996 61.8834 17.8174 61.8994 18.7231C61.9154 19.626 61.9101 20.6012 61.9034 21.535C61.9028 21.6174 61.9022 21.6996 61.9016 21.7813C61.8971 22.4024 61.8927 23.0011 61.8947 23.5384C61.5752 23.5125 61.1878 23.4785 60.7316 23.4384C57.4727 23.1521 50.7029 22.5574 40.1177 22.4177C32.313 22.3101 25.1437 22.4605 19.6688 22.6378C16.7953 22.7309 14.3997 22.8307 12.6219 22.9049C11 22.9725 9.8923 23.0187 9.405 23.0187C9.1994 23.0187 9.1101 22.9563 9.0576 22.8935C8.9897 22.8124 8.9209 22.6528 8.9051 22.3689C8.8731 21.7965 9.0691 20.9485 9.4739 19.9873C9.8732 19.0393 10.4537 18.0333 11.1343 17.1586C11.8176 16.2803 12.5797 15.5628 13.333 15.1565C14.2513 14.6753 14.9418 14.2166 15.389 13.7987C15.6118 13.5905 15.7959 13.3724 15.9107 13.1462C16.0263 12.9185 16.094 12.6339 15.9897 12.3445C15.8858 12.0564 15.6532 11.8799 15.4209 11.7764C15.1892 11.6732 14.9087 11.6186 14.6036 11.5955C13.9908 11.5491 13.1633 11.6221 12.1456 11.819C10.1301 12.1983 8.473 12.678 7.1218 13.4611C5.7556 14.2528 4.7246 15.3412 3.9395 16.8944C3.1615 18.4337 2.6293 20.4206 2.2334 23.0084C1.8371 25.599 1.573 28.8233 1.3474 32.8527C0.874396 41.0866 0.894116 47.5392 1.4087 52.1702C1.6659 54.4845 2.0488 56.3652 2.5662 57.7936C3.0791 59.2094 3.7504 60.2539 4.6358 60.7928L4.6373 60.7937C5.2855 61.1851 6.3921 61.5171 7.7709 61.8117C9.1697 62.1106 10.9125 62.3835 12.88 62.6319C16.8161 63.129 21.6831 63.5324 26.5614 63.8494C36.3168 64.4832 46.1519 64.7737 48.7428 64.7737C48.9961 64.7737 49.2764 64.6952 49.5505 64.59C49.8342 64.4812 50.1549 64.3262 50.5021 64.1372C51.197 63.7588 52.0335 63.2245 52.9511 62.5926C54.7882 61.3275 56.9874 59.6458 59.0973 57.9714C61.2088 56.2957 63.2374 54.622 64.735 53.3703C65.484 52.7444 66.1004 52.2237 66.5284 51.8609C66.7423 51.6794 66.9091 51.5375 67.0218 51.4416L67.1488 51.3334L67.1782 51.3084ZM67.1782 51.3084L66.8439 50.9364C66.8245 50.9528 66.7925 50.98 66.7487 51.0174C66.7223 51.0399 66.6916 51.066 66.6568 51.0957C66.7459 51.2164 66.8838 51.3213 67.0945 51.3625C67.1122 51.3525 67.1313 51.3405 67.1462 51.3307C67.1598 51.3218 67.1701 51.3147 67.173 51.3124L67.1782 51.3084ZM66.8658 50.918L66.5533 50.5276C66.5549 50.5264 66.5565 50.5251 66.558 50.5239L66.8658 50.918ZM66.8658 50.918L67.2207 51.2702C67.2378 51.2515 67.243 50.9676 67.0748 50.7399L66.8658 50.918ZM23.6244 17.0079L23.6146 17.0088L22.2834 17.1376L22.2744 17.1385L22.2654 17.1397C21.9663 17.1796 21.6588 16.9471 21.6283 16.5348C21.6047 15.9064 21.5714 15.2663 21.538 14.6242C21.4473 12.8811 21.3559 11.1232 21.4562 9.545C21.5955 7.3539 22.0965 5.762 23.2408 5.0469L23.2461 5.0435C23.5234 4.8653 23.9173 5.0744 23.9367 5.3842L23.9375 5.3945C24.1567 8.0245 24.1565 8.1912 24.152 13.4204C24.1513 14.2881 24.1504 15.295 24.1504 16.4758C24.1504 16.7518 23.9437 16.9834 23.6244 17.0079ZM50.2718 7.9979C50.5339 7.8172 50.6742 7.813 50.7311 7.826C50.777 7.8365 50.9045 7.8898 51.0571 8.206C51.3725 8.8599 51.5924 10.2248 51.5924 12.6107V12.6147C51.6139 15.2703 51.4402 16.7938 51.1796 17.6445C51.0503 18.0668 50.9123 18.2791 50.8054 18.3844C50.716 18.4725 50.6321 18.503 50.5311 18.5096C50.5053 18.5084 50.4142 18.4906 50.2668 18.2898C50.1118 18.0786 49.9553 17.7411 49.8137 17.2825C49.5326 16.372 49.3485 15.113 49.2852 13.7893C49.222 12.4683 49.2808 11.1157 49.469 10.0237C49.5633 9.4769 49.6873 9.0112 49.8362 8.6528C49.9897 8.2836 50.1466 8.0841 50.2718 7.9979ZM40.8624 58.4444L40.8595 58.4457C40.782 58.4786 40.5917 58.526 40.2525 58.5723C39.9283 58.6164 39.5094 58.6545 39.0053 58.6863C37.9982 58.7497 36.6767 58.7861 35.1443 58.7989C32.0812 58.8243 28.1982 58.7547 24.3511 58.6206C20.5039 58.4866 16.6992 58.2883 13.7922 58.0569C12.3375 57.9411 11.115 57.8176 10.2268 57.6908C9.7814 57.6272 9.4306 57.5642 9.1807 57.5035C9.0551 57.473 8.9657 57.4456 8.9071 57.4229C8.8961 57.4187 8.8872 57.415 8.8803 57.412C8.8402 57.3567 8.7692 57.2234 8.6907 56.9597C8.6032 56.6659 8.5238 56.2724 8.4542 55.7844C8.3151 54.8102 8.2225 53.5125 8.1674 51.9941C8.0572 48.9604 8.0985 45.0959 8.2031 41.285C8.3076 37.4761 8.47519 33.7293 8.61669 30.934C8.68739 29.5366 8.7516 28.3774 8.7981 27.5677C8.817 27.2381 8.833 26.9665 8.8453 26.7603C8.9141 26.7593 8.9904 26.7583 9.0738 26.7571C9.5258 26.751 10.19 26.7428 11.0385 26.7344C12.7355 26.7177 15.1698 26.7002 18.1178 26.6975C24.0143 26.6922 31.9646 26.7458 40.1821 26.9818C51.5509 27.3181 57.6656 27.8369 60.6316 28.0886C61.2703 28.1428 61.7631 28.1846 62.1308 28.2095C62.1508 28.2742 62.1735 28.3541 62.1985 28.4504C62.2923 28.8114 62.404 29.3411 62.5257 30.0027C62.7685 31.3225 63.0449 33.1328 63.2937 35.0911C63.7438 38.6337 64.095 42.5982 64.0084 45.0162C61.738 43.9 58.7118 42.7592 57.1569 42.3601C55.1579 41.8331 53.265 41.6904 51.7575 41.9771C50.2554 42.2626 49.0328 43.0029 48.6102 44.3236L48.6083 44.3297C47.7407 47.165 46.2107 50.5463 44.6664 53.3154C43.8946 54.6992 43.1255 55.9189 42.4412 56.8349C42.0987 57.2932 41.7833 57.6676 41.5048 57.9463C41.2181 58.2331 41.0024 58.3858 40.8624 58.4444ZM47.4153 57.9104C47.9478 57.0428 48.8564 55.4435 50.6453 52.053L50.6467 52.0504C51.0187 51.3353 51.3464 50.6984 51.6383 50.1311C52.1088 49.2169 52.4863 48.4833 52.8064 47.8941C53.3344 46.9223 53.6625 46.4311 53.932 46.1929C54.0516 46.0872 54.1413 46.049 54.2185 46.0339C54.3029 46.0173 54.4173 46.0193 54.6 46.0621C54.7865 46.1059 55.0085 46.1829 55.3059 46.2921C55.3567 46.3107 55.4093 46.3302 55.4638 46.3503C55.7202 46.4451 56.018 46.5551 56.3576 46.6684L56.3619 46.6697C56.5827 46.7412 56.8481 46.8278 57.1469 46.9253C58.5591 47.3863 60.7172 48.0907 62.4371 48.5846C58.3988 52.2502 53.1651 55.0744 47.4153 57.9104Z" stroke="#F9B500"/>
<path d="M36.0338 30.8777L36.0309 30.8776C32.254 30.8776 28.0282 30.7057 26.6434 30.5379C25.906 30.4499 25.1569 30.4066 24.4685 30.4479C23.7861 30.4888 23.1268 30.6145 22.5912 30.8902C22.0401 31.174 21.6106 31.6243 21.4528 32.2824C21.3006 32.9171 21.4201 33.6689 21.7848 34.535C22.4845 36.1908 24.0437 37.5829 25.3627 38.2165C25.6977 38.3774 26.0325 38.4971 26.3481 38.5571C26.6584 38.6161 26.986 38.6241 27.2827 38.5215C27.5999 38.4117 27.8525 38.1837 27.9812 37.8457C28.1009 37.5318 28.0978 37.1664 28.019 36.7804L27.9103 36.1722C28.8769 36.172 29.7772 36.1712 30.615 36.1704C35.3443 36.1662 38.0797 36.1638 39.4925 36.2727C39.6752 36.2868 39.8296 36.3024 39.959 36.3191C39.8973 36.3609 39.829 36.406 39.7537 36.4546L39.7509 36.4564C39.5448 36.5915 39.2896 36.8292 39.0159 37.1113C38.7335 37.4024 38.4033 37.7706 38.0426 38.1923C37.3207 39.0363 36.4638 40.1097 35.6012 41.2419C33.8828 43.4974 32.1113 46.0263 31.3394 47.46C31.0287 48.0397 30.6326 48.6654 30.2426 49.2009C29.8445 49.7477 29.4807 50.1617 29.2374 50.3528L29.2317 50.3572L29.2262 50.3619C28.8874 50.6442 28.6066 50.9326 28.4367 51.2371C28.2562 51.5604 28.1905 51.9248 28.3338 52.2952C28.4648 52.6342 28.7425 52.9 29.0637 53.1208C29.3917 53.3463 29.8213 53.5628 30.3382 53.7827C31.979 54.4795 33.6319 54.6646 34.9085 54.3856C36.177 54.1083 37.2183 53.3147 37.2183 51.9913C37.2183 51.3674 37.419 50.5553 37.8318 49.5864C38.2419 48.6241 38.8477 47.5379 39.6248 46.3749C41.1788 44.0491 43.3969 41.4471 46.0367 38.9563L46.0404 38.9528L47.1982 37.838C47.1985 37.8377 47.1988 37.8374 47.1991 37.8371C48.3196 36.7685 48.2504 35.022 47.1551 33.9789L47.1464 33.9706L47.1372 33.9627C47.0492 33.8866 46.9633 33.8122 46.8793 33.7395C45.3334 32.4011 44.4558 31.6413 43.0825 31.2658C42.3697 31.0708 41.5395 30.9819 40.4353 30.9365C39.453 30.8961 38.2265 30.8895 36.642 30.881C36.4449 30.8799 36.2422 30.8788 36.0338 30.8777Z" fill="#F9B500" stroke="#F9B500"/>
</svg>
