<svg width="110" height="67" viewBox="0 0 110 67" fill="none" xmlns="http://www.w3.org/2000/svg">
<mask id="path-1-outside-1_5920_31585" maskUnits="userSpaceOnUse" x="-4.76569" y="-11.9773" width="121.408" height="86.1443" fill="black">
<rect fill="white" x="-4.76569" y="-11.9773" width="121.408" height="86.1443"/>
<path fill-rule="evenodd" clip-rule="evenodd" d="M51.3911 3.69344C50.4942 7.45452 53.4089 14.5778 56.7522 14.1931C58.2026 14.0047 58.3456 13.4544 57.9545 9.1019C56.9988 -1.24678 52.0973 0.666191 51.3911 3.69344ZM74.0239 18.3027C72.2174 20.9411 75.7338 22.3563 78.9506 20.3004C82.2241 18.1806 86.0384 14.7496 88.2302 12.3235C90.5439 10.0447 87.7358 7.90649 84.53 9.45741C80.7398 11.2544 75.263 16.4613 74.0239 18.3027ZM22.7541 3.25828C20.1829 3.59936 25.5506 14.9987 28.6923 15.8527C32.3607 16.8369 32.8713 16.104 31.1799 12.1332C28.5262 5.85522 25.7021 2.85406 22.7541 3.25828ZM54.5884 25.6065C52.8435 26.6202 50.7018 28.0825 49.8334 28.8051C42.2621 35.4469 42.1678 35.5017 40.1326 33.0078C35.4059 27.3112 26.5637 22.0428 26.5199 29.919C26.5236 34.6834 27.8601 43.7205 28.0579 46.6587C28.5324 54.3897 29.4691 55.8705 33.856 55.9388C44.7574 56.0543 59.4513 59.6053 69.3491 64.5097C71.7929 65.738 72.0196 65.4816 73.6078 60.4466C76.8127 50.2666 85.5198 41.7187 86.3585 38.4899C87.302 34.8575 79.5604 35.8348 68.1063 40.7758L66.9374 41.268L65.7834 40.0068C63.4098 37.4293 61.5987 38.5438 62.4066 42.0621C63.0659 44.9191 63.9379 46.0325 67.1879 45.3905C69.0437 45.0289 71.7202 44.1282 75.5376 42.6893C77.0456 42.1246 78.2612 41.7611 78.2326 41.8712C78.0992 42.3849 73.3069 51.431 73.2974 51.4677L67.7018 49.5781C63.1965 48.2702 62.0598 50.4883 66.5822 52.3471C67.0523 52.5413 71.7161 54.3179 71.7161 54.3179C71.7161 54.3179 70.9943 56.3261 70.1625 57.3701C69.2931 58.4049 68.2762 58.4661 66.8669 57.5714C55.7986 50.6989 34.8897 50.5716 34.8521 50.5623C34.1086 50.4958 31.936 32.0376 32.5962 31.654C32.6905 31.5992 33.3567 32.2713 34.0882 33.1548C42.4079 42.9015 43.5187 42.9416 52.9893 34.0747L57.4367 29.9021L58.2114 32.0066C60.4608 38.1456 66.1786 37.098 64.3196 32.5391C63.6749 31.0133 62.5525 28.7058 60.7281 25.0925C59.9143 23.4469 58.0309 23.6064 54.5884 25.6065ZM103.685 37.1468C102.13 37.5828 93.3408 42.44 92.189 43.483C89.7057 45.7981 93.2312 47.3326 97.2281 45.6647C101.894 43.7326 108.722 40.1088 108.893 39.4483C109.274 38.1367 105.796 36.5748 103.685 37.1468ZM5.9158 31.7021C11.0664 34.3798 14.1412 35.4907 15.5545 35.1369C17.8628 34.5747 17.1223 33.5719 12.6109 31.2082C12.188 30.9866 8.06236 28.6792 5.01451 27.9264C2.8321 27.3874 -2.3268 27.3627 5.9158 31.7021Z"/>
</mask>
<path fill-rule="evenodd" clip-rule="evenodd" d="M51.3911 3.69344C50.4942 7.45452 53.4089 14.5778 56.7522 14.1931C58.2026 14.0047 58.3456 13.4544 57.9545 9.1019C56.9988 -1.24678 52.0973 0.666191 51.3911 3.69344ZM74.0239 18.3027C72.2174 20.9411 75.7338 22.3563 78.9506 20.3004C82.2241 18.1806 86.0384 14.7496 88.2302 12.3235C90.5439 10.0447 87.7358 7.90649 84.53 9.45741C80.7398 11.2544 75.263 16.4613 74.0239 18.3027ZM22.7541 3.25828C20.1829 3.59936 25.5506 14.9987 28.6923 15.8527C32.3607 16.8369 32.8713 16.104 31.1799 12.1332C28.5262 5.85522 25.7021 2.85406 22.7541 3.25828ZM54.5884 25.6065C52.8435 26.6202 50.7018 28.0825 49.8334 28.8051C42.2621 35.4469 42.1678 35.5017 40.1326 33.0078C35.4059 27.3112 26.5637 22.0428 26.5199 29.919C26.5236 34.6834 27.8601 43.7205 28.0579 46.6587C28.5324 54.3897 29.4691 55.8705 33.856 55.9388C44.7574 56.0543 59.4513 59.6053 69.3491 64.5097C71.7929 65.738 72.0196 65.4816 73.6078 60.4466C76.8127 50.2666 85.5198 41.7187 86.3585 38.4899C87.302 34.8575 79.5604 35.8348 68.1063 40.7758L66.9374 41.268L65.7834 40.0068C63.4098 37.4293 61.5987 38.5438 62.4066 42.0621C63.0659 44.9191 63.9379 46.0325 67.1879 45.3905C69.0437 45.0289 71.7202 44.1282 75.5376 42.6893C77.0456 42.1246 78.2612 41.7611 78.2326 41.8712C78.0992 42.3849 73.3069 51.431 73.2974 51.4677L67.7018 49.5781C63.1965 48.2702 62.0598 50.4883 66.5822 52.3471C67.0523 52.5413 71.7161 54.3179 71.7161 54.3179C71.7161 54.3179 70.9943 56.3261 70.1625 57.3701C69.2931 58.4049 68.2762 58.4661 66.8669 57.5714C55.7986 50.6989 34.8897 50.5716 34.8521 50.5623C34.1086 50.4958 31.936 32.0376 32.5962 31.654C32.6905 31.5992 33.3567 32.2713 34.0882 33.1548C42.4079 42.9015 43.5187 42.9416 52.9893 34.0747L57.4367 29.9021L58.2114 32.0066C60.4608 38.1456 66.1786 37.098 64.3196 32.5391C63.6749 31.0133 62.5525 28.7058 60.7281 25.0925C59.9143 23.4469 58.0309 23.6064 54.5884 25.6065ZM103.685 37.1468C102.13 37.5828 93.3408 42.44 92.189 43.483C89.7057 45.7981 93.2312 47.3326 97.2281 45.6647C101.894 43.7326 108.722 40.1088 108.893 39.4483C109.274 38.1367 105.796 36.5748 103.685 37.1468ZM5.9158 31.7021C11.0664 34.3798 14.1412 35.4907 15.5545 35.1369C17.8628 34.5747 17.1223 33.5719 12.6109 31.2082C12.188 30.9866 8.06236 28.6792 5.01451 27.9264C2.8321 27.3874 -2.3268 27.3627 5.9158 31.7021Z" fill="#F9B500"/>
<path fill-rule="evenodd" clip-rule="evenodd" d="M51.3911 3.69344C50.4942 7.45452 53.4089 14.5778 56.7522 14.1931C58.2026 14.0047 58.3456 13.4544 57.9545 9.1019C56.9988 -1.24678 52.0973 0.666191 51.3911 3.69344ZM74.0239 18.3027C72.2174 20.9411 75.7338 22.3563 78.9506 20.3004C82.2241 18.1806 86.0384 14.7496 88.2302 12.3235C90.5439 10.0447 87.7358 7.90649 84.53 9.45741C80.7398 11.2544 75.263 16.4613 74.0239 18.3027ZM22.7541 3.25828C20.1829 3.59936 25.5506 14.9987 28.6923 15.8527C32.3607 16.8369 32.8713 16.104 31.1799 12.1332C28.5262 5.85522 25.7021 2.85406 22.7541 3.25828ZM54.5884 25.6065C52.8435 26.6202 50.7018 28.0825 49.8334 28.8051C42.2621 35.4469 42.1678 35.5017 40.1326 33.0078C35.4059 27.3112 26.5637 22.0428 26.5199 29.919C26.5236 34.6834 27.8601 43.7205 28.0579 46.6587C28.5324 54.3897 29.4691 55.8705 33.856 55.9388C44.7574 56.0543 59.4513 59.6053 69.3491 64.5097C71.7929 65.738 72.0196 65.4816 73.6078 60.4466C76.8127 50.2666 85.5198 41.7187 86.3585 38.4899C87.302 34.8575 79.5604 35.8348 68.1063 40.7758L66.9374 41.268L65.7834 40.0068C63.4098 37.4293 61.5987 38.5438 62.4066 42.0621C63.0659 44.9191 63.9379 46.0325 67.1879 45.3905C69.0437 45.0289 71.7202 44.1282 75.5376 42.6893C77.0456 42.1246 78.2612 41.7611 78.2326 41.8712C78.0992 42.3849 73.3069 51.431 73.2974 51.4677L67.7018 49.5781C63.1965 48.2702 62.0598 50.4883 66.5822 52.3471C67.0523 52.5413 71.7161 54.3179 71.7161 54.3179C71.7161 54.3179 70.9943 56.3261 70.1625 57.3701C69.2931 58.4049 68.2762 58.4661 66.8669 57.5714C55.7986 50.6989 34.8897 50.5716 34.8521 50.5623C34.1086 50.4958 31.936 32.0376 32.5962 31.654C32.6905 31.5992 33.3567 32.2713 34.0882 33.1548C42.4079 42.9015 43.5187 42.9416 52.9893 34.0747L57.4367 29.9021L58.2114 32.0066C60.4608 38.1456 66.1786 37.098 64.3196 32.5391C63.6749 31.0133 62.5525 28.7058 60.7281 25.0925C59.9143 23.4469 58.0309 23.6064 54.5884 25.6065ZM103.685 37.1468C102.13 37.5828 93.3408 42.44 92.189 43.483C89.7057 45.7981 93.2312 47.3326 97.2281 45.6647C101.894 43.7326 108.722 40.1088 108.893 39.4483C109.274 38.1367 105.796 36.5748 103.685 37.1468ZM5.9158 31.7021C11.0664 34.3798 14.1412 35.4907 15.5545 35.1369C17.8628 34.5747 17.1223 33.5719 12.6109 31.2082C12.188 30.9866 8.06236 28.6792 5.01451 27.9264C2.8321 27.3874 -2.3268 27.3627 5.9158 31.7021Z" stroke="#F9B500" stroke-width="2" mask="url(#path-1-outside-1_5920_31585)"/>
</svg>
