<svg width="64" height="51" viewBox="0 0 64 51" fill="none" xmlns="http://www.w3.org/2000/svg">
<g clip-path="url(#clip0_4585_26921)">
<path d="M42.7932 29.9525C42.3117 28.8493 41.7929 27.7526 41.3678 26.6292C41.0293 25.7339 40.7952 24.802 40.5131 23.8866C40.4485 23.6739 40.3932 23.437 40.2522 23.2785C40.1406 23.1522 39.905 23.1314 39.5471 22.9942C39.6156 23.4867 39.6141 23.7993 39.7062 24.0851C40.2021 25.6045 40.7208 27.1187 41.2251 28.6343C41.3247 28.9369 41.4159 29.2433 41.5011 29.5474C41.7927 30.6196 42.0843 31.6918 42.4181 32.9263C41.9501 32.3501 41.6977 31.8288 41.4966 31.2645C41.1786 30.3701 41.0177 29.4107 40.3481 28.6528C40.1543 28.4323 40.1236 28.0587 40.0301 27.7584C39.6694 26.6667 39.3232 25.5736 38.9565 24.4795C38.9186 24.3606 38.8243 24.2618 38.7416 24.1327C38.0336 24.3274 38.5473 24.8932 38.3727 25.2577L37.6099 25.668C37.5696 26.4806 37.7303 27.259 37.9848 28.0108C38.4768 29.4312 39.0169 30.8353 39.5448 32.2348C39.7744 32.8517 40.0353 33.4598 40.3481 34.2408C39.9892 34.1241 39.8092 34.1037 39.6668 34.0213C36.8594 32.3599 34.1535 30.5426 31.6666 28.4266C30.3548 27.311 29.0783 26.1395 27.883 24.9016C26.2198 23.178 24.5804 21.4288 23.0519 19.5899C21.5257 17.745 20.1044 15.8081 18.7214 13.844C17.5994 12.2515 16.5478 10.6026 15.5741 8.91384C14.6785 7.3664 13.8989 5.75214 13.1361 4.13041C12.7281 3.27105 12.7328 2.33341 13.031 1.4109C13.0863 1.23032 13.1477 1.05207 13.2273 0.790295C13.0179 0.918772 12.8935 0.989324 12.7727 1.06827C12.2972 0.892843 12.6146 0.555281 12.6204 0.286117C11.9632 0.402873 11.3107 1.0155 11.1914 1.7074C11.1167 2.13804 11.1209 2.59892 11.1609 3.03878C11.4499 5.78704 12.1609 8.43276 13.0813 11.0405C13.7113 12.827 14.5008 14.5425 15.3537 16.2197C16.1196 17.7243 17.0581 19.142 17.9438 20.5882C19.2557 22.7198 20.7801 24.6963 22.3796 26.6042C25.5612 30.3924 29.248 33.6436 33.2447 36.5406C34.1213 37.1761 35.0301 37.7821 35.9114 38.4055C36.1686 38.5876 36.4021 38.7955 36.7793 39.1002C36.4444 39.1388 36.2737 39.1846 36.1118 39.1713C33.8249 38.983 31.532 38.7925 29.246 38.5837C28.7277 38.538 28.2253 38.5053 27.7069 38.9676L29.5103 39.4367C28.7204 39.7182 27.983 39.3728 27.1601 39.2868L26.9993 40.0323C27.6706 40.5682 28.4902 40.4998 29.2064 40.7189C29.5979 40.8412 30.0299 40.8398 30.4339 40.9113C30.6663 40.9587 30.8945 41.0532 31.085 41.3002L27.1963 40.6437C27.4268 41.2401 27.8213 41.5724 28.3695 41.6852C29.466 41.9109 30.5554 42.1549 31.6593 42.3068C35.2101 42.792 38.7479 43.293 42.1544 44.4813C43.3331 44.8917 44.5499 45.1844 45.7435 45.5379C46.4803 45.7578 47.184 46.0278 47.8347 46.4722C48.4611 46.9073 49.1644 47.2327 49.7982 47.5942L51.2852 47.4547L51.5738 46.7025L52.1815 47.0956C52.479 46.9731 52.8092 46.8562 53.122 46.7118C53.7478 46.4229 53.8478 46.0716 53.4825 45.5C53.3825 45.3434 53.2611 45.2063 52.9636 44.8208C53.1922 44.8598 53.2841 44.8742 53.3783 44.8825C53.4726 44.8908 53.5631 44.8907 53.6596 44.8929L53.7384 43.3087C53.404 42.8742 53.0345 42.2593 52.5354 41.7825C51.285 40.5792 50.4449 39.1227 49.7554 37.5638C48.8692 35.5746 47.9638 33.599 47.1255 31.5934C46.4509 29.9776 45.6079 28.4017 45.3367 26.6414C45.1786 25.6204 44.5486 24.8499 44.0883 23.9636L43.5662 23.9095L43.0799 23.1453C42.6859 23.3561 42.8336 23.6424 42.9108 23.8947C43.2145 24.9715 43.5267 26.0446 43.8304 27.1214C43.8763 27.2921 43.8741 27.4792 43.9014 27.6984C43.4148 27.6788 43.3534 27.349 43.2696 27.0594C42.9229 25.9313 42.5869 24.7934 42.2318 23.669C42.1308 23.3519 41.9673 23.0526 41.8522 22.7719C41.2813 22.8452 41.263 23.1652 41.3365 23.4996C41.4527 24.0313 41.5773 24.5592 41.7415 25.0745C42.1026 26.2012 42.489 27.3167 42.8683 28.4504L42.8086 29.9306L42.8232 30.1102L42.775 29.9456L42.7932 29.9525ZM15.1688 13.9984C15.1958 14.0367 15.2206 14.0809 15.2477 14.1192L15.1036 14.1683C15.0621 14.222 15.0473 14.2789 15.0506 14.3428L15.0735 14.4281L15.0842 14.3278L14.6601 13.7824L14.4395 13.2872L14.3591 13.152L14.5107 13.1197L14.5673 12.7726L14.2298 12.0377L14.1405 11.7808C13.8908 11.1979 13.5391 10.6454 13.6196 9.94563L14.2687 11.7186L14.3809 11.9704L14.6992 12.7188L14.9008 13.2276L14.9733 13.492C15.0046 13.5736 15.0336 13.6613 15.071 13.7452L15.1711 13.9924L15.1688 13.9984ZM16.1214 12.0952L16.0321 11.8383L15.7272 11.5265L15.5707 11.2994L14.9642 10.2317L14.8917 9.96732L14.8413 9.89926L14.8581 9.98228L15.0146 10.2093L15.6379 11.2695L15.7104 11.534L16.0069 11.8495L16.1214 12.0952L16.2108 12.3522L16.6037 12.489L16.4636 11.802L16.35 11.5357L16.0525 11.2407L15.9343 10.9866L15.8389 10.7273L15.7931 10.6471L15.8053 10.7422L15.9007 11.0015L16.0129 11.2533L16.3164 11.5507L16.43 11.8169L16.9434 12.6193L16.9781 12.7648L16.9686 12.6081L16.591 12.4493L16.4474 12.9509L16.2504 12.3395L16.1359 12.0938L16.1214 12.0952ZM20.3358 21.972L20.6454 22.2716L20.7492 22.5272C21.1174 22.7102 21.364 22.9926 21.4423 23.4054L21.7327 23.7186L21.7711 23.8725L21.7663 23.7037L21.4674 23.3942C21.0801 23.2247 20.8634 22.9189 20.7828 22.5122L20.685 22.259L20.3732 21.9654L20.3507 21.915L20.3396 21.9804L20.3358 21.972ZM21.2771 23.9266L20.9531 23.6284L20.5505 23.0633L19.6781 21.9632C19.3404 21.4649 19.0064 20.9749 18.6687 20.4766L18.5625 20.2271L18.2637 19.9176L18.2324 19.836L18.2325 19.9265C18.3328 20.0276 18.4393 20.1311 18.5397 20.2322L18.6542 20.478L19.8026 21.8927L20.5551 23.0512L20.9578 23.6162L21.2375 23.9392L21.3268 24.1962L21.6303 24.4935L21.6649 24.5485L21.6532 24.4884L21.3641 24.1896L21.2748 23.9327L21.2771 23.9266ZM20.0071 18.5473L20.3143 18.8531C20.4745 18.998 20.6644 19.1196 20.8008 19.2902C22.2154 21.0088 23.6169 22.7433 25.0338 24.4559C25.7557 25.3313 26.5029 26.1955 27.2417 27.0634C27.3136 27.1118 27.3892 27.1687 27.2856 27.0941C27.3197 27.2047 27.2945 27.1254 27.2692 27.0461C27.111 26.9506 26.929 26.8808 26.7968 26.7536C24.7561 24.8713 23.0682 22.686 21.3804 20.5007C20.9796 19.9851 20.6852 19.392 20.3418 18.8358L20.043 18.5263C20.0075 18.4918 19.9781 18.4597 20.0075 18.4918C20.0056 18.4424 20.0075 18.4918 20.0071 18.5473ZM24.1771 22.7703L23.8881 22.4716L23.8545 22.4865L24.1352 22.789L24.4378 23.1069C24.5633 23.1968 24.7103 23.2671 24.8168 23.3706C26.2652 24.8377 27.7112 26.311 29.1573 27.7842C29.7769 28.4185 30.3843 29.0482 31.0016 29.6886L31.4153 30.0978C31.4849 30.1523 31.5567 30.2007 31.475 30.1416C31.5124 30.2255 31.4788 30.15 31.4489 30.0828L30.9154 29.732C30.7511 29.6342 30.5667 29.5705 30.4262 29.447C28.725 27.9316 27.0368 26.4002 25.5592 24.6644C25.1506 24.1876 24.5718 23.7916 24.4569 23.0934L24.1711 22.768L24.1771 22.7703ZM29.5722 40.3094C29.659 40.3009 29.7481 40.2864 29.6529 40.2986C29.7425 40.3191 29.6529 40.2986 29.5634 40.2782C29.2781 40.4958 29.0391 40.3206 28.7898 40.1902C28.3375 40.3716 27.9357 40.2036 27.5599 39.9133L28.795 40.2131C29.0849 39.9833 29.318 40.2467 29.5722 40.3094ZM36.8905 37.3405C36.6488 37.2269 36.3125 37.251 36.2422 36.89L34.9927 36.1742C35.6301 36.363 35.7958 36.4753 36.217 36.9013C36.4718 36.999 36.8058 36.9809 36.8654 37.3517L37.654 37.6542C37.1786 37.6598 36.9598 37.6316 36.8929 37.3345L36.8905 37.3405ZM28.9104 30.7863C28.2202 30.445 27.7271 29.88 27.2339 29.3151C27.1621 29.2667 27.0962 29.2205 27.1621 29.2667C27.1238 29.2033 27.1621 29.2667 27.2004 29.3301C27.9489 29.6102 28.5096 30.0897 28.8853 30.7975C28.9595 30.8399 29.0276 30.8799 28.9413 30.8329C28.9908 30.9215 28.9548 30.852 28.9104 30.7863ZM30.2943 32.5488C29.6087 32.1953 28.979 31.7868 28.6224 31.0655L28.1949 30.8737L28.2695 30.7701L28.5888 31.0804C29.2008 31.517 29.891 31.8583 30.263 32.5577L30.6812 32.7737L30.5898 32.8848L30.2882 32.5465L30.2943 32.5488ZM36.6627 41.164L35.8192 41.0771L35.8587 40.8835L36.6716 41.1953C37.583 41.1413 38.6343 41.4123 39.3564 41.9607L36.6566 41.1617L36.6627 41.164ZM34.4575 41.543L34.3964 41.5752L34.4748 41.5705C35.2198 41.6057 35.9796 41.584 36.7219 41.6809C37.7362 41.8124 38.7491 42.02 39.6974 42.4324C39.1856 42.424 38.6841 42.3709 38.1928 42.2729C36.9466 42.0384 35.7074 41.7858 34.4659 41.5392L34.4575 41.543ZM36.504 33.504C37.449 33.8526 40.7914 35.9697 41.1712 36.5398C40.2532 36.0486 39.3445 35.533 38.4735 34.9553C37.7962 34.5077 37.1697 33.9821 36.5231 33.4905L36.1549 33.3075L36.2211 33.2076L36.4919 33.4994L36.504 33.504ZM44.0383 31.0425C45.099 32.9942 46.8122 36.8733 46.8599 37.511C46.6788 37.3302 46.5084 37.23 46.4388 37.085C45.6324 35.2865 44.8308 33.4759 44.0519 31.6601C43.9795 31.4862 44.0581 31.2449 44.0635 31.0313L44.0322 31.0402L44.0383 31.0425ZM33.3488 32.0781C33.4944 32.1339 33.6615 32.1702 33.7893 32.254C36.2552 33.8262 38.7188 35.4043 41.18 36.9886C41.37 37.1102 41.5292 37.2756 41.7038 37.4192C41.3161 37.3957 40.9885 37.2701 40.6917 37.1005C40.1382 36.7838 39.6023 36.4391 39.0572 36.1187C37.334 35.0959 35.6047 34.0707 34.0599 32.7823C33.806 32.5736 33.6042 32.3013 33.3787 32.0547C33.2923 32.0077 33.2097 31.9691 33.3241 32.0338C33.2549 31.9238 33.303 31.9979 33.3512 32.072L33.3488 32.0781ZM52.6351 46.2397C52.0434 46.0406 51.5615 46.0088 51.329 45.363C51.8456 45.5402 52.3261 45.5575 52.6351 46.2397ZM51.2951 44.9254C50.8296 45.0322 50.5622 44.8948 50.3952 44.4411C50.8299 44.3782 51.156 44.3989 51.2951 44.9254ZM50.1212 45.2824C49.7642 45.294 49.5436 45.1676 49.4594 44.9033C49.7785 44.8517 49.9899 44.9537 50.1212 45.2824ZM49.4574 44.2554C49.2199 44.3545 49.0906 44.2863 49.0696 44.0509L49.4574 44.2554ZM38.565 40.7037L38.5348 40.7826L38.0677 40.6034L38.0979 40.5246L38.565 40.7037Z" fill="#5762C7"/>
<path d="M15.0148 13.9463L15.0916 13.7461L14.9542 13.5055L14.7853 13.4198L14.6387 13.802L15.0209 13.9486L15.0148 13.9463Z" fill="#5762C7"/>
<path d="M15.1242 14.2041L15.2057 13.9918L14.9994 13.9127L15.1242 14.2041Z" fill="#5762C7"/>
<path d="M14.4846 13.0959L14.4055 13.3021L14.7877 13.4487C14.7577 13.3816 14.7582 13.3261 14.7852 13.2738L14.4785 13.0935L14.4846 13.0959Z" fill="#5762C7"/>
</g>
<defs>
<clipPath id="clip0_4585_26921">
<rect width="55.65" height="33.0196" fill="white" transform="translate(11.8252 -0.000488281) rotate(20.985)"/>
</clipPath>
</defs>
</svg>
