<svg width="127" height="128" viewBox="0 0 127 128" fill="none" xmlns="http://www.w3.org/2000/svg">
<g clip-path="url(#clip0_4585_26964)">
<path d="M60.0129 82.4542L61.5449 83.694L61.7758 83.8974L62.0609 84.0391C63.3438 85.4764 64.7695 86.7593 66.3245 87.9032L66.4293 88.2962C66.4 88.4071 66.3016 88.5732 66.3482 88.6211C66.5221 88.8426 66.7304 89.0328 66.9459 89.2226C67.8233 89.9953 68.7012 90.7752 69.5994 91.5321C69.9141 91.7955 70.2003 92.1843 70.8847 92.09C70.5021 91.7873 70.2436 91.6075 70.0191 91.3892C69.4785 90.8858 68.9587 90.3665 68.4248 89.8554L68.8404 89.6474C68.4815 89.4885 68.2199 89.3743 67.9583 89.2601C67.8886 89.1918 67.8112 89.1168 67.7415 89.0486L67.5313 88.8294L67.3145 88.6179L67.0976 88.4064L66.8807 88.1949L66.4266 87.795C66.3229 87.649 66.2472 87.4867 66.1236 87.371C65.0139 86.3732 63.9046 85.3827 62.7823 84.4148C62.5827 84.2458 62.3012 84.1619 62.0609 84.0391L61.8779 83.7892L61.6475 83.593C61.0478 82.8463 60.4414 82.1073 59.8418 81.3606C59.5655 81.0148 59.1834 80.7193 59.1724 80.0878C59.825 80.4097 60.0083 81.0085 60.3973 81.4125C60.7704 81.7957 61.1987 82.1319 61.6802 82.392L60.7456 80.9471C60.7795 80.9087 60.8134 80.8702 60.8473 80.8317C60.873 80.7792 60.9069 80.7407 60.9562 80.7158L61.024 80.6388C61.1552 80.645 61.3266 80.5978 61.4035 80.6656C61.6489 80.868 61.8676 81.1085 62.0791 81.3494C63.9204 83.4561 66.1422 85.1462 68.3094 86.8907C70.0088 88.2507 71.6613 89.6718 73.4213 90.9553C75.6992 92.6128 78.1501 94.0196 80.6917 95.2535C81.2991 95.5492 81.952 95.7621 82.5124 96.1189C83.6105 96.8195 84.3017 97.7493 83.8683 99.1647C83.7416 99.5724 83.6814 99.9977 83.547 100.399C83.4667 100.622 83.3298 100.87 83.1418 100.998C82.1197 101.725 81.0654 102.402 79.7455 102.442C78.9837 102.461 78.2474 102.653 77.6036 103.043C76.4214 103.765 75.1282 103.883 73.7892 103.852C71.934 103.817 70.0789 103.782 68.2201 103.806C64.8654 103.844 61.5077 103.948 58.1525 103.979C55.836 104.003 53.5073 104.063 51.212 103.62C50.4836 103.478 49.7596 103.291 49.0298 103.127L48.6603 102.227L47.7389 101.792L47.783 101.113C49.0819 100.856 50.3037 101.215 51.5346 101.26C52.7727 101.305 54.0073 101.408 55.2473 101.482L55.2611 101.242C54.1514 101.16 53.0377 101.128 51.9387 100.987C50.5982 100.818 49.2671 100.568 47.9365 100.326C47.7601 100.293 47.6088 100.085 47.4712 99.9776C47.5254 99.4582 47.8062 99.3023 48.2165 99.3562C48.568 99.3993 48.9101 99.5229 49.2621 99.5732C50.4936 99.7422 51.7328 99.9179 52.9692 100.05C53.2986 100.087 53.6804 100.15 54.0289 99.8012C53.725 99.479 53.3333 99.4893 52.9678 99.4544C51.5124 99.3069 50.0584 99.1812 48.602 99.0193C48.236 98.9771 47.7878 99.0128 47.5883 98.5023C47.728 97.9557 48.1827 98.0213 48.5989 98.053C49.1168 98.0856 49.6362 98.1398 50.1794 97.9963L48.3527 97.4946C48.5753 97.185 48.8815 96.9718 49.2713 96.855L49.5978 96.2748C50.6857 96.2421 51.6799 95.6485 52.8449 95.9161C54.9837 96.4126 57.1682 96.3684 59.3403 96.2451C59.4778 96.2364 59.6125 96.1842 59.8626 96.1175C59.6702 95.948 59.5742 95.8088 59.4398 95.7519C55.4846 94.1136 51.5862 92.3409 47.7976 90.3505C44.6702 88.7033 41.6069 86.9212 38.9565 84.5461C37.6852 83.406 36.4198 82.2438 35.5186 80.7532C35.3161 80.4245 35.0154 80.1529 34.7365 79.88C32.8625 78.0587 31.1674 76.0808 29.7422 73.8896C27.8983 71.0564 26.4913 68.0066 25.8942 64.6655C24.9482 59.3774 25.112 54.1715 27.1509 49.0863C28.155 46.5883 29.3175 44.182 30.8421 41.9853C33.2255 38.5496 36.2211 35.7145 39.7229 33.414C44.5714 30.2361 49.8307 28.0348 55.4541 26.6461C59.1522 25.7212 62.9284 25.2272 66.7229 24.7902C70.5029 24.3541 74.281 24.3469 78.0567 24.645C80.62 24.8457 83.1212 25.4427 85.6058 26.1207C86.5003 26.3618 87.4079 26.5804 88.3169 26.7043C89.0864 26.8081 89.5595 27.1632 89.8148 27.8664C89.6786 28.6961 89.1212 29.073 88.3851 29.0398C87.4306 28.9987 86.4706 28.8706 85.5349 28.6684C83.1627 28.1577 80.7891 27.6253 78.3625 27.5177C76.2639 27.4256 74.1491 27.4217 72.0471 27.5043C66.1679 27.7248 60.4108 28.7223 54.7773 30.4095C50.028 31.83 45.5977 33.9277 41.5763 36.857C36.6174 40.4707 33.0169 45.1099 31.1077 50.9789C29.5931 55.6238 29.5256 60.2859 31.0147 64.9728C32.2058 68.7412 34.3665 71.874 37.1082 74.6574C37.5352 75.0881 37.9487 75.5342 38.3757 75.9649C38.7791 76.368 39.1879 76.7418 39.7924 76.8778C40.1096 76.9521 40.3754 77.2477 40.7851 77.5197C41.145 77.3515 41.5211 77.5529 41.844 77.9466C43.4513 79.9155 45.5168 81.3177 47.7092 82.5447C50.0143 83.8299 52.365 85.0323 54.6895 86.2799C55.0054 86.4488 55.2942 86.6485 55.6038 86.8323L55.3797 87.0791L55.1836 87.3095L55.1275 87.3421L55.1605 87.2892L55.3566 87.0587L55.5812 86.8192C57.3375 87.587 59.0944 88.362 60.8575 89.1221C61.9033 89.5717 62.9555 90.0063 64.0067 90.4264C64.29 90.5393 64.599 90.5996 65.0016 90.5304C64.7991 90.318 64.6035 90.0979 64.3948 89.9004C62.9155 88.4611 61.4368 87.0289 59.9648 85.5891C58.9265 84.5723 58.259 83.3285 57.8632 81.9003C57.9097 81.3742 58.1355 80.9238 58.7173 80.589L59.3236 81.6696L59.3444 81.6537L58.5459 81.094C58.6459 81.5236 58.8986 81.8419 59.0952 82.1927C59.185 82.3469 59.1766 82.5581 59.2107 82.7522L59.1424 82.8219L59.1804 82.7323C59.7968 82.5987 59.8478 83.4021 60.4255 83.4599L60.0364 82.4818L60.0229 82.4972L60.0129 82.4542ZM65.7951 89.1794L65.5719 88.9828L65.3482 88.779L65.1178 88.5829L64.9009 88.3714L64.6704 88.1753L64.4463 87.9643L64.4142 87.9154L64.4734 87.9335L64.6976 88.1445L64.928 88.3406L65.1449 88.5521L65.3753 88.7482L65.6058 88.9443L65.829 89.1409L65.8833 89.1956L65.8086 89.164L65.7951 89.1794ZM54.5636 87.9592L54.6346 87.9329L54.579 87.9728L54.5301 88.0049L54.5703 87.9515L54.5636 87.9592ZM39.8997 80.744L39.7244 80.5008L39.5206 80.2667L38.6192 79.4592L38.3345 79.3247L38.1808 78.9638L38.0488 79.0594L38.3485 79.3165L38.518 79.5819L39.433 80.374L39.6973 80.5316L39.9273 80.7205L39.9879 80.7602L39.9002 80.7513L39.8997 80.744ZM30.7434 47.9864L30.8432 47.842L30.7665 48.0067L30.576 48.4403L30.3783 48.8743C29.913 49.5578 29.5586 50.2706 29.6879 51.1634L30.3937 48.8878L30.5687 48.4407L30.7361 47.9868L30.7434 47.9864ZM42.5958 34.3726L42.5127 34.436L42.5655 34.3527C43.4984 34.0537 45.5424 32.8267 46.0335 32.207C45.2368 32.5918 44.4478 32.9834 43.6996 33.4451C43.2941 33.6961 42.9615 34.066 42.5891 34.3802L42.5958 34.3726ZM33.9962 41.7633L34.1047 41.6402L34.027 41.7904C32.9504 42.6871 31.9751 44.1514 31.6936 45.4409C32.0604 44.9235 32.3288 44.5723 32.5741 44.2006C33.0646 43.4574 33.5407 42.7151 34.0163 41.9655C34.0425 41.9202 34.0076 41.828 34.0035 41.7628L33.9962 41.7633ZM31.7679 43.6341L31.8302 43.4703L31.7905 43.6472C30.5506 44.6052 30.0267 45.9682 29.6685 47.4224L29.6138 47.4768L29.6382 47.4025C30.5164 46.2423 31.2435 44.9899 31.7602 43.6274L31.7679 43.6341ZM33.6833 74.0464C33.746 73.432 33.2865 73.0616 32.9514 72.705C32.101 71.7852 31.4043 70.7685 30.8188 69.6721C30.7531 69.5527 30.6101 69.4746 30.4788 69.3521C30.4432 69.4779 30.4093 69.5164 30.4251 69.5372C31.1126 71.3247 32.4258 72.6656 33.7109 74.0229C33.7498 74.064 33.782 74.1128 33.7426 74.0644C33.8091 74.082 33.7426 74.0645 33.691 74.0532L33.6833 74.0464ZM60.7439 26.5285L61.421 26.4346L61.3842 26.3134L60.7679 26.5633C60.4133 26.5858 60.0473 26.5436 59.7035 26.6235C57.7353 27.0972 55.7689 27.5999 53.8025 28.1025C53.7238 28.122 53.6661 28.242 53.5983 28.3189L53.1238 28.3999L53.1678 28.5207L53.5675 28.2918C53.885 28.2571 54.2121 28.2582 54.5201 28.1878C56.1455 27.8085 57.7632 27.4225 59.3791 27.0075C59.844 26.8908 60.2894 26.6954 60.7443 26.5357L60.7439 26.5285ZM43.3466 32.8062L43.2928 32.875L43.3231 32.7786C43.4958 32.7531 43.6849 32.7557 43.8332 32.6881C45.3801 31.9869 46.926 31.2711 48.4643 30.5486C48.831 30.3727 49.1809 30.1616 49.5462 29.964C49.3372 29.8755 49.1635 29.8865 49.0074 29.9473C48.0583 30.3345 47.0856 30.6942 46.17 31.1519C45.1984 31.6423 44.2847 32.2453 43.3462 32.799L43.3466 32.8062ZM56.8203 28.1363L64.6866 26.4817C61.9722 26.6467 59.3299 27.1486 56.8203 28.1363ZM30.0918 67.2622L30.3347 67.1959C30.0426 66.3715 29.8138 65.514 29.4511 64.7232C29.088 63.9251 29.0867 62.9878 28.5262 62.057C28.3758 64.152 29.3652 65.6588 30.0846 67.2626L30.0918 67.2622ZM29.4026 49.4158C28.2786 50.9404 27.7655 52.7024 27.9266 54.2109C28.4569 52.4914 28.9259 50.9502 29.4026 49.4158ZM33.0498 73.9122C33.8106 75.7096 35.4498 77.3786 36.5365 77.5567C35.8782 76.9155 35.276 76.3578 34.7077 75.7617C34.1394 75.1656 33.5978 74.5314 33.0503 73.9195L33.0498 73.9122ZM35.1115 40.1012C35.7298 39.5387 36.3318 38.9483 36.9809 38.413C37.9468 37.6032 38.4453 37.0993 38.6669 36.5838C37.0696 37.5208 35.7056 38.8136 35.1188 40.1007L35.1115 40.1012ZM71.2422 25.4699C73.0732 25.8115 74.8591 25.7853 76.6463 25.6646C75.7659 25.5316 74.8896 25.4637 74.0093 25.4469C73.0851 25.4256 72.1645 25.4622 71.2422 25.4699ZM26.9296 60.8285C27.2772 60.1234 27.2892 59.396 26.9574 58.2907C26.6415 59.0374 26.6334 59.5975 26.9296 60.8285ZM27.4538 52.7149C26.7376 54.0247 26.6266 54.7948 26.8953 55.7078L27.4538 52.7149ZM27.8426 59.0702C28.0665 58.1332 28.2325 57.1998 27.983 56.0166C27.7449 57.1871 27.5788 58.1205 27.8426 59.0702ZM37.5381 36.4302C36.5633 36.8699 35.8211 37.5419 35.1671 38.5717C36.1128 37.9013 36.8437 37.2809 37.5381 36.4302ZM29.1113 55.589L28.8919 55.5666C28.7805 56.4456 28.4005 57.3272 28.9722 58.2065L29.1108 55.5817L29.1113 55.589ZM30.1531 70.7462C29.8932 69.6291 29.712 69.2918 28.9767 68.5828C29.2363 69.4673 29.5201 70.1614 30.1531 70.7462ZM27.8927 63.7539C27.8305 64.4918 27.9687 65.1806 28.4553 65.9781C28.4848 65.0679 28.3176 64.3809 27.8927 63.7539ZM27.2299 63.6143C26.9976 64.3049 27.094 64.9091 27.6554 65.3967L27.2299 63.6143ZM37.5808 38.4766C38.1089 38.2106 38.5827 37.8899 38.9683 37.2114C38.186 37.4791 37.8685 37.9715 37.5808 38.4766ZM75.6871 100.323C74.5456 100.083 74.0258 100.138 73.3567 100.471L75.6871 100.323ZM42.624 32.6413C42.196 32.5377 41.9315 32.7216 41.8125 33.1361L42.624 32.6413ZM26.266 58.9595L26.1429 58.9673L26.2169 60.1326L26.3399 60.1248L26.266 58.9595ZM79.7254 98.0034C79.9938 98.2262 80.1556 98.4848 80.5661 98.1971C80.3265 97.9725 80.1697 97.6773 79.7254 98.0034ZM81.8751 98.0995L81.9351 97.8995L81.3124 97.7065L81.2461 97.9214L81.8683 98.1072L81.8751 98.0995ZM56.183 28.2857L56.192 28.1979L55.6926 28.2296L55.6968 28.2948L56.183 28.2857ZM89.0846 27.6947L89.0772 27.5789L88.643 27.6065L88.6503 27.7223L89.0846 27.6947Z" fill="#C2CC00"/>
<path d="M60.7322 80.9552C60.3191 80.8579 60.2125 80.5522 60.1026 80.0796C60.5514 80.1673 60.8158 80.325 61.0029 80.6401L60.9351 80.717C60.9089 80.7623 60.875 80.8008 60.8262 80.833C60.7923 80.8714 60.7584 80.9099 60.7245 80.9484L60.7322 80.9552Z" fill="#C2CC00"/>
<path d="M59.315 81.641L59.7686 82.0336L59.7962 82.0101C59.5008 82.0506 59.3469 81.9151 59.3353 81.6179L59.3145 81.6337L59.315 81.641Z" fill="#C2CC00"/>
<path d="M59.7688 82.0337L60.0135 82.4542L60.027 82.4388L59.7964 82.0102L59.7688 82.0337Z" fill="#C2CC00"/>
<path d="M67.748 89.0408L67.9785 89.2369L68.4554 89.8824C67.6191 89.5285 66.9107 89.014 66.3834 88.2626L66.7793 88.3175L67.016 88.4986L67.2668 88.6716L67.4972 88.8677L67.7412 89.0485L67.748 89.0408Z" fill="#C2CC00"/>
</g>
<defs>
<clipPath id="clip0_4585_26964">
<rect width="84.1221" height="95" fill="white" transform="translate(65.8252 0.499512) rotate(43.8595)"/>
</clipPath>
</defs>
</svg>
