<svg width="109" height="108" viewBox="0 0 109 108" fill="none" xmlns="http://www.w3.org/2000/svg">
<g clip-path="url(#clip0_4585_26979)">
<path d="M87.9593 58.8695C85.2731 59.4132 84.973 59.2404 83.2064 55.3329C82.3229 53.3792 80.7761 50.8437 79.7548 49.6798L77.9488 47.5942L79.7927 46.6358C83.6137 44.7133 81.4155 42.1667 76.9193 43.2422L74.3947 43.8321C72.0067 42.1043 67.8592 39.046 65.1316 37.7451C62.6747 36.565 62.8246 36.6513 62.8361 36.611C62.8246 36.6513 62.7901 36.7724 63.8256 33.7507C64.2744 32.4821 63.6162 31.1162 62.3879 30.6789C59.8218 29.7295 58.4557 30.0822 58.2213 32.8957L58.0901 34.7349C58.0901 34.7349 49.6835 33.2997 47.677 32.9898C43.7447 32.393 43.4853 32.2318 43.9224 30.698C44.7505 27.7918 37.2194 25.4277 38.2318 30.2985C38.469 31.4571 38.5388 32.4371 38.4236 32.5352C38.3199 32.5929 36.7405 32.9285 34.9881 33.2583C33.2358 33.5882 30.2386 34.6108 28.4174 35.4885L25.0346 37.0994L22.6982 35.037C19.1331 31.9264 17.6178 33.1093 19.1951 37.8358C20.0098 40.3372 20.0097 40.3371 18.5232 41.5721C14.778 44.6071 15.3806 48.9248 20.8296 58.2891C26.4518 67.9648 41.7893 78.9248 46.2498 76.4425C47.4425 75.7788 45.8659 71.9692 44.2111 71.4977C32.5861 68.1853 19.1651 52.4907 22.7351 46.3944C27.071 38.9888 46.5876 33.2904 63.8256 41.5625C73.6239 46.231 78.4254 52.967 80.2784 64.5363C80.6087 66.5941 80.9039 68.4678 80.9788 68.6636C81.4645 70.635 66.7022 73.2802 55.0797 73.3289C51.1479 73.3432 50.6233 73.4993 50.2783 74.7101C49.0362 79.0695 58.867 80.8671 67.0742 77.7939C76.6418 74.2359 87.3586 73.5363 86.2987 66.3824C86.0843 64.8377 86.1524 63.6787 86.5098 63.6495C88.7352 63.4983 92.3833 62.181 92.8267 61.391C93.7711 59.6088 91.1698 58.1696 87.9593 58.8695Z" fill="#BB6BD9"/>
<path d="M67.1865 58.7111C68.3538 54.1558 67.5604 49.4348 65.4778 47.4012C64.7568 46.7157 63.3962 46.8953 63.4722 48.3133C63.8066 56.4824 55.3537 54.9032 53.3517 52.587C48.6145 47.004 52.5844 43.6401 56.5909 43.5161C58.7934 43.4453 58.4173 41.8544 53.5102 40.5435C45.4722 38.4277 38.2521 43.7023 36.6018 49.6473C34.4224 57.4491 38.2171 67.2586 48.873 69.6838C58.5658 71.9656 64.8351 67.7295 67.1865 58.7111Z" fill="#BB6BD9"/>
</g>
<defs>
<clipPath id="clip0_4585_26979">
<rect width="87.3965" height="87.3965" fill="white" transform="translate(23.9512) rotate(15.9042)"/>
</clipPath>
</defs>
</svg>
