<svg width="96" height="149" viewBox="0 0 96 149" fill="none" xmlns="http://www.w3.org/2000/svg">
<g clip-path="url(#clip0_4585_26951)">
<path d="M91.1795 25.1001C92.9595 25.4601 95.1395 27.0401 95.6195 28.5001C96.2295 30.3201 94.9195 31.1701 93.8195 32.1201C93.3395 32.5301 92.8095 32.8701 92.2795 33.2201C89.1095 35.3201 86.0095 33.9601 85.4195 30.1801C85.3595 29.8001 85.3795 29.1801 85.6095 29.0101C87.4295 27.6601 89.3095 26.3901 91.1795 25.1001Z" fill="#5762C7"/>
<path d="M60.7997 5.95C60.8297 8.29 58.4497 11.97 56.3197 12.87C54.4197 13.67 50.9297 10.99 51.0997 8.22C51.2597 5.67 52.4497 3.17 53.3497 0.699996C53.4997 0.289996 54.5197 -0.0300036 55.1197 -3.58233e-06C57.7597 0.129996 60.7597 3.35 60.7997 5.95Z" fill="#5762C7"/>
<path d="M10.33 114.07C10.32 116.86 5.04003 122.61 2.32003 122.81C0.230033 122.96 -1.97997 119.97 -1.21997 117.73C-0.039968 114.26 2.30003 111.82 5.96003 110.96C8.32003 110.41 10.33 111.93 10.32 114.08L10.33 114.07Z" fill="#5762C7"/>
<path d="M73.6396 86.3899C74.2496 83.1299 75.4597 82.0499 78.2997 82.4099C82.4097 82.9399 84.3596 86.0999 83.0296 90.0199C82.7796 90.7699 82.6297 91.5499 82.3197 92.2699C81.9297 93.1899 81.4597 94.7999 80.9897 94.8199C79.9897 94.8499 78.5997 94.3099 78.0197 93.5199C76.3797 91.2699 75.0796 88.7799 73.6396 86.3899Z" fill="#5762C7"/>
<path d="M20.3699 83.8601C20.3699 87.9301 16.8099 92.1501 14.3699 91.3301C12.6499 90.7501 11.0799 88.5401 10.2899 86.6901C9.63986 85.1601 14.9699 81.2801 17.4099 81.7101C18.6799 81.9301 19.7399 83.3801 20.3699 83.8701V83.8601Z" fill="#5762C7"/>
<path d="M43.2996 68.4401C45.5696 68.4101 46.0096 69.4501 45.7996 71.3401C45.4796 74.1801 43.4196 77.4101 41.2196 77.0401C39.0496 76.6701 37.0996 74.8701 35.1696 73.5301C35.0496 73.4501 35.7596 71.4001 36.4696 71.0501C38.6396 69.9801 41.0096 69.2801 43.2996 68.4401Z" fill="#5762C7"/>
<path d="M17.0201 39.7199C20.1401 39.7499 22.5801 41.3799 22.5801 43.4299C22.5801 45.5799 19.7401 47.8199 17.0601 47.7799C14.9001 47.7499 12.2501 45.1499 12.1701 42.9999C12.1101 41.2499 14.4101 39.6899 17.0201 39.7199Z" fill="#5762C7"/>
<path d="M59.0997 106.55C59.0997 106.45 59.0797 106.35 59.0997 106.26C59.6197 104.51 58.3997 101.58 61.5497 101.56C64.3697 101.54 66.8397 104.87 66.5097 107.53C66.4697 107.82 66.4597 108.18 66.2797 108.37C64.9597 109.8 63.4697 112.48 62.2897 112.35C59.3797 112.03 59.1197 109.11 59.0997 106.55Z" fill="#5762C7"/>
<path d="M46.0599 41.1799C46.1999 37.7999 50.3599 34.4899 53.5099 35.4899C54.5599 35.8199 55.8599 36.8799 56.0899 37.8399C56.3099 38.7799 55.6299 40.4099 54.8099 41.0399C53.1999 42.2699 51.2999 43.2199 49.3799 43.9199C47.3299 44.6599 45.9699 43.3999 46.0599 41.1799Z" fill="#5762C7"/>
<path d="M39.6396 114.8C39.5996 117.24 37.3696 119.78 35.1296 119.04C33.3096 118.44 31.0396 116.47 30.7196 114.78C30.2896 112.51 33.0496 111.76 34.9696 111.94C36.7796 112.11 39.6396 111.4 39.6396 114.8Z" fill="#5762C7"/>
<path d="M76.8698 58.7201C76.8898 61.0601 74.9198 63.9801 73.2998 63.6301C70.9398 63.1201 70.5098 60.8701 70.4398 58.9701C70.3698 57.1201 70.4598 54.7701 73.1798 54.5401C75.1698 54.3701 76.8498 56.4401 76.8698 58.7201Z" fill="#5762C7"/>
<path d="M20.1203 21.26C17.0603 21.23 15.0903 18.96 15.3303 16.34C15.4003 15.52 16.2003 14.22 16.8603 14.09C18.7503 13.73 22.3003 17.05 21.9303 18.85C21.7203 19.89 20.5503 20.74 20.1303 21.26H20.1203Z" fill="#5762C7"/>
<path d="M30.8396 139.14C30.1096 136.17 31.8296 133.7 34.4396 133.28C35.2496 133.15 36.7096 133.61 36.9996 134.21C37.8196 135.95 35.4696 140.21 33.6296 140.29C32.5696 140.34 31.4596 139.41 30.8496 139.14H30.8396Z" fill="#5762C7"/>
</g>
<defs>
<clipPath id="clip0_4585_26951">
<rect width="191.77" height="148.93" fill="white" transform="translate(-96)"/>
</clipPath>
</defs>
</svg>
