<svg width="169" height="141" viewBox="0 0 169 141" fill="none" xmlns="http://www.w3.org/2000/svg">
<g clip-path="url(#clip0_4585_27416)">
<path d="M68.8571 73.8156C69.1673 74.1481 70.0392 74.6966 70.2493 75.427C70.4111 75.9736 69.8892 76.9697 69.375 77.4085C68.2117 78.3745 66.9042 79.2042 65.5688 79.9172C65.0334 80.2007 63.8882 80.3158 63.6606 80.0134C63.0987 79.2865 62.5757 78.2391 62.6366 77.3715C62.7359 75.9996 66.9701 73.5083 68.8649 73.817L68.8571 73.8156Z" fill="#2A2422"/>
<path d="M25.5698 113.094C27.1712 111.62 28.3725 110.246 29.8347 109.259C30.9193 108.519 31.8859 106.697 33.6073 107.878C35.4292 109.124 37.5671 110.297 37.5124 112.945C37.4961 113.693 36.9873 114.659 36.3916 115.108C35.108 116.077 33.6864 116.967 32.1861 117.524C30.9333 117.988 28.9622 118.544 28.2342 117.949C27.0255 116.943 26.553 115.043 25.5671 113.11L25.5698 113.094Z" fill="#2A2422"/>
<path d="M162.086 44.3306C163.418 44.8462 164.899 46.361 165.077 47.5569C165.308 49.0493 164.179 49.5344 163.2 50.1249C162.773 50.379 162.317 50.5723 161.86 50.7733C159.123 51.9806 156.9 50.5141 156.944 47.5046C156.948 47.2019 157.046 46.7238 157.247 46.6226C158.838 45.8175 160.464 45.0825 162.086 44.3306Z" fill="#2A2422"/>
<path d="M141.072 25.4449C140.784 27.2634 138.45 29.8008 136.678 30.2157C135.099 30.5837 132.748 28.0418 133.248 25.9164C133.711 23.9603 134.966 22.1798 135.992 20.3841C136.163 20.0861 136.996 19.9734 137.458 20.0764C139.487 20.5279 141.386 23.4234 141.072 25.4449Z" fill="#2A2422"/>
<path d="M87.5716 102.58C87.1932 104.742 82.335 108.5 80.1992 108.293C78.5586 108.132 77.2421 105.52 78.1291 103.884C79.5051 101.35 81.6438 99.7688 84.5961 99.5881C86.4992 99.4752 87.8559 100.921 87.5625 102.587L87.5716 102.58Z" fill="#2A2422"/>
<path d="M140.341 89.5269C141.247 87.08 142.329 86.4033 144.484 87.0598C147.6 88.0168 148.693 90.7262 147.14 93.5892C146.847 94.1376 146.627 94.7225 146.291 95.2396C145.866 95.9012 145.288 97.0872 144.921 97.0403C144.141 96.9307 143.135 96.3273 142.791 95.6377C141.818 93.6751 141.14 91.5715 140.341 89.5269Z" fill="#2A2422"/>
<path d="M3.9471 95.2936C5.76118 93.4174 7.02953 93.2356 8.73141 94.7164C11.1908 96.8539 11.0987 99.7675 8.52232 101.761C8.03428 102.14 7.5899 102.591 7.07616 102.934C6.41842 103.372 5.4109 104.221 5.09362 104.023C4.42162 103.612 3.74956 102.643 3.71293 101.879C3.61677 99.691 3.84142 97.4945 3.9471 95.2936H3.9471Z" fill="#2A2422"/>
<path d="M62.3069 93.0875C64.353 93.3982 65.8675 95.1343 65.6022 96.8688C65.3051 98.7895 62.3337 100.898 60.3601 100.584C59.0857 100.382 56.6199 97.07 56.79 95.7981C56.9452 94.6593 60.659 92.8291 62.3083 93.0798L62.3069 93.0875Z" fill="#2A2422"/>
<path d="M31.8848 87.5083C32.3743 83.9524 34.1989 83.1794 36.2899 84.719C39.76 87.293 40.0559 89.9458 37.2014 92.2106C36.1564 93.0453 35.0928 93.1504 34.4017 92.1061C33.2918 90.4313 32.4608 88.5728 31.8939 87.5019L31.8848 87.5083Z" fill="#2A2422"/>
<path d="M99.3704 80.4882C98.8297 83.6442 95.5085 86.4436 93.7254 85.4836C92.4687 84.8053 91.5449 82.883 91.178 81.3435C90.8773 80.0708 95.5258 77.7702 97.3608 78.4277C98.3163 78.7671 98.9457 80.0323 99.3691 80.4959L99.3704 80.4882Z" fill="#2A2422"/>
<path d="M72.1429 35.1632C72.7474 34.4766 73.5929 32.8494 74.26 32.9158C75.4661 33.0506 76.8394 33.9803 77.6173 34.9836C78.2242 35.7741 78.4925 37.3765 78.1018 38.2594C77.4731 39.6923 76.1836 40.8362 75.169 42.0992C74.2537 40.8728 73.1893 39.7246 72.4748 38.3969C72.076 37.6501 72.2657 36.5891 72.1429 35.1632Z" fill="#2A2422"/>
<path d="M119.199 71.5772C120.964 71.8555 121.167 72.7204 120.753 74.1581C120.127 76.3178 118.101 78.5488 116.444 77.9697C114.81 77.3945 113.537 75.7396 112.219 74.4441C112.136 74.3661 112.959 72.8708 113.556 72.6937C115.381 72.1523 117.312 71.9244 119.199 71.5772Z" fill="#2A2422"/>
<path d="M62.6566 126.129C60.8924 125.851 60.6893 124.986 61.1033 123.548C61.7287 121.388 63.7552 119.157 65.412 119.737C67.0456 120.312 68.3186 121.967 69.6371 123.262C69.7196 123.34 68.8966 124.835 68.2996 125.013C66.4747 125.554 64.5439 125.782 62.6566 126.129Z" fill="#2A2422"/>
<path d="M102.637 45.8152C105.052 46.253 106.728 47.8411 106.455 49.4307C106.17 51.0979 103.67 52.4576 101.597 52.0706C99.926 51.7603 98.2165 49.3921 98.4401 47.7143C98.626 46.3493 100.617 45.4452 102.637 45.8152Z" fill="#2A2422"/>
<path d="M42.723 37.4343C40.7041 38.8285 38.4016 38.897 37.4621 37.5786C36.4854 36.198 37.288 33.47 39.033 32.2763C40.4342 31.3191 43.3164 31.7809 44.3399 33.1217C45.173 34.2222 44.3993 36.2688 42.7152 37.433L42.723 37.4343Z" fill="#2A2422"/>
<path d="M126.389 103.228C126.402 103.151 126.4 103.07 126.427 103.003C127.063 101.715 126.506 99.2812 128.952 99.6842C131.141 100.043 132.614 102.954 132.005 104.972C131.935 105.192 131.88 105.47 131.715 105.593C130.501 106.527 128.99 108.407 128.092 108.149C125.878 107.515 126.064 105.216 126.389 103.228Z" fill="#2A2422"/>
<path d="M14.7922 64.4654C14.8055 64.3879 14.8033 64.3077 14.8307 64.2405C15.4664 62.9526 14.9097 60.5185 17.3549 60.9215C19.5443 61.2806 21.0173 64.1909 20.408 66.2098C20.3385 66.4293 20.2829 66.7072 20.1181 66.8306C18.9045 67.7641 17.3931 69.6443 16.4953 69.3868C14.2813 68.752 14.4676 66.4532 14.7922 64.4654Z" fill="#2A2422"/>
<path d="M124.962 50.8053C125.519 48.2029 129.185 46.1889 131.494 47.3828C132.265 47.7782 133.132 48.7729 133.183 49.5479C133.229 50.306 132.485 51.4796 131.765 51.8592C130.353 52.5991 128.754 53.0834 127.172 53.3711C125.484 53.6726 124.597 52.5148 124.962 50.8053Z" fill="#2A2422"/>
<path d="M80.3731 53.3753C81.9351 54.3213 82.7576 55.2046 81.8478 56.4615C80.6946 58.0679 79.3143 59.5555 77.8236 60.8486C77.4392 61.1819 75.948 60.8944 75.5376 60.4011C74.5895 59.2728 73.1419 57.612 74.5781 56.3575C76.1649 54.9691 78.4131 54.3325 80.3744 53.3675L80.3731 53.3753Z" fill="#2A2422"/>
<path d="M110.203 107.04C109.848 108.927 107.781 110.6 106.143 109.729C104.811 109.022 103.312 107.193 103.289 105.84C103.257 104.022 105.497 103.807 106.962 104.202C108.343 104.574 110.655 104.404 110.203 107.04Z" fill="#2A2422"/>
<path d="M44.0656 65.1943C42.3142 64.9341 39.9555 61.9758 40.5216 60.3487C40.7601 59.6552 42.0894 58.8852 42.8808 58.925C44.9613 59.034 47.3282 61.6186 47.1569 63.1776C46.9962 64.6747 45.7937 65.4504 44.0591 65.1852L44.0656 65.1943Z" fill="#2A2422"/>
<path d="M146.522 68.4998C146.227 70.317 144.311 72.3195 143.102 71.8329C141.339 71.1239 141.305 69.3221 141.503 67.8394C141.695 66.3956 142.077 64.5852 144.216 64.7682C145.782 64.9008 146.81 66.7291 146.522 68.4998Z" fill="#2A2422"/>
<path d="M107.493 31.9125C105.124 31.4827 103.898 29.4607 104.433 27.461C104.596 26.8344 105.389 25.9326 105.918 25.9195C107.431 25.8914 109.743 28.9375 109.217 30.2841C108.916 31.0627 107.896 31.5664 107.501 31.9138L107.493 31.9125Z" fill="#2A2422"/>
<path d="M100.145 124.745C99.9738 122.345 101.636 120.658 103.715 120.679C104.361 120.686 105.432 121.237 105.577 121.741C105.982 123.199 103.593 126.19 102.156 126.008C101.327 125.906 100.59 125.037 100.153 124.747L100.145 124.745Z" fill="#2A2422"/>
</g>
<defs>
<clipPath id="clip0_4585_27416">
<rect width="150.872" height="117.169" fill="white" transform="translate(20.2734) rotate(9.72174)"/>
</clipPath>
</defs>
</svg>
