<svg width="23" height="27" viewBox="0 0 23 27" fill="none" xmlns="http://www.w3.org/2000/svg">
<path d="M17.6549 8.71338L13.3776 12.9907V2.50244C13.3776 1.50635 12.4987 0.627441 11.5026 0.627441C10.4479 0.627441 9.62758 1.50635 9.62758 2.50244V12.9907L5.29164 8.71338C4.94008 8.36182 4.47133 8.12744 4.00258 8.12744C3.47524 8.12744 3.00649 8.36182 2.65492 8.71338C1.89321 9.4165 1.89321 10.647 2.65492 11.3501L10.1549 18.8501C10.858 19.6118 12.0885 19.6118 12.7916 18.8501L20.2916 11.3501C21.0534 10.647 21.0534 9.4165 20.2916 8.71338C19.5885 7.95166 18.358 7.95166 17.6549 8.71338ZM20.8776 23.1274H2.12758C1.07289 23.1274 0.252581 24.0063 0.252581 25.0024C0.252581 26.0571 1.07289 26.8774 2.12758 26.8774H20.8776C21.8737 26.8774 22.7526 26.0571 22.7526 25.0024C22.7526 24.0063 21.8737 23.1274 20.8776 23.1274Z" fill="white"/>
</svg>
