<svg width="33" height="33" viewBox="0 0 33 33" fill="none" xmlns="http://www.w3.org/2000/svg">
<path d="M16.253 9.47987C14.8611 9.47987 13.5004 9.89262 12.3431 10.6659C11.1858 11.4392 10.2838 12.5383 9.75117 13.8242C9.21852 15.1102 9.07915 16.5252 9.35069 17.8903C9.62224 19.2554 10.2925 20.5094 11.2767 21.4936C12.2609 22.4778 13.5149 23.1481 14.88 23.4196C16.2452 23.6912 17.6602 23.5518 18.9461 23.0192C20.232 22.4865 21.3311 21.5845 22.1044 20.4272C22.8777 19.2699 23.2904 17.9092 23.2904 16.5174C23.2904 14.6509 22.549 12.8609 21.2292 11.5411C19.9094 10.2213 18.1194 9.47987 16.253 9.47987ZM16.253 22.2753C15.1141 22.2753 14.0009 21.9376 13.054 21.3049C12.1071 20.6722 11.3691 19.773 10.9333 18.7208C10.4975 17.6687 10.3835 16.511 10.6057 15.394C10.8278 14.2771 11.3762 13.2511 12.1815 12.4459C12.9867 11.6406 14.0127 11.0922 15.1296 10.8701C16.2466 10.6479 17.4043 10.7619 18.4564 11.1977C19.5086 11.6335 20.4078 12.3715 21.0405 13.3184C21.6732 14.2653 22.0109 15.3785 22.0109 16.5174C22.0109 18.0445 21.4043 19.509 20.3244 20.5888C19.2446 21.6687 17.7801 22.2753 16.253 22.2753ZM23.2904 1.16284H9.21547C7.00966 1.16284 4.89419 2.0391 3.33444 3.59884C1.77469 5.15859 0.898438 7.27406 0.898438 9.47987V23.5549C0.898437 24.6471 1.11356 25.7286 1.53153 26.7376C1.9495 27.7467 2.56213 28.6636 3.33444 29.4359C4.89419 30.9956 7.00966 31.8719 9.21547 31.8719H23.2904C24.3827 31.8719 25.4642 31.6568 26.4732 31.2388C27.4823 30.8208 28.3992 30.2082 29.1715 29.4359C29.9438 28.6636 30.5564 27.7467 30.9744 26.7376C31.3924 25.7286 31.6075 24.6471 31.6075 23.5549V9.47987C31.6075 8.38767 31.3924 7.30615 30.9744 6.29708C30.5564 5.28802 29.9438 4.37115 29.1715 3.59884C28.3992 2.82654 27.4823 2.21391 26.4732 1.79594C25.4642 1.37797 24.3827 1.16284 23.2904 1.16284ZM30.3279 23.5549C30.3279 25.4213 29.5865 27.2113 28.2667 28.5311C26.9469 29.8509 25.1569 30.5923 23.2904 30.5923H9.21547C7.34901 30.5923 5.559 29.8509 4.23921 28.5311C2.91943 27.2113 2.17798 25.4213 2.17798 23.5549V9.47987C2.17798 7.61342 2.91943 5.8234 4.23921 4.50362C5.559 3.18383 7.34901 2.44239 9.21547 2.44239H23.2904C25.1569 2.44239 26.9469 3.18383 28.2667 4.50362C29.5865 5.8234 30.3279 7.61342 30.3279 9.47987V23.5549ZM25.8495 8.20033C25.8495 8.4534 25.7745 8.70079 25.6339 8.91121C25.4933 9.12163 25.2935 9.28563 25.0597 9.38247C24.8258 9.47932 24.5686 9.50466 24.3204 9.45529C24.0722 9.40592 23.8442 9.28405 23.6652 9.1051C23.4863 8.92616 23.3644 8.69816 23.315 8.44996C23.2657 8.20175 23.291 7.94448 23.3878 7.71067C23.4847 7.47686 23.6487 7.27703 23.8591 7.13643C24.0695 6.99583 24.3169 6.92079 24.57 6.92079C24.9093 6.92079 25.2348 7.0556 25.4748 7.29556C25.7147 7.53552 25.8495 7.86098 25.8495 8.20033Z" fill="white" stroke="white" stroke-width="0.848803"/>
</svg>
