<svg width="36" height="32" viewBox="0 0 36 32" fill="none" xmlns="http://www.w3.org/2000/svg">
<path d="M1.6571 26.4935C3.33247 27.4202 15.4587 34.41 24.0822 29.0226C32.7048 23.6352 32.2289 14.3534 32.2289 10.0994C33.0105 8.4631 34.6607 7.63107 34.6607 3.20164C33.0401 4.69896 31.429 5.20791 29.8274 4.73022C28.2589 2.33833 26.1006 1.27961 23.3518 1.5558C19.2298 1.97008 17.722 6.01389 18.1659 11.2467C11.8101 14.4602 6.82651 8.91647 4.25744 4.73022C3.39935 8.02711 2.57252 11.9858 4.25744 16.364C5.3813 19.2839 8.08325 21.7514 12.3616 23.769C8.02506 26.1183 4.4572 27.0276 1.6571 26.4935Z" stroke="white" stroke-width="1.69761" stroke-linejoin="round"/>
</svg>
