<svg width="570" height="469" viewBox="0 0 570 469" fill="none" xmlns="http://www.w3.org/2000/svg">
<mask id="mask0_3_7" style="mask-type:alpha" maskUnits="userSpaceOnUse" x="35" y="56" width="477" height="390">
<path d="M57.8785 143.946L57.8796 143.945C64.8565 134.392 77.7494 123.894 94.738 113.589C111.716 103.289 132.745 93.2048 155.953 84.4644C202.376 66.9812 257.466 54.8943 306.232 57.1924C308.625 57.3052 311.022 57.4122 313.423 57.5193C339.244 58.6716 365.501 59.8433 391.311 68.4365C419.494 77.8199 447.166 96.0634 473.079 132.876C492.08 159.869 490.936 182.05 489.208 209.71L489.148 210.675C487.427 238.166 485.369 271.044 502.039 319.052C518.834 367.42 511.511 404.408 484.321 425.489C457.075 446.613 409.699 451.927 346.017 436.448C249.053 412.816 155.782 368.391 97.3853 315.486C68.1867 289.033 47.7421 260.493 39.88 231.406C32.0247 202.344 36.7168 172.693 57.8785 143.946Z" fill="#5762C7" stroke="black"/>
</mask>
<g mask="url(#mask0_3_7)">
<rect x="26" y="55" width="501" height="398" fill="#D9D9D9"/>
</g>
</svg>
