<svg width="36" height="146" viewBox="0 0 36 146" fill="none" xmlns="http://www.w3.org/2000/svg">
<g clip-path="url(#clip0_4417_30252)">
<path d="M7.21624 143.176L7.26755 144.475L7.89551 144.541C9.08522 143.321 9.51042 141.849 9.70636 140.291C9.83697 139.255 10.258 138.328 10.8623 137.488C12.2336 135.577 13.7571 133.807 15.4785 132.206C16.8217 130.957 18.3846 130.054 19.9474 129.144C21.0022 128.522 21.9429 127.784 22.3663 126.558C22.4604 126.282 22.547 125.983 22.5645 125.692C22.6 125.062 22.5819 124.432 22.5868 123.794C21.6538 123.526 20.947 124.742 20.0639 123.967C20.4075 123.14 21.2633 123.476 21.9099 123.12L21.5184 122.203C21.196 122.27 20.9427 122.314 20.6894 122.366C20.6361 122.319 20.5444 122.28 20.5295 122.226C20.3293 121.356 20.3063 121.349 19.5711 121.274C19.0198 121.216 18.4687 121.112 17.8103 121.014C17.9762 120.378 18.2482 119.896 18.52 119.429C19.8406 117.134 21.1612 114.84 22.5123 112.568C24.2905 109.578 25.4113 106.344 26.0507 102.937C26.1784 102.278 26.1836 101.601 25.9436 100.924C25.741 100.361 25.7382 99.731 25.574 99.1535C25.1337 97.6058 24.355 96.2168 23.2758 95.0329C22.1054 93.7485 20.8345 92.5631 19.6255 91.3168C18.8423 90.504 18.0593 89.6759 17.3379 88.8021C16.5102 87.7969 15.9905 86.6173 15.709 85.3474C15.6275 84.9857 15.5922 84.5936 15.6257 84.225C15.8677 81.653 16.5382 79.1918 17.4382 76.7708C18.9328 72.7869 20.9999 69.0995 22.983 65.3653C25.0983 61.3939 27.2593 57.4536 28.9011 53.2558C29.464 51.8234 29.8895 50.313 30.1388 48.7936C30.4202 47.0901 29.9728 45.4655 28.6409 44.2489C27.72 43.4121 26.7371 42.6515 25.7775 41.8681C24.8101 41.0847 23.7886 40.3699 22.8754 39.5254C21.1327 37.9062 20.6425 35.8817 21.3036 33.6279C21.5791 32.6926 21.977 31.7737 22.4816 30.9478C23.4133 29.3875 24.6194 28.0292 25.9016 26.7406C27.9329 24.7125 29.9795 22.6998 31.9042 20.5787C33.7206 18.595 34.9497 16.238 34.9782 13.5337C35.0102 10.3684 34.1823 7.41159 31.9322 4.99707C30.3435 3.29452 28.4992 1.93573 26.4613 0.829007C25.2631 0.174377 24.26 0.043726 22.9246 0.286992L25.056 1.17931L24.9856 1.37085C24.5039 1.22116 24.0221 1.07914 23.4946 0.913728L23.6982 1.34556L22.1884 1.33394C22.3142 1.91885 22.6573 2.1443 23.1239 2.27084C25.0742 2.80832 26.6287 3.98046 28.0667 5.34381C28.4776 5.73114 28.9348 6.07272 29.3302 6.48298C30.5849 7.76808 31.2703 9.34076 31.6017 11.0874C31.6607 11.3875 31.6661 11.6872 31.7251 11.9873C32.1602 14.2112 31.3791 16.1183 30.0098 17.7673C28.95 19.0423 27.7226 20.17 26.5105 21.3132C24.2021 23.4928 21.8329 25.6029 19.943 28.1776C18.7269 29.8355 17.8088 31.6264 17.2797 33.643C16.403 37.0169 17.4619 39.8525 19.658 42.2974C20.8054 43.5816 22.2384 44.6146 23.5402 45.754C23.9056 46.0795 24.2864 46.3975 24.6673 46.7001C25.49 47.3518 25.6519 48.2213 25.3841 49.1566C25.0848 50.2069 24.7548 51.257 24.3026 52.2523C22.7668 55.6212 21.0478 58.8964 19.2066 62.1092C16.9693 66.0028 14.6708 69.8729 12.9526 74.0394C11.7109 77.0417 10.7521 80.123 10.1907 83.3534C9.63784 86.4762 10.6986 89.066 12.2042 91.6054C13.5661 93.9055 15.5142 95.7184 17.3235 97.6455C17.6807 98.0324 18.0456 98.4194 18.3643 98.8444C19.7149 100.607 19.9911 102.568 19.1859 104.613C18.5606 106.191 17.8817 107.761 17.0579 109.238C15.8067 111.479 14.3953 113.627 13.0753 115.838C12.1824 117.329 11.343 118.852 10.4807 120.351C10.3176 120.634 10.1316 120.901 9.87552 121.307C9.71724 120.96 9.61136 120.774 9.55159 120.574C9.28291 119.635 8.99889 118.695 8.76859 117.748C8.64233 117.225 8.29139 117.015 7.86262 116.958L7.14603 115.462L6.07898 115.684C5.6527 115.304 5.19529 114.986 4.52404 115.564L4.68135 117.033L4.51245 117.07C4.4235 116.678 4.33455 116.285 4.25332 115.885C4.1794 115.531 4.07448 115.223 3.62195 115.265C3.25208 115.524 3.35665 115.878 3.40015 116.201C3.64694 117.993 3.92438 119.786 4.17111 121.585C4.21461 121.908 4.16602 122.246 4.09439 122.591C3.53495 121.588 3.60501 120.452 3.40637 119.374C3.20024 118.274 3.11691 117.152 2.62763 115.995C2.33481 116.201 2.08107 116.306 1.94937 116.49C1.09699 117.697 0.695962 119.015 0.937339 120.516C1.33939 123.046 1.74904 125.585 2.05135 128.131C2.17394 129.13 2.03574 130.159 1.99721 131.181C1.94842 132.54 1.9149 133.907 1.81252 135.259C1.7611 135.965 1.61765 136.679 1.42079 137.361C1.12163 138.388 0.853552 139.362 1.32049 140.434C1.4862 140.811 1.33662 141.325 1.33461 141.586C1.66602 142.342 1.92216 142.92 2.21596 143.583L2.87884 143.096C2.91355 143.565 2.94042 144.057 2.98268 144.542C2.9822 144.603 3.05837 144.665 3.09627 144.719C3.50734 145.084 3.75631 144.601 4.08633 144.543C3.84736 143.726 4.02164 142.99 4.54787 142.333C4.43484 143.078 4.65088 143.886 4.0558 144.527C4.11717 145.183 4.4134 145.531 4.94448 145.571C5.75605 144.686 5.64301 143.44 6.09763 142.13C6.388 143.239 5.56842 144.17 6.26728 144.982C6.81112 145.025 6.88311 144.633 6.97792 144.265C7.06494 143.912 7.15963 143.56 7.24665 143.207L7.21624 143.176ZM23.2199 43.5618C23.1664 43.5383 23.1206 43.5149 23.1664 43.5383C23.1437 43.4998 23.1664 43.5384 23.1966 43.5924L23.4481 43.7864L24.2564 44.3151C23.8192 44.3578 23.5523 44.179 23.394 43.8397L23.2199 43.5618ZM17.0838 68.0551L16.8809 68.5223C16.5147 69.2955 16.1563 70.061 15.7901 70.8342L15.5034 71.2392C15.5922 71.6471 15.3984 71.9299 14.9604 72.0879L15.5033 71.2469L15.6911 70.7566C15.9274 69.9286 16.2094 69.1318 16.9036 68.5608L17.1065 68.0937L17.1683 68.025L17.076 68.0628L17.0838 68.0551ZM21.7069 29.0287C21.6832 29.1284 21.667 29.2358 21.691 29.1054C21.606 29.1969 21.6678 29.1282 21.7373 29.0596L21.7918 28.9602L21.7069 29.0287ZM23.5205 56.28L23.7539 55.8285C23.9033 55.3379 23.984 54.8084 24.4997 54.5281L24.7043 53.8305L24.7814 53.7696L24.6739 53.7995L24.4692 54.5048C24.4649 55.0657 24.2085 55.5093 23.8223 55.8982L23.5889 56.3497L23.3403 56.7857C23.0291 57.3827 22.7103 57.9795 22.3991 58.5764L21.919 59.2258C21.9029 59.3255 21.8868 59.4253 21.903 59.3102C21.8256 59.4095 21.8875 59.3331 21.9494 59.2568L22.422 58.5996C22.443 57.8545 22.8001 57.2733 23.287 56.7469L23.5128 56.2877L23.5205 56.28ZM14.5471 75.9955L14.3349 76.67L14.2576 76.7616L14.3653 76.701C14.3673 76.4475 14.2315 76.1621 14.5775 76.0188L14.6341 75.6351L14.7563 75.6975L14.5471 75.9955ZM21.7251 27.6688L21.4448 28.2276L21.2544 28.0724L21.7403 27.6843C21.7563 27.5923 21.7724 27.4925 21.7483 27.6306C21.8334 27.5314 21.7792 27.6001 21.7174 27.6688L21.7251 27.6688ZM28.0485 2.73902C27.9951 2.70019 27.9417 2.66903 28.0027 2.70792C27.9878 2.65402 28.0027 2.70792 28.0176 2.7695C28.3938 2.6802 28.5761 2.89674 28.7118 3.18976L28.7574 3.23621L28.7273 3.16682C28.3743 3.22557 28.1764 3.03965 28.0408 2.73896L28.0485 2.73902ZM22.5395 96.0875L22.4797 95.9027L22.5859 96.0418L23.0426 96.4525L22.8496 96.6278L22.5395 96.0952L22.5395 96.0875ZM22.136 62.8847L21.6922 63.7879L21.6306 63.8336L21.715 63.8112C21.6645 63.4112 21.7055 63.0581 22.1513 62.9002L22.3771 62.441L23.9178 59.4333C25.025 56.9754 26.1322 54.5253 27.2395 52.0675C27.4789 52.83 27.114 53.4265 26.8412 54.0236C26.2019 55.4248 25.4939 56.8023 24.8011 58.18C24.5676 58.6469 24.2959 59.0904 24.0395 59.5418C23.6971 60.2229 23.3698 60.9196 22.9968 61.5852C22.8259 61.8835 22.571 62.1428 22.3542 62.4177L22.1284 62.877L22.136 62.8847ZM31.4925 19.3001L32.0278 18.459C32.0552 18.8895 31.9758 19.2423 31.5686 19.3698L31.3683 19.5066L31.4925 19.3001ZM21.9468 29.7297C22.1981 28.9479 22.26 28.8639 23.177 28.2255C22.743 28.8522 22.562 29.4578 21.9316 29.7142L21.7697 29.8282L21.9392 29.7219L21.9468 29.7297ZM18.8475 108.744L19.5429 107.029L19.749 107.13C19.5605 107.728 19.5017 108.388 18.8171 108.721L18.8399 108.744L18.8475 108.744ZM29.1474 4.34561L29.2613 4.48478L29.1629 4.32267C28.4139 4.05567 27.7963 3.62834 27.3879 2.92602C27.2884 2.90988 27.1889 2.89374 27.3114 2.91005C27.2124 2.82478 27.2885 2.88683 27.357 2.94882C28.0907 3.23107 28.7701 3.58205 29.1399 4.33019L29.1474 4.34561ZM26.4142 43.7862L26.5276 43.9868L26.3291 43.8777C25.5751 43.2649 24.8287 42.6599 24.0746 42.0471L23.5788 41.7359L23.6642 41.5983L24.1287 41.986C24.8905 42.5912 25.6523 43.1887 26.4141 43.7939L26.4142 43.7862ZM11.4503 121.834C11.7969 120.615 12.2013 119.857 12.9111 119.248C12.3978 120.212 12.2751 121.218 11.5264 121.903L11.4014 122.21L11.264 122.139L11.4426 121.833L11.4503 121.834ZM28.0889 52.2354C28.0955 52.3814 28.1631 52.5509 28.1085 52.6735C27.6632 53.7687 27.2026 54.8639 26.7268 55.9436C26.6956 56.0125 26.5575 56.0345 26.4728 56.0799L26.4471 56.4332L26.3094 56.3937L26.5033 56.1032C27.042 54.8243 27.5806 53.5453 28.1193 52.2663L28.1888 52.1977L28.0966 52.2354L28.0889 52.2354ZM22.314 41.7569C22.276 41.7259 22.2302 41.7025 22.2378 41.7026C22.2378 41.7026 22.2606 41.7335 22.2909 41.7721C22.6571 41.9901 23.0697 42.1623 23.3895 42.4337C24.2499 43.1702 25.2803 43.7313 25.8933 44.7426L25.9618 44.8046L25.9164 44.7274C25.7022 44.672 25.4415 44.6853 25.2892 44.5612C24.3218 43.7854 23.37 42.979 22.4335 42.1651C22.3422 42.0875 22.3513 41.8955 22.314 41.7569ZM19.8419 67.1928C18.7587 69.5125 17.6755 71.8322 16.5847 74.1442C16.2574 74.8485 15.9147 75.5528 15.5798 76.2494C15.6161 75.512 15.7672 74.8063 16.0786 74.1787C17.1064 72.0814 18.1877 70.0152 19.2613 67.9413C19.4014 67.6658 19.6636 67.4526 19.8724 67.2161L19.8983 66.8398L20.0281 66.8946L19.8419 67.1928ZM20.6285 97.4251L20.4124 97.6232C20.2221 97.4527 20.0163 97.2974 19.8415 97.1117C18.4735 95.6106 17.0977 94.1171 15.7452 92.5931C15.2285 92.0129 14.8504 91.3415 14.611 90.5867C14.8709 90.6809 15.0998 90.8056 15.2364 90.991C16.6317 92.9226 18.2355 94.6637 19.9164 96.3439C20.213 96.6382 20.3937 97.0622 20.6285 97.4251ZM22.3829 106.474C22.34 108.064 21.3653 110.231 20.3326 110.976C21.0801 109.445 21.4139 107.896 22.3829 106.474ZM13.4066 123.585C13.7156 122.274 14.3604 121.149 15.2494 120.157C14.9176 121.445 14.4101 122.648 13.4066 123.585ZM16.5771 76.1264C16.7181 74.7368 17.7004 72.5854 18.5194 71.7235C17.8174 73.3085 17.2011 74.7175 16.5771 76.1264ZM15.9617 125.203C16.2673 124.329 16.8888 124.242 17.3659 123.984C17.8508 123.719 18.2757 123.292 18.8813 123.274C18.0782 124.051 17.1617 124.628 15.9617 125.203ZM4.23883 126.726L3.96837 124.027C4.48407 124.738 4.62818 125.93 4.23883 126.726ZM22.3597 109.494C22.5802 108.727 22.6557 107.875 23.3423 107.296C23.2975 108.141 22.9853 108.868 22.3597 109.494ZM20.9523 96.1829C21.5702 96.5641 22.0493 97.0442 22.3108 97.9298C21.3402 97.5612 21.154 96.8682 20.9523 96.1829ZM22.411 99.8437C21.9538 99.5021 21.7832 99.0884 21.8994 98.6027C22.3184 98.9287 22.6071 99.2613 22.411 99.8437ZM21.4212 41.2583L21.2204 41.4489C20.7015 41.1606 20.3597 40.7507 20.465 40.0216L21.4212 41.2583ZM16.2107 90.8679C15.4478 90.4087 15.1679 89.9302 15.174 89.1389C15.7222 89.6041 15.9713 90.1054 16.2107 90.8679ZM12.6648 84.548C12.9603 84.9882 12.9952 85.4264 12.669 85.9848C12.3361 85.4213 12.4314 84.9918 12.6648 84.548ZM23.94 104.327C23.5232 103.709 23.6418 103.242 24.0062 102.699C24.362 103.27 24.2051 103.738 23.94 104.327ZM13.8537 87.4076C14.2955 87.7645 14.4228 88.1496 14.2649 88.7477C13.739 88.3672 13.6578 87.967 13.8537 87.4076ZM14.7055 80.3071C14.73 81.1064 14.5898 81.7302 14.2849 82.1786C14.1366 81.5244 14.3323 80.988 14.7055 80.3071ZM7.42126 125.506C7.02481 125.234 6.91251 124.887 7.26824 124.475L7.42126 125.506ZM13.5046 89.9404C13.0478 89.5528 13.0047 89.1759 12.9786 88.5764C13.4199 89.0024 13.6091 89.3112 13.5046 89.9404ZM32.2356 8.40314L32.4437 8.25106C32.8091 8.56889 32.9977 8.95451 32.9153 9.70684L32.2356 8.40314ZM12.1095 123.821C12.0755 124.251 11.9805 124.65 11.3791 125.106C11.6062 124.485 11.7624 124.11 12.1095 123.821ZM19.577 37.8942C20.0814 38.0825 20.1944 38.3369 19.8684 38.8645L19.577 37.8942ZM30.7936 6.54803L30.0791 5.7742C30.5461 5.83926 30.8357 6.05661 30.7936 6.54803ZM28.8069 48.5759L28.7294 49.6817C28.3267 49.2176 28.4052 48.9801 28.8069 48.5759ZM13.6276 83.9253C13.8706 84.2243 13.8684 84.506 13.6211 84.7705L13.6276 83.9253ZM20.3406 32.2836L20.1192 32.1666L20.5552 31.2941L20.7918 31.4111L20.3406 32.2836ZM33.9564 13.8562C34.0091 14.3125 33.8989 14.6855 33.6258 14.9754L33.9564 13.8562ZM24.2116 100.91L24.5106 100.897L24.5047 101.658L24.3283 101.672L24.2116 100.91ZM31.4304 6.46841L31.6463 6.30103L32.0934 6.95757L31.9392 7.07162L31.4304 6.46841ZM19.1244 38.9356L19.3243 38.8603L19.5798 39.5154L19.3723 39.5906L19.1245 38.928L19.1244 38.9356ZM32.9413 16.284L33.1629 16.3779L32.8513 17.0286L32.6833 16.9504L32.9413 16.284ZM23.05 100.463C23.4385 100.781 23.437 100.973 22.9827 101.246L23.05 100.463ZM21.7948 125.125L21.8999 125.418L21.2854 125.582L21.2254 125.412L21.7947 125.132L21.7948 125.125ZM32.3303 11.0239L32.4453 11.0248L32.4406 11.6394L32.3256 11.6385L32.3303 11.0239ZM22.604 102.642L22.8797 102.682L22.7231 103.104L22.5625 103.064L22.6041 102.634L22.604 102.642ZM27.5259 45.7232L27.3405 45.9139L27.0747 45.5892L27.2138 45.4519L27.5336 45.7233L27.5259 45.7232ZM32.9732 11.1441L33.1418 11.1454L33.1374 11.7139L33.0072 11.7129L32.9732 11.1441ZM18.7664 35.6675L18.9043 35.6685L18.8984 36.4368L18.7604 36.4358L18.7664 35.6675ZM19.7839 35.8981L19.646 35.8971L19.6495 35.4361L19.7875 35.4372L19.7839 35.8981ZM21.1873 39.7813L20.9872 39.8797L20.7157 39.309L20.9004 39.2182L21.1873 39.7813ZM21.5698 103.587L21.3476 103.57L21.4286 103.002L21.5741 103.018L21.5697 103.594L21.5698 103.587ZM33.6364 9.6202L33.4982 9.64988C33.4837 9.54988 33.4691 9.45756 33.4622 9.35763C33.4622 9.35763 33.5542 9.34297 33.6003 9.33564L33.6364 9.6202Z" fill="#F9B500"/>
</g>
<defs>
<clipPath id="clip0_4417_30252">
<rect width="32.9556" height="145.211" fill="white" transform="matrix(-0.99997 -0.00769886 -0.00769886 0.99997 35.0703 0.253906)"/>
</clipPath>
</defs>
</svg>
