<svg width="56" height="34" viewBox="0 0 56 34" fill="none" xmlns="http://www.w3.org/2000/svg">
<g clip-path="url(#clip0_4417_30349)">
<path d="M39.6405 16.8759C38.7958 16.0183 37.9187 15.1801 37.1195 14.2835C36.4828 13.5687 35.9305 12.7826 35.3392 12.0289C35.2028 11.8534 35.0664 11.652 34.8779 11.5546C34.7285 11.4766 34.5011 11.5416 34.1177 11.5416C34.3581 11.9769 34.4686 12.2693 34.657 12.5032C35.6641 13.7442 36.6907 14.9722 37.7043 16.2067C37.9057 16.4536 38.1006 16.707 38.2891 16.9604C38.9453 17.857 39.6015 18.7536 40.3552 19.7867C39.712 19.4164 39.2896 19.02 38.8998 18.5652C38.2826 17.844 37.7888 17.0059 36.8921 16.538C36.6322 16.4016 36.4698 16.0637 36.2749 15.8168C35.5472 14.9267 34.8325 14.0301 34.0982 13.1399C34.0203 13.0425 33.8968 12.984 33.7734 12.893C33.1821 13.3283 33.8643 13.6727 33.8319 14.0755L33.2666 14.7318C33.52 15.505 33.9488 16.1742 34.4556 16.7849C35.4237 17.935 36.4308 19.0525 37.4249 20.1701C37.8602 20.6639 38.3215 21.1382 38.8933 21.7554C38.5165 21.7749 38.341 21.8204 38.1786 21.7944C34.9624 21.2486 31.7852 20.5209 28.7054 19.4359C27.0811 18.8641 25.4697 18.2274 23.9104 17.4997C21.7402 16.4861 19.5831 15.44 17.4975 14.2705C15.4118 13.0944 13.3911 11.795 11.3964 10.4565C9.77858 9.37144 8.20621 8.20841 6.69232 6.98041C5.30189 5.85636 3.99591 4.62836 2.70294 3.38736C2.01421 2.73112 1.68285 1.85398 1.63087 0.885872C1.61787 0.697449 1.61138 0.509026 1.59189 0.236134C1.44245 0.431057 1.35148 0.541512 1.26702 0.658466C0.760221 0.664963 0.93565 0.236134 0.844687 -0.0172615C0.272918 0.327099 -0.116924 1.13277 0.0195208 1.82149C0.103987 2.25032 0.272918 2.67915 0.46784 3.07549C1.72183 5.53799 3.33318 7.7536 5.12646 9.85875C6.35446 11.3012 7.70591 12.6201 9.10285 13.8806C10.3568 15.0112 11.7408 15.9988 13.0857 17.0318C15.0739 18.5522 17.2051 19.8517 19.3817 21.0602C23.7089 23.4577 28.3156 25.1731 33.0847 26.4465C34.1307 26.7259 35.1963 26.9663 36.2424 27.2327C36.5478 27.3107 36.8401 27.4211 37.3015 27.5706C37.0026 27.7265 36.8596 27.8305 36.7037 27.876C34.5011 28.5192 32.292 29.1624 30.0829 29.7862C29.5826 29.9291 29.1018 30.0786 28.7834 30.6958L30.6351 30.4879C29.9984 31.0337 29.1862 30.9752 28.3871 31.1896L28.504 31.9433C29.3227 32.2032 30.0634 31.8459 30.8106 31.7939C31.2199 31.7679 31.6227 31.612 32.0256 31.534C32.2595 31.495 32.5064 31.5015 32.7728 31.6639L28.9068 32.4436C29.3357 32.9179 29.823 33.0869 30.3753 32.9959C31.4798 32.814 32.5844 32.6515 33.6694 32.3981C37.1585 31.5795 40.6411 30.7803 44.2471 30.6698C45.4946 30.6308 46.7356 30.4684 47.9766 30.371C48.7433 30.3125 49.497 30.3125 50.2637 30.4944C51.0044 30.6763 51.7776 30.7283 52.4988 30.8388L53.8373 30.176V29.3704L54.5455 29.5198C54.7794 29.2989 55.0458 29.0715 55.2862 28.8246C55.767 28.3308 55.7345 27.9669 55.1887 27.5641C55.0393 27.4536 54.8768 27.3692 54.461 27.1158C54.6884 27.0703 54.7794 27.0508 54.8703 27.0248C54.9613 26.9988 55.0458 26.9663 55.1367 26.9338L54.6429 25.4265C54.1751 25.1406 53.6099 24.6987 52.9731 24.4324C51.3748 23.7566 50.0688 22.6976 48.8668 21.489C47.3269 19.9492 45.774 18.4288 44.2731 16.8564C43.0646 15.5894 41.7132 14.4199 40.8295 12.8735C40.3162 11.9769 39.4521 11.4831 38.7049 10.8204L38.1981 10.9568L37.4704 10.4175C37.178 10.7554 37.4184 10.9698 37.5808 11.1777C38.2501 12.0743 38.9258 12.9645 39.595 13.8611C39.699 14.0041 39.764 14.1795 39.8679 14.3744C39.4066 14.5304 39.2312 14.2445 39.0492 14.0041C38.3215 13.0749 37.6003 12.1328 36.8661 11.2102C36.6582 10.9503 36.3983 10.7294 36.1904 10.5085C35.6836 10.7814 35.7811 11.0867 35.9695 11.3726C36.2684 11.8274 36.5737 12.2758 36.9116 12.6981C37.6523 13.6207 38.4125 14.5239 39.1727 15.4465L39.647 16.8499L39.725 17.0124L39.621 16.8759H39.6405ZM8.13474 11.8729C8.17373 11.8989 8.21271 11.9314 8.25169 11.9574L8.13474 12.0549C8.11525 12.1198 8.12175 12.1783 8.14773 12.2368L8.19971 12.3083L8.17372 12.2108L7.58246 11.8534L7.19912 11.4701L7.07567 11.3726L7.20562 11.2882L7.13414 10.9438L6.55588 10.3785L6.38045 10.1706C5.93863 9.7158 5.41234 9.32596 5.23691 8.64374L6.47791 10.0667L6.67283 10.2616L7.2381 10.8463L7.60845 11.2492L7.77089 11.4701C7.82936 11.5351 7.88784 11.6065 7.95281 11.6715L8.13474 11.8664V11.8729ZM8.34266 9.75479L8.16723 9.54687L7.77089 9.36494L7.54348 9.20901L6.59486 8.42932L6.43243 8.20841L6.36096 8.16293L6.40644 8.2344L6.63385 8.39034L7.59546 9.15703L7.75789 9.37794L8.14773 9.56636L8.34266 9.75479L8.51808 9.9627L8.93392 9.94971L8.55707 9.35845L8.35565 9.15053L7.97231 8.9816L7.77089 8.78668L7.58896 8.57876L7.51749 8.52029L7.56297 8.60475L7.7449 8.81267L7.93982 9.00759L8.32966 9.17652L8.53108 9.38444L9.29777 9.94971L9.38224 10.0732L9.31726 9.93022L8.90793 9.91722L8.95341 10.437L8.55057 9.93671L8.35565 9.74829L8.34266 9.75479ZM15.8146 17.4672L16.211 17.6361L16.3994 17.8375C16.8087 17.8765 17.1401 18.0519 17.361 18.4093L17.7444 18.5977L17.8353 18.7277L17.7703 18.5717L17.3805 18.3898C16.9582 18.3703 16.6463 18.1624 16.4254 17.8115L16.2435 17.6101L15.8471 17.4477L15.8081 17.4087L15.8211 17.4737L15.8146 17.4672ZM17.3935 18.9551L16.9842 18.7926L16.4059 18.4093L15.1974 17.6946C14.7036 17.3502 14.2163 17.0124 13.7225 16.668L13.5341 16.4731L13.1442 16.2911L13.0857 16.2262L13.1182 16.3106C13.2482 16.3691 13.3846 16.4276 13.5146 16.4861L13.7095 16.6745L15.2883 17.5841L16.4059 18.3963L16.9842 18.7796L17.361 18.9811L17.5364 19.189L17.9263 19.3579L17.9783 19.3969L17.9458 19.3449L17.5689 19.1695L17.3935 18.9616V18.9551ZM14.2813 14.3874L14.6776 14.5628C14.879 14.6408 15.0999 14.6863 15.2883 14.7967C17.2246 15.8948 19.1543 17.0124 21.0905 18.1039C22.0781 18.6627 23.0852 19.202 24.0858 19.7477C24.1703 19.7672 24.2612 19.7932 24.1378 19.7607C24.2092 19.8517 24.1573 19.7867 24.1053 19.7218C23.9234 19.6893 23.7284 19.6893 23.5595 19.6178C20.98 18.5912 18.6215 17.1553 16.263 15.7194C15.7042 15.3815 15.2169 14.9332 14.6971 14.5369L14.3072 14.3549C14.2618 14.3354 14.2228 14.3159 14.2618 14.3354C14.2423 14.29 14.2618 14.3354 14.2813 14.3874ZM19.6871 16.8369L19.3102 16.6615L19.2842 16.6875L19.6546 16.8694L20.0509 17.0578C20.2004 17.0968 20.3628 17.1098 20.4992 17.1683C22.377 18.0194 24.2547 18.8771 26.1325 19.7348C26.9381 20.1051 27.7308 20.4755 28.5365 20.8523L29.0693 21.0862C29.1537 21.1122 29.2382 21.1317 29.1407 21.1057C29.2057 21.1707 29.1472 21.1122 29.0953 21.0602L28.4715 20.9238C28.2831 20.8913 28.0882 20.8978 27.9127 20.8328C25.7816 20.0271 23.657 19.202 21.6558 18.1104C21.1035 17.8115 20.4213 17.6491 20.0639 17.0383L19.6806 16.8369H19.6871ZM31.0055 31.2806C31.0835 31.2416 31.1614 31.1961 31.077 31.2416C31.1679 31.2286 31.077 31.2416 30.986 31.2546C30.7976 31.56 30.5117 31.482 30.2323 31.4495C29.875 31.7809 29.4396 31.7679 28.9848 31.6314L30.2453 31.469C30.4337 31.1506 30.7456 31.3131 31.0055 31.2806ZM36.7752 25.8878C36.5088 25.8683 36.2034 26.0112 36.0085 25.6993L34.5855 25.4784C35.2483 25.4265 35.4432 25.4719 35.989 25.7188C36.2619 25.7188 36.5672 25.5824 36.7557 25.9073H37.6003C37.1585 26.0827 36.9441 26.1347 36.7752 25.8813V25.8878ZM26.9771 22.6261C26.2104 22.5546 25.5477 22.2038 24.885 21.8529C24.8005 21.8334 24.7225 21.8139 24.8005 21.8334C24.742 21.7879 24.8005 21.8334 24.859 21.8789C25.6582 21.8724 26.3534 22.1193 26.9576 22.6456C27.0421 22.6586 27.1201 22.6716 27.0226 22.6586C27.1006 22.7235 27.0421 22.6716 26.9771 22.6261ZM28.9003 23.7761C28.1337 23.6917 27.3995 23.5357 26.8082 22.9899L26.3404 22.9639L26.3729 22.8405L26.7822 23.0159C27.5099 23.2043 28.2766 23.2758 28.8744 23.7956L29.3422 23.8476L29.2967 23.984L28.8939 23.7761H28.9003ZM37.9317 29.5393L37.113 29.7602L37.0805 29.5653H37.9512C38.7829 29.1884 39.8614 29.065 40.7321 29.3184L37.9252 29.5393H37.9317ZM36.0085 30.6828L35.963 30.7348L36.0345 30.7023C36.7427 30.4684 37.4444 30.176 38.1721 30.0006C39.1662 29.7602 40.1863 29.5913 41.2194 29.6367C40.7386 29.8122 40.2513 29.9421 39.7575 30.0266C38.51 30.254 37.2625 30.4619 36.015 30.6763L36.0085 30.6828ZM35.0404 22.4442C36.0475 22.4312 39.9264 23.2108 40.4852 23.6072C39.4521 23.4772 38.419 23.3213 37.3989 23.0939C36.6062 22.9185 35.833 22.6521 35.0534 22.4247L34.644 22.3857L34.67 22.2687L35.0274 22.4442H35.0404ZM41.1934 17.4477C42.8827 18.8901 45.8715 21.8984 46.1444 22.4766C45.9105 22.3727 45.7155 22.3402 45.5986 22.2297C44.2017 20.8393 42.8047 19.4359 41.4273 18.0194C41.2973 17.883 41.2843 17.6296 41.2129 17.4282L41.1869 17.4477H41.1934ZM31.5838 22.2427C31.7397 22.2427 31.9086 22.2168 32.0581 22.2492C34.9234 22.834 37.7888 23.4253 40.6541 24.023C40.875 24.0685 41.0829 24.166 41.2973 24.2374C40.927 24.3544 40.5761 24.3544 40.2383 24.3024C39.608 24.2049 38.9843 24.075 38.3605 23.971C36.3853 23.6332 34.4036 23.2953 32.4999 22.6456C32.188 22.5416 31.9021 22.3597 31.6033 22.2103C31.5058 22.1973 31.4148 22.1908 31.5448 22.2103C31.4408 22.1323 31.5123 22.1843 31.5838 22.2362V22.2427ZM54.6624 28.5582C54.0387 28.5842 53.5774 28.7271 53.1291 28.2073C53.6748 28.1878 54.1296 28.0319 54.6624 28.5582ZM52.9406 27.811C52.5443 28.0774 52.2454 28.0449 51.927 27.681C52.3104 27.4666 52.6223 27.3692 52.9406 27.811ZM51.9725 28.5647C51.6433 28.7033 51.3921 28.6643 51.2188 28.4477C51.4982 28.2853 51.7321 28.3048 51.9725 28.5647ZM50.9849 27.8435C50.7987 28.0211 50.6536 28.0037 50.5496 27.7915L50.9849 27.8435ZM39.543 28.4282V28.5127H39.0427V28.4282H39.543Z" fill="#BB6BD9"/>
<path d="M7.97217 11.8796V11.6652L7.75776 11.4898L7.56934 11.4703V11.8796H7.97867H7.97217Z" fill="#BB6BD9"/>
<path d="M8.1672 12.0811V11.8536H7.94629L8.1672 12.0811Z" fill="#BB6BD9"/>
<path d="M7.17349 11.2752V11.4961H7.58282C7.53085 11.4441 7.51135 11.3921 7.51785 11.3337L7.16699 11.2752H7.17349Z" fill="#BB6BD9"/>
</g>
<defs>
<clipPath id="clip0_4417_30349">
<rect width="55.65" height="33.0196" fill="white"/>
</clipPath>
</defs>
</svg>
