<svg width="27" height="27" viewBox="0 0 27 27" fill="none" xmlns="http://www.w3.org/2000/svg">
<path fill-rule="evenodd" clip-rule="evenodd" d="M25.1091 0.796387H1.76006C1.0437 0.796387 0.462891 1.37783 0.462891 2.09497V25.4694C0.462891 26.1865 1.0437 26.768 1.76006 26.768H25.1091C25.8254 26.768 26.4063 26.1865 26.4063 25.4694V2.09497C26.4063 1.37783 25.8254 0.796387 25.1091 0.796387ZM18.6232 22.8722H22.5148V15.6307C22.5148 13.1749 20.3511 11.1841 17.8979 11.1841C16.743 11.1841 15.3597 11.8955 14.7253 12.9626V11.185H10.8402V22.8722H14.7253V16.1389C14.7253 15.0863 15.5775 14.2332 16.6289 14.2332C17.6801 14.2332 18.6232 15.0863 18.6232 16.1389V22.8722ZM4.3544 6.99159C4.3544 5.7217 5.38285 4.69213 6.65136 4.69213C7.9205 4.69213 8.94848 5.72122 8.94848 6.99159C8.94848 8.26163 7.92003 9.29121 6.65136 9.29121C5.38238 9.29121 4.3544 8.26211 4.3544 6.99159ZM4.3544 22.8722H8.2459V11.185H4.3544V22.8722Z" fill="#5762C7"/>
</svg>
