<svg width="206" height="179" viewBox="0 0 206 179" fill="none" xmlns="http://www.w3.org/2000/svg">
<g clip-path="url(#clip0_4417_35922)">
<path d="M121.681 87.0025C121.357 86.5809 120.403 85.8473 120.238 84.9715C120.11 84.3157 120.825 83.2073 121.471 82.7493C122.929 81.7442 124.539 80.9139 126.17 80.2227C126.823 79.9485 128.167 79.9358 128.399 80.3134C128.973 81.2224 129.467 82.5019 129.302 83.5092C129.037 85.1016 123.842 87.5622 121.673 87.0001L121.681 87.0025Z" fill="black"/>
<path d="M176.295 45.7109C174.272 47.2626 172.725 48.741 170.918 49.7384C169.576 50.4878 168.253 52.5138 166.381 50.9509C164.398 49.3012 162.04 47.7038 162.393 44.6148C162.493 43.7431 163.19 42.668 163.932 42.2071C165.53 41.2109 167.279 40.3223 169.085 39.8309C170.592 39.4221 172.944 38.9818 173.726 39.7552C175.022 41.0584 175.364 43.3297 176.299 45.6931L176.295 45.7109Z" fill="black"/>
<path d="M10.0716 111.539C8.57855 110.795 7.02223 108.867 6.94535 107.451C6.83917 105.683 8.20443 105.236 9.40731 104.65C9.93111 104.398 10.4826 104.221 11.0364 104.035C14.3504 102.915 16.7755 104.865 16.3955 108.377C16.3579 108.73 16.192 109.279 15.9473 109.376C14.0101 110.147 12.0388 110.833 10.0716 111.539Z" fill="black"/>
<path d="M32.4449 135.841C32.9775 133.747 35.9684 131.03 38.073 130.734C39.9498 130.472 42.4053 133.692 41.5925 136.122C40.8411 138.359 39.188 140.306 37.7992 142.295C37.5682 142.625 36.5869 142.668 36.0617 142.498C33.7508 141.755 31.859 138.17 32.4449 135.841Z" fill="black"/>
<path d="M103.06 51.4018C103.736 48.9157 109.794 45.0421 112.255 45.5103C114.145 45.8733 115.391 49.0655 114.181 50.8828C112.305 53.6973 109.646 55.3174 106.194 55.2145C103.969 55.1441 102.549 53.3106 103.071 51.3953L103.06 51.4018Z" fill="black"/>
<path d="M40.2795 61.0418C38.9592 63.8045 37.6277 64.4801 35.1943 63.484C31.6749 62.0343 30.7003 58.7522 32.817 55.572C33.218 54.9625 33.5375 54.3024 33.9846 53.7339C34.5504 53.006 35.3521 51.6817 35.7739 51.7756C36.6682 51.9866 37.7722 52.7986 38.0979 53.6411C39.0151 56.0378 39.5732 58.5677 40.2795 61.0418Z" fill="black"/>
<path d="M199.494 68.8101C197.18 70.8095 195.686 70.887 193.868 68.9756C191.242 66.2165 191.667 62.8219 194.879 60.7671C195.488 60.3757 196.054 59.8964 196.689 59.5502C197.501 59.1083 198.765 58.2234 199.113 58.4885C199.849 59.0396 200.525 60.2435 200.484 61.1408C200.357 63.7071 199.857 66.2497 199.494 68.8101V68.8101Z" fill="black"/>
<path d="M131.402 65.1809C129.057 64.6003 127.485 62.4107 127.983 60.4121C128.538 58.1996 132.223 56.0513 134.483 56.6283C135.943 57.0003 138.449 61.1324 138.112 62.6005C137.808 63.9146 133.29 65.6581 131.4 65.1898L131.402 65.1809Z" fill="black"/>
<path d="M166.164 74.9353C165.207 79.0382 163.001 79.7473 160.738 77.726C156.984 74.3493 156.929 71.2181 160.495 68.8755C161.801 68.0113 163.049 68.0016 163.739 69.2954C164.847 71.3703 165.61 73.6303 166.153 74.9419L166.164 74.9353Z" fill="black"/>
<path d="M86.9335 75.9607C87.9062 72.3306 92.073 69.4128 94.0416 70.7242C95.4288 71.6504 96.2934 73.9948 96.5521 75.8326C96.763 77.3518 91.1074 79.5455 89.0456 78.582C87.9715 78.0839 87.3777 76.5386 86.9359 75.9518L86.9335 75.9607Z" fill="black"/>
<path d="M113.65 131.817C112.872 132.555 111.712 134.366 110.944 134.218C109.556 133.932 108.061 132.7 107.265 131.444C106.646 130.456 106.509 128.555 107.059 127.565C107.946 125.958 109.57 124.758 110.888 123.391C111.818 124.921 112.931 126.376 113.617 128.003C113.999 128.918 113.663 130.138 113.65 131.817Z" fill="black"/>
<path d="M62.9049 84.2637C60.884 83.7509 60.7422 82.7187 61.3802 81.0828C62.3428 78.6258 64.9422 76.2345 66.8055 77.0875C68.6421 77.9333 69.9418 80.0023 71.3337 81.6563C71.421 81.7561 70.3012 83.4158 69.5877 83.5592C67.407 83.9978 65.1372 84.0588 62.9049 84.2637Z" fill="black"/>
<path d="M134.596 26.5362C136.617 27.049 136.759 28.0812 136.121 29.717C135.158 32.1741 132.559 34.5654 130.695 33.7124C128.859 32.8666 127.559 30.7976 126.167 29.1436C126.08 29.0437 127.2 27.384 127.913 27.2406C130.094 26.8021 132.364 26.7411 134.596 26.5362Z" fill="black"/>
<path d="M79.3567 116.127C76.5961 115.359 74.821 113.325 75.311 111.496C75.8248 109.579 78.8796 108.256 81.2475 108.929C83.1565 109.469 84.886 112.418 84.4431 114.354C84.0781 115.929 81.6649 116.774 79.3567 116.127Z" fill="black"/>
<path d="M148.103 132.292C150.602 130.878 153.287 131.042 154.236 132.683C155.221 134.4 153.99 137.502 151.831 138.711C150.098 139.681 146.797 138.834 145.753 137.159C144.904 135.784 146.027 133.475 148.112 132.294L148.103 132.292Z" fill="black"/>
<path d="M57.9972 46.5165C57.9733 46.6057 57.9672 46.6997 57.9279 46.7752C57.0484 48.2125 57.4304 51.1158 54.6312 50.3849C52.1247 49.7324 50.7294 46.1752 51.6579 43.8811C51.7627 43.6319 51.8576 43.3132 52.0627 43.1865C53.5754 42.2248 55.5377 40.1886 56.5535 40.585C59.0585 41.5622 58.5913 44.2284 57.9972 46.5165Z" fill="black"/>
<path d="M183.525 103.678C183.501 103.767 183.495 103.861 183.455 103.937C182.576 105.374 182.958 108.277 180.159 107.546C177.652 106.894 176.257 103.337 177.185 101.042C177.29 100.793 177.385 100.475 177.59 100.348C179.103 99.3862 181.065 97.35 182.081 97.7464C184.586 98.7235 184.119 101.39 183.525 103.678Z" fill="black"/>
<path d="M53.9424 107.922C53.0104 110.903 48.5289 112.867 45.9735 111.226C45.1209 110.682 44.221 109.428 44.2464 108.517C44.2759 107.626 45.2687 106.334 46.1467 105.967C47.8689 105.252 49.7815 104.857 51.652 104.689C53.6475 104.516 54.5528 105.963 53.9424 107.922Z" fill="black"/>
<path d="M106.067 109.661C104.354 108.39 103.494 107.27 104.689 105.898C106.205 104.144 107.972 102.553 109.846 101.2C110.33 100.852 112.032 101.346 112.456 101.966C113.435 103.385 114.937 105.48 113.13 106.793C111.134 108.247 108.451 108.751 106.065 109.67L106.067 109.661Z" fill="black"/>
<path d="M77.2329 43.7838C77.8515 41.617 80.4368 39.8815 82.2471 41.074C83.7183 42.0418 85.2612 44.3385 85.1412 45.9219C84.9802 48.0488 82.3525 48.0617 80.6922 47.4448C79.1272 46.8629 76.4203 46.8164 77.2329 43.7838Z" fill="black"/>
<path d="M149.567 99.7131C151.575 100.203 153.995 103.911 153.16 105.752C152.807 106.537 151.177 107.295 150.262 107.165C147.854 106.816 145.384 103.544 145.753 101.741C146.103 100.009 147.586 99.23 149.574 99.7244L149.567 99.7131Z" fill="black"/>
<path d="M30.8003 84.9536C31.3418 82.8617 33.7873 80.7256 35.1408 81.4228C37.1125 82.4387 36.9562 84.5478 36.5642 86.2591C36.1842 87.9258 35.5427 90.0004 33.0748 89.559C31.2688 89.2376 30.2732 86.992 30.8003 84.9536Z" fill="black"/>
<path d="M72.1954 131.855C74.9028 132.61 76.108 135.102 75.2689 137.382C75.0108 138.097 73.9904 139.066 73.3739 139.025C71.6112 138.897 69.2553 135.092 70.0138 133.575C70.4486 132.697 71.6897 132.217 72.1866 131.853L72.1954 131.855Z" fill="black"/>
<path d="M90.8577 24.1658C90.7955 26.9884 88.6793 28.7826 86.2636 28.5368C85.5139 28.4602 84.3287 27.7029 84.2148 27.0988C83.9032 25.3519 87.006 22.1109 88.6575 22.4769C89.6098 22.6843 90.3722 23.7776 90.8488 24.1634L90.8577 24.1658Z" fill="black"/>
</g>
<defs>
<clipPath id="clip0_4417_35922">
<rect width="176.124" height="137.522" fill="white" transform="translate(170.125 178.42) rotate(-165)"/>
</clipPath>
</defs>
</svg>
