<svg width="283" height="283" viewBox="0 0 283 283" fill="none" xmlns="http://www.w3.org/2000/svg">
<g clip-path="url(#clip0_4417_30327)">
<path d="M119.27 131.87C119.361 132.543 119.951 133.963 119.577 135.035C119.303 135.841 117.808 136.605 116.803 136.696C114.552 136.871 112.243 136.754 110 136.472C109.103 136.356 107.608 135.508 107.591 134.944C107.533 133.573 107.799 131.845 108.621 130.84C109.925 129.254 117.235 129.869 119.278 131.879L119.27 131.87Z" fill="#5762C7"/>
<path d="M32.6353 142.419C35.8581 142.004 38.5078 141.364 41.1409 141.422C43.1012 141.456 45.8506 140.068 46.9304 142.992C48.0766 146.082 49.6714 149.355 47.3208 152.536C46.6563 153.433 45.2027 154.173 44.0896 154.206C41.6891 154.28 39.1889 154.139 36.8798 153.525C34.9527 153.01 32.0705 151.988 31.6967 150.634C31.0903 148.366 32.1535 145.642 32.6187 142.436L32.6353 142.419Z" fill="#5762C7"/>
<path d="M258.333 176.325C259.512 178.103 260.011 181.226 259.197 182.838C258.192 184.856 256.397 184.474 254.695 184.349C253.955 184.291 253.233 184.133 252.502 183.984C248.124 183.095 246.679 179.391 249.329 175.761C249.595 175.395 250.126 174.897 250.458 174.947C253.092 175.337 255.708 175.844 258.333 176.325Z" fill="#5762C7"/>
<path d="M249.005 135.184C247.086 137.153 242.053 138.233 239.536 137.211C237.293 136.297 236.62 131.172 239.062 129.013C241.313 127.028 244.378 125.939 247.178 124.635C247.643 124.419 248.756 125.001 249.229 125.524C251.314 127.825 251.131 132.992 249.005 135.184Z" fill="#5762C7"/>
<path d="M117.276 183.07C114.95 185.379 105.788 185.77 103.363 183.676C101.502 182.065 102.15 177.746 104.642 176.516C108.505 174.614 112.475 174.531 116.229 176.857C118.647 178.36 119.054 181.293 117.259 183.07L117.276 183.07Z" fill="#5762C7"/>
<path d="M192.855 212.665C196.07 210.464 197.972 210.572 200.032 213.23C203.005 217.084 202 221.329 197.639 223.48C196.809 223.895 196.036 224.419 195.181 224.759C194.093 225.199 192.365 226.146 191.958 225.773C191.102 224.967 190.396 223.364 190.571 222.226C191.077 218.995 192.066 215.847 192.855 212.665Z" fill="#5762C7"/>
<path d="M21.6295 102.076C25.4587 101.353 27.1615 102.225 27.9589 105.498C29.1135 110.224 26.4887 113.696 21.6295 113.904C20.7075 113.945 19.7772 114.112 18.8552 114.087C17.6757 114.053 15.7154 114.22 15.4995 113.705C15.0343 112.625 15.0509 110.864 15.6656 109.9C17.4348 107.151 19.6028 104.667 21.6295 102.076V102.076Z" fill="#5762C7"/>
<path d="M94.6659 149.712C96.892 151.855 97.2409 155.277 95.4218 157.163C93.4034 159.248 87.9628 159.256 85.8281 157.171C84.4492 155.826 84.2997 149.662 85.6038 148.258C86.775 147.004 92.8801 147.976 94.6742 149.704L94.6659 149.712Z" fill="#5762C7"/>
<path d="M62.3966 116.678C66.0597 112.766 68.9503 113.397 70.1713 117.077C72.1814 123.207 70.2544 126.695 64.8221 126.994C62.8286 127.111 61.4414 126.322 61.4996 124.453C61.5909 121.454 62.1807 118.472 62.4132 116.678L62.3966 116.678Z" fill="#5762C7"/>
<path d="M150.709 166.316C147.329 169.697 140.866 170.245 139.521 167.537C138.574 165.627 139.105 162.487 139.986 160.294C140.717 158.483 148.367 159.688 150.036 162.072C150.909 163.309 150.585 165.394 150.701 166.325L150.709 166.316Z" fill="#5762C7"/>
<path d="M156.607 87.5896C157.936 87.274 160.369 86.0197 161.125 86.6759C162.479 87.8804 163.351 90.1978 163.434 92.0916C163.493 93.5785 162.438 95.763 161.2 96.5023C159.198 97.7067 156.64 97.9891 154.314 98.6536C154.256 96.3694 153.949 94.0519 154.223 91.8175C154.381 90.5633 155.527 89.4336 156.607 87.5896Z" fill="#5762C7"/>
<path d="M182.563 172.554C184.474 174.415 183.975 175.644 182.231 177.04C179.606 179.133 175.212 180.105 173.692 177.97C172.197 175.86 172.073 172.745 171.582 170.029C171.549 169.863 173.842 168.75 174.722 169.049C177.413 169.963 179.964 171.35 182.563 172.554Z" fill="#5762C7"/>
<path d="M66.5992 190.288C64.6888 188.428 65.1872 187.198 66.9315 185.803C69.5563 183.71 73.9503 182.738 75.4703 184.873C76.9654 186.982 77.09 190.097 77.5801 192.813C77.6133 192.98 75.3208 194.093 74.4403 193.794C71.7491 192.88 69.1991 191.493 66.5992 190.288Z" fill="#5762C7"/>
<path d="M184.59 126.87C187.156 129.486 187.829 132.867 186.126 134.57C184.341 136.356 180.121 135.857 177.928 133.598C176.159 131.779 176.117 127.418 177.837 125.566C179.24 124.062 182.447 124.677 184.59 126.87Z" fill="#5762C7"/>
<path d="M118.788 64.9882C115.125 64.9467 112.259 63.0445 112.251 60.6274C112.251 58.1023 115.582 55.4692 118.738 55.5191C121.271 55.5606 124.386 58.609 124.478 61.1258C124.544 63.1858 121.836 65.0131 118.78 64.9799L118.788 64.9882Z" fill="#5762C7"/>
<path d="M164.032 217.333C164.115 217.25 164.182 217.151 164.273 217.093C166.159 216.071 167.579 212.624 170.212 215.224C172.571 217.549 171.857 222.367 169.373 224.302C169.099 224.51 168.792 224.801 168.485 224.809C166.2 224.9 162.737 225.889 161.864 224.801C159.713 222.118 161.923 219.476 164.032 217.333Z" fill="#5762C7"/>
<path d="M61.4328 73.851C61.5159 73.768 61.5823 73.6683 61.6737 73.6101C63.5592 72.5885 64.9796 69.1414 67.6127 71.7412C69.9716 74.067 69.2573 78.8846 66.7737 80.82C66.4996 81.0276 66.1923 81.3184 65.8849 81.3267C63.6007 81.418 60.137 82.4065 59.2649 81.3184C57.1135 78.6354 59.323 75.994 61.4328 73.851Z" fill="#5762C7"/>
<path d="M207.499 152.204C210.423 149.513 216.627 150.219 218.413 153.666C219.011 154.812 219.211 156.773 218.604 157.761C218.006 158.724 216.087 159.514 214.883 159.356C212.524 159.04 210.157 158.251 207.981 157.238C205.663 156.15 205.58 153.973 207.499 152.204Z" fill="#5762C7"/>
<path d="M150.933 116.886C152.021 119.386 152.262 121.172 150.069 121.919C147.278 122.883 144.313 123.506 141.381 123.797C140.625 123.871 139.055 122.235 138.98 121.28C138.798 119.087 138.466 115.814 141.298 115.524C144.429 115.2 147.719 116.363 150.942 116.878L150.933 116.886Z" fill="#5762C7"/>
<path d="M141.015 208.022C138.955 210.015 134.993 210.273 133.747 207.798C132.734 205.788 132.485 202.266 133.623 200.596C135.151 198.353 138.067 200.023 139.512 201.767C140.874 203.412 143.839 205.198 141.015 208.022Z" fill="#5762C7"/>
<path d="M96.4859 99.9825C94.5755 98.1551 94.2515 92.5152 96.3447 91.02C97.2335 90.3805 99.5177 90.5881 100.448 91.3191C102.89 93.2461 103.546 98.4375 101.993 100.19C100.506 101.876 98.3714 101.785 96.4859 99.9659L96.4859 99.9825Z" fill="#5762C7"/>
<path d="M218.521 192.365C216.594 194.325 212.532 195.114 211.477 193.478C209.941 191.094 211.452 188.868 212.972 187.231C214.451 185.637 216.478 183.759 218.928 185.828C220.722 187.339 220.398 190.454 218.521 192.365Z" fill="#5762C7"/>
<path d="M202.498 114.111C199.982 111.545 200.231 108.023 202.606 106.046C203.346 105.423 205.09 105.008 205.746 105.448C207.615 106.719 207.806 112.425 206.004 113.613C204.965 114.302 203.288 114.037 202.507 114.12L202.498 114.111Z" fill="#5762C7"/>
<path d="M113.489 220.93C115.349 217.857 118.83 217.234 121.346 219.053C122.127 219.618 122.958 221.212 122.7 221.952C121.936 224.078 116.446 225.665 114.851 224.203C113.929 223.364 113.779 221.669 113.497 220.938L113.489 220.93Z" fill="#5762C7"/>
</g>
<defs>
<clipPath id="clip0_4417_30327">
<rect width="225.269" height="174.946" fill="white" transform="translate(123.705) rotate(45)"/>
</clipPath>
</defs>
</svg>
