<svg width="61" height="83" viewBox="0 0 61 83" fill="none" xmlns="http://www.w3.org/2000/svg">
<path d="M47.4565 31.5094C47.2101 31.9314 47.4215 32.6437 46.6667 32.8455L46.6022 32.4376C46.0415 32.6916 45.52 32.5304 45.0568 32.3113C44.1471 32.3893 43.2789 32.5031 42.4081 32.5279C41.4953 32.5538 40.5799 32.4943 39.6415 32.4716L39.5818 31.9417C38.8632 32.8313 37.9102 32.9034 37.0063 32.8968L36.765 33.8101C36.8438 33.881 36.9224 33.9517 37.0468 34.0635C37.2716 33.893 37.5068 33.7145 37.8087 33.4854C38.2991 34.0811 38.9367 33.9857 39.63 33.8108L39.7056 33.1823C40.4139 33.605 41.2563 33.743 42.0624 33.5684C43.8473 33.2159 45.6622 33.4566 47.4525 33.7121C47.7509 33.7548 48.0224 33.9897 48.5739 34.2733L48.1683 33.0232L47.2476 33.2104C47.4981 32.6009 47.6819 32.1546 47.8652 31.7087L49.7139 32.1696L49.7917 32.6198C51.1838 32.7982 52.2283 33.7757 53.471 34.4509L53.7444 35.1673L53.2665 35.6986L53.7259 36.2751C53.8798 35.8754 53.9746 35.6292 54.0724 35.3754C54.1943 35.3691 54.3533 35.3606 54.5067 35.3524C55.1103 35.8582 54.6809 36.5035 54.7591 37.2129C55.024 37.0031 55.2338 36.8369 55.5255 36.6058C56.3342 37.0812 56.3767 38.0846 56.9044 38.7351C56.7183 38.9923 56.5707 39.1968 56.237 39.6582C56.7308 39.4719 57.0075 39.3674 57.1224 39.3241L58.1598 40.257C57.9364 40.3311 57.7834 40.3819 57.4529 40.4912L58.3301 40.9617C58.2482 40.8429 58.3074 40.8993 58.3315 40.968C58.741 42.1305 59.2103 43.2773 59.5369 44.4624C59.9921 46.0642 60.1837 47.7293 60.1042 49.3926C60.0258 50.7949 59.6731 52.1801 59.6692 53.5999C59.6687 53.8859 59.5261 54.1719 59.4442 54.4755C59.3953 54.478 59.2895 54.4835 59.0476 54.4956C59.1612 54.737 59.2124 55.0031 59.1965 55.2695C59.1806 55.5359 59.0981 55.794 58.9566 56.0202C58.0707 57.6219 58.061 57.6166 57.3543 57.921L56.7137 59.6254L55.8156 59.3778L55.708 60.01C54.6794 60.7996 53.7297 61.5286 52.7638 62.2701L52.0966 61.7913C51.4302 62.6296 50.4429 62.637 49.3169 62.6689L49.6468 63.6317L48.6538 63.9158L48.9302 63.2703C48.6603 63.1751 48.3484 62.949 48.0778 62.9906C47.1847 63.137 46.3001 63.332 45.4282 63.5749C45.2069 63.6344 45.0361 63.8825 44.9864 63.9236C44.2315 63.9195 43.5526 63.7397 43.0275 63.9468C41.5936 64.5127 40.2251 64.0575 38.8329 63.9032C38.4408 63.8405 38.0521 63.7579 37.6683 63.6556C37.7249 63.5175 37.798 63.3358 37.8772 63.1419C37.7999 63.1175 37.6713 63.0537 37.6536 63.0762C37.3779 63.4229 37.0916 63.7283 36.4352 63.4625L35.7464 62.8431L33.9955 63.1073L33.4524 62.2311C32.3299 62.7057 31.281 62.0981 30.1724 61.7309L30.091 61.2383L28.7342 61.2757L27.7987 60.4345C27.2147 60.672 26.6625 60.8101 26.3378 60.0638L24.4676 59.8074L25.6026 63.2038L26.0565 63.2546L26.6812 64.3183L26.4485 64.577C26.4912 64.6497 26.5452 64.7815 26.5692 64.7757C27.0302 64.673 27.2446 65.0447 27.4749 65.2941C27.7744 65.6181 27.9709 66.0351 28.246 66.3851C28.4986 66.7063 28.8976 66.9485 29.0511 67.3044C29.2621 67.7918 29.7753 67.6694 30.0963 67.9801C30.453 68.3257 30.5532 68.8819 31.1364 69.0869C31.5984 69.2492 31.9571 69.7249 32.3429 70.0816C33.5439 71.1936 34.9905 71.8984 36.4407 72.6062C37.3305 73.0406 38.1669 73.5945 39.0782 73.9719C40.5191 74.5913 41.9949 75.1261 43.498 75.5736C44.204 75.7735 44.8043 76.3873 45.6293 76.1762C45.883 76.1111 46.1277 76.6357 46.4386 76.1859C46.4901 76.1113 46.8753 76.2998 47.109 76.3104C47.4255 76.3244 47.7447 76.2635 48.0618 76.2721C48.6589 76.2883 49.2549 76.3312 49.9973 76.3706L49.1621 77.2994C48.4724 77.1455 48.4724 77.1455 47.1518 77.7497L47.7387 78.2775C48.6108 77.8209 49.6347 78.1153 50.6071 77.8963L50.6212 78.5215L49.4586 78.9903C49.599 79.1026 49.746 79.3164 49.8779 79.3075C50.2526 79.2824 50.6212 79.1663 51.2384 79.0327C51.0303 79.4574 50.9145 79.6939 50.7729 79.9826L51.0831 81.233L49.7211 80.7263C49.6021 80.9802 49.4643 81.275 49.2956 81.6352L47.8441 81.4806L48.143 82.3557L47.0444 82.3878L46.7328 81.4711C46.4995 81.9134 46.3784 82.1432 46.2658 82.3563L45.6797 82.2775C45.6976 82.2467 45.7723 82.1187 45.9081 81.886L44.0551 81.6225C44.0558 81.8139 44.0565 81.9637 44.0563 81.9064L42.7628 82.1871L42.6641 81.5143C42.3336 81.6232 42.0029 81.7318 41.6645 81.8429L41.019 81.2624C40.0288 81.1138 39.1216 81.0468 38.2532 80.8258C37.4779 80.6288 36.9656 79.7859 35.9774 79.8291L35.9556 78.8802L35.1984 78.2895L35.6056 79.2493C34.4989 78.9399 33.1963 79.1787 32.6945 77.7595L31.9128 77.801L31.8408 77.279C31.0744 77.1951 30.4866 76.7929 30.3141 75.8937L29.1981 75.8848L28.7095 75.0634C28.6261 75.0456 28.3836 75.0636 28.2723 74.952C28.15 74.8282 28.1938 74.5513 28.0835 74.4013C27.9085 74.2024 27.714 74.0215 27.5028 73.8614C27.3314 73.7366 27.1758 73.5915 27.0395 73.4291C26.9341 73.2703 26.9117 73.0559 26.8233 72.7709C25.5191 72.9267 25.7589 71.447 24.6443 70.9243L26.0939 70.6035C26.0592 70.2139 25.3515 70.0568 24.4361 70.2559L24.6952 69.8057C24.6439 69.1212 23.925 69.325 23.5464 69.0321L23.4714 68.112L22.9774 68.1067C23.0605 67.9403 23.1264 67.8082 23.2392 67.5819C22.6632 66.6515 22.0381 65.6562 21.4651 64.6329C21.355 64.4613 21.2904 64.2645 21.2772 64.0611C21.2641 63.8576 21.3029 63.6542 21.3899 63.4698C21.0689 63.1701 20.5985 62.9436 20.5156 62.6182C20.0566 60.8144 19.6977 58.9851 19.2886 57.1682C19.224 56.8845 19.0677 56.6217 18.9745 56.3425C18.8632 56.0092 18.7744 55.6685 18.6634 55.2892C18.5569 55.3514 18.3994 55.443 18.1337 55.598C17.5944 54.9842 16.7199 54.6483 16.4989 53.6864L15.3243 53.3832C15.0677 52.2659 13.5713 52.055 13.3117 50.958L12.339 50.4842C12.4432 50.2395 12.5201 50.0591 12.6021 49.8668C11.9175 49.725 11.6334 49.2466 11.2965 48.6569C10.9784 48.1002 10.4183 47.6841 10.4131 46.9548C10.3136 46.9521 10.2146 46.9498 10.0078 46.9457L9.90006 46.4165L9.39556 46.2751C8.9907 45.6854 8.54102 45.1127 8.1823 44.4883C7.44853 43.2115 6.37931 42.1336 5.99671 40.6403C5.86799 40.1375 5.49094 39.687 5.18371 39.2426C3.38265 36.6379 2.47286 33.6709 1.65658 30.6619C1.18732 28.9702 0.941893 27.2243 0.92658 25.4687C0.924004 24.8918 0.964777 24.2722 0.771615 23.7502C0.561874 23.1821 0.88233 22.7026 0.782347 22.1547C0.512408 20.6736 0.898439 19.1934 0.999621 17.7154C1.12274 16.2742 1.34471 14.8432 1.66398 13.4324C1.97554 11.9412 2.24303 10.4051 2.83527 9.01897C3.39372 7.7123 3.70029 6.2793 4.5638 5.10076C4.66904 4.95738 4.57384 4.65859 4.68529 4.52937C5.31921 3.79432 5.51697 2.82251 6.05917 2.05146C6.45305 1.49152 6.96821 1.01673 7.5084 0.416008L8.74835 0.440021L9.61009 1.83171C9.50469 2.01916 9.4323 2.14808 9.35449 2.28679L9.81938 2.70483C9.78362 3.18614 9.81342 3.64699 9.70025 4.06838C9.59985 4.50362 9.40204 4.91042 9.1217 5.25817C8.07777 6.41908 7.89403 7.95306 7.32473 9.31044C6.91144 10.2969 6.63355 11.3483 6.22311 12.3504C6.00238 12.8894 5.98794 13.515 5.90219 14.1064C5.70882 15.4386 5.37101 16.7463 5.26796 18.0952C5.21101 18.8397 4.97907 19.5748 4.96027 20.3174C4.91985 21.9311 4.89698 23.5509 4.99048 25.1609C5.18769 28.5555 6.25019 31.7433 7.53862 34.8549C7.81737 35.5281 8.31681 36.1159 8.75073 36.7182C9.32954 37.5216 9.55013 38.5269 10.2315 39.2712C11.2154 40.3459 11.7614 41.7498 12.8691 42.7425C13.2701 43.1031 13.5307 43.6172 13.8739 44.0463C14.2171 44.4754 14.8139 44.6691 14.9033 45.3622C14.9337 45.5985 15.4274 45.811 15.742 45.9678C16.6521 46.4196 17.1687 46.9137 17.6236 47.8511L18.297 47.9394C18.327 48.1319 18.3664 48.3248 18.3848 48.5191C18.3998 48.6748 18.3899 48.8328 18.3906 48.9304L19.6208 48.8218C19.8016 48.2092 19.9967 47.4534 20.2498 46.7174C20.5047 45.9766 20.8548 45.2668 21.0955 44.5226C21.3337 43.7487 21.6774 43.0113 22.1169 42.3312L22.0891 41.8065C22.4866 41.3644 22.9291 40.9112 23.3241 40.4197C23.6037 40.0722 24.0799 39.8497 24.0116 39.2487C23.9912 39.0708 24.2882 38.7437 24.502 38.6728C25.4663 38.3531 25.884 37.4566 26.5622 36.8381C27.1633 36.2901 27.7896 35.772 28.7512 35.8356C29.1602 35.2713 29.7246 34.8381 30.3755 34.589C30.8302 34.4245 31.2181 33.9352 31.6582 33.9041C32.2283 33.8638 32.4362 33.408 32.8255 33.245C33.65 32.8991 34.4362 32.1981 35.5075 32.8104L35.571 32.0434L36.7292 32.1699C36.9024 32.082 37.3347 31.8632 38.0061 31.5233C38.8472 31.4095 39.9957 31.0393 41.0853 31.1681C42.1569 31.2947 43.1643 31.0388 44.1937 31.0952C45.2854 31.154 46.3697 31.365 47.4565 31.5094ZM54.4076 44.1061C54.4824 43.5051 54.5401 43.042 54.5952 42.5929L53.6431 42.7786C53.7536 42.3965 53.8198 42.1671 53.8959 41.9036C53.6497 42.0078 53.431 42.1006 53.226 42.1872L52.9267 41.918C53.0799 41.6723 53.2372 41.4221 53.4229 41.125L52.4143 40.2181C52.6748 39.1923 52.4426 38.5404 51.9124 38.6671C51.9042 38.825 51.9406 39.0025 51.8752 39.1264C51.8151 39.2404 51.6456 39.2969 51.3924 39.4677C51.3071 38.9785 51.2888 38.5736 51.153 38.2133C51.076 38.0087 50.8062 37.877 50.5471 37.644L50.4752 38.3762C49.4427 38.5324 49.4412 38.5334 49.1595 37.728C48.849 37.6415 48.5262 37.4396 48.2958 37.5153C48.0092 37.6102 47.7989 37.9097 47.5714 37.5123C47.6227 37.2295 47.6702 36.971 47.7419 36.5784C46.8833 36.7417 46.197 36.8722 45.5109 37.0022L45.4447 36.4463L44.4016 36.7534L43.2304 36.3955L43.2013 36.8754L41.4079 36.022L41.4098 36.4298C40.7252 36.7712 40.0653 37.1001 39.2686 37.4974C40.4785 38.0119 41.4224 37.2061 42.4446 37.3258C43.4668 37.4455 44.5039 37.4125 45.644 37.4505L45.1665 37.9815C44.391 37.9817 43.7594 38.0849 43.181 37.954C42.573 37.8162 42.0256 38.2061 41.4705 38.0297C40.8461 37.831 40.3573 38.2312 39.7985 38.2932C38.8716 38.3957 37.9934 39.0613 37.0493 38.5331C36.3697 39.124 35.6555 39.5583 34.7283 39.6057L33.9103 40.5154L33.3297 40.283C33.2797 40.7795 33.194 41.2091 32.5819 41.2525C32.1771 41.2847 31.7843 41.4061 31.4319 41.6078C31.0794 41.8096 30.7759 42.0867 30.543 42.4195C30.1561 42.9313 29.5825 43.1507 29.1142 43.5273C28.7622 43.81 28.5591 44.2916 28.0018 44.2838C27.9575 44.283 27.9111 44.4477 27.8659 44.5354L28.1452 45.0489C27.946 45.0881 27.7528 45.1536 27.5709 45.2438C27.4005 45.371 27.2559 45.5296 27.1449 45.711C27.0293 45.8861 26.9917 46.1179 26.8614 46.2771C26.7487 46.4152 26.4613 46.4541 26.4113 46.5942C26.1252 47.4024 25.6705 48.1035 25.2328 48.8345C24.7081 49.7336 24.4265 50.7539 24.4157 51.7949C25.4154 52.4632 26.4644 52.5743 27.3875 53.1246C28.3678 53.7088 29.6285 53.8013 30.7308 54.2067C32.8191 54.9747 35.1221 54.8949 37.1562 55.8697C37.3101 55.9433 37.5566 55.8257 37.7591 55.7955C37.9252 55.7473 38.0974 55.7239 38.2703 55.726C40.4112 56.0637 42.5856 56.1352 44.7441 55.939C45.9154 55.8479 47.027 55.5448 48.1441 55.2152C48.7634 55.0326 49.326 54.6239 49.9376 54.5591C51.0288 54.4435 51.7567 53.7228 52.5142 53.1336C53.3381 52.4934 54.0238 51.6391 54.6486 50.7891C55.2777 49.8956 55.6562 48.85 55.745 47.7608C55.7783 47.4383 55.5109 47.0929 55.5051 46.7554C55.4993 46.4179 55.6457 46.0797 55.7371 45.6946L55.2192 45.6702L55.1466 44.7688L54.4076 44.1061Z" fill="#BB6BD9"/>
</svg>
