<svg width="135" height="101" viewBox="0 0 135 101" fill="none" xmlns="http://www.w3.org/2000/svg">
<path d="M79.9675 20.0547L79.576 20.4464C78.8379 20.3642 78.0765 20.2463 77.3114 20.2032C76.5535 20.1607 75.7912 20.1939 75.0308 20.1939C74.4306 20.1939 73.7742 20.0409 73.245 20.2349C72.6568 20.4504 72.0142 20.2268 71.5507 20.4761C71.0127 20.7656 70.3649 20.436 69.9264 20.9144C69.0172 20.8253 68.2621 21.3863 67.4229 21.5183C66.4783 21.6666 65.631 22.0347 64.7642 22.365C63.7627 22.7466 62.7286 23.0359 61.7682 23.5409C61.0839 23.9004 60.3462 24.1738 59.6362 24.4778C58.3734 25.0183 57.2878 25.801 56.1835 26.5673C55.5796 26.9866 55.0543 27.5192 54.4922 27.999C53.9606 28.4531 53.3668 28.851 52.9049 29.3673C51.2721 31.1933 49.5392 32.9503 48.4799 35.2128C47.7517 35.867 47.4581 36.803 47.0924 37.6403C46.7267 38.4775 46.1825 39.2736 46.0876 40.2245C45.2861 41.5438 44.9687 43.0534 44.5299 44.4972C44.1845 45.6344 43.672 46.7595 43.6861 47.9938C43.2499 48.3538 43.4989 48.9208 43.262 49.3833C42.9924 49.8978 42.885 50.4818 42.9538 51.0586C43.0337 51.633 42.6215 52.149 42.7074 52.7607C42.7698 53.2981 42.7057 53.8427 42.52 54.3508C42.3466 54.8739 42.5415 55.4934 42.2666 56.0513C42.1995 56.1855 42.4456 56.4496 42.4709 56.6631C42.4877 56.8111 42.2793 57.0442 42.3349 57.1199C42.6594 57.5643 42.3852 58.0499 42.4858 58.419L42.024 59.2822L42.5462 59.5612C42.5462 61.1447 42.5442 62.6142 42.5533 64.0829C42.5533 64.1397 42.6593 64.1961 42.7172 64.2538L42.4848 64.5096C42.6826 65.2759 42.9827 66.0133 42.9797 66.8318C42.999 67.2864 43.0768 67.7367 43.2113 68.1714C43.4502 69.0773 43.6425 70.0011 43.8119 70.9148C44.003 71.9461 44.547 72.7847 44.9725 73.6827C45.3929 74.5691 45.972 75.3483 46.8775 75.8905C48.1269 76.6386 49.3493 77.4384 50.6687 78.0514C51.2992 78.3443 51.9915 78.5615 52.6209 78.8398C53.2804 79.131 53.9834 79.2575 54.6428 79.4513C55.2737 79.6094 55.918 79.7076 56.5673 79.7447C57.1014 79.7925 57.6226 79.7547 58.1587 79.9643C58.6381 80.1515 59.2509 79.8265 59.7314 80.2295C59.7548 80.2491 59.8092 80.2322 59.8488 80.232C61.8204 80.2182 63.7909 80.7475 65.7464 80.4363C67.0689 80.226 68.4616 80.2109 69.6952 79.5575C71.6049 79.3176 73.257 78.2712 75.1026 77.8296C75.6081 77.3504 76.3233 77.297 76.8976 76.9406C77.4597 76.5915 78.1112 76.3903 78.6952 76.072C80.7585 74.948 82.8324 73.8409 84.8031 72.5531C85.1869 72.3014 85.4595 71.9386 85.8935 71.7187C86.4321 71.4461 86.8881 70.9838 87.3291 70.5516C87.7414 70.1477 88.1777 69.7748 88.4641 69.2284C88.7461 68.6905 89.284 68.3207 89.6618 67.8118C90.5432 66.6246 91.4755 65.4633 92.0591 64.1114C92.422 63.271 92.7691 62.4023 93.0782 61.5294C93.3768 60.6868 93.4798 59.7975 93.8344 58.9641C94.1089 58.3196 94.0418 57.5275 94.1137 56.8002C94.2013 55.9136 94.3078 55.0272 94.3467 54.1381C94.3997 53.2189 94.3975 52.2973 94.3402 51.3783C94.2733 50.4685 94.1378 49.565 93.9347 48.6755C93.7974 48.1633 93.7033 47.6404 93.6536 47.1124C93.6071 46.2955 93.2715 45.5901 92.9677 44.8689C92.3638 43.4347 91.4863 42.1849 90.5521 40.9334C89.5206 39.5513 88.0392 38.707 86.9386 37.4316C86.4793 36.8991 85.8203 36.5118 85.196 36.1575C84.7211 35.8881 84.146 35.8331 83.6325 35.5872C83.0033 35.2852 82.2916 35.1574 81.6167 34.9497C81.5471 34.9284 81.4885 34.8539 81.4206 34.8471C80.574 34.761 79.7272 34.6751 78.8789 34.6072C78.5602 34.5727 78.2386 34.5751 77.9205 34.6144C77.6581 34.655 77.426 34.2227 77.1656 34.5835C76.7439 34.2593 76.3562 34.7417 75.9098 34.6266C75.5185 34.526 75.103 34.6585 74.6817 34.8061C74.2 34.9752 73.6167 34.7885 73.1091 35.0755C72.7751 35.2391 72.4309 35.3811 72.0788 35.5006L71.6914 35.1131C71.6421 35.15 71.5462 35.1906 71.5485 35.2243C71.5755 35.3961 71.5434 35.5719 71.4576 35.7231C71.3717 35.8743 71.2371 35.9919 71.0758 36.0567C70.4118 36.4013 69.7885 36.824 69.1101 37.2372L68.5416 36.9126C68.495 37.0979 68.4418 37.3088 68.402 37.4661L68.689 37.6049C68.107 38.1769 67.5297 38.7254 66.9735 39.2944C65.6647 40.636 64.5501 42.1541 63.6621 43.8046C63.2028 44.6539 62.7096 45.4893 62.3145 46.3681C61.8065 47.4378 61.353 48.5326 60.9558 49.6481C60.686 50.458 60.3898 51.2559 60.137 52.0733C59.9798 52.5813 60.0712 53.0991 59.825 53.623C59.5304 54.2494 59.7054 55.0792 59.5104 55.7742C59.283 56.5853 59.3199 57.389 59.2833 58.2021C59.2721 58.4522 59.134 58.6964 59.0508 58.9537L59.2815 59.2127L59.1444 59.3674C59.2158 59.6828 59.2632 60.0032 59.2862 60.3258C59.2862 61.2526 59.5284 62.1281 59.7713 63.0098C60.1533 64.3952 61.1118 65.3029 62.3682 65.7968C63.8419 66.376 65.3996 66.6483 66.9949 66.8442C68.2955 67.0039 69.5783 66.9219 70.8507 67.0401C71.4479 66.6162 72.1561 66.4646 72.7677 66.0962C72.9729 65.9727 73.2374 65.9031 73.4498 65.7245C74.3358 64.9771 75.3048 64.3394 76.1642 63.5461C76.5488 63.1909 76.9977 62.8621 77.3896 62.4913C78.6222 61.3249 79.392 59.8702 79.9434 58.2893C80.1267 57.7634 80.164 57.156 80.4544 56.7062C80.791 56.1849 80.4413 55.529 80.9073 55.0868C80.9873 54.1195 81.1576 53.1484 81.1168 52.1862C81.088 51.5048 80.8422 50.8286 80.9031 50.1229C80.9167 49.9674 80.0883 48.0686 79.904 47.9019C79.5042 47.5402 79.0709 47.2159 78.6514 46.8764C78.236 47.1017 77.9037 46.5409 77.4001 46.8142C76.9294 47.0369 76.395 47.0856 75.8917 46.9516C75.3682 46.8055 75.725 47.2247 75.549 47.3082C74.1262 47.9837 73.2173 49.3178 71.9367 50.1816C71.8741 50.2237 71.8322 50.2967 71.8964 50.2237C71.7485 50.7377 71.7421 51.1782 71.523 51.4417C70.8814 52.2144 70.7383 53.2103 70.2468 54.0439C70.1577 54.2523 70.109 54.4757 70.1032 54.7023C70.0379 55.1921 70.2563 55.7185 69.8718 56.173C69.7928 56.2662 69.8294 56.4908 69.8661 56.6426C69.9701 57.0696 70.102 57.4898 70.2448 57.9893C71.8109 56.9233 72.3857 55.1532 73.5184 53.8384H74.3937L73.81 55.1279C74.1765 54.9715 74.3546 54.9385 74.4732 54.8363C74.7452 54.6015 74.9879 54.3331 75.2568 54.0647C75.6126 54.3027 75.8035 54.703 76.1368 54.9814C76.4475 55.2413 76.5481 55.7531 76.8395 56.3561C76.8514 57.2519 76.0961 58.1442 75.8666 59.2003C75.4334 59.4855 74.9439 59.6551 74.8696 60.3385C74.8252 60.7433 74.4214 61.1087 74.2389 61.3972C73.7247 61.6267 73.3084 61.4202 72.8778 61.6778C72.2747 62.039 71.6295 61.395 70.9679 61.5002C70.0342 60.8819 68.9224 60.6447 67.9694 60.024C67.2524 59.5575 66.8057 58.9209 66.3239 58.2943C65.9901 57.8603 65.8314 57.2962 65.5355 56.8273C65.2435 56.3642 65.2431 55.8145 65.1121 55.3277C64.9251 54.546 64.9177 53.7321 65.0903 52.9471C65.3149 51.8618 65.5129 50.7561 66.0101 49.732C66.618 48.4627 67.4241 47.2981 68.398 46.2821C69.3163 45.3303 70.2404 44.3939 71.4086 43.7106C72.1655 43.2679 73.011 43.1284 73.7845 42.7712C74.1471 42.6035 74.4815 43.0257 74.9206 42.7987C75.2365 42.6355 75.7077 42.7358 76.1039 42.7756C76.5149 42.817 77.0663 42.7894 77.296 43.0351C77.8086 43.5842 78.7017 43.2715 79.0946 43.9544C79.8597 43.9555 80.3314 44.522 80.8404 44.9426C82.1404 46.0162 83.4977 47.0633 84.1145 48.7351C84.2042 48.9783 84.2849 49.2247 84.3688 49.4668L84.6875 49.5376C84.8653 50.2032 85.0381 50.8509 85.2154 51.5152C85.1854 51.5536 85.1381 51.6142 85.0512 51.7249L85.5657 52.5408L84.7836 52.6653C84.7763 52.7856 84.7697 52.8939 84.7602 53.0486H85.297L85.433 53.1732C85.1005 53.4777 85.6388 53.755 85.4692 54.0356C85.0723 54.6922 85.3159 55.4132 85.2243 56.099C85.1583 56.6208 85.0418 57.1349 84.8764 57.6342C84.7699 57.9477 84.5241 58.2138 84.342 58.4983C84.8365 59.2278 83.9109 59.944 84.2245 60.7314L83.9046 60.7985L83.0671 62.6209V63.4249C82.8003 64.0678 82.4959 64.5459 81.8797 64.7208V65.2507C81.2196 65.8984 80.584 66.6322 79.8285 67.2087C79.5285 67.4375 79.235 67.6865 78.9317 67.9173C78.6601 68.1238 78.3409 68.2798 78.1054 68.5197C77.3188 69.3202 76.3215 69.7971 75.3474 70.2795C73.9826 70.9556 72.0325 71.2562 70.5303 71.0925C69.9829 71.0329 69.4526 70.8169 68.8509 70.6551C68.7199 70.7055 68.4839 70.8954 68.3106 70.8492C66.4036 70.343 64.4414 70.1069 62.5891 69.3044C61.2086 68.7062 59.8704 68.0488 58.6777 67.1834C57.7846 66.5305 57.0221 65.7156 56.4299 64.7812C55.7268 63.6757 55.0156 62.5872 54.6573 61.3101C54.6281 61.2058 54.5142 61.1211 54.4974 61.0179C54.3796 60.4572 54.3011 59.8889 54.2625 59.3172C54.2305 57.7572 54.18 56.1916 54.2793 54.637C54.3364 53.7419 54.5309 52.8381 54.6831 51.9445C54.829 51.0837 55.0312 50.241 55.1941 49.387C55.3786 48.4246 55.7476 47.5316 56.064 46.6208C56.3178 45.8895 56.545 45.116 56.9237 44.4618C57.578 43.3324 58.0094 42.1026 58.7163 40.9867C59.3939 39.9173 60.0261 38.808 60.7404 37.7552C61.0843 37.2043 61.4773 36.6856 61.9146 36.2055C63.0226 35.0816 64.0514 33.864 65.3741 32.9751C66.5184 32.2063 67.6369 31.4357 68.9798 30.9531C70.3162 30.4725 71.6336 30.1175 73.0405 30.0305C73.2921 30.015 73.535 29.8795 73.7943 29.7956L74.0547 30.0224L74.2236 29.8818C74.4613 29.9101 74.6947 29.9664 74.9191 30.0496C75.2095 30.1954 75.3623 29.7124 75.7243 29.9679C75.9674 30.1395 76.4121 30.0162 76.7662 30.0424C77.0665 30.0647 77.4136 29.9124 77.6385 30.2524C77.9829 29.7439 78.2956 30.35 78.6282 30.2806C79.0676 30.1891 79.4492 30.394 79.851 30.5141C80.2098 30.6213 80.5834 30.6798 80.9502 30.76C81.3171 30.8402 81.7256 30.8439 82.0441 31.0135C83.3875 31.7321 84.9965 31.9544 86.0681 33.1504C86.8815 33.127 87.3856 33.7208 87.962 34.113C90.0253 35.5182 91.756 37.3103 93.4437 39.1237C95.0966 40.8993 96.4773 42.9053 97.3355 45.1863C97.7905 46.3963 98.3053 47.5998 98.4751 48.9272C98.5839 49.7793 98.8322 50.6323 98.903 51.4956C98.9748 52.3701 98.9188 53.2551 98.9188 54.1355C98.9188 54.7758 98.9246 55.4161 98.9173 56.0564C98.9097 56.7067 98.9616 57.3376 98.5516 57.9519C98.3155 58.3059 98.3734 58.8558 98.2989 59.3174C98.7591 59.5707 97.8905 60.0208 98.4137 60.2501L97.3896 62.24C97.3016 62.1449 97.2037 62.0595 97.0977 61.9851C97.039 61.9529 96.9443 61.9851 96.8237 61.9914C96.7425 62.2868 97.0866 62.3149 97.198 62.6018V63.5793L96.7786 63.9987L96.9641 64.2389C96.4572 64.7488 96.3938 65.4918 96.0397 66.0928C95.6386 66.7742 95.2811 67.4852 94.72 67.977L93.7108 67.7086L93.6524 67.8817L94.1703 68.1072L93.5744 68.5152L93.6603 68.6774L94.3006 68.5343C94.3186 68.678 94.3441 68.8808 94.3709 69.0939L93.8569 69.2818C93.9072 69.5181 93.9584 69.7639 94.0349 70.1272L92.9549 70.7452L92.3574 72.0904L92.4654 72.1543C91.5921 73.0276 90.7792 73.9741 89.8302 74.7544C88.6784 75.6843 87.4742 76.5473 86.2234 77.3391C84.4632 78.4763 82.6604 79.5482 80.86 80.6212C80.6466 80.7483 80.3329 80.7076 80.0117 80.752C79.6121 81.4787 78.7368 81.5768 78.0586 81.9749C77.4256 82.3465 76.7112 82.5788 76.0024 82.8865L75.7652 82.4092C75.3697 83.3728 74.3624 83.387 73.5686 83.775L73.0967 83.511C73.0343 83.715 72.9927 83.8512 72.9509 83.9874C72.9224 84.0154 72.8838 84.0735 72.867 84.0678C72.3737 83.9055 71.9563 84.2187 71.5317 84.3373C69.4984 84.903 67.4247 84.7208 65.3622 84.8144C63.7773 84.8862 62.228 84.6002 60.6604 84.5192C60.0496 84.502 59.4425 84.4184 58.8498 84.2699C58.2662 84.1043 57.6857 84.1954 57.142 84.051C56.4532 83.868 55.7639 83.7057 55.0694 83.5477C54.3096 83.3713 53.5613 83.1481 52.829 82.8796C52.0974 82.6139 51.3417 82.4144 50.6105 82.1477C49.8792 81.881 49.1801 81.5398 48.4488 81.2811C46.3144 80.5262 44.5188 79.1626 42.5835 78.0501C41.7019 77.0382 40.648 76.202 39.8095 75.1295C39.1673 74.2825 38.5728 73.4004 38.0289 72.4871C37.4322 71.5191 37.0408 70.4194 36.7219 69.3128C36.3864 68.1511 36.0776 66.9858 35.9921 65.7703C35.9687 65.4393 35.8302 65.1177 35.7634 64.7881C35.6966 64.4585 35.9094 64.0668 35.5437 63.7937C35.5026 63.763 35.525 63.645 35.5205 63.5675C35.4402 62.2 35.3283 60.8332 35.289 59.4649C35.2489 58.0653 35.2746 56.6634 35.289 55.2632C35.2904 55.1344 35.4244 55.0068 35.4967 54.8788L35.2578 54.6104C35.3447 54.4079 35.5274 54.1925 35.5041 54.0023C35.3586 52.8136 35.8092 51.6754 35.7666 50.498C35.7559 50.2 35.6354 49.8494 35.9822 49.6299C35.6087 49.3695 36.04 49.1352 36.0157 48.875C35.9885 48.5824 35.9588 48.2924 36.1575 47.9763C36.4129 47.5699 36.0796 46.9698 36.48 46.5542C36.4854 45.2835 37.0786 44.1572 37.3503 42.9543C37.5758 42.053 37.8865 41.1753 38.2783 40.333C38.5851 39.6273 38.7557 38.8596 39.031 38.1256C39.7028 36.4013 40.4627 34.7127 41.3077 33.0664C41.8542 31.9671 42.6752 31.0091 43.2269 29.8976C43.9515 29.5539 44.0952 28.729 44.6193 28.1931C45.1549 27.6452 45.6357 27.0163 46.1845 26.4614C46.7475 25.8924 47.2956 25.3066 47.8864 24.768C48.8518 23.888 49.9524 23.166 50.9403 22.3247C51.9385 21.4744 53.0925 20.9082 54.1746 20.2278C55.1954 19.5868 56.3686 19.1438 57.5275 18.7826C58.3432 18.5282 59.1043 18.1351 59.952 17.9535C61.0043 17.728 62.0247 17.3581 63.0662 17.0776C63.5024 16.9602 64.0695 17.0488 64.3797 16.7988C64.8444 16.4248 65.3921 16.8061 65.8113 16.4499C66.177 16.1394 66.7712 16.6026 67.1122 16.1131C67.1253 16.0943 67.1899 16.1047 67.2286 16.1116C68.2175 16.2887 69.1482 15.8175 70.1307 15.8613C71.0892 15.9039 72.0788 15.7271 73.0054 15.9034C74.5016 16.1886 76.06 16.2053 77.4533 17.0441C78.5026 17.6755 79.3912 18.3681 79.8612 19.5142C79.9152 19.6902 79.9508 19.8714 79.9675 20.0547Z" fill="#F9B500"/>
</svg>
