<svg xmlns="http://www.w3.org/2000/svg" width="427.09" height="284.904" viewBox="0 0 427.09 284.904">
  <g id="crl-ovl-blue" transform="translate(-18.261 -49.491)">
    <path id="Tracé_1" data-name="Tracé 1" d="M146.725,56.212c38.289-5.672,96.739-5.9,150.4,4.048,26.824,4.975,52.391,12.483,73.619,23.089s38.025,24.266,47.46,41.477c24.382,44.606,21.383,80.921,2.046,109.762-19.436,28.987-55.557,50.7-97.961,65.51-42.363,14.8-90.778,22.639-134.516,24.039-43.788,1.4-82.674-3.656-106.078-14.477-31.78-14.694-52.971-53.719-52.971-88.984,0-50.564,8.455-88.461,27.337-115.293C74.9,78.614,104.288,62.617,146.725,56.212Z" fill="none" stroke="#5762c7" stroke-linejoin="round" stroke-width="3"/>
    <path id="Tracé_2" data-name="Tracé 2" d="M146.725,56.212c38.289-5.672,96.739-5.9,150.4,4.048,26.824,4.975,52.391,12.483,73.619,23.089s38.025,24.266,47.46,41.477c24.382,44.606,21.383,80.921,2.046,109.762-19.436,28.987-55.557,50.7-97.961,65.51-42.363,14.8-90.778,22.639-134.516,24.039-43.788,1.4-82.674-3.656-106.078-14.477-31.78-14.694-52.971-53.719-52.971-88.984,0-50.564,8.455-88.461,27.337-115.293C74.9,78.614,104.288,62.617,146.725,56.212Z" fill="none" stroke="#5762c7" stroke-linejoin="round" stroke-width="3"/>
    <path id="Tracé_3" data-name="Tracé 3" d="M155.51,58.376c40.1-2.443,100.578,1.964,155.269,15.813,27.343,6.924,53.2,16.2,74.325,28.133s37.448,26.491,45.838,43.929c10.808,22.538,14.674,42.526,13.053,60.156S435.267,239.37,424,252.613c-22.564,26.526-61.808,44.635-106.894,55.572-45.054,10.93-95.786,14.659-141.147,12.548-45.394-2.113-85.27-10.069-108.683-22.411-31.848-16.788-50.589-56.253-47.691-90.346,4.144-48.757,15.995-84.715,37.8-109.189C79.164,74.34,111.015,61.2,155.51,58.376Z" fill="none" stroke="#5762c7" stroke-linejoin="round" stroke-width="2"/>
    <path id="Tracé_4" data-name="Tracé 4" d="M135.675,65.192c37.6-9.517,95.767-15.655,150.078-11.173,27.151,2.241,53.278,7.131,75.366,15.543s40.039,20.312,50.982,36.491c28.289,41.935,28.578,78.384,11.929,109.046-16.735,30.821-50.734,56.083-91.611,75.115-40.836,19.014-88.324,31.712-131.737,37.527-43.462,5.822-82.628,4.718-106.9-3.689-32.961-11.415-57.57-48.119-60.748-83.219-4.558-50.332.443-88.909,16.82-117.527C66.192,94.754,94.007,75.858,135.675,65.192Zm0,0h0l-.332-1.462m.334,1.462h0l-.336-1.461m0,0c75.528-19.116,233.316-24.606,278,41.452C527.521,274.44,191.66,359.554,93.269,325.479,59.68,313.846,34.769,276.585,31.546,241,22.408,140.084,51.469,85.2,135.341,63.73Z" fill="none" stroke="#5762c7" stroke-linejoin="round" stroke-width="3"/>
  </g>
</svg>
