<svg xmlns="http://www.w3.org/2000/svg" width="449.883" height="287.204" viewBox="0 0 449.883 287.204">
  <g id="crl-ovl-yellow" transform="translate(-9.166 -30.454)">
    <path id="Tracé_1" data-name="Tracé 1" d="M258.709,314.83c-38.205,3.069-91.078-5.995-136.85-24.874-22.875-9.435-43.912-21.295-60.429-35.26s-28.446-29.978-33.255-47.7c-14.657-54.028-6.93-92.336,13.982-118.85C63.121,61.561,97.57,46.527,136.978,39.611c39.382-6.911,83.512-5.674,123.548.1s75.876,16.075,98.664,27.2c15.592,7.615,36.478,20.319,53.541,35.737,17.128,15.477,30.083,33.4,30.473,51.435.9,41.519-23.824,79.918-59.632,108.9S301.136,311.315,258.709,314.83Z" fill="none" stroke="#c2cc00" stroke-linejoin="round" stroke-width="3"/>
    <path id="Tracé_2" data-name="Tracé 2" d="M251.154,316.63c-40.675.674-95.95-11.711-143-33.448-23.517-10.866-44.935-24.049-61.429-39.068s-28.014-31.829-31.849-49.939c-11.631-54.919-.736-92.826,23.38-118.126C62.428,50.7,100.045,37.815,142.225,33.373c42.159-4.441,88.731-.435,130.633,7.843S351.924,62.032,375.26,74.6c15.954,8.594,37.144,22.609,54.1,39.108,17.007,16.546,29.528,35.366,28.641,53.582-2.029,41.677-31,78.572-70.969,105.312C347.085,299.331,296.339,315.776,251.154,316.63Z" fill="none" stroke="#c2cc00" stroke-linejoin="round" stroke-width="2"/>
    <path id="Tracé_3" data-name="Tracé 3" d="M271.185,312.172c-37.788,6.244-91.273,1.625-138.558-13.365C109,291.316,86.978,281.255,69.276,268.72s-31.016-27.493-37.39-44.753c-19.425-52.6-15.146-91.415,3.321-119.575C53.72,76.162,86.7,58.309,125.341,48.132c38.618-10.171,82.693-12.62,123.1-10.207S325.463,47.611,349.159,56.8c16.214,6.285,38.157,17.2,56.532,31.137,18.445,13.99,32.953,30.765,34.951,48.7,4.6,41.291-16.6,81.609-49.689,113.47S313.139,305.131,271.185,312.172Z" fill="none" stroke="#c2cc00" stroke-linejoin="round" stroke-width="3"/>
  </g>
</svg>
