<svg width="108" height="11" viewBox="0 0 108 11" fill="none" xmlns="http://www.w3.org/2000/svg">
<path fill-rule="evenodd" clip-rule="evenodd" d="M107.589 3.91657C107.151 2.78246 103.391 2.30495 92.0897 1.90702C81.5444 1.52898 69.2682 0.434662 47.8196 1.03156C31.4248 1.48918 11.0109 3.31968 11.0109 4.3344C11.0109 5.07058 11.8067 5.09048 19.4072 4.43389C26.4308 3.83699 30.032 3.69771 34.4292 3.53854C16.8008 5.09048 13.0403 6.10521 3.6491 7.08014C-2.24031 7.69694 1.20181 9.46774 3.35065 9.28867C3.37055 9.28867 30.7682 7.06025 33.3548 7.17963C33.5935 7.19952 30.9871 7.55766 27.545 7.97549C17.9349 9.16929 19.7853 11.1588 26.9879 10.2435C51.222 7.15953 74.0235 6.20449 91.5923 7.53756C97.1434 7.95539 97.7602 7.95539 97.7602 7.43808C97.7602 6.52284 96.2481 5.82666 93.8804 5.68738C90.1796 5.44862 75.9336 4.77193 69.4871 4.57297C68.9897 4.55307 69.2284 4.17523 69.6662 4.13544C72.2925 3.87678 93.1442 4.07555 101.342 4.3541C107.37 4.55307 107.808 4.53337 107.589 3.91657Z" fill="#F9B500"/>
</svg>
