<svg width="159" height="30" viewBox="0 0 159 30" fill="none" xmlns="http://www.w3.org/2000/svg">
<g clip-path="url(#clip0_2033_4607)">
<path d="M57.7531 29.3917C57.4386 28.9902 57.1508 28.6189 56.8029 28.1772L56.2943 28.1371C55.8761 27.2304 54.8055 27.1167 54.2267 26.3137C54.307 26.1933 54.4174 26.0327 54.5579 25.8252C54.2936 25.1695 54.1933 24.4267 53.7316 23.8011C53.5041 23.4933 53.4137 23.0784 53.2665 22.7104C52.9319 21.874 52.6275 21.0242 52.2628 20.1978C51.7275 18.9766 51.1453 17.7755 50.5967 16.561C50.4963 16.3402 50.4729 16.086 50.3825 15.8618C50.1149 15.1726 49.8338 14.4867 49.5561 13.7975L48.9907 13.5767L49.2149 13.1852L47.696 10.7362L47.2409 10.8098L47.3714 10.2243C47.1238 9.8563 46.8629 9.47155 46.7023 9.234C46.2941 8.96969 46.0198 8.79237 45.6986 8.58494C45.0562 8.44108 44.4841 8.86932 43.8718 9.05334C42.4098 9.49496 40.9678 10.0135 39.5325 10.5422C37.8898 11.1477 36.2638 11.7901 34.6344 12.4258C32.6538 13.1953 30.6832 13.9882 28.6992 14.7477C25.1996 16.0893 21.6766 17.3707 18.2004 18.7658C16.2566 19.5454 14.3763 20.4822 12.4927 21.4056C10.4753 22.3959 8.48794 23.4565 6.48722 24.4836C6.04559 24.7111 5.59393 24.9185 5.15564 25.1527C4.7642 25.3635 4.37944 25.5107 3.91774 25.5308C3.49284 25.5475 3.07463 25.6981 2.62965 25.7985C2.23152 25.5141 2.52259 25.039 2.30512 24.5639C1.69621 24.0186 0.521876 24.2327 0.0032959 23.316C0.0568268 22.8844 0.371321 22.6201 0.622247 22.3022C1.09064 21.71 1.53562 21.0811 1.17094 20.355C1.15086 19.4216 1.80327 19.1205 2.39546 18.7692C3.70362 17.9963 5.01178 17.2201 6.32328 16.4506C6.83517 16.1495 7.34372 15.8451 7.86899 15.5674C9.33105 14.7945 10.7864 14.0116 12.2686 13.2789C14.8447 12.0076 17.4845 10.8868 20.1844 9.8931C22.9346 8.87936 25.6513 7.77194 28.3847 6.70801C29.4587 6.2898 30.5293 5.8649 31.6133 5.4768C33.6943 4.72737 35.7887 4.00805 37.873 3.26531C40.1615 2.45231 42.4399 1.6092 44.735 0.812928C45.6718 0.488397 46.6421 0.260891 47.5688 -0.00341797C48.1543 0.287656 48.7298 0.572039 49.3387 0.87315L49.8037 0.35457C50.4327 0.518508 51.1119 0.695829 51.9249 0.909952L52.2963 0.695829L52.7078 0.97352L52.1758 1.51552C52.2427 1.65269 52.3063 1.78987 52.3933 1.97722L52.8751 1.40511C53.039 1.48875 53.2933 1.5289 53.3401 1.65269C53.5777 2.26495 54.1899 2.5393 54.5312 3.04784C55.1033 3.8943 55.6921 4.73072 56.2308 5.60059C56.5687 6.14594 56.833 6.73478 57.1107 7.31693C57.3683 7.85558 57.5992 8.40427 57.8434 8.94627C57.8802 9.03326 57.9103 9.12694 57.9672 9.1972C58.5527 9.94329 58.7969 10.8433 59.1516 11.6998C59.4895 12.5161 59.9779 13.2689 60.4028 14.0484C60.4296 14.102 60.5233 14.1321 60.5266 14.1823C60.6337 15.1592 61.2426 15.922 61.6006 16.7919C61.8047 17.2837 61.788 17.8692 61.8682 18.4012L62.3835 18.709C63.8389 18.4781 65.0868 17.7354 66.4217 17.2302C67.6462 16.7651 68.8473 16.2399 70.0618 15.738C71.7347 15.0488 73.4008 14.3429 75.0803 13.6704C76.529 13.0916 77.9911 12.5529 79.4464 11.9942C81.484 11.2113 83.5549 10.4953 85.5523 9.6221C87.8675 8.61171 90.2396 7.7619 92.5816 6.82511C93.9366 6.28311 95.3652 5.91843 96.7269 5.38982C98.383 4.7441 100.029 4.05824 101.635 3.29542C103.134 2.58614 104.716 2.10436 106.225 1.43188C106.908 1.12742 107.604 0.866459 108.34 0.722594C108.52 0.685792 108.711 0.685792 108.962 0.662372C109.333 1.44192 110.086 1.29805 110.792 1.36162C110.906 1.23114 111.023 1.09062 111.16 0.933372C111.839 1.38169 112.599 1.36831 113.398 1.24787C113.616 1.56571 113.8 1.88689 114.041 2.16124C114.265 2.41885 114.476 2.66309 114.606 3.06792C115.008 3.22516 115.332 3.543 115.607 4.0482C116.048 4.8612 116.483 5.67085 116.818 6.53404C116.941 6.84853 117.099 7.14964 117.236 7.46079C117.36 7.73514 117.477 8.01283 117.644 8.25706C117.744 8.76226 117.828 9.26746 117.945 9.76931C118.119 10.5254 118.38 11.2682 118.464 12.031C118.507 12.4258 118.685 12.6432 118.875 12.844C118.969 13.57 119.026 14.2525 119.156 14.9217C119.273 15.5272 119.474 16.1161 119.658 16.7852C119.779 16.7417 119.879 16.7183 119.973 16.6714C120.056 16.6313 120.127 16.5677 120.234 16.4941C120.384 16.5845 120.538 16.6781 120.722 16.7885C121.057 16.6848 121.421 16.5945 121.766 16.464C123.924 15.6477 126.085 14.8347 128.233 13.9916C129.538 13.4763 130.813 12.8875 132.117 12.3689C133.181 11.9473 134.292 11.6329 135.339 11.1745C136.567 10.6392 137.845 10.2344 139.11 9.83288C141.847 8.963 144.486 7.8422 147.183 6.86861C148.267 6.47716 149.311 5.97531 150.398 5.58387C151.352 5.23926 152.335 4.98499 153.366 4.6705C153.332 4.88127 153.316 4.99503 153.296 5.12216C153.64 5.30617 153.985 5.49353 154.259 5.64074C154.922 5.48684 155.541 5.34298 156.106 5.2125C156.494 5.4835 156.835 5.72104 157.25 6.00877C157.146 6.40356 156.835 6.78831 156.698 7.25336C156.973 7.42399 157.25 7.59796 157.441 7.71841C157.765 7.71841 158.003 7.70837 158.241 7.71841C158.475 7.73179 158.706 7.76525 158.993 7.79536C158.585 8.57156 158.05 9.21393 157.264 9.66225C156.287 10.2176 155.33 10.8065 154.37 11.392C154.186 11.5057 154.018 11.6462 153.854 11.7901C153.175 12.3923 152.529 13.0313 151.82 13.5901C151.335 13.9748 150.773 14.2659 150.231 14.5737C148.679 15.4603 147.002 16.0692 145.343 16.7183C143.479 17.4443 141.636 18.2205 139.756 18.8997C138.407 19.3848 137.002 19.7127 135.644 20.1744C133.988 20.7398 132.362 21.3889 130.712 21.9677C128.534 22.7338 126.336 23.4498 124.161 24.2193C123.074 24.6041 121.973 24.9386 120.836 25.0992C119.922 25.2297 119.106 25.6144 118.263 25.9323C117.386 26.2602 116.53 26.6483 115.64 26.936C115.242 27.0631 114.784 27.0129 114.268 27.0464C114.405 26.7687 114.492 26.5914 114.613 26.3405C113.7 26.2869 113.091 25.7951 112.515 25.2263C112.274 24.9888 111.963 24.8215 111.712 24.5907C111.461 24.3632 111.247 24.1022 111.013 23.8513C111.287 23.7007 111.505 23.5803 111.772 23.4331C111.572 23.1754 111.424 22.9847 111.24 22.7472C111.227 22.4528 111.21 22.1115 111.197 21.7703C110.729 20.9606 110.471 20.0941 110.417 19.1573C110.401 18.8562 110.364 18.4513 110.173 18.2841C109.698 17.8692 109.852 17.3941 109.802 16.9391C109.604 16.2967 109.404 15.6544 109.206 15.012L109.313 14.9752C109.21 14.8614 109.106 14.751 108.972 14.6072V13.7473C108.606 13.1295 108.407 12.5406 108.373 11.9808C107.972 11.2213 107.58 10.4719 107.175 9.70574C106.272 9.86299 105.452 10.1306 104.67 10.5221C101.223 12.2418 97.6704 13.6938 94.0336 14.9785C91.2065 15.9789 88.453 17.1766 85.6728 18.3041C83.0096 19.3848 80.3832 20.5558 77.6632 21.4993C75.9536 22.0914 74.3041 22.8576 72.6213 23.5267C70.0384 24.5572 67.4455 25.5576 64.8693 26.6048C63.7418 27.0631 62.6545 27.6252 61.5404 28.1237C60.714 28.4917 59.891 28.8664 59.0411 29.1709C58.6129 29.3248 58.1311 29.3248 57.7397 29.385L57.7531 29.3917Z" fill="#5762C7"/>
</g>
<defs>
<clipPath id="clip0_2033_4607">
<rect width="159" height="29.3918" fill="white"/>
</clipPath>
</defs>
</svg>
