<svg width="208" height="95" viewBox="0 0 208 95" fill="none" xmlns="http://www.w3.org/2000/svg">
<g clip-path="url(#clip0_23_4)">
<path d="M4.92835 51.2547C-6.05316 24.224 28.8295 15.4404 37.9625 14.3253C77.4662 9.5026 119.609 11.2582 159.039 20.5692C168.234 22.7405 194.38 25.6927 195.365 48.1479C196.498 73.9415 173.023 75.2838 162.612 76.9365C126.862 82.6144 87.7605 80.4441 51.8408 75.8029C37.2154 73.9136 20.9069 69.7784 7.99919 57.8246" stroke="#BB6BD9" stroke-width="3.40013" stroke-miterlimit="1.5" stroke-linecap="round" stroke-linejoin="round"/>
<path d="M12.3862 76.5122C13.653 75.1139 15.0546 72.7466 16.9749 72.1048" stroke="#BB6BD9" stroke-width="3.40013" stroke-miterlimit="1.5" stroke-linecap="round" stroke-linejoin="round"/>
<path d="M22.3283 80.2941C23.5534 78.5371 25.08 75.8603 26.9381 74.6541" stroke="#BB6BD9" stroke-width="3.40013" stroke-miterlimit="1.5" stroke-linecap="round" stroke-linejoin="round"/>
<path d="M33.8077 81.3787C35.1295 79.6463 36.5292 77.8808 38.2514 76.519" stroke="#BB6BD9" stroke-width="3.40013" stroke-miterlimit="1.5" stroke-linecap="round" stroke-linejoin="round"/>
<path d="M46.7863 83.4952C48.0369 81.6209 49.3821 79.1838 51.1332 77.7252" stroke="#BB6BD9" stroke-width="3.40013" stroke-miterlimit="1.5" stroke-linecap="round" stroke-linejoin="round"/>
<path d="M57.2214 83.7877C58.4751 81.7102 60.0403 80.0713 61.7326 78.3781" stroke="#BB6BD9" stroke-width="3.40013" stroke-miterlimit="1.5" stroke-linecap="round" stroke-linejoin="round"/>
<path d="M71.2171 85.1154C72.4226 82.9572 74.2885 80.9664 75.9911 79.1669" stroke="#BB6BD9" stroke-width="3.40013" stroke-miterlimit="1.5" stroke-linecap="round" stroke-linejoin="round"/>
<path d="M85.4212 86.0055C87.0879 83.8047 88.9018 81.6839 90.8297 79.7059" stroke="#BB6BD9" stroke-width="3.40013" stroke-miterlimit="1.5" stroke-linecap="round" stroke-linejoin="round"/>
<path d="M97.1478 86.1448C99.1632 84.1166 101.118 81.8938 103.268 80.011" stroke="#BB6BD9" stroke-width="3.40013" stroke-miterlimit="1.5" stroke-linecap="round" stroke-linejoin="round"/>
<path d="M108.985 87.9018C110.579 85.0007 112.367 82.1548 115.036 80.1292" stroke="#BB6BD9" stroke-width="3.40013" stroke-miterlimit="1.5" stroke-linecap="round" stroke-linejoin="round"/>
<path d="M120.838 87.9843C122.932 85.2982 125.129 82.5517 127.429 80.0356" stroke="#BB6BD9" stroke-width="3.40013" stroke-miterlimit="1.5" stroke-linecap="round" stroke-linejoin="round"/>
<path d="M134.393 87.8755C136.433 84.9352 139.056 81.887 141.851 79.6217" stroke="#BB6BD9" stroke-width="3.40013" stroke-miterlimit="1.5" stroke-linecap="round" stroke-linejoin="round"/>
<path d="M146.726 87.5499C149.525 84.8545 151.857 81.8853 154.374 78.9621" stroke="#BB6BD9" stroke-width="3.40013" stroke-miterlimit="1.5" stroke-linecap="round" stroke-linejoin="round"/>
<path d="M160.982 86.081C162.69 83.2487 164.86 80.3722 167.212 78.0219" stroke="#BB6BD9" stroke-width="3.40013" stroke-miterlimit="1.5" stroke-linecap="round" stroke-linejoin="round"/>
<path d="M172.601 83.5301C174.129 81.1857 175.703 78.7827 177.742 76.8403" stroke="#BB6BD9" stroke-width="3.40013" stroke-miterlimit="1.5" stroke-linecap="round" stroke-linejoin="round"/>
<path d="M184.796 81.8369C186.666 78.6756 188.786 75.3741 190.962 72.4075" stroke="#BB6BD9" stroke-width="3.40013" stroke-miterlimit="1.5" stroke-linecap="round" stroke-linejoin="round"/>
<path d="M201.415 53.3489C199.532 57.1876 197.686 61.0298 195.643 64.7742" stroke="#BB6BD9" stroke-width="3.40013" stroke-miterlimit="1.5" stroke-linecap="round" stroke-linejoin="round"/>
<path d="M205.373 64.1324C203.151 68.7217 201.371 73.623 198.806 78.0363" stroke="#BB6BD9" stroke-width="3.40013" stroke-miterlimit="1.5" stroke-linecap="round" stroke-linejoin="round"/>
</g>
<defs>
<clipPath id="clip0_23_4">
<rect width="207.408" height="94.3471" fill="white" transform="translate(0.472839 0.0238953)"/>
</clipPath>
</defs>
</svg>
