<svg width="104" height="105" viewBox="0 0 104 105" fill="none" xmlns="http://www.w3.org/2000/svg">
<g clip-path="url(#clip0_2033_4397)">
<path d="M28.2066 37.4468C27.9211 37.8909 27.6437 38.3263 27.3262 38.8132L27.2392 38.2232L27.4641 37.7144C27.5291 37.662 27.6197 37.6255 27.6425 37.5579C28.7748 34.7631 29.9068 31.96 31.0222 29.1574C31.0605 29.0559 30.9716 28.9002 30.8731 28.4609C30.6431 29.0618 30.5121 29.3836 30.3894 29.7052C30.0911 30.5088 29.8182 31.3199 29.5115 32.1238C28.8744 33.7658 28.22 35.3918 27.5828 37.0338C27.4982 37.2455 27.5153 37.5038 27.49 37.7385C27.1324 37.7842 27.2327 38.0313 27.2651 38.2473C27.1598 38.3428 27.0122 38.423 26.9578 38.5418C26.484 39.5853 26.0271 40.6365 25.5532 41.68C25.4133 41.9854 25.3091 42.3565 24.7374 42.4929C24.9389 41.3001 25.6011 40.3921 25.8322 39.3319C25.0824 39.8753 25.0846 40.9192 24.3494 41.6459C24.0529 40.5452 23.788 39.6356 24.2871 38.5996C25.7144 35.636 26.896 32.5722 27.7566 29.4025C28.2163 27.6997 28.592 25.9831 29.018 24.2731C29.1874 23.6075 29.3904 22.9491 29.5088 22.5024C30.2606 22.0174 30.765 21.6243 31.3401 21.3458C31.6851 21.1753 32.1249 21.0935 32.5023 21.1391C33.6267 21.2928 34.4504 21.9328 35.0752 22.8636C35.8851 24.0804 36.2419 25.4797 36.7468 26.8155C37.6562 29.2316 38.4832 31.6839 39.4832 34.0634C40.1469 35.6444 41.0085 37.1517 41.8528 38.6429C42.5551 39.8885 43.397 41.0624 44.1241 42.2987C44.3371 42.6673 44.3945 43.1247 44.5094 43.5551C44.6154 43.9691 44.6967 44.3922 44.8044 44.8563C44.062 44.6394 44.0701 44.6308 43.3556 43.5193C42.9939 42.9554 42.762 42.2784 42.0269 41.7857C42.0372 42.821 42.7893 43.3215 43.081 44.0381C43.3817 44.7712 44.1003 45.2728 44.308 46.2179C43.6766 46.0724 43.5042 45.669 43.2747 45.3094C42.6652 44.3363 42.0477 43.3719 41.4134 42.408C41.2458 42.1464 41.1081 41.7837 40.5316 42.0205C40.873 42.9693 41.5421 43.7315 42.0553 44.5743C42.5682 45.4087 43.3772 46.1077 43.3229 47.4542L42.1397 46.8014L41.8485 46.3436L41.339 45.6093C41.3512 45.2331 41.1761 44.9968 40.805 44.8926C40.737 44.3687 40.4973 43.951 40.0127 43.7002C39.992 43.584 39.9713 43.4678 40.0017 43.6255C39.8974 43.5037 39.967 43.5849 40.0452 43.6741C40.1624 44.1712 40.3449 44.6243 40.8295 44.875L41.3306 45.6096L41.8643 46.318L42.0989 46.8278L41.9925 47.3827C41.2217 47.0666 40.9731 46.3902 40.5953 45.8435C40.2 45.2724 39.8374 44.6834 39.3929 44.139C39.5245 45.3038 40.6102 46.0351 40.9144 47.361C39.1396 46.2607 38.2412 44.6544 37.2386 43.1769C36.709 43.3203 36.8478 43.7164 36.8575 44.0001C36.8774 45.5612 36.939 47.1209 36.9672 48.6818C37.0154 51.8038 37.0632 54.9174 37.0863 58.0403C37.0899 58.3909 36.9431 58.7384 36.8716 59.0916L36.7974 59.1192L36.8627 59.0752C37.3643 59.3337 37.1381 59.8008 37.1506 60.1678C37.2823 63.5375 37.3891 66.9081 37.4955 70.2703C37.5866 72.9398 37.6945 75.6088 38.1935 78.2393C38.3469 79.0609 38.0727 79.8387 37.7983 80.608C37.1017 80.5066 37.4718 79.8508 37.1356 79.5449L37.0866 80.7994L36.9704 80.8201C36.7504 79.7585 36.5304 78.697 36.3104 77.6354C35.77 78.9317 36.58 80.1485 36.3514 81.5261L35.7398 80.7368L35.2467 81.7058L34.7736 80.5693L34.5367 80.97C33.9822 80.6298 33.7232 80.1375 33.6012 79.4986C33.0926 76.8349 32.6586 74.1521 32.6244 71.4388C32.5537 66.1879 32.5161 60.9274 32.4955 55.6747C32.4836 52.635 32.5467 49.5927 32.5598 46.5522C32.5741 42.5678 32.5718 38.584 32.5694 34.6002C32.5672 34.2912 32.5066 33.9843 32.2608 33.6335C32.1128 33.9476 31.9645 34.2533 31.8249 34.5671C30.7681 36.8833 29.7113 39.1995 28.6712 41.5151C28.3531 42.2275 27.9033 42.7523 26.9888 42.8754L27.1397 41.6676L27.4505 41.231L27.8231 40.1576L27.931 40.1372L27.8531 40.0563L27.8401 40.1654L27.3214 41.1185L27.148 41.6673C26.87 42.086 26.5923 42.5131 26.3142 42.9319L26.1454 42.8792C26.165 42.7198 26.1507 42.5449 26.2126 42.4008C26.7941 41.0864 27.4012 39.7878 27.9744 38.4737C28.1137 38.1515 28.151 37.7744 28.2308 37.4209L28.4387 36.9044L28.5448 36.8339L28.4732 36.9366L28.2394 37.429L28.2066 37.4468ZM35.8978 60.1688L35.6558 60.4193L35.4224 60.6778L35.1807 60.9366L35.1154 60.9806L35.1548 60.9125L35.3968 60.662L35.6302 60.4035L35.8809 60.1611L35.9551 60.1335L35.8984 60.1855L35.8978 60.1688ZM33.9882 62.2135L33.7462 62.4639L33.5128 62.7225L33.2794 62.981L33.2141 63.025L33.2536 62.9568L33.4869 62.6983L33.7203 62.4398L33.971 62.1973L34.0452 62.1697L33.9882 62.2135ZM39.5245 39.4324C38.9455 37.6397 37.7849 35.4494 36.842 34.4961C37.6402 36.348 38.1661 38.0505 39.5245 39.4324ZM35.6948 74.2823L35.82 74.278L35.7171 71.2664L35.592 71.2707L35.6948 74.2823ZM31.9729 23.9801L32.0037 24.8811C32.3697 24.593 32.5127 24.3793 31.9729 23.9801ZM32.5997 22.5222L32.4412 22.5276L32.4588 23.0448L32.6423 23.0386L32.5997 22.5222Z" fill="white"/>
<path d="M47.3685 63.4524L47.2678 63.4391L47.3403 63.3615L47.3604 63.461L47.3688 63.4607L47.3685 63.4524Z" fill="white"/>
<path d="M58.3131 57.3075L59.8216 57.9492C61.4517 57.501 63.1758 57.8514 64.8974 58.8617C64.9608 58.5171 65.0524 58.2634 65.0519 58.0045C65.1152 55.2128 65.2036 52.4202 65.2 49.6224C65.192 45.2295 65.1337 40.83 65.0839 36.4386C65.0429 32.7902 64.9765 29.1343 64.9355 25.4859C64.9243 24.6678 64.9294 23.8407 65.0186 23.0276C65.1389 21.9043 65.861 21.0361 66.2255 19.9713L67.1059 20.3171C68.5141 21.931 68.4755 23.7364 68.5456 25.5464C68.6563 28.2987 68.8918 31.0385 69.0192 33.7903C69.2262 38.143 69.4083 42.4965 69.5734 46.8422C69.729 51.1549 69.8428 55.4689 69.9734 59.7825C69.9914 60.308 70.0096 60.8419 70.0364 61.6261C70.35 61.273 70.5293 61.1416 70.6234 60.963C70.9533 60.3503 71.2829 59.7294 71.5618 59.0935C72.0576 57.9574 72.6738 56.9258 73.9472 56.306L74.122 57.2689L73.8969 57.7693C73.8414 57.8547 73.7858 57.9401 73.8492 57.8378C73.8367 57.9635 73.8494 57.8461 73.8624 57.7371L74.1048 57.2527C74.3894 56.7837 74.6741 56.3146 75.0062 55.7687L75.6012 56.3163C75.0427 57.8137 74.0498 59.067 73.6744 60.792C74.2047 60.4231 74.2474 59.9623 74.4529 59.6212C74.6817 59.2292 74.8597 58.8138 75.0632 58.4144C75.2664 58.0065 75.4785 57.6151 75.6648 57.1995C75.8516 56.8006 76.0212 56.3855 76.2227 55.9276L76.8785 56.0556C77.206 56.5956 76.9855 56.9873 76.7656 57.3958C76.13 58.5951 75.5028 59.7941 74.8756 60.9932C74.6799 61.3757 74.367 61.7539 74.5944 62.2973C75.158 62.1695 75.3848 61.7191 75.5877 61.3029C76.2682 59.9517 76.9145 58.5767 77.5777 57.2093C77.6635 57.031 77.7663 56.8605 77.8682 56.6649C78.8013 56.8418 78.4153 57.5232 78.4243 58.0323L79.1569 58.2078C79.7047 59.5755 79.6399 60.8556 78.9505 62.1904C77.3682 65.2594 75.9809 68.4137 74.9493 71.7146C74.3774 73.5548 73.8308 75.4026 73.3601 77.2728C72.8454 79.3199 71.9542 81.1042 70.2226 82.4913C69.4996 82.5995 68.6933 82.7106 67.937 82.8199C67.3292 82.6319 66.7523 82.3676 66.1568 82.2961C65.2424 82.1769 64.7484 81.6509 64.5122 80.8488C64.1048 79.4346 63.7138 78.0114 63.3889 76.5692C63.0057 74.8869 62.7141 73.193 62.0743 71.5779C61.4066 69.8802 60.5263 68.315 59.4003 66.8918C58.327 65.5421 57.7245 64.0426 57.3989 62.3332C57.1953 61.2627 57.3918 60.4125 57.8527 59.478L57.3769 58.5087L57.8411 57.9166L58.6381 58.2652L58.2878 57.3L58.2794 57.3003L58.3131 57.3075ZM74.0733 63.6681L74.2552 63.3696L74.1459 63.3483L74.0994 63.7006L73.8746 64.2094L73.1655 65.2108L73.4122 65.3444L73.8573 64.1933L74.0736 63.6765L74.0733 63.6681ZM71.9225 65.0111C71.6089 65.3642 71.3542 65.732 71.4633 66.2378L71.2471 66.7546L71.441 66.8065L71.4719 66.2458C71.802 65.8838 72.0139 65.484 71.888 64.9788L71.9945 64.9167L71.9225 65.0111ZM64.0732 63.3414C64.565 62.5813 64.2246 62.1503 63.9376 61.8176C63.1635 60.917 62.7601 59.6195 61.2744 59.403L64.0815 63.3411L64.0732 63.3414ZM66.5807 81.0121C66.8408 80.4742 66.8038 80.044 66.4698 79.7213C66.5102 80.1709 66.5375 80.479 66.5807 81.0121ZM66.0187 78.2501L66.2482 78.3675L66.4167 77.6769L66.2649 77.632L66.0187 78.2501Z" fill="white"/>
<g clip-path="url(#clip1_2033_4397)">
<path d="M60.0501 96.5921L58.9009 96.7824C59.8297 96.6097 60.7684 96.4367 61.7172 96.2633C62.6546 96.05 63.5788 95.7466 64.5252 95.5028C66.4401 95.0749 68.2405 94.238 70.0977 93.5905C65.9929 94.929 61.457 95.7082 57.185 96.267C55.0282 96.3809 52.95 96.7338 50.9722 96.7913C49.9895 96.8551 49.0203 97.0191 48.0986 97.1009C47.1761 97.1626 46.2852 97.2635 45.426 97.4137C45.2852 97.1164 44.663 96.8456 43.8375 96.5112C43.0204 96.1262 41.9922 95.7384 40.9657 95.4008C39.9405 95.1035 38.9711 94.6733 38.2281 94.3966C37.485 94.1198 36.9676 93.9763 36.9091 94.0287C36.4941 93.9422 36.0694 93.866 35.6638 93.759L34.4441 93.3576C33.6305 93.0731 32.8071 92.7991 31.9834 92.5151C33.1127 92.9196 34.2316 93.3145 35.3505 93.7093C34.2316 93.3145 33.1123 92.9096 31.9834 92.5151C26.8581 90.4544 21.9873 87.0154 18.035 82.5178C14.0533 78.0414 11.0605 72.5041 9.3297 66.551C8.2735 63.2839 7.0416 56.9311 7.48705 50.5512C7.5138 50.1575 7.49003 49.7555 7.5469 49.3608L7.70782 48.1871C7.81186 47.4082 7.92595 46.6288 8.03034 45.8599C8.09458 45.0923 8.34087 44.3588 8.50721 43.6381C8.68358 42.9171 8.86029 42.2061 9.01796 41.526C9.85078 38.8389 10.6966 36.5341 11.5388 35.0048C12.0008 34.1129 12.3506 33.1744 12.9247 32.3291C12.4462 33.0302 12.2682 33.4089 12.0902 33.7876C11.9021 34.1666 11.7137 34.5356 11.3276 35.294C11.5115 34.7943 11.6854 34.2949 11.86 33.8156C12.0342 33.3262 12.1984 32.8372 12.4443 32.3857C12.8852 31.4643 13.3164 30.5533 13.7382 29.6628C13.9335 29.2029 14.1908 28.7913 14.4481 28.3797C14.7054 27.9681 14.9523 27.5468 15.1995 27.1355C15.7144 26.3223 16.1577 25.4713 16.7761 24.7453C16.5015 24.946 16.3143 25.0531 16.0494 25.2434C15.795 25.4434 15.4937 25.7458 14.9512 26.3383C15.3663 25.8408 15.7092 25.2852 16.1759 24.8262C16.5804 24.0168 17.454 22.8188 18.3577 21.6197C19.3756 20.5276 20.4336 19.434 21.0714 18.6872C21.009 18.9209 21.2348 18.7622 21.6471 18.4762C22.0698 18.1999 22.6379 17.7676 23.1766 17.3565L22.6615 17.5755C26.6213 14.3486 31.7611 11.2425 36.113 9.78478C36.697 9.52314 37.1996 9.52612 37.5004 9.50578L39.5767 8.80045C40.2721 8.56522 40.9568 8.31022 41.6758 8.17489C41.4171 8.54627 45.2901 7.77958 43.2797 8.35176C44.0658 8.12351 44.8512 7.87513 45.6608 7.74679C46.4718 7.65867 47.2925 7.56016 48.0935 7.47239C48.9055 7.41445 49.7034 7.23615 50.5078 7.24897C51.3108 7.22155 52.1035 7.18442 52.8944 7.09699C58.4867 7.23839 64.2443 8.39128 69.6668 10.6231C75.0886 12.8348 80.1644 16.0956 84.4726 20.1278L84.3523 19.8399C85.1004 20.5596 85.8859 21.1974 86.6133 21.8976C87.3119 22.6392 88.0002 23.371 88.7193 24.1219C89.4681 24.8617 90.0808 25.737 90.7258 26.6717C91.351 27.6171 92.0866 28.5588 92.5795 29.7505C93.0877 30.5085 93.6393 31.3558 94.2018 32.2329C94.7543 33.1103 95.1591 34.0733 95.6406 34.933C96.0727 35.8146 96.5817 36.5928 96.8771 37.2977C97.2022 37.9915 97.5022 38.5352 97.7641 38.8485C98.0709 39.8854 98.4116 40.7398 98.6301 41.5481C98.8386 42.3567 99.0246 43.0956 99.2203 43.824C99.406 44.5529 99.6218 45.2806 99.8106 46.1C99.9391 46.9214 100.07 47.8233 100.197 48.8864C100.308 48.3187 100.494 49.3496 100.656 50.2706C100.839 51.2009 100.894 51.9342 101 50.9134C101.192 48.0065 100.856 47.877 100.922 45.3873L100.824 45.4712C99.6792 34.0096 94.1448 22.9094 85.4584 14.8574C83.8995 13.6417 82.3962 12.2932 80.6707 11.2041C79.8274 10.6387 79.0027 10.0324 78.1296 9.47815C77.2381 8.97485 76.3362 8.46183 75.4343 7.9488L74.0819 7.18933L72.6633 6.55296L69.8164 5.29062C68.849 4.92082 67.854 4.62247 66.868 4.29359C65.8826 3.98483 64.9153 3.61503 63.9047 3.44812C62.8217 3.22326 61.7387 2.9984 60.6357 2.77422C59.5423 2.53964 58.4056 2.50796 57.2953 2.3646C55.0635 2.04804 52.8061 2.15532 50.605 2.14991L49.7813 2.15789L48.9602 2.24635C48.4195 2.30509 47.8789 2.36383 47.3483 2.42223C46.2776 2.55949 45.2244 2.61559 44.1963 2.82189C43.179 3.04797 42.1814 3.2633 41.2139 3.4776L39.7777 3.79855C39.3204 3.94508 38.8635 4.10167 38.4263 4.24751C37.582 4.53817 36.8344 4.71476 36.1054 4.85043C35.7457 4.91306 35.3861 4.97569 35.0164 5.03866C34.6574 5.12142 34.3092 5.22394 33.9409 5.32715C33.1485 5.66639 32.3163 6.01707 31.4745 6.37814C31.0587 6.56354 30.6118 6.71978 30.1971 6.93536C29.7827 7.16099 29.358 7.3769 28.9436 7.60253C28.0948 8.05448 27.2362 8.51683 26.3577 8.97986C25.5002 9.47239 24.6863 10.0641 23.8405 10.6066C22.1075 11.6527 20.5555 12.9947 18.9913 14.2768C18.1781 14.8886 17.5106 15.6466 16.7908 16.3459C16.0914 17.0546 15.3713 17.7438 14.7328 18.4705C14.8294 18.3565 14.9264 18.2525 14.9949 18.1998C14.318 18.9782 13.6796 19.7049 13.0709 20.4206C12.4722 21.1359 11.7999 21.753 11.2826 22.4958C10.7445 23.2191 10.2064 23.9424 9.65866 24.6761C9.39031 25.0579 9.11192 25.44 8.83353 25.8221C8.59667 26.2431 8.36015 26.6741 8.11393 27.1156C8.2053 27.1427 7.90264 27.6968 7.7918 27.9826C7.41586 28.1566 4.64471 33.5282 3.31849 39.4245C1.87149 45.3149 2.06957 51.4109 1.97247 52.099C1.98655 52.5114 2.00132 52.944 2.00605 53.3769C1.81031 61.7724 3.74312 70.6995 7.39928 77.1206C7.63179 77.455 7.86429 77.7895 8.09715 78.134C8.35942 78.4574 8.63174 78.7804 8.89368 79.0937C9.41755 79.7204 9.93035 80.3172 10.3895 80.8151C10.6708 81.3997 10.9026 81.714 11.204 82.0058C11.5154 82.2973 11.8473 82.5982 12.3106 83.2168C12.7534 84.1181 13.2021 84.8984 13.6055 85.5291C13.9992 86.1703 14.4453 86.578 14.7169 86.8809C15.2993 87.4552 15.4679 87.389 14.8665 86.5536C17.1462 88.8625 19.5422 91.0466 21.8715 92.7495C23.0011 93.4562 24.111 94.1736 25.2696 94.8491C26.2916 95.3479 26.7781 95.7643 27.1857 96.2237C29.7841 97.5651 28.9317 97.3222 31.7107 98.6574C31.8564 98.8035 32.3769 99.0375 33.0902 99.3253C33.8038 99.6232 34.765 99.8119 35.7081 100.062C36.6506 100.291 37.593 100.521 38.3631 100.706C39.1408 100.821 39.7271 100.922 39.9306 100.995L39.436 100.931C40.2971 101.134 41.0786 101.359 41.82 101.585C42.5617 101.822 43.2629 102.05 43.9914 102.196C45.4288 102.499 46.8696 102.903 48.6117 103.005C53.4684 103.383 58.576 102.866 63.4626 101.763C68.3136 100.499 72.8601 98.5617 76.8156 96.3823C76.7447 96.0725 75.0906 97.3677 74.7985 97.0554L76.5768 96.1588C77.1698 95.8666 77.7192 95.4753 78.2908 95.1436L80.004 94.1082C80.5752 93.7665 81.1568 93.4344 81.6851 93.0136L84.9193 90.607C85.924 89.7167 86.9072 88.7869 87.8805 87.8573C88.6643 87.2666 89.4993 86.4123 89.8822 86.1475C91.0957 84.8976 90.4252 85.2729 91.2773 84.3274L91.6106 84.3765C92.1473 83.6129 92.5302 83.056 93.0063 82.5765C93.4619 82.0877 93.9276 81.5984 94.3743 80.848C94.3294 80.7086 94.7033 80.1822 95.0271 79.6575C95.3029 79.7891 95.9545 77.9743 96.1427 78.1894L96.1417 78.1592C96.3214 77.8308 96.4336 77.5853 96.7023 77.2136C96.7667 77.0402 96.9804 76.5294 97.2482 75.8354C97.5159 75.1415 97.746 74.2273 98.0273 73.3415C98.2885 72.4565 98.5494 71.5613 98.7562 70.8493C98.9125 70.129 99.004 69.572 99.0283 69.3999L99.1789 69.1027C99.4783 68.156 99.4022 67.6953 99.1688 68.2169L99.5616 67.0655L99.5363 67.2073L99.9295 66.066C100.023 65.8614 100.196 65.644 100.26 66.0245C100.306 65.3281 100.421 64.5588 100.62 63.9075C100.11 65.7577 99.0578 67.9085 98.1733 69.6708C98.3268 68.87 98.9343 67.53 99.1768 66.6859C99.2994 66.4501 99.4601 66.1525 99.609 65.805C99.7275 65.4485 99.8643 65.041 100.001 64.6335C100.263 63.7786 100.554 62.8624 100.807 62.0481C100.855 61.6738 100.644 61.3789 100.878 60.5753C101.156 60.2033 100.986 59.6351 101.225 58.9623C101.242 59.7774 101.128 60.5567 100.965 61.3579C101.303 61.2758 101.401 59.4094 101.56 58.7796C101.509 58.4692 101.798 56.9084 101.804 55.9112C102.06 56.3657 101.988 55.1194 102.138 54.5302C102.186 53.8538 102.081 53.4244 101.989 53.6994C101.711 53.4773 101.769 56.3555 101.495 55.4082C101.638 55.1717 101.613 53.8633 101.609 53.1585C101.458 53.1435 101.485 53.6361 101.339 53.1778C101.382 52.4009 101.214 51.5809 101.379 51.1321C101.414 51.2719 101.395 51.5948 101.383 51.8269C101.417 50.7783 102.306 57.3745 102.231 56.0678C102.091 56.3748 101.408 50.2147 101.382 50.9105C101.302 51.5275 101.106 50.4768 101.047 51.1132L101.222 51.8122C101.151 52.6807 100.871 53.0327 100.771 52.734C100.821 51.2619 101.757 56.8997 101.624 55.6555C101.59 55.8279 101.585 55.9892 101.531 56.1622C101.462 55.6208 101.384 54.2035 101.566 53.6535C101.415 53.6485 101.37 52.935 101.32 52.3426L101.353 52.13C101.282 51.5181 101.333 50.6704 101.126 51.0703C101.116 52.8531 100.734 52.2619 100.333 51.6814C99.9411 51.1006 99.5294 50.5205 99.4559 52.1948C99.8197 50.7825 99.7936 52.6666 99.8139 54.1463C99.6879 54.2815 99.5296 54.9415 99.4047 55.9931C99.3252 56.9022 99.4637 56.545 99.5301 56.724C99.3964 57.222 99.2182 58.1848 99.0525 58.0394C99.1779 58.7703 98.7891 59.1562 98.7581 60.0133C98.7641 60.7784 98.8574 59.9797 98.896 60.5222C98.6628 61.6379 98.273 63.1719 98.0415 64.0458C97.8006 64.3461 97.2905 65.3001 97.2024 64.4874C97.5985 62.8424 97.4687 65.2235 97.8011 63.48C97.2607 64.1329 98.0397 61.9311 97.8259 61.5557C97.5319 62.0693 97.2882 63.1753 97.1291 64.1072L97.2237 63.9328C97.1518 64.7711 96.6844 66.3883 96.209 67.18C96.1506 66.9403 95.931 67.2801 96.0918 66.6905L95.7166 67.7708C95.7117 67.922 95.7072 68.0833 95.8371 67.7667C95.7653 68.3129 95.5412 68.814 95.3424 69.1733C95.2036 69.2284 93.4822 75.0274 93.3427 74.7704C92.9355 75.4993 92.6565 75.5692 92.3815 76.344C92.3925 76.3738 92.619 75.9431 92.9387 75.2978C93.2379 74.643 93.7217 73.8007 93.9926 72.9053C94.6161 71.1518 95.1838 69.5312 94.9802 70.0417C94.8746 70.1863 94.6245 70.8091 94.3124 71.6758C93.9799 72.5331 93.6466 73.6623 93.1088 74.6877C92.6122 75.7419 92.1152 76.7861 91.7107 77.5955C91.265 78.3761 90.8807 78.8928 90.7526 78.9676C90.4084 79.4829 90.0078 80.1109 90.2075 80.0739C89.552 80.8918 90.1633 79.6625 89.6284 80.1843C89.6294 80.2144 89.7187 80.1812 89.5844 80.367L89.0377 80.8389C88.6914 81.5859 87.9716 82.2852 87.3446 83.0518C86.6763 83.7896 86.0815 84.6156 85.5617 85.2879C85.8183 84.8562 85.968 84.2368 86.5498 83.3206L86.7274 83.2239C86.7928 83.0807 87.3212 82.3678 87.1983 82.3015C86.4588 83.0116 85.9498 83.7037 85.3269 84.591C85.1597 84.6974 84.9634 84.835 84.8256 84.9203C84.846 84.9297 84.8661 84.929 84.8769 84.9488C84.5615 85.1307 84.5802 85.0898 84.6259 84.9573C84.6252 84.9372 84.6346 84.9168 84.6536 84.8859C83.9042 85.0122 82.0434 87.9056 80.3762 88.8185C79.9873 89.2044 80.3792 88.909 79.9035 89.3986C79.5106 89.6638 79.1471 89.9078 78.7933 90.1414C78.4388 90.355 78.0733 90.5386 77.7181 90.732C77.0077 91.1188 76.288 91.5261 75.4506 92.0179C75.0254 92.5158 75.0084 92.6071 75.7534 92.35C75.3303 92.6162 74.8966 92.8626 74.4413 93.0695C75.3904 92.02 71.7683 93.9564 72.8558 92.8417C72.4273 92.947 71.6463 93.3261 70.9484 93.7829C70.9231 93.9248 70.9123 94.1971 69.9402 94.5727C68.5366 94.963 68.8758 94.891 67.7204 95.1923C67.4075 95.1526 67.7817 94.9283 67.698 94.8305C66.0806 95.7317 66.0984 95.0764 64.4781 95.595C63.4652 95.9519 61.4461 96.5646 61.4433 96.7762C60.0147 97.0264 59.9777 96.8262 60.0699 96.5814L60.0501 96.5921Z" fill="white"/>
</g>
</g>
<defs>
<clipPath id="clip0_2033_4397">
<rect width="100.165" height="101" fill="white" transform="translate(0.224609 3.8501) rotate(-1.95544)"/>
</clipPath>
<clipPath id="clip1_2033_4397">
<rect width="100.165" height="101" fill="white" transform="translate(0.224609 3.8501) rotate(-1.95544)"/>
</clipPath>
</defs>
</svg>
