<svg width="43" height="50" viewBox="0 0 43 50" fill="none" xmlns="http://www.w3.org/2000/svg">
<g clip-path="url(#clip0_2033_4606)">
<path d="M25.6622 16.7738C24.7852 17.0556 23.9104 17.3663 23.0224 17.6036C22.3148 17.7925 21.5873 17.8992 20.8687 18.0436C20.7018 18.0764 20.5172 18.1003 20.3857 18.1955C20.2809 18.2707 20.247 18.4485 20.115 18.7105C20.4952 18.6961 20.7331 18.7213 20.9578 18.6731C22.1527 18.4124 23.3454 18.1338 24.538 17.8664C24.7761 17.8138 25.0164 17.7679 25.2545 17.7264C26.0932 17.5868 26.9319 17.4472 27.8974 17.288C27.4228 17.5999 27.0065 17.752 26.5615 17.8618C25.856 18.0352 25.1132 18.0839 24.4847 18.5355C24.302 18.6661 24.0152 18.6607 23.7793 18.7089C22.9204 18.8996 22.0616 19.0791 21.2005 19.2743C21.107 19.294 21.0245 19.3582 20.9199 19.4112C21.0137 19.9652 21.484 19.6176 21.748 19.7785L22.0018 20.3908C22.6174 20.484 23.2224 20.4214 23.8143 20.2855C24.9336 20.02 26.0441 19.7168 27.1501 19.4224C27.6375 19.295 28.1205 19.1431 28.7392 18.965C28.6227 19.2292 28.5934 19.3647 28.5197 19.4668C27.039 21.4765 25.4475 23.397 23.6453 25.1278C22.6951 26.0408 21.7051 26.9226 20.6707 27.7375C19.2307 28.8713 17.7729 29.9851 16.2554 31.0074C14.7335 32.0276 13.1496 32.9608 11.548 33.8629C10.2493 34.5947 8.91302 35.2686 7.55248 35.8801C6.3055 36.4431 5.01658 36.9126 3.72325 37.3687C3.03761 37.6133 2.32411 37.5376 1.64467 37.2397C1.51144 37.1837 1.38045 37.1232 1.18726 37.0426C1.26899 37.2118 1.31313 37.312 1.36396 37.41C1.19385 37.7586 0.961244 37.491 0.75676 37.4659C0.795147 37.9752 1.21142 38.519 1.72903 38.663C2.05116 38.753 2.40237 38.7853 2.74033 38.7886C4.85493 38.7798 6.92389 38.4418 8.98003 37.9414C10.3886 37.5991 11.7554 37.1299 13.0978 36.6095C14.3022 36.1419 15.4537 35.5364 16.6229 34.9732C18.3466 34.1382 19.9686 33.1295 21.544 32.0584C24.6727 29.9272 27.4314 27.3701 29.9442 24.5499C30.4954 23.9313 31.0266 23.286 31.5689 22.6629C31.7274 22.4811 31.9036 22.3193 32.1646 22.0556C32.1682 22.3135 32.19 22.447 32.1674 22.5692C31.8483 24.2958 31.527 26.0269 31.1924 27.7513C31.1177 28.1424 31.0543 28.5224 31.3664 28.9526L31.8621 27.6156C32.0157 28.2387 31.6961 28.7735 31.5673 29.3935L32.1226 29.5731C32.5822 29.1032 32.5931 28.474 32.8149 27.9455C32.9381 27.6569 32.9703 27.3279 33.0558 27.0258C33.1097 26.8525 33.1992 26.686 33.4019 26.5599L32.6032 29.4702C33.075 29.3405 33.3583 29.0657 33.4864 28.657C33.7425 27.8396 34.0119 27.0288 34.2125 26.2001C34.8547 23.534 35.5081 20.8789 36.6746 18.3768C37.0776 17.5109 37.394 16.607 37.7548 15.7254C37.9789 15.1813 38.2385 14.6663 38.6269 14.2051C39.0063 13.7616 39.3081 13.2511 39.632 12.7964L39.6401 11.6535L39.0896 11.376L39.4356 10.9435C39.3652 10.7076 39.3016 10.4473 39.2157 10.198C39.0438 9.69934 38.784 9.59622 38.3208 9.83043C38.1938 9.8945 38.0802 9.97641 37.7638 10.1733C37.811 10.0022 37.8291 9.93335 37.8426 9.86225C37.8562 9.79114 37.8631 9.72223 37.8722 9.64888L36.6721 9.46714C36.3156 9.68835 35.819 9.92245 35.4177 10.2658C34.4054 11.1253 33.232 11.6529 31.9922 12.0581C30.4096 12.58 28.8358 13.1174 27.2444 13.6015C25.9624 13.9909 24.6978 14.5116 23.3368 14.5828C22.5473 14.6248 21.9122 15.0452 21.202 15.3275L21.1207 15.7208L20.5016 16.0324C20.6317 16.3485 20.8611 16.2581 21.0591 16.2187C21.9023 16.0702 22.7433 15.915 23.5865 15.7666C23.7199 15.7447 23.8622 15.7608 24.0312 15.7569C23.9789 16.1258 23.7231 16.1472 23.4962 16.1887C22.6106 16.366 21.7185 16.5343 20.8351 16.7183C20.5859 16.7708 20.3455 16.8723 20.1229 16.9383C20.1348 17.3786 20.3771 17.4172 20.6373 17.3869C21.051 17.3393 21.4626 17.2851 21.8675 17.1996C22.7531 17.0113 23.632 16.8029 24.5243 16.6012L25.6467 16.7604L25.7845 16.7631L25.6555 16.7871L25.6622 16.7738ZM11.3925 36.5795C11.4237 36.5618 11.4593 36.5464 11.4905 36.5287L11.5168 36.6422C11.5545 36.6779 11.5967 36.6936 11.6456 36.696L11.7123 36.685L11.6368 36.6692L11.1889 36.9502L10.795 37.0801L10.6858 37.1309L10.6729 37.013L10.413 36.9432L9.82753 37.1437L9.62503 37.192C9.16207 37.3372 8.71442 37.5626 8.18782 37.4475L9.58756 37.0896L9.78789 37.0235L10.3822 36.8386L10.785 36.7243L10.9919 36.6894C11.0564 36.6718 11.1254 36.6565 11.1922 36.6345L11.388 36.5773L11.3925 36.5795ZM10.0167 35.7079L9.8142 35.7562L9.55338 35.9644L9.3685 36.066L8.509 36.4457L8.3021 36.4806L8.24641 36.5138L8.31091 36.5074L8.49579 36.4057L9.35088 36.0126L9.55778 35.9777L9.82081 35.7762L10.0167 35.7079L10.2192 35.6597L10.3535 35.371L9.81971 35.4249L9.60827 35.4909L9.3608 35.6947L9.15823 35.7652L8.9535 35.8179L8.88892 35.8466L8.96231 35.8446L9.16704 35.7919L9.36737 35.7258L9.61707 35.5176L9.82852 35.4516L10.4788 35.1224L10.5923 35.1072L10.4722 35.1024L10.3224 35.3776L10.6932 35.5255L10.2126 35.6285L10.0167 35.6968L10.0167 35.7079ZM17.8602 33.2584L18.1122 33.0457L18.3147 32.9863C18.4823 32.72 18.7163 32.554 19.0366 32.5262L19.2974 32.3291L19.4175 32.3117L19.2886 32.3024L19.03 32.5061C18.8712 32.788 18.6218 32.9295 18.3059 32.9596L18.1056 33.0146L17.8581 33.2294L17.8181 33.2427L17.8669 33.2562L17.8602 33.2584ZM19.4208 32.6919L19.1688 32.9157L18.7077 33.1788L17.8031 33.7585C17.3977 33.9773 16.999 34.1939 16.5936 34.4127L16.3955 34.4744L16.1369 34.6781L16.0724 34.6957L16.1413 34.7026C16.226 34.6339 16.3129 34.5608 16.3977 34.4922L16.5935 34.4239L17.7589 33.6583L18.6988 33.1743L19.1599 32.9112L19.4273 32.7231L19.6298 32.6748L19.8795 32.4666L19.9241 32.4445L19.8774 32.4488L19.6277 32.6459L19.4252 32.6942L19.4208 32.6919ZM15.2276 33.2454L15.484 33.035C15.6067 32.9243 15.7138 32.789 15.8542 32.6983C17.2714 31.7534 18.6997 30.8196 20.1124 29.8725C20.8344 29.3901 21.5498 28.8877 22.2673 28.3919C22.3098 28.3409 22.3588 28.2877 22.2941 28.3609C22.3809 28.3433 22.3186 28.3565 22.2563 28.3696C22.1714 28.4828 22.1043 28.616 21.9973 28.7068C20.4074 30.1158 18.6139 31.2329 16.8203 32.35C16.397 32.6155 15.9228 32.7941 15.473 33.0128L15.2144 33.2165C15.1854 33.2409 15.1587 33.2608 15.1854 33.2409C15.1476 33.2385 15.1854 33.2409 15.2276 33.2454ZM18.7633 30.3951L18.5136 30.5922L18.5224 30.6189L18.7743 30.4285L19.0396 30.2226C19.1177 30.1339 19.1825 30.0274 19.2695 29.9543C20.4978 28.9643 21.7306 27.9766 22.9634 26.9889C23.4939 26.5659 24.02 26.1518 24.555 25.731L24.8983 25.4475C24.9452 25.3988 24.9876 25.3478 24.9363 25.4054C25.003 25.3834 24.9429 25.4032 24.8895 25.4208L24.5815 25.8C24.4944 25.9176 24.4317 26.053 24.3269 26.1505C23.0423 27.3293 21.7467 28.497 20.3116 29.4885C19.9171 29.7629 19.5712 30.1732 19.0307 30.207L18.7611 30.3996L18.7633 30.3951ZM32.5313 27.6355C32.5315 27.5688 32.5273 27.4999 32.5293 27.5733C32.5517 27.5066 32.5293 27.5733 32.5068 27.6399C32.6506 27.8738 32.4989 28.0423 32.3805 28.2221C32.4838 28.5804 32.325 28.8734 32.0751 29.1372L32.3982 28.2199C32.2456 27.9815 32.464 27.8243 32.5313 27.6355ZM30.8334 21.8356C30.7283 22.0109 30.7208 22.2688 30.4406 22.2946L29.7996 23.1908C29.9923 22.7201 30.0905 22.6025 30.4472 22.3146C30.5412 22.1282 30.5531 21.8725 30.84 21.8556L31.1309 21.2785C31.0986 21.6408 31.0603 21.8052 30.829 21.8334L30.8334 21.8356ZM25.23 27.4075C24.9171 27.9068 24.4491 28.2388 23.9811 28.5708C23.9387 28.6218 23.8985 28.6684 23.9387 28.6218C23.8875 28.6461 23.9387 28.6218 23.9899 28.5976C24.2607 28.0492 24.6689 27.6592 25.2366 27.4275C25.2746 27.3743 25.3103 27.3255 25.2679 27.3876C25.3391 27.3567 25.2835 27.3788 25.23 27.4075ZM26.6782 26.4894C26.3565 26.9842 25.997 27.4322 25.4205 27.6483L25.2416 27.959L25.1684 27.8943L25.4293 27.675C25.8087 27.2426 26.1216 26.7433 26.6826 26.5139L26.8793 26.2121L26.9568 26.2902L26.676 26.4938L26.6782 26.4894ZM33.7269 22.3029L33.5959 22.9384L33.4515 22.8935L33.7514 22.2986C33.7803 21.6005 34.0674 20.821 34.5405 20.3133L33.7247 22.3074L33.7269 22.3029ZM33.8459 24.011L33.8658 24.06L33.8682 23.9999C33.9523 23.4354 33.9942 22.8552 34.1249 22.2976C34.3031 21.5355 34.539 20.7802 34.9258 20.0899C34.8801 20.4789 34.8011 20.8567 34.6887 21.2232C34.4145 22.154 34.1269 23.078 33.8437 24.0043L33.8459 24.011ZM27.8828 21.835C28.2208 21.1424 30.0895 18.7603 30.5528 18.515C30.1082 19.1762 29.6458 19.8284 29.1391 20.4471C28.7462 20.9284 28.2979 21.365 27.8739 21.8194L27.7063 22.0857L27.6354 22.0277L27.8783 21.8439L27.8828 21.835ZM26.5877 15.9096C28.1552 15.252 31.2402 14.2458 31.7294 14.2585C31.5778 14.3825 31.4884 14.5045 31.3727 14.5464C29.9414 15.0221 28.5013 15.4933 27.059 15.9467C26.921 15.9885 26.7434 15.9101 26.5811 15.8896L26.5855 15.9141L26.5877 15.9096ZM26.5547 24.1276C26.6084 24.0211 26.6488 23.8967 26.7225 23.8058C28.1089 22.0492 29.4998 20.2949 30.8951 18.5428C31.0023 18.4075 31.1405 18.299 31.2632 18.1771C31.2155 18.4704 31.0947 18.7102 30.9428 18.9231C30.6592 19.3202 30.3555 19.7017 30.0697 20.0921C29.1585 21.3255 28.2451 22.5633 27.1455 23.6404C26.967 23.8177 26.7442 23.9504 26.5392 24.1031C26.4967 24.1652 26.461 24.2252 26.519 24.1431C26.4299 24.1873 26.4901 24.1563 26.5502 24.1254L26.5547 24.1276ZM38.8188 10.5324C38.6217 10.9676 38.5605 11.3321 38.0509 11.4594C38.2256 11.0797 38.2757 10.7152 38.8188 10.5324ZM37.7152 11.4516C37.7607 11.8142 37.6356 12.0073 37.2773 12.0995C37.2628 11.7637 37.3037 11.517 37.7152 11.4516ZM37.8968 12.3728C37.8781 12.6455 37.765 12.8037 37.5573 12.8475C37.5425 12.6007 37.6364 12.4475 37.8968 12.3728ZM37.0638 12.7992C37.121 12.9877 37.0592 13.0809 36.8784 13.0788L37.0638 12.7992ZM33.5227 20.8192L33.5804 20.8483L33.4081 21.1902L33.3504 21.1611L33.5227 20.8192Z" fill="#BB6BD9"/>
<path d="M11.341 36.6927L11.1944 36.6189L11.0007 36.705L10.9225 36.827L11.2022 36.968L11.3432 36.6883L11.341 36.6927Z" fill="#BB6BD9"/>
<path d="M11.5457 36.6291L11.3903 36.5508L11.3142 36.7017L11.5457 36.6291Z" fill="#BB6BD9"/>
<path d="M10.6529 37.0308L10.8038 37.1069L10.9448 36.8272C10.8914 36.8448 10.8491 36.8402 10.8114 36.8156L10.6506 37.0352L10.6529 37.0308Z" fill="#BB6BD9"/>
</g>
<defs>
<clipPath id="clip0_2033_4606">
<rect width="42.5844" height="25.2673" fill="white" transform="translate(0.477539 38.0491) rotate(-63.2508)"/>
</clipPath>
</defs>
</svg>
