<svg width="63" height="59" viewBox="0 0 63 59" fill="none" xmlns="http://www.w3.org/2000/svg">
<path d="M45.988 36.2363L45.9607 37.6887L45.9659 37.9154L45.9106 38.1435C46.1128 39.549 46.1601 40.9618 46.0678 42.3816L46.2397 42.6272C46.3162 42.6632 46.4566 42.6865 46.4615 42.7355C46.5039 42.9387 46.5124 43.1464 46.5173 43.358C46.5369 44.2195 46.5605 45.0847 46.5613 45.9504C46.5607 46.2529 46.6442 46.5988 46.2663 46.9401C46.277 46.5807 46.2982 46.3496 46.2816 46.1194C46.2541 45.5756 46.2078 45.0361 46.1727 44.4925L45.8582 44.6282C45.9388 44.3504 45.9985 44.1487 46.0581 43.9469C46.0527 43.8752 46.0471 43.796 46.0417 43.7243L46.0177 43.5018L46.0013 43.2791L45.9849 43.0564L45.9685 42.8337L45.9583 42.3879C45.9251 42.2601 45.8695 42.1404 45.8629 42.0158C45.8264 40.9165 45.7939 39.8209 45.7803 38.7286C45.7797 38.5358 45.8659 38.3373 45.9106 38.1435L45.8564 37.9217L45.8551 37.6986C45.7183 37.0062 45.5891 36.3135 45.4523 35.621C45.3883 35.3011 45.4028 34.9454 45.0518 34.6397C44.9238 35.1605 45.1746 35.548 45.218 35.959C45.2572 36.3513 45.2437 36.7523 45.162 37.1474L44.7903 35.9348C44.7525 35.9356 44.7147 35.9365 44.6769 35.9374C44.6351 35.927 44.5973 35.9278 44.5599 35.9438L44.4843 35.9455C44.4256 36.0225 44.3176 36.0968 44.3194 36.1723C44.3172 36.4068 44.349 36.6442 44.3846 36.8778C44.6995 38.9159 44.599 40.971 44.5551 43.021C44.5161 44.6248 44.5338 46.2311 44.4229 47.8328C44.2774 49.904 43.9083 51.9539 43.3987 53.973C43.2774 54.4559 43.0877 54.9252 43.0232 55.4106C42.8975 56.3623 43.0941 57.1933 44.0981 57.6203C44.3882 57.7422 44.6567 57.91 44.9466 58.0244C45.1106 58.0849 45.3156 58.1256 45.4772 58.0803C46.3716 57.8482 47.2538 57.5747 47.9026 56.8492C48.2748 56.4286 48.7324 56.1044 49.2576 55.9261C50.2256 55.6016 50.9058 54.9282 51.5234 54.158C52.3838 53.095 53.2441 52.0319 54.1391 50.9946C55.7522 49.1204 57.4037 47.2757 59.013 45.3978C60.1251 44.1022 61.2639 42.8173 62.1029 41.3125C62.3679 40.8338 62.6061 40.3369 62.8596 39.8473L62.5275 39.2122L62.7189 38.4857L62.3151 38.1887C61.5541 38.7996 61.1767 39.6588 60.6184 40.3747C60.0565 41.0945 59.5291 41.84 58.9825 42.5745L58.8402 42.4681C59.3203 41.8032 59.8311 41.1602 60.2729 40.4734C60.8133 39.6369 61.3038 38.7675 61.7982 37.9019C61.8636 37.7869 61.8179 37.6027 61.8225 37.4741C61.5038 37.2583 61.2827 37.3428 61.1184 37.5998C60.976 37.8185 60.8834 38.0702 60.7448 38.2926C60.2559 39.0674 59.7672 39.8498 59.2553 40.61C59.12 40.8135 58.9744 41.0587 58.6122 41.0897C58.5746 40.7654 58.7662 40.5493 58.9199 40.3266C59.5271 39.4356 60.146 38.5558 60.7454 37.6575C60.8953 37.431 61.1281 37.1951 60.9347 36.8403C60.5601 36.6599 60.3814 36.9475 60.2019 37.1973C59.9745 37.5049 59.7588 37.8236 59.4202 38.062L60.0037 36.7935C59.7234 36.7722 59.4579 36.8438 59.2071 37.0083L58.7249 36.9172C58.1904 37.5154 57.3839 37.7947 56.9822 38.5788C56.2477 40.0208 55.1865 41.2321 54.0866 42.3989C54.0164 42.4724 53.9231 42.5236 53.7668 42.6331C53.7625 42.4441 53.7295 42.3239 53.7612 42.2211C54.7133 39.2128 55.5625 36.1728 56.237 33.0915C56.7913 30.5459 57.2392 27.9725 57.1567 25.3507C57.1166 24.0927 57.0613 22.8275 56.6479 21.6121C56.5586 21.3419 56.548 21.0435 56.5263 20.7567C56.388 18.8356 56.0763 16.9411 55.5163 15.0977C54.7928 12.7136 53.7398 10.4731 52.1384 8.55136C49.6041 5.5092 46.5897 3.13202 42.7539 1.86993C40.8685 1.25138 38.9596 0.765673 36.9972 0.583631C33.9285 0.298301 30.9082 0.643208 27.9493 1.52732C23.8566 2.75487 20.12 4.67746 16.6691 7.19086C14.393 8.83817 12.323 10.7341 10.2765 12.6672C8.23739 14.5927 6.44107 16.7205 4.81816 18.9918C3.7154 20.5329 2.86565 22.2271 2.06949 23.9503C1.78118 24.5693 1.47389 25.185 1.11267 25.7565C0.806137 26.2398 0.782048 26.6751 1.05758 27.1527C1.5903 27.4695 2.06732 27.3338 2.39773 26.9029C2.82731 26.3449 3.21052 25.7426 3.54031 25.1189C4.37753 23.5384 5.20316 21.9469 6.29356 20.527C7.23713 19.2995 8.23815 18.1047 9.28186 16.9581C12.1951 13.7462 15.4889 10.9718 19.113 8.59435C22.1673 6.58903 25.4522 5.08504 29.0123 4.20611C33.4032 3.12297 37.7281 3.29268 41.9445 4.99974C45.2832 6.34879 47.9452 8.5223 49.8826 11.5856C51.4434 14.0451 52.1856 16.7501 52.4552 19.6172C52.4956 20.0623 52.5511 20.5072 52.5915 20.9523C52.6275 21.3712 52.6444 21.7791 52.4344 22.1846C52.3259 22.3988 52.3665 22.6889 52.3256 23.049C52.06 23.1723 51.9952 23.48 52.0641 23.8489C52.4123 25.6896 52.2235 27.5199 51.8756 29.3387C51.5071 31.2487 51.0703 33.1451 50.6714 35.0482C50.6168 35.3066 50.5924 35.5642 50.5493 35.826L50.7948 35.8166L51.0178 35.8153L51.0628 35.7992L51.0173 35.7927L50.7943 35.794L50.5526 35.807C50.1526 37.162 49.7564 38.5207 49.3488 39.8759C49.1062 40.6791 48.8523 41.4788 48.5906 42.2711C48.5199 42.4844 48.4073 42.6873 48.1774 42.8816C48.1536 42.6667 48.1222 42.4519 48.1098 42.2405C47.9996 40.7232 47.8932 39.2097 47.7793 37.6963C47.6982 36.6283 47.3132 35.6617 46.6953 34.7609C46.3765 34.5376 46.0153 34.4513 45.5504 34.6207L45.8724 35.4753L45.8536 35.4795L45.9166 34.7636C46.1116 35.0238 46.1712 35.3173 46.2758 35.5946C46.3202 35.7184 46.4434 35.8139 46.5367 35.9252L46.6084 35.9197L46.5398 35.8986C46.1721 36.183 46.601 36.5928 46.3596 36.9461L45.9924 36.2627L46.0075 36.2624L45.988 36.2363ZM47.0388 42.6883L47.0338 42.4692L47.0249 42.2463L47.0236 42.0233L47.0072 41.8006L47.0059 41.5776L46.9932 41.3511L46.9809 41.3098L46.9629 41.3518L46.9757 41.5783L46.977 41.8013L46.9934 42.024L46.9947 42.247L46.996 42.47L47.001 42.6892L47.0061 42.7458L47.0237 42.6887L47.0388 42.6883ZM51.6784 35.7738L51.6299 35.8014L51.6788 35.7889L51.7201 35.7766L51.6709 35.774L51.6784 35.7738ZM54.5645 24.0791L54.5104 23.8649L54.475 23.6389L54.4471 22.7473L54.5063 22.5229L54.3756 22.265L54.4922 22.2359L54.495 22.527L54.5643 22.7484L54.5771 23.6403L54.5407 23.8642L54.5381 24.0835L54.5318 24.1366L54.5683 24.0828L54.5645 24.0791ZM40.4293 3.37469L40.3005 3.36251L40.4298 3.39736L40.7647 3.49557L41.1033 3.58992C41.7096 3.65169 42.2798 3.7899 42.7221 4.28639L41.1037 3.60503L40.7684 3.49171L40.433 3.37083L40.4293 3.37469ZM27.1272 3.60267L27.2024 3.58583L27.1303 3.57613C26.5191 3.96057 24.8574 4.53154 24.2748 4.51459C24.8698 4.24772 25.465 3.98841 26.0804 3.78534C26.4143 3.67564 26.7807 3.6635 27.1347 3.6025L27.1272 3.60267ZM35.3757 2.25759L35.2548 2.26035L35.3764 2.28782C36.393 2.10583 37.6817 2.25033 38.5426 2.70324C38.0767 2.66472 37.7513 2.64947 37.4253 2.61154C36.7733 2.53569 36.1287 2.45211 35.4802 2.36484C35.4423 2.35814 35.4068 2.29468 35.372 2.26145L35.3757 2.25759ZM37.4881 1.88803L37.3662 1.84545L37.4848 1.90701C38.6134 1.66199 39.6308 2.01304 40.621 2.5008L40.6776 2.49573L40.6242 2.47427C39.5531 2.41932 38.5017 2.23539 37.488 1.88048L37.4881 1.88803ZM53.7352 17.3953C53.3589 17.1392 53.3679 16.7043 53.3257 16.3461C53.2102 15.4301 52.9672 14.5548 52.6265 13.7044C52.5903 13.6107 52.6141 13.4929 52.6073 13.3608C52.6951 13.4004 52.7329 13.3995 52.7371 13.4183C53.4194 14.6541 53.5529 16.0309 53.7089 17.3997C53.7136 17.4411 53.7259 17.4824 53.7173 17.4373C53.6956 17.4831 53.7173 17.4373 53.7354 17.4028L53.7352 17.3953ZM14.0933 10.119L13.7192 10.4565L13.6683 10.3782L14.1016 10.1491C14.2825 9.95971 14.4323 9.73324 14.6405 9.57727C15.8414 8.6917 17.0577 7.82089 18.2741 6.95008C18.3224 6.91495 18.4175 6.93925 18.493 6.93752L18.7638 6.70829L18.811 6.79039L18.4923 6.90729C18.3222 7.06996 18.1676 7.25495 17.9818 7.39529C16.9968 8.13228 16.0116 8.86171 15.0109 9.57638C14.7246 9.78328 14.4031 9.94184 14.0972 10.1227L14.0933 10.119ZM25.8874 3.28316L25.9518 3.28547L25.8831 3.25679C25.7867 3.34216 25.6984 3.45003 25.59 3.50165C24.4606 4.04157 23.3235 4.57411 22.1862 5.09909C21.913 5.22252 21.6279 5.31976 21.3432 5.43211C21.3925 5.2722 21.4811 5.17945 21.5894 5.12027C22.258 4.76855 22.9223 4.39046 23.6149 4.09112C24.3525 3.77563 25.126 3.54627 25.8836 3.27946L25.8874 3.28316ZM16.8616 8.66841L12.1966 12.321C13.5774 10.868 15.1139 9.61561 16.8616 8.66841ZM51.6119 12.1511L51.4593 12.2566C51.1328 11.7008 50.7577 11.1649 50.4836 10.5852C50.2056 10.0018 49.6775 9.55642 49.4183 8.79868C50.6715 9.70764 51.0521 10.9805 51.6156 12.1472L51.6119 12.1511ZM41.8716 3.29641C43.2649 3.38559 44.5022 3.93198 45.2767 4.73845C44.0552 4.22194 42.9633 3.75539 41.8716 3.29641V3.29641ZM53.96 16.9743C54.613 18.2561 54.777 19.9725 54.3619 20.67C54.3125 19.9944 54.2835 19.3902 54.2169 18.7868C54.1502 18.1835 54.0494 17.5771 53.9639 16.978L53.96 16.9743ZM33.909 2.09826C33.2985 2.18024 32.6798 2.23972 32.07 2.35194C31.155 2.5127 30.6342 2.55482 30.2383 2.43532C31.5246 1.97877 32.9009 1.82261 33.9054 2.10212L33.909 2.09826ZM8.51606 15.539C7.84016 16.7339 6.97824 17.729 6.06238 18.6799C6.40497 18.1201 6.78234 17.5936 7.19046 17.089C7.61687 16.5576 8.07419 16.0557 8.51606 15.539V15.539ZM49.4827 7.31526C48.9201 7.17688 48.5041 6.83857 48.0379 6.12714C48.609 6.30313 48.9288 6.56425 49.4827 7.31526ZM44.6571 3.7621C45.7357 3.97944 46.2228 4.2821 46.6104 4.86679L44.6571 3.7621ZM48.0578 6.9962C47.4229 6.678 46.8177 6.32889 46.2686 5.62691C47.0419 6.0478 47.6471 6.39691 48.0578 6.9962ZM30.6871 1.72569C31.3976 1.38435 32.1288 1.2845 33.0199 1.40404C32.1931 1.61949 31.4964 1.73746 30.6871 1.72569V1.72569ZM45.4921 6.06048L45.5836 5.92608C46.1323 6.28026 46.8099 6.48407 47.0347 7.22369L45.4883 6.05679L45.4921 6.06048ZM53.5482 13.8383C53.0413 13.1618 52.937 12.8996 52.8858 12.1484C53.2617 12.7145 53.5186 13.2039 53.5482 13.8383ZM50.6761 9.24632C51.1218 9.56127 51.4448 9.96597 51.6639 10.6188C51.1365 10.2036 50.8282 9.78346 50.6761 9.24632ZM50.9118 8.80618C51.4115 9.0027 51.7066 9.34377 51.7153 9.89175L50.9118 8.80618ZM31.8213 2.72054C31.4207 2.89224 31.015 3.00735 30.4494 2.90307C30.9715 2.58871 31.3999 2.6432 31.8213 2.72054ZM48.6327 53.5549C49.0388 52.7971 49.3162 52.5299 49.8216 52.3104L48.6327 53.5549ZM26.1372 2.79733C26.2818 2.50672 26.511 2.44478 26.8013 2.57425L26.1372 2.79733ZM48.7432 6.05434L48.806 5.98864L49.4282 6.58309L49.3654 6.64879L48.7432 6.05434ZM45.4083 54.7324C45.4066 54.9895 45.4758 55.2034 45.1188 55.2985C45.1057 55.0568 45.0136 54.8283 45.4083 54.7324ZM44.4428 55.9906L44.3015 55.9296L44.488 55.4868L44.6407 55.5513L44.4503 55.9904L44.4428 55.9906ZM17.2481 8.37983L17.1944 8.34326L17.4492 8.07659L17.4839 8.10982L17.2481 8.37983V8.37983ZM1.30718 26.6594L1.24534 26.6003L1.46688 26.3684L1.52871 26.4275L1.30718 26.6594Z" fill="#F9B500"/>
</svg>
