<svg width="87" height="93" viewBox="0 0 87 93" fill="none" xmlns="http://www.w3.org/2000/svg">
<path d="M54.2248 67.7451L56.392 67.6804L56.7304 67.6844L57.0699 67.5981C59.171 67.8768 61.2805 67.9242 63.3981 67.7631L63.7674 68.0156C63.8225 68.1291 63.8595 68.3383 63.9328 68.3448C64.2368 68.4048 64.5469 68.4141 64.8628 68.4179C66.149 68.433 67.4407 68.4539 68.7328 68.441C69.1842 68.435 69.7019 68.5539 70.2051 67.9844C69.6688 68.0063 69.3243 68.0417 68.9804 68.0207C68.1683 67.9886 67.3623 67.9283 66.5504 67.8849L66.7478 67.4133C66.3344 67.5382 66.0343 67.6305 65.7342 67.7229C65.6271 67.716 65.5087 67.709 65.4016 67.7021L65.0691 67.6699L64.7365 67.6491L64.4039 67.6282L64.0713 67.6074L63.4056 67.5995C63.2144 67.5521 63.0348 67.471 62.8487 67.4632C61.2074 67.4269 59.5716 67.3963 57.9412 67.394C57.6534 67.3962 57.3585 67.5282 57.0699 67.5981L56.738 67.5209L56.4051 67.5226C55.3693 67.3298 54.3333 67.1483 53.2975 66.9556C52.8191 66.8653 52.2884 66.8929 51.8263 66.374C52.6015 66.1744 53.1839 66.5424 53.7982 66.6004C54.3843 66.6525 54.9827 66.6257 55.5709 66.4972L53.755 65.9624C53.7556 65.906 53.7563 65.8496 53.757 65.7931C53.7408 65.7309 53.7414 65.6745 53.7647 65.6183L53.766 65.5055C53.8799 65.4166 53.989 65.2543 54.1018 65.2556C54.4517 65.2484 54.8066 65.2921 55.1558 65.3414C58.2029 65.7779 61.2685 65.5941 64.3275 65.4947C66.7206 65.4101 69.1184 65.4102 71.5071 65.2184C74.5961 64.9671 77.6496 64.3826 80.6547 63.5887C81.3735 63.3997 82.0708 63.1089 82.7942 63.0046C84.2127 62.8013 85.4562 63.0811 86.11 64.5726C86.2967 65.0036 86.5515 65.4016 86.727 65.8324C86.82 66.0761 86.8841 66.3815 86.8192 66.6233C86.4875 67.9622 86.0939 69.2833 85.0217 70.2636C84.4001 70.8261 83.9237 71.5144 83.6662 72.3012C83.1977 73.7513 82.2039 74.7777 81.0646 75.712C79.4921 77.0136 77.9196 78.3153 76.386 79.6681C73.6153 82.1065 70.8891 84.6019 68.1128 87.0346C66.1974 88.7158 64.2984 90.4367 62.0661 91.7136C61.3561 92.1171 60.6184 92.4807 59.8917 92.867L58.9383 92.3819L57.8572 92.6794L57.4073 92.0817C58.3065 90.9358 59.5828 90.3585 60.6421 89.5134C61.7071 88.6628 62.8111 87.8634 63.8984 87.0356L63.7373 86.825C62.7527 87.5524 61.8014 88.3254 60.7836 88.996C59.544 89.8164 58.2545 90.5628 56.9706 91.3149C56.8002 91.4145 56.5245 91.3492 56.3326 91.3582C56.0053 90.8861 56.1277 90.5546 56.5086 90.3053C56.8327 90.089 57.2068 89.9468 57.5365 89.7363C58.6849 88.9938 59.8446 88.2515 60.9708 87.475C61.2722 87.2698 61.6359 87.0484 61.6762 86.5073C61.1916 86.4564 60.8722 86.746 60.5422 86.9791C59.2225 87.9 57.9194 88.8381 56.5885 89.7477C56.253 89.975 55.9047 90.3263 55.3721 90.0436C55.0965 89.4875 55.5229 89.216 55.8928 88.944C56.3482 88.5995 56.8203 88.2723 57.1705 87.763L55.2869 88.6547C55.2505 88.2368 55.3529 87.8393 55.5943 87.4623L55.4505 86.7441C56.3345 85.9365 56.738 84.7282 57.9018 84.1158C60.042 82.9957 61.8324 81.392 63.5558 79.7311C63.6643 79.6252 63.7393 79.485 63.9 79.25C63.618 79.2467 63.438 79.1994 63.2851 79.2484C58.8107 80.7188 54.2874 82.0364 49.6995 83.0937C45.9092 83.9629 42.0757 84.6737 38.1613 84.5937C36.283 84.5546 34.3938 84.4928 32.5729 83.8958C32.1682 83.7669 31.7226 83.7561 31.2942 83.7284C28.4246 83.5535 25.5919 83.1195 22.8313 82.314C19.261 81.2733 15.8997 79.7386 13.0051 77.38C8.42291 73.6475 4.82532 69.1875 2.87852 63.4833C1.9243 60.6794 1.16797 57.8383 0.863991 54.9123C0.387658 50.3368 0.852769 45.8232 2.12367 41.3925C3.88853 35.2638 6.69661 29.6552 10.3912 24.4632C12.8124 21.039 15.6081 17.9183 18.4597 14.832C21.3 11.7569 24.4463 9.04085 27.8096 6.58123C30.0917 4.90999 32.6063 3.61384 35.1651 2.39721C36.0842 1.95671 36.9981 1.48794 37.8452 0.939405C38.5615 0.47395 39.2108 0.430836 39.9282 0.834225C40.4097 1.62411 40.2151 2.33832 39.5773 2.83855C38.7516 3.4889 37.859 4.07075 36.9335 4.57323C34.5884 5.84881 32.2265 7.10726 30.1252 8.75807C28.3087 10.1866 26.5418 11.7003 24.8476 13.2769C20.1017 17.6779 16.015 22.6396 12.5261 28.0878C9.58336 32.6794 7.39262 37.607 6.13934 42.935C4.59493 49.5063 4.91936 55.9587 7.53656 62.2237C9.60497 67.1847 12.8928 71.122 17.4968 73.9633C21.1933 76.2524 25.2429 77.3157 29.5264 77.6709C30.1915 77.7239 30.8564 77.7994 31.5215 77.8524C32.1472 77.8993 32.7563 77.9177 33.3581 77.5976C33.6759 77.4321 34.1097 77.488 34.6465 77.421C34.8261 77.0225 35.2842 76.9208 35.836 77.0175C38.5891 77.507 41.3177 77.1951 44.0266 76.6459C46.8713 76.0645 49.6946 75.3813 52.5285 74.7547C52.9131 74.669 53.2973 74.6284 53.6874 74.5596L53.6774 74.9262L53.6791 75.2591L53.6557 75.3265L53.6453 75.2587L53.6435 74.9258L53.6591 74.5649C55.6749 73.9456 57.6962 73.3319 59.7121 72.7012C60.907 72.3261 62.0964 71.9339 63.2746 71.5303C63.5919 71.4212 63.8929 71.2499 64.1791 70.9035C63.8579 70.8715 63.5368 70.8282 63.221 70.8132C60.9547 70.6736 58.6939 70.5397 56.4333 70.3946C54.8379 70.2911 53.3889 69.7324 52.0343 68.825C51.6957 68.3527 51.561 67.8152 51.8062 67.1185L53.087 67.585L53.093 67.5568L52.0254 67.6627C52.417 67.9494 52.856 68.0336 53.2717 68.1852C53.4572 68.2494 53.6017 68.4317 53.7693 68.569L53.7624 68.6762L53.7298 68.5742C54.1482 68.0206 54.7669 68.6542 55.2903 68.288L54.2642 67.7512L54.2639 67.7737L54.2248 67.7451ZM63.8719 69.2073L63.5447 69.2034L63.2119 69.1939L62.879 69.1956L62.5464 69.1747L62.2135 69.1764L61.8752 69.1612L61.8134 69.1435L61.8757 69.116L62.2141 69.1313L62.547 69.1296L62.8796 69.1505L63.2125 69.1487L63.5453 69.147L63.8725 69.1509L63.9571 69.1575L63.8721 69.1847L63.8719 69.2073ZM53.628 76.2458L53.6683 76.173L53.6505 76.2461L53.6329 76.3079L53.6281 76.2345L53.628 76.2458ZM36.2208 80.7456L35.9001 80.6685L35.5622 80.6194L34.231 80.5924L33.8971 80.6844L33.5101 80.4936L33.4685 80.668L33.9029 80.6675L34.2346 80.7673L35.566 80.7718L35.8996 80.7136L36.2269 80.7062L36.306 80.6959L36.2264 80.7514L36.2208 80.7456ZM5.08619 59.9889L5.06589 59.7968L5.12004 59.9893L5.27212 60.4876L5.41851 60.9914C5.52068 61.8953 5.73633 62.7441 6.48464 63.3961L5.44107 60.9917L5.26642 60.4931L5.08048 59.9945L5.08619 59.9889ZM5.20768 40.1313L5.18378 40.2438L5.16813 40.1365C5.73186 39.2179 6.55672 36.7283 6.52185 35.8591C6.13332 36.7515 5.75607 37.6441 5.46311 38.5659C5.30487 39.0661 5.29278 39.6133 5.20755 40.1426L5.20768 40.1313ZM3.33576 52.4647L3.33789 52.2842L3.38089 52.4652C3.126 53.9855 3.36285 55.9065 4.053 57.184C3.98785 56.4893 3.95973 56.0038 3.89776 55.5179C3.77383 54.546 3.63848 53.5853 3.49755 52.6189C3.48694 52.5624 3.39164 52.5105 3.34147 52.4591L3.33576 52.4647ZM2.81893 55.6236L2.75337 55.4423L2.84721 55.6183C2.50006 57.3067 3.04074 58.8195 3.78503 60.2895L3.7784 60.374L3.74548 60.2947C3.64586 58.6969 3.35405 57.1306 2.80766 55.6235L2.81893 55.6236ZM26.2312 79.6179C25.8429 79.0604 25.1938 79.081 24.6585 79.0239C23.2895 78.8667 21.979 78.5183 20.7042 78.0238C20.5638 77.9713 20.3884 78.0087 20.1911 78.0008C20.2516 78.1312 20.2509 78.1877 20.279 78.1936C22.1347 79.1916 24.1919 79.3682 26.2373 79.5785C26.2993 79.5848 26.3612 79.6025 26.2936 79.5904C26.3617 79.5574 26.2936 79.5904 26.2425 79.618L26.2312 79.6179ZM14.7192 20.5707L15.2167 20.0067L15.0991 19.932L14.7642 20.5825C14.4845 20.8556 14.149 21.083 13.9196 21.3962C12.6176 23.2032 11.3379 25.0329 10.0582 26.8627C10.0066 26.9354 10.0444 27.0769 10.0431 27.1897L9.70538 27.5976L9.82869 27.6667L9.99794 27.1892C10.2379 26.9325 10.5115 26.6988 10.7179 26.4191C11.8017 24.9368 12.8742 23.4544 13.9244 21.9492C14.2285 21.5183 14.4598 21.0359 14.7248 20.5764L14.7192 20.5707ZM4.71041 38.2862L4.71492 38.3822L4.67099 38.2801C4.79682 38.1349 4.95637 38.0014 5.03163 37.8387C5.81891 36.1441 6.59503 34.4382 7.35988 32.7321C7.53961 32.3224 7.68005 31.8953 7.84306 31.4684C7.60521 31.5446 7.46822 31.6784 7.38168 31.841C6.86772 32.8448 6.31433 33.8425 5.87895 34.8811C5.42019 35.9871 5.09059 37.1454 4.70484 38.2805L4.71041 38.2862ZM12.5996 24.7262L17.9745 17.7036C15.8286 19.7883 13.9846 22.1022 12.5996 24.7262ZM18.3691 76.535L18.5242 76.3055C17.6892 75.8274 16.8833 75.2763 16.0135 74.8767C15.1382 74.4715 14.4647 73.6906 13.3295 73.3161C14.7068 75.1716 16.6129 75.7188 18.3634 76.5406L18.3691 76.535ZM4.99308 62.1429C5.14909 64.221 5.98495 66.0588 7.20137 67.2015C6.41037 65.3868 5.69608 63.7648 4.99308 62.1429ZM25.6066 79.9603C27.5305 80.9139 30.0949 81.1303 31.1292 80.4994C30.12 80.4367 29.2177 80.4035 28.3161 80.3139C27.4145 80.2242 26.5078 80.0838 25.6122 79.966L25.6066 79.9603ZM3.07383 50.2782C3.18615 49.3656 3.26476 48.4413 3.42221 47.5292C3.6471 46.1609 3.70141 45.3829 3.51655 44.794C2.85628 46.7213 2.64584 48.7781 3.07954 50.2727L3.07383 50.2782ZM22.717 12.1573C24.4893 11.1288 25.9603 9.82599 27.3645 8.4434C26.5346 8.96394 25.755 9.53584 25.0086 10.1533C24.2224 10.7984 23.4808 11.4893 22.717 12.1573ZM11.1165 73.4367C10.9007 72.5992 10.389 71.9838 9.31945 71.2998C9.59152 72.1493 9.9865 72.6222 11.1165 73.4367ZM5.73395 66.2928C6.07607 67.8991 6.53582 68.621 7.41487 69.1899L5.73395 66.2928ZM10.6169 71.3151C10.1315 70.3729 9.6005 69.4752 8.54374 68.6672C9.18465 69.8144 9.71567 70.7121 10.6169 71.3151ZM2.46477 45.4755C1.967 46.5416 1.82999 47.6345 2.02306 48.9626C2.33104 47.725 2.49566 46.6832 2.46477 45.4755ZM9.1781 67.5012L8.979 67.6399C9.51665 68.4531 9.83199 69.461 10.9396 69.7844L9.17252 67.4955L9.1781 67.5012ZM20.9193 79.3972C19.9013 78.6518 19.5081 78.5005 18.3862 78.4365C19.2372 78.9881 19.9719 79.3635 20.9193 79.3972ZM14.0183 75.186C14.4957 75.8461 15.1051 76.3216 16.083 76.6378C15.4547 75.8574 14.8225 75.4043 14.0183 75.186ZM13.3653 75.545C13.6668 76.2877 14.1807 76.7225 14.9987 76.7265L13.3653 75.545ZM3.96827 47.152C4.21796 46.5512 4.38309 45.9439 4.21814 45.1013C3.75754 45.8857 3.84592 46.5243 3.96827 47.152ZM80.1168 71.4075C78.9924 72.0261 78.5982 72.4446 78.2789 73.2024L80.1168 71.4075ZM3.98941 38.667C3.55803 38.8876 3.46936 39.2307 3.66738 39.6618L3.98941 38.667ZM9.22239 72.3537L9.12536 72.4485L10.0228 73.3674L10.1199 73.2726L9.22239 72.3537ZM81.8212 66.5756C82.2049 66.5689 82.5253 66.6686 82.6614 66.1342C82.3005 66.1187 81.9579 65.9849 81.8212 66.5756ZM83.6833 65.1138L83.5898 64.904L82.932 65.1896L83.0309 65.4164L83.6831 65.1251L83.6833 65.1138ZM12.1753 25.308L12.1198 25.2283L11.726 25.613L11.7762 25.6643L12.1753 25.308ZM39.1959 1.21487L39.1068 1.12355L38.7643 1.45801L38.8535 1.54933L39.1959 1.21487Z" fill="#F9B500"/>
</svg>
