<svg width="697" height="576" viewBox="0 0 697 576" fill="none" xmlns="http://www.w3.org/2000/svg">
<path d="M28.6357 114.447C32.1641 106.729 36.2681 99.336 40.9118 92.3338C43.7604 87.9081 46.9169 83.7094 49.8372 79.3322C51.0067 77.5733 52.0865 76.4911 54.3318 79.1407C51.9303 76.3283 53.4066 74.7968 54.8293 73.2433C56.772 71.3061 58.6087 69.2564 60.3314 67.103C61.836 65.0328 62.9447 65.1982 64.4742 67.8738C62.5347 61.9902 67.2367 60.0274 69.2885 57.0636C73.6476 50.7433 79.4641 45.7007 86.2447 42.3635C87.5734 41.8201 88.7946 41.0461 89.8591 40.0727C92.9565 36.7559 97.1404 35.4836 101.067 33.7506C104.983 31.913 109.006 30.308 113.116 28.9427C120.105 26.799 126.74 23.7492 133.887 21.9529C142.134 19.8759 150.412 17.8191 158.555 15.4209C179.876 9.14148 201.916 6.49872 224.047 4.29238C242.175 2.48572 260.379 1.18964 278.655 0.752856C300.072 0.37786 321.601 2.89261 342.71 8.23493C366.084 13.971 389.275 20.7854 412.834 25.4017C425.122 27.8102 437.517 29.1948 449.894 30.684C476.671 33.9071 502.71 40.7687 527.605 52.854C543.275 60.4549 557.813 70.3318 572.538 79.7981C590.269 91.1987 608.56 101.495 626.648 112.187C639.431 119.54 651.27 128.658 661.826 139.279C670.829 148.526 678.734 158.731 684.013 170.612C689.535 183.04 694.481 195.74 695.59 209.481C696.075 215.771 696.227 222.064 696.045 228.332C695.824 237.099 693.408 244.878 690.839 252.667C685.659 268.357 676.803 281.563 665.706 293.182C658.111 301.135 650.393 308.917 641.603 315.445C627.334 326.158 611.443 334.416 594.488 339.927C570.587 347.528 548.77 360.39 530.454 377.677C521.225 386.362 512.07 395.199 503.825 404.792C486.305 425.175 470.251 446.906 453.85 468.309C440.177 486.151 426.044 503.578 409.252 518.406C400.723 526.067 391.654 533.062 382.113 539.34C367.129 549.014 350.581 555.339 333.496 560.438C313.721 566.441 293.5 571.003 272.974 574.094C240.503 578.837 209.142 573.719 179.055 557.467C155.072 544.515 131.509 530.636 109.874 513.502C81.0137 490.646 59.6097 461.634 44.6543 427.365C37.2377 410.369 29.77 393.401 23.2104 376.081C15.5068 355.743 9.03091 335.024 5.65896 313.591C2.64427 295.478 1.02941 277.221 0.830232 259.001C0.768212 229.998 2.45756 201.236 8.28903 173.172C11.4467 157.967 15.3203 142.962 21.8418 128.978C24.1199 124.093 25.7608 118.854 28.6725 114.319C29.3854 115.499 29.1617 116.332 28.5408 117.584C26.6079 121.478 24.7006 125.443 24.1224 129.956C23.5808 130.125 23.097 130.438 22.7161 130.864C22.3351 131.291 22.0696 131.817 21.9442 132.395C20.5269 137.23 18.6347 141.894 17.2945 146.755C15.707 152.525 13.195 158.012 13.1034 164.253C11.3123 167.563 10.5642 171.423 10.9593 175.316C11.7892 171.653 14.6767 168.478 12.9592 164.204C13.8579 163.449 14.474 162.389 14.7108 161.191C16.2993 154.956 18.2816 148.88 20.1755 142.763C21.4892 138.519 24.5652 134.857 24.032 129.917C25.75 129.809 25.812 128.196 26.3124 127.042C28.6815 121.579 30.9732 116.079 33.8378 110.885C35.5466 107.786 37.1052 104.591 38.7319 101.44L37.8721 100.913C35.5754 104.843 33.1955 108.72 31.0344 112.734C30.4325 113.841 30.2695 115.062 28.6357 114.447ZM31.8066 126.053C30.6538 125.294 30.9877 123.858 30.3597 122.741C29.6674 125.028 26.9618 126.402 28.2778 129.986C29.5209 128.208 29.9963 126.291 31.8516 125.894C31.4867 129.835 28.8164 133.036 29.6894 137.529C30.1575 139.959 27.2053 141.992 27.2664 144.846C23.3708 144.023 25.3637 146.311 25.9805 147.801C26.6218 149.345 25.7353 150.475 25.1803 151.607C24.6208 152.91 24.2368 154.296 24.0385 155.727C22.5561 163.094 20.6957 170.356 19.0829 177.689C18.4783 180.44 17.3822 183.203 17.0998 185.795C16.7993 188.567 16.8825 191.581 16.5684 194.477C15.4048 205.164 13.5508 215.797 13.3161 226.563C13.0339 239.448 12.4647 252.356 13.3288 265.332C14.0591 276.304 14.0036 287.321 16.071 298.216C17.3841 305.132 17.1442 312.137 19.2942 319.042C21.8537 327.26 22.9838 335.821 25.7388 344.076C29.168 354.35 32.2151 364.79 36.422 374.751C42.3071 388.686 47.9847 402.711 54.3275 416.475C63.8155 437.064 74.2334 457.008 88.4396 474.72C96.1524 484.336 104.234 493.64 113.608 501.48C135.613 519.886 160.054 534.099 184.638 547.999C211.58 563.233 239.677 569.407 269.339 565.038C290.385 561.802 311.088 556.941 331.281 550.494C350.936 544.329 369.166 534.449 385.097 521.33C405.787 504.489 422.96 484.196 439.011 462.75C459.854 434.898 480.346 406.751 504.492 381.855C519.906 365.97 536.687 352.022 556.234 341.809C566.641 336.372 577.856 332.888 588.794 328.769C616.415 318.368 638.484 300.308 657.11 277.435C666.4 266.02 673.739 253.318 677.145 238.372C682.33 215.631 677.543 193.703 667.884 172.413C657.88 150.358 641.586 134.307 621.527 122.341C595.155 106.606 568.512 91.3827 542.823 74.3596C516.226 56.735 487.525 46.6106 456.994 42.655C437.695 40.1541 418.418 37.5213 399.265 33.3829C381.236 29.4868 363.483 24.1421 345.552 19.7567C325.812 14.9276 305.969 10.7041 285.831 11.8715C268.783 12.8593 251.766 14.1446 234.75 15.4185C218.496 16.6292 202.502 19.4825 186.353 21.3457C180.869 22.0565 175.513 23.4053 170.381 25.3672C165.558 27.1512 160.471 25.5796 155.444 28.4812C150.566 31.2956 143.638 32.0878 137.386 33.0305C134.821 33.6838 132.363 34.6735 130.068 35.9767C125.524 38.4001 120.768 40.4006 115.851 41.9566C111.249 43.3042 107.662 48.9318 101.532 44.9403C103.61 46.2365 104.595 47.9925 104.134 49.9222C103.697 51.7449 101.838 52.4124 100.151 52.6601C96.9501 53.1289 94.4646 54.956 91.7284 56.4243C87.573 58.652 85.6276 63.4431 81.2742 65.446C80.0329 66.0164 78.1586 65.4397 77.4732 67.2951C76.3941 70.2136 73.3481 71.2827 71.7374 73.4303C68.731 77.4355 63.9046 78.4692 60.6676 81.8892C58.5193 84.1693 56.6005 86.6746 54.9381 89.3699C53.4469 91.7614 51.8461 94.3541 49.2964 95.8534C47.9961 96.6183 48.0791 98.6631 46.4759 99.1121C48.2825 102.341 45.2424 103.194 44.1176 105.019C42.707 107.309 40.5512 108.933 39.4709 111.564C37.3718 116.65 35.4285 121.876 31.8066 126.053ZM669.314 267.355C675.078 262.111 683.055 241.473 681.215 235.712C678.789 246.899 674.78 257.56 669.314 267.355Z" fill="#C2CC00"/>
</svg>
