<svg width="50" height="93" viewBox="0 0 50 93" fill="none" xmlns="http://www.w3.org/2000/svg">
<path d="M2.32117 90.4053L1.78122 91.1345L1.39289 90.926C1.18596 89.7546 1.51899 88.7383 2.01819 87.7624C2.34999 87.1133 2.47112 86.4134 2.45274 85.691C2.4122 84.0502 2.22904 82.43 1.86466 80.8304C1.58077 79.5816 1.03369 78.447 0.489589 77.308C0.125417 76.5348 -0.127318 75.7393 0.110208 74.8657C0.164317 74.6696 0.231826 74.463 0.33635 74.2878C0.563307 73.9105 0.821376 73.5541 1.0691 73.1843C1.71281 73.396 1.64272 74.3754 2.45675 74.2751C2.58352 73.6629 1.95739 73.5211 1.72432 73.0616L2.3106 72.6862C2.47041 72.8513 2.59918 72.9763 2.72496 73.1058C2.77398 73.0999 2.84223 73.1133 2.87202 73.0881C3.32928 72.665 3.34559 72.6695 3.79914 72.9152C4.14004 73.0983 4.49885 73.2548 4.91689 73.4573C5.07128 73.025 5.10375 72.6401 5.13024 72.2641C5.27004 70.4213 5.40983 68.5785 5.5229 66.7372C5.67206 64.3132 6.29597 62.0072 7.26556 59.7908C7.45112 59.36 7.71376 58.9679 8.11863 58.671C8.45651 58.4262 8.70569 58.0638 9.02731 57.7951C9.88944 57.0752 10.8845 56.5798 11.9722 56.3209C13.1521 56.0398 14.351 55.8552 15.5382 55.6113C16.3094 55.4501 17.0865 55.28 17.846 55.0593C18.7185 54.8046 19.4818 54.3283 20.1431 53.7063C20.3323 53.5296 20.5067 53.3173 20.6322 53.0915C21.5032 51.5125 22.0834 49.8292 22.5154 48.0789C23.2185 45.1933 23.4748 42.2538 23.7979 39.3203C24.138 36.198 24.4394 33.0757 25.1416 30.0089C25.3797 28.9613 25.7277 27.9228 26.1809 26.9483C26.6879 25.8549 27.5843 25.0934 28.8307 24.9149C29.6908 24.7939 30.5566 24.7414 31.4181 24.6665C32.284 24.5946 33.1541 24.5836 34.0128 24.4552C35.6544 24.2057 36.7327 23.2304 37.2368 21.6704C37.4454 21.0226 37.5768 20.3361 37.6103 19.6614C37.6858 18.3952 37.5237 17.1376 37.2903 15.8904C36.9152 13.9222 36.5254 11.957 36.2484 9.97702C35.9799 8.11892 36.1969 6.2762 37.243 4.70486C38.4682 2.86617 40.1076 1.48569 42.3544 0.976788C43.9399 0.618796 45.5378 0.559544 47.1483 0.721762C48.0968 0.814912 48.7268 1.13363 49.4017 1.7987L47.8214 1.476L47.7868 1.61419C48.1235 1.7171 48.4573 1.82445 48.8266 1.93631L48.5395 2.10544L49.4151 2.69195C49.1127 2.97996 48.8261 2.9752 48.5072 2.86488C47.1709 2.40868 45.8136 2.47413 44.4482 2.69562C44.059 2.75764 43.661 2.77505 43.2717 2.85638C42.0429 3.10477 41.0296 3.7428 40.1521 4.62024C40.0002 4.77019 39.8793 4.94098 39.7274 5.09093C38.6026 6.20295 38.3039 7.61011 38.4459 9.09948C38.5564 10.2514 38.8214 11.3842 39.0715 12.52C39.5468 14.6845 40.0846 16.8327 40.1632 19.0607C40.2134 20.4949 40.0395 21.8889 39.5523 23.2602C38.7324 25.5511 37.0074 26.771 34.7798 27.3185C33.6132 27.6086 32.3807 27.6415 31.182 27.7873C30.8433 27.8316 30.4987 27.8654 30.16 27.8903C29.4293 27.943 28.9943 28.381 28.7813 29.0258C28.5413 29.7494 28.3191 30.4848 28.1889 31.2367C27.7512 33.7837 27.4561 36.3487 27.2559 38.9256C27.0168 42.0509 26.8222 45.1867 26.1764 48.2656C25.7132 50.4855 25.0556 52.6399 24.1102 54.7241C23.2022 56.743 21.5727 57.8202 19.7063 58.6937C18.0168 59.4856 16.1806 59.766 14.3797 60.1669C14.0215 60.2497 13.659 60.3296 13.3081 60.4496C11.8365 60.9356 10.9066 61.9586 10.5675 63.4549C10.3082 64.6109 10.0831 65.7833 9.97817 66.9589C9.81926 68.7437 9.78951 70.5375 9.68255 72.3313C9.61168 73.5426 9.49776 74.7508 9.40613 75.9545C9.38904 76.1819 9.39125 76.4093 9.37974 76.7437C9.60738 76.6057 9.74123 76.5405 9.85439 76.4484C10.3785 76.012 10.9115 75.5816 11.4164 75.1258C11.6949 74.8735 11.98 74.8901 12.2497 75.0256L13.251 74.4441L13.7792 74.9916C14.1744 74.94 14.5634 74.9359 14.7233 75.5336L14.0554 76.3191L14.1383 76.4069C14.3438 76.2154 14.5494 76.0239 14.7535 75.8249C14.9352 75.6497 15.1168 75.5132 15.3611 75.7156C15.473 76.01 15.2735 76.1732 15.1215 76.3425C14.275 77.2794 13.4107 78.2045 12.5612 79.1459C12.4091 79.3151 12.3045 79.529 12.2102 79.7563C12.9271 79.3974 13.3332 78.7142 13.8711 78.1708C14.4223 77.617 14.9114 77.0022 15.648 76.5274C15.7363 76.7608 15.8412 76.9214 15.8451 77.079C15.8624 78.1105 15.5758 79.0287 14.8471 79.7992C13.6207 81.1014 12.3869 82.405 11.2124 83.7548C10.7488 84.2834 10.4244 84.9311 10.0453 85.5356C9.53922 86.3391 9.02129 87.1411 8.54934 87.961C8.30143 88.3888 8.10387 88.8568 7.94936 89.3277C7.71832 90.0379 7.49039 90.705 6.79997 91.1398C6.55595 91.2926 6.44043 91.6477 6.33895 91.7992C5.8509 92.1048 5.47594 92.3378 5.04593 92.6048L4.85471 92.0636C4.65043 92.3205 4.44164 92.5938 4.22694 92.8566C4.20306 92.8923 4.13474 92.8981 4.09163 92.9144C3.71134 92.9631 3.75715 92.5871 3.58991 92.4235C4.0485 92.0464 4.23724 91.5532 4.19168 90.9676C3.9644 91.4414 3.52213 91.8229 3.61365 92.4265C3.32045 92.7809 3.01281 92.8653 2.69072 92.6796C2.57025 91.8502 3.12486 91.176 3.37744 90.2414C2.77432 90.7669 2.88133 91.6261 2.15905 91.82C1.82856 91.6309 1.94078 91.3769 2.0307 91.1273C2.1191 90.8896 2.20306 90.6489 2.29146 90.4112L2.32117 90.4053ZM32.2281 26.6485C32.2682 26.656 32.3038 26.6605 32.2682 26.656C32.2965 26.6426 32.2682 26.656 32.2295 26.6753L32.0082 26.6884L31.3342 26.6758C31.5696 26.8722 31.7938 26.8739 32.0185 26.7404L32.2281 26.6485ZM26.1444 43.19L26.0779 43.5392C25.9853 44.1291 25.8913 44.7116 25.7988 45.3016L25.805 45.6479C25.5935 45.8483 25.5942 46.0876 25.7849 46.3508L25.8021 45.6523L25.8864 45.2957C26.0754 44.7252 26.2258 44.1546 26.0496 43.5525L26.1161 43.2033L26.1074 43.1394L26.1458 43.1974L26.1444 43.19ZM38.8112 18.8586C38.7858 18.9254 38.7529 18.9938 38.7903 18.9091C38.8033 18.9953 38.7946 18.9314 38.7815 18.8645L38.7892 18.7857L38.8112 18.8586ZM27.0575 33.8677L27.1003 33.5155C27.2069 33.1738 27.3683 32.8366 27.181 32.4722L27.337 31.9894L27.3165 31.924L27.3667 31.9835L27.2077 32.4708C26.9898 32.796 26.9634 33.1527 27.0334 33.5288L26.9907 33.881L26.9628 34.2302C26.9078 34.6969 26.8572 35.1665 26.8022 35.6331L26.8241 36.1964C26.7941 36.2603 26.7642 36.3242 26.8001 36.2514C26.8058 36.3391 26.8001 36.2707 26.7943 36.2023L26.7799 35.6375C27.0605 35.1994 27.0829 34.7238 27.0088 34.2288L27.059 33.8751L27.0575 33.8677ZM24.488 48.7676L24.3453 49.2401L24.354 49.3233L24.3156 49.246C24.4141 49.099 24.6045 48.9877 24.4612 48.7691L24.5793 48.5254L24.4844 48.5135L24.488 48.7676ZM39.335 18.067L39.2772 18.4994L39.448 18.4847L39.3202 18.0699C39.3471 18.0105 39.377 17.9466 39.3366 18.0357C39.3266 17.9451 39.3308 18.006 39.3395 18.0699L39.335 18.067ZM45.4822 1.20006C45.5283 1.19862 45.5713 1.20164 45.5209 1.2001C45.5506 1.17486 45.5208 1.2001 45.4881 1.22979C45.3061 1.03044 45.1159 1.08375 44.9225 1.19947L44.8779 1.20834L44.9225 1.18014C45.1031 1.35274 45.2903 1.32321 45.4867 1.20304L45.4822 1.20006ZM11.9826 57.2186L12.0898 57.1355L11.9738 57.174L11.549 57.2315L11.5914 57.4084L11.9796 57.2231L11.9826 57.2186ZM25.2612 38.222L25.1623 38.9175L25.18 38.968L25.14 38.9219C25.3264 38.711 25.4414 38.4912 25.2463 38.225L25.2965 37.8713L25.5894 35.5307C25.9163 33.6777 26.2403 31.8292 26.5672 29.9762C26.1295 30.322 26.1056 30.8095 26.0283 31.2612C25.8466 32.3207 25.7139 33.3936 25.5722 34.4606C25.5235 34.8217 25.5059 35.1844 25.4765 35.5455C25.4064 36.073 25.3215 36.6035 25.2752 37.1341C25.2566 37.3733 25.3018 37.6231 25.3188 37.8668L25.2686 38.2205L25.2612 38.222ZM36.9883 9.40113L37.0099 8.70559C36.825 8.9432 36.7321 9.17793 36.917 9.41147L36.9788 9.56907L36.9883 9.40113ZM38.3974 19.1688C38.5596 18.619 38.5569 18.5462 38.2787 17.8176C38.2828 18.3497 38.1493 18.7702 38.4123 19.1658L38.4608 19.2952L38.4048 19.1673L38.3974 19.1688ZM9.13956 65.9711L9.41254 64.7081L9.25374 64.6856C9.12761 65.1046 8.90205 65.5086 9.16629 65.9696L9.14401 65.9741L9.13956 65.9711ZM44.217 1.69514L44.0966 1.73067L44.2171 1.67581C44.7541 1.81608 45.2783 1.81218 45.7899 1.56749C45.8536 1.59728 45.9174 1.62707 45.8403 1.58835C45.9309 1.57804 45.8626 1.58392 45.7987 1.59276C45.2646 1.46735 44.7347 1.40289 44.2274 1.6892L44.217 1.69514ZM30.2971 25.5229L30.1529 25.594L30.3102 25.6091C30.986 25.5518 31.6544 25.4961 32.3302 25.4388L32.7385 25.4541L32.7433 25.3411L32.3229 25.3823C31.6457 25.4321 30.9714 25.4775 30.2942 25.5273L30.2971 25.5229ZM8.26419 76.4289C8.54318 75.5895 8.60753 74.9936 8.4374 74.3632C8.35468 75.1211 8.03037 75.7494 8.19288 76.4392L8.14461 76.6651L8.25148 76.6786L8.26864 76.4319L8.26419 76.4289ZM26.0112 29.7393C25.95 29.821 25.8443 29.8922 25.8277 29.9843C25.6543 30.7912 25.4897 31.604 25.34 32.4138C25.3309 32.4658 25.4019 32.5328 25.4329 32.5923L25.309 32.8062L25.4039 32.8375L25.4062 32.5937C25.5979 31.6442 25.7897 30.6947 25.9814 29.7452L25.9683 29.6783L26.0067 29.7363L26.0112 29.7393ZM33.4599 25.9632C33.494 25.9602 33.5297 25.9647 33.5252 25.9617C33.5252 25.9617 33.4999 25.9706 33.4672 25.981C33.1703 25.9628 32.8647 25.9001 32.5735 25.931C31.7878 26.0179 30.9728 25.9367 30.2219 26.2793L30.158 26.2881L30.2145 26.2614C30.3598 26.3136 30.505 26.4237 30.6416 26.412C31.5045 26.3445 32.3705 26.2533 33.2306 26.1517C33.3137 26.1428 33.3839 26.0285 33.4599 25.9632ZM24.892 41.6088C24.6055 43.3726 24.3189 45.1365 24.0398 46.8989C23.9519 47.4339 23.8729 47.9748 23.7924 48.5083C24.0612 48.0686 24.2513 47.6021 24.3183 47.1177C24.5494 45.5039 24.7374 43.887 24.9329 42.2687C24.9603 42.0547 24.8928 41.8287 24.8653 41.6102L24.9982 41.383L24.9017 41.3635L24.892 41.6088ZM12.5596 58.7411L12.6064 58.9403C12.7832 58.9167 12.9629 58.908 13.1367 58.8696C14.5158 58.5411 15.8963 58.22 17.2754 57.8722C17.8014 57.7405 18.2833 57.5017 18.718 57.1603C18.5311 57.1126 18.35 57.0945 18.1984 57.1479C16.6344 57.714 15.0251 58.0883 13.3952 58.3972C13.1084 58.4504 12.8376 58.624 12.5596 58.7411ZM7.99189 63.2723C7.39186 64.2066 7.1028 65.8396 7.40588 66.6752C7.57612 65.4983 7.99233 64.4732 7.99189 63.2723ZM6.44742 76.6707C6.78444 75.7927 6.85428 74.8906 6.73114 73.969C6.41641 74.8426 6.23673 75.7357 6.44742 76.6707ZM23.2654 48.0455C23.73 47.1884 24.0087 45.5613 23.8748 44.7422C23.657 45.9325 23.459 46.9875 23.2654 48.0455ZM4.3377 76.6001C4.5046 75.9761 4.1804 75.6815 4.00631 75.3454C3.83077 75.0019 3.75345 74.5886 3.41128 74.3401C3.56909 75.1042 3.87117 75.7971 4.3377 76.6001ZM10.5022 82.085L11.7187 80.6342C11.1419 80.8417 10.5904 81.4727 10.5022 82.085ZM6.81895 65.0234C6.99296 64.4945 7.28425 63.9731 7.11551 63.3695C6.80943 63.8745 6.70368 64.4169 6.81895 65.0234ZM12.8608 57.8973C12.3546 57.8744 11.8895 57.9631 11.3907 58.3713C12.0955 58.54 12.4752 58.2134 12.8608 57.8973ZM10.5809 59.4361C10.9789 59.4187 11.2398 59.247 11.3637 58.9212C10.9939 58.9446 10.6966 59.023 10.5809 59.4361ZM34.1709 26.0263L34.2118 26.2151C34.6245 26.2527 34.9827 26.1505 35.2084 25.6886L34.1709 26.0263ZM17.6847 56.694C18.3052 56.7289 18.6547 56.5628 18.9621 56.1038C18.463 56.1568 18.1224 56.3482 17.6847 56.694ZM22.2135 54.4412C21.8701 54.5791 21.6777 54.8181 21.6465 55.2684C22.06 55.0742 22.1738 54.7889 22.2135 54.4412ZM7.93719 61.4219C8.42041 61.2292 8.5358 60.9128 8.53881 60.4565C8.10906 60.6463 8.01589 60.9776 7.93719 61.4219ZM20.404 55.6238C20.0089 55.6561 19.7841 55.8283 19.6402 56.2354C20.0932 56.2225 20.2972 56.0235 20.404 55.6238ZM22.7025 51.1928C22.3743 51.6442 22.2101 52.0592 22.2098 52.4377C22.5524 52.1185 22.6502 51.7322 22.7025 51.1928ZM9.1457 80.1306C9.48127 80.1295 9.68225 79.9736 9.63896 79.5961L9.1457 80.1306ZM19.6102 57.2222C20.0261 57.178 20.199 56.9776 20.4496 56.642C20.0277 56.7143 19.7972 56.8181 19.6102 57.2222ZM40.8411 2.82261L40.7808 2.65311C40.4451 2.69288 40.1848 2.84123 39.9367 3.30765L40.8411 2.82261ZM7.10305 77.3165C6.95369 77.5779 6.85183 77.8453 7.01943 78.3449C7.13229 77.8976 7.18964 77.6197 7.10305 77.3165ZM36.5566 24.8101C36.1917 24.7206 36.0265 24.8229 36.0073 25.2554L36.5566 24.8101ZM42.4019 2.31893L43.1182 2.15322C42.8232 2.00725 42.5707 2.01888 42.4019 2.31893ZM27.0348 27.346L26.645 28.0144C27.0596 27.9049 27.1077 27.737 27.0348 27.346ZM21.9027 53.7037C21.6451 53.7807 21.5356 53.9441 21.5744 54.1938L21.9027 53.7037ZM38.3206 21.2732L38.4942 21.2927L38.5856 20.6181L38.403 20.5926L38.3206 21.2732ZM37.7058 5.29241C37.4961 5.53494 37.4131 5.79347 37.4567 6.06797L37.7058 5.29241ZM9.12311 59.3439L8.95574 59.2189L8.66026 59.66L8.75652 59.7374L9.12311 59.3439ZM42.0658 2.02281L42.0071 1.84142L41.4911 2.0445L41.5353 2.17087L42.0658 2.02281ZM36.4085 25.5888L36.3228 25.4668L35.918 25.7443L36.0082 25.8692L36.4115 25.5843L36.4085 25.5888ZM37.3375 7.09188L37.1728 7.059L37.0969 7.55681L37.2245 7.57775L37.3375 7.09188ZM9.9688 59.5425C9.61976 59.5733 9.54515 59.6847 9.69993 60.0207L9.9688 59.5425ZM1.00313 74.2632L0.827488 74.3908L1.11739 74.727L1.21861 74.6528L1.00014 74.2677L1.00313 74.2632ZM39.7567 4.2973L39.6901 4.25264L39.4513 4.60909L39.518 4.65375L39.7567 4.2973ZM9.37008 60.9746L9.19515 60.8897L9.11989 61.1943L9.22815 61.2345L9.37306 60.9701L9.37008 60.9746ZM28.8947 26.2036L28.9267 26.3864L29.2076 26.3035L29.1813 26.1697L28.8902 26.2006L28.8947 26.2036ZM39.3386 4.11405L39.2408 4.04855L39.02 4.37827L39.0955 4.42888L39.3386 4.11405ZM37.8992 23.844L37.8192 23.7904L37.5207 24.236L37.6007 24.2895L37.8992 23.844ZM37.2215 23.5772L37.3015 23.6308L37.4806 23.3635L37.4006 23.3099L37.2215 23.5772ZM34.8862 25.2661L34.9629 25.4014L35.3438 25.1789L35.2729 25.054L34.8862 25.2661ZM9.59556 61.926L9.73043 62.0034L9.90684 61.6439L9.81642 61.5963L9.59258 61.9305L9.59556 61.926ZM39.5548 2.97433L39.6228 3.04575C39.6705 2.99378 39.7152 2.94626 39.7585 2.89131C39.7585 2.89131 39.7111 2.84668 39.6874 2.82436L39.5548 2.97433Z" fill="#F9B500"/>
</svg>
