<svg width="39" height="52" viewBox="0 0 39 52" fill="none" xmlns="http://www.w3.org/2000/svg">
<path d="M17.8036 36.7219C18.8023 35.9809 19.7807 35.2085 20.821 34.512C21.6501 33.9572 22.5554 33.4851 23.4261 32.9749C23.6287 32.8572 23.8604 32.741 23.9782 32.5705C24.0723 32.4353 24.0101 32.2195 24.0277 31.8617C23.5294 32.0621 23.1971 32.149 22.9267 32.312C21.4914 33.1835 20.0699 34.0739 18.6416 34.9518C18.356 35.1261 18.0635 35.2941 17.7712 35.4559C16.7375 36.019 15.7039 36.582 14.513 37.2284C14.9571 36.6485 15.4201 36.2762 15.947 35.9375C16.7826 35.4012 17.7433 34.9865 18.3081 34.1755C18.4728 33.9405 18.8584 33.8075 19.1437 33.6392C20.1734 33.0091 21.2097 32.3915 22.2397 31.7554C22.3524 31.688 22.4235 31.576 22.531 31.4658C22.071 30.89 21.6542 31.5077 21.2048 31.4552L20.4964 30.8915C19.6194 31.0853 18.8507 31.4486 18.1438 31.8879C16.8122 32.728 15.5152 33.6063 14.2187 34.4725C13.646 34.8515 13.094 35.2559 12.3769 35.7555C12.3724 35.4027 12.3295 35.2365 12.3661 35.0863C13.1248 32.1148 14.0853 29.1897 15.4413 26.3753C16.1559 24.8908 16.9426 23.4221 17.8288 22.0069C19.063 20.0374 20.3329 18.0819 21.7377 16.1999C23.1498 14.3182 24.6971 12.504 26.2868 10.7162C27.5755 9.26613 28.9495 7.8628 30.3934 6.51763C31.7154 5.28194 33.1498 4.13081 34.5982 2.99253C35.3643 2.38594 36.3612 2.12505 37.4471 2.12991C37.6586 2.12818 37.8697 2.1325 38.1761 2.12936C37.9648 1.97914 37.8453 1.88815 37.7183 1.80288C37.7344 1.32954 38.2062 1.5169 38.494 1.44598C38.1349 0.893375 37.2511 0.48512 36.474 0.574488C35.9902 0.629674 35.5025 0.76369 35.05 0.923753C32.2363 1.9583 29.6825 3.33998 27.244 4.89754C25.5732 5.96408 24.0349 7.15264 22.56 8.38687C21.237 9.49486 20.0681 10.732 18.85 11.9303C17.057 13.702 15.5047 15.6193 14.0521 17.584C11.1698 21.4904 9.03826 25.6951 7.39372 30.0757C7.03293 31.0366 6.71488 32.0178 6.36865 32.9794C6.26734 33.2601 6.13028 33.5269 5.94182 33.9492C5.78104 33.6617 5.67126 33.5226 5.62753 33.3745C5.00889 31.2834 4.39056 29.1862 3.79404 27.0901C3.65706 26.6153 3.51192 26.1583 2.83574 25.8272L2.98329 27.5668C2.40174 26.9425 2.50453 26.1877 2.3013 25.4301L1.4524 25.4976C1.12389 26.2474 1.48978 26.9583 1.5136 27.6586C1.52387 28.042 1.67987 28.4266 1.74861 28.8068C1.78148 29.0273 1.76286 29.2574 1.56882 29.497L0.873952 25.846C0.323395 26.2201 0.111924 26.6656 0.188336 27.186C0.341161 28.2269 0.47217 29.2667 0.70588 30.2933C1.4617 33.5948 2.19601 36.8891 2.15383 40.2606C2.1401 41.427 2.26484 42.5942 2.31686 43.7577C2.34705 44.4765 2.3124 45.1799 2.07354 45.8854C1.83587 46.5667 1.74215 47.2854 1.58537 47.9524L2.26555 49.2381L3.16725 49.2825L2.96743 49.9352C3.20392 50.1657 3.44618 50.4269 3.71146 50.6649C4.24201 51.1408 4.65072 51.1306 5.12667 50.6434C5.25716 50.51 5.35916 50.3631 5.66188 49.989C5.70232 50.2037 5.71996 50.2897 5.74486 50.376C5.76977 50.4623 5.80224 50.543 5.83442 50.6296L7.54417 50.2519C7.88564 49.8311 8.40611 49.3279 8.73353 48.7483C9.56329 47.2938 10.8086 46.1334 12.2164 45.0782C14.0107 43.726 15.7837 42.3606 17.6124 41.0465C19.086 39.9885 20.4571 38.7917 22.2284 38.0523C23.2555 37.6226 23.8479 36.8434 24.6239 36.1826L24.4945 35.7021L25.1315 35.0527C24.7669 34.7611 24.5158 34.9737 24.2757 35.1138C23.2414 35.689 22.2141 36.2705 21.1798 36.8457C21.0151 36.9348 20.8157 36.9858 20.5928 37.072C20.4395 36.6329 20.7675 36.4849 21.0449 36.3284C22.1183 35.7005 23.2058 35.0794 24.2722 34.445C24.5726 34.2653 24.8318 34.0349 25.0886 33.8531C24.8065 33.365 24.4602 33.4391 24.1316 33.5992C23.6088 33.8531 23.093 34.1134 22.6048 34.4054C21.5382 35.0458 20.4925 35.7055 19.4249 36.3641L17.8324 36.7294L17.647 36.7932L17.8045 36.7037L17.8036 36.7219ZM24.8515 7.59405C24.8206 7.629 24.7824 7.66359 24.7516 7.69854L24.6479 7.58402C24.576 7.56224 24.5103 7.56508 24.4437 7.58612L24.3613 7.63069L24.4715 7.6118L24.8987 7.0797L25.3453 6.74306L25.4601 6.63322L25.5486 6.75916L25.9373 6.71144L26.5966 6.20293L26.8373 6.05067C27.3667 5.6634 27.8272 5.19372 28.5988 5.06761L26.9492 6.14736L26.7221 6.31852L26.0416 6.81384L25.5738 7.13727L25.319 7.27668C25.2436 7.32768 25.161 7.37831 25.0853 7.43537L24.8587 7.59441L24.8515 7.59405ZM27.2125 7.90488L27.4533 7.75262L27.6751 7.39276L27.8601 7.18912L28.7763 6.34678L29.031 6.20737L29.0852 6.14317L29.0031 6.18168L28.8182 6.38532L27.9159 7.2405L27.6612 7.37991L27.4324 7.73335L27.2125 7.90488L26.9717 8.05714L26.9672 8.44595L27.6462 8.12684L27.8882 7.95033L28.0949 7.60187L28.3223 7.42464L28.5634 7.26632L28.6321 7.20284L28.5355 7.24063L28.2944 7.39895L28.0673 7.57012L27.8603 7.92464L27.6183 8.10115L26.9504 8.78552L26.8084 8.85755L26.9714 8.80479L27.0047 8.42348L26.4209 8.43727L26.9993 8.08889L27.2192 7.91737L27.2125 7.90488ZM18.2374 14.4531L18.0301 14.8137L17.796 14.9784C17.7335 15.3583 17.522 15.6579 17.1119 15.8443L16.8833 16.1917L16.7337 16.2695L16.9112 16.2174L17.1328 15.8636C17.174 15.4705 17.421 15.1909 17.8239 15.0041L18.0577 14.8454L18.2577 14.4845L18.3031 14.4502L18.2298 14.4588L18.2374 14.4531ZM16.4995 15.8446L16.7001 15.4715L17.1558 14.953L18.0112 13.8645C18.4193 13.4226 18.8199 12.9865 19.228 12.5446L19.4548 12.3795L19.6763 12.0257L19.7517 11.9747L19.6557 12.0004C19.5843 12.1184 19.5126 12.2425 19.4412 12.3606L19.2213 12.5321L18.1307 13.9555L17.1703 14.9537L16.7147 15.4722L16.4719 15.8128L16.2312 15.9651L16.0242 16.3196L15.9782 16.366L16.0378 16.3385L16.2515 15.9965L16.4923 15.8442L16.4995 15.8446ZM21.7547 13.1918L21.5401 13.552C21.4436 13.7357 21.3825 13.9394 21.2503 14.1092C19.9323 15.8556 18.5928 17.595 17.2822 19.3418C16.6114 20.2327 15.9615 21.1429 15.3047 22.0466C15.279 22.1244 15.2457 22.2079 15.2877 22.0944C15.1826 22.1561 15.2578 22.1112 15.3329 22.0663C15.3776 21.8983 15.3865 21.7164 15.4743 21.5626C16.7418 19.2119 18.4574 17.0899 20.1729 14.9679C20.5767 14.465 21.1008 14.0349 21.5683 13.5717L21.7899 13.2179C21.8138 13.1765 21.8374 13.1412 21.8138 13.1765C21.8656 13.1608 21.8138 13.1765 21.7547 13.1918ZM18.7647 18.1019L18.9783 17.7599L18.9504 17.7342L18.7298 18.0698L18.5007 18.4293C18.4502 18.5666 18.4282 18.7175 18.3565 18.8416C17.3175 20.5471 16.2713 22.2523 15.2251 23.9575C14.7736 24.689 14.3226 25.4084 13.8638 26.1395L13.5776 26.6238C13.5446 26.7012 13.5189 26.779 13.5525 26.6895C13.4767 26.7465 13.5449 26.6952 13.6054 26.6495L13.7868 26.0749C13.8319 25.9009 13.8335 25.7186 13.9143 25.5584C14.914 23.6139 15.9352 21.6765 17.2489 19.869C17.6088 19.3701 17.8219 18.7423 18.5219 18.4425L18.765 18.0958L18.7647 18.1019ZM2.07911 27.8688C2.11915 27.9437 2.16647 28.019 2.11945 27.9376C2.12981 28.0232 2.11945 27.9376 2.10909 27.852C1.77598 27.6593 1.87639 27.3968 1.92559 27.1379C1.57116 26.7861 1.60572 26.3805 1.77934 25.9636L1.90318 27.1489C2.25083 27.3423 2.0547 27.6244 2.07911 27.8688ZM7.84941 33.5508C7.88347 33.3033 7.73753 33.0104 8.09554 32.8457L8.4082 31.5299C8.43591 32.1513 8.37604 32.3307 8.07462 32.8264C8.06207 33.0811 8.20074 33.3736 7.82849 33.5316L7.78965 34.3199C7.61363 33.8979 7.56531 33.6949 7.85668 33.5512L7.84941 33.5508ZM11.9503 24.5864C12.0656 23.8748 12.4887 23.2756 12.9119 22.6764C12.9376 22.5987 12.963 22.527 12.9376 22.5987C12.9912 22.5466 12.9376 22.5987 12.884 22.6507C12.8545 23.397 12.5462 24.0322 11.9294 24.5671C11.911 24.6452 11.8929 24.7173 11.9119 24.627C11.8356 24.6962 11.8964 24.6445 11.9503 24.5864ZM10.5748 26.3179C10.7046 25.607 10.9129 24.9304 11.5509 24.4086L11.6015 23.9735L11.7382 24.0106L11.523 24.383C11.2787 25.0517 11.1634 25.7633 10.5542 26.2925L10.4745 26.7263L10.3239 26.6763L10.5751 26.3118L10.5748 26.3179ZM3.70949 34.4289L3.49989 33.6526L3.71954 33.6331L3.67951 34.4456C4.06303 35.2426 4.15161 36.256 3.82798 37.0546L3.70979 34.4228L3.70949 34.4289ZM2.51808 32.5709L2.462 32.5256L2.49507 32.5941C2.7243 33.268 3.01926 33.939 3.18214 34.6278C3.40549 35.5688 3.54765 36.5302 3.44925 37.4918C3.27502 37.0334 3.15199 36.5715 3.08016 36.1059C2.88301 34.9291 2.70767 33.7534 2.52506 32.5773L2.51808 32.5709ZM11.7832 32.1217C11.7515 33.0623 10.7005 36.6394 10.2312 37.139C10.4242 36.1821 10.6462 35.2265 10.9476 34.287C11.1804 33.5569 11.5141 32.85 11.8044 32.1349L11.8669 31.755L11.9966 31.7857L11.7838 32.1095L11.7832 32.1217ZM17.0923 38.1396C15.4003 39.6367 11.896 42.2602 11.2363 42.483C11.3634 42.2704 11.4087 42.0903 11.5377 41.9873C13.1581 40.7602 14.7931 39.5338 16.4416 38.3264C16.6003 38.2126 16.8845 38.2145 17.1132 38.1589L17.0926 38.1336L17.0923 38.1396ZM12.1676 28.9068C12.1604 29.0523 12.1817 29.2114 12.1385 29.3491C11.3523 31.991 10.5588 34.6326 9.75806 37.2738C9.697 37.4774 9.57837 37.6661 9.48852 37.8623C9.37465 37.5102 9.39079 37.1827 9.46449 36.8703C9.60255 36.2875 9.77666 35.7125 9.92169 35.1361C10.3906 33.3113 10.8599 31.4805 11.6746 29.7396C11.8053 29.4542 12.022 29.1975 12.203 28.9268C12.2221 28.8365 12.2335 28.752 12.2057 28.8722C12.2978 28.7795 12.2363 28.8433 12.1748 28.9071L12.1676 28.9068ZM4.03828 50.0974C4.03787 49.5139 3.8991 49.0754 4.50146 48.6857C4.49818 49.1961 4.65179 49.6292 4.03828 50.0974ZM4.9537 48.5317C4.67378 48.1471 4.72388 47.87 5.14574 47.5929C5.36808 47.9625 5.46282 48.2589 4.9537 48.5317ZM4.15469 47.5866C4.01469 47.2717 4.06987 47.0394 4.32023 46.8897C4.48918 47.1594 4.45661 47.3766 4.15469 47.5866ZM5.00726 46.7047C4.81706 46.5211 4.84313 46.3866 5.08545 46.3013L5.00726 46.7047ZM4.87888 35.994L4.78435 35.9893L4.80735 35.5224L4.90188 35.527L4.87888 35.994Z" fill="#BB6BD9"/>
</svg>
