<svg xmlns="http://www.w3.org/2000/svg" width="42.606" height="47.308" viewBox="0 0 42.606 47.308">
  <path id="flush-foot" d="M31.793,29.952c-.482-1.1-1-2.2-1.425-3.323-.339-.9-.573-1.827-.855-2.743a1.609,1.609,0,0,0-.261-.608c-.112-.126-.347-.147-.705-.284a7.483,7.483,0,0,0,.159,1.091c.5,1.519,1.014,3.034,1.519,4.549.1.3.191.609.276.913.292,1.072.583,2.144.917,3.379a5.316,5.316,0,0,1-.921-1.662,7.272,7.272,0,0,0-1.149-2.612,2.5,2.5,0,0,1-.318-.894c-.361-1.092-.707-2.185-1.074-3.279a1.7,1.7,0,0,0-.215-.347c-.708.195-.194.76-.369,1.125l-.763.41a6.3,6.3,0,0,0,.375,2.343c.492,1.42,1.032,2.825,1.56,4.224.23.617.491,1.225.8,2.006a4.812,4.812,0,0,1-.681-.219,57.218,57.218,0,0,1-8-5.595c-1.312-1.116-2.588-2.287-3.784-3.525-1.663-1.724-3.3-3.473-4.831-5.312S9.1,15.808,7.721,13.844C6.6,12.252,5.547,10.6,4.574,8.914,3.678,7.366,2.9,5.752,2.136,4.13a3.619,3.619,0,0,1-.105-2.72c.055-.181.117-.359.2-.621-.209.128-.334.2-.455.278C1.3.893,1.614.555,1.62.286A1.868,1.868,0,0,0,.191,1.707,5.165,5.165,0,0,0,.161,3.039a35.016,35.016,0,0,0,1.92,8A43.038,43.038,0,0,0,4.353,16.22c.766,1.5,1.7,2.922,2.59,4.368A51.194,51.194,0,0,0,11.379,26.6a60.058,60.058,0,0,0,10.865,9.936c.877.636,1.785,1.242,2.667,1.865.257.182.491.39.868.695a4.342,4.342,0,0,1-.667.071c-2.287-.188-4.58-.379-6.866-.588a1.789,1.789,0,0,0-1.539.384l1.8.469a5.137,5.137,0,0,1-2.35-.15L16,40.032a5.7,5.7,0,0,0,2.207.687,9.879,9.879,0,0,0,1.227.192,1.027,1.027,0,0,1,.651.389L16.2,40.644a1.538,1.538,0,0,0,1.173,1.042c1.1.226,2.186.47,3.29.622a53.481,53.481,0,0,1,10.5,2.174c1.179.41,2.4.7,3.589,1.057a7.329,7.329,0,0,1,2.091.934c.626.435,1.33.761,1.964,1.122l1.487-.139.288-.752.608.393c.3-.123.628-.239.941-.384.626-.289.726-.64.36-1.212-.1-.157-.221-.294-.519-.679.229.039.32.053.415.062s.185.008.281.01l.079-1.584a12.19,12.19,0,0,0-1.2-1.526,12.938,12.938,0,0,1-2.78-4.219c-.886-1.989-1.792-3.965-2.63-5.97a21.646,21.646,0,0,1-1.789-4.952,8.858,8.858,0,0,0-1.248-2.678l-.522-.054-.486-.764c-.394.211-.246.5-.169.749.3,1.077.616,2.15.92,3.227a4.609,4.609,0,0,1,.071.577c-.487-.02-.548-.349-.632-.639-.347-1.128-.683-2.266-1.038-3.39-.1-.317-.265-.616-.38-.9-.571.073-.589.393-.516.728.116.532.241,1.06.405,1.575.361,1.127.747,2.242,1.127,3.376l-.06,1.48.015.18-.048-.165ZM4.168,14c.027.038.052.083.079.121l-.144.049a.25.25,0,0,0-.053.175l.023.085.011-.1-.424-.545-.221-.5-.08-.135.152-.032.057-.347-.337-.735-.089-.257a3.536,3.536,0,0,1-.521-1.835l.649,1.773.112.252.318.748.2.509.073.264c.031.082.06.169.1.253l.1.247Zm.953-1.9-.089-.257-.3-.312L4.57,11.3l-.606-1.068-.073-.264L3.841,9.9l.017.083.156.227.623,1.06.073.265.3.315.115.246.089.257.393.137-.14-.687-.114-.266-.3-.3-.118-.254-.1-.259-.046-.08.012.1L4.9,11l.112.252.3.3.114.266.513.8.035.146-.009-.157-.378-.159-.144.5-.2-.611-.115-.246Zm4.214,9.877.31.3.1.256a1.2,1.2,0,0,1,.693.878l.29.313.038.154,0-.169-.3-.309a1.144,1.144,0,0,1-.685-.882l-.1-.253-.312-.294-.022-.05-.011.065Zm.941,1.955-.324-.3-.4-.565-.872-1.1L7.668,20.477l-.106-.25-.3-.309-.031-.082v.09c.1.1.207.2.307.306l.115.246L8.8,21.893l.753,1.159.4.565.28.323.089.257.3.3.035.055-.012-.06-.289-.3-.089-.257Zm-1.27-5.379.307.306a4.08,4.08,0,0,1,.486.437c1.415,1.719,2.816,3.453,4.233,5.166.722.875,1.469,1.74,2.208,2.608.072.048.147.105.044.031.034.111.009.031-.016-.048a2.536,2.536,0,0,1-.472-.293A49.133,49.133,0,0,1,10.38,20.5a18.31,18.31,0,0,1-1.039-1.665l-.3-.309c-.035-.035-.065-.067-.035-.035A.455.455,0,1,0,9.007,18.547Zm4.17,4.223-.289-.3-.033.015.281.3.3.318a3.215,3.215,0,0,1,.379.264q2.173,2.2,4.341,4.414c.62.634,1.227,1.264,1.844,1.9l.414.409c.07.055.142.1.06.044l-.026-.059-.533-.351a3.131,3.131,0,0,1-.489-.285,49.489,49.489,0,0,1-4.867-4.783c-.409-.477-.987-.873-1.1-1.571l-.286-.325Zm5.4,17.539c.087-.008.176-.023.081-.011l-.09-.02c-.285.218-.524.042-.774-.088a1.2,1.2,0,0,1-1.23-.277l1.235.3C18.085,39.983,18.318,40.247,18.572,40.309ZM25.89,37.34c-.242-.114-.578-.09-.648-.451l-1.249-.716a2.206,2.206,0,0,1,1.224.727c.255.1.589.08.648.45l.789.3c-.475.006-.694-.023-.761-.32Zm-7.98-6.554a5.618,5.618,0,0,1-1.677-1.471c-.072-.048-.138-.095-.072-.048l.038.063A3.039,3.039,0,0,1,17.885,30.8c.074.042.142.082.056.035C17.99,30.921,17.955,30.852,17.91,30.786Zm1.384,1.763a3.467,3.467,0,0,1-1.672-1.483l-.427-.192.075-.1.319.31a4.736,4.736,0,0,1,1.674,1.477l.418.216-.091.111-.3-.338Zm6.368,8.615-.844-.087.039-.194.813.312a4.234,4.234,0,0,1,2.685.765l-2.7-.8Zm-2.205.379-.061.032.078,0c.745.035,1.5.014,2.247.11a10.936,10.936,0,0,1,2.976.751,8.379,8.379,0,0,1-1.5-.16c-1.246-.235-2.485-.487-3.727-.734ZM25.5,33.5a20.968,20.968,0,0,1,4.667,3.036c-.918-.491-1.827-1.007-2.7-1.584-.677-.448-1.3-.973-1.95-1.465l-.368-.183.066-.1.271.292Zm7.534-2.462a40.057,40.057,0,0,1,2.822,6.469c-.181-.181-.352-.281-.421-.426-.806-1.8-1.608-3.609-2.387-5.425a1.719,1.719,0,0,1,.011-.629l-.031.009ZM22.348,32.078a2.309,2.309,0,0,1,.441.176q3.7,2.358,7.391,4.735a5.729,5.729,0,0,1,.524.431,2.282,2.282,0,0,1-1.012-.319c-.553-.317-1.089-.661-1.634-.982a37.666,37.666,0,0,1-5-3.336,7.1,7.1,0,0,1-.681-.728c-.086-.047-.169-.086-.055-.021-.069-.11-.021-.036.027.038ZM41.635,46.24c-.592-.2-1.074-.231-1.306-.877C40.845,45.54,41.326,45.557,41.635,46.24Zm-1.34-1.314a.667.667,0,0,1-.9-.484C39.83,44.378,40.156,44.4,40.295,44.925Zm-1.174.357q-.535.017-.662-.379A.537.537,0,0,1,39.121,45.282Zm-.664-1.027q-.356.149-.388-.2ZM27.565,40.7l-.03.079-.467-.179.03-.079Z" transform="translate(-0.132 -0.286)" fill="#f9b500"/>
</svg>
