<svg width="39" height="52" viewBox="0 0 39 52" fill="none" xmlns="http://www.w3.org/2000/svg">
<path d="M22.4499 14.2892C21.4788 15.0005 20.5222 15.7467 19.5191 16.4073C18.7195 16.9336 17.8615 17.3659 17.03 17.8415C16.8366 17.9511 16.6175 18.0568 16.4938 18.2291C16.3949 18.3657 16.4262 18.6001 16.3706 18.9794C16.8362 18.8047 17.1415 18.7378 17.4003 18.5854C18.7743 17.769 20.1383 16.9315 21.5068 16.1078C21.7803 15.9444 22.0593 15.7883 22.3374 15.6386C23.3198 15.1195 24.3021 14.6003 25.4337 14.0045C24.9739 14.5872 24.5205 14.9475 24.0139 15.2672C23.2107 15.7733 22.3098 16.1402 21.7168 16.9595C21.5441 17.1968 21.1862 17.3085 20.9137 17.4655C19.9273 18.0563 18.9365 18.6334 17.9492 19.2306C17.8415 19.2936 17.7657 19.4073 17.6578 19.5162C18.0027 20.1644 18.4424 19.5394 18.8363 19.63L19.4035 20.2845C20.2053 20.146 20.9297 19.8188 21.6075 19.406C22.8859 18.6151 24.1377 17.7808 25.3877 16.9594C25.9395 16.6004 26.4757 16.2128 27.1694 15.7366C27.134 16.1123 27.1535 16.2925 27.1042 16.4494C26.0975 19.5524 24.9164 22.5904 23.3959 25.48C22.5944 27.0042 21.7306 28.5061 20.7843 29.9433C19.4665 31.9434 18.1185 33.9259 16.6586 35.8197C15.1924 37.7127 13.6134 39.5234 11.9997 41.3027C10.6913 42.746 9.3124 44.1329 7.8777 45.4525C6.56377 46.6651 5.15924 47.7791 3.74373 48.8783C2.9945 49.4645 2.07855 49.665 1.11315 49.576C0.924834 49.5615 0.737462 49.5406 0.46463 49.5202C0.635803 49.6964 0.731888 49.8024 0.835347 49.903C0.768227 50.4053 0.369396 50.1695 0.105483 50.2228C0.363222 50.8384 1.10379 51.3411 1.80502 51.306C2.24157 51.2847 2.69037 51.1798 3.1108 51.0444C5.72922 50.1611 8.15521 48.8883 10.4983 47.4195C12.1037 46.4139 13.6048 45.2681 15.0547 44.0689C16.3552 42.9923 17.5332 41.7663 18.7505 40.5855C20.5434 38.839 22.1384 36.919 23.65 34.9408C26.6501 31.0073 29.0158 26.6983 30.9679 22.1646C31.3961 21.1701 31.7886 20.1507 32.204 19.1544C32.3254 18.8635 32.4771 18.5903 32.692 18.1555C32.8029 18.4739 32.885 18.6304 32.9073 18.7913C33.2241 21.0639 33.54 23.343 33.8365 25.6192C33.9054 26.135 33.9834 26.6324 34.5479 27.037L34.611 25.1746C35.0586 25.8838 34.8828 26.6789 34.979 27.5008L35.7417 27.4944C36.1176 26.7221 35.8716 25.9374 35.9286 25.1906C35.9623 24.7818 35.8664 24.3606 35.8477 23.9507C35.8431 23.7136 35.8854 23.4703 36.0848 23.2303L36.2952 27.1685C36.8267 26.813 37.0645 26.3554 37.0547 25.7957C37.035 24.6765 37.0346 23.56 36.9413 22.4497C36.6376 18.8787 36.3523 15.317 36.7664 11.7331C36.9088 10.4932 36.9282 9.24176 37.0119 7.99976C37.0653 7.2327 37.1747 6.48698 37.4659 5.75481C37.7534 5.04835 37.9171 4.29089 38.131 3.59335L37.6695 2.17288L36.8724 2.05596L37.123 1.37693C36.9384 1.11344 36.752 0.816869 36.5426 0.543182C36.1239 -0.00419423 35.7591 -0.024859 35.2814 0.456683C35.1504 0.588508 35.0432 0.736968 34.7322 1.11163C34.7202 0.880023 34.7141 0.787196 34.7016 0.693426C34.6891 0.599652 34.6692 0.511362 34.6502 0.416649L33.0871 0.686467C32.7364 1.10784 32.2172 1.60301 31.8612 2.19435C30.9607 3.67772 29.7233 4.81617 28.3532 5.83008C26.6061 7.13019 24.8765 8.44598 23.103 9.7028C21.674 10.7146 20.3207 11.8821 18.6625 12.5319C17.7008 12.9097 17.0869 13.693 16.3227 14.3361L16.3842 14.8574L15.745 15.4991C16.0368 15.8374 16.2839 15.6307 16.5132 15.5001C17.4974 14.9681 18.4762 14.4287 19.4605 13.8967C19.617 13.8146 19.8 13.7758 20.0079 13.7012C20.0953 14.1802 19.787 14.3123 19.5227 14.4574C18.4978 15.0426 17.461 15.6195 16.4416 16.212C16.1543 16.38 15.898 16.6051 15.6492 16.7787C15.8457 17.3198 16.162 17.2677 16.4722 17.1227C16.9656 16.893 17.4534 16.6559 17.9203 16.3829C18.9407 15.784 19.9446 15.1629 20.9678 14.5446L22.4252 14.279L22.5972 14.2254L22.4471 14.3085L22.4499 14.2892ZM12.9277 44.7354C12.9591 44.7006 12.9969 44.6668 13.0283 44.632L13.1077 44.7618C13.1692 44.7905 13.228 44.7926 13.2896 44.7754L13.3679 44.7343L13.2677 44.7459L12.8283 45.279L12.3934 45.6027L12.2791 45.7107L12.2143 45.5698L11.8633 45.5906L11.22 46.0807L10.9889 46.2241C10.4748 46.5952 10.0127 47.0594 9.3122 47.1339L10.9002 46.1126L11.1213 45.948L11.7819 45.4736L12.2342 45.1656L12.4764 45.0369C12.5491 44.9885 12.6283 44.941 12.7021 44.8862L12.9213 44.7345L12.9277 44.7354ZM10.8622 44.2223L10.631 44.3657L10.3935 44.7314L10.2062 44.9338L9.29713 45.7592L9.05498 45.8879L8.99961 45.952L9.07692 45.9174L9.26421 45.715L10.1623 44.8748L10.4045 44.7462L10.6475 44.3878L10.8622 44.2223L11.0934 44.0789L11.1409 43.6656L10.5012 43.9526L10.2662 44.1218L10.0435 44.4765L9.82137 44.6475L9.58925 44.7974L9.52102 44.8596L9.61119 44.8268L9.84331 44.677L10.0645 44.5124L10.2882 44.1512L10.5231 43.9821L11.1937 43.3056L11.3281 43.2399L11.1772 43.2835L11.105 43.6866L11.6258 43.717L11.0724 44.043L10.8577 44.2085L10.8622 44.2223ZM19.5773 37.9487L19.8019 37.581L20.0286 37.4238C20.1266 37.0245 20.3482 36.7221 20.7338 36.5554L20.9759 36.2034L21.1177 36.1323L20.954 36.1739L20.7174 36.5333C20.6368 36.9483 20.3858 37.2267 20.0066 37.3943L19.7809 37.5451L19.5627 37.9137L19.5185 37.9466L19.5847 37.9432L19.5773 37.9487ZM21.2786 36.6024L21.0584 36.9839L20.5952 37.5004L19.7127 38.5924C19.3003 39.031 18.8953 39.4641 18.483 39.9027L18.2627 40.0608L18.0262 40.4201L17.9534 40.4686L18.0417 40.4487C18.1184 40.3286 18.1961 40.2021 18.2728 40.082L18.4875 39.9165L19.6166 38.4863L20.5824 37.4985L21.0456 36.982L21.2996 36.6384L21.5307 36.495L21.7545 36.1338L21.8006 36.088L21.7444 36.1126L21.5162 36.46L21.285 36.6034L21.2786 36.6024ZM16.3076 39.0189L16.5387 38.6522C16.6451 38.4642 16.7221 38.2522 16.8588 38.0818C18.2262 36.3255 19.6119 34.5784 20.9729 32.821C21.6691 31.925 22.3488 31.0068 23.034 30.096C23.0656 30.0153 23.1045 29.9291 23.0545 30.0465C23.1548 29.989 23.083 30.031 23.0112 30.073C22.9526 30.2483 22.9243 30.4411 22.8291 30.5979C21.439 33.0011 19.6761 35.1262 17.9131 37.2514C17.4977 37.7553 16.9834 38.1724 16.5158 38.6291L16.2792 38.9884C16.2533 39.0306 16.2284 39.0664 16.2534 39.0306C16.2055 39.0433 16.2534 39.0306 16.3076 39.0189ZM19.5157 34.0258L19.2874 34.3732L19.3094 34.4026L19.5431 34.0626L19.7871 33.6978C19.8473 33.5556 19.8838 33.3968 19.9614 33.2703C21.0761 31.5359 22.1971 29.8025 23.3182 28.0691C23.8016 27.3257 24.283 26.5952 24.7728 25.8527L25.0816 25.3595C25.1195 25.2797 25.1511 25.199 25.1112 25.2917C25.1849 25.2368 25.1186 25.2862 25.0596 25.33L24.8341 25.9274C24.7746 26.1091 24.7527 26.3029 24.663 26.4671C23.5566 28.4587 22.4318 30.4411 21.0614 32.2627C20.6855 32.7658 20.4258 33.4172 19.7697 33.6821L19.5147 34.0322L19.5157 34.0258ZM35.449 24.9232C35.4217 24.8404 35.3881 24.7567 35.4208 24.8469C35.4211 24.755 35.4208 24.8469 35.4205 24.9388C35.6953 25.1695 35.5766 25.441 35.5039 25.7128C35.7799 26.1144 35.7039 26.5433 35.5029 26.9735L35.5251 25.7027C35.2374 25.4701 35.4434 25.1851 35.449 24.9232ZM30.9506 18.432C30.8926 18.6928 30.9897 19.0157 30.6529 19.1633L30.2278 20.5391C30.2726 19.8758 30.3458 19.6896 30.6693 19.1854C30.7089 18.9154 30.6183 18.5934 30.967 18.4542L31.0896 17.6184C31.1991 18.081 31.2194 18.3007 30.9441 18.4311L30.9506 18.432ZM26.3015 27.653C26.1195 28.4012 25.6762 29.006 25.2329 29.6108C25.2013 29.6916 25.1707 29.7659 25.2013 29.6916C25.1479 29.7428 25.2013 29.6916 25.2548 29.6403C25.3644 28.8486 25.7096 28.1966 26.318 27.6751C26.3431 27.5934 26.3673 27.5182 26.3403 27.6127C26.4159 27.545 26.3559 27.5953 26.3015 27.653ZM27.7185 25.917C27.5236 26.6634 27.2628 27.3672 26.637 27.873L26.5434 28.332L26.426 28.282L26.6589 27.9024C26.951 27.2098 27.133 26.4616 27.734 25.9456L27.8533 25.4903L27.9817 25.5551L27.7175 25.9235L27.7185 25.917ZM34.7313 17.8177L34.831 18.6597L34.6335 18.6636L34.7598 17.8022C34.5077 16.9246 34.542 15.8395 34.9191 15.0149L34.7303 17.8241L34.7313 17.8177ZM35.5836 19.8865L35.6284 19.939L35.6067 19.8636C35.478 19.1289 35.2906 18.3922 35.2226 17.6468C35.129 16.6283 35.1099 15.5945 35.3048 14.5789C35.4086 15.0801 35.4665 15.5811 35.4784 16.0819C35.5223 17.3492 35.547 18.6137 35.5781 19.8791L35.5836 19.8865ZM27.2917 19.6487C27.425 18.6504 28.7593 14.9257 29.2325 14.4304C28.954 15.4336 28.6498 16.4332 28.2768 17.4094C27.9882 18.1683 27.6124 18.8946 27.2743 19.633L27.1763 20.0324L27.0643 19.9897L27.2898 19.6616L27.2917 19.6487ZM23.241 12.8358C24.9133 11.3736 28.3235 8.85306 28.9352 8.66698C28.7984 8.88333 28.738 9.07147 28.6117 9.17115C27.0333 10.3515 25.442 11.53 23.8407 12.6873C23.6868 12.7961 23.4342 12.7722 23.2246 12.8136L23.2401 12.8422L23.241 12.8358ZM26.5907 23.0395C26.6134 22.8852 26.6122 22.7143 26.666 22.5712C27.6604 19.821 28.6612 17.0718 29.6685 14.3236C29.7455 14.1116 29.8721 13.92 29.974 13.7182C30.0359 14.1016 29.985 14.4488 29.8846 14.7755C29.6967 15.385 29.4776 15.9832 29.2842 16.5853C28.6633 18.4906 28.0414 20.4023 27.1223 22.1915C26.9742 22.485 26.7527 22.7415 26.5614 23.0155C26.5344 23.1101 26.5148 23.1991 26.5529 23.0734C26.4607 23.1649 26.5225 23.1017 26.5843 23.0386L26.5907 23.0395ZM36.1886 1.12166C36.1238 1.74258 36.1982 2.21976 35.6189 2.5879C35.6788 2.04507 35.5905 1.57244 36.1886 1.12166ZM35.1994 2.7168C35.4055 3.14761 35.3299 3.43861 34.9237 3.70081C34.7672 3.29041 34.7161 2.96769 35.1994 2.7168ZM35.8046 3.78405C35.894 4.12988 35.819 4.37279 35.5795 4.51279C35.4594 4.21278 35.5126 3.98419 35.8046 3.78405ZM34.9477 4.65653C35.0964 4.86658 35.0582 5.00764 34.8331 5.0797L34.9477 4.65653ZM33.8658 16.0621L33.9494 16.0744L33.8768 16.5694L33.7932 16.5571L33.8658 16.0621Z" fill="#5762C7"/>
</svg>
