<svg xmlns="http://www.w3.org/2000/svg" width="164.982" height="116.15" viewBox="0 0 164.982 116.15">
  <g id="logo-niyel-white" transform="translate(-15.6 -39.446)">
    <path id="Tracé_1" data-name="Tracé 1" d="M48.8,130.8H35.995v-82.9q0-2.553-4.188-2.553c-2.246,0-3.4.851-3.4,2.553v82.9H15.6v-90.8H27.861l.121,3.4c2.185-2.614,6.009-3.951,11.533-3.951,6.191,0,9.287,2.431,9.287,7.354Z" fill="#fff"/>
    <path id="Tracé_2" data-name="Tracé 2" d="M54.023,130.8H67.377V71.9H54.023Z" fill="#fff"/>
    <path id="Tracé_3" data-name="Tracé 3" d="M107.257,120.4c0,7.05-6.07,10.575-18.271,10.575-11.472,0-17.239-3.525-17.239-10.575V96.274H86.133v24.373q0,3.282,2.914,3.282c2.792,0,4.128-1.094,4.128-3.282V76.825a17.294,17.294,0,0,1-8.923,2.431,16.072,16.072,0,0,1-8.923-2.249c-2.367-1.459-3.521-3.343-3.521-5.531V39.932H86.194V68.62q0,3.282,2.914,3.282c2.792,0,4.128-1.094,4.128-3.282V39.932h14.143V120.4Z" fill="#fff"/>
    <path id="Tracé_4" data-name="Tracé 4" d="M146.347,122.531c0,2.735-1.881,4.862-5.645,6.443a31,31,0,0,1-11.9,2.005c-11.958,0-17.967-3.586-17.967-10.758V50.872c0-7.111,5.888-10.636,17.785-10.636A35.343,35.343,0,0,1,140.52,42q5.827,2.188,5.827,6.2V88.13H124.131v34.34c0,1.52,1.578,2.31,4.674,2.31,2.792,0,4.249-.79,4.249-2.31V92.02h13.354v30.511ZM133.054,82.66V48.38c0-1.519-1.4-2.31-4.249-2.31-3.1,0-4.674.79-4.674,2.31V82.66Z" fill="#fff"/>
    <path id="Tracé_5" data-name="Tracé 5" d="M180.582,130.8H150.961v-90.8h13.354V123.2h16.267Z" fill="#fff"/>
    <path id="Tracé_6" data-name="Tracé 6" d="M67.377,40.236H54.023V67.465H67.377Z" fill="#f08100"/>
    <path id="Tracé_7" data-name="Tracé 7" d="M39.212,152.556l.546-.3a1.552,1.552,0,0,0,1.335,1.034,1.788,1.788,0,0,0,.607-.122,1.415,1.415,0,0,0,.425-.425.906.906,0,0,0,.121-.547.781.781,0,0,0-.243-.608,4.536,4.536,0,0,0-1.093-1.033,5.33,5.33,0,0,1-.971-.851,1.492,1.492,0,0,1-.364-.973,1.3,1.3,0,0,1,.182-.729,1.19,1.19,0,0,1,.546-.547,1.673,1.673,0,0,1,.789-.182,1.388,1.388,0,0,1,.85.243,2.755,2.755,0,0,1,.85.851l-.546.425c-.243-.3-.425-.547-.607-.608a.9.9,0,0,0-.546-.121.7.7,0,0,0-.607.243.78.78,0,0,0-.243.608,1.036,1.036,0,0,0,.061.425c.061.122.182.243.3.426.061.06.364.3.85.668a6.876,6.876,0,0,1,1.153,1.094,1.84,1.84,0,0,1,.3.973,1.62,1.62,0,0,1-.546,1.215,1.686,1.686,0,0,1-1.275.486,2.047,2.047,0,0,1-1.032-.3C39.758,153.346,39.455,153.043,39.212,152.556Z" fill="#fff"/>
    <path id="Tracé_8" data-name="Tracé 8" d="M48.135,152.13l.486.244a2.733,2.733,0,0,1-.607.79,5.126,5.126,0,0,1-.728.486,2.424,2.424,0,0,1-.91.182,2.289,2.289,0,0,1-1.821-.729,2.613,2.613,0,0,1-.668-1.7,2.38,2.38,0,0,1,.546-1.58,2.272,2.272,0,0,1,1.882-.912,2.387,2.387,0,0,1,1.942.912,2.791,2.791,0,0,1,.546,1.641H44.554A1.788,1.788,0,0,0,45.1,152.8a1.651,1.651,0,0,0,1.275.547,3.081,3.081,0,0,0,.728-.121,1.914,1.914,0,0,0,.607-.3C47.832,152.677,47.953,152.434,48.135,152.13Zm0-1.276a1.59,1.59,0,0,0-.364-.79,2.372,2.372,0,0,0-.607-.486,1.861,1.861,0,0,0-.789-.183,1.748,1.748,0,0,0-1.214.426,2.153,2.153,0,0,0-.546.972h3.521Z" fill="#fff"/>
    <path id="Tracé_9" data-name="Tracé 9" d="M49.956,148.971h.607v.851a2.984,2.984,0,0,1,.789-.73,1.782,1.782,0,0,1,.971-.243,1.464,1.464,0,0,1,.91.243,1.422,1.422,0,0,1,.607.73,4.081,4.081,0,0,1,.182,1.4v2.431h-.607v-2.188a4.666,4.666,0,0,0-.061-1.094,1.13,1.13,0,0,0-.425-.73,1.221,1.221,0,0,0-.789-.243,1.488,1.488,0,0,0-.971.365,1.441,1.441,0,0,0-.546.911,6.7,6.7,0,0,0-.061,1.277v1.762h-.607Z" fill="#fff"/>
    <path id="Tracé_10" data-name="Tracé 10" d="M59.364,152.13l.486.244a2.733,2.733,0,0,1-.607.79,5.126,5.126,0,0,1-.728.486,2.424,2.424,0,0,1-.911.182,2.289,2.289,0,0,1-1.821-.729,2.613,2.613,0,0,1-.668-1.7,2.38,2.38,0,0,1,.546-1.58,2.272,2.272,0,0,1,1.882-.912,2.387,2.387,0,0,1,1.942.912,2.791,2.791,0,0,1,.546,1.641H55.783a1.788,1.788,0,0,0,.546,1.337,1.651,1.651,0,0,0,1.275.547,3.081,3.081,0,0,0,.728-.121,1.914,1.914,0,0,0,.607-.3A3.407,3.407,0,0,1,59.364,152.13Zm0-1.276a1.59,1.59,0,0,0-.364-.79,2.372,2.372,0,0,0-.607-.486,1.861,1.861,0,0,0-.789-.183,1.748,1.748,0,0,0-1.214.426,2.153,2.153,0,0,0-.546.972h3.521Z" fill="#fff"/>
    <path id="Tracé_11" data-name="Tracé 11" d="M65.192,148.971H65.8v3.768a4.246,4.246,0,0,1-.182,1.459,2.024,2.024,0,0,1-.85,1.033,2.659,2.659,0,0,1-1.4.365,2.927,2.927,0,0,1-1.093-.183,1.738,1.738,0,0,1-.789-.486,3.423,3.423,0,0,1-.546-.851h.668a1.76,1.76,0,0,0,.668.669,2.353,2.353,0,0,0,1.032.243,1.737,1.737,0,0,0,1.032-.243,1.939,1.939,0,0,0,.607-.608,2.669,2.669,0,0,0,.182-1.155v-.243a2.323,2.323,0,0,1-.85.669,2.146,2.146,0,0,1-1.032.243,2.765,2.765,0,0,1-1.214-.3,3.042,3.042,0,0,1-.91-.851,2.586,2.586,0,0,1,0-2.431,3.249,3.249,0,0,1,.91-.912,2.131,2.131,0,0,1,1.214-.3,1.782,1.782,0,0,1,.971.243,2.408,2.408,0,0,1,.91.73v-.851Zm-1.76.486a1.782,1.782,0,0,0-.971.243,1.749,1.749,0,0,0-.668.669,1.781,1.781,0,0,0-.243.972,1.569,1.569,0,0,0,.546,1.276,1.737,1.737,0,0,0,1.335.487,1.682,1.682,0,0,0,1.821-1.824,1.826,1.826,0,0,0-.91-1.641A2.443,2.443,0,0,0,63.431,149.457Z" fill="#fff"/>
    <path id="Tracé_12" data-name="Tracé 12" d="M71.808,148.97v4.741H71.2v-.79a3.186,3.186,0,0,1-.85.729,2,2,0,0,1-1.032.243,2.3,2.3,0,0,1-1.7-.729,2.5,2.5,0,0,1,0-3.525,2.293,2.293,0,0,1,1.7-.73,2,2,0,0,1,1.032.243,3.209,3.209,0,0,1,.85.73v-.851h.607Zm-2.428.486a1.464,1.464,0,0,0-.91.243,1.937,1.937,0,0,0-.668.73,1.783,1.783,0,0,0-.243.972,1.928,1.928,0,0,0,.243.973,2.6,2.6,0,0,0,.668.729,1.714,1.714,0,0,0,.91.243,1.923,1.923,0,0,0,.971-.243,1.423,1.423,0,0,0,.668-.669,1.783,1.783,0,0,0,.243-.972,1.927,1.927,0,0,0-.546-1.4A1.639,1.639,0,0,0,69.38,149.456Z" fill="#fff"/>
    <path id="Tracé_13" data-name="Tracé 13" d="M73.083,147.147h.607v6.564h-.607Z" fill="#fff"/>
    <path id="Tracé_14" data-name="Tracé 14" d="M74.6,151.037h2.367v.547H74.6Z" fill="#fff"/>
    <path id="Tracé_15" data-name="Tracé 15" d="M78.06,147.33h1.275a8.336,8.336,0,0,1,1.457.06,1.439,1.439,0,0,1,.911.547,1.536,1.536,0,0,1,.364,1.034,1.465,1.465,0,0,1-.243.911,1.782,1.782,0,0,1-.728.608,3.533,3.533,0,0,1-1.275.182l2.307,2.979h-.789l-2.306-2.979h-.364v2.979H78.06Zm.607.607v2.188H79.76a3.792,3.792,0,0,0,.971-.121.942.942,0,0,0,.486-.365,1.1,1.1,0,0,0,0-1.215.753.753,0,0,0-.486-.365,3.274,3.274,0,0,0-.91-.122Z" fill="#fff"/>
    <path id="Tracé_16" data-name="Tracé 16" d="M82.673,148.97h.607l1.457,3.4,1.518-3.4h.121l1.518,3.4,1.457-3.4h.607l-2.064,4.741h-.121l-1.518-3.4-1.518,3.4h-.121Z" fill="#fff"/>
    <path id="Tracé_17" data-name="Tracé 17" d="M95.36,148.97v4.741h-.607v-.79a3.186,3.186,0,0,1-.85.729,2,2,0,0,1-1.032.243,2.3,2.3,0,0,1-1.7-.729,2.5,2.5,0,0,1,0-3.525,2.293,2.293,0,0,1,1.7-.73,2,2,0,0,1,1.032.243,3.209,3.209,0,0,1,.85.73v-.851h.607Zm-2.428.486a1.464,1.464,0,0,0-.91.243,1.937,1.937,0,0,0-.668.73,1.783,1.783,0,0,0-.243.972,1.928,1.928,0,0,0,.243.973,2.6,2.6,0,0,0,.668.729,1.714,1.714,0,0,0,.91.243,1.923,1.923,0,0,0,.971-.243,1.423,1.423,0,0,0,.668-.669,1.783,1.783,0,0,0,.243-.972,1.928,1.928,0,0,0-.546-1.4A1.639,1.639,0,0,0,92.932,149.456Z" fill="#fff"/>
    <path id="Tracé_18" data-name="Tracé 18" d="M96.756,148.971h.607v.851a2.984,2.984,0,0,1,.789-.73,1.782,1.782,0,0,1,.971-.243,1.462,1.462,0,0,1,.91.243,1.418,1.418,0,0,1,.607.73,4.063,4.063,0,0,1,.183,1.4v2.431h-.607v-2.188a4.643,4.643,0,0,0-.061-1.094,1.132,1.132,0,0,0-.425-.73,1.12,1.12,0,0,0-.789-.243,1.488,1.488,0,0,0-.971.365,1.441,1.441,0,0,0-.546.911,6.7,6.7,0,0,0-.061,1.277v1.762h-.607Z" fill="#fff"/>
    <path id="Tracé_19" data-name="Tracé 19" d="M106.893,147.147v6.564h-.607v-.79a3.2,3.2,0,0,1-.85.729,1.988,1.988,0,0,1-1.032.243,2.3,2.3,0,0,1-1.7-.729,2.5,2.5,0,0,1,0-3.525,2.3,2.3,0,0,1,1.7-.729,1.988,1.988,0,0,1,1.032.243,3.2,3.2,0,0,1,.85.729v-2.674h.607Zm-2.428,2.31a1.458,1.458,0,0,0-.911.243,1.931,1.931,0,0,0-.668.729,1.787,1.787,0,0,0-.242.973,1.927,1.927,0,0,0,.242.972,2.578,2.578,0,0,0,.668.729,1.575,1.575,0,0,0,.911.243,1.915,1.915,0,0,0,.971-.243,1.42,1.42,0,0,0,.667-.668,1.779,1.779,0,0,0,.243-.973,1.928,1.928,0,0,0-.546-1.4A1.721,1.721,0,0,0,104.465,149.457Z" fill="#fff"/>
    <path id="Tracé_20" data-name="Tracé 20" d="M112.963,148.97v4.741h-.607v-.79a3.2,3.2,0,0,1-.85.729,2,2,0,0,1-1.032.243,2.3,2.3,0,0,1-1.7-.729,2.5,2.5,0,0,1,0-3.525,2.294,2.294,0,0,1,1.7-.73,2,2,0,0,1,1.032.243,3.221,3.221,0,0,1,.85.73v-.851h.607Zm-2.428.486a1.464,1.464,0,0,0-.911.243,1.941,1.941,0,0,0-.668.73,1.784,1.784,0,0,0-.242.972,1.928,1.928,0,0,0,.242.973,2.592,2.592,0,0,0,.668.729,1.716,1.716,0,0,0,.911.243,1.925,1.925,0,0,0,.971-.243,1.429,1.429,0,0,0,.668-.669,1.784,1.784,0,0,0,.242-.972,1.928,1.928,0,0,0-.546-1.4A1.722,1.722,0,0,0,110.535,149.456Z" fill="#fff"/>
    <path id="Tracé_21" data-name="Tracé 21" d="M113.934,151.037H116.3v.547h-2.367Z" fill="#fff"/>
    <path id="Tracé_22" data-name="Tracé 22" d="M117.09,153.711,118,147.33h.121l2.61,5.227,2.549-5.227h.122l.91,6.381h-.607l-.607-4.558-2.246,4.558h-.182l-2.306-4.619-.607,4.619Z" fill="#fff"/>
    <path id="Tracé_23" data-name="Tracé 23" d="M130.141,148.97v4.741h-.607v-.79a3.2,3.2,0,0,1-.85.729,2,2,0,0,1-1.032.243,2.3,2.3,0,0,1-1.7-.729,2.5,2.5,0,0,1,0-3.525,2.294,2.294,0,0,1,1.7-.73,2,2,0,0,1,1.032.243,3.22,3.22,0,0,1,.85.73v-.851h.607Zm-2.428.486a1.464,1.464,0,0,0-.911.243,1.941,1.941,0,0,0-.668.73,1.784,1.784,0,0,0-.242.972,1.928,1.928,0,0,0,.242.973,2.592,2.592,0,0,0,.668.729,1.716,1.716,0,0,0,.911.243,1.925,1.925,0,0,0,.971-.243,1.422,1.422,0,0,0,.667-.669,1.776,1.776,0,0,0,.243-.972,1.928,1.928,0,0,0-.546-1.4A1.722,1.722,0,0,0,127.713,149.456Z" fill="#fff"/>
    <path id="Tracé_24" data-name="Tracé 24" d="M131.415,148.97h.607v2.188a4.644,4.644,0,0,0,.061,1.094.943.943,0,0,0,.486.669,1.392,1.392,0,0,0,.849.243,1.285,1.285,0,0,0,.85-.243,1.085,1.085,0,0,0,.486-.669,4.029,4.029,0,0,0,.121-1.155v-2.188h.607v2.31a3,3,0,0,1-.243,1.458,2.125,2.125,0,0,1-.667.791,2.34,2.34,0,0,1-2.307,0,1.445,1.445,0,0,1-.668-.791,4.365,4.365,0,0,1-.242-1.519V148.97Z" fill="#fff"/>
    <path id="Tracé_25" data-name="Tracé 25" d="M136.635,148.971h.607v.668a1.954,1.954,0,0,1,.607-.608,1.389,1.389,0,0,1,.668-.182.981.981,0,0,1,.546.182l-.3.487a.657.657,0,0,0-.3-.061.872.872,0,0,0-.607.243,1.914,1.914,0,0,0-.424.79,7.9,7.9,0,0,0-.122,1.641v1.58H136.7v-4.74Z" fill="#fff"/>
    <path id="Tracé_26" data-name="Tracé 26" d="M139.792,147.025a.859.859,0,0,1,.364.122.448.448,0,0,1,.121.365.857.857,0,0,1-.121.364c-.061.122-.243.122-.364.122a.855.855,0,0,1-.364-.122c-.122-.06-.122-.243-.122-.364a.859.859,0,0,1,.122-.365A.51.51,0,0,1,139.792,147.025Zm-.3,1.945h.607v4.741h-.607Z" fill="#fff"/>
    <path id="Tracé_27" data-name="Tracé 27" d="M141.856,147.269h.607v1.762h.971v.547h-.971v4.194h-.607v-4.194h-.85v-.547h.85Z" fill="#fff"/>
    <path id="Tracé_28" data-name="Tracé 28" d="M144.587,147.025a.855.855,0,0,1,.364.122.445.445,0,0,1,.122.365.859.859,0,0,1-.122.364c-.06.122-.242.122-.364.122a.859.859,0,0,1-.364-.122c-.121-.06-.121-.243-.121-.364a.856.856,0,0,1,.121-.365A.512.512,0,0,1,144.587,147.025Zm-.3,1.945h.607v4.741h-.607Z" fill="#fff"/>
    <path id="Tracé_29" data-name="Tracé 29" d="M146.044,148.97h.607v2.188a4.643,4.643,0,0,0,.061,1.094.939.939,0,0,0,.485.669,1.4,1.4,0,0,0,.85.243,1.286,1.286,0,0,0,.85-.243,1.079,1.079,0,0,0,.485-.669,3.979,3.979,0,0,0,.122-1.155v-2.188h.607v2.31a3,3,0,0,1-.243,1.458,2.118,2.118,0,0,1-.668.791,2.339,2.339,0,0,1-2.306,0,1.437,1.437,0,0,1-.668-.791,4.36,4.36,0,0,1-.243-1.519V148.97Z" fill="#fff"/>
    <path id="Tracé_30" data-name="Tracé 30" d="M153.874,149.518l-.364.425a1.485,1.485,0,0,0-.971-.486.626.626,0,0,0-.668.668.554.554,0,0,0,.182.426,2.938,2.938,0,0,0,.729.486,3.143,3.143,0,0,1,.91.669,1.169,1.169,0,0,1,.243.729,1.21,1.21,0,0,1-.425.973,1.464,1.464,0,0,1-1.032.425,1.875,1.875,0,0,1-.789-.182,2.37,2.37,0,0,1-.607-.487l.364-.425a1.346,1.346,0,0,0,.971.547.779.779,0,0,0,.607-.243.74.74,0,0,0,.243-.547.8.8,0,0,0-.182-.486,2.535,2.535,0,0,0-.789-.487,2.061,2.061,0,0,1-.85-.668,1.733,1.733,0,0,1-.243-.73,1.247,1.247,0,0,1,1.275-1.276A1.91,1.91,0,0,1,153.874,149.518Z" fill="#fff"/>
    <path id="Tracé_31" data-name="Tracé 31" d="M37.695,142.284c-.061.122-.182.243-.243.365a.731.731,0,0,1-.3.3,4.623,4.623,0,0,1-1.032.79,2.451,2.451,0,0,1-.546.3c-.182.061-.425.182-.607.243a5.031,5.031,0,0,1-1.335.182,5.254,5.254,0,0,1-1.942-.364,4.108,4.108,0,0,1-1.578-1.094,4.761,4.761,0,0,1-1.032-1.581,5.039,5.039,0,0,1-.364-1.944,5.266,5.266,0,0,1,.364-1.945,4.6,4.6,0,0,1,2.61-2.614,5.188,5.188,0,0,1,3.278-.182,7.211,7.211,0,0,1,1.214.486l.546.365c.182.121.3.3.486.425a2.65,2.65,0,0,1,.546.669.547.547,0,0,1,.061.3c-.061.06-.121.182-.182.182l-.971.365a.278.278,0,0,1-.3,0c-.121,0-.182-.061-.3-.183l-.121-.121c-.061-.061-.061-.122-.121-.122a1.079,1.079,0,0,0-.3-.243,1.079,1.079,0,0,1-.3-.243l-.364-.182a.86.86,0,0,0-.364-.122,3.061,3.061,0,0,0-.789-.122,2.705,2.705,0,0,0-1.214.244,2.916,2.916,0,0,0-.971.729,3.773,3.773,0,0,0-.668,1.033,3.164,3.164,0,0,0,0,2.431,3.763,3.763,0,0,0,.668,1.034,2.929,2.929,0,0,0,.971.729,2.718,2.718,0,0,0,1.214.243,3.536,3.536,0,0,0,.789-.122c.121-.06.243-.06.364-.121l.364-.182a.607.607,0,0,0,.3-.244c.121-.06.182-.182.3-.243l.121-.121c.061-.061.061-.122.121-.122a1.327,1.327,0,0,1,.3-.182c.121-.061.243,0,.3,0l.971.365c.121.06.182.121.182.182A1.873,1.873,0,0,1,37.695,142.284Z" fill="#fff"/>
    <path id="Tracé_32" data-name="Tracé 32" d="M47.589,135.173v8.752c0,.122-.061.183-.121.3a.463.463,0,0,1-.3.122H46.132c-.121,0-.182-.061-.3-.122a.464.464,0,0,1-.121-.3v-2.978c0-.122-.061-.182-.121-.3a.462.462,0,0,0-.3-.121H41.4c-.121,0-.182.06-.3.121a.464.464,0,0,0-.121.3v2.978c0,.122-.061.183-.121.3a.463.463,0,0,1-.3.122H39.516c-.121,0-.182-.061-.3-.122a.464.464,0,0,1-.121-.3v-8.752c0-.122.061-.182.121-.3a.462.462,0,0,1,.3-.121h1.032c.121,0,.182.06.3.121a.464.464,0,0,1,.121.3v3.343c0,.121.061.182.121.3a.462.462,0,0,0,.3.121h3.885c.121,0,.182-.06.3-.121a.467.467,0,0,0,.121-.3v-3.343c0-.122.061-.182.121-.3a.462.462,0,0,1,.3-.121h1.032c.121,0,.182.06.3.121S47.589,135.051,47.589,135.173Z" fill="#fff"/>
    <path id="Tracé_33" data-name="Tracé 33" d="M60.4,139v4.862c0,.122-.061.183-.121.3a.462.462,0,0,1-.3.122H58.94a.315.315,0,0,1-.243-.122.462.462,0,0,1-.121-.3V134.93a.161.161,0,0,1,.182-.182.553.553,0,0,1,.3.06l5.706,5.41c.061.06.182.121.243.06.061,0,.061-.121.061-.182v-4.923c0-.122.061-.182.121-.3a.462.462,0,0,1,.3-.121h1.032c.121,0,.182.06.3.121a.464.464,0,0,1,.121.3v8.874a.161.161,0,0,1-.182.182.545.545,0,0,1-.3-.061l-5.706-5.287a.364.364,0,0,0-.243-.061C60.457,138.82,60.4,138.881,60.4,139Z" fill="#fff"/>
    <path id="Tracé_34" data-name="Tracé 34" d="M78.182,139.489v.85a4.7,4.7,0,0,1-.486,1.641,5.609,5.609,0,0,1-1.032,1.338,4.4,4.4,0,0,1-1.457.851,5.642,5.642,0,0,1-1.76.3,5.254,5.254,0,0,1-1.942-.364,4.107,4.107,0,0,1-1.578-1.094,5.673,5.673,0,0,1-1.093-1.581,5.039,5.039,0,0,1-.364-1.944,5.266,5.266,0,0,1,.364-1.945,3.872,3.872,0,0,1,.486-.851,6.441,6.441,0,0,1,.607-.73A5.462,5.462,0,0,1,71.5,134.93a5.029,5.029,0,0,1,1.942-.365,4.59,4.59,0,0,1,2.367.608,4.382,4.382,0,0,1,1.518,1.277.266.266,0,0,1,.061.3c0,.122-.061.183-.182.244l-.91.547a.553.553,0,0,1-.3.06c-.121,0-.182-.06-.3-.182l-.364-.365a1.869,1.869,0,0,0-.425-.3,2.689,2.689,0,0,0-1.457-.425,2.9,2.9,0,0,0-1.214.243,2.419,2.419,0,0,0-.971.729,3.033,3.033,0,0,0-.668,1.034,3.164,3.164,0,0,0,0,2.431,6.012,6.012,0,0,0,.668,1.033,2.915,2.915,0,0,0,.971.729,2.706,2.706,0,0,0,1.214.244,2.737,2.737,0,0,0,.971-.183,3.7,3.7,0,0,0,.85-.425,2.34,2.34,0,0,0,.668-.669,1.522,1.522,0,0,0,.243-.425c.061-.122.061-.183,0-.243a.315.315,0,0,0-.243-.122H73.2c-.121,0-.182-.061-.3-.121a.467.467,0,0,1-.121-.3v-.851c0-.122.061-.183.121-.3a.463.463,0,0,1,.3-.122h4.674c.121,0,.182.061.3.122Z" fill="#fff"/>
    <path id="Tracé_35" data-name="Tracé 35" d="M81.52,136.753v1.581c0,.121.061.182.121.3a.462.462,0,0,0,.3.122h3.824c.121,0,.182.061.3.122a.462.462,0,0,1,.121.3v.851c0,.122-.061.183-.121.3a.463.463,0,0,1-.3.122H81.945c-.121,0-.182.061-.3.121a.467.467,0,0,0-.121.3v1.459c0,.122.061.182.121.3a.462.462,0,0,0,.3.121h4.37c.121,0,.182.061.3.122a.464.464,0,0,1,.121.3v.851c0,.121-.061.182-.121.3a.467.467,0,0,1-.3.121H80.124c-.121,0-.182-.061-.3-.121a.467.467,0,0,1-.121-.3v-8.752c0-.122.061-.183.121-.3a.462.462,0,0,1,.3-.122h6.191c.121,0,.182.061.3.122a.462.462,0,0,1,.121.3v.79c0,.121-.061.182-.121.3a.467.467,0,0,1-.3.121h-4.37c-.121,0-.182.061-.3.122S81.52,136.632,81.52,136.753Z" fill="#fff"/>
    <path id="Tracé_36" data-name="Tracé 36" d="M101.551,142.284c-.061.122-.182.243-.243.365a.734.734,0,0,1-.3.3,4.63,4.63,0,0,1-1.032.79,2.451,2.451,0,0,1-.546.3c-.182.061-.425.182-.607.243a5.031,5.031,0,0,1-1.335.182,5.253,5.253,0,0,1-1.942-.364,4.107,4.107,0,0,1-1.578-1.094,4.761,4.761,0,0,1-1.032-1.581,5.039,5.039,0,0,1-.364-1.944,5.266,5.266,0,0,1,.364-1.945,4.6,4.6,0,0,1,2.61-2.614,5.188,5.188,0,0,1,3.278-.182,7.189,7.189,0,0,1,1.213.486l.547.365c.182.121.3.3.485.425a2.663,2.663,0,0,1,.547.669.553.553,0,0,1,.06.3c-.06.06-.121.182-.182.182l-.971.365a.278.278,0,0,1-.3,0c-.122,0-.183-.061-.3-.183l-.121-.121c-.061-.061-.061-.122-.121-.122a1.079,1.079,0,0,0-.3-.243,1.079,1.079,0,0,1-.3-.243l-.364-.182a.86.86,0,0,0-.364-.122,3.061,3.061,0,0,0-.789-.122,2.706,2.706,0,0,0-1.214.244,2.915,2.915,0,0,0-.971.729,3.774,3.774,0,0,0-.668,1.033,3.164,3.164,0,0,0,0,2.431,3.764,3.764,0,0,0,.668,1.034,2.929,2.929,0,0,0,.971.729,2.719,2.719,0,0,0,1.214.243,3.536,3.536,0,0,0,.789-.122c.121-.06.243-.06.364-.121l.364-.182a.607.607,0,0,0,.3-.244c.121-.06.182-.182.3-.243l.121-.121c.061-.061.061-.122.121-.122a1.318,1.318,0,0,1,.3-.182c.121-.061.242,0,.3,0l.971.365c.122.06.182.121.182.182A1.826,1.826,0,0,1,101.551,142.284Z" fill="#fff"/>
    <path id="Tracé_37" data-name="Tracé 37" d="M104.586,144.29h-1.032c-.121,0-.182-.061-.3-.121a.465.465,0,0,1-.122-.3v-8.753c0-.121.061-.182.122-.3a.46.46,0,0,1,.3-.122H107.5a3.269,3.269,0,0,1,1.335.243,4.324,4.324,0,0,1,1.032.669,1.468,1.468,0,0,1,.364.486c.121.182.182.365.3.547a3.274,3.274,0,0,1,.242,1.337,3.145,3.145,0,0,1-.546,1.884,2.811,2.811,0,0,1-1.093.973c-.121.06-.182.121-.182.243a.364.364,0,0,0,.061.243c.3.425.607.851.911,1.216s.607.79.91,1.215a.547.547,0,0,1,.061.3c-.061.122-.122.122-.243.122h-1.335a.77.77,0,0,1-.365-.061.612.612,0,0,1-.3-.243c-.122-.183-.3-.426-.425-.608a5.244,5.244,0,0,1-.425-.608l-.85-1.215a.6.6,0,0,0-.3-.244.779.779,0,0,0-.364-.06h-1.032c-.122,0-.182.06-.3.121a.465.465,0,0,0-.121.3V143.8c0,.121-.061.182-.122.3C104.829,144.229,104.707,144.29,104.586,144.29Zm.789-4.68H107.5a1.441,1.441,0,0,0,.485-.121,1.339,1.339,0,0,0,.486-.3,3.368,3.368,0,0,0,.364-.487,2.258,2.258,0,0,0,.121-.729,1.353,1.353,0,0,0-.06-.486c0-.122-.061-.182-.061-.3-.061-.061-.061-.182-.121-.243a1.438,1.438,0,0,0-.425-.426,1.523,1.523,0,0,0-.789-.182h-2.125c-.121,0-.182.061-.3.122a.46.46,0,0,0-.122.3v2.492c0,.122.061.183.122.3A.543.543,0,0,0,105.375,139.61Z" fill="#fff"/>
    <path id="Tracé_38" data-name="Tracé 38" d="M114.359,136.753v1.581c0,.121.06.182.121.3a.463.463,0,0,0,.3.122h3.825c.121,0,.182.061.3.122a.46.46,0,0,1,.121.3v.851c0,.122-.06.183-.121.3a.463.463,0,0,1-.3.122h-3.825c-.121,0-.182.061-.3.121a.465.465,0,0,0-.121.3v1.459c0,.122.06.182.121.3a.462.462,0,0,0,.3.121h4.371c.121,0,.182.061.3.122a.463.463,0,0,1,.122.3v.851c0,.121-.061.182-.122.3a.465.465,0,0,1-.3.121h-6.192c-.121,0-.182-.061-.3-.121a.465.465,0,0,1-.121-.3v-8.752c0-.122.06-.183.121-.3a.463.463,0,0,1,.3-.122h6.192c.121,0,.182.061.3.122a.461.461,0,0,1,.122.3v.79c0,.121-.061.182-.122.3a.465.465,0,0,1-.3.121h-4.371c-.121,0-.182.061-.3.122C114.419,136.571,114.359,136.632,114.359,136.753Z" fill="#fff"/>
    <path id="Tracé_39" data-name="Tracé 39" d="M136.757,136.389h-1.943c-.121,0-.182.06-.3.121a.463.463,0,0,0-.121.3v7.111c0,.122-.061.183-.122.3a.463.463,0,0,1-.3.122h-1.032c-.122,0-.182-.061-.3-.122a.468.468,0,0,1-.121-.3v-7.111c0-.122-.061-.182-.122-.3a.46.46,0,0,0-.3-.121h-1.942c-.122,0-.183-.061-.3-.122a.463.463,0,0,1-.121-.3v-.79c0-.122.06-.182.121-.3a.463.463,0,0,1,.3-.121h6.494c.122,0,.183.06.3.121a.463.463,0,0,1,.121.3v.79c0,.122-.06.182-.121.3C136.939,136.328,136.878,136.389,136.757,136.389Z" fill="#fff"/>
    <path id="Tracé_40" data-name="Tracé 40" d="M142.645,144.472a5.256,5.256,0,0,1-1.943-.364,5.47,5.47,0,0,1-1.578-1.034,4.748,4.748,0,0,1-1.032-1.58,5.044,5.044,0,0,1-.364-1.945,5.27,5.27,0,0,1,.364-1.945,4.605,4.605,0,0,1,2.61-2.613,5.03,5.03,0,0,1,1.943-.365,5.255,5.255,0,0,1,1.942.365,5.433,5.433,0,0,1,1.578,1.033,4.748,4.748,0,0,1,1.032,1.58,5.044,5.044,0,0,1,.364,1.945,5.266,5.266,0,0,1-.364,1.945,5.46,5.46,0,0,1-1.032,1.58,4.754,4.754,0,0,1-1.578,1.034A5.254,5.254,0,0,1,142.645,144.472Zm0-8.205a2.718,2.718,0,0,0-1.214.243,2.922,2.922,0,0,0-.971.729,6,6,0,0,0-.668,1.034,2.9,2.9,0,0,0-.243,1.215,2.727,2.727,0,0,0,.243,1.216,3.746,3.746,0,0,0,.668,1.033,3.687,3.687,0,0,0,.971.729,3.142,3.142,0,0,0,2.428,0,2.918,2.918,0,0,0,.971-.729,3.769,3.769,0,0,0,.668-1.033,3.174,3.174,0,0,0,0-2.431,3.04,3.04,0,0,0-.668-1.034,3.725,3.725,0,0,0-.971-.729A2.718,2.718,0,0,0,142.645,136.267Z" fill="#fff"/>
    <path id="Tracé_41" data-name="Tracé 41" d="M150.657,144.29h-1.032c-.121,0-.182-.061-.3-.121a.465.465,0,0,1-.122-.3v-8.753c0-.121.061-.182.122-.3a.46.46,0,0,1,.3-.122h3.946a3.269,3.269,0,0,1,1.335.243,4.3,4.3,0,0,1,1.032.669,1.455,1.455,0,0,1,.364.486c.122.182.182.365.3.547a3.275,3.275,0,0,1,.243,1.337,3.145,3.145,0,0,1-.547,1.884,2.815,2.815,0,0,1-1.092.973c-.122.06-.182.121-.182.243a.369.369,0,0,0,.06.243c.3.425.607.851.911,1.216s.607.79.91,1.215a.547.547,0,0,1,.061.3c-.061.122-.121.122-.243.122h-1.335a.764.764,0,0,1-.364-.061.61.61,0,0,1-.3-.243c-.121-.183-.3-.426-.425-.608a5.369,5.369,0,0,1-.425-.608l-.85-1.215a.6.6,0,0,0-.3-.244.777.777,0,0,0-.364-.06h-1.032c-.122,0-.182.06-.3.121a.47.47,0,0,0-.121.3V143.8c0,.121-.061.182-.121.3C150.839,144.229,150.718,144.29,150.657,144.29Zm.789-4.68h2.125a1.441,1.441,0,0,0,.485-.121,1.331,1.331,0,0,0,.486-.3,3.37,3.37,0,0,0,.364-.487,2.255,2.255,0,0,0,.122-.729,1.332,1.332,0,0,0-.061-.486c0-.122-.061-.182-.061-.3-.061-.061-.061-.182-.121-.243a1.438,1.438,0,0,0-.425-.426,1.523,1.523,0,0,0-.789-.182h-2.125c-.121,0-.182.061-.3.122s-.122.182-.122.3v2.492c0,.122.061.183.122.3A.451.451,0,0,0,151.446,139.61Z" fill="#fff"/>
    <path id="Tracé_42" data-name="Tracé 42" d="M158.427,142.71l.546-.791c.061-.121.121-.182.243-.182a.543.543,0,0,1,.3.061,10.691,10.691,0,0,0,1.154.608,3.537,3.537,0,0,0,1.578.364,3.067,3.067,0,0,0,.789-.121,1.583,1.583,0,0,0,.546-.3,1.233,1.233,0,0,0,.364-.426,1.117,1.117,0,0,0,.122-.425.691.691,0,0,0-.182-.486.959.959,0,0,0-.486-.3c-.121-.061-.182-.061-.3-.122s-.243-.06-.365-.121a.891.891,0,0,0-.424-.061c-.122,0-.3-.061-.425-.061s-.182-.061-.3-.061-.243-.06-.364-.06c-.243-.061-.486-.122-.789-.183a3,3,0,0,1-.789-.3,4.965,4.965,0,0,1-.729-.486,2.174,2.174,0,0,1-.485-.729,2.794,2.794,0,0,1,.182-2.371,2.28,2.28,0,0,1,.85-.85,3.739,3.739,0,0,1,1.153-.426,9.014,9.014,0,0,1,1.275-.121,6.305,6.305,0,0,1,1.092.06.874.874,0,0,1,.425.122c.122.061.3.061.425.121a2.938,2.938,0,0,0,.425.183l.364.182c.061.061.182.122.243.182s.182.122.243.183c.121.061.121.182.182.243a.548.548,0,0,1-.061.3l-.546.79a.324.324,0,0,1-.243.182.551.551,0,0,1-.3-.06,4.807,4.807,0,0,0-.972-.487,3.265,3.265,0,0,0-1.335-.243h-.243a.654.654,0,0,0-.3.061l-.547.182c-.06.061-.182.061-.242.122s-.183-.061-.243,0a.74.74,0,0,0,0,.972,1.167,1.167,0,0,0,.546.3c.121.061.243.061.364.122s.243.061.364.121a.77.77,0,0,0,.365.061c.121,0,.242.061.364.061s.182.061.3.061.243.06.365.06.242.061.364.061c.121.061.243.061.364.122.061,0,.121.061.243.061.06,0,.121.06.243.06l.364.183.364.182c.061.061.121.061.182.122s.121.121.182.121a2.552,2.552,0,0,1,.486.729,2.958,2.958,0,0,1,.182,1.094,2.825,2.825,0,0,1-.243,1.277,2.7,2.7,0,0,1-.728.912,3.4,3.4,0,0,1-1.154.547,6,6,0,0,1-1.456.182,8.329,8.329,0,0,1-1.336-.122,6.5,6.5,0,0,1-1.032-.3,2.886,2.886,0,0,1-.425-.182c-.121-.061-.3-.182-.425-.243-.06-.061-.182-.122-.242-.182s-.182-.122-.243-.183c-.122-.06-.182-.121-.182-.243C158.3,142.892,158.366,142.77,158.427,142.71Z" fill="#fff"/>
    <path id="Tracé_43" data-name="Tracé 43" d="M48.317,144.29,52.93,134.5l4.613,9.786Zm3.035-2.127h3.339L53.052,138.7Z" fill="#fff"/>
    <path id="Tracé_44" data-name="Tracé 44" d="M120.793,144.29l4.613-9.786,4.613,9.786Zm3.035-2.127h3.338l-1.639-3.465Z" fill="#fff"/>
    <path id="Tracé_45" data-name="Tracé 45" d="M27.376,138.88h-7.77v.669h7.77Z" fill="#fff"/>
    <path id="Tracé_46" data-name="Tracé 46" d="M175.059,138.88h-7.77v.669h7.77Z" fill="#fff"/>
  </g>
</svg>
