<svg width="133" height="82" viewBox="0 0 133 82" fill="none" xmlns="http://www.w3.org/2000/svg">
<path d="M58.233 14.3237C58.7741 14.8156 59.8824 14.7279 59.9431 15.8954L59.3259 15.8629C59.5233 16.7627 59.1251 17.4758 58.6602 18.0856C58.4915 19.4414 58.388 20.7475 58.1534 22.0298C57.9073 23.3739 57.5354 24.6952 57.2103 26.0617L56.4161 25.9843C57.4948 27.3128 57.3038 28.7301 57.013 30.0511L58.2747 30.6883C58.403 30.595 58.5308 30.502 58.7332 30.3547C58.5536 29.9726 58.3654 29.5728 58.124 29.0596C59.1485 28.5272 59.2072 27.5644 59.1669 26.4951L58.2705 26.189C59.1096 25.2838 59.5736 24.0937 59.5688 22.8595C59.6081 20.1373 60.525 17.5558 61.4558 15.0148C61.6112 14.5914 62.0395 14.267 62.6262 13.5481L60.6702 13.7528L60.6578 15.1587C59.8436 14.6025 59.2476 14.1946 58.652 13.7876L59.9017 11.225L60.5847 11.2512C61.2789 9.26908 63.0346 8.04448 64.4095 6.43548L65.543 6.25828L66.1721 7.12296L67.1587 6.62988C66.6216 6.28031 66.2908 6.06498 65.9498 5.84283C65.9784 5.66244 66.0155 5.42716 66.0511 5.20008C66.9793 4.47389 67.7902 5.3031 68.8529 5.4094C68.6282 4.95637 68.4501 4.59766 68.2026 4.09881C69.1501 3.06301 70.632 3.31287 71.7482 2.74284C72.0668 3.09531 72.3202 3.37498 72.8917 4.00686C72.7726 3.2262 72.7058 2.78872 72.6782 2.60702L74.3663 1.37878C74.4053 1.72885 74.432 1.96862 74.4892 2.48635L75.4508 1.34873C75.2514 1.43174 75.3523 1.36266 75.4603 1.34862C77.2893 1.11092 79.1138 0.78088 80.9501 0.671368C83.4361 0.503458 85.933 0.741055 88.3427 1.37486C90.3708 1.92576 92.2885 2.87292 94.3654 3.3203C94.784 3.41002 95.1582 3.70766 95.5771 3.92195C95.5655 3.99433 95.5406 4.15088 95.4831 4.50874C95.8719 4.4176 96.2773 4.42544 96.6622 4.53158C97.0472 4.6377 97.3993 4.83872 97.6864 5.11621C99.7551 6.91121 99.7443 6.92371 99.9701 8.05271L102.266 9.52068L101.624 10.7581L102.515 11.1123C103.351 12.8634 104.123 14.4803 104.908 16.1247L103.999 16.9523C105.019 18.1884 104.723 19.6358 104.419 21.2939L105.931 21.1106L106.038 22.6523L105.179 22.0469C104.956 22.4124 104.528 22.7986 104.505 23.2075C104.441 24.5604 104.451 25.9157 104.535 27.2674C104.554 27.6099 104.864 27.9372 104.909 28.0226C104.668 29.1263 104.193 30.0641 104.333 30.897C104.715 33.1718 103.623 35.0333 102.964 37.0229C102.751 37.5774 102.509 38.1207 102.24 38.6505C102.055 38.5248 101.812 38.3612 101.553 38.185C101.493 38.2906 101.36 38.4589 101.387 38.4918C101.809 39.0032 102.167 39.5173 101.573 40.3954L100.453 41.2108L100.295 43.8557L98.8432 44.3781C99.1886 46.1687 97.9731 47.515 97.0907 49.0234L96.3444 48.9893L95.9771 50.9868L94.4548 52.0944C94.6208 53.0232 94.6512 53.8743 93.4578 54.1173L92.5007 56.7749L97.825 56.1702L98.0405 55.5218L99.7917 54.9383L100.098 55.3593C100.218 55.3194 100.427 55.2813 100.426 55.2445C100.419 54.5378 101.03 54.3396 101.467 54.0802C102.034 53.7425 102.706 53.5846 103.304 53.2908C103.852 53.021 104.331 52.5123 104.9 52.3984C105.679 52.2411 105.659 51.4519 106.214 51.0788C106.831 50.6642 107.676 50.6906 108.157 49.9007C108.539 49.275 109.347 48.898 109.989 48.4442C111.99 47.0323 113.471 45.1341 114.959 43.2318C115.871 42.0645 116.942 41.0126 117.778 39.7962C119.133 37.8799 120.375 35.8861 121.497 33.8252C122.009 32.8541 123.095 32.1663 123.042 30.8932C123.026 30.5016 123.87 30.3066 123.308 29.7117C123.215 29.6131 123.611 29.1078 123.699 28.7692C123.818 28.3102 123.828 27.8241 123.939 27.3626C124.149 26.4938 124.397 25.6346 124.686 24.5604L125.785 26.0717C125.345 27.0334 125.345 27.0334 125.819 29.1542L126.774 28.4594C126.377 27.0408 127.127 25.6338 127.108 24.1424L128.028 24.3162L128.352 26.1637C128.56 25.9931 128.919 25.8445 128.947 25.6487C129.027 25.0924 128.972 24.5168 128.968 23.572C129.525 24.0086 129.835 24.2517 130.214 24.5488L132.14 24.4837L130.975 26.3196C131.31 26.5728 131.698 26.8662 132.173 27.2251L131.495 29.3015L132.869 29.1363L132.574 30.7542L131.136 30.9252C131.71 31.4042 132.009 31.6531 132.286 31.8841L131.988 32.7175C131.949 32.6816 131.785 32.5325 131.486 32.2613L130.524 34.8915C130.805 34.9501 131.024 34.9957 130.94 34.9782L130.949 36.9587L129.933 36.8938C129.99 37.4115 130.046 37.9294 130.103 38.4592L129.053 39.2234C128.527 40.6265 128.147 41.9334 127.553 43.1358C127.024 44.2093 125.631 44.697 125.386 46.1567L123.991 45.8935L122.891 46.8181L124.422 46.5205C123.625 48.0442 123.569 50.0251 121.336 50.318L121.154 51.4751L120.367 51.4181C120.006 52.5137 119.234 53.249 117.865 53.2218L117.504 54.8525L116.15 55.312C116.098 55.4287 116.049 55.7891 115.851 55.9173C115.632 56.0579 115.24 55.9076 114.986 56.0224C114.641 56.2167 114.315 56.4451 114.015 56.7043C113.779 56.9164 113.519 57.099 113.239 57.2481C112.973 57.3529 112.652 57.319 112.208 57.3597C112.03 59.3171 109.939 58.5057 108.827 59.9746L108.809 57.753C108.227 57.6826 107.777 58.6696 107.784 60.0713L107.206 59.5521C106.188 59.4143 106.263 60.5299 105.716 60.993L104.346 60.8164L104.185 61.5379C103.967 61.3645 103.794 61.227 103.498 60.9914C101.957 61.5451 100.306 62.1505 98.6296 62.6709C98.3442 62.7785 98.0361 62.8119 97.7342 62.7678C97.4324 62.7238 97.1467 62.6038 96.9039 62.419C96.3653 62.7957 95.8874 63.4137 95.3854 63.4338C92.6024 63.5445 89.8133 63.5007 87.0266 63.5344C86.5913 63.5407 86.1581 63.6876 85.7205 63.7372C85.198 63.7964 84.6716 63.8205 84.0819 63.865C84.1398 64.0401 84.2249 64.2992 84.3691 64.7363C83.303 65.3347 82.5394 66.5102 81.0626 66.5344L80.2535 68.1593C78.5383 68.1873 77.764 70.312 76.0777 70.3507L75.0816 71.627C74.7558 71.3984 74.5157 71.2297 74.2598 71.0499C73.8392 72.0078 73.0507 72.2748 72.0827 72.5845C71.1689 72.8769 70.3857 73.5672 69.3166 73.3479C69.2817 73.4928 69.2475 73.6369 69.1772 73.9383L68.3691 73.9314L68.0052 74.6259C67.0161 75.035 66.038 75.5151 65.0125 75.8459C62.9154 76.5226 61.0051 77.7523 58.7004 77.8478C57.9243 77.8798 57.1477 78.2915 56.4017 78.603C52.0289 80.4288 47.4033 80.8375 42.7452 81.0962C40.1231 81.2568 37.4912 81.0729 34.9169 80.5492C34.0717 80.3735 33.1775 80.1211 32.3533 80.2414C31.4566 80.3717 30.8544 79.7535 30.0214 79.7294C27.7697 79.6638 25.7232 78.6383 23.5913 78.0304C21.5202 77.4019 19.4947 76.6318 17.5291 75.7256C15.4433 74.8057 13.2783 73.9364 11.4336 72.6383C9.69479 71.4144 7.69272 70.5199 6.23634 68.8894C6.05923 68.6908 5.59227 68.7372 5.43782 68.5338C4.55914 67.3773 3.19825 66.7856 2.23835 65.7521C1.54131 65.0014 1.00663 64.0997 0.295408 63.1222L0.716282 61.3147L3.02132 60.4864C3.2629 60.6989 3.42908 60.845 3.6079 61.002L4.3644 60.4516C5.05776 60.6537 5.74155 60.7535 6.32313 61.0502C6.92895 61.3325 7.46284 61.7486 7.88462 62.2671C9.25906 64.1562 11.4472 64.9023 13.2568 66.1579C14.5721 67.0697 16.0245 67.8035 17.3636 68.716C18.0838 69.2067 18.9951 69.4225 19.834 69.7319C21.7238 70.4294 23.5327 71.3306 25.475 71.9011C26.5469 72.216 27.5507 72.7842 28.6319 73.0428C30.9813 73.6039 33.345 74.1412 35.7306 74.5052C40.7605 75.2726 45.7569 74.7091 50.7121 73.7912C51.7841 73.5926 52.7999 73.0445 53.8164 72.5967C55.1724 71.9994 56.7125 71.9893 58.0138 71.2235C59.8929 70.1177 62.1176 69.7554 63.9152 68.4429C64.5677 67.9681 65.4012 67.7466 66.1361 67.3777C66.871 67.0088 67.3401 66.1957 68.3824 66.2804C68.7377 66.3093 69.2022 65.6529 69.5297 65.2411C70.4741 64.0496 71.3579 63.4472 72.8715 63.073L73.2102 62.1147C73.5013 62.1308 73.796 62.1331 74.0861 62.1666C74.3186 62.193 74.5468 62.2567 74.6899 62.2861L74.9136 60.4517C74.0733 59.9965 73.0277 59.4758 72.0291 58.8765C71.0241 58.2729 70.0941 57.5396 69.0797 56.9559C68.021 56.3664 67.0487 55.6339 66.19 54.7791L65.4133 54.6566C64.8899 53.9373 64.3642 53.1485 63.7677 52.4175C63.346 51.9001 63.1685 51.134 62.2677 51.0469C62.0009 51.0215 61.6145 50.485 61.5773 50.1501C61.4093 48.6392 60.227 47.7489 59.5327 46.5638C58.9176 45.5136 58.3541 44.4357 58.7463 43.048C58.0476 42.2738 57.5892 41.313 57.427 40.2828C57.3277 39.566 56.7322 38.8461 56.8236 38.1922C56.9419 37.3453 56.3395 36.8992 56.2221 36.2787C55.9722 34.9643 55.1908 33.5954 56.4202 32.2179L55.3173 31.8864L55.8627 30.2305C55.7881 29.9496 55.6023 29.2488 55.3136 28.1603C55.4087 26.8938 55.224 25.0976 55.7515 23.543C56.2703 22.0139 56.209 20.4598 56.6118 18.9706C57.0376 17.3909 57.6836 15.8695 58.233 14.3237ZM78.8329 8.06821C77.9765 7.7718 77.3166 7.54321 76.6764 7.32294L76.6521 8.77421C76.1272 8.49361 75.812 8.32531 75.45 8.13202C75.5259 8.52475 75.5936 8.87377 75.6567 9.20069L75.1696 9.55512C74.8576 9.25436 74.5403 8.9463 74.1633 8.58209L72.522 9.77622C71.1017 9.07588 70.0753 9.21301 70.0958 10.0284C70.3243 10.0894 70.5955 10.0914 70.7565 10.2257C70.9047 10.3492 70.9347 10.6148 71.1057 11.0385C70.3633 11.0113 69.7649 10.9121 69.1953 10.9987C68.8718 11.0478 68.5952 11.4018 68.1736 11.7085L69.2229 12.0415C69.1304 13.6013 69.1313 13.6038 67.8648 13.7656C67.6416 14.1931 67.2457 14.6029 67.2849 14.9636C67.3347 15.4126 67.7075 15.8137 67.0551 16.0229C66.6571 15.8599 66.2935 15.71 65.7412 15.4829C65.7131 16.7904 65.6906 17.8355 65.6675 18.8802L64.8333 18.8041L64.9582 20.4265L64.0701 22.0294L64.7634 22.2212L62.9565 24.5807L63.554 24.7048C63.8407 25.813 64.1168 26.8811 64.4505 28.1709C65.5799 26.5601 64.6942 24.9279 65.1873 23.469C65.6804 22.01 65.9549 20.4818 66.3651 18.8249L66.9938 19.6889C66.7528 20.8241 66.7074 21.7806 66.3358 22.5865C65.9451 23.4336 66.3455 24.356 65.9146 25.1137C65.4295 25.9658 65.8632 26.8056 65.7801 27.6428C65.6418 29.0314 66.3428 30.5239 65.276 31.7414C65.9295 32.9199 66.343 34.1004 66.1239 35.4723L67.2009 36.9526L66.6801 37.7301C67.3914 37.9577 67.9934 38.2168 67.8666 39.1262C67.7878 39.7288 67.8433 40.3413 68.0289 40.92C68.2146 41.4987 68.5258 42.0292 68.9404 42.4735C69.5692 43.199 69.7119 44.1069 70.1174 44.9095C70.4218 45.5126 71.0634 45.9596 70.8787 46.7729C70.8636 46.8376 71.0903 46.9567 71.2046 47.0502L72.0431 46.8011C72.0385 47.1049 72.0744 47.408 72.1497 47.7023C72.2829 47.9913 72.47 48.2523 72.701 48.4712C72.9214 48.6948 73.2489 48.8219 73.4414 49.0621C73.6086 49.2702 73.5761 49.703 73.7656 49.8196C74.8595 50.4899 75.7442 51.3735 76.678 52.2415C77.8308 53.2892 79.2365 54.0187 80.7568 54.3583C82.046 53.1031 82.535 51.6022 83.6276 50.4223C84.7876 49.1692 85.3152 47.3528 86.2514 45.8654C88.0251 43.0477 88.6248 39.6521 90.6843 36.9781C90.8401 36.7757 90.7446 36.3783 90.7633 36.0725C90.7444 35.8145 90.7637 35.555 90.8206 35.3026C91.9809 32.2741 92.762 29.1137 93.1463 25.8935C93.3773 24.1506 93.2795 22.4294 93.1445 20.6917C93.0698 19.7285 92.6467 18.7779 92.7422 17.8625C92.9124 16.2294 92.084 14.9398 91.4572 13.6478C90.7764 12.2427 89.7393 10.9734 88.6897 9.79441C87.5774 8.59571 86.1648 7.71636 84.5982 7.24754C84.1365 7.09855 83.5478 7.38252 83.052 7.28601C82.5562 7.18949 82.1067 6.86992 81.5715 6.61643L81.3746 7.36684L80.0327 7.19277L78.8329 8.06821Z" fill="#F9B500"/>
</svg>
