<svg width="77" height="18" viewBox="0 0 77 18" fill="none" xmlns="http://www.w3.org/2000/svg">
<path d="M28.2003 16.8525C28.0301 16.6735 27.8742 16.5078 27.686 16.311L27.439 16.3151C27.1955 15.8974 26.6741 15.8921 26.3579 15.5318C26.3911 15.47 26.4369 15.3875 26.495 15.281C26.3373 14.9771 26.2545 14.6237 26.003 14.3435C25.8791 14.2056 25.8164 14.0098 25.7284 13.8392C25.5284 13.4515 25.3423 13.0559 25.1283 12.6744C24.8138 12.1105 24.4776 11.5584 24.1569 10.9984C24.0983 10.8965 24.0752 10.7751 24.0213 10.6712C23.8604 10.3513 23.6932 10.0337 23.5274 9.71429L23.2447 9.634L23.3346 9.43493L22.4891 8.32461L22.2732 8.38114L22.309 8.09286C22.1726 7.9269 22.029 7.7535 21.9406 7.64642C21.7316 7.53789 21.5912 7.4651 21.4267 7.37996C21.1104 7.34033 20.8544 7.57323 20.5678 7.69026C19.8834 7.97079 19.2123 8.28748 18.5448 8.60871C17.7809 8.97662 17.0268 9.3615 16.2708 9.74331C15.3516 10.2059 14.4383 10.6793 13.517 11.1372C11.8921 11.9458 10.2531 12.7265 8.64188 13.5598C7.74089 14.0256 6.87782 14.5641 6.01252 15.0964C5.0858 15.6671 4.17684 16.2703 3.25989 16.858C3.05752 16.9881 2.84938 17.109 2.64894 17.2422C2.46999 17.3619 2.29132 17.4507 2.06968 17.4817C1.86563 17.5094 1.67099 17.6013 1.46112 17.6703C1.25604 17.5516 1.37438 17.3092 1.24757 17.0902C0.928808 16.8555 0.372612 17.013 0.0802172 16.5951C0.086057 16.3846 0.225436 16.2426 0.331694 16.0778C0.530095 15.7706 0.715504 15.4468 0.506121 15.1137C0.453263 14.6647 0.753834 14.4893 1.02305 14.2926C1.61792 13.8595 2.21262 13.4248 2.80925 12.9932C3.04209 12.8244 3.27315 12.6541 3.51352 12.4959C4.18257 12.0557 4.84793 11.611 5.52852 11.1892C6.71158 10.4572 7.93226 9.79477 9.18784 9.19086C10.4667 8.57495 11.7251 7.91543 12.9935 7.2761C13.4919 7.02482 13.9883 6.77047 14.4929 6.53323C15.4615 6.07569 16.4378 5.63205 17.4082 5.17758C18.4738 4.6798 19.5331 4.16797 20.6027 3.67794C21.0393 3.47816 21.4965 3.32361 21.931 3.15332C22.2267 3.26655 22.5173 3.37702 22.8247 3.49401L23.0249 3.22251C23.3357 3.27244 23.6713 3.3265 24.0731 3.39211L24.2423 3.27171L24.4535 3.38654L24.2221 3.67243C24.2607 3.73546 24.2977 3.79864 24.3483 3.88494L24.5541 3.58686C24.637 3.61959 24.7614 3.62718 24.7897 3.68469C24.9326 3.96885 25.2404 4.07278 25.4284 4.30214C25.7434 4.68372 26.0659 5.05969 26.3658 5.4541C26.554 5.70136 26.7086 5.97299 26.8694 6.24078C27.0185 6.48852 27.1552 6.74235 27.298 6.99233C27.3198 7.03256 27.3386 7.07632 27.3693 7.10756C27.686 7.44014 27.8454 7.86269 28.056 8.25917C28.2566 8.63706 28.5269 8.97735 28.7678 9.33349C28.7832 9.35805 28.8298 9.36823 28.8337 9.39227C28.9305 9.85826 29.2593 10.1978 29.4721 10.6006C29.5933 10.8282 29.6123 11.1113 29.6756 11.364L29.9382 11.4885C30.6291 11.3099 31.1963 10.8941 31.8165 10.5889C32.3853 10.308 32.94 9.99924 33.5022 9.70114C34.2767 9.29151 35.0473 8.87413 35.8258 8.47226C36.4974 8.12622 37.1773 7.79892 37.853 7.46226C38.799 6.9906 39.7642 6.54965 40.6867 6.03631C41.756 5.44213 42.8602 4.92274 43.9458 4.36281C44.574 4.03885 45.2458 3.79697 45.8777 3.47915C46.6462 3.09126 47.408 2.68449 48.1469 2.24247C48.8366 1.83122 49.5772 1.52576 50.2734 1.13178C50.5884 0.953443 50.9118 0.79545 51.2599 0.692049C51.3453 0.665951 51.4373 0.657129 51.5571 0.634231C51.7722 0.99284 52.1284 0.888665 52.4717 0.886652C52.5205 0.81849 52.5704 0.745334 52.6293 0.663185C52.9774 0.847885 53.3429 0.806301 53.7228 0.711249C53.8424 0.854407 53.9459 1.00073 54.0747 1.12183C54.1947 1.23565 54.3076 1.34364 54.3892 1.53275C54.5901 1.58998 54.7612 1.72819 54.9168 1.95903C55.1673 2.33052 55.4145 2.7007 55.6157 3.10134C55.6899 3.24722 55.7796 3.3851 55.8601 3.52874C55.9325 3.65527 56.0018 3.78372 56.0937 3.89371C56.1655 4.13261 56.2292 4.37227 56.3089 4.60878C56.4277 4.96523 56.5879 5.31121 56.6635 5.67506C56.7027 5.86336 56.7982 5.95999 56.8995 6.04794C56.9782 6.39359 57.0372 6.71997 57.131 7.0365C57.2155 7.32301 57.3395 7.59758 57.4592 7.91163C57.5152 7.88509 57.5625 7.86916 57.6055 7.84225C57.644 7.81902 57.6749 7.78513 57.7231 7.74469C57.7999 7.78128 57.8784 7.81932 57.9722 7.86403C58.1287 7.79855 58.3003 7.73814 58.4604 7.65929C59.4629 7.16594 60.4672 6.67404 61.4636 6.16825C62.0688 5.85951 62.656 5.51668 63.261 5.20634C63.7544 4.9539 64.2753 4.75091 64.7589 4.48151C65.3261 4.16666 65.9235 3.91239 66.5145 3.66034C67.7936 3.11441 69.0143 2.452 70.2691 1.85792C70.7736 1.61907 71.2536 1.32886 71.7596 1.08986C72.2033 0.87963 72.6658 0.711553 73.148 0.512278C73.1416 0.615433 73.1388 0.671043 73.135 0.733259C73.3096 0.806023 73.4844 0.880399 73.6235 0.938673C73.9357 0.833838 74.2274 0.735855 74.4939 0.646798C74.6936 0.759483 74.8691 0.858207 75.0824 0.977718C75.0506 1.17283 74.9184 1.3727 74.8738 1.60323C75.014 1.67279 75.1559 1.74381 75.2534 1.79305C75.4098 1.77804 75.5239 1.76221 75.6388 1.75606C75.7524 1.75168 75.8652 1.75713 76.0053 1.75833C75.8444 2.15139 75.6161 2.48581 75.2578 2.7383C74.8126 3.05123 74.3785 3.37935 73.9427 3.70601C73.8593 3.76936 73.7852 3.84484 73.7128 3.92177C73.4132 4.2435 73.1315 4.58142 72.8155 4.88357C72.5994 5.09149 72.3419 5.25781 72.0949 5.43126C71.3875 5.93047 70.6077 6.30155 69.8377 6.6912C68.973 7.12739 68.1202 7.58684 67.2452 8.00123C66.6177 8.29746 65.9555 8.52052 65.322 8.80593C64.5498 9.15511 63.796 9.54321 63.0277 9.89854C62.0132 10.3686 60.9867 10.8155 59.9739 11.287C59.4676 11.5228 58.9524 11.735 58.4115 11.865C57.9772 11.9702 57.6015 12.1934 57.2098 12.3856C56.8024 12.5842 56.4074 12.811 55.9918 12.9908C55.8057 13.0705 55.5824 13.0675 55.3356 13.1075C55.3889 12.9673 55.4226 12.8778 55.4691 12.7513C55.0263 12.7677 54.71 12.5588 54.4063 12.3112C54.2792 12.2079 54.1214 12.1416 53.9898 12.0419C53.8583 11.9439 53.743 11.828 53.6185 11.7178C53.7438 11.6326 53.8431 11.5645 53.9653 11.4811C53.8566 11.3662 53.7768 11.2811 53.6771 11.1751C53.657 11.0338 53.6332 10.87 53.6109 10.7062C53.3477 10.3375 53.1834 9.93172 53.1143 9.4826C53.0923 9.33822 53.0558 9.14477 52.9562 9.07295C52.7079 8.89494 52.7602 8.6588 52.7149 8.44178C52.59 8.14125 52.4636 7.84087 52.3387 7.54034L52.3886 7.51764C52.3333 7.46761 52.2782 7.41918 52.2071 7.35602L52.1673 6.94152C51.9624 6.66061 51.8389 6.38599 51.7969 6.11766C51.5682 5.77012 51.3448 5.42695 51.1142 5.07634C50.686 5.19394 50.3033 5.36088 49.944 5.5858C48.3623 6.5742 46.7167 7.43854 45.023 8.2261C43.7064 8.83911 42.4345 9.54388 41.1464 10.216C39.9126 10.8602 38.7007 11.5461 37.4331 12.1268C36.6363 12.4913 35.8766 12.937 35.0963 13.3374C33.8989 13.9536 32.6952 14.5558 31.5018 15.1798C30.9795 15.4529 30.4813 15.7742 29.9673 16.066C29.586 16.2817 29.2066 16.5004 28.811 16.6864C28.6117 16.7804 28.3794 16.8027 28.1935 16.8499L28.2003 16.8525Z" fill="#5762C7"/>
</svg>
