<svg width="275" height="51" viewBox="0 0 275 51" fill="none" xmlns="http://www.w3.org/2000/svg">
<path d="M99.8003 50.7904C99.2569 50.0966 98.7597 49.4549 98.1584 48.6917L97.2796 48.6223C96.5569 47.0556 94.7068 46.859 93.7066 45.4714C93.8454 45.2633 94.0362 44.9858 94.279 44.6273C93.8223 43.4942 93.6488 42.2107 92.851 41.1295C92.4578 40.5976 92.3017 39.8807 92.0474 39.2447C91.4692 37.7994 90.9431 36.3309 90.3129 34.9028C89.3879 32.7926 88.3819 30.717 87.4337 28.6183C87.2603 28.2368 87.2198 27.7974 87.0637 27.41C86.6012 26.219 86.1155 25.0338 85.6357 23.8428L84.6586 23.4613L85.046 22.7848L82.4212 18.5528L81.6349 18.6799L81.8603 17.6682C81.4325 17.0322 80.9816 16.3673 80.704 15.9569C79.9987 15.5001 79.5246 15.1937 78.9696 14.8353C77.8595 14.5866 76.8709 15.3267 75.8129 15.6447C73.2864 16.4078 70.7945 17.304 68.3143 18.2174C65.4756 19.2639 62.6658 20.3739 59.8502 21.4724C56.4275 22.8022 53.0222 24.1724 49.5938 25.4848C43.5463 27.8032 37.4584 30.0175 31.4514 32.4284C28.0924 33.7754 24.8432 35.3943 21.5882 36.99C18.102 38.7013 14.6677 40.534 11.2104 42.3089C10.4472 42.7021 9.66675 43.0605 8.90937 43.4652C8.23293 43.8295 7.56806 44.0839 6.77021 44.1185C6.03596 44.1475 5.31328 44.4076 4.54434 44.5811C3.85634 44.0896 4.35933 43.2687 3.98353 42.4477C2.9313 41.5053 0.901992 41.8753 0.00585938 40.2912C0.0983634 39.5454 0.641824 39.0886 1.07544 38.5394C1.88485 37.5161 2.65379 36.4292 2.0236 35.1746C1.98891 33.5615 3.11631 33.0412 4.13963 32.4341C6.4002 31.0986 8.66076 29.7573 10.9271 28.4276C11.8117 27.9072 12.6905 27.3811 13.5982 26.9012C16.1247 25.5657 18.6396 24.2128 21.2008 22.9467C25.6526 20.7497 30.2142 18.8129 34.8799 17.0958C39.6323 15.344 44.3268 13.4303 49.0503 11.5918C50.9062 10.8691 52.7563 10.1349 54.6295 9.46424C58.2256 8.16918 61.8448 6.92616 65.4467 5.64267C69.4012 4.23776 73.3384 2.78082 77.3045 1.40483C78.9233 0.844021 80.6 0.450879 82.2014 -0.00585938C83.2132 0.497131 84.2076 0.988559 85.2599 1.50889L86.0635 0.612761C87.1504 0.896055 88.3241 1.20247 89.729 1.57249L90.3707 1.20247L91.0818 1.68234L90.1626 2.61894C90.2782 2.85598 90.3881 3.09302 90.5384 3.41679L91.3709 2.42815C91.6542 2.57269 92.0936 2.64207 92.1745 2.85598C92.585 3.914 93.643 4.38808 94.2328 5.26687C95.2214 6.72959 96.2389 8.17496 97.1698 9.67815C97.7537 10.6205 98.2104 11.6381 98.6903 12.6441C99.1355 13.5749 99.5344 14.5231 99.9564 15.4597C100.02 15.61 100.072 15.7719 100.17 15.8933C101.182 17.1825 101.604 18.7378 102.217 20.2178C102.801 21.6285 103.645 22.9294 104.379 24.2764C104.426 24.3689 104.587 24.421 104.593 24.5077C104.778 26.1959 105.83 27.5141 106.449 29.0173C106.802 29.8672 106.773 30.8789 106.912 31.7982L107.802 32.3301C110.317 31.9311 112.473 30.6477 114.78 29.7746C116.896 28.971 118.972 28.0633 121.07 27.1961C123.961 26.0051 126.84 24.7852 129.743 23.6231C132.246 22.6229 134.773 21.6921 137.288 20.7266C140.809 19.3737 144.387 18.1365 147.839 16.6275C151.84 14.8815 155.939 13.413 159.986 11.7942C162.327 10.8576 164.796 10.2274 167.149 9.31392C170.011 8.19809 172.855 7.01288 175.63 5.6947C178.221 4.46902 180.955 3.63649 183.563 2.4744C184.742 1.94829 185.945 1.49733 187.217 1.24873C187.529 1.18513 187.858 1.18513 188.292 1.14466C188.934 2.49175 190.235 2.24314 191.454 2.35299C191.651 2.12751 191.853 1.88469 192.09 1.61296C193.264 2.38768 194.576 2.36456 195.958 2.15642C196.334 2.70566 196.652 3.26069 197.068 3.73477C197.456 4.17995 197.82 4.602 198.045 5.30156C198.739 5.57329 199.3 6.12253 199.774 6.99554C200.537 8.40044 201.289 9.79957 201.867 11.2912C202.081 11.8347 202.353 12.355 202.59 12.8927C202.804 13.3668 203.006 13.8466 203.295 14.2687C203.468 15.1417 203.613 16.0147 203.815 16.8819C204.116 18.1885 204.567 19.472 204.711 20.7902C204.787 21.4724 205.093 21.8482 205.423 22.1951C205.584 23.4497 205.683 24.6291 205.908 25.7854C206.111 26.8319 206.457 27.8494 206.775 29.0057C206.984 28.9305 207.157 28.8901 207.319 28.8091C207.463 28.7398 207.585 28.6299 207.77 28.5027C208.03 28.6588 208.296 28.8207 208.614 29.0115C209.192 28.8323 209.822 28.6762 210.418 28.4507C214.147 27.04 217.882 25.6351 221.593 24.1782C223.848 23.2878 226.051 22.2703 228.306 21.3741C230.144 20.6457 232.064 20.1022 233.873 19.3101C235.995 18.3851 238.204 17.6855 240.389 16.9918C245.118 15.4886 249.68 13.5518 254.34 11.8693C256.213 11.1929 258.017 10.3257 259.896 9.64925C261.544 9.05375 263.243 8.61436 265.024 8.0709C264.966 8.43513 264.937 8.6317 264.903 8.8514C265.498 9.16938 266.094 9.49315 266.568 9.74753C267.712 9.48158 268.782 9.23298 269.759 9.0075C270.43 9.4758 271.019 9.88629 271.736 10.3835C271.557 11.0657 271.019 11.7306 270.782 12.5342C271.257 12.8291 271.736 13.1297 272.066 13.3378C272.627 13.3378 273.037 13.3205 273.448 13.3378C273.852 13.361 274.251 13.4188 274.749 13.4708C274.043 14.8121 273.118 15.9222 271.759 16.6969C270.071 17.6566 268.418 18.6742 266.758 19.6859C266.441 19.8825 266.151 20.1253 265.868 20.3739C264.694 21.4146 263.579 22.5189 262.353 23.4844C261.515 24.1492 260.543 24.6522 259.607 25.1841C256.924 26.7162 254.028 27.7685 251.16 28.8901C247.94 30.1447 244.754 31.486 241.505 32.6596C239.175 33.4979 236.747 34.0645 234.399 34.8624C231.538 35.8394 228.728 36.9611 225.878 37.9613C222.114 39.2852 218.315 40.5225 214.557 41.8522C212.678 42.5171 210.776 43.0952 208.811 43.3727C207.232 43.5982 205.821 44.2631 204.365 44.8123C202.85 45.3789 201.37 46.0496 199.832 46.5468C199.144 46.7665 198.352 46.6798 197.461 46.7376C197.698 46.2577 197.849 45.9513 198.057 45.5177C196.479 45.4252 195.426 44.5753 194.432 43.5924C194.016 43.1819 193.478 42.8929 193.044 42.4939C192.611 42.1008 192.241 41.6499 191.836 41.2162C192.31 40.9561 192.686 40.7479 193.148 40.4936C192.802 40.0484 192.547 39.7188 192.229 39.3083C192.206 38.7996 192.177 38.2099 192.154 37.6201C191.345 36.221 190.899 34.7236 190.807 33.1048C190.778 32.5845 190.714 31.8849 190.385 31.5958C189.564 30.8789 189.83 30.0579 189.743 29.2717C189.402 28.1616 189.055 27.0516 188.714 25.9415L188.899 25.8779C188.72 25.6813 188.541 25.4906 188.309 25.242V23.7561C187.677 22.6885 187.332 21.6709 187.274 20.7035C186.581 19.3911 185.904 18.096 185.205 16.7721C183.644 17.0438 182.227 17.5063 180.874 18.1827C174.919 21.1544 168.779 23.6636 162.495 25.8837C157.61 27.6124 152.851 29.6821 148.047 31.6305C143.445 33.4979 138.906 35.5215 134.206 37.1518C131.252 38.1752 128.401 39.4991 125.493 40.6554C121.03 42.4361 116.549 44.1648 112.098 45.9744C110.149 46.7665 108.27 47.7378 106.345 48.5992C104.917 49.2352 103.495 49.8827 102.026 50.4088C101.286 50.6748 100.454 50.6748 99.7772 50.7788L99.8003 50.7904Z" fill="#5762C7"/>
</svg>
