<svg width="58" height="69" viewBox="0 0 58 69" fill="none" xmlns="http://www.w3.org/2000/svg">
<path d="M28.2134 49.7123L29.4287 50.8741L29.6107 51.0633L29.8435 51.2036C30.8317 52.5169 31.9532 53.7082 33.1953 54.7897L33.2556 55.1321C33.2224 55.2247 33.1261 55.3597 33.1623 55.4038C33.2943 55.6045 33.4579 55.781 33.6278 55.9575C34.3192 56.6763 35.0105 57.4013 35.7209 58.108C35.9699 58.3542 36.1853 58.7053 36.7763 58.6713C36.4723 58.3871 36.2651 58.2161 36.0896 58.0147C35.6656 57.5485 35.2605 57.0702 34.8429 56.5979L35.2129 56.4486C34.9184 56.2887 34.7037 56.1735 34.4889 56.0583C34.4345 55.9954 34.374 55.9261 34.3196 55.8631L34.1565 55.6619L33.9871 55.4667L33.8177 55.2715L33.6483 55.0764L33.2905 54.7044C33.2128 54.5728 33.1602 54.4291 33.0633 54.322C32.1903 53.3955 31.3172 52.4751 30.4313 51.5731C30.2734 51.4154 30.0395 51.3247 29.8435 51.2036L29.7059 50.9779L29.5238 50.795C29.0674 50.1172 28.6047 49.4455 28.1484 48.7677C27.9383 48.454 27.6342 48.1759 27.6716 47.6365C28.2046 47.9554 28.3167 48.4787 28.6186 48.8498C28.9086 49.2021 29.2491 49.518 29.6408 49.7726L28.9504 48.4765C28.9822 48.446 29.0139 48.4154 29.0457 48.3849C29.0716 48.3419 29.1033 48.3113 29.1472 48.2934L29.2108 48.2324C29.3223 48.2466 29.472 48.218 29.5327 48.281C29.7271 48.4704 29.8959 48.6904 30.0585 48.9103C31.4736 50.8326 33.2442 52.4254 34.9642 54.0609C36.3136 55.3366 37.6184 56.6612 39.0251 57.8757C40.846 59.4446 42.8332 60.8112 44.9106 62.0366C45.4069 62.3301 45.9483 62.5561 46.4001 62.8986C47.2852 63.5709 47.8061 64.4111 47.3313 65.5891C47.1929 65.9283 47.11 66.287 46.9656 66.6199C46.8805 66.8047 46.7453 67.0074 46.5753 67.104C45.6493 67.6539 44.6994 68.1601 43.57 68.1046C42.9186 68.0693 42.276 68.1831 41.6978 68.4717C40.6354 69.0071 39.5231 69.0202 38.3827 68.9025C36.8022 68.7467 35.2217 68.5909 33.6338 68.4846C30.7682 68.2894 27.8951 68.15 25.0297 67.9486C23.0512 67.8112 21.0595 67.7047 19.1337 67.1708C18.5226 66.9996 17.9187 66.7912 17.3081 66.6013L17.0594 65.8089L16.3054 65.3747L16.3934 64.7988C17.5209 64.668 18.5369 65.0568 19.5839 65.1792C20.6372 65.3017 21.683 65.4738 22.7357 65.6211L22.7653 65.4167C21.8244 65.2712 20.8763 65.169 19.949 64.974C18.8176 64.7385 17.7003 64.435 16.5828 64.1376C16.4346 64.098 16.3209 63.9099 16.2115 63.8089C16.2963 63.3695 16.5474 63.2556 16.8936 63.3294C17.1904 63.3901 17.4732 63.5188 17.7698 63.5857C18.8082 63.8134 19.8526 64.0475 20.8979 64.2444C21.1762 64.2986 21.4974 64.3782 21.8206 64.1041C21.5852 63.8085 21.2502 63.7907 20.9408 63.7361C19.7098 63.5114 18.4783 63.3053 17.2476 63.0682C16.9384 63.0074 16.5532 63.0074 16.4208 62.5583C16.5806 62.1015 16.9637 62.1884 17.3165 62.2437C17.7561 62.3067 18.1953 62.3882 18.6694 62.3028L17.1479 61.7506C17.3607 61.5016 17.6379 61.3405 17.9792 61.2674L18.3008 60.7946C19.2316 60.8406 20.124 60.4018 21.0984 60.7093C22.8867 61.2782 24.754 61.389 26.6168 61.4314C26.7348 61.4333 26.8536 61.398 27.072 61.358C26.9204 61.2004 26.8487 61.0751 26.7383 61.0175C23.4846 59.351 20.2894 57.5738 17.2039 55.6184C14.6573 54.0006 12.1754 52.2722 10.0898 50.0659C9.08943 49.0069 8.09574 47.9294 7.43725 46.5966C7.2888 46.3024 7.0524 46.0503 6.83463 45.7985C5.37044 44.1175 4.0706 42.3149 3.01687 40.3488C1.65353 37.8065 0.678972 35.1091 0.417141 32.2184C0.00201989 27.6429 0.527791 23.2129 2.64477 19.0134C3.68686 16.9507 4.85734 14.9769 6.32127 13.2065C8.60989 10.4375 11.3764 8.22253 14.5352 6.49806C18.9084 4.11652 23.5596 2.59611 28.4613 1.79362C31.6856 1.25585 34.9448 1.0911 38.2152 0.976193C41.4731 0.861085 44.6977 1.11169 47.8976 1.62261C50.0701 1.968 52.1603 2.64727 54.2302 3.3945C54.9757 3.66102 55.734 3.90913 56.5005 4.07667C57.1495 4.21749 57.5268 4.55257 57.6926 5.1698C57.5148 5.86839 57.0112 6.15203 56.3855 6.07367C55.5741 5.97369 54.7643 5.79924 53.9808 5.56314C51.9944 4.96624 50.0083 4.35072 47.9456 4.09401C46.1616 3.87283 44.3572 3.72581 42.5573 3.65335C37.524 3.44189 32.5371 3.9016 27.6047 4.95811C23.4465 5.84708 19.5104 7.33555 15.8616 9.56116C11.3619 12.3069 7.94542 16.0199 5.88098 20.8968C4.24407 24.7564 3.84079 28.729 4.76401 32.8285C5.50096 36.1242 7.11254 38.9436 9.24579 41.5044C9.57822 41.9009 9.89795 42.3095 10.2304 42.7059C10.5448 43.0773 10.8659 43.4238 11.3717 43.581C11.6368 43.666 11.8418 43.9362 12.1712 44.196C12.4908 44.077 12.7968 44.2744 13.0432 44.6322C14.2688 46.4211 15.9274 47.7576 17.7073 48.9533C19.579 50.2064 21.4959 51.3919 23.387 52.6142C23.644 52.7798 23.8757 52.9697 24.1262 53.1476L23.9167 53.3428L23.7322 53.5261L23.682 53.5501L23.714 53.5072L23.8985 53.3239L24.1079 53.1349C25.5497 53.9092 26.9915 54.6898 28.4397 55.458C29.2988 55.9126 30.1644 56.3549 31.0303 56.7847C31.2637 56.9002 31.5229 56.9727 31.8716 56.9411C31.7146 56.7461 31.564 56.545 31.4005 56.3624C30.2449 55.034 29.0892 53.7117 27.9398 52.3834C27.1292 51.4454 26.6519 50.339 26.42 49.0937C26.4987 48.648 26.7247 48.2792 27.2461 48.0331L27.6834 48.9961L27.7023 48.984L27.0624 48.4523C27.1158 48.8256 27.3079 49.1142 27.4497 49.4269C27.5148 49.5645 27.492 49.7442 27.5067 49.912L27.4433 49.9669L27.4823 49.893C28.0182 49.8209 28.0022 50.5097 28.4909 50.5983L28.2314 49.7375L28.2187 49.7497L28.2134 49.7123ZM32.6489 55.8424L32.473 55.6596L32.2973 55.4705L32.1152 55.2876L31.9458 55.0924L31.7637 54.9094L31.5881 54.7142L31.5642 54.6703L31.6135 54.6898L31.7891 54.885L31.9712 55.068L32.1406 55.2631L32.3227 55.4461L32.5048 55.6291L32.6807 55.8119L32.723 55.8623L32.6616 55.8302L32.6489 55.8424ZM23.155 54.0382L23.2175 54.0206L23.1671 54.0508L23.123 54.075L23.1613 54.0321L23.155 54.0382ZM11.1766 46.8865L11.045 46.6671L10.8885 46.4535L10.1791 45.7034L9.94617 45.5693L9.84177 45.251L9.72204 45.3236L9.95873 45.5633L10.0836 45.8012L10.8057 46.5391L11.0196 46.6915L11.2018 46.8683L11.2506 46.9063L11.1764 46.8927L11.1766 46.8865ZM5.792 18.3192L5.8879 18.2028L5.8102 18.3381L5.6155 18.6951L5.4146 19.0519C4.96687 19.6033 4.61156 20.1873 4.65572 20.9578L5.42672 19.0645L5.60929 18.695L5.78579 18.3191L5.792 18.3192ZM16.9158 7.51101L16.8401 7.55945L16.8914 7.492C17.7097 7.30033 19.5449 6.39255 20.0099 5.89723C19.3015 6.17137 18.5992 6.45181 17.9265 6.7948C17.5618 6.98136 17.2506 7.27431 16.9094 7.51712L16.9158 7.51101ZM9.02929 13.2315L9.13096 13.1338L9.05355 13.2567C8.06828 13.9485 7.12747 15.1314 6.79164 16.2123C7.14303 15.7959 7.39809 15.5144 7.63496 15.2141C8.10869 14.6134 8.56999 14.0125 9.03145 13.4053C9.05716 13.3685 9.0342 13.2874 9.0355 13.2316L9.02929 13.2315ZM6.98899 14.676L7.05428 14.5405L7.00733 14.6887C5.87822 15.4217 5.33009 16.5488 4.91655 17.7651L4.86586 17.8077L4.89215 17.746C5.72767 16.816 6.44101 15.797 6.98293 14.6697L6.98899 14.676ZM6.3684 40.7504C6.4675 40.2305 6.10286 39.8833 5.84335 39.5563C5.18585 38.7139 4.66671 37.7992 4.24837 36.8241C4.20115 36.7178 4.0849 36.6414 3.98193 36.528C3.94221 36.6329 3.91043 36.6634 3.92242 36.6822C4.37654 38.2539 5.39768 39.487 6.39368 40.7322C6.42386 40.7699 6.44769 40.8137 6.41765 40.7698C6.47311 40.7893 6.41765 40.7698 6.37447 40.7567L6.3684 40.7504ZM32.9841 2.05272L33.5688 2.01869L33.5465 1.9128L33.002 2.08405C32.6977 2.07915 32.3885 2.0183 32.0892 2.06314C30.3745 2.33347 28.6592 2.62863 26.944 2.92378C26.8754 2.93509 26.8171 3.03348 26.7536 3.09453L26.3427 3.13136L26.3713 3.23735L26.7293 3.06931C27.0029 3.0613 27.2819 3.08442 27.5499 3.04528C28.9651 2.8322 30.3742 2.61281 31.7839 2.3686C32.1893 2.30064 32.5839 2.16422 32.9839 2.05893L32.9841 2.05272ZM17.6726 6.22582L17.6216 6.28086L17.6545 6.2007C17.8039 6.19069 17.9651 6.2057 18.0966 6.15816C19.4686 5.66503 20.8409 5.1595 22.2072 4.64766C22.5331 4.52255 22.8474 4.36622 23.1738 4.2225C23.002 4.13282 22.8529 4.13042 22.7153 4.17166C21.8766 4.43748 21.0199 4.67819 20.2046 5.00647C19.3391 5.35877 18.5147 5.81106 17.6727 6.21961L17.6726 6.22582ZM29.5166 3.15767L36.3521 2.28081C34.0235 2.23708 31.7315 2.4857 29.5166 3.15767ZM3.8067 34.7188L4.01885 34.6787C3.83071 33.9556 3.69903 33.2086 3.44821 32.5093C3.19754 31.8038 3.26589 31.0041 2.85664 30.1719C2.57291 31.9489 3.30549 33.3016 3.80049 34.7187L3.8067 34.7188ZM4.54185 19.4475C3.46961 20.6717 2.9011 22.14 2.92674 23.4378C3.5068 22.007 4.02129 20.7241 4.54185 19.4475V19.4475ZM5.83781 40.5929C6.35374 42.1779 7.62875 43.7131 8.54292 43.9389C8.02867 43.3471 7.55615 42.8305 7.11541 42.2833C6.67467 41.7361 6.25949 41.1583 5.83767 40.5991L5.83781 40.5929ZM10.1043 11.8894C10.6736 11.4516 11.2311 10.9888 11.8247 10.5762C12.709 9.9511 13.1717 9.55506 13.3991 9.1304C11.9665 9.82119 10.7067 10.8314 10.1105 11.8895L10.1043 11.8894ZM42.0213 1.86313C43.5585 2.27898 45.0844 2.37806 46.6185 2.39657C45.877 2.22323 45.1343 2.10573 44.3843 2.03157C43.5972 1.9506 42.809 1.91928 42.0213 1.86313V1.86313ZM1.58523 29.0154C1.93418 28.4375 1.99833 27.8178 1.7972 26.8524C1.47222 27.4679 1.42382 27.9451 1.58523 29.0154ZM2.63421 22.1295C1.92592 23.1982 1.7741 23.8475 1.93567 24.6447L2.63421 22.1295ZM2.49471 27.5775C2.75528 26.7933 2.96618 26.0084 2.84102 24.9821C2.55097 25.9644 2.34008 26.7494 2.49471 27.5775ZM12.4472 8.92262C11.5827 9.23149 10.8996 9.75434 10.2651 10.5883C11.1218 10.0807 11.7915 9.6011 12.4472 8.92262V8.92262ZM3.83551 24.694L3.64993 24.6599C3.48973 25.4023 3.10005 26.1285 3.52273 26.9174L3.83565 24.6877L3.83551 24.694ZM3.6006 37.6951C3.46172 36.7245 3.33205 36.4244 2.75714 35.7696C2.91308 36.5418 3.10383 37.1532 3.6006 37.6951ZM2.19022 31.5765C2.08245 32.2017 2.14929 32.7987 2.50539 33.5122C2.598 32.7377 2.50633 32.1403 2.19022 31.5765ZM1.63493 31.4124C1.38549 31.9857 1.42301 32.5077 1.86592 32.9618L1.63493 31.4124ZM12.3319 10.6713C12.8023 10.4802 13.2303 10.2388 13.6097 9.68627C12.9223 9.86142 12.6148 10.26 12.3319 10.6713ZM40.2639 66.0215C39.3076 65.7391 38.8601 65.7505 38.2643 65.9892L40.2639 66.0215ZM17.0682 6.03606C16.7106 5.91856 16.4713 6.05748 16.339 6.40297L17.0682 6.03606ZM1.15754 27.3759L1.05197 27.3742L1.02867 28.3733L1.13424 28.375L1.15754 27.3759ZM43.882 64.3168C44.0946 64.5251 44.2135 64.7567 44.5851 64.5392C44.3973 64.3313 44.2854 64.0688 43.882 64.3168ZM45.7094 64.5449L45.7754 64.3783L45.2584 64.1714L45.1859 64.3502L45.703 64.551L45.7094 64.5449ZM28.9618 3.24185L28.9759 3.16758L28.5474 3.16068L28.5461 3.21653L28.9618 3.24185V3.24185ZM57.0821 4.97373L57.0845 4.87445L56.7119 4.86844L56.7095 4.96773L57.0821 4.97373Z" fill="#F9B500"/>
</svg>
