<svg width="101" height="103" viewBox="0 0 101 103" fill="none" xmlns="http://www.w3.org/2000/svg">
<g clip-path="url(#clip0_7_14)">
<g clip-path="url(#clip1_7_14)">
<path d="M57.2999 96.0533L56.1448 96.2053C57.0789 96.0635 58.0231 95.9216 58.9773 95.7798C59.9215 95.5974 60.8557 95.3238 61.81 95.1111C63.7385 94.7463 65.5668 93.9662 67.4453 93.3785C63.2967 94.5842 58.7365 95.2124 54.4477 95.6278C52.2883 95.6683 50.199 95.952 48.2204 95.9419C47.2361 95.9723 46.2618 96.104 45.3378 96.1547C44.4137 96.185 43.5198 96.256 42.656 96.3776C42.5256 96.0736 41.913 95.7798 41.0997 95.415C40.2964 94.9996 39.2821 94.5741 38.2679 94.1992C37.2536 93.8649 36.2997 93.3988 35.5666 93.0948C34.8336 92.7909 34.3214 92.6288 34.2611 92.6794C33.8494 92.5781 33.4276 92.4869 33.0259 92.3653L31.8208 91.9195C31.0175 91.6054 30.2041 91.3015 29.3907 90.9874C30.5053 91.4332 31.6099 91.8689 32.7146 92.3045C31.6099 91.8689 30.5053 91.4231 29.3907 90.9874C24.3397 88.7381 19.5907 85.1109 15.7963 80.4503C11.9717 75.8099 9.17208 70.1361 7.64818 64.0873C6.70558 60.7641 5.69408 54.3304 6.35987 47.927C6.40022 47.5319 6.39036 47.1266 6.46085 46.7315L6.66226 45.5562C6.79318 44.776 6.93415 43.9959 7.06506 43.2259C7.15581 42.4558 7.42732 41.7264 7.61847 41.007C7.81968 40.2876 8.02087 39.5784 8.20197 38.8996C9.1272 36.2248 10.0523 33.935 10.9468 32.4253C11.4394 31.5438 11.8215 30.6117 12.4245 29.7809C11.922 30.4699 11.731 30.8447 11.54 31.2196C11.3389 31.5945 11.1379 31.9592 10.7257 32.709C10.9268 32.2125 11.1179 31.7161 11.309 31.2399C11.5 30.7536 11.681 30.2672 11.9423 29.8214C12.4148 28.9096 12.8772 28.0078 13.3296 27.1264C13.5407 26.6704 13.8121 26.2651 14.0835 25.8599C14.3548 25.4546 14.6161 25.0392 14.8775 24.6339C15.4202 23.8335 15.8926 22.9926 16.5358 22.2833C16.2544 22.4758 16.0636 22.5772 15.7923 22.7595C15.5311 22.952 15.2196 23.2459 14.6569 23.8234C15.089 23.337 15.4508 22.7899 15.9331 22.3441C16.3653 21.5437 17.2799 20.3684 18.2245 19.1931C19.2796 18.1293 20.3748 17.0654 21.038 16.3359C20.9676 16.569 21.1987 16.417 21.6207 16.1434C22.0527 15.88 22.6354 15.4646 23.188 15.0695L22.6656 15.2721C26.7347 12.1616 31.9789 9.21324 36.3786 7.8961C36.9713 7.65294 37.4735 7.6732 37.7748 7.66307L39.8742 7.02476C40.5774 6.81199 41.2705 6.57896 41.9937 6.46751C41.7224 6.83226 45.6196 6.19395 43.5906 6.70054C44.3841 6.49791 45.1777 6.27501 45.9913 6.17369C46.8048 6.1129 47.6284 6.04197 48.432 5.98118C49.2455 5.95079 50.0491 5.79881 50.8526 5.83934C51.6561 5.83934 52.4495 5.8292 53.243 5.76841C58.8272 6.10276 64.5414 7.46043 69.8836 9.89208C75.2258 12.3035 80.1858 15.7584 84.352 19.9631L84.2417 19.6693C84.9645 20.4191 85.7275 21.0878 86.4302 21.8173C87.1028 22.5873 87.7654 23.3472 88.458 24.1273C89.1808 24.8973 89.763 25.7991 90.3752 26.7616C90.9673 27.7343 91.6699 28.7069 92.1214 29.9227C92.6031 30.7029 93.125 31.5742 93.6569 32.476C94.1788 33.3777 94.5499 34.3605 95.0015 35.242C95.4028 36.1437 95.8846 36.9441 96.1554 37.6635C96.4564 38.3727 96.7374 38.93 96.9883 39.2542C97.259 40.3079 97.57 41.1792 97.7605 41.9999C97.9409 42.8206 98.1012 43.5703 98.2716 44.31C98.432 45.0496 98.6225 45.7892 98.7828 46.62C98.8829 47.4508 98.9829 48.3627 99.0728 49.4367C99.2036 48.8693 99.3538 49.9129 99.484 50.845C99.6342 51.7873 99.664 52.5269 99.8051 51.5036C100.098 48.5856 99.7663 48.4438 99.9181 45.9412L99.8176 46.0223C99.0696 34.4517 93.9223 23.0939 85.5195 14.6946C84.0035 13.418 82.5478 12.0096 80.8609 10.8546C80.0376 10.2568 79.2344 9.61852 78.381 9.03087C77.5074 8.49388 76.6238 7.94676 75.7402 7.39964L74.4148 6.58909L73.019 5.90013L70.2175 4.53233C69.2635 4.12705 68.2794 3.7927 67.3053 3.42796C66.3312 3.08347 65.3772 2.6782 64.373 2.47556C63.2984 2.21213 62.2238 1.94871 61.1292 1.68528C60.0446 1.41172 58.9097 1.34079 57.805 1.15842C55.5855 0.763279 53.3256 0.793675 51.1261 0.71262L50.3025 0.692356L49.4789 0.753147C48.9365 0.793675 48.3941 0.834202 47.8618 0.874729C46.7871 0.976048 45.7325 0.996312 44.6979 1.16855C43.6733 1.36106 42.6689 1.54343 41.6946 1.7258L40.2481 1.99936C39.7861 2.13108 39.324 2.27292 38.882 2.40464C38.0282 2.66807 37.2748 2.82004 36.5416 2.9315C36.18 2.98215 35.8184 3.03281 35.4468 3.08347C35.0851 3.1544 34.7336 3.24558 34.3619 3.33677C33.5583 3.65086 32.7145 3.97508 31.8606 4.30943C31.4387 4.48167 30.9866 4.62351 30.5647 4.82615C30.1428 5.03892 29.7108 5.24156 29.2889 5.45433C28.4249 5.87986 27.5509 6.31553 26.6568 6.7512C25.7828 7.21727 24.9489 7.78465 24.0849 8.30138C22.3168 9.2943 20.7192 10.5912 19.1117 11.8273C18.2778 12.4149 17.5844 13.1545 16.8409 13.8334C16.1174 14.5223 15.3739 15.191 14.7107 15.9003C14.8112 15.7888 14.9117 15.6875 14.982 15.6368C14.2786 16.3967 13.6154 17.106 12.9823 17.8051C12.3593 18.5041 11.666 19.1019 11.1233 19.8314C10.5605 20.5407 9.99775 21.2499 9.42494 21.9692C9.14354 22.3441 8.8521 22.719 8.56067 23.0939C8.30938 23.5093 8.0581 23.9348 7.79676 24.3705C7.88714 24.4009 7.5655 24.948 7.44484 25.2317C7.06311 25.3938 4.10784 30.7029 2.57853 36.5895C0.928692 42.466 0.915863 48.6059 0.795026 49.2948C0.794838 49.7102 0.79464 50.1459 0.784399 50.5816C0.298472 59.0214 1.92145 68.0692 5.35342 74.6549C5.57422 74.9993 5.79503 75.3438 6.01583 75.6984C6.26677 76.0328 6.52776 76.3671 6.7787 76.6914C7.2806 77.3398 7.77246 77.9578 8.21415 78.4746C8.47501 79.0723 8.69583 79.3966 8.98696 79.7005C9.28813 80.0045 9.60939 80.3186 10.051 80.9569C10.4624 81.8789 10.8839 82.6793 11.2652 83.3277C11.6366 83.9863 12.0682 84.4118 12.3292 84.7259C12.8914 85.3237 13.0622 85.2629 12.4901 84.4017C14.6886 86.803 17.0076 89.0826 19.2767 90.876C20.3812 91.6257 21.4656 92.3856 22.6002 93.105C23.6043 93.6419 24.0762 94.0776 24.4676 94.5538C27.0181 95.9925 26.1745 95.719 28.9058 97.1577C29.0463 97.3097 29.5584 97.563 30.2614 97.8771C30.9643 98.2013 31.9183 98.4242 32.8523 98.7079C33.7862 98.9713 34.7202 99.2347 35.4834 99.4475C36.2567 99.5893 36.8392 99.7109 37.04 99.792L36.5479 99.7109C37.4015 99.944 38.1748 100.197 38.9078 100.451C39.6409 100.714 40.3338 100.967 41.0569 101.14C42.4829 101.494 43.9089 101.95 45.6464 102.112C50.4873 102.659 55.6097 102.315 60.5316 101.373C65.4234 100.268 70.0342 98.4748 74.0627 96.4181C74.0026 96.104 72.3046 97.3502 72.0236 97.026L73.8318 96.185C74.4346 95.9115 74.9972 95.5366 75.5799 95.2225L77.3279 94.2397C77.9106 93.9155 78.5033 93.6014 79.0459 93.1962L82.3613 90.8861C83.3962 90.0249 84.4111 89.1231 85.4158 88.2214C86.2196 87.654 87.0837 86.8232 87.4755 86.5699C88.7316 85.3541 88.0484 85.7087 88.9327 84.7867L89.2641 84.8475C89.8269 84.0977 90.2289 83.5506 90.7213 83.0846C91.1935 82.6084 91.6758 82.1322 92.1482 81.3925C92.1081 81.2507 92.5001 80.734 92.8418 80.2172C93.1129 80.3591 93.8268 78.5556 94.0075 78.7785L94.0075 78.7481C94.1985 78.4239 94.3191 78.1807 94.6005 77.816C94.6709 77.6438 94.9021 77.1372 95.1937 76.4482C95.4853 75.7592 95.7469 74.8474 96.0586 73.9659C96.3503 73.0844 96.6419 72.1928 96.8733 71.4836C97.0544 70.7642 97.1651 70.207 97.1953 70.0347L97.3562 69.7409C97.688 68.7987 97.628 68.3326 97.3767 68.8493L97.8091 67.7044L97.7789 67.8463L98.2113 66.7115C98.3118 66.5089 98.4927 66.2961 98.5427 66.6811C98.6133 65.982 98.7543 65.212 98.9756 64.5635C98.4022 66.4075 97.2764 68.5352 96.3315 70.2779C96.5126 69.4775 97.1661 68.1502 97.4376 67.3093C97.5683 67.0762 97.7392 66.7824 97.9 66.4379C98.0308 66.0833 98.1816 65.678 98.3324 65.2728C98.6241 64.4217 98.9459 63.5098 99.2275 62.6993C99.2879 62.3244 99.0872 62.0204 99.3487 61.22C99.6401 60.8553 99.4897 60.2778 99.7512 59.6091C99.7407 60.4297 99.5998 61.2099 99.4086 62.0103C99.7501 61.9394 99.9117 60.065 100.093 59.4368C100.053 59.1227 100.395 57.5624 100.436 56.5594C100.676 57.0254 100.647 55.7691 100.818 55.1814C100.888 54.5026 100.798 54.0669 100.698 54.3405C100.427 54.1075 100.385 57.0052 100.144 56.0427C100.295 55.8096 100.316 54.4925 100.336 53.7833C100.186 53.763 100.196 54.2594 100.065 53.7934C100.136 53.0132 99.9956 52.1824 100.177 51.7366C100.207 51.8785 100.176 52.2027 100.156 52.4357C100.227 51.382 100.887 58.0488 100.857 56.7316C100.706 57.0356 100.237 50.8146 100.187 51.5137C100.086 52.1318 99.9258 51.0679 99.8451 51.7062L99.9955 52.4155C99.8946 53.2868 99.6032 53.6313 99.513 53.3273C99.6141 51.8481 100.355 57.5523 100.265 56.296C100.225 56.4682 100.215 56.6303 100.154 56.8025C100.104 56.2554 100.075 54.8268 100.276 54.2797C100.125 54.2696 100.105 53.5502 100.076 52.9524L100.116 52.7397C100.066 52.1216 100.147 51.2706 99.9255 51.6657C99.8544 53.459 99.4931 52.8511 99.1117 52.2533C98.7404 51.6556 98.3489 51.0578 98.2176 52.7397C98.63 51.3313 98.5388 53.226 98.508 54.7154C98.3773 54.8471 98.1962 55.5057 98.0351 56.5594C97.9242 57.4712 98.075 57.1166 98.1352 57.299C97.9843 57.7955 97.7729 58.758 97.6123 58.606C97.7124 59.3456 97.3105 59.7205 97.2498 60.5817C97.2294 61.3517 97.3503 60.5513 97.3701 61.0984C97.0984 62.2129 96.6558 63.7429 96.3943 64.6142C96.1431 64.908 95.6003 65.8503 95.5404 65.0296C95.9931 63.3882 95.7811 65.7794 96.1736 64.0367C95.6109 64.675 96.4656 62.4865 96.2649 62.1015C95.9533 62.6081 95.6715 63.7125 95.4803 64.6446L95.5808 64.4724C95.48 65.3133 94.957 66.9243 94.4545 67.7044C94.4043 67.4612 94.1732 67.7956 94.3542 67.208L93.942 68.2819C93.9318 68.4339 93.9217 68.596 94.0625 68.2819C93.9718 68.829 93.7306 69.3255 93.5195 69.6801C93.3789 69.7308 91.4579 75.5059 91.3274 75.2425C90.8952 75.9619 90.614 76.0227 90.3123 76.7927C90.3223 76.8231 90.5636 76.3975 90.9054 75.7592C91.2271 75.1108 91.7397 74.28 92.0414 73.3884C92.7251 71.6457 93.3486 70.0347 93.1274 70.5413C93.0168 70.6832 92.7454 71.3012 92.4035 72.1624C92.0415 73.0135 91.6694 74.1381 91.0965 75.1513C90.5637 76.1949 90.0309 77.2284 89.5986 78.0288C89.1262 78.7988 88.7243 79.3054 88.5937 79.3763C88.2319 79.8829 87.8097 80.5009 88.0106 80.4705C87.3273 81.271 87.9807 80.0551 87.4281 80.5617C87.428 80.5921 87.5184 80.5617 87.3778 80.7441L86.8151 81.2C86.4431 81.9397 85.6996 82.6185 85.0464 83.3683C84.3531 84.0876 83.73 84.8982 83.1873 85.5567C83.4587 85.1312 83.6297 84.5131 84.2428 83.6114L84.4236 83.5202C84.494 83.3784 85.0467 82.6793 84.9262 82.6084C84.1626 83.2973 83.63 83.9762 82.9767 84.8475C82.806 84.9488 82.605 85.0805 82.4644 85.1616C82.4845 85.1717 82.5045 85.1717 82.5146 85.192C82.1931 85.3642 82.2132 85.3237 82.2635 85.192C82.2635 85.1717 82.2735 85.1515 82.2936 85.1211C81.5403 85.2224 79.5805 88.0694 77.8827 88.9306C77.4808 89.3055 77.8827 89.0218 77.3903 89.498C76.9885 89.7513 76.6167 89.9844 76.2551 90.2073C75.8934 90.4099 75.5217 90.5821 75.16 90.7645C74.4367 91.1293 73.7034 91.5143 72.8494 91.9803C72.4073 92.4667 72.3872 92.5578 73.1405 92.3248C72.7085 92.5781 72.2665 92.8111 71.8044 93.0036C72.7892 91.9803 69.1023 93.8041 70.2277 92.72C69.7958 92.8111 69.0021 93.1658 68.2888 93.6014C68.2586 93.7433 68.2384 94.0168 67.254 94.3613C65.8377 94.7058 66.1792 94.645 65.014 94.9084C64.7027 94.8578 65.0844 94.645 65.0041 94.5437C63.3566 95.3948 63.397 94.7362 61.7597 95.2023C60.7351 95.5265 58.696 96.0736 58.6858 96.2864C57.2495 96.489 57.2194 96.2864 57.32 96.0432L57.2999 96.0533Z" fill="white"/>
</g>
<path d="M45.7718 62.2759L45.6716 62.2591L45.7468 62.1835L45.7634 62.2843H45.7718L45.7718 62.2759Z" fill="white"/>
</g>
<defs>
<clipPath id="clip0_7_14">
<rect width="100.166" height="101.673" transform="matrix(1 0 -0.000453577 1 0.716675 0.692352)" fill="white"/>
</clipPath>
<clipPath id="clip1_7_14">
<rect width="100.166" height="101.673" fill="white" transform="matrix(1 0 -0.000453577 1 0.716675 0.692352)"/>
</clipPath>
</defs>
</svg>
