<svg width="76" height="13" viewBox="0 0 76 13" fill="none" xmlns="http://www.w3.org/2000/svg">
<path d="M74.1005 7.80857L74.7562 7.70709L74.7533 7.38399C74.0653 6.84998 73.2941 6.71924 72.4925 6.71007C71.9594 6.70381 71.4651 6.54355 71.0037 6.28512C69.9552 5.69884 68.9685 5.02709 68.0568 4.24479C67.3449 3.63445 66.7965 2.8923 66.2441 2.15057C65.8673 1.65042 65.4383 1.215 64.7919 1.07095C64.6465 1.03913 64.4899 1.01245 64.3409 1.02045C64.0194 1.03896 63.7009 1.08476 63.3772 1.11927C63.2954 1.60917 63.9533 1.89792 63.6115 2.39187C63.1721 2.2652 63.2932 1.81055 63.075 1.50252L62.6325 1.75479C62.6851 1.91484 62.7222 2.04103 62.7632 2.16681C62.7427 2.1966 62.7282 2.24548 62.7018 2.25619C62.2723 2.40847 62.2697 2.42059 62.2745 2.7987C62.2772 3.08238 62.2564 3.36857 62.2454 3.70893C61.913 3.66155 61.6527 3.55126 61.4003 3.44014C60.1597 2.90196 58.9191 2.36377 57.6885 1.80874C56.0685 1.07831 54.3634 0.696155 52.5987 0.568824C52.2567 0.542193 51.9135 0.578789 51.5836 0.740174C51.3102 0.875823 50.9908 0.913824 50.7075 1.03081C49.9482 1.34447 49.2891 1.821 48.7515 2.43838C48.1682 3.10796 47.641 3.82283 47.0793 4.50983C46.7126 4.95516 46.3382 5.40133 45.937 5.81879C45.4754 6.29792 44.9075 6.63062 44.2798 6.84742C44.1011 6.90987 43.9043 6.95057 43.7154 6.95494C42.397 6.98116 41.1099 6.78318 39.8297 6.46613C37.7225 5.93754 35.7322 5.10067 33.7231 4.30919C31.5861 3.46432 29.4621 2.59438 27.2378 2.00334C26.4786 1.80033 25.6879 1.67167 24.9029 1.63312C24.0226 1.58895 23.2247 1.91068 22.6853 2.65841C22.3144 3.17518 21.9859 3.719 21.6444 4.25236C21.3034 4.78962 21.0003 5.35043 20.6252 5.86372C19.9054 6.84366 18.9072 7.21041 17.7258 7.0051C17.2355 6.91935 16.7463 6.77037 16.2981 6.5618C15.4527 6.17868 14.6936 5.64435 13.9656 5.06729C12.8189 4.15229 11.6792 3.22867 10.4915 2.37326C9.37986 1.56496 8.11305 1.0769 6.73995 1.21938C5.13287 1.38682 3.68155 1.97937 2.58795 3.26342C1.81694 4.16994 1.23514 5.18644 0.792419 6.2867C0.530137 6.93388 0.522217 7.4514 0.723272 8.11621L1.05181 6.9808L1.15304 7.0055C1.10515 7.25908 1.06115 7.51224 1.00795 7.79005L1.2151 7.66148L1.29703 8.42971C1.58633 8.33181 1.68071 8.14427 1.71774 7.89973C1.87687 6.87704 2.38089 6.01871 2.98863 5.20848C3.16116 4.9771 3.3078 4.72482 3.49285 4.5C4.07158 3.78752 4.82927 3.34782 5.69578 3.07793C5.84454 3.03052 5.99622 3.0104 6.14497 2.96298C7.24744 2.61272 8.26004 2.89913 9.17598 3.49955C9.8842 3.96436 10.5275 4.52286 11.1777 5.07273C12.4174 6.11979 13.6252 7.2018 15.0409 8.01317C15.9524 8.53518 16.914 8.89803 17.9675 9.04994C19.7295 9.29982 21.1059 8.59693 22.2181 7.33851C22.8026 6.68063 23.2431 5.89218 23.7452 5.16421C23.8891 4.95955 24.0281 4.74752 24.1594 4.53632C24.4421 4.08022 24.8736 3.94744 25.3635 4.02929C25.9136 4.12051 26.4653 4.22732 26.9964 4.39944C28.7941 4.98469 30.5551 5.66853 32.2915 6.41809C34.3962 7.32953 36.4926 8.2734 38.7055 8.9051C40.3003 9.36213 41.9187 9.67072 43.5895 9.76862C45.2054 9.86844 46.4571 9.17885 47.6573 8.266C48.7445 7.44013 49.5506 6.34451 50.4227 5.31284C50.5981 5.10876 50.7731 4.90078 50.9701 4.71412C51.7852 3.92516 52.7638 3.67093 53.8479 3.96156C54.6845 4.18787 55.5201 4.44189 56.3168 4.77499C57.5264 5.28099 58.6979 5.87388 59.8956 6.41664C60.7038 6.78401 61.5248 7.12241 62.3353 7.47377C62.4883 7.54027 62.6348 7.61931 62.8552 7.72596C62.6884 7.82657 62.6007 7.89114 62.5026 7.93315C62.0418 8.12428 61.5818 8.3232 61.1151 8.49524C60.857 8.58981 60.7708 8.78043 60.7668 9.00172L60.0498 9.45287L60.2246 9.98244C60.0568 10.2212 59.9218 10.4722 60.2544 10.7799L60.9901 10.6147L61.0187 10.6984C60.8248 10.7664 60.6309 10.8344 60.4327 10.8989C60.2575 10.957 60.1073 11.0283 60.1553 11.2559C60.3078 11.4289 60.4814 11.3552 60.6427 11.3143C61.5372 11.0848 62.43 10.8398 63.3284 10.6099C63.4897 10.569 63.6637 10.5741 63.843 10.5905C63.3668 10.9331 62.7863 10.9635 62.2516 11.127C61.7056 11.2956 61.1412 11.4031 60.5833 11.719C60.7044 11.856 60.7727 11.9788 60.8734 12.0351C61.5353 12.3984 62.2272 12.5258 62.9739 12.316C64.234 11.9647 65.4976 11.6091 66.771 11.3076C67.2709 11.1873 67.8005 11.1978 68.3208 11.1581C69.0131 11.104 69.7085 11.0417 70.3998 11.0153C70.7611 11.0004 71.1313 11.0319 71.4887 11.0924C72.0271 11.1849 72.5365 11.2647 73.0528 10.9651C73.2347 10.8589 73.5039 10.9051 73.6365 10.891C74.0003 10.6787 74.2787 10.5149 74.5978 10.327L74.3125 10.0183C74.5483 9.97341 74.7962 9.9312 75.0394 9.8816C75.0706 9.87827 75.0976 9.83595 75.1228 9.81354C75.2837 9.58341 75.0247 9.48482 74.9756 9.32046C74.5755 9.48933 74.192 9.44346 73.8284 9.21405C74.2125 9.22831 74.6099 9.07155 74.9695 9.33689C75.2986 9.26761 75.4579 9.09681 75.4473 8.82449C74.9512 8.46326 74.3261 8.59303 73.6352 8.43796C74.1805 8.22599 74.7003 8.58862 75.0716 8.18618C75.0615 7.90723 74.8589 7.89334 74.6667 7.86651C74.4828 7.84274 74.2984 7.81507 74.1144 7.79131L74.1005 7.80857ZM22.6521 5.45431C22.6433 5.48286 22.6341 5.5075 22.6433 5.48286C22.6251 5.49664 22.6433 5.48286 22.669 5.46435L22.7527 5.32526L22.9738 4.88362C23.0209 5.1034 22.9458 5.24946 22.7829 5.34965L22.6521 5.45431ZM35.4304 7.1522L35.6791 7.22822C36.0925 7.3695 36.5016 7.5073 36.915 7.64858L37.1371 7.77083C37.3388 7.70199 37.4934 7.7841 37.599 7.99765L37.141 7.77042L36.8814 7.70344C36.4478 7.63136 36.0272 7.53422 35.6973 7.21444L35.4486 7.13842L35.4102 7.11096L35.4347 7.15568L35.4304 7.1522ZM15.3699 7.06702C15.4218 7.07331 15.4773 7.07529 15.4097 7.07066C15.4611 7.10857 15.4227 7.08111 15.3838 7.04976L15.3302 7.02787L15.3699 7.06702ZM29.0844 4.56328L28.8419 4.47082C28.5844 4.42335 28.3112 4.41304 28.139 4.16715L27.7733 4.1036L27.738 4.06793L27.7594 4.12087L28.129 4.184C28.4137 4.15364 28.6536 4.25821 28.8732 4.43198L29.1158 4.52444L29.3514 4.62552C29.6722 4.74907 29.9934 4.87652 30.3142 5.00007L30.6715 5.2065C30.723 5.2089 30.7745 5.21129 30.7152 5.20973C30.7701 5.24332 30.7278 5.21628 30.6854 5.18924L30.3247 4.98713C29.9456 5.01967 29.6301 4.87189 29.3348 4.6549L29.0888 4.56676L29.0844 4.56328ZM39.6048 7.98096L39.9592 8.04965L40.0101 8.08366L39.9731 8.03239C39.8444 8.04612 39.7076 8.1317 39.6148 7.96411L39.4169 7.95761L39.4414 7.89189L39.6048 7.98096ZM14.6792 7.13673L14.9789 7.24676L14.9113 7.35257L14.6862 7.1281C14.6386 7.12529 14.5871 7.12289 14.6585 7.12711C14.6032 7.08962 14.6412 7.11317 14.6797 7.14063L14.6792 7.13673ZM1.66872 5.36895C1.65214 5.39833 1.63944 5.42729 1.65561 5.39402C1.62915 5.40473 1.65561 5.39402 1.68598 5.38289C1.61881 5.1968 1.71803 5.09156 1.85872 5.00556L1.87963 4.97967L1.84619 4.99901C1.89652 5.17507 1.81374 5.28644 1.66914 5.37285L1.66872 5.36895ZM49.3291 2.75146L49.2389 2.79263L49.3033 2.73055L49.485 2.47453L49.5851 2.56246L49.333 2.75104L49.3291 2.75146ZM32.5144 4.88377L32.9983 5.05697L33.025 5.08568L33.0087 5.04403C32.8089 5.09295 32.6274 5.09258 32.5214 4.87513L32.2754 4.78699L30.6604 4.17829C29.3496 3.75803 28.0426 3.33735 26.7318 2.91709C27.1046 2.75113 27.4283 2.90198 27.747 3.00603C28.4948 3.2497 29.2345 3.52972 29.9735 3.80193C30.2238 3.89355 30.4646 4.00592 30.7084 4.11008C31.0738 4.24465 31.4461 4.37059 31.8053 4.5216C31.9666 4.59117 32.1129 4.70572 32.2649 4.79994L32.5109 4.88808L32.5144 4.88377ZM9.86702 2.65677L9.40937 2.43344C9.62608 2.39455 9.80963 2.41442 9.89797 2.61403L9.97897 2.70794L9.86702 2.65677ZM15.7115 6.90439C15.3004 6.82201 15.2542 6.79539 14.8771 6.36626C15.2202 6.55054 15.5378 6.60738 15.7045 6.91302L15.7717 6.98867L15.708 6.9087L15.7115 6.90439ZM55.9625 3.89382L55.052 3.6399L55.0915 3.5292C55.4056 3.59036 55.7439 3.58189 55.9525 3.91066L55.963 3.89772L55.9625 3.89382ZM2.41955 4.717L2.48351 4.65102L2.40702 4.71045C2.31518 5.10676 2.13439 5.4455 1.80198 5.69393C1.79959 5.74546 1.79719 5.79698 1.79834 5.73376C1.76085 5.78903 1.78789 5.7467 1.81534 5.70828C1.91581 5.31894 2.05428 4.95316 2.41217 4.72173L2.41955 4.717ZM22.5801 3.81733L22.6753 3.74803L22.6315 3.85524C22.3646 4.27416 22.1011 4.68877 21.8342 5.10769L21.7053 5.3778L21.6305 5.34239L21.8001 5.08372C22.0627 4.66131 22.3214 4.23932 22.584 3.81692L22.5801 3.81733ZM63.0308 6.89477C62.3924 6.7893 61.9847 6.62769 61.6345 6.30219C62.1533 6.50717 62.6704 6.51119 63.0617 6.85203L63.2244 6.89779L63.1968 6.97172L63.0312 6.89867L63.0308 6.89477ZM26.7675 2.47549C26.8412 2.46369 26.9233 2.41945 26.9886 2.44009C27.5699 2.6029 28.1521 2.77352 28.7273 2.95276C28.7641 2.96462 28.7833 3.03356 28.8113 3.07396L28.9919 3.06653L28.9799 3.13881L28.8213 3.05712C28.1413 2.85749 27.4614 2.65786 26.7815 2.45823L26.7426 2.42688L26.7671 2.47159L26.7675 2.47549ZM21.7895 6.01958C21.776 6.04075 21.7668 6.06539 21.7664 6.06149C21.7664 6.06149 21.7807 6.04813 21.7986 6.03045C21.8878 5.83162 21.9511 5.61189 22.0701 5.43355C22.3936 4.95338 22.6182 4.39698 23.0954 4.02663L23.1229 3.98821L23.0864 4.01576C23.0707 4.12787 23.0927 4.25962 23.0386 4.34427C22.7014 4.88111 22.3478 5.41182 21.9895 5.93515C21.9555 5.9861 21.8576 5.9926 21.7895 6.01958ZM34.8326 5.80004C36.072 6.21609 37.3114 6.63214 38.5474 7.0525C38.9236 7.17803 39.3007 7.31135 39.6734 7.4412C39.2974 7.46552 38.9307 7.42968 38.5943 7.3078C37.4709 6.90699 36.3602 6.47722 35.246 6.05176C35.0981 5.99654 34.9748 5.87559 34.8427 5.78319L34.6503 5.79187L34.6706 5.72266L34.8326 5.80004ZM50.1186 3.64538L50.2317 3.74376C50.1563 3.8504 50.0895 3.96401 50.0055 4.06368C49.3238 4.8463 48.6464 5.6324 47.9522 6.40847C47.688 6.70484 47.3695 6.936 47.0007 7.10155C47.0333 6.96397 47.0833 6.84032 47.1694 6.76015C48.0678 5.93864 48.8574 5.02224 49.6118 4.07017C49.7437 3.90228 49.9482 3.78582 50.1186 3.64538ZM54.6057 2.22821C55.4146 2.15772 56.5702 2.52749 57.008 3.0093C56.1882 2.7181 55.383 2.63832 54.6057 2.22821ZM63.8052 5.79857C63.1222 5.71759 62.5144 5.45505 61.9596 5.06065C62.6322 5.15457 63.2715 5.34276 63.8052 5.79857ZM39.5531 6.94131C38.8401 6.95028 37.6919 6.57578 37.2072 6.20941C38.0519 6.4743 38.8022 6.70585 39.5531 6.94131ZM64.4771 4.40568C64.0163 4.301 63.9358 3.99011 63.7774 3.76247C63.6147 3.53135 63.3735 3.34015 63.3289 3.03333C63.7699 3.39648 64.1158 3.82893 64.4771 4.40568ZM65.9314 10.277L64.5784 10.5712C64.9089 10.2678 65.5051 10.1253 65.9314 10.277ZM56.1382 2.06478C55.7366 1.99717 55.3 2.00823 54.9666 1.69277C55.3977 1.66652 55.7848 1.783 56.1382 2.06478ZM49.4698 3.55287C49.6272 3.21662 49.8428 2.94515 50.2767 2.76084C50.1462 3.27564 49.8057 3.41056 49.4698 3.55287ZM51.2415 2.5988C51.0949 2.85107 50.895 2.96178 50.6419 2.93093C50.7828 2.69898 50.9347 2.53291 51.2415 2.5988ZM21.5886 6.50246L21.6969 6.59346C21.5809 6.87402 21.3929 7.07155 21.017 7.06036L21.5886 6.50246ZM47.0502 6.27196C46.8618 6.68646 46.6354 6.85653 46.2337 6.89937C46.4377 6.59364 46.6775 6.43792 47.0502 6.27196ZM44.0515 8.4415C44.2575 8.2657 44.4777 8.2225 44.7799 8.35593C44.5135 8.55787 44.2901 8.53437 44.0515 8.4415ZM53.4263 1.56123C53.1372 1.80898 52.893 1.77585 52.5966 1.6221C52.8657 1.40804 53.1119 1.46066 53.4263 1.56123ZM45.4325 7.67106C45.5878 7.42575 45.7757 7.33867 46.0882 7.38422C45.9258 7.67368 45.7276 7.7382 45.4325 7.67106ZM41.7821 7.65017C42.186 7.59132 42.5105 7.62639 42.7556 7.75538C42.4325 7.86872 42.1491 7.80034 41.7821 7.65017ZM65.1275 8.72995C65.0126 8.94729 64.8434 9.0245 64.6137 8.86757L65.1275 8.72995ZM46.7373 7.70152C46.5673 7.95629 46.3787 8.00006 46.0762 8.0481C46.2665 7.79905 46.4121 7.68492 46.7373 7.70152ZM4.29763 2.91151L4.2084 2.81454C4.34832 2.6103 4.53291 2.49202 4.91924 2.49026L4.29763 2.91151ZM64.0003 6.4443C64.2203 6.43661 64.4281 6.46178 64.6945 6.74101C64.3666 6.6616 64.1672 6.60398 64.0003 6.4443ZM19.9898 7.6353C20.0559 7.36794 20.1784 7.29572 20.4649 7.43081L19.9898 7.6353ZM3.44071 3.75225L3.08984 4.16041C3.09567 3.9192 3.18906 3.75937 3.44071 3.75225ZM24.87 2.32289L25.4353 2.2981C25.2233 2.52974 25.0983 2.50363 24.87 2.32289ZM43.6797 7.98814C43.8172 7.84727 43.9602 7.83202 44.1087 7.94239L43.6797 7.98814ZM17.1 7.57272L17.0536 7.69205L16.5858 7.52108L16.6314 7.39395L17.1 7.57272ZM6.96294 1.72015C7.19128 1.66688 7.38688 1.70124 7.54977 1.82322L6.96294 1.72015ZM51.6776 1.6215L51.6536 1.47024L52.0397 1.42907L52.057 1.51794L51.6776 1.6215ZM3.36331 3.43315L3.26587 3.33311L3.5728 3.06768L3.63962 3.13944L3.36331 3.43315ZM20.5443 7.80492L20.4945 7.70769L20.8118 7.53975L20.862 7.64088L20.5404 7.80534L20.5443 7.80492ZM8.2532 2.09528L8.28794 1.9772L8.63604 2.09784L8.6062 2.18779L8.2532 2.09528ZM51.5185 2.23795C51.6572 2.02202 51.7547 2.01162 51.9196 2.22673L51.5185 2.23795ZM64.0982 1.44468L64.2406 1.37428L64.3596 1.67711L64.2771 1.71745L64.1021 1.44426L64.0982 1.44468ZM5.62117 2.71121L5.61494 2.65271L5.92691 2.61944L5.93315 2.67794L5.62117 2.71121ZM52.6493 2.33823L52.6539 2.19576L52.8767 2.25089L52.8659 2.33486L52.6454 2.33865L52.6493 2.33823ZM23.4978 3.1397L23.6053 3.2229L23.456 3.37685L23.3783 3.31414L23.4974 3.1358L23.4978 3.1397ZM5.64474 2.37739L5.63559 2.2916L5.92416 2.26083L5.93123 2.32712L5.64474 2.37739ZM18.9077 8.17664L18.9002 8.10645L19.2902 8.06486L19.2977 8.13506L18.9077 8.17664ZM18.9655 7.64593L18.973 7.71612L18.739 7.74107L18.7315 7.67088L18.9655 7.64593ZM20.8531 6.70709L20.9147 6.80308L20.6411 6.97424L20.5843 6.88564L20.8531 6.70709ZM53.1886 2.80922L53.1929 2.92314L52.9001 2.91492L52.9 2.83999L53.1925 2.80881L53.1886 2.80922ZM4.83336 2.12868L4.85644 2.19721C4.80658 2.21041 4.76061 2.2232 4.71034 2.23251C4.71034 2.23251 4.69755 2.18655 4.69115 2.16356L4.83336 2.12868Z" fill="#5762C7"/>
</svg>
