<svg width="38" height="53" viewBox="0 0 38 53" fill="none" xmlns="http://www.w3.org/2000/svg">
<path d="M28.3721 33.7889C28.0466 32.63 27.6832 31.4725 27.4164 30.3014C27.2039 29.3681 27.0999 28.4129 26.9461 27.4674C26.9113 27.2479 26.8891 27.0057 26.7712 26.8293C26.6779 26.6889 26.4474 26.636 26.1117 26.4509C26.1121 26.9481 26.0676 27.2575 26.1196 27.5533C26.4023 29.1264 26.7083 30.6974 26.9997 32.2679C27.0569 32.5814 27.1052 32.8974 27.1479 33.2103C27.2896 34.3123 27.4312 35.4144 27.5924 36.683C27.208 36.0481 27.0295 35.4971 26.9077 34.9105C26.7155 33.9809 26.6878 33.0085 26.1285 32.1659C25.9668 31.9209 25.9877 31.5466 25.9363 31.2363C25.7289 30.1054 25.536 28.9751 25.3229 27.8411C25.3016 27.7181 25.2218 27.6073 25.1576 27.468C24.4296 27.5637 24.8608 28.1947 24.6378 28.5318L23.8259 28.8335C23.6745 29.6329 23.7268 30.426 23.8757 31.2056C24.1681 32.6801 24.5104 34.145 24.8412 35.6037C24.984 36.2463 25.1589 36.8844 25.3616 37.701C25.0222 37.5361 24.8466 37.4912 24.7169 37.3901C22.164 35.3591 19.7332 33.1876 17.5603 30.7503C16.4139 29.4652 15.3104 28.1296 14.2962 26.7393C12.8853 24.8038 11.5015 22.8462 10.2399 20.8149C8.98135 18.778 7.83936 16.6643 6.73895 14.529C5.84618 12.7976 5.03088 11.0199 4.29817 9.21353C3.62336 7.5578 3.07272 5.85183 2.53973 4.14075C2.25351 3.23352 2.38689 2.30541 2.80885 1.43255C2.88846 1.26127 2.97376 1.09314 3.08846 0.844756C2.86347 0.943286 2.73048 0.996086 2.60004 1.05771C2.15311 0.818682 2.51381 0.527873 2.55651 0.262054C1.88953 0.28751 1.15911 0.804779 0.946024 1.47377C0.812919 1.89007 0.753778 2.34717 0.733083 2.78836C0.642093 5.55027 0.983257 8.26853 1.53707 10.9779C1.9159 12.834 2.46245 14.6416 3.07706 16.4199C3.62925 18.0155 4.36425 19.5486 5.04316 21.1027C6.05003 23.3941 7.28875 25.5611 8.61122 27.6705C11.2428 31.8595 14.4485 35.586 18.0098 39.0041C18.7909 39.7539 19.6079 40.4789 20.3953 41.2173C20.6251 41.4331 20.8278 41.671 21.1596 42.0246C20.8226 42.0168 20.6472 42.0388 20.4887 42.0034C18.2493 41.5031 16.0042 40.9996 13.7685 40.4791C13.2614 40.3627 12.7682 40.2613 12.1913 40.6481L13.9133 41.3602C13.0921 41.5307 12.4092 41.0873 11.6058 40.8892L11.3443 41.6056C11.9357 42.2285 12.7569 42.2733 13.4363 42.5886C13.8073 42.7635 14.2353 42.8214 14.6257 42.9477C14.8494 43.0265 15.0625 43.1514 15.2173 43.4223L11.4555 42.2383C11.6019 42.8607 11.9471 43.2439 12.4746 43.4309C13.5297 43.805 14.5754 44.1961 15.6479 44.4982C19.0986 45.4661 22.5342 46.4479 25.7453 48.0925C26.8565 48.6608 28.0217 49.1178 29.1555 49.6317C29.8551 49.9507 30.5151 50.3146 31.0986 50.8442C31.6594 51.3612 32.3114 51.78 32.8896 52.225L34.3817 52.291L34.7707 51.5855L35.3187 52.0583C35.6302 51.9778 35.9733 51.9073 36.303 51.8072C36.9625 51.6069 37.1098 51.2726 36.8264 50.6563C36.7488 50.4874 36.6474 50.335 36.4056 49.9123C36.6267 49.9823 36.7158 50.0092 36.808 50.0303C36.9002 50.0515 36.9898 50.0638 37.0852 50.0793L37.3807 48.5209C37.109 48.0446 36.8274 47.3848 36.3984 46.844C35.3251 45.4805 34.6929 43.9225 34.2238 42.2837C33.619 40.1917 32.9933 38.1105 32.4383 36.0088C31.9918 34.3158 31.3731 32.6391 31.346 30.8582C31.3295 29.8252 30.8112 28.9755 30.4769 28.0343L29.9672 27.9091L29.5904 27.0855C29.1712 27.2401 29.2782 27.544 29.32 27.8045C29.4731 28.9128 29.635 30.0186 29.7881 31.1269C29.8101 31.3023 29.7823 31.4873 29.7792 31.7082C29.2999 31.622 29.2843 31.2869 29.2411 30.9886C29.0525 29.8235 28.8759 28.6503 28.6785 27.4878C28.6219 27.1598 28.501 26.8409 28.4256 26.547C27.85 26.5413 27.7879 26.8558 27.8149 27.1971C27.857 27.7397 27.9079 28.2797 27.9998 28.8127C28.2029 29.9783 28.4325 31.1363 28.6527 32.3113L28.3903 33.7693L28.3802 33.9492L28.355 33.7795L28.3721 33.7889ZM3.19877 14.1944C3.22036 14.2359 3.23881 14.2832 3.2604 14.3248L3.11093 14.3537C3.06248 14.4012 3.03993 14.4555 3.03446 14.5193L3.04546 14.6069L3.06976 14.509L2.72456 13.9106L2.57398 13.3898L2.51294 13.2448L2.66752 13.2336L2.77122 12.8976L2.5378 12.1233L2.48458 11.8566C2.3173 11.2449 2.04469 10.6494 2.2205 9.96729L2.62012 11.8126L2.69669 12.0774L2.90932 12.8624L3.03911 13.394L3.07467 13.6659C3.09451 13.751 3.1112 13.8419 3.13672 13.9301L3.20191 14.1887L3.19877 14.1944ZM4.40365 12.4399L4.35043 12.1731L4.09121 11.8224L3.96737 11.5761L3.51317 10.4353L3.4776 10.1634L3.43698 10.089L3.4423 10.1736L3.56614 10.4199L4.03799 11.5557L4.07355 11.8276L4.32395 12.1808L4.40365 12.4399L4.45687 12.7067L4.82729 12.8961L4.7828 12.1964L4.70681 11.9171L4.4527 11.584L4.37044 11.3161L4.31153 11.0462L4.27718 10.9604L4.27622 11.0564L4.33513 11.3263L4.4117 11.5911L4.67151 11.9273L4.74749 12.2066L5.14591 13.0718L5.16026 13.2207L5.17239 13.0642L4.82022 12.8551L4.60905 13.3323L4.49787 12.6996L4.41817 12.4405L4.40365 12.4399ZM7.22261 22.8016L7.4881 23.1409L7.55584 23.4083C7.89547 23.6401 8.10093 23.9537 8.12182 24.3733L8.36652 24.7234L8.38343 24.8812L8.40183 24.7132L8.1483 24.3657C7.78788 24.1447 7.61518 23.812 7.59115 23.3981L7.5291 23.1339L7.26047 22.8002L7.24516 22.7473L7.22516 22.8105L7.22261 22.8016ZM7.88672 24.867L7.60671 24.5271L7.28544 23.9121L6.57228 22.7027C6.30615 22.1627 6.04257 21.6315 5.77644 21.0915L5.70557 20.8299L5.45204 20.4823L5.4322 20.3972L5.41987 20.4868C5.50542 20.6008 5.59667 20.7179 5.68222 20.8318L5.76193 21.091L6.70527 22.6499L7.29171 23.9008L7.61298 24.5157L7.84572 24.874L7.89894 25.1408L8.15875 25.477L8.18544 25.5362L8.18209 25.475L7.93681 25.1394L7.88358 24.8726L7.88672 24.867ZM7.367 19.3643L7.62936 19.7093C7.76809 19.8748 7.93958 20.0213 8.05124 20.209C9.21653 22.1056 10.3667 24.016 11.5351 25.9068C12.1302 26.873 12.7516 27.8316 13.3643 28.7927C13.4289 28.8505 13.496 28.9172 13.4035 28.8292C13.4222 28.9433 13.4081 28.8613 13.3939 28.7793C13.2503 28.663 13.0796 28.5689 12.9662 28.4247C11.2031 26.2802 9.83114 23.8839 8.45917 21.4876C8.13301 20.9219 7.92277 20.294 7.65898 19.6959L7.40545 19.3484C7.37503 19.3094 7.35031 19.2735 7.37503 19.3094C7.37992 19.2601 7.37503 19.3094 7.367 19.3643ZM10.918 24.1196L10.6727 23.7841L10.6374 23.7943L10.8738 24.1324L11.1299 24.4888C11.242 24.5951 11.3779 24.6849 11.4692 24.802C12.7025 26.4541 13.9327 28.1118 15.1628 29.7696C15.6895 30.4829 16.2048 31.19 16.7284 31.9091L17.082 32.3712C17.1434 32.4347 17.2079 32.4926 17.1351 32.4228C17.1607 32.511 17.1377 32.4316 17.1173 32.361L16.6369 31.9403C16.4876 31.8208 16.3138 31.7324 16.1916 31.5908C14.7144 29.8562 13.2523 28.1077 12.027 26.1855C11.6877 25.6571 11.1687 25.1854 11.1507 24.478L10.9123 24.1165L10.918 24.1196ZM13.8548 42.2332C13.9419 42.2367 14.0322 42.2345 13.9362 42.2336C14.0222 42.2661 13.9362 42.2336 13.8503 42.201C13.5378 42.3775 13.3251 42.1711 13.0962 42.0078C12.6232 42.1254 12.2483 41.9038 11.9159 41.5647L13.0981 42.0311C13.4169 41.8433 13.6115 42.1362 13.8548 42.2332ZM21.5113 40.2968C21.2875 40.1511 20.951 40.1289 20.9309 39.7616L19.7916 38.8811C20.397 39.1556 20.5457 39.2895 20.9044 39.7693C21.1434 39.9011 21.4767 39.929 21.4848 40.3045L22.2245 40.7124C21.7529 40.6526 21.54 40.5946 21.5145 40.2912L21.5113 40.2968ZM14.5063 32.7094C13.8694 32.2766 13.4585 31.6493 13.0476 31.022C12.983 30.9642 12.9242 30.9095 12.983 30.9642C12.9538 30.8961 12.983 30.9642 13.0123 31.0322C13.7153 31.4125 14.2048 31.9644 14.4798 32.717C14.5475 32.7692 14.6095 32.8182 14.5305 32.7598C14.5674 32.8543 14.5412 32.7806 14.5063 32.7094ZM15.6351 34.6451C15.0045 34.2009 14.4369 33.7098 14.1827 32.9464L13.7856 32.6978L13.8736 32.6053L14.1474 32.9566C14.6936 33.473 15.3305 33.9058 15.603 34.6496L15.9875 34.921L15.8818 35.0186L15.6294 34.642L15.6351 34.6451ZM20.7608 44.0529L19.9373 43.851L20.0029 43.6647L20.7654 44.0851C21.6756 44.1567 22.6797 44.5694 23.3198 45.2117L20.7551 44.0498L20.7608 44.0529ZM18.5245 44.1256L18.4596 44.1492L18.5378 44.1552C19.271 44.2924 20.0266 44.3752 20.7486 44.573C21.7352 44.8425 22.71 45.1871 23.5927 45.7258C23.087 45.6472 22.5975 45.5257 22.1243 45.3613C20.9221 44.958 19.7293 44.5377 18.5333 44.123L18.5245 44.1256ZM21.655 36.4436C22.5432 36.9186 25.5634 39.4744 25.8614 40.0913C25.0195 39.4786 24.1901 38.8432 23.4066 38.1515C22.7972 37.6151 22.2488 37.0085 21.6758 36.4328L21.3362 36.201L21.4154 36.1112L21.6437 36.4374L21.655 36.4436ZM29.4558 35.0394C30.2386 37.1183 31.4032 41.1958 31.363 41.834C31.2083 41.63 31.0533 41.5074 31.0043 41.3542C30.4524 39.4621 29.9068 37.5586 29.3846 35.6531C29.3367 35.4709 29.4476 35.2427 29.4823 35.0318L29.4502 35.0363L29.4558 35.0394ZM18.7254 34.5981C18.8619 34.6734 19.0224 34.7322 19.1376 34.8328C21.3644 36.7285 23.588 38.6299 25.8085 40.537C25.98 40.6835 26.115 40.8692 26.2682 41.0353C25.8875 40.9589 25.5802 40.7895 25.3095 40.5808C24.8046 40.1912 24.3212 39.7762 23.8251 39.3839C22.2586 38.1343 20.6864 36.8815 19.3331 35.3933C19.1102 35.1516 18.9477 34.8543 18.7581 34.5791C18.6791 34.5206 18.6026 34.471 18.7069 34.5509C18.6536 34.4324 18.691 34.5124 18.7285 34.5924L18.7254 34.5981ZM35.8855 51.2727C35.3267 50.9943 34.8537 50.8967 34.7121 50.225C35.1995 50.4715 35.673 50.5546 35.8855 51.2727ZM34.7385 49.787C34.2628 49.8289 34.0168 49.6561 33.9137 49.1837C34.3529 49.1811 34.6731 49.2463 34.7385 49.787ZM33.5268 49.9795C33.1716 49.9419 32.9704 49.7865 32.9233 49.5131C33.2464 49.5058 33.4418 49.6358 33.5268 49.9795ZM33.0102 48.871C32.7614 48.9366 32.6427 48.8514 32.6541 48.6153L33.0102 48.871ZM22.7084 43.8581L22.6676 43.932L22.2295 43.6904L22.2703 43.6165L22.7084 43.8581Z" fill="#EF8400"/>
</svg>
