<svg width="102" height="101" viewBox="0 0 102 101" fill="none" xmlns="http://www.w3.org/2000/svg">
<g clip-path="url(#clip0_2033_4548)">
<path d="M34.5335 73.3495C34.9675 73.65 35.3933 73.9422 35.8691 74.2761L35.2764 74.3428L34.7756 74.1008C34.7255 74.034 34.6921 73.9422 34.6253 73.9171C31.8706 72.69 29.1076 71.463 26.3446 70.2526C26.2444 70.2108 26.0858 70.2943 25.6434 70.3778C26.2361 70.6282 26.5533 70.7701 26.8705 70.9037C27.6635 71.2292 28.4648 71.5297 29.2579 71.8636C30.8773 72.5565 32.48 73.266 34.0994 73.9589C34.3081 74.0507 34.5669 74.0423 34.8006 74.0757C34.834 74.4347 35.0844 74.3428 35.3014 74.3178C35.3933 74.4263 35.4684 74.5766 35.5853 74.635C36.612 75.1442 37.6471 75.6367 38.6738 76.1459C38.9743 76.2962 39.3416 76.413 39.4585 76.989C38.2732 76.7469 37.3883 76.0541 36.3365 75.787C36.8541 76.5549 37.8975 76.5883 38.5987 77.3479C37.4885 77.6067 36.5703 77.8404 35.5519 77.3062C32.6386 75.7786 29.6168 74.4931 26.4781 73.5248C24.7919 73.0072 23.0891 72.5732 21.3945 72.089C20.7351 71.897 20.084 71.6716 19.6415 71.5381C19.1824 70.7701 18.8068 70.2526 18.548 69.6682C18.3894 69.3177 18.3226 68.8752 18.3811 68.4996C18.5731 67.381 19.2409 66.5797 20.1925 65.987C21.4362 65.219 22.847 64.9102 24.1993 64.4511C26.6451 63.6247 29.1243 62.8817 31.5367 61.9635C33.1394 61.3541 34.6754 60.5444 36.1946 59.7514C37.4634 59.092 38.6655 58.2906 39.926 57.6061C40.3016 57.4058 40.7607 57.364 41.1948 57.2639C41.6122 57.172 42.0379 57.1053 42.5053 57.0134C42.2633 57.748 42.2549 57.7397 41.1197 58.4158C40.5437 58.7581 39.8592 58.9668 39.3416 59.6846C40.3767 59.7097 40.9026 58.9751 41.6288 58.708C42.3718 58.4325 42.8977 57.7313 43.8493 57.556C43.6823 58.1821 43.2733 58.3407 42.906 58.5577C41.9127 59.1337 40.9277 59.718 39.9427 60.319C39.6755 60.4776 39.3082 60.6029 39.5253 61.1872C40.4852 60.8783 41.2699 60.2356 42.1297 59.7514C42.9811 59.2673 43.7074 58.4826 45.0513 58.5828L44.3585 59.7431L43.891 60.0185L43.1397 60.5027C42.7641 60.4776 42.522 60.6446 42.4052 61.0119C41.8793 61.062 41.4536 61.2874 41.1864 61.7632C41.0696 61.7799 40.9527 61.7966 41.1113 61.7715C40.9861 61.8717 41.0696 61.8049 41.1614 61.7298C41.6622 61.6296 42.1214 61.4627 42.3885 60.9868L43.1397 60.511L43.866 60.0018L44.3835 59.7848L44.9345 59.91C44.5922 60.6696 43.9077 60.895 43.3484 61.254C42.7641 61.6296 42.1631 61.9718 41.6038 62.3976C42.7725 62.3057 43.5404 61.2456 44.876 60.9868C43.7157 62.7231 42.0796 63.5662 40.5687 64.5178C40.6939 65.0521 41.0946 64.9269 41.3784 64.9269C42.9394 64.9603 44.5004 64.9519 46.0614 64.9769C49.1833 65.0354 52.297 65.0938 55.4189 65.1773C55.7695 65.1856 56.1118 65.3442 56.4624 65.4277L56.4874 65.5028L56.4457 65.4361C56.7211 64.9436 57.1802 65.1856 57.5475 65.1856C60.9199 65.1689 64.2923 65.1773 67.6563 65.1856C70.3275 65.1856 72.9988 65.1689 75.6449 64.7599C76.4713 64.6347 77.2393 64.9352 77.9989 65.2357C77.8737 65.9286 77.2309 65.5362 76.9137 65.8618L78.1659 65.9536L78.1826 66.0705C77.1141 66.2541 76.0456 66.4378 74.9771 66.6214C76.2543 67.2057 77.4981 66.4378 78.867 66.7132L78.0573 67.2976L79.009 67.8234L77.857 68.2575L78.2493 68.5079C77.8904 69.0505 77.3895 69.2926 76.7468 69.3928C74.0672 69.8102 71.371 70.1524 68.6581 70.094C63.4075 69.9854 58.1485 69.8435 52.898 69.6849C49.8595 69.5931 46.821 69.4262 43.7825 69.3093C39.8007 69.159 35.819 69.0255 31.8372 68.8919C31.5284 68.8836 31.2195 68.9337 30.8606 69.1674C31.1694 69.326 31.4699 69.4846 31.7788 69.6349C34.0577 70.7701 36.3365 71.9054 38.6154 73.0239C39.3166 73.3662 39.8258 73.8336 39.9176 74.7519L38.7156 74.5599L38.2899 74.2343L37.2297 73.8253L37.213 73.7168L37.1295 73.7919L37.2381 73.8086L38.173 74.3595L38.7156 74.5515C39.1246 74.8437 39.542 75.1359 39.951 75.428L39.8926 75.595C39.734 75.5699 39.5587 75.5783 39.4168 75.5115C38.1229 74.8854 36.8457 74.2343 35.5519 73.6166C35.2347 73.4664 34.859 73.4163 34.5084 73.3244L33.9992 73.0991L33.9325 72.9905L34.0326 73.0657L34.5168 73.3161L34.5335 73.3495ZM57.5058 66.4378L57.7479 66.6882L57.9983 66.9303L58.2487 67.1807L58.2905 67.2475L58.2237 67.2057L57.9816 66.9553L57.7312 66.7132L57.4974 66.4545L57.4724 66.3793L57.5225 66.4378L57.5058 66.4378ZM59.4841 68.4161L59.7262 68.6665L59.9766 68.9086L60.2271 69.1507L60.2688 69.2175L60.202 69.1757L59.9516 68.9337L59.7012 68.6916L59.4675 68.4328L59.4424 68.3577L59.4841 68.4161ZM36.9042 62.1054C35.0928 62.623 32.864 63.7081 31.879 64.618C33.7572 63.8834 35.4767 63.416 36.9042 62.1054ZM71.6047 67.1223L71.6047 66.997L68.5913 66.997L68.5913 67.1223L71.6047 67.1223ZM21.2025 69.1257L22.104 69.1257C21.8286 68.75 21.6199 68.5998 21.2025 69.1257ZM19.7667 68.4495L19.7667 68.6081L20.2843 68.6081L20.2843 68.4245L19.7667 68.4495Z" fill="white"/>
<path d="M61.1787 55.0854L61.162 55.1855L61.0869 55.1104L61.1871 55.0937L61.1871 55.0854L61.1787 55.0854Z" fill="white"/>
<path d="M55.4106 43.9367L56.1035 42.4508C55.7112 40.8064 56.1202 39.0951 57.1887 37.4089C56.8464 37.3338 56.596 37.2336 56.3372 37.2253C53.5491 37.0667 50.7611 36.883 47.9647 36.7912C43.5739 36.6493 39.1748 36.5575 34.784 36.4573C31.1361 36.3739 27.4799 36.3154 23.8321 36.2319C23.014 36.2153 22.1876 36.1819 21.3779 36.065C20.2593 35.9064 19.4162 35.1551 18.3644 34.7544L18.7401 33.8863C20.4012 32.534 22.2043 32.6342 24.0157 32.6258C26.7704 32.6091 29.5167 32.4672 32.2714 32.4338C36.6288 32.3754 40.9862 32.342 45.3352 32.3253C49.6509 32.317 53.9665 32.3504 58.2822 32.3671C58.8081 32.3671 59.3423 32.3671 60.127 32.3671C59.7847 32.0415 59.6595 31.8579 59.4842 31.7577C58.8832 31.4071 58.2738 31.0565 57.6478 30.756C56.5292 30.2217 55.5192 29.5706 54.9432 28.2768L55.9115 28.1349L56.404 28.3769C56.4875 28.4354 56.5709 28.4938 56.4708 28.427C56.596 28.4437 56.4791 28.427 56.3706 28.4103L55.8948 28.1516C55.4357 27.8511 54.9766 27.5505 54.4423 27.1999L55.01 26.624C56.4875 27.2333 57.7062 28.2684 59.4174 28.7025C59.0668 28.1599 58.6077 28.1015 58.2738 27.8844C57.8898 27.6424 57.4808 27.4504 57.0885 27.2333C56.6878 27.0163 56.3038 26.7909 55.8948 26.5906C55.5025 26.3902 55.0934 26.2066 54.6427 25.9896L54.7929 25.3385C55.3439 25.0296 55.7278 25.2633 56.1285 25.4971C57.3055 26.1732 58.4825 26.841 59.6595 27.5088C60.0352 27.7175 60.4024 28.043 60.9534 27.8344C60.8449 27.2667 60.4024 27.0247 59.9934 26.8076C58.6662 26.0814 57.3139 25.3885 55.9699 24.679C55.7946 24.5872 55.6277 24.4787 55.4357 24.3701C55.6444 23.4436 56.3122 23.8526 56.8214 23.8609L57.0217 23.1347C58.4074 22.6339 59.6846 22.7424 60.9951 23.477C64.0086 25.1632 67.1138 26.6574 70.3777 27.801C72.1975 28.4354 74.0256 29.0447 75.8787 29.579C77.9071 30.1633 79.6601 31.1149 80.9874 32.8929C81.0709 33.6192 81.1543 34.4289 81.2378 35.1885C81.0291 35.7895 80.7453 36.3572 80.6535 36.9498C80.5032 37.8597 79.9606 38.3355 79.1509 38.5442C77.7235 38.9031 76.2877 39.2454 74.8353 39.5209C73.1407 39.8464 71.4378 40.0801 69.8017 40.6645C68.0821 41.2738 66.4878 42.1002 65.027 43.1771C63.6413 44.2038 62.122 44.7547 60.4024 45.0219C59.3256 45.1888 58.4825 44.9634 57.5643 44.4709L56.5793 44.9133L56.0033 44.4292L56.379 43.6445L55.4023 43.9617L55.4023 43.9701L55.4106 43.9367ZM62.3057 28.402L62.0135 28.21L61.9885 28.3185L62.3391 28.3769L62.8399 28.619L63.8166 29.362L63.9585 29.1199L62.8232 28.6357L62.314 28.402L62.3057 28.402ZM63.5745 30.5974C63.9167 30.9229 64.2757 31.1901 64.7849 31.0982L65.2941 31.332L65.3525 31.14L64.7932 31.0899C64.4426 30.7476 64.0503 30.5223 63.5411 30.6308L63.4827 30.5223L63.5745 30.5974ZM61.6379 38.3856C60.8949 37.8681 60.4525 38.1936 60.1103 38.4691C59.1837 39.212 57.8732 39.5709 57.606 41.0485L61.6379 38.3773L61.6379 38.3856ZM79.3847 36.4824C78.856 36.2041 78.4247 36.2264 78.0908 36.5491C78.5416 36.5241 78.8504 36.5074 79.3847 36.4824ZM76.6049 36.9498L76.7302 36.7244L76.0457 36.5325L75.9956 36.6827L76.6049 36.9498Z" fill="white"/>
<g clip-path="url(#clip1_2033_4548)">
<path d="M94.7341 43.5411L94.8851 44.6962C94.7442 43.7621 94.6032 42.818 94.4623 41.8638C94.2812 40.9196 94.0094 39.9855 93.798 39.0313C93.4357 37.1029 92.6607 35.2748 92.0769 33.3966C93.2746 37.5448 93.8987 42.1048 94.3113 46.3937C94.3516 48.5532 94.6334 50.6423 94.6234 52.621C94.6536 53.6054 94.7844 54.5796 94.8347 55.5037C94.8649 56.4277 94.9354 57.3217 95.0562 58.1855C94.7542 58.316 94.4623 58.9287 94.1 59.7423C93.6873 60.5458 93.2646 61.5603 92.8922 62.5748C92.56 63.5892 92.097 64.5434 91.795 65.2766C91.4931 66.0098 91.332 66.5221 91.3824 66.5824C91.2817 66.9942 91.1911 67.416 91.0703 67.8178L90.6275 69.0231C90.3154 69.8266 90.0135 70.6402 89.7015 71.4538C90.1443 70.3389 90.5771 69.234 91.0099 68.1292C90.5771 69.234 90.1343 70.3389 89.7015 71.4538C87.467 76.5059 83.8636 81.2568 79.2336 85.0535C74.6237 88.8803 68.9872 91.6826 62.9782 93.2093C59.6768 94.1535 53.2854 95.1679 46.9242 94.505C46.5316 94.4648 46.129 94.4749 45.7365 94.4046L44.5689 94.2037C43.7939 94.0731 43.0189 93.9325 42.2539 93.8019C41.4889 93.7115 40.7642 93.4403 40.0496 93.2495C39.335 93.0486 38.6304 92.8477 37.956 92.6669C35.2988 91.7429 33.0241 90.8188 31.5243 89.9249C30.6487 89.4327 29.7227 89.0511 28.8973 88.4484C29.5818 88.9506 29.9542 89.1414 30.3266 89.3323C30.699 89.5332 31.0613 89.7341 31.8062 90.1459C31.313 89.945 30.8198 89.7541 30.3467 89.5633C29.8636 89.3725 29.3805 89.1917 28.9376 88.9305C28.0317 88.4584 27.1359 87.9964 26.2602 87.5444C25.8073 87.3335 25.4047 87.0623 25.0021 86.7911C24.5995 86.5199 24.1868 86.2588 23.7842 85.9976C22.989 85.4553 22.1536 84.9832 21.449 84.3404C21.6403 84.6216 21.7409 84.8124 21.9221 85.0836C22.1133 85.3448 22.4052 85.6561 22.979 86.2186C22.4958 85.7867 21.9523 85.4251 21.5094 84.943C20.7143 84.5111 19.5467 83.5971 18.3791 82.6529C17.3223 81.5983 16.2654 80.5035 15.5407 79.8406C15.7722 79.9109 15.6213 79.6799 15.3495 79.258C15.0878 78.8261 14.6751 78.2436 14.2826 77.6912L14.4839 78.2134C11.3939 74.1456 8.46487 68.9026 7.15639 64.5032C6.91482 63.9106 6.93495 63.4084 6.92489 63.1071L6.29078 61.0079C6.07941 60.3048 5.84791 59.6117 5.73719 58.8886C6.09954 59.1598 5.46543 55.2626 5.96869 57.2915C5.76738 56.4981 5.54595 55.7046 5.4453 54.891C5.3849 54.0774 5.31445 53.2538 5.25406 52.4503C5.22386 51.6367 5.07288 50.8332 5.11314 50.0297C5.11314 49.2261 5.10308 48.4326 5.04269 47.6392C5.37484 42.0546 6.72358 36.3395 9.13924 30.996C11.5348 25.6526 14.967 20.6908 19.1441 16.5225L18.8522 16.633C19.597 15.9098 20.2613 15.1464 20.986 14.4433C21.751 13.7704 22.5059 13.1075 23.2809 12.4144C24.0459 11.6913 24.9417 11.1087 25.8979 10.496C26.8641 9.9034 27.8304 9.20032 29.0382 8.74833C29.8133 8.26621 30.6789 7.74391 31.5747 7.21157C32.4705 6.68928 33.4468 6.31765 34.3225 5.86567C35.2183 5.4639 36.0134 4.98178 36.7281 4.71059C37.4326 4.40927 37.9862 4.12803 38.3083 3.87693C39.3551 3.60574 40.2207 3.29437 41.036 3.10353C41.8513 2.92274 42.5961 2.76203 43.3309 2.59128C44.0656 2.43058 44.8004 2.23974 45.6258 2.07903C46.4511 1.97859 47.357 1.87815 48.4239 1.78776C47.8602 1.65718 48.897 1.50652 49.823 1.37594C50.759 1.22528 51.4938 1.19515 50.4772 1.05453C47.5784 0.763253 47.4375 1.09471 44.9514 0.944047L45.0319 1.04449C33.5374 1.7978 22.2543 6.95043 13.9102 15.3574C12.6419 16.874 11.2429 18.3304 10.0954 20.0178C9.50159 20.8414 8.86748 21.645 8.28369 22.4987C7.75024 23.3726 7.20671 24.2565 6.66319 25.1403L5.85797 26.4662L5.17353 27.8623L3.81473 30.6646C3.41212 31.6188 3.07996 32.6031 2.71761 33.5774C2.3754 34.5517 1.97279 35.5059 1.77148 36.5103C1.50978 37.585 1.24809 38.6597 0.986391 39.7545C0.71463 40.8393 0.644173 41.9743 0.462999 43.0791C0.0704543 45.2989 0.10065 47.5588 0.0201283 49.7585L-2.16723e-06 50.5821L0.0603893 51.4057C0.10065 51.9481 0.140911 52.4905 0.181172 53.0228C0.281825 54.0975 0.301955 55.1522 0.473065 56.1867C0.664304 57.2112 0.845479 58.2156 1.02665 59.1899L1.29841 60.6362C1.42926 61.0983 1.57018 61.5603 1.70102 62.0022C1.96272 62.856 2.1137 63.6093 2.22442 64.3425C2.27474 64.7041 2.32507 65.0657 2.3754 65.4373C2.44585 65.7989 2.53644 66.1505 2.62703 66.5221C2.93905 67.3256 3.26114 68.1693 3.59329 69.0231C3.7644 69.4449 3.90531 69.8969 4.10662 70.3188C4.31799 70.7406 4.51929 71.1725 4.73066 71.5944C5.1534 72.4582 5.58621 73.332 6.01902 74.2259C6.48202 75.0998 7.04567 75.9334 7.559 76.7972C8.54539 78.565 9.83374 80.162 11.0617 81.7691C11.6455 82.6027 12.3803 83.2958 13.0546 84.039C13.7391 84.7622 14.4034 85.5055 15.1079 86.1684C14.9972 86.0679 14.8966 85.9675 14.8462 85.8972C15.6011 86.6003 16.3057 87.2632 17.0002 87.896C17.6947 88.5187 18.2886 89.2118 19.0132 89.7541C19.7178 90.3166 20.4224 90.8791 21.137 91.4516C21.5094 91.7328 21.8818 92.0241 22.2543 92.3154C22.6669 92.5665 23.0897 92.8176 23.5225 93.0787C23.5527 92.9883 24.0962 93.3098 24.378 93.4303C24.5391 93.812 29.8133 96.7649 35.6612 98.2916C41.499 99.9389 47.5985 99.9489 48.283 100.069C48.6957 100.069 49.1285 100.069 49.5613 100.079C57.9456 100.562 66.9339 98.9345 73.4763 95.4994C73.8185 95.2784 74.1607 95.0574 74.513 94.8365C74.8452 94.5854 75.1773 94.3242 75.4994 94.0731C76.1436 93.5709 76.7576 93.0787 77.2709 92.6368C77.8647 92.3757 78.1868 92.1547 78.4888 91.8634C78.7907 91.5621 79.1028 91.2407 79.7369 90.7987C80.6528 90.3869 81.448 89.9651 82.0921 89.5834C82.7464 89.2118 83.1691 88.7799 83.4811 88.5187C84.075 87.9562 84.0146 87.7855 83.1591 88.358C85.5445 86.1583 87.8092 83.8382 89.5908 81.5682C90.3356 80.4633 91.0905 79.3786 91.8051 78.2436C92.3386 77.2392 92.7714 76.7671 93.2444 76.3754C94.6737 73.8242 94.4019 74.6679 95.8312 71.9359C95.9822 71.7953 96.2338 71.283 96.5458 70.5799C96.8679 69.8768 97.0894 68.9226 97.3712 67.9885C97.6329 67.0544 97.8946 66.1203 98.1059 65.357C98.2469 64.5836 98.3676 64.001 98.4482 63.8001L98.3676 64.2923C98.5991 63.4385 98.8508 62.6651 99.1024 61.9319C99.3641 61.1987 99.6157 60.5057 99.7868 59.7825C100.139 58.3562 100.592 56.93 100.753 55.1923C101.297 50.3511 100.954 45.2286 100.018 40.3069C98.9212 35.4155 97.1397 30.8052 95.0964 26.7775C94.7844 26.8378 96.0224 28.5352 95.7004 28.8165L94.8649 27.0085C94.5932 26.4059 94.2208 25.8434 93.9087 25.2609L92.9324 23.5132C92.6103 22.9306 92.2983 22.338 91.8957 21.7956L89.6008 18.4811C88.7453 17.4465 87.8495 16.4321 86.9537 15.4277C86.39 14.6241 85.5647 13.7603 85.313 13.3686C84.1052 12.1131 84.4575 12.7961 83.5415 11.9122L83.6019 11.5808C82.8571 11.0183 82.3136 10.6165 81.8506 10.1244C81.3775 9.65229 80.9044 9.17018 80.1697 8.69811C80.0288 8.73828 79.5154 8.34656 79.0021 8.00506C79.143 7.73387 77.3514 7.02074 77.5728 6.83995L77.5426 6.83995C77.2206 6.64911 76.979 6.52857 76.6166 6.24734C76.4455 6.17703 75.9423 5.94602 75.2578 5.65474C74.5734 5.36346 73.6675 5.10231 72.7919 4.79094C71.9162 4.49967 71.0304 4.20839 70.3259 3.97737C69.6112 3.79658 69.0576 3.68609 68.8865 3.65596L68.5946 3.49525C67.6586 3.1638 67.1956 3.22406 67.7089 3.47517L66.5715 3.04327L66.7124 3.0734L65.5851 2.6415C65.3838 2.54106 65.1725 2.36027 65.5549 2.31005C64.8604 2.23974 64.0955 2.09912 63.4513 1.87815C65.2832 2.45066 67.3969 3.5756 69.1281 4.51975C68.3329 4.33896 67.0144 3.68609 66.179 3.4149C65.9475 3.28432 65.6556 3.11358 65.3134 2.95287C64.9611 2.8223 64.5585 2.67163 64.1559 2.52097C63.3104 2.22969 62.4045 1.90828 61.5993 1.62705C61.2269 1.56678 60.9249 1.76766 60.1298 1.50651C59.7674 1.21523 59.1937 1.3659 58.5294 1.10476C59.3447 1.1148 60.1197 1.25541 60.9149 1.44625C60.8444 1.10475 58.9823 0.944046 58.3583 0.763252C58.0463 0.803428 56.4962 0.461932 55.4998 0.421755C55.9628 0.180697 54.7147 0.210824 54.1309 0.0400741C53.4565 -0.0302347 53.0237 0.0601651 53.2955 0.160606C53.064 0.431797 55.9426 0.471977 54.9864 0.713036C54.7549 0.562374 53.4465 0.542283 52.7419 0.522195C52.7218 0.672857 53.2149 0.662809 52.7519 0.793383C51.9769 0.723074 51.1516 0.863691 50.7087 0.682897C50.8496 0.652765 51.1717 0.682901 51.4032 0.70299C50.3564 0.632681 56.9794 -0.0302358 55.6709 -0.000103391C55.9728 0.150558 49.7928 0.622638 50.4873 0.672859C51.1012 0.7733 50.0444 0.934002 50.6785 1.01435L51.3831 0.863692C52.2487 0.964133 52.5909 1.25542 52.2889 1.34581C50.8194 1.24537 56.4862 0.502106 55.2381 0.592504C55.4092 0.63268 55.5702 0.642725 55.7413 0.702989C55.1978 0.75321 53.7786 0.78334 53.2351 0.582457C53.225 0.733119 52.5104 0.753212 51.9165 0.783344L51.7052 0.743167C51.0912 0.793388 50.2457 0.71303 50.6382 0.934C52.4198 1.00431 51.8159 1.3659 51.222 1.74758C50.6282 2.11921 50.0343 2.51093 51.7052 2.6415C50.3061 2.2297 52.1883 2.32009 53.6679 2.35022C53.7987 2.4808 54.453 2.66159 55.4998 2.8223C56.4056 2.93278 56.0533 2.78212 56.2345 2.72186C56.7277 2.87252 57.6839 3.08344 57.5329 3.24415C58.2677 3.14371 58.6401 3.54547 59.4957 3.60574C60.2606 3.62583 59.4655 3.50529 60.009 3.48521C61.1162 3.7564 62.636 4.19834 63.5016 4.45949C63.7935 4.71059 64.7296 5.25297 63.9143 5.31324C62.2837 4.86125 64.6591 5.07218 62.9279 4.68046C63.562 5.24293 61.3879 4.38918 61.0055 4.59006C61.5087 4.90143 62.6058 5.18267 63.5318 5.37351L63.3607 5.27306C64.1961 5.3735 65.7965 5.8958 66.5715 6.398C66.33 6.44822 66.6621 6.67924 66.0783 6.49844L67.1452 6.91025C67.2962 6.9203 67.4573 6.93034 67.1452 6.78972C67.6888 6.88012 68.182 7.12118 68.5342 7.33211C68.5846 7.47272 74.3218 9.39115 74.0601 9.52172C74.7747 9.95362 74.8351 10.2349 75.6001 10.5362C75.6303 10.5261 75.2075 10.2851 74.5734 9.94357C73.9292 9.62216 73.1039 9.10992 72.2181 8.80859C70.4869 8.12559 68.8865 7.50285 69.3898 7.72383C69.5307 7.83431 70.1447 8.1055 71.0002 8.447C71.8457 8.80859 72.963 9.18023 73.9695 9.75274C75.0062 10.2851 76.0329 10.8174 76.828 11.2493C77.593 11.7214 78.0962 12.1232 78.1667 12.2537C78.67 12.6153 79.2839 13.0372 79.2537 12.8363C80.0489 13.5193 78.8411 12.8664 79.3443 13.4188C79.3745 13.4188 79.3443 13.3284 79.5255 13.4691L79.9784 14.0315C80.7132 14.4032 81.3876 15.1464 82.1324 15.7993C82.847 16.4923 83.6523 17.1151 84.3065 17.6575C83.8838 17.3863 83.2698 17.2155 82.374 16.6028L82.2834 16.422C82.1425 16.3517 81.448 15.7993 81.3775 15.9198C82.0619 16.6832 82.7363 17.2155 83.6019 17.8684C83.7026 18.0391 83.8334 18.24 83.914 18.3806C83.924 18.3605 83.924 18.3405 83.9441 18.3304C84.1153 18.6518 84.075 18.6317 83.9441 18.5815C83.924 18.5815 83.9039 18.5715 83.8737 18.5514C83.9743 19.3047 86.8027 21.2633 87.6582 22.9607C88.0306 23.3625 87.7488 22.9608 88.2219 23.4529C88.4735 23.8547 88.705 24.2263 88.9264 24.5879C89.1277 24.9495 89.2989 25.3211 89.48 25.6827C89.8424 26.4059 90.2249 27.1391 90.6879 27.9929C91.171 28.4348 91.2616 28.4549 91.0301 27.7016C91.2817 28.1335 91.5132 28.5754 91.7045 29.0374C90.6879 28.0531 92.4996 31.7393 91.4226 30.6144C91.5132 31.0463 91.8655 31.8398 92.2983 32.5529C92.4392 32.583 92.711 32.6031 93.0532 33.5874C93.3954 35.0036 93.335 34.6622 93.5967 35.8273C93.5464 36.1386 93.335 35.757 93.2344 35.8373C94.0798 37.4845 93.4256 37.4444 93.8886 39.0816C94.2107 40.1061 94.7542 42.145 94.9656 42.1551C95.1669 43.5914 94.9656 43.6215 94.724 43.5211L94.7341 43.5411Z" fill="white"/>
</g>
</g>
<defs>
<clipPath id="clip0_2033_4548">
<rect width="100.17" height="101.005" fill="white" transform="translate(0 100.17) rotate(-90)"/>
</clipPath>
<clipPath id="clip1_2033_4548">
<rect width="100.17" height="101.005" fill="white" transform="translate(0 100.17) rotate(-90)"/>
</clipPath>
</defs>
</svg>
