<svg xmlns="http://www.w3.org/2000/svg" width="69.392" height="90.125" viewBox="0 0 69.392 90.125">
  <g id="scribbles-scribbles-63" transform="translate(-77.862 -48.116)">
    <path id="Tracé_1" data-name="Tracé 1" d="M92.351,131.017l-1.126.721-.009,1.375-.713-.118-.814,1.53.458,1.033-.9.048.248,2.049.582-.145.468.731c1.028-.252,2.136.069,2.931-.793a1.351,1.351,0,0,0,1.629.288c1.019-.373,2.217-.15,3.065-.672a11.5,11.5,0,0,1,3.086-.849c1.21-.364,2.463-.726,3.727-.985a9.741,9.741,0,0,0,3.7-1.184c2.461-.11,4.622-1.327,6.934-1.975a25.219,25.219,0,0,0,5.387-1.825c.591-.32,1.505-.08,1.54-1.321a2.19,2.19,0,0,0,2.534.052,6.263,6.263,0,0,1,1.976-.832,47.43,47.43,0,0,0,5.167-1.959c1.578-.607,3.075-1.427,4.635-2,2.1-.774,3.73-2.218,5.622-3.268.333-.185.5-.656.8-.92.33-.288.921-.411,1.061-.747.181-.435.553-.385.785-.608.343-.33.657-.69,1.049-1.107-.022-.413.48-.906.1-1.5a.734.734,0,0,1,.152-.7c1.109-.623.792-1.663.779-2.7a3.358,3.358,0,0,0-3.855-1.878,2.614,2.614,0,0,0-.68.167A13.517,13.517,0,0,1,140.19,112a7.824,7.824,0,0,0-2.458,1.171c-.748.453-1.481,1.218-2.255,1.263-.861.049-1.289,1.121-2.2.7-.162.846-1.158.374-1.493.947-.825-.117-1.329.553-2,.795-.62.225-1.223.513-1.831.709A44.241,44.241,0,0,0,122.166,120c-1.185-.178-1.828,1.124-3.02,1.06-1.023-.055-1.9.638-2.829.979-1.053.388-2.12.853-3.169,1.306-.978.423-2.006.737-3,1.142a42.771,42.771,0,0,0-4.507,1.6c-1-.308-1.531.851-2.543.774a5.7,5.7,0,0,0-2.509.739c-1.868.814-3.893.948-5.771,1.646-.445.166-.892.324-1.409.512l.559,1.26Z" fill="#bb6bd9"/>
    <path id="Tracé_2" data-name="Tracé 2" d="M107.4,95.743l.39.085.008-1.463.763.593c.431-.358,1.134-.658,1.293-1.138.258-.779,1.009-.381,1.369-.846.326-.421,1.068-.617,1.221-1.054.251-.713.9-.818,1.3-1.25a15.62,15.62,0,0,0,1.071-1.44L116,88.909l-.115-1.442.937.789c.924-1.781,2.986-2.429,3.978-4.107-.07-.191-.13-.357-.289-.794l.715.568.982-1.07c-.133-.267-.266-.536-.461-.93l.565.032.445-.75.717.473.621-1.529c-.078-.16-.212-.429-.385-.778l1.483-.156c.04-1.17.943-2.279.6-3.6l-.606-.163c.11-.5.305-.507,1.07-.027a2.572,2.572,0,0,0,.32-.184c.041-.031.045-.109.115-.3l-.822-.55-.247-1.218-.737.964-.442-1.328-.927,1.426.509.167-.6,1.026-.689-1.075-1.327.133-1.7,2.448a5.757,5.757,0,0,0-2.112,1.8l-.61-.1-.73,1.175.512.148c-.037.1-.057.279-.121.3-.73.2-1.6.1-1.867,1.148-.049.193-.615.258-.944.377a4.75,4.75,0,0,0-3.106,3.036,3.475,3.475,0,0,0-.916.307c-.313.209-.634.821-.8.77-.844-.266-.646.591-1,.823a2.835,2.835,0,0,0-.912.855,8.492,8.492,0,0,1-1.776,1.746,46.915,46.915,0,0,0-5.923,5.9,60.907,60.907,0,0,0-4.089,5.051,13.934,13.934,0,0,0-2.124,3.821A13.212,13.212,0,0,0,92.36,108l.636.294-.071.491,1.907.363a2.074,2.074,0,0,0,.606-1.879l.8.915.455-.292-.15-.721.768,0,.246-.659,1.225.221a12.869,12.869,0,0,1,.232-1.884c.15-.541,1.081-.708.728-1.624l-.674-.308,1.029-.736-.146.927c.391-.28.774-.419.923-.688a8.927,8.927,0,0,1,1.288-1.679,12.146,12.146,0,0,1,1.463-1.321c.46-.369.818-.864,1.275-1.237.484-.394,1.087-.651,1.534-1.076A8.361,8.361,0,0,0,107.4,95.743Z" fill="#bb6bd9"/>
    <path id="Tracé_3" data-name="Tracé 3" d="M91.879,49.56l-.86-1.342a2.8,2.8,0,0,0-2.61.6c.006.2.018.581.031,1.026-1.471.027-.969,1.693-1.942,2-.684,1.552-.868,3.219-1.647,4.689a2.841,2.841,0,0,0-.17.736,29.388,29.388,0,0,1-1.628,5.042,25.374,25.374,0,0,0-1.058,3.528,15.157,15.157,0,0,1-1.37,3.741,2.866,2.866,0,0,0-.171.735,18.676,18.676,0,0,1-.714,2.924,20.129,20.129,0,0,0-.592,2.258,33.626,33.626,0,0,0-.694,3.972c-.211,1.338-.455,2.674-.583,4.021a7.431,7.431,0,0,0,.248,1.747l2.309.349c.615-.034.3-1.028.707-1.565l.655.056,1.8-1.764c.84-2.574,1.91-5.425,2.728-8.373a22.04,22.04,0,0,1,1.621-4.167,19.586,19.586,0,0,0,.954-3.16,53.685,53.685,0,0,0,2.123-8.523C91.395,55.382,92.273,52.719,91.879,49.56Z" fill="#bb6bd9"/>
  </g>
</svg>
