<svg width="115" height="144" viewBox="0 0 115 144" fill="none" xmlns="http://www.w3.org/2000/svg">
<path d="M30.5807 102.994C31.2945 105.018 32.0063 107.051 32.72 109.075L33.1468 109.064C33.3714 108.405 33.6985 107.763 33.808 107.087C34.4617 103.158 35.0689 99.2161 35.6888 95.2736C36.4942 90.1434 37.2146 84.9917 38.1225 79.8792C38.5538 77.4613 39.3749 75.1133 39.9338 72.7113C40.0986 71.9957 39.8592 71.1859 40.0056 70.4616C40.4378 68.365 41.0142 66.3007 41.4541 64.206C41.7556 62.7719 41.7893 61.274 42.1739 59.8691C42.6652 58.092 43.6084 56.6104 45.7858 56.5939L45.7684 56.5648C46.073 56.6461 46.4391 56.8746 46.6648 56.7795C47.7676 56.2932 48.3965 56.93 49.0117 57.6538L48.9847 57.6305L49.329 57.7012L49.3192 57.4312L49.3365 57.4603C50.6116 58.5199 51.8963 59.5739 53.1782 60.6229C53.1071 60.7572 53.0332 60.8866 53.1334 60.7021C53.1695 60.9171 53.1429 60.7621 53.1163 60.6072C56.2516 60.9527 57.2754 63.4428 58.502 65.7991C59.4246 67.568 60.5905 69.205 61.5567 70.9479C62.061 71.8494 62.3559 72.8625 62.7826 73.8103C63.07 74.4469 63.4185 75.0538 63.9408 76.0628C64.7445 73.6857 65.3999 71.732 66.0727 69.7744C67.4055 65.8932 68.8031 62.0326 70.0586 58.1318C71.8808 52.4812 73.6536 46.814 75.3568 41.1292C76.4852 37.3567 77.4869 33.548 78.504 29.7432C79.434 26.2663 80.2944 22.7717 81.2167 19.2927C81.6818 17.5378 81.9546 15.6477 82.8091 14.0943C83.7063 12.4694 83.4588 10.8303 83.667 9.19556L83.6533 9.2497C84.0741 9.29455 84.8303 9.46139 84.8616 9.37052C85.6238 7.28748 87.3485 7.20569 89.2705 7.15741L89.3865 5.91912C89.8494 6.12279 90.3307 6.33524 90.8119 6.54767C90.7649 6.73333 90.7179 6.91898 90.6709 7.10463C90.6514 7.14909 90.6193 7.19447 90.6124 7.23799C90.6094 7.26605 90.6548 7.29812 90.6799 7.32917C90.6588 7.24975 90.6426 7.16745 90.6216 7.08803C90.6686 6.90238 90.7156 6.71673 90.7597 6.52623L91.2649 6.51423L91.265 6.48133C91.3885 6.92007 91.512 7.35882 91.6355 7.79757L91.6538 7.80634C92.0768 8.39503 92.5027 8.98857 92.9209 9.58015L92.9578 9.53189L93.3448 10.1814L93.2723 10.159C93.3842 10.5783 93.4991 11.0025 93.6761 11.6524L95.586 10.1728C96.058 11.8358 96.5176 13.4339 96.9694 15.0301L96.9463 14.9913L96.9851 14.9682C97.3292 15.7221 97.6733 16.4761 98.0145 17.2252C98.0116 17.2203 97.9062 17.1977 97.9062 17.1977L97.9778 17.2076C99.5071 13.3473 101.041 9.48418 102.573 5.62875L102.188 5.47757L104.099 4.67349C103.492 4.40454 103.152 4.25254 102.496 3.96698C103.332 3.18669 104.061 2.50283 104.87 1.74471C104.735 1.31948 104.565 0.80317 104.397 0.279125L105.169 0.174089L105.176 0.130555C105.323 0.575186 105.469 1.01981 105.714 1.76085L104.307 3.26904L104.51 3.52223L105.679 2.82618L105.661 2.7971L106.015 2.58626L106.032 2.61534C107.801 1.93566 108.708 2.19005 109.565 4.15614C110.245 5.72784 111.082 6.17459 112.745 5.86715C113.362 5.75583 114.152 6.61854 114.858 7.03198L114.854 6.98165C113.917 10.6667 113.184 14.42 111.988 18.023C109.648 25.0654 106.894 31.9741 104.627 39.039C103.603 42.237 102.178 45.1686 100.582 48.0571C99.7313 49.5951 97.5996 50.1624 96.1025 49.2481C94.4866 48.2667 92.8396 47.3104 91.3782 46.1253C90.7778 45.6358 90.6291 44.5815 90.2696 43.7907C90.0552 43.3208 89.8186 42.8575 89.4301 42.0511C88.1762 46.3845 87.144 50.3624 85.8702 54.2545C83.6155 61.1414 81.0708 67.9384 78.9042 74.8518C76.9525 81.0787 75.4098 87.4298 73.5413 93.686C72.5498 97.0157 71.3282 100.279 70.0621 103.523C69.2984 105.482 67.7249 105.795 66.0558 104.504C65.1995 103.839 64.3641 103.594 63.4521 104.367L63.4596 104.435C63.3272 104.081 63.2796 103.505 63.0428 103.416C60.9638 102.605 60.8872 100.746 60.3537 98.9687C59.7752 97.0277 58.5196 95.3062 57.8462 93.3822C57.1891 91.5077 56.9098 89.5066 56.4251 87.5688C56.2138 86.7291 55.9106 85.9115 55.6247 85.09C54.9647 83.2106 54.3318 81.3216 53.5808 79.4768C53.4358 79.1232 52.7869 78.9712 52.3667 78.7289L52.3618 78.7318L52.8297 77.9407L52.21 77.7714C49.3853 94.7255 46.5607 111.68 43.7312 128.637L43.7457 128.661L43.387 128.874L43.3736 128.83C43.0891 130.701 42.3205 132.354 41.1122 133.81L41.1519 133.799C40.0487 133.799 38.9655 133.282 37.8132 133.851C37.4565 134.024 36.7784 133.646 36.2913 133.424C35.0554 132.86 33.7748 132.342 32.6565 131.59C32.1003 131.218 31.8629 130.368 31.4797 129.736L31.4515 129.766L31.03 128.375L31.0901 128.365C30.5911 127.914 30.2323 127.543 30.0868 126.704C29.9015 125.599 28.9494 124.629 28.3584 123.582C27.781 122.547 27.2472 121.486 26.694 120.436L26.6861 120.5L26.4822 119.761L26.4377 119.774L25.9541 118.742L25.8195 118.77C25.4412 118.135 25.0405 117.507 24.6961 116.851C24.6105 116.686 24.7381 116.426 24.7077 116.22C24.5129 115.056 24.3317 113.87 22.6978 114.016L22.692 114.039L22.8638 113.556L22.9053 113.57C23.1704 112.329 22.6331 111.46 21.6025 110.832L21.617 110.857C21.4565 110.499 21.2979 110.134 21.1345 109.771L21.1838 109.788C21.0199 109.59 20.6676 109.307 20.7162 109.213C21.1107 108.387 20.8333 107.954 20.0507 107.567C19.8169 107.45 19.8275 106.839 19.7261 106.459C19.7981 106.646 19.872 106.826 19.9489 107.01L20.0797 106.932L19.7182 106.49C19.3841 105.632 19.0423 104.772 18.7081 103.913L18.1431 103.869C17.8601 104.97 17.459 106.05 17.3163 107.166C15.9971 117.299 14.7166 127.441 13.4409 137.581C13.2544 139.065 13.2778 140.581 12.9569 142.027C12.8352 142.572 11.9773 143.392 11.5139 143.353C9.53832 143.19 7.54772 142.892 5.65178 142.333C4.93825 142.128 4.288 141.169 3.93522 140.4C3.39687 139.243 3.07954 137.961 2.78728 136.71C2.68793 136.29 2.95658 135.781 3.00762 135.547C2.49001 134.568 2.05513 133.75 1.56444 132.828L0.396227 133.524L0.380655 133.553C0.684045 132.761 0.989393 131.962 1.29763 131.167C1.42265 131.421 1.54282 131.678 1.66299 131.935L1.89391 131.738L1.25019 131.176C1.50852 130.562 1.75911 129.946 2.01744 129.333C1.95422 129.436 1.89874 129.541 1.94741 129.447C1.93741 129.551 1.94649 129.434 1.95555 129.317C2.18863 129.047 2.41686 128.779 2.64994 128.509L2.63427 128.571C1.09665 128.239 1.49368 127.208 1.77447 126.213C1.99397 126.581 2.21059 126.945 2.4272 127.308L2.76609 126.929L1.7656 126.264L2.65791 125.293C1.34962 124.023 2.18362 122.501 2.24707 121.064C2.24614 121.052 2.62353 121.057 2.82578 121.055L2.84146 120.993L3.35489 121.127L3.33829 121.176L3.12456 120.817L3.18645 120.833C3.03148 119.934 2.46302 118.814 2.80365 118.184C3.86453 116.206 2.82487 114.119 3.47835 112.14C4.00293 110.54 3.60419 108.669 5.0396 107.308C5.40841 106.957 5.41548 106.231 5.58945 105.674L5.17884 105.459C4.85016 105.976 4.52149 106.494 4.19281 107.012L4.20942 106.962C4.27393 106.123 4.30266 105.278 4.40008 104.438C4.53533 103.254 4.62128 102.053 4.91609 100.906C5.0454 100.395 5.62821 99.9954 6.00795 99.5524L6.07076 99.5807L5.98 99.5165L5.30335 98.6454C5.67437 97.2618 6.10365 95.8106 6.43722 94.3311C6.56869 93.747 7.89258 93.7201 7.11455 92.7781L7.17551 92.7811C6.23341 92.3244 6.36983 91.7045 6.909 91.022L6.87135 90.9919C8.59461 91.062 7.70094 89.959 7.65769 89.236C8.00607 88.9168 8.35642 88.5898 8.70481 88.2706C8.92334 88.009 9.14188 87.7474 9.36042 87.4859C9.46839 87.3033 9.57441 87.1285 9.42559 87.3748C9.44971 87.0845 9.42971 87.2935 9.41456 87.4996C8.83141 87.3807 8.12117 87.0485 8.27254 88.1734L7.70699 89.2526C6.31549 88.2952 7.64912 87.3035 7.92611 86.5999C8.25477 85.7735 9.39917 85.269 10.476 84.3975C9.6549 84.243 9.24966 84.1692 8.82606 84.0866C9.01406 83.6856 9.22547 83.2247 9.44173 82.7608L9.51199 83.1985L13.2446 82.8267L13.1914 82.8256L15.3177 84.3108L15.341 84.2838L15.1675 84.6761L15.5451 84.6153L15.5257 84.6269C16.4085 85.4802 17.2913 86.3335 18.2176 87.2267C18.9906 85.702 19.8796 86.7421 20.5832 87.3607C21.3784 88.056 21.9921 88.9647 22.6873 89.7787L22.7308 89.7856C22.8818 90.0832 22.9853 90.4222 23.1935 90.6725C23.4654 90.9965 23.9254 91.1953 24.1237 91.5501C25.375 93.7274 26.6049 95.924 27.7642 98.1562C27.9498 98.5119 27.6384 99.0916 27.7318 99.5351C27.8311 99.9883 28.0891 100.432 28.3656 100.819C28.8869 101.54 29.4655 102.213 30.0227 102.906L29.7271 103.358L30.5786 103.067L30.5633 102.997L30.5807 102.994ZM3.26805 130.164L3.28661 130.107C3.28661 130.107 3.26712 130.151 3.26805 130.164ZM4.24341 113.523L4.3053 113.539L4.24341 113.523ZM109.65 12.7883C109.65 12.7883 109.673 12.8271 109.686 12.8261L109.738 12.8476L109.65 12.7883ZM5.41445 104.366L5.4486 104.589C5.42271 104.512 5.39682 104.435 5.37289 104.351C5.42475 104.163 5.47373 103.969 5.52075 103.784C5.61491 103.688 5.70134 103.591 5.55571 103.743C5.51661 103.556 5.54333 103.678 5.56717 103.795L5.41641 104.358L5.41445 104.366ZM111.008 7.05304L111.019 6.99404L111.64 7.48464L111.763 7.20729C111.509 7.15522 111.26 7.10027 111.008 7.05304ZM113.562 7.43636L113.979 7.49668L113.548 7.49051C113.395 7.37779 113.248 7.26218 113.454 7.42152C113.194 7.39265 113.378 7.41451 113.559 7.43151L113.562 7.43636ZM3.26291 123.343L2.63607 123.9L2.87257 124.087C2.99334 123.838 3.11606 123.581 3.21846 123.323C3.19247 123.279 3.17132 123.233 3.14337 123.197C3.12119 123.171 3.08055 123.169 3.04672 123.156L3.27065 123.344L3.26291 123.343ZM3.45597 133.875L4.02807 133.501L3.82642 133.306C3.71937 133.501 3.61428 133.688 3.51982 133.883L3.46082 133.872L3.45597 133.875ZM5.65117 101.026L5.52938 101.296L5.88047 101.356L5.92779 101.071C5.84074 101.058 5.74596 101.042 5.65117 101.026ZM67.7683 104.292L67.5269 104.107C67.4831 104.199 67.3791 104.333 67.41 104.374C67.4677 104.471 67.6002 104.517 67.7064 104.585L67.7683 104.292ZM87.2 8.58807C87.2089 8.53682 87.2352 8.48174 87.2169 8.44007C87.2025 8.41583 87.1338 8.41078 87.0893 8.39129C87.0805 8.44256 87.0542 8.49763 87.0724 8.5393C87.0897 8.56839 87.1536 8.57632 87.2 8.58807ZM6.73135 97.4925L6.73579 97.6212C6.77839 97.6155 6.83738 97.6263 6.851 97.6051C6.86946 97.5809 6.85512 97.5238 6.84945 97.4812L6.7265 97.4954L6.73135 97.4925ZM30.8856 104.861L30.825 104.76L30.7006 104.926C30.7344 104.938 30.7798 104.97 30.8118 104.958C30.8438 104.945 30.8604 104.896 30.8856 104.861ZM42.5335 61.8946L42.4877 61.9941L42.6009 61.9858L42.5335 61.8946ZM88.3405 8.09903L88.1734 7.99497C88.1791 8.03756 88.1731 8.09367 88.1944 8.10728C88.2185 8.12575 88.2727 8.10656 88.3405 8.09903ZM3.90045 114.91L3.80866 114.866L3.81609 114.967L3.90241 114.902L3.90045 114.91ZM7.02786 95.4767L6.94546 95.5258L7.02271 95.5783L7.02786 95.4767Z" fill="#5762C7"/>
</svg>
