<svg width="59" height="27" viewBox="0 0 59 27" fill="none" xmlns="http://www.w3.org/2000/svg">
<path d="M19.7174 21.1334C20.9203 21.09 22.1309 21.0095 23.3319 21.026C24.289 21.0393 25.2417 21.1632 26.1969 21.2364C26.4184 21.2543 26.6591 21.2898 26.8582 21.2167C27.0167 21.1592 27.1224 20.9476 27.3814 20.665C26.898 20.5482 26.6078 20.4321 26.308 20.413C24.7127 20.3172 23.1138 20.2446 21.5188 20.1579C21.2007 20.1396 20.8822 20.1122 20.5681 20.0799C19.4636 19.9581 18.3592 19.8362 17.0883 19.694C17.7959 19.4699 18.3735 19.4263 18.9722 19.4461C19.9209 19.4782 20.8725 19.6803 21.8231 19.3352C22.0993 19.2358 22.4582 19.3443 22.7719 19.3673C23.9198 19.4321 25.0637 19.5109 26.216 19.5709C26.3406 19.5792 26.4671 19.5277 26.6175 19.4981C26.696 18.7681 25.9812 19.0385 25.7061 18.7424L25.6042 17.8823C24.8629 17.5468 24.0798 17.4109 23.2871 17.372C21.7851 17.3089 20.2808 17.2965 18.7853 17.2745C18.1271 17.2619 17.4657 17.2816 16.6244 17.2862C16.8646 16.9952 16.9496 16.8351 17.0784 16.7329C19.6536 14.7302 22.3365 12.8792 25.217 11.3414C26.7359 10.53 28.2939 9.77211 29.8839 9.11395C32.0973 8.19861 34.3258 7.31479 36.5971 6.56707C38.8731 5.82373 41.1963 5.2117 43.5307 4.64517C45.4236 4.18531 47.3434 3.81166 49.2715 3.52501C51.0396 3.25916 52.8273 3.12582 54.6157 3.01083C55.5649 2.94634 56.4354 3.29457 57.1844 3.91025C57.3321 4.02796 57.4754 4.15045 57.6898 4.32043C57.647 4.07857 57.627 3.93688 57.5978 3.7956C57.9354 3.41754 58.1331 3.83658 58.3814 3.94069C58.5137 3.28648 58.183 2.45478 57.583 2.09012C57.2098 1.8627 56.7795 1.69757 56.3556 1.57354C53.6928 0.834598 50.9707 0.525931 48.2071 0.426021C46.314 0.357032 44.4285 0.462462 42.5554 0.640929C40.8747 0.801787 39.2116 1.15502 37.5414 1.44879C35.0772 1.88763 32.6794 2.5811 30.318 3.36956C25.627 4.94048 21.2502 7.17827 17.0895 9.8343C16.1769 10.4169 15.2798 11.0401 14.3767 11.6314C14.1129 11.8039 13.834 11.9449 13.4121 12.1841C13.4991 11.8584 13.519 11.6827 13.5908 11.537C14.6045 9.47848 15.6226 7.41512 16.655 5.36494C16.8876 4.8995 17.1022 4.44404 16.8622 3.79231L15.7645 5.2981C15.7923 4.45992 16.384 3.90059 16.7658 3.1665L16.1311 2.74358C15.3864 3.17163 15.1495 3.95917 14.6831 4.5452C14.4257 4.86457 14.2686 5.26693 14.0539 5.61662C13.9247 5.81542 13.7531 5.99308 13.4534 6.07976L15.4901 2.70262C14.8507 2.69839 14.3969 2.94356 14.0909 3.41222C13.4789 4.34952 12.8525 5.27366 12.3063 6.24488C10.5529 9.3705 8.78947 12.4782 6.43486 15.2116C5.62087 16.1577 4.90228 17.1825 4.13579 18.1633C3.66097 18.7681 3.15182 19.3238 2.49974 19.7662C1.86523 20.1894 1.30458 20.7244 0.73593 21.1816L0.320384 22.6161L0.914422 23.1604L0.32581 23.5816C0.330677 23.9033 0.318389 24.2534 0.338031 24.5974C0.377313 25.2855 0.667532 25.5073 1.33325 25.3771C1.51564 25.3415 1.68765 25.2788 2.1554 25.1434C2.03531 25.3418 1.98824 25.422 1.94595 25.5066C1.90366 25.5913 1.87055 25.6755 1.83306 25.7645L3.27807 26.4187C3.80488 26.2669 4.51251 26.1486 5.13908 25.8591C6.71706 25.1371 8.38018 24.8896 10.0833 24.8198C12.2589 24.7246 14.4289 24.6068 16.6022 24.5623C18.3528 24.5272 20.128 24.3208 21.8652 24.7139C22.873 24.9412 23.8209 24.6376 24.8143 24.5344L25.0561 24.0686L25.9453 23.8963C25.8937 23.4525 25.5732 23.4849 25.3102 23.4642C24.1969 23.3519 23.0841 23.2488 21.9709 23.1365C21.7953 23.1166 21.6221 23.046 21.4081 22.991C21.6048 22.5455 21.9341 22.6093 22.2343 22.6376C23.4109 22.7287 24.5928 22.8334 25.769 22.9153C26.1011 22.9376 26.4396 22.8952 26.7429 22.8911C26.884 22.3331 26.593 22.1987 26.255 22.1445C25.7177 22.0576 25.1809 21.9799 24.6412 21.9437C23.4606 21.8665 22.2811 21.8169 21.0873 21.7542L19.7321 21.1558L19.5597 21.1035L19.7305 21.1191L19.7174 21.1334ZM44.6897 1.28341C44.6442 1.2946 44.594 1.30139 44.5485 1.31258L44.5556 1.16051C44.5209 1.10225 44.4734 1.06753 44.4127 1.04719L44.3249 1.03723L44.4143 1.08391L45.0772 0.889373L45.6188 0.865693L45.7741 0.840511L45.7486 0.993383L46.0507 1.17332L46.8582 1.12882L47.13 1.13993C47.7638 1.12141 48.4068 0.996731 49.0283 1.32826L47.1408 1.28202L46.8654 1.29406L46.0524 1.31581L45.5052 1.31674L45.2326 1.28727C45.1451 1.28649 45.0529 1.28133 44.9611 1.28534L44.6945 1.2878L44.6897 1.28341ZM46.111 2.86761L46.3828 2.87872L46.7847 2.70939L47.0533 2.64706L48.269 2.47434L48.5416 2.50381L48.6235 2.48184L48.54 2.46709L48.2714 2.52942L47.0565 2.7205L46.7839 2.69103L46.3816 2.85118L46.111 2.86761L45.8392 2.8565L45.5679 3.17188L46.2584 3.29345L46.5478 3.2854L46.9313 3.11687L47.2111 3.10004L47.4873 3.10636L47.5787 3.09316L47.4857 3.06964L47.2095 3.06332L46.9341 3.07536L46.5462 3.24868L46.2568 3.25673L45.3221 3.44016L45.174 3.41904L45.3233 3.4677L45.6094 3.17466L45.1954 2.85706L45.8364 2.89801L46.107 2.88158L46.111 2.86761ZM35.3769 3.16677L34.9846 3.34488L34.7088 3.34774C34.4035 3.62321 34.0503 3.74903 33.6376 3.6705L33.2397 3.82586L33.0824 3.80514L33.2413 3.86258L33.6388 3.69804C33.9385 3.39981 34.3025 3.31032 34.7104 3.38446L34.9818 3.38639L35.3693 3.20389L35.4244 3.20148L35.3677 3.16717L35.3769 3.16677ZM33.2132 3.32575L33.6095 3.13367L34.2828 2.96627L35.6262 2.55804C36.2137 2.42658 36.792 2.29553 37.3795 2.16407L37.6505 2.15682L38.048 1.99228L38.1354 1.99306L38.0512 1.95995C37.9203 2.01626 37.785 2.07736 37.6541 2.13367L37.3835 2.1501L35.6462 2.69972L34.2924 2.97505L33.6191 3.14245L33.216 3.28424L32.9442 3.27313L32.5563 3.44645L32.4924 3.45844L32.5527 3.4696L32.9366 3.31025L33.2084 3.32136L33.2132 3.32575ZM38.6835 4.1167L38.2864 4.29042C38.0929 4.38625 37.9101 4.51841 37.7014 4.58272C35.5837 5.26854 33.4561 5.93641 31.3433 6.62662C30.2641 6.97731 29.1862 7.35555 28.1078 7.72461C28.0364 7.77372 27.9558 7.82323 28.0631 7.75416C27.9478 7.74541 28.0308 7.75097 28.1138 7.75654C28.2607 7.64435 28.3924 7.50063 28.5592 7.42436C31.0586 6.21598 33.7107 5.44701 36.3627 4.67804C36.9893 4.49429 37.649 4.43785 38.2924 4.32235L38.6899 4.15781C38.735 4.13744 38.7757 4.12187 38.735 4.13744C38.7817 4.15379 38.735 4.13744 38.6835 4.1167ZM33.2256 6.44775L33.6095 6.2884L33.6079 6.25168L33.2236 6.40185L32.8169 6.56679C32.6872 6.65064 32.5679 6.76162 32.4326 6.82272C30.5365 7.63222 28.6357 8.43733 26.7348 9.24244C25.9175 9.58629 25.1089 9.92056 24.2868 10.26L23.7544 10.4948C23.6782 10.5396 23.6067 10.5887 23.6917 10.5344C23.5999 10.5384 23.6826 10.5348 23.756 10.5316L24.278 10.1638C24.4292 10.0468 24.5561 9.89874 24.7225 9.81329C26.7562 8.78623 28.7999 7.77713 30.9567 7.03901C31.5501 6.83372 32.1308 6.44043 32.8225 6.58954L33.23 6.44296L33.2256 6.44775ZM14.9299 5.03568C14.906 5.1195 14.8868 5.20771 14.9103 5.11471C14.8585 5.19056 14.9103 5.11471 14.9622 5.03886C14.8643 4.69364 15.115 4.53552 15.3277 4.35147C15.3247 3.86413 15.6284 3.55194 16.0363 3.30877L15.3045 4.34788C15.412 4.70189 15.0815 4.8221 14.9299 5.03568ZM15.0084 12.9329C15.2028 12.7496 15.3037 12.4279 15.6653 12.4948L16.7894 11.5949C16.38 12.1187 16.2148 12.2317 15.6641 12.4673C15.4797 12.6685 15.374 12.9858 15.0072 12.9053L14.4366 13.5281C14.6057 13.0838 14.7123 12.8906 15.0132 12.9372L15.0084 12.9329ZM24.0324 7.912C24.603 7.39498 25.3094 7.14336 26.0158 6.89173C26.0872 6.84263 26.1543 6.7983 26.0872 6.84262C26.1603 6.83023 26.0872 6.84262 26.0142 6.85502C25.4791 7.44865 24.8274 7.79446 24.0311 7.88446C23.9645 7.93796 23.9023 7.98667 23.9777 7.92358C23.8771 7.93718 23.9549 7.92918 24.0324 7.912ZM21.8852 8.55312C22.4654 8.04489 23.0764 7.60889 23.8782 7.54164L24.2134 7.21427L24.2825 7.32162L23.8766 7.50492C23.2461 7.91418 22.6754 8.43119 21.8884 8.52079L21.534 8.8306L21.4641 8.70489L21.8896 8.54833L21.8852 8.55312ZM11.5348 11.3188L11.925 10.566L12.0906 10.6737L11.5025 11.3156C11.2185 12.1834 10.5809 13.062 9.80591 13.5328L11.5392 11.314L11.5348 11.3188ZM11.9909 9.12827L11.9833 9.05962L11.959 9.13427C11.653 9.81446 11.3945 10.5294 11.0323 11.1844C10.538 12.0798 9.97341 12.946 9.24198 13.677C9.43744 13.204 9.67082 12.7569 9.94212 12.3358C10.6172 11.2624 11.3066 10.2021 11.9913 9.13746L11.9909 9.12827ZM18.7194 13.9801C18.0486 14.7314 14.8534 17.0647 14.1837 17.2089C14.9774 16.535 15.7902 15.8786 16.647 15.2801C17.3119 14.8142 18.0306 14.4241 18.725 14.0028L19.0303 13.7273L19.0989 13.8255L18.7282 13.9705L18.7194 13.9801ZM18.2468 21.8921C16.042 22.1633 11.8049 22.3348 11.1942 22.1453C11.4288 22.0431 11.5845 21.9213 11.7449 21.9097C13.7138 21.819 15.6923 21.7371 17.6672 21.6784C17.8556 21.6747 18.0512 21.8363 18.248 21.9197L18.2511 21.8874L18.2468 21.8921ZM21.203 11.5675C21.0977 11.6825 21.0027 11.8246 20.8778 11.9128C18.511 13.6305 16.1394 15.3437 13.7629 17.0526C13.5802 17.1847 13.3679 17.2722 13.1703 17.382C13.3343 17.0299 13.5713 16.7712 13.8379 16.5572C14.3355 16.1584 14.8527 15.7863 15.3507 15.3966C16.9341 14.1685 18.522 12.9356 20.2871 11.9709C20.5744 11.8111 20.9017 11.7233 21.2138 11.6038C21.2892 11.5408 21.3555 11.4781 21.2533 11.5607C21.381 11.5367 21.2944 11.5543 21.2078 11.5719L21.203 11.5675ZM0.955815 24.3175C1.35802 23.84 1.56427 23.4033 2.25038 23.4239C1.89605 23.8395 1.70378 24.2802 0.955815 24.3175ZM2.66989 23.5527C2.74122 23.0805 2.96708 22.8821 3.45044 22.8932C3.34956 23.3207 3.21073 23.6165 2.66989 23.5527ZM2.76818 22.3298C2.88837 21.9934 3.08683 21.8345 3.36357 21.8531C3.2946 22.1688 3.12221 22.3281 2.76818 22.3298ZM3.96711 22.0888C3.96199 21.8315 4.07279 21.7362 4.29952 21.8029L3.96711 22.0888ZM11.2655 13.2575L11.2032 13.2004L11.5412 12.8315L11.6034 12.8886L11.2655 13.2575Z" fill="#C2CC00"/>
</svg>
