<svg width="63" height="34" viewBox="0 0 63 34" fill="none" xmlns="http://www.w3.org/2000/svg">
<path d="M36.2902 1.46889C36.3611 1.8108 36.8148 2.08823 36.5095 2.55597L36.2797 2.3701C36.1027 2.77289 35.7477 2.93635 35.396 3.04121C34.9488 3.51722 34.5408 3.9924 34.0888 4.42155C33.615 4.87132 33.0988 5.27698 32.5881 5.7132L32.3025 5.46022C32.3458 6.2761 31.8727 6.76961 31.3881 7.19792L31.697 7.79833C31.773 7.79833 31.8487 7.79833 31.9685 7.79833C32.0066 7.60035 32.0464 7.39314 32.0975 7.12721C32.644 7.20942 32.9379 6.85421 33.2235 6.43009L32.9627 6.06014C33.5425 5.94636 34.0573 5.61726 34.4031 5.1394C35.185 4.09953 36.2671 3.36047 37.3431 2.64094C37.5225 2.5211 37.7797 2.51619 38.2093 2.40342L37.3944 1.93304L36.9936 2.47233C36.8351 2.02891 36.7193 1.70402 36.6033 1.37961L37.8089 0.741333L38.0659 0.943266C38.893 0.37306 39.9176 0.393433 40.903 0.158424L41.3917 0.408413V0.918938L41.9126 1.0057C41.8031 0.719881 41.7357 0.543833 41.6662 0.362273C41.7281 0.300675 41.8087 0.220262 41.8865 0.142604C42.4503 0.12295 42.5307 0.670866 42.9121 1.01038C42.9528 0.772372 42.9849 0.583861 43.0296 0.321767C43.6881 0.188024 44.1914 0.700706 44.7841 0.794183C44.8081 1.01972 44.8275 1.19889 44.8707 1.60335C45.0445 1.26852 45.1418 1.08084 45.1823 1.00295H46.1818C46.0983 1.14903 46.0411 1.2491 45.9174 1.46506L46.6101 1.29596C46.5095 1.27199 46.568 1.27367 46.6138 1.2986C47.3888 1.72056 48.1881 2.10561 48.9298 2.5791C49.9395 3.21257 50.8392 4.00561 51.5935 4.92716C52.2235 5.70949 52.6991 6.61381 53.3771 7.36989C53.5139 7.52209 53.5749 7.74212 53.6767 7.94249C53.6519 7.96718 53.5981 8.02063 53.4751 8.14263C53.6512 8.21664 53.806 8.33355 53.9251 8.48264C54.0442 8.63173 54.1239 8.80825 54.1569 8.99602C54.4522 10.2701 54.4445 10.2719 54.2139 10.7711L54.6891 11.9826L54.092 12.28L54.3376 12.6673C54.1679 13.578 54.0112 14.419 53.8518 15.2743L53.2671 15.3386C53.3137 16.1023 52.7913 16.5778 52.2068 17.1327L52.8437 17.4866L52.4509 18.1118L52.2889 17.6368C52.0995 17.7152 51.825 17.7441 51.7009 17.8955C51.2952 18.3999 50.9174 18.926 50.5693 19.4715C50.4799 19.6088 50.5078 19.8223 50.501 19.8678C50.0969 20.2263 49.6491 20.455 49.4686 20.8159C48.9759 21.8015 48.0289 22.2134 47.2134 22.7964C46.9745 22.9504 46.7278 23.0922 46.4744 23.2212C46.4384 23.1208 46.3903 22.9893 46.3396 22.8485C46.2867 22.8725 46.1877 22.9 46.189 22.9204C46.2082 23.2363 46.202 23.5353 45.725 23.7077H45.0614L44.2553 24.6844L43.5463 24.4784C43.1757 25.2667 42.3259 25.445 41.5595 25.7795L41.2802 25.5567L40.5754 26.2247H39.6741C39.4768 26.6299 39.2488 26.967 38.7184 26.7256L37.5993 27.4828L39.8308 28.7448L40.0969 28.555L40.9392 28.8217V29.0702C40.9967 29.0884 41.0886 29.1326 41.0986 29.1181C41.295 28.8434 41.5872 28.9384 41.8294 28.9609C42.1441 28.9899 42.4485 29.1175 42.7628 29.1721C43.0512 29.222 43.3797 29.1601 43.632 29.2759C43.9778 29.4339 44.1926 29.1238 44.5124 29.1355C44.868 29.1487 45.1877 29.3963 45.5966 29.2266C45.9204 29.0921 46.3394 29.1735 46.7157 29.1787C47.8881 29.1957 48.9964 28.8791 50.1078 28.5623C50.7899 28.3681 51.5008 28.2627 52.167 28.0279C53.2312 27.6686 54.2735 27.2478 55.2886 26.7675C55.7604 26.5364 56.3742 26.5757 56.7125 26.0695C56.8165 25.9137 57.1982 26.0755 57.1483 25.688C57.14 25.6238 57.4355 25.5399 57.565 25.434C57.7404 25.2902 57.8812 25.1054 58.0543 24.9584C58.3801 24.6818 58.7181 24.4199 59.1325 24.0862V24.9786C58.6913 25.2263 58.6913 25.2263 58.2773 26.1781H58.8427C59.0886 25.5189 59.775 25.1863 60.188 24.6054L60.4951 24.9308L60.1003 25.7351C60.2289 25.7277 60.4096 25.7711 60.4756 25.7034C60.6632 25.511 60.8039 25.2733 61.0687 24.9075C61.1613 25.2325 61.2129 25.4135 61.2757 25.6345L62.0399 26.1505L61.0717 26.532C61.13 26.7237 61.1977 26.9461 61.2804 27.2181L60.4332 27.8293L61.0116 28.1514L60.4417 28.6932L59.8367 28.3551C59.9243 28.7015 59.9698 28.8815 60.0119 29.0484L59.6619 29.2865C59.6568 29.2616 59.6353 29.1579 59.5961 28.9694L58.4828 29.7146C58.5748 29.816 58.647 29.8952 58.6194 29.8649L58.0648 30.6319L57.69 30.3216C57.5661 30.5373 57.442 30.753 57.315 30.9737H56.6931C56.0944 31.3677 55.5791 31.7654 55.0106 32.0629C54.5033 32.3286 53.8266 32.1256 53.3209 32.6205L52.8547 32.1269L52.1684 32.1748L52.8451 32.4901C52.1074 32.8545 51.5279 33.6036 50.5808 33.0893L50.1843 33.4848L49.8959 33.2419C49.4475 33.5634 48.9417 33.6305 48.4191 33.2353L47.8204 33.7637L47.1666 33.5607C47.1136 33.5911 46.9931 33.7165 46.8804 33.7104C46.7559 33.703 46.6466 33.535 46.516 33.5081C46.3275 33.486 46.1372 33.4828 45.9481 33.4986C45.797 33.5142 45.6446 33.5114 45.4942 33.4903C45.362 33.4563 45.2473 33.3531 45.0637 33.2439C44.4436 33.9497 43.8626 33.0491 43.0185 33.3039L43.637 32.441C43.4319 32.2506 42.9797 32.5052 42.5874 33.0482L42.5098 32.6854C42.1546 32.3462 41.8693 32.7979 41.5273 32.8232L41.0466 32.3702L40.7809 32.6034C40.7454 32.4753 40.7173 32.3736 40.669 32.1995C39.9165 31.9804 39.1068 31.7503 38.3113 31.4805C38.1705 31.4419 38.0418 31.3682 37.9374 31.2664C37.8329 31.1646 37.7561 31.038 37.7142 30.8985C37.3996 30.8926 37.0405 30.997 36.8405 30.8638C35.732 30.1248 34.6646 29.3245 33.5763 28.5548C33.406 28.4349 33.1969 28.37 33.0135 28.2662C32.7946 28.1423 32.584 28.0037 32.3432 27.8553C32.3163 27.9391 32.2763 28.0631 32.209 28.2723C31.6277 28.2039 31.001 28.4432 30.4225 28.0378L29.6516 28.4378C28.9797 27.9668 28.0815 28.5696 27.4178 28.1109L26.6727 28.3238C26.611 28.1441 26.5655 28.0115 26.5171 27.8702C26.0845 28.1219 25.704 28.0035 25.2421 27.8512C24.806 27.7074 24.3083 27.7539 23.9562 27.3689C23.9019 27.4151 23.8481 27.4611 23.736 27.5577L23.4251 27.3281L23.0886 27.4939C22.5905 27.3741 22.0766 27.2847 21.5864 27.1243C20.584 26.7966 19.4981 26.7347 18.579 26.1243C18.2695 25.9186 17.8529 25.8594 17.4764 25.7701C15.2693 25.2468 13.3635 24.1053 11.4874 22.8968C10.427 22.2223 9.45998 21.4121 8.61091 20.4868C8.33319 20.1816 8.05811 19.8329 7.70517 19.6479C7.32133 19.4463 7.26233 19.0385 6.94664 18.7952C6.09341 18.1374 5.59001 17.1667 4.93591 16.3332C4.31115 15.5088 3.74393 14.6426 3.23823 13.7407C2.68988 12.7997 2.09659 11.8559 1.74809 10.8367C1.41966 9.87578 0.896545 8.9681 0.791995 7.92955C0.779377 7.80312 0.585538 7.68987 0.583015 7.56799C0.568594 6.87471 0.208436 6.26399 0.127921 5.5954C0.0695167 5.1098 0.116504 4.6115 0.116504 4.03434L0.788509 3.45479L1.91417 3.78243C1.94781 3.93235 1.97101 4.03542 1.996 4.14627H2.44389C2.65539 4.41903 2.89201 4.64961 3.03358 4.92752C3.18858 5.20669 3.27807 5.51728 3.29531 5.83592C3.29531 6.95129 3.93223 7.85393 4.27916 8.84694C4.53153 9.56839 4.88712 10.2596 5.14849 10.988C5.28909 11.3798 5.58111 11.7191 5.8187 12.0742C6.35382 12.8742 6.80027 13.7302 7.39151 14.496C7.71778 14.9187 7.94635 15.42 8.29209 15.8235C9.04353 16.7 9.80723 17.5714 10.6282 18.382C12.3593 20.0911 14.4523 21.2769 16.6291 22.3144C17.1 22.5388 17.6477 22.6125 18.1673 22.7252C18.8604 22.8755 19.4595 23.3042 20.179 23.374C21.2179 23.4749 22.1812 23.9599 23.2467 23.9581C23.6331 23.9581 24.0181 24.1067 24.4065 24.1707C24.7949 24.2347 25.2055 24.0526 25.5852 24.3781C25.7146 24.489 26.0793 24.3661 26.3221 24.2991C27.0233 24.1043 27.5351 24.12 28.2264 24.4007L28.6275 24.1259C28.7356 24.2139 28.8491 24.2975 28.9519 24.392C29.0345 24.4675 29.1049 24.5561 29.152 24.6077L29.7553 23.9623C29.5582 23.5505 29.3001 23.0558 29.0823 22.544C28.8632 22.0287 28.7098 21.4844 28.4815 20.9741C28.2377 20.4492 28.0675 19.8933 27.9759 19.3221L27.7097 19.0566C27.7097 18.6319 27.7283 18.1797 27.7033 17.73C27.6858 17.4118 27.8329 17.0662 27.5087 16.7795C27.4125 16.6948 27.4141 16.3791 27.494 16.2394C27.8545 15.6089 27.6476 14.9331 27.7126 14.2806C27.7703 13.7023 27.8557 13.1279 28.3984 12.7024C28.346 12.2072 28.4391 11.7075 28.6665 11.2643C28.83 10.9596 28.8022 10.5144 29.0217 10.2877C29.3061 9.99394 29.1985 9.65252 29.3278 9.38C29.6013 8.80236 29.6844 8.05443 30.5483 7.86795L30.2147 7.43017L30.8922 6.94409C30.9425 6.81467 31.0679 6.49193 31.2627 5.99064C31.6563 5.52841 32.0907 4.78311 32.7328 4.33107C33.3643 3.88646 33.7783 3.26927 34.3537 2.80752C34.9634 2.31725 35.6421 1.91135 36.2902 1.46889ZM46.0268 4.84003C45.7787 4.48506 45.5877 4.21147 45.4019 3.94662L44.9837 4.50005C44.8595 4.2443 44.7849 4.09079 44.6992 3.9145C44.618 4.08743 44.5459 4.24119 44.4782 4.38512H44.1898C44.1538 4.18139 44.1177 3.97334 44.0743 3.72683H43.1026C42.75 3.05751 42.314 2.82214 42.0923 3.14272C42.1636 3.23044 42.268 3.30738 42.2925 3.40445C42.3151 3.49374 42.2519 3.60471 42.1988 3.81635C41.919 3.59728 41.7153 3.39091 41.4704 3.26436C41.3314 3.19245 41.1246 3.25141 40.875 3.25141L41.1874 3.6747C40.7123 4.25089 40.7119 4.25209 40.1761 3.95884C39.9692 4.06118 39.7005 4.10816 39.6141 4.25844C39.5069 4.44576 39.5383 4.70533 39.2268 4.60287C39.1187 4.42814 39.0201 4.26815 38.8703 4.02535C38.4911 4.52222 38.188 4.91937 37.8848 5.31617L37.5833 5.05252L37.1747 5.71392L36.3794 6.08327L36.5938 6.35208L35.2297 6.75546L35.4261 6.97118C35.2249 7.47955 35.031 7.96946 34.7969 8.56112C35.6878 8.25648 35.8047 7.37756 36.4065 6.95284C37.0083 6.52812 37.545 6.0152 38.1705 5.49078V6.00094C37.7575 6.37149 37.4705 6.72802 37.0996 6.93475C36.7098 7.15202 36.605 7.6206 36.2248 7.79209C35.797 7.9848 35.7283 8.43085 35.4604 8.73069C35.0157 9.22792 34.8667 10.001 34.1108 10.1714C34.0319 10.8099 33.8594 11.3818 33.3882 11.8499V12.7239L32.9676 12.8778C33.1789 13.1654 33.339 13.4346 33.0337 13.75C32.8335 13.9605 32.6824 14.2126 32.5913 14.4881C32.5002 14.7637 32.4713 15.0559 32.5066 15.3439C32.5457 15.8006 32.3452 16.1912 32.2761 16.615C32.2241 16.9333 32.3466 17.2861 32.046 17.5482C32.022 17.5689 32.0762 17.6785 32.0941 17.7467L32.4889 17.8861C32.4015 18.0021 32.33 18.1292 32.2763 18.264C32.2464 18.413 32.2454 18.5663 32.2731 18.7157C32.2955 18.8639 32.3865 19.005 32.3933 19.1518C32.3994 19.279 32.265 19.437 32.3055 19.5353C32.5402 20.1013 32.6338 20.6909 32.7508 21.2883C32.902 22.0166 33.2407 22.6931 33.7336 23.2512C34.5862 23.1287 35.1983 22.6866 35.9535 22.538C36.7556 22.3801 37.4715 21.827 38.2528 21.5158C39.7331 20.9261 40.9216 19.7837 42.4721 19.3298C42.5894 19.2955 42.6643 19.1152 42.7577 19.0024C42.8231 18.8975 42.9036 18.8028 42.9967 18.7213C44.2989 17.878 45.4915 16.8773 46.5472 15.742C47.1276 15.1341 47.5745 14.4421 48.0117 13.7334C48.2541 13.3405 48.358 12.8547 48.6528 12.5281C49.1787 11.9454 49.2212 11.2149 49.3425 10.5401C49.4747 9.80639 49.4307 9.02502 49.3564 8.27506C49.2635 7.49988 48.9643 6.76361 48.4898 6.14259C48.3531 5.9554 48.0452 5.89967 47.8804 5.72315C47.7157 5.54662 47.6317 5.29699 47.4959 5.0488L47.2083 5.28321L46.7378 4.83908L46.0268 4.84003Z" fill="#F1F192"/>
</svg>
