<svg width="69" height="25" viewBox="0 0 69 25" fill="none" xmlns="http://www.w3.org/2000/svg">
<path d="M18.3411 12.1458C17.9198 12.8844 17.4956 13.6244 17.0743 14.363L17.1883 14.4879C17.4439 14.3843 17.7209 14.3159 17.9517 14.1734C19.2981 13.3505 20.6359 12.5106 21.9773 11.6743C23.7225 10.5856 25.4521 9.4659 27.2185 8.41254C28.0545 7.91492 28.9705 7.55215 29.8348 7.09688C30.0918 6.96073 30.2722 6.67912 30.5271 6.5352C31.2671 6.12114 32.0347 5.75863 32.7761 5.3474C33.2838 5.06592 33.7411 4.68771 34.2615 4.43871C34.9211 4.12516 35.6093 4.02359 36.1787 4.67139L36.1829 4.65867C36.2375 4.77094 36.264 4.93981 36.351 4.98277C36.7824 5.18697 36.7548 5.54041 36.6975 5.91226L36.6975 5.89813L36.7655 6.01957L36.8439 5.94664L36.8396 5.95937C36.8528 6.61593 36.8702 7.27389 36.8883 7.92974C36.8297 7.94327 36.7718 7.95468 36.853 7.93687C36.798 8.0034 36.8375 7.95527 36.877 7.90714C37.5863 8.93565 37.1059 9.8878 36.7182 10.8659C36.4276 11.6008 36.2396 12.3743 35.9681 13.1155C35.8288 13.5002 35.6019 13.8512 35.4287 14.2246C35.3125 14.4757 35.2211 14.7374 35.0543 15.1554C35.9746 14.7799 36.7295 14.4697 37.4902 14.1637C38.9981 13.5568 40.5166 12.9746 42.0103 12.3394C44.1749 11.4203 46.3317 10.4822 48.4757 9.51862C49.898 8.87861 51.2983 8.19129 52.7014 7.50962C53.9838 6.88682 55.2534 6.2386 56.5344 5.61297C57.1805 5.29732 57.8173 4.88911 58.504 4.7423C59.2233 4.58979 59.65 4.09077 60.1935 3.72936L60.1738 3.73929C60.2694 3.87694 60.4155 4.14667 60.4508 4.13247C61.2722 3.82075 61.7438 4.31607 62.2565 4.87916L62.6574 4.59292C62.7164 4.78435 62.7776 4.98355 62.8387 5.18275C62.7709 5.2168 62.7031 5.25084 62.6353 5.28488C62.617 5.29057 62.5951 5.29273 62.5802 5.30194C62.5711 5.30832 62.5732 5.33023 62.5704 5.34578C62.5887 5.31889 62.6092 5.2927 62.6275 5.26582C62.6953 5.23177 62.7631 5.19773 62.8316 5.16156L62.9661 5.30974L62.976 5.30125C62.8766 5.45196 62.7772 5.60268 62.6779 5.75339L62.68 5.76116C62.6133 6.04045 62.546 6.32186 62.4772 6.60045L62.5012 6.59899L62.407 6.88328L62.395 6.85574C62.2984 6.99797 62.2011 7.14232 62.0524 7.3638L62.9906 7.55226C62.6149 8.1247 62.2554 8.67661 61.8945 9.22569L61.9001 9.20872L61.9171 9.21434C61.7805 9.51284 61.6439 9.81133 61.5081 10.1077C61.5088 10.1056 61.4882 10.0682 61.4882 10.0682L61.5038 10.0922C63.0563 9.54946 64.6109 9.00746 66.1627 8.46688L66.108 8.31219L66.8444 8.67629C66.7677 8.42482 66.725 8.28354 66.6404 8.013C67.0907 8.06097 67.4844 8.10198 67.9213 8.14786C68.0136 7.99715 68.1243 7.81249 68.2377 7.62641L68.4692 7.83026L68.484 7.82105C68.3889 7.98024 68.2938 8.13943 68.1352 8.40474L67.3188 8.37438L67.2957 8.50093L67.807 8.67035L67.8112 8.65763L67.9661 8.70895L67.9619 8.72168C68.6241 9.07531 68.783 9.41286 68.4161 10.1789C68.1217 10.7901 68.2051 11.1568 68.7281 11.5749C68.9213 11.7308 68.8677 12.191 68.9269 12.5096L68.9411 12.4955C67.5945 13.17 66.2805 13.9236 64.8913 14.4992C62.1758 15.6242 59.3928 16.5903 56.6894 17.7429C55.4662 18.2652 54.2186 18.5982 52.9399 18.869C52.2588 19.013 51.5363 18.5216 51.422 17.8363C51.297 17.0979 51.1565 16.3568 51.1326 15.6119C51.1236 15.3052 51.4007 14.9873 51.5444 14.6747C51.6296 14.4887 51.707 14.2977 51.8478 13.9724C50.2249 14.7201 48.766 15.4422 47.2702 16.0696C44.6232 17.1797 41.928 18.1795 39.2959 19.3228C36.9251 20.3525 34.6231 21.5368 32.2651 22.599C31.0109 23.1652 29.7169 23.6453 28.4173 24.1069C27.6326 24.3861 27.1308 23.9961 27.0848 23.1615C27.0621 22.7326 26.9188 22.419 26.4508 22.3463L26.4325 22.3661C26.5043 22.2346 26.6645 22.071 26.6297 21.9771C26.3335 21.1443 26.8705 20.6395 27.2644 20.0189C27.6958 19.3425 27.8859 18.5202 28.2875 17.8198C28.6786 17.1371 29.2054 16.5347 29.6602 15.8872C29.8569 15.6063 30.0231 15.3035 30.195 15.0049C30.5868 14.3201 30.9885 13.6409 31.3463 12.9377C31.4146 12.8026 31.2919 12.5689 31.2555 12.3803L31.2534 12.3796L31.6116 12.3146L31.5017 12.0851C25.6919 15.6341 19.8822 19.1831 14.0704 22.7314L14.0669 22.742L13.9099 22.69L13.9198 22.6744C13.2858 23.0742 12.5914 23.2726 11.8423 23.288L11.8557 23.2972C11.5696 22.9669 11.4437 22.5085 10.9748 22.3107C10.8305 22.2488 10.7677 21.9478 10.708 21.7443C10.5566 21.228 10.3797 20.7102 10.3151 20.1803C10.2821 19.9174 10.4753 19.6259 10.5653 19.3473L10.549 19.3466L10.8563 18.8598L10.8747 18.8753C10.8806 18.6088 10.8986 18.4053 11.1123 18.1441C11.3951 17.8022 11.4387 17.2657 11.599 16.8173C11.7594 16.376 11.9389 15.9411 12.1098 15.5033L12.0887 15.5174L12.2571 15.2648L12.2416 15.255L12.4253 14.8426L12.3821 14.8095C12.4742 14.5315 12.5585 14.2487 12.6655 13.9757C12.6929 13.9071 12.8038 13.8779 12.8574 13.8156C13.1558 13.4553 13.464 13.0936 12.9967 12.6421L12.9883 12.6464L13.1775 12.5726L13.1839 12.5888C13.6245 12.3463 13.7454 11.9602 13.6661 11.4889L13.6626 11.4995C13.7281 11.3588 13.7964 11.2166 13.8626 11.0737L13.8704 11.0928C13.8872 10.9924 13.8805 10.8136 13.9215 10.8036C14.2711 10.7076 14.3288 10.5124 14.2419 10.1776C14.2163 10.0773 14.4019 9.92216 14.4893 9.79337C14.452 9.86341 14.4175 9.93202 14.3823 10.0028L14.4396 10.0217L14.478 9.79904C14.6485 9.47646 14.8176 9.15105 14.988 8.82847L14.8548 8.64777C14.4516 8.84849 14.0243 9.00827 13.653 9.25488C10.2765 11.4864 6.90705 13.7321 3.53975 15.9785C3.04701 16.3073 2.59892 16.7074 2.08276 16.9861C1.88788 17.091 1.41993 17.0466 1.31153 16.8977C0.848189 16.2638 0.42153 15.5903 0.0972828 14.8778C-0.0261646 14.6108 0.092498 14.1675 0.231193 13.8626C0.438169 13.4014 0.739911 12.974 1.03885 12.5621C1.13897 12.4234 1.3608 12.3722 1.44412 12.3268C1.60313 11.918 1.7354 11.5757 1.88455 11.1895L1.37326 11.0201L1.36054 11.023C1.67627 10.9086 1.99481 10.7928 2.31266 10.6792C2.26902 10.7825 2.22326 10.885 2.1775 10.9876L2.29627 11.0058L2.29779 10.6672C2.54855 10.5855 2.79789 10.501 3.04865 10.4192C3.00131 10.4271 2.95539 10.4378 2.99636 10.4278C2.96248 10.4519 2.99989 10.4243 3.0373 10.3966C3.17865 10.3964 3.31788 10.3954 3.45923 10.3952L3.43664 10.4065C3.13742 9.86003 3.5492 9.71159 3.91995 9.53777C3.86652 9.69901 3.81379 9.85813 3.76106 10.0172L3.96249 10.0204L3.90229 9.54841L4.42462 9.56374C4.46576 8.84277 5.13763 8.69811 5.58439 8.34465C5.58792 8.34111 5.68424 8.45544 5.73735 8.51542L5.75995 8.50407L5.85287 8.69261L5.8338 8.70042L5.88582 8.54343L5.89717 8.56602C6.12638 8.28645 6.31427 7.82602 6.59121 7.76474C7.45878 7.56956 7.81419 6.71729 8.57623 6.40002C9.19137 6.14238 9.64828 5.538 10.428 5.61507C10.6287 5.63451 10.8482 5.44824 11.0601 5.35599L11.0181 5.17725C10.7778 5.21302 10.5376 5.24878 10.2974 5.28454L10.3164 5.27673C10.5846 5.07836 10.8451 4.868 11.1218 4.67951C11.5115 4.41308 11.8933 4.12758 12.3135 3.91835C12.4999 3.82472 12.7707 3.89563 13.0018 3.89452L13.0096 3.92065L13.0053 3.87684L13.0908 3.44839C13.6013 3.20083 14.1472 2.95321 14.6768 2.66957C14.8858 2.55753 15.237 2.94705 15.3175 2.46984L15.3324 2.4889C15.2249 2.08835 15.4459 1.96852 15.7901 1.95307L15.7894 1.93399C16.2151 2.46826 16.3137 1.91469 16.5191 1.71431C16.705 1.73589 16.8937 1.75606 17.0796 1.77764C17.2146 1.77528 17.3496 1.77292 17.4846 1.77056C17.5673 1.75558 17.6471 1.74201 17.5348 1.76129C17.6279 1.69328 17.5602 1.74145 17.4945 1.79034C17.379 1.58487 17.2943 1.28606 16.9967 1.623L16.5269 1.73338C16.4529 1.06845 17.0956 1.21079 17.3781 1.11134C17.7108 0.995553 18.1586 1.2075 18.6987 1.30408C18.5321 1.01814 18.4492 0.877636 18.3641 0.729365C18.5329 0.681715 18.7258 0.62554 18.9207 0.570069L18.8079 0.704553L19.8868 1.72605L19.8734 1.70981L19.9798 2.73161L19.9939 2.73158L19.8314 2.78134L19.9475 2.87867L19.939 2.87586C19.9123 3.36145 19.8856 3.84705 19.8582 4.35596C20.5152 4.19225 20.4342 4.72812 20.4313 5.09918C20.4292 5.51758 20.3162 5.93689 20.2526 6.35612L20.2618 6.37094C20.2118 6.4933 20.1371 6.61217 20.1162 6.73942C20.0896 6.90485 20.1493 7.09416 20.0944 7.2455C19.7667 8.18466 19.4277 9.12243 19.0597 10.0482C19.0013 10.196 18.747 10.253 18.6384 10.396C18.5284 10.5432 18.4623 10.7356 18.4181 10.9187C18.3374 11.2616 18.2857 11.6094 18.2227 11.9559L18.0108 11.9845L18.3185 12.1642L18.3354 12.1415L18.3411 12.1458ZM3.1239 11.0092L3.14579 11C3.14579 11 3.12742 11.0057 3.1239 11.0092ZM8.36029 6.98772L8.37164 7.01032L8.36029 6.98772ZM65.8531 12.4423C65.8531 12.4423 65.8475 12.4592 65.851 12.4628L65.8581 12.484L65.8531 12.4423ZM11.4064 4.96454L11.3486 5.03249C11.3648 5.0049 11.381 4.97731 11.4 4.9483C11.4699 4.91496 11.5405 4.87949 11.6083 4.84545C11.6613 4.84889 11.7129 4.8495 11.6295 4.84541C11.6754 4.78525 11.6458 4.82489 11.6168 4.8624L11.4092 4.96312L11.4064 4.96454ZM67.9227 11.3622L67.9432 11.3502L67.9572 11.6632L68.0723 11.6284C68.022 11.5387 67.9738 11.4498 67.9227 11.3622ZM68.4699 12.2263L68.5599 12.3668L68.4501 12.2363C68.4443 12.1614 68.4407 12.0871 68.4465 12.1903C68.3877 12.1049 68.4288 12.1656 68.4706 12.2242L68.4699 12.2263ZM5.16544 9.23945L4.83602 9.19621L4.84117 9.31564C4.94714 9.28718 5.05593 9.25731 5.15976 9.22108C5.16608 9.20199 5.17453 9.1836 5.17804 9.16592C5.18013 9.15249 5.17022 9.13978 5.16524 9.12636L5.16686 9.24227L5.16544 9.23945ZM2.0613 12.0274L2.32152 12.1019L2.32769 11.9909C2.2415 12.0095 2.15813 12.0266 2.07548 12.0486L2.06343 12.0281L2.0613 12.0274ZM12.468 4.16968L12.3557 4.2031L12.4287 4.32383L12.5261 4.26429C12.5077 4.23463 12.4878 4.20216 12.468 4.16968ZM27.5924 23.6193L27.5851 23.4992C27.5462 23.5098 27.4791 23.5135 27.4749 23.5333C27.4608 23.5757 27.4814 23.6273 27.4886 23.6767L27.5924 23.6193ZM61.2913 4.62996C61.309 4.61933 61.3323 4.61293 61.34 4.59666C61.3435 4.58605 61.3273 4.56417 61.3216 4.54581C61.3039 4.55644 61.2806 4.56284 61.2729 4.57911C61.2686 4.59184 61.2828 4.61302 61.2913 4.62996ZM13.8063 3.57718L13.7689 3.61187C13.7816 3.62316 13.7936 3.64363 13.8035 3.6422C13.8156 3.64147 13.8289 3.62237 13.8402 3.60963L13.8041 3.57647L13.8063 3.57718ZM17.8608 12.7212L17.8756 12.6767L17.7936 12.6825C17.7986 12.6959 17.8007 12.7178 17.8128 12.7241C17.8248 12.7305 17.8439 12.7226 17.8608 12.7212ZM33.7481 5.07147L33.7064 5.08355L33.7383 5.1153L33.7481 5.07147ZM61.7334 4.84475L61.7213 4.76773C61.71 4.78047 61.6916 4.79323 61.6931 4.80312C61.6938 4.81513 61.7136 4.82641 61.7334 4.84475ZM7.85611 7.24446L7.84544 7.2056L7.81722 7.23392L7.85894 7.24304L7.85611 7.24446ZM14.4868 3.14344L14.4507 3.13148L14.455 3.16823L14.4868 3.14344Z" fill="#F1F192"/>
</svg>
