<svg width="171" height="183" viewBox="0 0 171 183" fill="none" xmlns="http://www.w3.org/2000/svg">
<g clip-path="url(#clip0_5844_28652)">
<path d="M82.8106 106.936C83.2153 106.774 84.008 106.181 84.7335 106.247C85.2779 106.293 85.9867 107.11 86.2001 107.726C86.6593 109.11 86.9466 110.576 87.12 112.026C87.1873 112.607 86.8926 113.677 86.5434 113.776C85.699 114.027 84.5817 114.131 83.8278 113.773C82.6367 113.205 81.881 108.526 82.8145 106.93L82.8106 106.936Z" fill="#F9B500"/>
<path d="M102.873 159.593C102.112 157.638 101.301 156.077 100.927 154.417C100.643 153.183 99.3506 151.677 101.003 150.542C102.749 149.338 104.538 147.826 106.886 148.8C107.548 149.076 108.235 149.872 108.429 150.564C108.849 152.057 109.151 153.647 109.127 155.191C109.107 156.48 108.92 158.447 108.135 158.893C106.817 159.629 104.955 159.39 102.886 159.601L102.873 159.593Z" fill="#F9B500"/>
<path d="M88.8353 12.7889C89.7585 11.7707 91.6258 10.9686 92.756 11.2263C94.1695 11.5398 94.211 12.7245 94.3987 13.8115C94.4776 14.284 94.4919 14.7618 94.5126 15.2435C94.6409 18.127 92.5591 19.6139 89.8859 18.5219C89.617 18.4126 89.2238 18.1575 89.2031 17.9414C89.0361 16.2295 88.9441 14.5098 88.8353 12.7889Z" fill="#F9B500"/>
<path d="M64.6682 25.087C66.193 25.9812 67.6494 28.9674 67.4052 30.7054C67.1855 32.2545 64.0988 33.4799 62.3736 32.2876C60.7867 31.1878 59.6317 29.4369 58.3837 27.8866C58.1767 27.6289 58.3654 26.84 58.6176 26.4611C59.7256 24.7934 62.9715 24.0979 64.6682 25.087Z" fill="#F9B500"/>
<path d="M115.005 100.159C116.805 101.254 118.475 106.937 117.549 108.785C116.835 110.204 114.045 110.476 112.891 109.106C111.105 106.983 110.435 104.507 111.298 101.789C111.858 100.038 113.621 99.323 115.007 100.169L115.005 100.159Z" fill="#F9B500"/>
<path d="M121.663 48.1387C119.792 46.4687 119.563 45.2594 120.897 43.5512C122.834 41.0828 125.634 41.0473 127.653 43.4438C128.041 43.8993 128.487 44.3016 128.832 44.7845C129.276 45.3976 130.135 46.3322 129.965 46.646C129.597 47.3086 128.708 48.0026 127.973 48.0717C125.882 48.2606 123.767 48.1346 121.663 48.1387Z" fill="#F9B500"/>
<path d="M79.4652 172.818C78.4188 170.53 78.6967 169.326 80.6105 168.313C83.3739 166.848 85.9449 167.949 86.831 170.963C87.0005 171.534 87.2488 172.092 87.3769 172.674C87.5399 173.418 87.9487 174.621 87.6617 174.837C87.0617 175.298 85.9625 175.564 85.2667 175.329C83.279 174.651 81.3948 173.682 79.4652 172.818V172.818Z" fill="#F9B500"/>
<path d="M97.7549 119.563C98.7427 117.831 100.82 117.076 102.277 117.92C103.89 118.859 104.742 122.268 103.776 123.933C103.153 125.009 99.3385 126.069 98.2612 125.471C97.2977 124.934 96.952 120.954 97.7485 119.559L97.7549 119.563Z" fill="#F9B500"/>
<path d="M82.2088 144.971C79.202 143.288 79.1449 141.377 81.2462 140.035C84.7505 137.814 87.2231 138.475 88.2554 141.833C88.6383 143.065 88.363 144.058 87.1901 144.315C85.3086 144.728 83.3597 144.825 82.2062 144.961L82.2088 144.971Z" fill="#F9B500"/>
<path d="M99.3642 81.8267C101.996 83.4159 103.344 87.3811 101.867 88.6492C100.825 89.5424 98.7869 89.7014 97.2842 89.4933C96.0428 89.319 95.6013 84.3344 96.8257 82.914C97.4606 82.1732 98.8094 82.0493 99.3706 81.8306L99.3642 81.8267Z" fill="#F9B500"/>
<path d="M49.4194 90.4737C49.0159 89.69 47.8557 88.361 48.1466 87.7843C48.6858 86.7467 49.9931 85.8366 51.1595 85.4876C52.0763 85.218 53.601 85.5368 54.2542 86.1967C55.316 87.2628 55.8903 88.8223 56.6664 90.1761C55.253 90.5707 53.8577 91.1267 52.4236 91.3052C51.6179 91.4029 50.7359 90.8615 49.4194 90.4737Z" fill="#F9B500"/>
<path d="M98.288 60.879C99.1491 59.3897 99.9923 59.5093 101.133 60.384C102.845 61.7013 104.135 64.3035 103.042 65.5911C101.961 66.8592 100.041 67.4257 98.4258 68.1588C98.3276 68.2056 97.2774 66.943 97.3265 66.3442C97.4763 64.5138 97.9429 62.6977 98.288 60.879Z" fill="#F9B500"/>
<path d="M127.394 130.795C126.533 132.284 125.69 132.165 124.549 131.29C122.837 129.973 121.547 127.371 122.64 126.083C123.721 124.815 125.641 124.248 127.256 123.515C127.354 123.469 128.404 124.731 128.355 125.33C128.206 127.16 127.739 128.976 127.394 130.795Z" fill="#F9B500"/>
<path d="M69.5226 66.772C70.7522 64.7528 72.7526 63.8009 74.0782 64.6014C75.4685 65.4409 75.8154 68.1643 74.75 69.8932C73.8927 71.2875 71.1836 71.9973 69.7623 71.2099C68.6074 70.5656 68.4908 68.4593 69.5226 66.772Z" fill="#F9B500"/>
<path d="M41.2359 117.725C41.7806 120.028 41.0424 122.122 39.5385 122.507C37.966 122.903 35.8075 121.227 35.3469 119.241C34.9782 117.646 36.3914 115.216 37.9444 114.764C39.2169 114.399 40.7766 115.81 41.232 117.731L41.2359 117.725Z" fill="#F9B500"/>
<path d="M129.06 65.4752C128.996 65.4361 128.923 65.4101 128.873 65.3619C127.943 64.3401 125.575 63.9902 126.784 61.9319C127.865 60.0884 130.976 59.7809 132.568 61.0343C132.74 61.1736 132.969 61.3207 133.022 61.512C133.435 62.9297 134.59 64.9461 134.048 65.6634C132.712 67.4327 130.723 66.4618 129.06 65.4752Z" fill="#F9B500"/>
<path d="M55.6892 152.291C55.6245 152.252 55.5521 152.226 55.5017 152.178C54.5718 151.156 52.2039 150.806 53.4128 148.748C54.4937 146.904 57.6051 146.597 59.1971 147.85C59.3691 147.989 59.598 148.136 59.6511 148.328C60.0638 149.745 61.2188 151.762 60.677 152.479C59.3414 154.248 57.3523 153.277 55.6892 152.291Z" fill="#F9B500"/>
<path d="M81.7318 48.4385C79.6005 47.0276 79.0737 43.0272 80.9422 41.3672C81.5629 40.8125 82.7525 40.3802 83.4625 40.6053C84.1557 40.8292 84.9459 41.9083 85.0353 42.6881C85.2061 44.2164 85.0834 45.8241 84.7913 47.3473C84.4747 48.9707 83.1324 49.364 81.7318 48.4385Z" fill="#F9B500"/>
<path d="M68.5489 89.4365C69.9363 88.3624 71.0109 87.9314 71.818 89.1888C72.8527 90.7873 73.7025 92.5486 74.3403 94.3411C74.5046 94.8033 73.7301 96.044 73.1469 96.2406C71.8098 96.699 69.8235 97.4204 69.2013 95.6904C68.5118 93.7781 68.7237 91.5337 68.5424 89.4326L68.5489 89.4365Z" fill="#F9B500"/>
<path d="M126.847 81.3639C128.409 82.3427 129.187 84.7861 127.84 85.9553C126.746 86.9057 124.591 87.6141 123.374 87.1625C121.74 86.5561 122.325 84.4666 123.186 83.2871C123.998 82.1752 124.649 80.0363 126.847 81.3639Z" fill="#F9B500"/>
<path d="M66.5029 126.219C65.6625 127.704 62.2008 128.791 60.9437 127.713C60.407 127.256 60.1805 125.792 60.4908 125.094C61.3105 123.261 64.4412 122.036 65.7745 122.735C67.0561 123.402 67.3317 124.755 66.4926 126.222L66.5029 126.219Z" fill="#F9B500"/>
<path d="M105.023 35.2318C106.544 36.1325 107.668 38.555 106.813 39.4729C105.568 40.81 103.947 40.2113 102.691 39.515C101.467 38.8382 99.9827 37.862 100.889 36.0016C101.551 34.6399 103.541 34.3545 105.023 35.2318Z" fill="#F9B500"/>
<path d="M58.789 57.5458C57.5827 59.526 55.3507 59.922 53.7496 58.7427C53.2465 58.377 52.7162 57.3486 52.8881 56.8682C53.3885 55.4974 56.9123 54.4829 57.9327 55.4266C58.5237 55.9694 58.6196 57.0629 58.7929 57.5393L58.789 57.5458Z" fill="#F9B500"/>
<path d="M139.172 96.5964C136.968 95.9119 136.038 93.8278 136.779 91.9648C137.009 91.3868 137.873 90.616 138.373 90.6616C139.816 90.8072 141.66 94.0003 140.998 95.2293C140.619 95.9388 139.587 96.2983 139.176 96.5899L139.172 96.5964Z" fill="#F9B500"/>
</g>
<defs>
<clipPath id="clip0_5844_28652">
<rect width="145.314" height="112.499" fill="white" transform="matrix(0.51189 -0.859051 0.856033 0.516921 0 124.832)"/>
</clipPath>
</defs>
</svg>
