<svg width="91" height="17" viewBox="0 0 91 17" fill="none" xmlns="http://www.w3.org/2000/svg">
<path d="M33.0538 16.9044C32.8738 16.679 32.7091 16.4705 32.51 16.2225L32.2189 16.1999C31.9795 15.6908 31.3668 15.627 31.0355 15.1761C31.0814 15.1085 31.1446 15.0183 31.2251 14.9018C31.0738 14.5336 31.0163 14.1166 30.7521 13.7653C30.6219 13.5925 30.5702 13.3595 30.4859 13.1529C30.2944 12.6832 30.1201 12.2061 29.9114 11.7421C29.605 11.0564 29.2718 10.382 28.9578 9.70004C28.9003 9.57605 28.8869 9.43328 28.8352 9.30741C28.682 8.92042 28.5212 8.53532 28.3622 8.14833L28.0386 8.02434L28.1669 7.80455L27.2975 6.42942L27.0371 6.47075L27.1118 6.142C26.9701 5.93536 26.8207 5.71932 26.7288 5.58594C26.4951 5.43753 26.3381 5.33797 26.1543 5.22149C25.7866 5.14071 25.4592 5.38117 25.1087 5.4845C24.2719 5.73247 23.4466 6.02365 22.6251 6.32047C21.6848 6.66049 20.7541 7.02118 19.8216 7.37811C18.6879 7.81018 17.56 8.25541 16.4245 8.68184C14.4214 9.43516 12.405 10.1547 10.4154 10.938C9.30279 11.3757 8.22659 11.9017 7.14848 12.4202C5.99377 12.9763 4.85629 13.5718 3.71116 14.1485C3.45839 14.2763 3.19987 14.3927 2.94901 14.5242C2.72496 14.6426 2.50475 14.7252 2.24048 14.7365C1.99729 14.7459 1.75792 14.8304 1.50323 14.8868C1.27535 14.7271 1.44195 14.4604 1.31748 14.1936C0.968961 13.8874 0.296816 14.0076 0 13.4929C0.0306391 13.2506 0.210644 13.1022 0.354264 12.9237C0.622356 12.5912 0.877044 12.238 0.668315 11.8304C0.656825 11.3062 1.03024 11.1372 1.36918 10.9399C2.11793 10.5059 2.86667 10.0701 3.61733 9.63804C3.91031 9.46897 4.20138 9.29802 4.50203 9.1421C5.33886 8.70814 6.17186 8.26856 7.02018 7.85715C8.49469 7.14328 10.0056 6.51396 11.5509 5.95602C13.125 5.38681 14.68 4.765 16.2445 4.16761C16.8592 3.93279 17.4719 3.69421 18.0924 3.47629C19.2835 3.05549 20.4822 2.65159 21.6752 2.23455C22.9851 1.77805 24.2891 1.30465 25.6028 0.857544C26.139 0.675322 26.6943 0.547578 27.2247 0.39917C27.5599 0.562607 27.8892 0.722286 28.2377 0.891359L28.5039 0.600178C28.8639 0.692229 29.2527 0.791794 29.718 0.912023L29.9306 0.791794L30.1661 0.947716L29.8616 1.25205C29.8999 1.32907 29.9363 1.40609 29.9861 1.51129L30.2618 1.19005C30.3557 1.23702 30.5012 1.25956 30.528 1.32907C30.664 1.67285 31.0144 1.82689 31.2097 2.11244C31.5372 2.58772 31.8742 3.05737 32.1825 3.5458C32.3759 3.85201 32.5272 4.18264 32.6862 4.50951C32.8336 4.81196 32.9657 5.12005 33.1055 5.42438C33.1266 5.47322 33.1438 5.52582 33.1764 5.56527C33.5115 5.9842 33.6513 6.48954 33.8543 6.97046C34.0477 7.42883 34.3273 7.85151 34.5705 8.28922C34.5858 8.31928 34.6394 8.33619 34.6413 8.36436C34.7026 8.91291 35.0511 9.34123 35.256 9.82966C35.3728 10.1058 35.3633 10.4346 35.4092 10.7333L35.7041 10.9061C36.5371 10.7765 37.2514 10.3594 38.0154 10.0758C38.7163 9.81463 39.4038 9.51969 40.0989 9.23791C41.0564 8.85092 42.01 8.45454 42.9713 8.07694C43.8005 7.75195 44.6373 7.44949 45.4703 7.13577C46.6365 6.69618 47.8219 6.29417 48.9651 5.80385C50.2902 5.23652 51.6479 4.75936 52.9884 4.23336C53.7639 3.92903 54.5816 3.72426 55.361 3.42745C56.3089 3.06488 57.251 2.67977 58.1702 2.25145C59.0281 1.85319 59.9339 1.58268 60.7975 1.20508C61.1882 1.03413 61.5865 0.887602 62.0078 0.806823C62.1112 0.786158 62.2203 0.786158 62.3639 0.773008C62.5765 1.21072 63.0074 1.12994 63.4114 1.16563C63.4765 1.09237 63.5435 1.01347 63.6221 0.925173C64.0108 1.1769 64.4455 1.16939 64.9032 1.10176C65.0276 1.28023 65.1329 1.46057 65.2708 1.61461C65.3991 1.75926 65.5198 1.8964 65.5944 2.12371C65.8242 2.212 66.01 2.39047 66.167 2.67413C66.4198 3.13063 66.6687 3.58525 66.8602 4.06992C66.9311 4.24651 67.0211 4.41558 67.0996 4.59029C67.1704 4.74433 67.2375 4.90026 67.3332 5.03739C67.3907 5.32106 67.4385 5.60473 67.5056 5.88651C67.6051 6.31107 67.7545 6.72812 67.8024 7.15643C67.8273 7.37811 67.9288 7.50022 68.0379 7.61293C68.0915 8.02058 68.1241 8.40381 68.1988 8.77953C68.2658 9.11955 68.3807 9.45018 68.486 9.8259C68.555 9.80148 68.6124 9.78833 68.666 9.76203C68.7139 9.73949 68.7541 9.70379 68.8154 9.66247C68.9016 9.71319 68.9896 9.76579 69.095 9.82778C69.2865 9.76954 69.4952 9.71882 69.6924 9.64556C70.9276 9.18718 72.1646 8.73069 73.394 8.25728C74.1408 7.96798 74.8704 7.63735 75.6173 7.34617C76.2262 7.10947 76.862 6.93288 77.4613 6.67552C78.1641 6.37494 78.8956 6.14764 79.6195 5.92221C81.1859 5.43377 82.6968 4.80445 84.2403 4.25778C84.8607 4.03799 85.4582 3.7562 86.0805 3.5364C86.6263 3.34291 87.1893 3.20014 87.7791 3.02355C87.7599 3.1419 87.7503 3.20577 87.7389 3.27716C87.9361 3.38048 88.1333 3.48568 88.2904 3.56834C88.6695 3.48193 89.0238 3.40115 89.3474 3.32788C89.5695 3.48005 89.7649 3.61343 90.0023 3.77498C89.943 3.99666 89.7649 4.21269 89.6863 4.47382C89.8434 4.56963 90.0023 4.66731 90.1115 4.73494C90.2972 4.73494 90.4332 4.72931 90.5691 4.73494C90.7032 4.74246 90.8353 4.76124 91 4.77815C90.7664 5.21398 90.46 5.57467 90.01 5.8264C89.4508 6.13824 88.9031 6.46887 88.3535 6.79763C88.2482 6.8615 88.1525 6.9404 88.0586 7.02118C87.6699 7.35932 87.3003 7.71813 86.8944 8.03185C86.6167 8.24789 86.295 8.41133 85.9848 8.58416C85.0962 9.08198 84.1368 9.42389 83.187 9.78833C82.1204 10.196 81.0653 10.6318 79.9891 11.0132C79.2174 11.2856 78.4131 11.4697 77.6356 11.7289C76.6877 12.0464 75.7571 12.4108 74.813 12.7358C73.5664 13.166 72.3082 13.568 71.0635 14.0001C70.4412 14.2162 69.8112 14.404 69.1601 14.4942C68.6373 14.5674 68.1701 14.7835 67.6875 14.962C67.1858 15.1461 66.6955 15.364 66.1862 15.5255C65.9583 15.5969 65.6959 15.5687 65.401 15.5875C65.4796 15.4316 65.5293 15.332 65.5983 15.1911C65.0755 15.1611 64.727 14.8849 64.3976 14.5656C64.2597 14.4322 64.0816 14.3383 63.938 14.2086C63.7944 14.0809 63.6718 13.9344 63.5378 13.7935C63.6948 13.7089 63.8193 13.6413 63.9725 13.5586C63.8576 13.414 63.7733 13.3069 63.668 13.1735C63.6604 13.0082 63.6508 12.8166 63.6431 12.625C63.375 12.1704 63.2276 11.6838 63.1969 11.1578C63.1874 10.9887 63.1663 10.7614 63.0571 10.6675C62.7852 10.4346 62.8733 10.1678 62.8446 9.91232C62.7316 9.55163 62.6167 9.19094 62.5037 8.83025L62.565 8.80959C62.5057 8.74572 62.4463 8.68372 62.3697 8.60294V8.12015C62.1603 7.77324 62.0461 7.44261 62.0269 7.12826C61.7971 6.70182 61.5731 6.28102 61.3414 5.85082C60.8243 5.93911 60.3552 6.0894 59.9071 6.30919C57.9347 7.27479 55.901 8.09009 53.8195 8.81147C52.2013 9.37316 50.6253 10.0457 49.034 10.6788C47.5097 11.2856 46.0065 11.9431 44.4497 12.4728C43.4711 12.8053 42.5271 13.2355 41.5638 13.6112C40.0855 14.1899 38.6014 14.7515 37.1269 15.3395C36.4816 15.5969 35.8592 15.9125 35.2215 16.1924C34.7486 16.3991 34.2775 16.6095 33.7911 16.7804C33.546 16.8668 33.2702 16.8668 33.0462 16.9006L33.0538 16.9044Z" fill="#F9B500"/>
</svg>
