<svg width="82" height="83" viewBox="0 0 82 83" fill="none" xmlns="http://www.w3.org/2000/svg">
<path d="M75.3473 14.4249L74.7009 14.6475C73.9238 14.1577 73.1399 13.6156 72.3117 13.1546C71.4912 12.6981 70.6251 12.3232 69.779 11.9124C69.1111 11.5882 68.4629 11.064 67.7697 10.993C66.9992 10.9142 66.4044 10.3193 65.7546 10.3452C65.0001 10.3754 64.4566 9.66014 63.7112 9.95351C62.7474 9.36364 61.6054 9.57748 60.6005 9.27043C59.4696 8.92452 58.3287 8.87472 57.1865 8.77257C55.8667 8.65454 54.5603 8.4166 53.2199 8.45742C52.2651 8.48622 51.297 8.39073 50.3435 8.34412C48.6475 8.26098 47.0182 8.542 45.3771 8.79473C44.4795 8.93331 43.6085 9.23987 42.7248 9.46794C41.889 9.68405 41.0141 9.80426 40.2224 10.127C37.423 11.2687 34.5494 12.2799 32.1533 14.2151C30.991 14.5469 30.1607 15.4257 29.3033 16.1561C28.4459 16.8864 27.412 17.4748 26.7948 18.4773C25.1931 19.5066 24.0277 21.0082 22.7626 22.3714C21.7664 23.4451 20.5908 24.4152 19.9424 25.7908C19.2634 25.9542 19.2353 26.7171 18.7229 27.1017C18.1462 27.5263 17.7124 28.1156 17.4787 28.792C17.2585 29.4717 16.5222 29.821 16.2887 30.5454C16.069 31.1747 15.7046 31.7436 15.2246 32.2065C14.7502 32.6925 14.6338 33.4844 14.0277 33.9542C13.8808 34.0667 14.0126 34.4923 13.9259 34.7426C13.865 34.9157 13.5077 35.0616 13.5287 35.1754C13.6509 35.8432 13.0844 36.2333 12.9978 36.6967L12.0195 37.404L12.4505 37.9952C11.5985 39.7503 10.8056 41.3779 10.0255 43.0105C9.99495 43.0735 10.0826 43.1932 10.1159 43.2884L9.71978 43.4465C9.52758 44.4026 9.46478 45.382 9.02107 46.2874C8.79792 46.8018 8.64231 47.3429 8.55809 47.8973C8.33654 49.0303 8.05343 50.158 7.75036 51.2622C7.40809 52.5085 7.56227 53.7317 7.55272 54.9569C7.54361 56.1663 7.76876 57.3427 8.48469 58.4328C9.47246 59.9369 10.4024 61.4837 11.5407 62.8757C12.0848 63.541 12.7383 64.1557 13.289 64.8041C13.8661 65.4831 14.5804 66.0031 15.2099 66.574C15.8268 67.09 16.4909 67.547 17.1935 67.9388C17.7621 68.2803 18.3624 68.52 18.8463 69.0418C19.279 69.5083 20.1358 69.4792 20.4536 70.1853C20.4692 70.2197 20.5388 70.2303 20.5829 70.2515C22.7842 71.3013 24.6922 72.9523 27.0356 73.6638C28.6205 74.1451 30.1783 74.8806 31.9026 74.8229C34.1567 75.5886 36.5582 75.3214 38.8495 75.829C39.6697 75.5709 40.4944 75.8981 41.3252 75.8132C42.1385 75.73 42.9717 75.859 43.7928 75.8216C46.6935 75.6906 49.597 75.5838 52.4828 75.2211C53.0453 75.1495 53.5438 74.8947 54.1451 74.8853C54.8911 74.8742 55.6472 74.6081 56.3705 74.3674C57.0466 74.1425 57.7328 73.9649 58.3454 73.514C58.9486 73.0701 59.7462 72.951 60.4404 72.5909C62.0598 71.7513 63.7222 70.9679 65.0989 69.7848C65.9549 69.0494 66.8084 68.2742 67.6221 67.4736C68.4077 66.7011 69.0008 65.7712 69.8438 65.0391C70.4959 64.4731 70.8474 63.5589 71.3188 62.7916C71.8933 61.8564 72.4887 60.9315 73.0104 59.9672C73.5638 58.977 74.0572 57.9544 74.4879 56.9049C74.903 55.8604 75.2383 54.7858 75.4909 53.6904C75.6136 53.0485 75.7903 52.4182 76.0191 51.8061C76.4069 50.8756 76.4129 49.9125 76.4628 48.9491C76.5625 47.0333 76.2584 45.1742 75.8922 43.2824C75.488 41.1934 74.2938 39.4575 73.7553 37.4494C73.5306 36.6112 73.0058 35.826 72.5017 35.096C72.1181 34.5409 71.5078 34.1693 71.0688 33.6193C70.531 32.9448 69.8078 32.4186 69.1686 31.8239C69.1025 31.7627 69.0775 31.6485 69.0056 31.6042C68.1098 31.0515 67.2137 30.4989 66.3063 29.9653C65.9702 29.7549 65.6111 29.5839 65.2359 29.4556C64.9222 29.3589 64.8964 28.7543 64.4125 29.0136C64.1177 28.4264 63.4268 28.7517 62.992 28.383C62.6106 28.0601 62.0769 27.9825 61.5288 27.9186C60.9017 27.8457 60.3531 27.3237 59.6338 27.3676C59.1742 27.3685 58.7148 27.3399 58.2586 27.2821L58.0361 26.6434C57.9614 26.6577 57.8327 26.6509 57.8172 26.6895C57.7548 26.8944 57.6246 27.072 57.4477 27.1932C57.2708 27.3144 57.0577 27.372 56.8433 27.3567C55.9191 27.3799 54.998 27.5116 54.0209 27.6031L53.5629 26.9363C53.4113 27.1165 53.2386 27.3215 53.1097 27.4744L53.3545 27.7832C52.399 28.1027 51.4615 28.3989 50.5364 28.729C48.3582 29.5088 46.3012 30.5892 44.425 31.9388C43.457 32.632 42.4587 33.2915 41.5463 34.0521C40.4054 34.9632 39.3118 35.9315 38.2696 36.9533C37.5336 37.7052 36.7748 38.4294 36.0536 39.1988C35.6054 39.6769 35.4286 40.3002 34.8727 40.7478C34.2079 41.2829 33.9561 42.2971 33.3653 42.9621C32.6758 43.7381 32.2844 44.6488 31.8063 45.5302C31.6592 45.8013 31.3742 45.9974 31.1431 46.2377L31.2604 46.6493L31.0247 46.7467C30.9345 47.1349 30.8149 47.5156 30.6668 47.8855C30.1682 48.9126 29.9667 50.0138 29.7626 51.1222C29.4423 52.864 30.0205 54.3878 31.153 55.6139C32.4812 57.0519 34.0681 58.1952 35.7379 59.2741C37.0992 60.1536 38.5708 60.7557 39.923 61.5741C40.8156 61.4269 41.6853 61.6414 42.5641 61.5635C42.8588 61.5375 43.1907 61.6032 43.5231 61.5199C44.9112 61.1703 46.3325 60.9869 47.7156 60.5719C48.3347 60.3861 49.0111 60.2642 49.6467 60.0648C51.6459 59.438 53.2852 58.2415 54.7493 56.7873C55.2363 56.3035 55.6045 55.6504 56.1696 55.3088C56.8248 54.9129 56.7885 53.997 57.5449 53.7586C58.1544 52.7299 58.8663 51.7456 59.3387 50.6571C59.6732 49.8863 59.7635 49.0041 60.211 48.2549C60.3097 48.0899 60.4096 45.538 60.2941 45.2536C60.0439 44.6368 59.7362 44.0434 59.452 43.4405C58.8686 43.4658 58.8005 42.6647 58.0931 42.6956C57.4495 42.6882 56.8285 42.4534 56.3407 42.033C55.8367 41.5882 56.0082 42.2456 55.7675 42.2431C53.8207 42.2232 52.0915 43.2108 50.2018 43.4764C50.1095 43.4892 50.0236 43.5474 50.1343 43.5013C49.6932 43.991 49.4491 44.4758 49.0635 44.6495C47.9338 45.1592 47.2387 46.1857 46.2433 46.8441C46.032 47.0269 45.8576 47.2482 45.7293 47.4962C45.3931 48.0038 45.353 48.7052 44.6806 49.0012C44.5425 49.0619 44.4624 49.3306 44.4216 49.5187C44.3076 50.048 44.2282 50.585 44.1183 51.2158C46.4346 50.8802 48.0267 49.229 49.9945 48.3836L50.9685 48.8565L49.6251 49.9703C50.1171 49.995 50.3331 50.0546 50.52 50.0054C50.949 49.892 51.3635 49.7257 51.8071 49.5735C52.075 50.0295 52.0721 50.5762 52.2932 51.0649C52.4991 51.5207 52.3357 52.1423 52.3355 52.9681C51.8668 53.9673 50.5462 54.5482 49.7226 55.5948C49.0872 55.6768 48.4512 55.6004 48.0008 56.3177C47.7336 56.7423 47.0877 56.9291 46.7294 57.1503C46.0338 57.1269 45.6816 56.6731 45.0638 56.726C44.1984 56.8006 43.8269 55.7383 43.0341 55.4975C42.3278 54.3078 41.2182 53.4443 40.4917 52.2416C39.9449 51.3373 39.7903 50.3904 39.5913 49.4357C39.4533 48.7745 39.5802 48.0635 39.5032 47.384C39.4274 46.7129 39.7228 46.1035 39.8389 45.4932C40.0514 44.5258 40.481 43.6198 41.0954 42.843C41.9293 41.7615 42.7444 40.643 43.8487 39.7766C45.2082 38.6982 46.7317 37.8429 48.3621 37.2429C49.896 36.6841 51.4281 36.1455 53.0957 36.0193C54.1761 35.9375 55.192 36.2396 56.2449 36.2616C56.7387 36.2716 56.8836 36.9201 57.4944 36.9058C57.9337 36.8956 58.4041 37.2613 58.8236 37.5194C59.2586 37.7873 59.8871 38.0545 60.0104 38.4509C60.2855 39.3364 61.4475 39.4723 61.5173 40.4414C62.3681 40.856 62.5882 41.7386 62.9283 42.4797C63.7973 44.3718 64.7443 46.2655 64.5312 48.4516C64.5002 48.7696 64.4574 49.0863 64.4205 49.3999L64.7371 49.6505C64.5768 50.4843 64.4206 51.2955 64.2605 52.1275C64.2064 52.1539 64.1212 52.1954 63.9649 52.2712L64.0985 53.4534L63.1612 53.1689C63.0883 53.2982 63.0227 53.4148 62.9289 53.581L63.5262 53.871L63.6106 54.0826C63.0768 54.2405 63.5266 54.8386 63.1869 55.058C62.392 55.5713 62.2751 56.502 61.8042 57.2125C61.45 57.7552 61.0437 58.2621 60.5911 58.7261C60.3039 59.016 59.8872 59.1781 59.5315 59.395C59.6892 60.4707 58.2739 60.7644 58.1993 61.8065L57.8073 61.7081L55.8947 63.2755L55.4621 64.1666C54.8195 64.7349 54.2235 65.1003 53.4437 64.9614L53.1586 65.5487C52.0756 65.91 50.9735 66.3798 49.8226 66.6107C49.3657 66.7022 48.9051 66.8196 48.4434 66.9115C48.0301 66.9937 47.5909 66.9942 47.1998 67.1328C45.8938 67.5951 44.5275 67.5849 43.1839 67.5934C41.3015 67.6054 38.9698 66.8851 37.3862 65.8922C36.8092 65.5305 36.3354 65.0046 35.7528 64.5004C35.5799 64.4853 35.2151 64.5683 35.0471 64.4236C33.1975 62.8323 31.141 61.5108 29.5116 59.6208C28.2972 58.212 27.1618 56.7605 26.3002 55.1571C25.6577 53.951 25.2476 52.636 25.0913 51.2805C24.9038 49.6755 24.698 48.0849 24.9863 46.4759C25.01 46.3445 24.9288 46.1891 24.9657 46.0657C25.1363 45.3806 25.3547 44.7084 25.6193 44.054C26.423 42.3076 27.2092 40.5452 28.1561 38.8759C28.7011 37.9147 29.4039 37.0181 30.054 36.1099C30.6795 35.2348 31.3579 34.4099 31.9986 33.5514C32.7217 32.5845 33.6128 31.7942 34.455 30.9556C35.1308 30.2823 35.7997 29.5477 36.5732 29.0272C37.9089 28.1289 39.0506 26.999 40.4376 26.1441C41.7669 25.3249 43.0673 24.4369 44.4286 23.656C45.1077 23.2312 45.8241 22.8687 46.569 22.5728C48.4066 21.9256 50.2065 21.132 52.1567 20.8614C53.8436 20.6274 55.5029 20.3775 57.2568 20.568C59.0026 20.7573 60.6594 21.0755 62.2719 21.7391C62.5602 21.8579 62.9034 21.8389 63.2371 21.886L63.4048 22.278L63.6684 22.2135C63.9176 22.3732 64.1471 22.5617 64.3521 22.7751C64.5968 23.0935 65.0266 22.6408 65.292 23.1195C65.4702 23.441 66.0314 23.5446 66.4113 23.7649C66.7335 23.9518 67.2016 23.9705 67.269 24.4689C67.9258 24.0914 67.9477 24.932 68.3552 25.0347C68.8933 25.1707 69.2077 25.6039 69.5902 25.954C69.9318 26.2667 70.316 26.5334 70.6811 26.8204C71.0462 27.1075 71.4987 27.3322 71.762 27.6922C72.8702 29.2144 74.5411 30.3299 75.09 32.2344C76.0078 32.6478 76.2492 33.5782 76.6796 34.3242C78.2196 36.9963 79.1812 39.9173 80.0837 42.8388C80.9676 45.6996 81.4248 48.6687 81.1525 51.6604C81.0077 53.2472 80.9331 54.859 80.4079 56.4219C80.0705 57.4252 79.8879 58.5047 79.5022 59.4997C79.1116 60.5076 78.5731 61.4583 78.0994 62.434C77.7549 63.1436 77.417 63.8564 77.0643 64.5621C76.7059 65.2788 76.4242 66.0061 75.6375 66.4654C75.1844 66.7302 74.9529 67.3709 74.6217 67.8423C74.9974 68.3716 73.7887 68.4012 74.2475 68.938L72.0374 70.5902C71.9906 70.4373 71.9277 70.2898 71.8496 70.1501C71.8016 70.0827 71.679 70.0672 71.5415 70.009C71.2922 70.2925 71.6599 70.5096 71.6295 70.8877L71.1036 71.971L70.4113 72.2093L70.4885 72.5758C69.65 72.8671 69.1797 73.6563 68.4623 74.1311C67.6494 74.6697 66.8691 75.2645 65.9801 75.5065L65.0015 74.6638L64.8434 74.8242L65.2983 75.3538L64.4158 75.4841L64.4241 75.7102L65.2136 75.8975C65.1562 76.0666 65.0754 76.3051 64.9907 76.5557L64.3177 76.4863C64.2465 76.7754 64.1712 77.0755 64.0608 77.5195L62.5266 77.621L61.1379 78.7891L61.2238 78.9183C59.7821 79.4144 58.3683 80.0242 56.8925 80.3765C55.1105 80.7849 53.3061 81.0908 51.4883 81.2928C48.9178 81.6023 46.3349 81.8164 43.7542 82.0329C43.4483 82.0586 43.1212 81.844 42.7398 81.7197C41.9042 82.3092 40.8773 81.9452 39.9085 82.02C39.0043 82.0899 38.0843 81.9614 37.1301 81.9196L37.1229 81.2625C36.1643 82.1167 35.0357 81.5884 33.9436 81.5896L33.5606 81.0421C33.3814 81.2344 33.2618 81.3629 33.1421 81.4913C33.0953 81.507 33.0211 81.5504 33.0055 81.5351C32.5438 81.0888 31.9109 81.2104 31.3746 81.1125C28.8077 80.6411 26.5981 79.3189 24.2526 78.3085C22.4504 77.532 20.8802 76.378 19.1794 75.4414C18.509 75.0924 17.8785 74.6718 17.2988 74.1871C16.7385 73.6884 16.0434 73.4757 15.5161 73.0219C14.8481 72.447 14.1684 71.8949 13.4806 71.3446C12.73 70.7386 12.0174 70.0871 11.347 69.3938C10.6759 68.7041 9.94224 68.0748 9.27206 67.3842C8.60188 66.6936 8.00742 65.9377 7.33291 65.2561C5.3639 63.2664 4.09948 60.7851 2.54445 58.5067C2.10793 56.909 1.38501 55.4129 1.02904 53.7714C0.77008 52.4857 0.583189 51.1869 0.469235 49.8809C0.326111 48.4856 0.48223 47.0555 0.722778 45.6568C0.974449 44.1881 1.25778 42.7297 1.81656 41.3363C1.96868 40.9569 1.98751 40.5256 2.09057 40.1242C2.19362 39.7228 2.64106 39.4036 2.38105 38.9034C2.35184 38.8472 2.4403 38.7286 2.47696 38.6403C3.12329 37.0813 3.73417 35.506 4.42669 33.9682C5.13506 32.3955 5.91786 30.8556 6.68726 29.3115C6.75807 29.1695 6.9759 29.1004 7.12522 28.9976L7.00381 28.5711C7.20944 28.3936 7.52861 28.2536 7.60501 28.0302C8.0827 26.6342 9.19646 25.6161 9.78254 24.2882C9.93088 23.9522 9.98548 23.4985 10.4895 23.4425C10.214 22.9522 10.82 22.9255 10.9329 22.624C11.0601 22.2851 11.1831 21.9476 11.5742 21.7046C12.0771 21.3921 12.0291 20.547 12.6983 20.3026C13.3879 18.8972 14.654 17.9694 15.6036 16.783C16.3393 15.9059 17.1573 15.101 18.0465 14.3791C18.7676 13.7627 19.3705 13.0041 20.0717 12.3392C21.747 10.7911 23.5011 9.33011 25.3271 7.96198C26.5267 7.03889 27.9557 6.42059 29.1677 5.48674C30.1588 5.49717 30.7626 4.66068 31.6341 4.34976C32.5249 4.03189 33.3982 3.59459 34.3076 3.27608C35.2402 2.94956 36.1652 2.59638 37.1124 2.31855C38.6602 1.86473 40.2733 1.65908 41.8252 1.26035C43.3936 0.857195 44.9823 0.853079 46.5526 0.68357C48.0333 0.524585 49.5772 0.667354 51.061 0.893058C52.1057 1.05169 53.1641 1.02722 54.205 1.28376C55.4973 1.60233 56.8318 1.74361 58.1417 1.9954C58.6902 2.10086 59.2737 2.5054 59.7533 2.39593C60.4717 2.23235 60.876 2.9508 61.5341 2.78255C62.1081 2.63597 62.5201 3.47025 63.1629 3.11197C63.1876 3.09821 63.2539 3.14463 63.2933 3.17318C64.2984 3.9037 65.5875 3.8842 66.6573 4.46347C67.701 5.02848 68.8973 5.36708 69.8336 6.06305C71.345 7.18733 73.0701 8.04776 74.1693 9.73001C74.9972 10.9966 75.6133 12.2443 75.5198 13.7684C75.4851 13.9926 75.4273 14.2126 75.3473 14.4249Z" fill="#F9B500"/>
</svg>
